<?xml version="1.0" encoding="UTF-8" standalone="no"?>
<!DOCTYPE svg PUBLIC "-//W3C//DTD SVG 1.1//EN"
"http://www.w3.org/Graphics/SVG/1.1/DTD/svg11.dtd">
<svg viewBox="0 0 909 1286" version="1.1" xmlns="http://www.w3.org/2000/svg" xmlns:xlink="http://www.w3.org/1999/xlink">
<defs>
<clipPath id="c0_4"><path d="M0,1286.2V0H909.4V1286.2Z"/></clipPath>
<clipPath id="c1_4"><path d="M137.3,179.8V154.9H194v24.9Z"/></clipPath>
<clipPath id="c2_4"><path d="M203.3,180.3V148H277v32.3Z"/></clipPath>
<clipPath id="c3_4"><path d="M137.3,1005.3V533H848.8v472.3Z"/></clipPath>
<path d="M143,-194l-22,20c0,0,-10,9,-10,21c0,0,0,9,11,20c0,0,6,7,17,21c0,0,12,13,23,30c0,0,12,17,22,38c0,0,9,21,14,44h-9c0,0,-38,0,-61,25c0,0,-24,26,-24,65c0,0,0,16,7,31c0,0,6,15,17,26c0,0,12,11,28,18c0,0,16,7,35,7c0,0,22,0,39,-9c0,0,17,-8,28,-22c0,0,11,-13,17,-32c0,0,5,-19,5,-41c0,0,0,-32,-9,-67c0,0,-9,-34,-27,-69c0,0,-17,-34,-43,-66c0,0,-25,-33,-58,-60Z"
id="f0_x"
transform="scale(0.001,-0.001)"/>

<path d="M304,0V390L0,980H119c0,0,18,0,28,-8c0,0,11,-9,19,-23L333,571c0,0,13,-23,23,-44c0,0,10,-20,17,-41c0,0,7,21,17,41c0,0,9,21,22,43L578,949c0,0,6,11,17,21c0,0,11,10,29,10H744L440,392V0Z"
id="f0_2c"
transform="scale(0.001,-0.001)"/>

<path d="M404,92c0,0,53,0,92,18c0,0,40,18,66,53c0,0,27,35,40,86c0,0,13,51,13,116c0,0,0,65,-13,115c0,0,-13,51,-40,86c0,0,-26,35,-66,54c0,0,-39,19,-92,19c0,0,-54,0,-94,-19c0,0,-40,-19,-66,-54c0,0,-27,-35,-40,-86c0,0,-13,-50,-13,-115c0,0,0,-65,13,-116c0,0,13,-51,40,-86c0,0,26,-35,66,-53c0,0,40,-18,94,-18ZM404,-9c0,0,-80,0,-145,25c0,0,-64,27,-109,75c0,0,-46,49,-70,119c0,0,-24,69,-24,156c0,0,0,85,24,155c0,0,24,69,70,118c0,0,45,49,109,75c0,0,65,27,145,27c0,0,79,0,144,-27c0,0,64,-26,108,-75c0,0,45,-49,69,-118c0,0,25,-70,25,-155c0,0,0,-87,-25,-156c0,0,-24,-70,-69,-119C656,91,612,43,548,16C548,16,483,-9,404,-9Z"
id="f0_n"
transform="scale(0.001,-0.001)"/>

<path d="M336,-10c0,0,-60,0,-105,19c0,0,-45,19,-76,56c0,0,-30,36,-46,87c0,0,-16,51,-16,113V730H225V265c0,0,0,-82,36,-127c0,0,37,-45,113,-45c0,0,56,0,104,26c0,0,48,26,89,73V730H698V0H619c0,0,-13,0,-22,6c0,0,-9,7,-11,21l-12,77c0,0,-47,-52,-104,-83c0,0,-58,-31,-134,-31Z"
id="f0_j"
transform="scale(0.001,-0.001)"/>

<path d="M357,-9c0,0,-64,0,-120,24c0,0,-56,25,-97,73c0,0,-42,49,-65,118c0,0,-24,70,-24,160c0,0,0,81,22,150c0,0,22,69,63,119c0,0,42,50,102,78c0,0,61,28,140,28c0,0,75,0,131,-25c0,0,56,-25,99,-70L574,598c0,0,-6,-8,-12,-12c0,0,-5,-4,-16,-4c0,0,-11,0,-23,9c0,0,-12,9,-30,20c0,0,-18,10,-44,19c0,0,-25,9,-63,9c0,0,-49,0,-86,-19c0,0,-38,-19,-63,-54c0,0,-25,-36,-38,-86c0,0,-13,-51,-13,-114c0,0,0,-66,14,-117c0,0,13,-51,39,-86c0,0,25,-35,61,-54c0,0,36,-18,80,-18c0,0,44,0,71,11c0,0,28,11,47,25c0,0,18,13,31,24c0,0,12,12,25,12c0,0,15,0,24,-13l38,-48c0,0,-24,-29,-53,-50c0,0,-29,-21,-62,-35C501,17,467,3,431,-3c0,0,-36,-6,-74,-6Z"
id="f0_4"
transform="scale(0.001,-0.001)"/>

<path d="M307,81c0,0,32,0,60,6c0,0,28,7,52,19c0,0,25,13,47,31c0,0,22,18,44,41V328c0,0,-88,-3,-149,-14c0,0,-61,-11,-100,-29c0,0,-38,-18,-55,-42c0,0,-17,-24,-17,-54c0,0,0,-29,9,-49c0,0,9,-21,25,-34c0,0,16,-13,37,-19c0,0,22,-6,47,-6ZM267,-10c0,0,-42,0,-79,10c0,0,-37,12,-65,36c0,0,-28,24,-44,61c0,0,-16,36,-16,85c0,0,0,43,23,83c0,0,24,40,77,71c0,0,53,32,138,52c0,0,85,19,209,22v56c0,0,0,85,-37,128c0,0,-36,43,-105,43c0,0,-46,0,-78,-12c0,0,-32,-12,-55,-26c0,0,-23,-14,-40,-26c0,0,-17,-12,-34,-12c0,0,-13,0,-23,7c0,0,-10,6,-16,17L98,627c0,0,61,58,131,87c0,0,69,28,154,28c0,0,62,0,109,-20c0,0,48,-19,80,-56c0,0,32,-36,49,-87c0,0,17,-51,17,-113V0H580c0,0,-20,0,-30,6c0,0,-11,6,-14,25L519,98c0,0,-28,-26,-55,-46c0,0,-28,-21,-57,-35C407,17,377,3,342,-3c0,0,-34,-7,-75,-7Z"
id="f0_3"
transform="scale(0.001,-0.001)"/>

<path d="M104,0V730h79c0,0,14,0,23,-7c0,0,9,-6,10,-20l12,-78c0,0,47,52,105,84c0,0,58,32,134,32c0,0,60,0,105,-20c0,0,45,-20,76,-56c0,0,30,-36,46,-87c0,0,15,-51,15,-113V0H578V465c0,0,0,81,-37,127c0,0,-37,45,-112,45c0,0,-56,0,-104,-26c0,0,-49,-27,-89,-74V0Z"
id="f0_a"
transform="scale(0.001,-0.001)"/>

<path d="M284,-10c0,0,-72,0,-131,23C153,13,93,38,52,78l31,49c0,0,6,10,14,15c0,0,8,5,21,5c0,0,13,0,27,-10c0,0,13,-10,32,-22c0,0,19,-13,46,-23c0,0,27,-10,67,-10c0,0,35,0,59,10c0,0,25,9,42,25c0,0,16,17,25,38c0,0,8,22,8,46c0,0,0,30,-16,49c0,0,-15,20,-39,34c0,0,-25,14,-57,24c0,0,-32,11,-65,22c0,0,-33,12,-65,26c0,0,-31,15,-56,38c0,0,-25,22,-40,55c0,0,-15,33,-15,80c0,0,0,42,16,81c0,0,17,38,48,67c0,0,31,29,78,47c0,0,46,17,106,17c0,0,67,0,123,-23c0,0,55,-22,94,-62L507,609c0,0,-9,-17,-27,-17c0,0,-12,0,-25,9c0,0,-13,8,-31,17c0,0,-18,9,-43,18c0,0,-25,8,-59,8c0,0,-30,0,-53,-8c0,0,-23,-9,-39,-23c0,0,-17,-14,-26,-33c0,0,-9,-19,-9,-41c0,0,0,-28,15,-47c0,0,15,-18,40,-32c0,0,25,-13,56,-24c0,0,32,-11,65,-22c0,0,33,-11,64,-26c0,0,32,-15,57,-37c0,0,24,-21,39,-52c0,0,15,-31,15,-75c0,0,0,-51,-17,-94c0,0,-17,-43,-50,-74C479,56,445,25,396,7c0,0,-48,-17,-112,-17Z"
id="f0_l"
transform="scale(0.001,-0.001)"/>

<path d="M95,0V1061H227V437h30c0,0,14,0,22,4c0,0,9,4,19,16L492,704c0,0,10,12,21,19c0,0,11,7,29,7H661L432,442c0,0,-11,-11,-21,-20c0,0,-10,-9,-22,-17c0,0,12,-8,22,-20c0,0,10,-11,21,-24L676,0H558c0,0,-16,0,-28,6c0,0,-12,5,-21,19L310,324c0,0,-11,15,-20,20c0,0,-10,4,-30,4H227V0Z"
id="f0_q"
transform="scale(0.001,-0.001)"/>

<path d="M110,0V730H241V0Zm63,866c0,0,-19,0,-35,8c0,0,-16,7,-29,19c0,0,-12,13,-19,29c0,0,-8,17,-8,36c0,0,0,19,8,36c0,0,7,17,19,29c0,0,13,13,29,21c0,0,16,7,35,7c0,0,19,0,35,-7c0,0,17,-8,30,-21c0,0,13,-12,21,-29c0,0,7,-17,7,-36c0,0,0,-19,-7,-36c0,0,-8,-16,-21,-29c0,0,-13,-12,-29,-19c0,0,-17,-8,-36,-8Z"
id="f0_6"
transform="scale(0.001,-0.001)"/>

<path d="M404,91c0,0,100,0,154,72c0,0,54,73,54,207c0,0,0,71,-12,122c0,0,-12,50,-36,83c0,0,-23,32,-57,47c0,0,-34,15,-77,15c0,0,-61,0,-108,-28c0,0,-47,-29,-86,-81V176c0,0,35,-47,76,-66c0,0,42,-19,92,-19ZM105,-245V730h79c0,0,14,0,23,-7c0,0,9,-6,10,-20l13,-85c0,0,46,56,106,90c0,0,59,34,137,34c0,0,63,0,113,-24c0,0,51,-24,87,-71c0,0,36,-47,55,-117c0,0,19,-69,19,-160c0,0,0,-81,-21,-150c0,0,-22,-70,-62,-121c0,0,-41,-51,-99,-80C565,19,507,-9,433,-9c0,0,-66,0,-113,21c0,0,-47,22,-84,63V-245Z"
id="f0_e"
transform="scale(0.001,-0.001)"/>

<path d="M311,-10c0,0,-84,0,-130,47c0,0,-45,49,-45,139V621H52c0,0,-11,0,-19,7c0,0,-8,8,-8,22v52l115,15l31,224c0,0,1,12,9,18c0,0,8,7,20,7h67V716H468V621H267V185c0,0,0,-45,21,-67c0,0,20,-23,53,-23c0,0,19,0,33,6c0,0,14,5,24,12c0,0,9,6,16,12c0,0,7,5,13,5c0,0,7,0,11,-3c0,0,4,-3,8,-10L485,54C485,54,451,23,406,6c0,0,-46,-16,-95,-16Z"
id="f0_k"
transform="scale(0.001,-0.001)"/>

<path d="M107,0V1061H238V633c0,0,45,50,101,79c0,0,56,29,129,29c0,0,59,0,105,-20c0,0,45,-20,75,-56c0,0,31,-36,46,-87c0,0,15,-51,15,-113V0H578V465c0,0,0,81,-36,127c0,0,-37,45,-112,45c0,0,-56,0,-104,-27c0,0,-48,-27,-88,-74V0Z"
id="f0_5"
transform="scale(0.001,-0.001)"/>

<path d="M587,445c0,0,0,44,-13,81c0,0,-12,36,-36,63c0,0,-24,26,-59,41c0,0,-34,15,-78,15c0,0,-91,0,-145,-53c0,0,-53,-54,-67,-147ZM406,-9c0,0,-76,0,-140,24c0,0,-65,25,-111,75c0,0,-47,50,-73,122c0,0,-26,73,-26,168c0,0,0,76,23,142c0,0,24,66,68,115c0,0,45,49,108,76c0,0,64,28,144,28c0,0,66,0,122,-22c0,0,56,-22,97,-63c0,0,41,-42,64,-102c0,0,23,-61,23,-139c0,0,0,-31,-7,-41c0,0,-6,-10,-24,-10H186c0,0,1,-69,18,-120c0,0,18,-51,48,-84c0,0,30,-34,72,-51c0,0,42,-16,93,-16c0,0,48,0,83,10c0,0,35,11,60,25c0,0,25,13,42,24c0,0,17,11,30,11c0,0,8,0,14,-4c0,0,6,-3,10,-9l38,-48c0,0,-25,-29,-58,-50c0,0,-33,-21,-71,-35C565,17,527,3,486,-3c0,0,-41,-6,-80,-6Z"
id="f0_b"
transform="scale(0.001,-0.001)"/>

<path d="M127,0V620L53,630c0,0,-16,1,-25,9c0,0,-10,9,-10,23v54H127v70c0,0,0,62,17,111c0,0,16,49,48,82c0,0,31,33,76,51c0,0,45,17,101,17c0,0,23,0,45,-3c0,0,22,-4,42,-11l-4,-65c0,0,-1,-18,-18,-19c0,0,-16,-2,-44,-2c0,0,-31,0,-56,-9c0,0,-25,-8,-43,-27c0,0,-18,-20,-28,-51c0,0,-9,-32,-9,-78V716H450V621H258V0Z"
id="f0_t"
transform="scale(0.001,-0.001)"/>

<path d="M110,0V1061H241V0Z"
id="f0_m"
transform="scale(0.001,-0.001)"/>

<path d="M245,0L16,730H119c0,0,15,0,26,-9c0,0,10,-8,13,-19L289,236c0,0,7,-25,12,-49c0,0,6,-24,9,-48c0,0,6,24,14,48c0,0,7,24,15,50L484,706c0,0,4,11,14,18c0,0,9,7,23,7h56c0,0,15,0,25,-7c0,0,9,-7,13,-18L756,237c0,0,9,-25,15,-50c0,0,7,-24,13,-48c0,0,8,48,23,98L941,703c0,0,3,12,13,19c0,0,10,8,24,8h98L847,0H743c0,0,-19,0,-26,25L564,516c0,0,-6,17,-10,34c0,0,-4,17,-8,34c0,0,-4,-17,-7,-34c0,0,-4,-17,-10,-35L374,25C374,25,366,0,345,0Z"
id="f0_13"
transform="scale(0.001,-0.001)"/>

<path d="M355,-167c0,0,49,0,87,10c0,0,38,10,65,26c0,0,26,17,39,41c0,0,13,23,13,51c0,0,0,27,-13,42c0,0,-14,16,-38,26c0,0,-24,9,-55,13c0,0,-32,4,-67,6c0,0,-35,3,-71,4c0,0,-36,2,-70,7c0,0,-36,-19,-59,-47c0,0,-23,-26,-23,-64c0,0,0,-25,11,-45c0,0,11,-21,34,-37c0,0,24,-15,61,-24c0,0,36,-9,86,-9ZM345,358c0,0,72,0,109,40c0,0,37,41,37,106c0,0,0,66,-37,105c0,0,-37,39,-109,39c0,0,-71,0,-108,-39c0,0,-37,-39,-37,-105c0,0,0,-33,9,-59c0,0,10,-26,28,-46c0,0,18,-19,45,-30c0,0,28,-11,63,-11Zm8,-620c0,0,-77,0,-134,16c0,0,-58,16,-96,43c0,0,-38,26,-57,62c0,0,-18,35,-18,73c0,0,0,53,31,90c0,0,32,37,88,59c0,0,-30,14,-48,38c0,0,-18,25,-18,66c0,0,0,31,22,66c0,0,22,35,67,59c0,0,-51,30,-81,80c0,0,-29,50,-29,117c0,0,0,53,20,97c0,0,19,43,54,74c0,0,35,31,84,47c0,0,48,17,107,17c0,0,45,0,85,-11c0,0,39,-10,71,-30H692V653c0,0,0,-26,-30,-31L585,611c0,0,23,-48,23,-104c0,0,0,-54,-20,-97c0,0,-20,-44,-55,-74c0,0,-35,-31,-83,-48c0,0,-48,-16,-105,-16c0,0,-48,0,-88,11c0,0,-22,-14,-32,-30c0,0,-11,-17,-11,-32c0,0,0,-26,20,-39c0,0,20,-13,53,-19c0,0,33,-6,75,-7c0,0,42,-2,85,-5c0,0,44,-3,86,-11c0,0,41,-7,74,-25c0,0,33,-19,53,-50c0,0,20,-32,20,-82c0,0,0,-47,-22,-91c0,0,-22,-44,-65,-78c0,0,-42,-35,-103,-55c0,0,-60,-21,-137,-21Z"
id="f0_h"
transform="scale(0.001,-0.001)"/>

<path d="M304,-10c0,0,-82,0,-127,47c0,0,-45,49,-45,139V621H51c0,0,-11,0,-19,7c0,0,-8,8,-8,22v52l113,15l29,224c0,0,3,12,10,18c0,0,8,7,20,7h67V716H742V0H610V621H263V185c0,0,0,-45,20,-67c0,0,20,-23,52,-23c0,0,19,0,32,6c0,0,13,5,22,12c0,0,9,6,16,12c0,0,7,5,13,5c0,0,6,0,11,-3c0,0,4,-3,7,-10L475,54C475,54,442,23,398,6c0,0,-45,-16,-94,-16ZM677,871c0,0,-19,0,-35,8c0,0,-17,7,-29,20c0,0,-12,12,-20,29c0,0,-7,16,-7,35c0,0,0,19,7,36c0,0,8,17,20,30c0,0,12,12,29,20c0,0,16,7,35,7c0,0,18,0,35,-7c0,0,17,-8,30,-20c0,0,13,-13,20,-30c0,0,8,-17,8,-36c0,0,0,-19,-8,-35c0,0,-7,-17,-20,-29c0,0,-13,-13,-30,-20c0,0,-17,-8,-35,-8Z"
id="f0_r"
transform="scale(0.001,-0.001)"/>

<path d="M17,0L244,374L27,730H152c0,0,15,0,22,-6c0,0,7,-5,13,-14L339,445c0,0,3,9,7,16c0,0,3,8,9,16L483,707c0,0,6,11,14,17c0,0,7,6,18,6H635L417,381L645,0H518c0,0,-14,0,-24,9c0,0,-9,8,-15,18L325,303c0,0,-6,-17,-14,-29L172,27c0,0,-6,-11,-15,-19c0,0,-9,-8,-23,-8Z"
id="f0_14"
transform="scale(0.001,-0.001)"/>

<path d="M162,-245L287,43L8,730H122c0,0,17,0,26,-9c0,0,9,-8,13,-18L331,246c0,0,6,-15,12,-31c0,0,5,-16,9,-31c0,0,5,16,10,32c0,0,6,16,12,32L539,703c0,0,4,11,15,19c0,0,10,8,23,8H681L305,-214c0,0,-6,-15,-16,-23c0,0,-10,-8,-29,-8Z"
id="f0_11"
transform="scale(0.001,-0.001)"/>

<path d="M371,95c0,0,62,0,108,28c0,0,45,29,85,81V557c0,0,-35,47,-76,66c0,0,-41,19,-91,19c0,0,-99,0,-153,-73c0,0,-54,-72,-54,-206c0,0,0,-71,13,-122c0,0,12,-51,35,-83c0,0,23,-33,57,-48c0,0,33,-15,76,-15ZM328,-9c0,0,-62,0,-112,23c0,0,-50,24,-86,71c0,0,-36,47,-55,117c0,0,-20,70,-20,161c0,0,0,80,21,150c0,0,22,70,62,120c0,0,40,51,98,80c0,0,58,29,131,29c0,0,66,0,113,-22c0,0,47,-22,84,-63v404H695V0H617c0,0,-14,0,-23,6c0,0,-9,7,-11,21l-13,87c0,0,-46,-56,-105,-90C465,24,406,-9,328,-9Z"
id="f0_o"
transform="scale(0.001,-0.001)"/>

<path d="M98,0V730h75c0,0,21,0,30,-9c0,0,8,-8,10,-27l9,-108c0,0,33,73,82,114c0,0,50,42,119,42c0,0,23,0,43,-5c0,0,20,-4,37,-16L492,624c0,0,-2,-18,-21,-18c0,0,-10,0,-29,4c0,0,-19,4,-42,4c0,0,-34,0,-59,-10c0,0,-26,-10,-47,-30c0,0,-20,-20,-36,-48c0,0,-16,-28,-29,-65V0Z"
id="f0_g"
transform="scale(0.001,-0.001)"/>

<path d="M404,91c0,0,101,0,155,72c0,0,53,73,53,216c0,0,0,133,-47,195c0,0,-48,63,-136,63c0,0,-60,0,-106,-28c0,0,-46,-29,-84,-81V176c0,0,34,-47,75,-66c0,0,41,-19,90,-19ZM437,-9c0,0,-71,0,-120,26c0,0,-48,27,-85,76L225,28C225,28,222,0,192,0H107V1061H239V626c0,0,44,53,102,84c0,0,57,31,132,31c0,0,63,0,114,-25c0,0,51,-24,87,-71c0,0,35,-46,54,-112c0,0,19,-66,19,-150c0,0,0,-88,-21,-161c0,0,-22,-72,-62,-124c0,0,-40,-52,-98,-80C566,18,509,-9,437,-9Z"
id="f0_10"
transform="scale(0.001,-0.001)"/>

<path d="M110,0V730h77c0,0,15,0,24,-7c0,0,8,-6,10,-20l11,-75c0,0,21,25,44,45c0,0,22,21,49,36c0,0,26,15,55,24c0,0,30,8,64,8c0,0,75,0,123,-41c0,0,47,-41,67,-111c0,0,16,41,41,69c0,0,26,28,58,47c0,0,31,19,67,27c0,0,36,9,73,9c0,0,119,0,184,-72c0,0,66,-71,66,-204V0H991V465c0,0,0,85,-38,128c0,0,-39,44,-112,44c0,0,-32,0,-61,-11c0,0,-30,-11,-52,-33c0,0,-22,-22,-35,-54c0,0,-13,-32,-13,-74V0H549V465c0,0,0,87,-36,130c0,0,-36,42,-106,42c0,0,-48,0,-90,-25c0,0,-42,-25,-76,-69V0Z"
id="f0_p"
transform="scale(0.001,-0.001)"/>

<path d="M191,-11c0,0,-19,0,-35,8c0,0,-16,6,-29,18c0,0,-12,13,-20,29c0,0,-7,17,-7,36c0,0,0,19,7,36c0,0,8,17,20,29c0,0,13,13,29,21c0,0,16,7,35,7c0,0,19,0,35,-7c0,0,17,-8,30,-21c0,0,13,-12,21,-29c0,0,7,-17,7,-36c0,0,0,-19,-7,-36c0,0,-8,-16,-21,-29C256,15,243,3,226,-3c0,0,-16,-8,-35,-8Z"
id="f0_u"
transform="scale(0.001,-0.001)"/>

<path d="M304,0V867H18V980H727V867H441V0Z"
id="f0_y"
transform="scale(0.001,-0.001)"/>

<path d="M45,0V54c0,0,0,10,5,23c0,0,4,13,13,24L409,627H65V730H559V674c0,0,0,-14,-5,-27c0,0,-5,-13,-12,-23L196,102H548V0Z"
id="f0_1u"
transform="scale(0.001,-0.001)"/>

<path d="M310,-211c0,0,-54,83,-92,165c0,0,-37,80,-61,162c0,0,-23,82,-34,166c0,0,-11,84,-11,171c0,0,0,87,11,171c0,0,11,83,34,165c0,0,24,82,61,164c0,0,38,81,92,164l58,-35c0,0,11,-8,17,-20c0,0,6,-12,-6,-34c0,0,-75,-131,-114,-276c0,0,-39,-146,-39,-299c0,0,0,-155,39,-300c0,0,39,-145,114,-275c0,0,12,-22,6,-34c0,0,-6,-12,-17,-19l-58,-36Z"
id="f0_1w"
transform="scale(0.001,-0.001)"/>

<path d="M286,0L14,730H122c0,0,15,0,26,-9c0,0,10,-8,14,-18L318,236c0,0,9,-26,16,-51c0,0,7,-25,13,-50c0,0,5,25,12,50c0,0,7,25,18,51L535,703c0,0,4,11,14,19c0,0,10,8,23,8H676L404,0Z"
id="f0_z"
transform="scale(0.001,-0.001)"/>

<path d="M154,-211l-59,36c0,0,-5,3,-10,8c0,0,-4,5,-7,11c0,0,-2,6,-1,15c0,0,1,8,7,19c0,0,75,130,114,275c0,0,39,145,39,300c0,0,0,153,-39,299c0,0,-39,145,-114,276c0,0,-6,11,-7,19c0,0,-1,9,1,15c0,0,3,7,7,11c0,0,5,5,10,9l59,35c0,0,53,-83,91,-164c0,0,38,-82,61,-164c0,0,24,-82,35,-165c0,0,10,-84,10,-171c0,0,0,-87,-10,-171c0,0,-11,-84,-35,-166c0,0,-23,-82,-61,-162c0,0,-38,-82,-91,-165Z"
id="f0_19"
transform="scale(0.001,-0.001)"/>

<path d="M125,0V620L53,630c0,0,-16,1,-25,9c0,0,-10,9,-10,23v54H125v58c0,0,0,63,17,112c0,0,17,49,48,82c0,0,32,33,76,51c0,0,44,17,100,17c0,0,23,0,44,-4c0,0,22,-3,42,-10l-4,-66c0,0,-1,-17,-17,-19c0,0,-16,-2,-43,-2c0,0,-31,0,-56,-8c0,0,-25,-8,-43,-27c0,0,-17,-20,-27,-51c0,0,-10,-32,-10,-78V716H555v78c0,0,0,62,17,111c0,0,17,48,48,82c0,0,31,34,76,51c0,0,44,18,99,18c0,0,46,0,87,-15l-4,-65c0,0,-1,-17,-18,-19c0,0,-16,-2,-43,-2c0,0,-31,0,-56,-8c0,0,-25,-9,-42,-28c0,0,-18,-19,-27,-51c0,0,-10,-32,-10,-79V716H875V621H686V0H555V621H257V0Z"
id="f0_1v"
transform="scale(0.001,-0.001)"/>

<path d="M56,376V487H413V376Z"
id="f0_1n"
transform="scale(0.001,-0.001)"/>

<path d="M163,659l-40,25c0,0,-11,7,-10,17c0,0,1,11,7,17c0,0,19,23,32,56c0,0,14,32,17,70c0,0,4,38,-3,78c0,0,-8,40,-30,78c0,0,-10,16,-6,28c0,0,4,12,18,17l81,32c0,0,31,-51,41,-108c0,0,11,-57,3,-112c0,0,-9,-56,-37,-107c0,0,-27,-51,-73,-91Z"
id="f0_12"
transform="scale(0.001,-0.001)"/>

<path d="M307,0L9,980H123c0,0,17,0,30,-8c0,0,12,-9,16,-23L359,272c0,0,10,-36,19,-83c0,0,5,23,10,44c0,0,5,21,11,40L618,948c0,0,3,13,16,23c0,0,13,9,30,9h39c0,0,18,0,30,-8c0,0,11,-9,16,-23L968,272c0,0,6,-18,11,-38c0,0,5,-21,9,-43c0,0,5,22,9,43c0,0,5,21,10,38l190,676c0,0,3,13,16,23c0,0,13,9,31,9h106L1053,0H930L694,743c0,0,-4,10,-7,23c0,0,-4,12,-7,26c0,0,-3,-14,-7,-26c0,0,-3,-13,-7,-23L429,0Z"
id="f0_1o"
transform="scale(0.001,-0.001)"/>

<path d="M103,0V980H658V870H239V530H595V420H239V0Z"
id="f0_1l"
transform="scale(0.001,-0.001)"/>

<path d="M190,0V95H394V757c0,0,0,29,2,61L230,671c0,0,-13,-11,-28,-11c-2,0,-5,1,-7,1c0,0,-17,5,-23,15l-40,54L418,983H519V95H706V0Z"
id="f0_18"
transform="scale(0.001,-0.001)"/>

<path d="M69,0V43c0,0,0,12,5,27c0,0,5,14,18,26L395,410c0,0,39,39,70,76c0,0,31,36,53,73c0,0,21,37,33,75c0,0,12,38,12,81c0,0,0,42,-13,74c0,0,-13,32,-35,54c0,0,-23,21,-53,31c0,0,-31,11,-67,11c0,0,-35,0,-65,-11c0,0,-29,-11,-52,-30c0,0,-24,-19,-40,-45c0,0,-16,-27,-24,-58c0,0,-6,-26,-20,-33c0,0,-10,-6,-27,-6c-4,0,-9,1,-14,1L88,714c0,0,9,68,36,120c0,0,27,51,68,87c0,0,41,35,95,53c0,0,53,17,115,17c0,0,62,0,115,-18c0,0,53,-19,92,-54c0,0,39,-35,61,-86c0,0,22,-50,22,-115c0,0,0,-55,-17,-101c0,0,-16,-47,-43,-90c0,0,-27,-42,-63,-83c0,0,-36,-40,-75,-81L242,101c0,0,29,8,58,12c0,0,28,5,54,5H665c0,0,21,0,32,-12c0,0,12,-11,12,-31V0Z"
id="f0_1b"
transform="scale(0.001,-0.001)"/>

<path d="M610,364L471,759c0,0,-7,18,-14,41c0,0,-8,24,-15,52c0,0,-7,-28,-15,-52c0,0,-7,-24,-14,-42L275,364ZM6,0L374,980H512L879,0H774c0,0,-18,0,-29,9c0,0,-11,9,-17,22L645,267H240L157,32c0,0,-4,-13,-16,-22C141,10,128,0,111,0Z"
id="f0_w"
transform="scale(0.001,-0.001)"/>

<path d="M131,0V620L53,630c0,0,-16,1,-25,9c0,0,-10,9,-10,23v54H131v95c0,0,0,119,53,181c0,0,54,61,151,61c0,0,17,0,31,-1c0,0,14,-2,26,-6V974c0,0,0,-11,-10,-14c0,0,-11,-3,-28,-3c0,0,-50,0,-73,-34c0,0,-24,-34,-24,-111V716H691V0H559V621H262V0ZM624,871c0,0,-18,0,-35,8c0,0,-16,7,-28,20c0,0,-13,12,-20,29c0,0,-8,16,-8,35c0,0,0,19,8,36c0,0,7,17,20,30c0,0,12,12,28,20c0,0,17,7,35,7c0,0,19,0,36,-7c0,0,17,-8,30,-20c0,0,13,-13,20,-30c0,0,8,-17,8,-36c0,0,0,-19,-8,-35c0,0,-7,-17,-20,-29c0,0,-13,-13,-30,-20c0,0,-17,-8,-36,-8Z"
id="f0_1d"
transform="scale(0.001,-0.001)"/>

<path d="M396,-9c0,0,-76,0,-130,18c0,0,-53,19,-91,53c0,0,-38,34,-63,80c0,0,-25,47,-41,102l54,23c0,0,14,6,31,6c3,0,7,0,10,-1c0,0,20,-3,29,-22c0,0,9,-19,22,-46c0,0,13,-26,35,-51c0,0,23,-24,57,-41c0,0,34,-17,86,-17c0,0,49,0,85,17c0,0,37,17,62,43c0,0,24,26,37,59c0,0,12,33,12,64c0,0,0,39,-10,72c0,0,-10,33,-36,57c0,0,-27,23,-75,37c0,0,-47,13,-122,13v91c0,0,62,0,104,13c0,0,43,13,69,36c0,0,27,22,39,53c0,0,12,32,12,69c0,0,0,42,-12,73c0,0,-12,31,-34,52c0,0,-22,21,-53,31c0,0,-30,10,-66,10c0,0,-36,0,-65,-11c0,0,-29,-11,-53,-30c0,0,-23,-19,-39,-45c0,0,-16,-27,-24,-58c0,0,-6,-26,-20,-33c0,0,-10,-6,-27,-6c-5,0,-9,1,-14,1L99,714c0,0,10,68,37,120c0,0,27,51,68,87c0,0,41,35,95,53c0,0,53,17,115,17c0,0,62,0,113,-17c0,0,52,-18,89,-51c0,0,37,-33,58,-79c0,0,21,-47,21,-103c0,0,0,-47,-12,-84c0,0,-12,-36,-33,-64c0,0,-22,-28,-52,-47c0,0,-31,-19,-69,-31c0,0,93,-25,140,-84c0,0,47,-60,47,-149c0,0,0,-68,-25,-122c0,0,-26,-54,-69,-92C622,68,578,30,520,10C520,10,462,-9,396,-9Z"
id="f0_1f"
transform="scale(0.001,-0.001)"/>

<path d="M119,-207V1104H386v-51c0,0,0,-15,-9,-25c0,0,-10,-10,-26,-10H229V-121H351c0,0,16,0,26,-10c0,0,9,-10,9,-25v-51Z"
id="f0_1x"
transform="scale(0.001,-0.001)"/>

<path d="M498,354V754c0,0,0,36,4,79L160,354ZM498,0V257H76c0,0,-15,0,-25,7c0,0,-9,8,-12,21L26,348L490,981H607V354H749V283c0,0,0,-11,-7,-19c0,0,-7,-7,-21,-7H607V0Z"
id="f0_1i"
transform="scale(0.001,-0.001)"/>

<path d="M82,-207v51c0,0,0,15,10,25c0,0,10,10,27,10H239V1018H119c0,0,-17,0,-27,10c0,0,-10,10,-10,25v51H349V-207Z"
id="f0_1y"
transform="scale(0.001,-0.001)"/>

</defs>
<image clip-path="url(#c1_4)" preserveAspectRatio="none" x="138" y="155" width="56" height="25" xlink:href="img/1.jpg"/>
<g fill="#000000"  clip-path="url(#c0_4)">
<use xlink:href="#f0_x" transform="matrix(12,0,0,12,194.9,180.3)"/>
</g>
<image clip-path="url(#c2_4)" preserveAspectRatio="none" x="203" y="148" width="74" height="32" xlink:href="img/2.jpg"/>
<g fill="#000000"  clip-path="url(#c0_4)">
<use xlink:href="#f0_2c" transform="matrix(12,0,0,12,174.3,223.5)"/>
<use xlink:href="#f0_n" transform="matrix(12,0,0,12,182,223.5)"/>
<use xlink:href="#f0_j" transform="matrix(12,0,0,12,191.6,223.5)"/>
<use xlink:href="#f0_4" transform="matrix(12,0,0,12,205.3,223.5)"/>
<use xlink:href="#f0_3" transform="matrix(12,0,0,12,213,223.5)"/>
<use xlink:href="#f0_a" transform="matrix(12,0,0,12,221.7,223.5)"/>
<use xlink:href="#f0_l" transform="matrix(12,0,0,12,235.6,223.5)"/>
<use xlink:href="#f0_q" transform="matrix(12,0,0,12,242.6,223.5)"/>
<use xlink:href="#f0_6" transform="matrix(12,0,0,12,251,223.5)"/>
<use xlink:href="#f0_e" transform="matrix(12,0,0,12,255.2,223.5)"/>
<use xlink:href="#f0_k" transform="matrix(12,0,0,12,269,223.5)"/>
<use xlink:href="#f0_5" transform="matrix(12,0,0,12,275.1,223.5)"/>
<use xlink:href="#f0_b" transform="matrix(12,0,0,12,284.7,223.5)"/>
<use xlink:href="#f0_t" transform="matrix(12,0,0,12,298,223.5)"/>
<use xlink:href="#f0_n" transform="matrix(12,0,0,12,303.2,223.5)"/>
<use xlink:href="#f0_m" transform="matrix(12,0,0,12,312.8,223.5)"/>
<use xlink:href="#f0_m" transform="matrix(12,0,0,12,316.9,223.5)"/>
<use xlink:href="#f0_n" transform="matrix(12,0,0,12,321.2,223.5)"/>
<use xlink:href="#f0_13" transform="matrix(12,0,0,12,330.8,223.5)"/>
<use xlink:href="#f0_6" transform="matrix(12,0,0,12,343.9,223.5)"/>
<use xlink:href="#f0_a" transform="matrix(12,0,0,12,348.2,223.5)"/>
<use xlink:href="#f0_h" transform="matrix(12,0,0,12,357.8,223.5)"/>
<use xlink:href="#f0_l" transform="matrix(12,0,0,12,370.5,223.5)"/>
<use xlink:href="#f0_b" transform="matrix(12,0,0,12,377.7,223.5)"/>
<use xlink:href="#f0_4" transform="matrix(12,0,0,12,386.8,223.5)"/>
<use xlink:href="#f0_r" transform="matrix(12,0,0,12,394.4,223.5)"/>
<use xlink:href="#f0_n" transform="matrix(12,0,0,12,404.7,223.5)"/>
<use xlink:href="#f0_a" transform="matrix(12,0,0,12,414.3,223.5)"/>
<use xlink:href="#f0_b" transform="matrix(12,0,0,12,428.2,223.5)"/>
<use xlink:href="#f0_14" transform="matrix(12,0,0,12,437,223.5)"/>
<use xlink:href="#f0_4" transform="matrix(12,0,0,12,444.5,223.5)"/>
<use xlink:href="#f0_b" transform="matrix(12,0,0,12,452.3,223.5)"/>
<use xlink:href="#f0_e" transform="matrix(12,0,0,12,461.3,223.5)"/>
<use xlink:href="#f0_k" transform="matrix(12,0,0,12,470.9,223.5)"/>
<use xlink:href="#f0_11" transform="matrix(12,0,0,12,481.1,223.5)"/>
<use xlink:href="#f0_n" transform="matrix(12,0,0,12,489.2,223.5)"/>
<use xlink:href="#f0_j" transform="matrix(12,0,0,12,498.9,223.5)"/>
<use xlink:href="#f0_13" transform="matrix(12,0,0,12,512.8,223.5)"/>
<use xlink:href="#f0_3" transform="matrix(12,0,0,12,525.6,223.5)"/>
<use xlink:href="#f0_a" transform="matrix(12,0,0,12,534.3,223.5)"/>
<use xlink:href="#f0_k" transform="matrix(12,0,0,12,543.8,223.5)"/>
<use xlink:href="#f0_k" transform="matrix(12,0,0,12,554.1,223.5)"/>
<use xlink:href="#f0_n" transform="matrix(12,0,0,12,560.1,223.5)"/>
<use xlink:href="#f0_q" transform="matrix(12,0,0,12,573.9,223.5)"/>
<use xlink:href="#f0_a" transform="matrix(12,0,0,12,582.2,223.5)"/>
<use xlink:href="#f0_n" transform="matrix(12,0,0,12,591.9,223.5)"/>
<use xlink:href="#f0_13" transform="matrix(12,0,0,12,601.5,223.5)"/>
<use xlink:href="#f0_5" transform="matrix(12,0,0,12,618.7,223.5)"/>
<use xlink:href="#f0_n" transform="matrix(12,0,0,12,628.4,223.5)"/>
<use xlink:href="#f0_13" transform="matrix(12,0,0,12,637.8,223.5)"/>
<use xlink:href="#f0_3" transform="matrix(12,0,0,12,655.2,223.5)"/>
<use xlink:href="#f0_o" transform="matrix(12,0,0,12,668.1,223.5)"/>
<use xlink:href="#f0_b" transform="matrix(12,0,0,12,677.7,223.5)"/>
<use xlink:href="#f0_b" transform="matrix(12,0,0,12,686.8,223.5)"/>
<use xlink:href="#f0_e" transform="matrix(12,0,0,12,696,223.5)"/>
<use xlink:href="#f0_m" transform="matrix(12,0,0,12,709.7,223.5)"/>
<use xlink:href="#f0_b" transform="matrix(12,0,0,12,713.9,223.5)"/>
<use xlink:href="#f0_3" transform="matrix(12,0,0,12,723,223.5)"/>
<use xlink:href="#f0_g" transform="matrix(12,0,0,12,731.7,223.5)"/>
<use xlink:href="#f0_a" transform="matrix(12,0,0,12,738.1,223.5)"/>
<use xlink:href="#f0_6" transform="matrix(12,0,0,12,747.7,223.5)"/>
<use xlink:href="#f0_a" transform="matrix(12,0,0,12,752,223.5)"/>
<use xlink:href="#f0_h" transform="matrix(12,0,0,12,761.6,223.5)"/>
<use xlink:href="#f0_a" transform="matrix(12,0,0,12,137.7,251)"/>
<use xlink:href="#f0_b" transform="matrix(12,0,0,12,147.3,251)"/>
<use xlink:href="#f0_k" transform="matrix(12,0,0,12,156.3,251)"/>
<use xlink:href="#f0_13" transform="matrix(12,0,0,12,162.4,251)"/>
<use xlink:href="#f0_n" transform="matrix(12,0,0,12,175.4,251)"/>
<use xlink:href="#f0_g" transform="matrix(12,0,0,12,185,251)"/>
<use xlink:href="#f0_q" transform="matrix(12,0,0,12,191.4,251)"/>
<use xlink:href="#f0_4" transform="matrix(12,0,0,12,203.9,251)"/>
<use xlink:href="#f0_3" transform="matrix(12,0,0,12,211.6,251)"/>
<use xlink:href="#f0_a" transform="matrix(12,0,0,12,220.3,251)"/>
<use xlink:href="#f0_10" transform="matrix(12,0,0,12,234.1,251)"/>
<use xlink:href="#f0_b" transform="matrix(12,0,0,12,243.6,251)"/>
<use xlink:href="#f0_e" transform="matrix(12,0,0,12,257,251)"/>
<use xlink:href="#f0_g" transform="matrix(12,0,0,12,266.6,251)"/>
<use xlink:href="#f0_b" transform="matrix(12,0,0,12,272.8,251)"/>
<use xlink:href="#f0_4" transform="matrix(12,0,0,12,281.8,251)"/>
<use xlink:href="#f0_6" transform="matrix(12,0,0,12,289.5,251)"/>
<use xlink:href="#f0_l" transform="matrix(12,0,0,12,293.8,251)"/>
<use xlink:href="#f0_b" transform="matrix(12,0,0,12,300.8,251)"/>
<use xlink:href="#f0_m" transform="matrix(12,0,0,12,310,251)"/>
<use xlink:href="#f0_11" transform="matrix(12,0,0,12,314.2,251)"/>
<use xlink:href="#f0_o" transform="matrix(12,0,0,12,326.6,251)"/>
<use xlink:href="#f0_b" transform="matrix(12,0,0,12,336.2,251)"/>
<use xlink:href="#f0_l" transform="matrix(12,0,0,12,345.4,251)"/>
<use xlink:href="#f0_4" transform="matrix(12,0,0,12,352.5,251)"/>
<use xlink:href="#f0_g" transform="matrix(12,0,0,12,360.3,251)"/>
<use xlink:href="#f0_6" transform="matrix(12,0,0,12,366.6,251)"/>
<use xlink:href="#f0_10" transform="matrix(12,0,0,12,370.8,251)"/>
<use xlink:href="#f0_b" transform="matrix(12,0,0,12,380.5,251)"/>
<use xlink:href="#f0_o" transform="matrix(12,0,0,12,389.6,251)"/>
<use xlink:href="#f0_p" transform="matrix(12,0,0,12,403.4,251)"/>
<use xlink:href="#f0_3" transform="matrix(12,0,0,12,418,251)"/>
<use xlink:href="#f0_k" transform="matrix(12,0,0,12,426.6,251)"/>
<use xlink:href="#f0_5" transform="matrix(12,0,0,12,432.7,251)"/>
<use xlink:href="#f0_b" transform="matrix(12,0,0,12,442.3,251)"/>
<use xlink:href="#f0_p" transform="matrix(12,0,0,12,451.4,251)"/>
<use xlink:href="#f0_3" transform="matrix(12,0,0,12,466.1,251)"/>
<use xlink:href="#f0_r" transform="matrix(12,0,0,12,474.7,251)"/>
<use xlink:href="#f0_4" transform="matrix(12,0,0,12,484.9,251)"/>
<use xlink:href="#f0_3" transform="matrix(12,0,0,12,492.5,251)"/>
<use xlink:href="#f0_m" transform="matrix(12,0,0,12,501.2,251)"/>
<use xlink:href="#f0_m" transform="matrix(12,0,0,12,505.3,251)"/>
<use xlink:href="#f0_11" transform="matrix(12,0,0,12,509.6,251)"/>
<use xlink:href="#f0_u" transform="matrix(12,0,0,12,516.8,251)"/>
<use xlink:href="#f0_y" transform="matrix(12,0,0,12,192.7,306)"/>
<use xlink:href="#f0_5" transform="matrix(12,0,0,12,201.5,306)"/>
<use xlink:href="#f0_b" transform="matrix(12,0,0,12,211.1,306)"/>
<use xlink:href="#f0_e" transform="matrix(12,0,0,12,224.6,306)"/>
<use xlink:href="#f0_3" transform="matrix(12,0,0,12,234.2,306)"/>
<use xlink:href="#f0_g" transform="matrix(12,0,0,12,242.9,306)"/>
<use xlink:href="#f0_3" transform="matrix(12,0,0,12,249,306)"/>
<use xlink:href="#f0_m" transform="matrix(12,0,0,12,257.7,306)"/>
<use xlink:href="#f0_m" transform="matrix(12,0,0,12,261.8,306)"/>
<use xlink:href="#f0_b" transform="matrix(12,0,0,12,266.1,306)"/>
<use xlink:href="#f0_m" transform="matrix(12,0,0,12,275.1,306)"/>
<use xlink:href="#f0_4" transform="matrix(12,0,0,12,283.6,306)"/>
<use xlink:href="#f0_3" transform="matrix(12,0,0,12,291.2,306)"/>
<use xlink:href="#f0_l" transform="matrix(12,0,0,12,300,306)"/>
<use xlink:href="#f0_4" transform="matrix(12,0,0,12,307,306)"/>
<use xlink:href="#f0_3" transform="matrix(12,0,0,12,314.6,306)"/>
<use xlink:href="#f0_o" transform="matrix(12,0,0,12,323.5,306)"/>
<use xlink:href="#f0_b" transform="matrix(12,0,0,12,333.1,306)"/>
<use xlink:href="#f0_o" transform="matrix(12,0,0,12,342.2,306)"/>
<use xlink:href="#f0_j" transform="matrix(12,0,0,12,356,306)"/>
<use xlink:href="#f0_a" transform="matrix(12,0,0,12,365.6,306)"/>
<use xlink:href="#f0_6" transform="matrix(12,0,0,12,375.2,306)"/>
<use xlink:href="#f0_k" transform="matrix(12,0,0,12,379.5,306)"/>
<use xlink:href="#f0_l" transform="matrix(12,0,0,12,385.6,306)"/>
<use xlink:href="#f0_13" transform="matrix(12,0,0,12,396.9,306)"/>
<use xlink:href="#f0_6" transform="matrix(12,0,0,12,409.9,306)"/>
<use xlink:href="#f0_m" transform="matrix(12,0,0,12,414.1,306)"/>
<use xlink:href="#f0_m" transform="matrix(12,0,0,12,418.2,306)"/>
<use xlink:href="#f0_o" transform="matrix(12,0,0,12,426.6,306)"/>
<use xlink:href="#f0_6" transform="matrix(12,0,0,12,436.2,306)"/>
<use xlink:href="#f0_4" transform="matrix(12,0,0,12,440.5,306)"/>
<use xlink:href="#f0_5" transform="matrix(12,0,0,12,448.3,306)"/>
<use xlink:href="#f0_n" transform="matrix(12,0,0,12,457.9,306)"/>
<use xlink:href="#f0_k" transform="matrix(12,0,0,12,467.5,306)"/>
<use xlink:href="#f0_n" transform="matrix(12,0,0,12,473.5,306)"/>
<use xlink:href="#f0_p" transform="matrix(12,0,0,12,483.1,306)"/>
<use xlink:href="#f0_6" transform="matrix(12,0,0,12,497.8,306)"/>
<use xlink:href="#f0_1u" transform="matrix(12,0,0,12,501.9,306)"/>
<use xlink:href="#f0_b" transform="matrix(12,0,0,12,508.8,306)"/>
<use xlink:href="#f0_1w" transform="matrix(12,0,0,12,522,306)"/>
<use xlink:href="#f0_o" transform="matrix(12,0,0,12,527.5,306)"/>
<use xlink:href="#f0_6" transform="matrix(12,0,0,12,537.2,306)"/>
<use xlink:href="#f0_z" transform="matrix(12,0,0,12,541.4,306)"/>
<use xlink:href="#f0_6" transform="matrix(12,0,0,12,549.7,306)"/>
<use xlink:href="#f0_o" transform="matrix(12,0,0,12,553.9,306)"/>
<use xlink:href="#f0_b" transform="matrix(12,0,0,12,563.4,306)"/>
<use xlink:href="#f0_6" transform="matrix(12,0,0,12,576.8,306)"/>
<use xlink:href="#f0_a" transform="matrix(12,0,0,12,580.9,306)"/>
<use xlink:href="#f0_k" transform="matrix(12,0,0,12,590.4,306)"/>
<use xlink:href="#f0_n" transform="matrix(12,0,0,12,596.4,306)"/>
<use xlink:href="#f0_k" transform="matrix(12,0,0,12,610.1,306)"/>
<use xlink:href="#f0_13" transform="matrix(12,0,0,12,616.2,306)"/>
<use xlink:href="#f0_n" transform="matrix(12,0,0,12,629.2,306)"/>
<use xlink:href="#f0_e" transform="matrix(12,0,0,12,643.1,306)"/>
<use xlink:href="#f0_3" transform="matrix(12,0,0,12,652.7,306)"/>
<use xlink:href="#f0_g" transform="matrix(12,0,0,12,661.4,306)"/>
<use xlink:href="#f0_k" transform="matrix(12,0,0,12,667.8,306)"/>
<use xlink:href="#f0_l" transform="matrix(12,0,0,12,673.9,306)"/>
<use xlink:href="#f0_19" transform="matrix(12,0,0,12,681.1,306)"/>
<use xlink:href="#f0_6" transform="matrix(12,0,0,12,690.8,306)"/>
<use xlink:href="#f0_a" transform="matrix(12,0,0,12,694.9,306)"/>
<use xlink:href="#f0_e" transform="matrix(12,0,0,12,704.6,306)"/>
<use xlink:href="#f0_j" transform="matrix(12,0,0,12,714.2,306)"/>
<use xlink:href="#f0_k" transform="matrix(12,0,0,12,723.8,306)"/>
<use xlink:href="#f0_l" transform="matrix(12,0,0,12,137.7,333.5)"/>
<use xlink:href="#f0_e" transform="matrix(12,0,0,12,144.8,333.5)"/>
<use xlink:href="#f0_3" transform="matrix(12,0,0,12,154.4,333.5)"/>
<use xlink:href="#f0_4" transform="matrix(12,0,0,12,163.2,333.5)"/>
<use xlink:href="#f0_b" transform="matrix(12,0,0,12,170.9,333.5)"/>
<use xlink:href="#f0_o" transform="matrix(12,0,0,12,184.2,333.5)"/>
<use xlink:href="#f0_6" transform="matrix(12,0,0,12,193.8,333.5)"/>
<use xlink:href="#f0_1v" transform="matrix(12,0,0,12,198.1,333.5)"/>
<use xlink:href="#f0_b" transform="matrix(12,0,0,12,208.3,333.5)"/>
<use xlink:href="#f0_g" transform="matrix(12,0,0,12,217.5,333.5)"/>
<use xlink:href="#f0_b" transform="matrix(12,0,0,12,223.6,333.5)"/>
<use xlink:href="#f0_a" transform="matrix(12,0,0,12,232.6,333.5)"/>
<use xlink:href="#f0_k" transform="matrix(12,0,0,12,242.1,333.5)"/>
<use xlink:href="#f0_m" transform="matrix(12,0,0,12,248.2,333.5)"/>
<use xlink:href="#f0_11" transform="matrix(12,0,0,12,252.4,333.5)"/>
<use xlink:href="#f0_u" transform="matrix(12,0,0,12,259.4,333.5)"/>
<use xlink:href="#f0_y" transform="matrix(12,0,0,12,268.3,333.5)"/>
<use xlink:href="#f0_5" transform="matrix(12,0,0,12,277.1,333.5)"/>
<use xlink:href="#f0_b" transform="matrix(12,0,0,12,286.8,333.5)"/>
<use xlink:href="#f0_l" transform="matrix(12,0,0,12,300,333.5)"/>
<use xlink:href="#f0_b" transform="matrix(12,0,0,12,307.2,333.5)"/>
<use xlink:href="#f0_g" transform="matrix(12,0,0,12,316.3,333.5)"/>
<use xlink:href="#f0_6" transform="matrix(12,0,0,12,322.6,333.5)"/>
<use xlink:href="#f0_3" transform="matrix(12,0,0,12,326.9,333.5)"/>
<use xlink:href="#f0_m" transform="matrix(12,0,0,12,335.6,333.5)"/>
<use xlink:href="#f0_4" transform="matrix(12,0,0,12,344.1,333.5)"/>
<use xlink:href="#f0_3" transform="matrix(12,0,0,12,351.7,333.5)"/>
<use xlink:href="#f0_l" transform="matrix(12,0,0,12,360.4,333.5)"/>
<use xlink:href="#f0_4" transform="matrix(12,0,0,12,367.5,333.5)"/>
<use xlink:href="#f0_3" transform="matrix(12,0,0,12,375.1,333.5)"/>
<use xlink:href="#f0_o" transform="matrix(12,0,0,12,383.9,333.5)"/>
<use xlink:href="#f0_b" transform="matrix(12,0,0,12,393.6,333.5)"/>
<use xlink:href="#f0_o" transform="matrix(12,0,0,12,402.7,333.5)"/>
<use xlink:href="#f0_m" transform="matrix(12,0,0,12,416.5,333.5)"/>
<use xlink:href="#f0_3" transform="matrix(12,0,0,12,420.7,333.5)"/>
<use xlink:href="#f0_11" transform="matrix(12,0,0,12,429.1,333.5)"/>
<use xlink:href="#f0_b" transform="matrix(12,0,0,12,437.1,333.5)"/>
<use xlink:href="#f0_g" transform="matrix(12,0,0,12,446.2,333.5)"/>
<use xlink:href="#f0_l" transform="matrix(12,0,0,12,452.3,333.5)"/>
<use xlink:href="#f0_13" transform="matrix(12,0,0,12,463.6,333.5)"/>
<use xlink:href="#f0_6" transform="matrix(12,0,0,12,476.7,333.5)"/>
<use xlink:href="#f0_m" transform="matrix(12,0,0,12,480.9,333.5)"/>
<use xlink:href="#f0_m" transform="matrix(12,0,0,12,485.1,333.5)"/>
<use xlink:href="#f0_e" transform="matrix(12,0,0,12,493.4,333.5)"/>
<use xlink:href="#f0_6" transform="matrix(12,0,0,12,503,333.5)"/>
<use xlink:href="#f0_4" transform="matrix(12,0,0,12,507.2,333.5)"/>
<use xlink:href="#f0_q" transform="matrix(12,0,0,12,515,333.5)"/>
<use xlink:href="#f0_1n" transform="matrix(12,0,0,12,522.7,333.5)"/>
<use xlink:href="#f0_j" transform="matrix(12,0,0,12,528.3,333.5)"/>
<use xlink:href="#f0_e" transform="matrix(12,0,0,12,537.9,333.5)"/>
<use xlink:href="#f0_e" transform="matrix(12,0,0,12,551.7,333.5)"/>
<use xlink:href="#f0_g" transform="matrix(12,0,0,12,561.3,333.5)"/>
<use xlink:href="#f0_b" transform="matrix(12,0,0,12,567.4,333.5)"/>
<use xlink:href="#f0_z" transform="matrix(12,0,0,12,576.4,333.5)"/>
<use xlink:href="#f0_6" transform="matrix(12,0,0,12,584.7,333.5)"/>
<use xlink:href="#f0_n" transform="matrix(12,0,0,12,588.9,333.5)"/>
<use xlink:href="#f0_j" transform="matrix(12,0,0,12,598.5,333.5)"/>
<use xlink:href="#f0_l" transform="matrix(12,0,0,12,608.2,333.5)"/>
<use xlink:href="#f0_m" transform="matrix(12,0,0,12,619.5,333.5)"/>
<use xlink:href="#f0_3" transform="matrix(12,0,0,12,623.7,333.5)"/>
<use xlink:href="#f0_11" transform="matrix(12,0,0,12,632.1,333.5)"/>
<use xlink:href="#f0_b" transform="matrix(12,0,0,12,640.2,333.5)"/>
<use xlink:href="#f0_g" transform="matrix(12,0,0,12,649.4,333.5)"/>
<use xlink:href="#f0_12" transform="matrix(12,0,0,12,656.4,333.5)"/>
<use xlink:href="#f0_l" transform="matrix(12,0,0,12,659.9,333.5)"/>
<use xlink:href="#f0_n" transform="matrix(12,0,0,12,671.2,333.5)"/>
<use xlink:href="#f0_j" transform="matrix(12,0,0,12,680.8,333.5)"/>
<use xlink:href="#f0_k" transform="matrix(12,0,0,12,690.4,333.5)"/>
<use xlink:href="#f0_e" transform="matrix(12,0,0,12,696.7,333.5)"/>
<use xlink:href="#f0_j" transform="matrix(12,0,0,12,706.3,333.5)"/>
<use xlink:href="#f0_k" transform="matrix(12,0,0,12,715.9,333.5)"/>
<use xlink:href="#f0_l" transform="matrix(12,0,0,12,722,333.5)"/>
<use xlink:href="#f0_3" transform="matrix(12,0,0,12,733.3,333.5)"/>
<use xlink:href="#f0_a" transform="matrix(12,0,0,12,742,333.5)"/>
<use xlink:href="#f0_o" transform="matrix(12,0,0,12,751.8,333.5)"/>
<use xlink:href="#f0_g" transform="matrix(12,0,0,12,137.7,361)"/>
<use xlink:href="#f0_b" transform="matrix(12,0,0,12,143.8,361)"/>
<use xlink:href="#f0_e" transform="matrix(12,0,0,12,152.9,361)"/>
<use xlink:href="#f0_b" transform="matrix(12,0,0,12,162.5,361)"/>
<use xlink:href="#f0_3" transform="matrix(12,0,0,12,171.7,361)"/>
<use xlink:href="#f0_k" transform="matrix(12,0,0,12,180.2,361)"/>
<use xlink:href="#f0_k" transform="matrix(12,0,0,12,190.6,361)"/>
<use xlink:href="#f0_5" transform="matrix(12,0,0,12,196.7,361)"/>
<use xlink:href="#f0_b" transform="matrix(12,0,0,12,206.3,361)"/>
<use xlink:href="#f0_o" transform="matrix(12,0,0,12,219.6,361)"/>
<use xlink:href="#f0_6" transform="matrix(12,0,0,12,229.1,361)"/>
<use xlink:href="#f0_4" transform="matrix(12,0,0,12,233.3,361)"/>
<use xlink:href="#f0_5" transform="matrix(12,0,0,12,241.1,361)"/>
<use xlink:href="#f0_n" transform="matrix(12,0,0,12,250.7,361)"/>
<use xlink:href="#f0_k" transform="matrix(12,0,0,12,260.4,361)"/>
<use xlink:href="#f0_n" transform="matrix(12,0,0,12,266.3,361)"/>
<use xlink:href="#f0_p" transform="matrix(12,0,0,12,275.9,361)"/>
<use xlink:href="#f0_11" transform="matrix(12,0,0,12,290.3,361)"/>
<use xlink:href="#f0_o" transform="matrix(12,0,0,12,302.8,361)"/>
<use xlink:href="#f0_6" transform="matrix(12,0,0,12,312.3,361)"/>
<use xlink:href="#f0_z" transform="matrix(12,0,0,12,316.5,361)"/>
<use xlink:href="#f0_6" transform="matrix(12,0,0,12,324.8,361)"/>
<use xlink:href="#f0_l" transform="matrix(12,0,0,12,329,361)"/>
<use xlink:href="#f0_6" transform="matrix(12,0,0,12,336.1,361)"/>
<use xlink:href="#f0_n" transform="matrix(12,0,0,12,340.3,361)"/>
<use xlink:href="#f0_a" transform="matrix(12,0,0,12,349.9,361)"/>
<use xlink:href="#f0_e" transform="matrix(12,0,0,12,363.8,361)"/>
<use xlink:href="#f0_g" transform="matrix(12,0,0,12,373.4,361)"/>
<use xlink:href="#f0_n" transform="matrix(12,0,0,12,379.5,361)"/>
<use xlink:href="#f0_4" transform="matrix(12,0,0,12,389.2,361)"/>
<use xlink:href="#f0_b" transform="matrix(12,0,0,12,396.9,361)"/>
<use xlink:href="#f0_l" transform="matrix(12,0,0,12,406.1,361)"/>
<use xlink:href="#f0_l" transform="matrix(12,0,0,12,413.1,361)"/>
<use xlink:href="#f0_3" transform="matrix(12,0,0,12,424.5,361)"/>
<use xlink:href="#f0_h" transform="matrix(12,0,0,12,433.2,361)"/>
<use xlink:href="#f0_3" transform="matrix(12,0,0,12,441.5,361)"/>
<use xlink:href="#f0_6" transform="matrix(12,0,0,12,450.2,361)"/>
<use xlink:href="#f0_a" transform="matrix(12,0,0,12,454.5,361)"/>
<use xlink:href="#f0_u" transform="matrix(12,0,0,12,464.1,361)"/>
<use xlink:href="#f0_1o" transform="matrix(12,0,0,12,472.9,361)"/>
<use xlink:href="#f0_5" transform="matrix(12,0,0,12,489.2,361)"/>
<use xlink:href="#f0_b" transform="matrix(12,0,0,12,498.7,361)"/>
<use xlink:href="#f0_a" transform="matrix(12,0,0,12,507.9,361)"/>
<use xlink:href="#f0_k" transform="matrix(12,0,0,12,521.8,361)"/>
<use xlink:href="#f0_5" transform="matrix(12,0,0,12,527.9,361)"/>
<use xlink:href="#f0_b" transform="matrix(12,0,0,12,537.5,361)"/>
<use xlink:href="#f0_10" transform="matrix(12,0,0,12,550.8,361)"/>
<use xlink:href="#f0_g" transform="matrix(12,0,0,12,560.4,361)"/>
<use xlink:href="#f0_b" transform="matrix(12,0,0,12,566.5,361)"/>
<use xlink:href="#f0_3" transform="matrix(12,0,0,12,575.6,361)"/>
<use xlink:href="#f0_k" transform="matrix(12,0,0,12,584.2,361)"/>
<use xlink:href="#f0_5" transform="matrix(12,0,0,12,590.3,361)"/>
<use xlink:href="#f0_n" transform="matrix(12,0,0,12,604.2,361)"/>
<use xlink:href="#f0_t" transform="matrix(12,0,0,12,613.7,361)"/>
<use xlink:href="#f0_e" transform="matrix(12,0,0,12,623.5,361)"/>
<use xlink:href="#f0_3" transform="matrix(12,0,0,12,633.2,361)"/>
<use xlink:href="#f0_g" transform="matrix(12,0,0,12,641.9,361)"/>
<use xlink:href="#f0_3" transform="matrix(12,0,0,12,648,361)"/>
<use xlink:href="#f0_m" transform="matrix(12,0,0,12,656.7,361)"/>
<use xlink:href="#f0_m" transform="matrix(12,0,0,12,660.8,361)"/>
<use xlink:href="#f0_b" transform="matrix(12,0,0,12,665.1,361)"/>
<use xlink:href="#f0_m" transform="matrix(12,0,0,12,674.1,361)"/>
<use xlink:href="#f0_4" transform="matrix(12,0,0,12,682.5,361)"/>
<use xlink:href="#f0_3" transform="matrix(12,0,0,12,690.1,361)"/>
<use xlink:href="#f0_l" transform="matrix(12,0,0,12,698.8,361)"/>
<use xlink:href="#f0_4" transform="matrix(12,0,0,12,706,361)"/>
<use xlink:href="#f0_3" transform="matrix(12,0,0,12,713.6,361)"/>
<use xlink:href="#f0_o" transform="matrix(12,0,0,12,722.3,361)"/>
<use xlink:href="#f0_b" transform="matrix(12,0,0,12,732,361)"/>
<use xlink:href="#f0_3" transform="matrix(12,0,0,12,137.7,388.5)"/>
<use xlink:href="#f0_a" transform="matrix(12,0,0,12,146.4,388.5)"/>
<use xlink:href="#f0_o" transform="matrix(12,0,0,12,156,388.5)"/>
<use xlink:href="#f0_o" transform="matrix(12,0,0,12,169.9,388.5)"/>
<use xlink:href="#f0_b" transform="matrix(12,0,0,12,179.5,388.5)"/>
<use xlink:href="#f0_e" transform="matrix(12,0,0,12,188.5,388.5)"/>
<use xlink:href="#f0_k" transform="matrix(12,0,0,12,198.1,388.5)"/>
<use xlink:href="#f0_5" transform="matrix(12,0,0,12,204.2,388.5)"/>
<use xlink:href="#f0_n" transform="matrix(12,0,0,12,218.1,388.5)"/>
<use xlink:href="#f0_t" transform="matrix(12,0,0,12,227.7,388.5)"/>
<use xlink:href="#f0_l" transform="matrix(12,0,0,12,237.5,388.5)"/>
<use xlink:href="#f0_b" transform="matrix(12,0,0,12,244.5,388.5)"/>
<use xlink:href="#f0_g" transform="matrix(12,0,0,12,253.7,388.5)"/>
<use xlink:href="#f0_6" transform="matrix(12,0,0,12,260.1,388.5)"/>
<use xlink:href="#f0_3" transform="matrix(12,0,0,12,264.3,388.5)"/>
<use xlink:href="#f0_m" transform="matrix(12,0,0,12,273,388.5)"/>
<use xlink:href="#f0_4" transform="matrix(12,0,0,12,281.4,388.5)"/>
<use xlink:href="#f0_3" transform="matrix(12,0,0,12,289,388.5)"/>
<use xlink:href="#f0_l" transform="matrix(12,0,0,12,297.8,388.5)"/>
<use xlink:href="#f0_4" transform="matrix(12,0,0,12,304.9,388.5)"/>
<use xlink:href="#f0_3" transform="matrix(12,0,0,12,312.6,388.5)"/>
<use xlink:href="#f0_o" transform="matrix(12,0,0,12,321.3,388.5)"/>
<use xlink:href="#f0_b" transform="matrix(12,0,0,12,330.9,388.5)"/>
<use xlink:href="#f0_3" transform="matrix(12,0,0,12,344.2,388.5)"/>
<use xlink:href="#f0_g" transform="matrix(12,0,0,12,352.9,388.5)"/>
<use xlink:href="#f0_b" transform="matrix(12,0,0,12,359,388.5)"/>
<use xlink:href="#f0_10" transform="matrix(12,0,0,12,372.4,388.5)"/>
<use xlink:href="#f0_6" transform="matrix(12,0,0,12,381.9,388.5)"/>
<use xlink:href="#f0_h" transform="matrix(12,0,0,12,386.1,388.5)"/>
<use xlink:href="#f0_b" transform="matrix(12,0,0,12,399,388.5)"/>
<use xlink:href="#f0_a" transform="matrix(12,0,0,12,408.1,388.5)"/>
<use xlink:href="#f0_n" transform="matrix(12,0,0,12,417.7,388.5)"/>
<use xlink:href="#f0_j" transform="matrix(12,0,0,12,427.4,388.5)"/>
<use xlink:href="#f0_h" transform="matrix(12,0,0,12,437,388.5)"/>
<use xlink:href="#f0_5" transform="matrix(12,0,0,12,445.5,388.5)"/>
<use xlink:href="#f0_k" transform="matrix(12,0,0,12,459.4,388.5)"/>
<use xlink:href="#f0_n" transform="matrix(12,0,0,12,465.4,388.5)"/>
<use xlink:href="#f0_p" transform="matrix(12,0,0,12,479.1,388.5)"/>
<use xlink:href="#f0_3" transform="matrix(12,0,0,12,493.8,388.5)"/>
<use xlink:href="#f0_k" transform="matrix(12,0,0,12,502.3,388.5)"/>
<use xlink:href="#f0_4" transform="matrix(12,0,0,12,508.3,388.5)"/>
<use xlink:href="#f0_5" transform="matrix(12,0,0,12,516.1,388.5)"/>
<use xlink:href="#f0_k" transform="matrix(12,0,0,12,529.8,388.5)"/>
<use xlink:href="#f0_5" transform="matrix(12,0,0,12,535.9,388.5)"/>
<use xlink:href="#f0_b" transform="matrix(12,0,0,12,545.6,388.5)"/>
<use xlink:href="#f0_4" transform="matrix(12,0,0,12,558.8,388.5)"/>
<use xlink:href="#f0_n" transform="matrix(12,0,0,12,566.5,388.5)"/>
<use xlink:href="#f0_p" transform="matrix(12,0,0,12,576.1,388.5)"/>
<use xlink:href="#f0_e" transform="matrix(12,0,0,12,590.7,388.5)"/>
<use xlink:href="#f0_m" transform="matrix(12,0,0,12,600.4,388.5)"/>
<use xlink:href="#f0_b" transform="matrix(12,0,0,12,604.6,388.5)"/>
<use xlink:href="#f0_14" transform="matrix(12,0,0,12,613.5,388.5)"/>
<use xlink:href="#f0_6" transform="matrix(12,0,0,12,621.3,388.5)"/>
<use xlink:href="#f0_k" transform="matrix(12,0,0,12,625.5,388.5)"/>
<use xlink:href="#f0_11" transform="matrix(12,0,0,12,631.6,388.5)"/>
<use xlink:href="#f0_n" transform="matrix(12,0,0,12,644.1,388.5)"/>
<use xlink:href="#f0_t" transform="matrix(12,0,0,12,653.8,388.5)"/>
<use xlink:href="#f0_k" transform="matrix(12,0,0,12,663.5,388.5)"/>
<use xlink:href="#f0_5" transform="matrix(12,0,0,12,669.6,388.5)"/>
<use xlink:href="#f0_b" transform="matrix(12,0,0,12,679.2,388.5)"/>
<use xlink:href="#f0_o" transform="matrix(12,0,0,12,692.5,388.5)"/>
<use xlink:href="#f0_3" transform="matrix(12,0,0,12,702.1,388.5)"/>
<use xlink:href="#f0_k" transform="matrix(12,0,0,12,710.7,388.5)"/>
<use xlink:href="#f0_3" transform="matrix(12,0,0,12,716.7,388.5)"/>
<use xlink:href="#f0_l" transform="matrix(12,0,0,12,725.4,388.5)"/>
<use xlink:href="#f0_b" transform="matrix(12,0,0,12,732.5,388.5)"/>
<use xlink:href="#f0_k" transform="matrix(12,0,0,12,741.6,388.5)"/>
<use xlink:href="#f0_1w" transform="matrix(12,0,0,12,137.7,416)"/>
<use xlink:href="#f0_6" transform="matrix(12,0,0,12,143.2,416)"/>
<use xlink:href="#f0_a" transform="matrix(12,0,0,12,147.4,416)"/>
<use xlink:href="#f0_e" transform="matrix(12,0,0,12,157,416)"/>
<use xlink:href="#f0_j" transform="matrix(12,0,0,12,166.7,416)"/>
<use xlink:href="#f0_k" transform="matrix(12,0,0,12,176.3,416)"/>
<use xlink:href="#f0_l" transform="matrix(12,0,0,12,186.7,416)"/>
<use xlink:href="#f0_e" transform="matrix(12,0,0,12,193.8,416)"/>
<use xlink:href="#f0_3" transform="matrix(12,0,0,12,203.5,416)"/>
<use xlink:href="#f0_4" transform="matrix(12,0,0,12,212.2,416)"/>
<use xlink:href="#f0_b" transform="matrix(12,0,0,12,219.9,416)"/>
<use xlink:href="#f0_19" transform="matrix(12,0,0,12,229.1,416)"/>
<use xlink:href="#f0_x" transform="matrix(12,0,0,12,234.6,416)"/>
<use xlink:href="#f0_6" transform="matrix(12,0,0,12,243.3,416)"/>
<use xlink:href="#f0_k" transform="matrix(12,0,0,12,247.5,416)"/>
<use xlink:href="#f0_4" transform="matrix(12,0,0,12,257.8,416)"/>
<use xlink:href="#f0_3" transform="matrix(12,0,0,12,265.4,416)"/>
<use xlink:href="#f0_a" transform="matrix(12,0,0,12,274.1,416)"/>
<use xlink:href="#f0_4" transform="matrix(12,0,0,12,288,416)"/>
<use xlink:href="#f0_m" transform="matrix(12,0,0,12,295.6,416)"/>
<use xlink:href="#f0_3" transform="matrix(12,0,0,12,299.9,416)"/>
<use xlink:href="#f0_l" transform="matrix(12,0,0,12,308.6,416)"/>
<use xlink:href="#f0_l" transform="matrix(12,0,0,12,315.8,416)"/>
<use xlink:href="#f0_6" transform="matrix(12,0,0,12,322.9,416)"/>
<use xlink:href="#f0_t" transform="matrix(12,0,0,12,327.2,416)"/>
<use xlink:href="#f0_11" transform="matrix(12,0,0,12,332.8,416)"/>
<use xlink:href="#f0_3" transform="matrix(12,0,0,12,345.2,416)"/>
<use xlink:href="#f0_a" transform="matrix(12,0,0,12,353.9,416)"/>
<use xlink:href="#f0_o" transform="matrix(12,0,0,12,363.5,416)"/>
<use xlink:href="#f0_g" transform="matrix(12,0,0,12,377.4,416)"/>
<use xlink:href="#f0_b" transform="matrix(12,0,0,12,383.5,416)"/>
<use xlink:href="#f0_e" transform="matrix(12,0,0,12,392.7,416)"/>
<use xlink:href="#f0_g" transform="matrix(12,0,0,12,402.3,416)"/>
<use xlink:href="#f0_b" transform="matrix(12,0,0,12,408.4,416)"/>
<use xlink:href="#f0_l" transform="matrix(12,0,0,12,417.5,416)"/>
<use xlink:href="#f0_b" transform="matrix(12,0,0,12,424.7,416)"/>
<use xlink:href="#f0_a" transform="matrix(12,0,0,12,433.8,416)"/>
<use xlink:href="#f0_k" transform="matrix(12,0,0,12,443.3,416)"/>
<use xlink:href="#f0_4" transform="matrix(12,0,0,12,453.6,416)"/>
<use xlink:href="#f0_n" transform="matrix(12,0,0,12,461.2,416)"/>
<use xlink:href="#f0_p" transform="matrix(12,0,0,12,470.8,416)"/>
<use xlink:href="#f0_e" transform="matrix(12,0,0,12,485.5,416)"/>
<use xlink:href="#f0_m" transform="matrix(12,0,0,12,495,416)"/>
<use xlink:href="#f0_6" transform="matrix(12,0,0,12,499.2,416)"/>
<use xlink:href="#f0_4" transform="matrix(12,0,0,12,503.5,416)"/>
<use xlink:href="#f0_3" transform="matrix(12,0,0,12,511.1,416)"/>
<use xlink:href="#f0_k" transform="matrix(12,0,0,12,519.7,416)"/>
<use xlink:href="#f0_b" transform="matrix(12,0,0,12,525.5,416)"/>
<use xlink:href="#f0_o" transform="matrix(12,0,0,12,534.6,416)"/>
<use xlink:href="#f0_e" transform="matrix(12,0,0,12,548.5,416)"/>
<use xlink:href="#f0_g" transform="matrix(12,0,0,12,558.1,416)"/>
<use xlink:href="#f0_n" transform="matrix(12,0,0,12,564.2,416)"/>
<use xlink:href="#f0_10" transform="matrix(12,0,0,12,573.9,416)"/>
<use xlink:href="#f0_m" transform="matrix(12,0,0,12,583.5,416)"/>
<use xlink:href="#f0_b" transform="matrix(12,0,0,12,587.6,416)"/>
<use xlink:href="#f0_p" transform="matrix(12,0,0,12,596.8,416)"/>
<use xlink:href="#f0_z" transform="matrix(12,0,0,12,615.5,416)"/>
<use xlink:href="#f0_b" transform="matrix(12,0,0,12,623.6,416)"/>
<use xlink:href="#f0_g" transform="matrix(12,0,0,12,632.8,416)"/>
<use xlink:href="#f0_11" transform="matrix(12,0,0,12,639.2,416)"/>
<use xlink:href="#f0_b" transform="matrix(12,0,0,12,651.7,416)"/>
<use xlink:href="#f0_1v" transform="matrix(12,0,0,12,660.5,416)"/>
<use xlink:href="#f0_b" transform="matrix(12,0,0,12,670.8,416)"/>
<use xlink:href="#f0_4" transform="matrix(12,0,0,12,679.9,416)"/>
<use xlink:href="#f0_r" transform="matrix(12,0,0,12,687.7,416)"/>
<use xlink:href="#f0_z" transform="matrix(12,0,0,12,697.9,416)"/>
<use xlink:href="#f0_b" transform="matrix(12,0,0,12,705.8,416)"/>
<use xlink:href="#f0_m" transform="matrix(12,0,0,12,715,416)"/>
<use xlink:href="#f0_11" transform="matrix(12,0,0,12,719.2,416)"/>
<use xlink:href="#f0_u" transform="matrix(12,0,0,12,726.3,416)"/>
<use xlink:href="#f0_1l" transform="matrix(12,0,0,12,137.7,443.5)"/>
<use xlink:href="#f0_6" transform="matrix(12,0,0,12,146,443.5)"/>
<use xlink:href="#f0_h" transform="matrix(12,0,0,12,150.3,443.5)"/>
<use xlink:href="#f0_j" transform="matrix(12,0,0,12,158.9,443.5)"/>
<use xlink:href="#f0_g" transform="matrix(12,0,0,12,168.5,443.5)"/>
<use xlink:href="#f0_b" transform="matrix(12,0,0,12,174.6,443.5)"/>
<use xlink:href="#f0_18" transform="matrix(12,0,0,12,188,443.5)"/>
<use xlink:href="#f0_u" transform="matrix(12,0,0,12,197.3,443.5)"/>
<use xlink:href="#f0_1b" transform="matrix(12,0,0,12,201.9,443.5)"/>
<use xlink:href="#f0_l" transform="matrix(12,0,0,12,215.3,443.5)"/>
<use xlink:href="#f0_5" transform="matrix(12,0,0,12,222.5,443.5)"/>
<use xlink:href="#f0_n" transform="matrix(12,0,0,12,232.1,443.5)"/>
<use xlink:href="#f0_13" transform="matrix(12,0,0,12,241.6,443.5)"/>
<use xlink:href="#f0_3" transform="matrix(12,0,0,12,258.9,443.5)"/>
<use xlink:href="#f0_l" transform="matrix(12,0,0,12,271.8,443.5)"/>
<use xlink:href="#f0_b" transform="matrix(12,0,0,12,278.9,443.5)"/>
<use xlink:href="#f0_4" transform="matrix(12,0,0,12,288.1,443.5)"/>
<use xlink:href="#f0_r" transform="matrix(12,0,0,12,295.7,443.5)"/>
<use xlink:href="#f0_n" transform="matrix(12,0,0,12,306,443.5)"/>
<use xlink:href="#f0_a" transform="matrix(12,0,0,12,315.6,443.5)"/>
<use xlink:href="#f0_n" transform="matrix(12,0,0,12,329.5,443.5)"/>
<use xlink:href="#f0_t" transform="matrix(12,0,0,12,339.1,443.5)"/>
<use xlink:href="#f0_3" transform="matrix(12,0,0,12,348.8,443.5)"/>
<use xlink:href="#f0_o" transform="matrix(12,0,0,12,361.8,443.5)"/>
<use xlink:href="#f0_b" transform="matrix(12,0,0,12,371.3,443.5)"/>
<use xlink:href="#f0_b" transform="matrix(12,0,0,12,380.4,443.5)"/>
<use xlink:href="#f0_e" transform="matrix(12,0,0,12,389.6,443.5)"/>
<use xlink:href="#f0_a" transform="matrix(12,0,0,12,403.3,443.5)"/>
<use xlink:href="#f0_b" transform="matrix(12,0,0,12,412.9,443.5)"/>
<use xlink:href="#f0_k" transform="matrix(12,0,0,12,422,443.5)"/>
<use xlink:href="#f0_13" transform="matrix(12,0,0,12,428.1,443.5)"/>
<use xlink:href="#f0_n" transform="matrix(12,0,0,12,441.1,443.5)"/>
<use xlink:href="#f0_g" transform="matrix(12,0,0,12,450.7,443.5)"/>
<use xlink:href="#f0_q" transform="matrix(12,0,0,12,457.1,443.5)"/>
<use xlink:href="#f0_u" transform="matrix(12,0,0,12,465.5,443.5)"/>
</g>
<image clip-path="url(#c3_4)" preserveAspectRatio="none" x="138" y="533" width="711" height="472" xlink:href="img/3.jpg"/>
<g fill="#000000"  clip-path="url(#c0_4)">
<use xlink:href="#f0_1l" transform="matrix(12,0,0,12,418.2,1076)"/>
<use xlink:href="#f0_6" transform="matrix(12,0,0,12,426.5,1076)"/>
<use xlink:href="#f0_h" transform="matrix(12,0,0,12,430.8,1076)"/>
<use xlink:href="#f0_j" transform="matrix(12,0,0,12,439.4,1076)"/>
<use xlink:href="#f0_g" transform="matrix(12,0,0,12,449,1076)"/>
<use xlink:href="#f0_b" transform="matrix(12,0,0,12,455.1,1076)"/>
<use xlink:href="#f0_18" transform="matrix(12,0,0,12,468.5,1076)"/>
<use xlink:href="#f0_u" transform="matrix(12,0,0,12,477.8,1076)"/>
<use xlink:href="#f0_1b" transform="matrix(12,0,0,12,482.4,1076)"/>
<use xlink:href="#f0_w" transform="matrix(12,0,0,12,192.7,1131)"/>
<use xlink:href="#f0_o" transform="matrix(12,0,0,12,207.4,1131)"/>
<use xlink:href="#f0_b" transform="matrix(12,0,0,12,217.1,1131)"/>
<use xlink:href="#f0_b" transform="matrix(12,0,0,12,226.1,1131)"/>
<use xlink:href="#f0_e" transform="matrix(12,0,0,12,235.2,1131)"/>
<use xlink:href="#f0_a" transform="matrix(12,0,0,12,249.1,1131)"/>
<use xlink:href="#f0_b" transform="matrix(12,0,0,12,258.7,1131)"/>
<use xlink:href="#f0_k" transform="matrix(12,0,0,12,267.8,1131)"/>
<use xlink:href="#f0_13" transform="matrix(12,0,0,12,273.9,1131)"/>
<use xlink:href="#f0_n" transform="matrix(12,0,0,12,286.8,1131)"/>
<use xlink:href="#f0_g" transform="matrix(12,0,0,12,296.5,1131)"/>
<use xlink:href="#f0_q" transform="matrix(12,0,0,12,302.7,1131)"/>
<use xlink:href="#f0_6" transform="matrix(12,0,0,12,315.2,1131)"/>
<use xlink:href="#f0_l" transform="matrix(12,0,0,12,319.5,1131)"/>
<use xlink:href="#f0_10" transform="matrix(12,0,0,12,330.8,1131)"/>
<use xlink:href="#f0_b" transform="matrix(12,0,0,12,340.4,1131)"/>
<use xlink:href="#f0_4" transform="matrix(12,0,0,12,349.4,1131)"/>
<use xlink:href="#f0_n" transform="matrix(12,0,0,12,357.1,1131)"/>
<use xlink:href="#f0_p" transform="matrix(12,0,0,12,366.7,1131)"/>
<use xlink:href="#f0_b" transform="matrix(12,0,0,12,381.4,1131)"/>
<use xlink:href="#f0_3" transform="matrix(12,0,0,12,394.6,1131)"/>
<use xlink:href="#f0_5" transform="matrix(12,0,0,12,407.6,1131)"/>
<use xlink:href="#f0_6" transform="matrix(12,0,0,12,417.2,1131)"/>
<use xlink:href="#f0_b" transform="matrix(12,0,0,12,421.3,1131)"/>
<use xlink:href="#f0_g" transform="matrix(12,0,0,12,430.5,1131)"/>
<use xlink:href="#f0_3" transform="matrix(12,0,0,12,436.6,1131)"/>
<use xlink:href="#f0_g" transform="matrix(12,0,0,12,445.3,1131)"/>
<use xlink:href="#f0_4" transform="matrix(12,0,0,12,451.4,1131)"/>
<use xlink:href="#f0_5" transform="matrix(12,0,0,12,459.2,1131)"/>
<use xlink:href="#f0_6" transform="matrix(12,0,0,12,468.8,1131)"/>
<use xlink:href="#f0_4" transform="matrix(12,0,0,12,472.9,1131)"/>
<use xlink:href="#f0_3" transform="matrix(12,0,0,12,480.6,1131)"/>
<use xlink:href="#f0_m" transform="matrix(12,0,0,12,489.3,1131)"/>
<use xlink:href="#f0_4" transform="matrix(12,0,0,12,497.8,1131)"/>
<use xlink:href="#f0_n" transform="matrix(12,0,0,12,505.4,1131)"/>
<use xlink:href="#f0_p" transform="matrix(12,0,0,12,514.9,1131)"/>
<use xlink:href="#f0_e" transform="matrix(12,0,0,12,529.6,1131)"/>
<use xlink:href="#f0_n" transform="matrix(12,0,0,12,539.2,1131)"/>
<use xlink:href="#f0_l" transform="matrix(12,0,0,12,548.8,1131)"/>
<use xlink:href="#f0_6" transform="matrix(12,0,0,12,556,1131)"/>
<use xlink:href="#f0_k" transform="matrix(12,0,0,12,560.2,1131)"/>
<use xlink:href="#f0_b" transform="matrix(12,0,0,12,566.2,1131)"/>
<use xlink:href="#f0_p" transform="matrix(12,0,0,12,579.5,1131)"/>
<use xlink:href="#f0_n" transform="matrix(12,0,0,12,594.1,1131)"/>
<use xlink:href="#f0_o" transform="matrix(12,0,0,12,603.7,1131)"/>
<use xlink:href="#f0_b" transform="matrix(12,0,0,12,613.4,1131)"/>
<use xlink:href="#f0_m" transform="matrix(12,0,0,12,622.4,1131)"/>
<use xlink:href="#f0_13" transform="matrix(12,0,0,12,630.8,1131)"/>
<use xlink:href="#f0_5" transform="matrix(12,0,0,12,643.9,1131)"/>
<use xlink:href="#f0_b" transform="matrix(12,0,0,12,653.5,1131)"/>
<use xlink:href="#f0_g" transform="matrix(12,0,0,12,662.7,1131)"/>
<use xlink:href="#f0_b" transform="matrix(12,0,0,12,668.8,1131)"/>
<use xlink:href="#f0_b" transform="matrix(12,0,0,12,682,1131)"/>
<use xlink:href="#f0_3" transform="matrix(12,0,0,12,691.2,1131)"/>
<use xlink:href="#f0_4" transform="matrix(12,0,0,12,699.9,1131)"/>
<use xlink:href="#f0_5" transform="matrix(12,0,0,12,707.7,1131)"/>
<use xlink:href="#f0_m" transform="matrix(12,0,0,12,721.4,1131)"/>
<use xlink:href="#f0_3" transform="matrix(12,0,0,12,725.7,1131)"/>
<use xlink:href="#f0_11" transform="matrix(12,0,0,12,734.1,1131)"/>
<use xlink:href="#f0_b" transform="matrix(12,0,0,12,742,1131)"/>
<use xlink:href="#f0_g" transform="matrix(12,0,0,12,751.2,1131)"/>
<use xlink:href="#f0_1w" transform="matrix(12,0,0,12,137.7,1158.5)"/>
<use xlink:href="#f0_1d" transform="matrix(12,0,0,12,143.2,1158.5)"/>
<use xlink:href="#f0_h" transform="matrix(12,0,0,12,152.9,1158.5)"/>
<use xlink:href="#f0_j" transform="matrix(12,0,0,12,161.5,1158.5)"/>
<use xlink:href="#f0_g" transform="matrix(12,0,0,12,171.2,1158.5)"/>
<use xlink:href="#f0_b" transform="matrix(12,0,0,12,177.3,1158.5)"/>
<use xlink:href="#f0_1f" transform="matrix(12,0,0,12,190.6,1158.5)"/>
<use xlink:href="#f0_u" transform="matrix(12,0,0,12,199.9,1158.5)"/>
<use xlink:href="#f0_18" transform="matrix(12,0,0,12,204.5,1158.5)"/>
<use xlink:href="#f0_19" transform="matrix(12,0,0,12,213.8,1158.5)"/>
<use xlink:href="#f0_3" transform="matrix(12,0,0,12,223.4,1158.5)"/>
<use xlink:href="#f0_e" transform="matrix(12,0,0,12,232.2,1158.5)"/>
<use xlink:href="#f0_e" transform="matrix(12,0,0,12,241.9,1158.5)"/>
<use xlink:href="#f0_m" transform="matrix(12,0,0,12,251.5,1158.5)"/>
<use xlink:href="#f0_6" transform="matrix(12,0,0,12,255.6,1158.5)"/>
<use xlink:href="#f0_b" transform="matrix(12,0,0,12,259.9,1158.5)"/>
<use xlink:href="#f0_l" transform="matrix(12,0,0,12,269,1158.5)"/>
<use xlink:href="#f0_3" transform="matrix(12,0,0,12,280.3,1158.5)"/>
<use xlink:href="#f0_m" transform="matrix(12,0,0,12,293.3,1158.5)"/>
<use xlink:href="#f0_6" transform="matrix(12,0,0,12,297.4,1158.5)"/>
<use xlink:href="#f0_a" transform="matrix(12,0,0,12,301.6,1158.5)"/>
<use xlink:href="#f0_b" transform="matrix(12,0,0,12,311.1,1158.5)"/>
<use xlink:href="#f0_3" transform="matrix(12,0,0,12,320.3,1158.5)"/>
<use xlink:href="#f0_g" transform="matrix(12,0,0,12,329,1158.5)"/>
<use xlink:href="#f0_k" transform="matrix(12,0,0,12,339.6,1158.5)"/>
<use xlink:href="#f0_g" transform="matrix(12,0,0,12,345.8,1158.5)"/>
<use xlink:href="#f0_3" transform="matrix(12,0,0,12,351.7,1158.5)"/>
<use xlink:href="#f0_a" transform="matrix(12,0,0,12,360.4,1158.5)"/>
<use xlink:href="#f0_l" transform="matrix(12,0,0,12,370,1158.5)"/>
<use xlink:href="#f0_t" transform="matrix(12,0,0,12,377.1,1158.5)"/>
<use xlink:href="#f0_n" transform="matrix(12,0,0,12,382.4,1158.5)"/>
<use xlink:href="#f0_g" transform="matrix(12,0,0,12,392,1158.5)"/>
<use xlink:href="#f0_p" transform="matrix(12,0,0,12,398.4,1158.5)"/>
<use xlink:href="#f0_3" transform="matrix(12,0,0,12,413.1,1158.5)"/>
<use xlink:href="#f0_r" transform="matrix(12,0,0,12,421.7,1158.5)"/>
<use xlink:href="#f0_n" transform="matrix(12,0,0,12,431.9,1158.5)"/>
<use xlink:href="#f0_a" transform="matrix(12,0,0,12,441.5,1158.5)"/>
<use xlink:href="#f0_t" transform="matrix(12,0,0,12,455.2,1158.5)"/>
<use xlink:href="#f0_n" transform="matrix(12,0,0,12,460.4,1158.5)"/>
<use xlink:href="#f0_m" transform="matrix(12,0,0,12,470.1,1158.5)"/>
<use xlink:href="#f0_m" transform="matrix(12,0,0,12,474.3,1158.5)"/>
<use xlink:href="#f0_n" transform="matrix(12,0,0,12,478.6,1158.5)"/>
<use xlink:href="#f0_13" transform="matrix(12,0,0,12,488,1158.5)"/>
<use xlink:href="#f0_b" transform="matrix(12,0,0,12,501,1158.5)"/>
<use xlink:href="#f0_o" transform="matrix(12,0,0,12,510.2,1158.5)"/>
<use xlink:href="#f0_13" transform="matrix(12,0,0,12,523.9,1158.5)"/>
<use xlink:href="#f0_6" transform="matrix(12,0,0,12,537,1158.5)"/>
<use xlink:href="#f0_k" transform="matrix(12,0,0,12,541.3,1158.5)"/>
<use xlink:href="#f0_5" transform="matrix(12,0,0,12,547.4,1158.5)"/>
<use xlink:href="#f0_3" transform="matrix(12,0,0,12,561.2,1158.5)"/>
<use xlink:href="#f0_a" transform="matrix(12,0,0,12,574.1,1158.5)"/>
<use xlink:href="#f0_n" transform="matrix(12,0,0,12,583.7,1158.5)"/>
<use xlink:href="#f0_a" transform="matrix(12,0,0,12,593.4,1158.5)"/>
<use xlink:href="#f0_m" transform="matrix(12,0,0,12,603,1158.5)"/>
<use xlink:href="#f0_6" transform="matrix(12,0,0,12,607.1,1158.5)"/>
<use xlink:href="#f0_a" transform="matrix(12,0,0,12,611.4,1158.5)"/>
<use xlink:href="#f0_b" transform="matrix(12,0,0,12,621,1158.5)"/>
<use xlink:href="#f0_3" transform="matrix(12,0,0,12,630.1,1158.5)"/>
<use xlink:href="#f0_g" transform="matrix(12,0,0,12,638.8,1158.5)"/>
<use xlink:href="#f0_t" transform="matrix(12,0,0,12,649.4,1158.5)"/>
<use xlink:href="#f0_j" transform="matrix(12,0,0,12,655,1158.5)"/>
<use xlink:href="#f0_a" transform="matrix(12,0,0,12,664.6,1158.5)"/>
<use xlink:href="#f0_4" transform="matrix(12,0,0,12,674.3,1158.5)"/>
<use xlink:href="#f0_r" transform="matrix(12,0,0,12,682,1158.5)"/>
<use xlink:href="#f0_n" transform="matrix(12,0,0,12,692.2,1158.5)"/>
<use xlink:href="#f0_a" transform="matrix(12,0,0,12,701.9,1158.5)"/>
<use xlink:href="#f0_1x" transform="matrix(12,0,0,12,715.6,1158.5)"/>
<use xlink:href="#f0_1b" transform="matrix(12,0,0,12,721.2,1158.5)"/>
<use xlink:href="#f0_1i" transform="matrix(12,0,0,12,730.5,1158.5)"/>
<use xlink:href="#f0_1y" transform="matrix(12,0,0,12,739.7,1158.5)"/>
<use xlink:href="#f0_k" transform="matrix(12,0,0,12,749.6,1158.5)"/>
<use xlink:href="#f0_n" transform="matrix(12,0,0,12,755.5,1158.5)"/>
</g>
</svg>