<?xml version="1.0" encoding="UTF-8" standalone="no"?>
<!DOCTYPE svg PUBLIC "-//W3C//DTD SVG 1.1//EN"
"http://www.w3.org/Graphics/SVG/1.1/DTD/svg11.dtd">
<svg viewBox="0 0 909 1286" version="1.1" xmlns="http://www.w3.org/2000/svg" xmlns:xlink="http://www.w3.org/1999/xlink">
<defs>
<clipPath id="c0_4"><path d="M0,1286.3V0H909.3V1286.3Z"/></clipPath>
<clipPath id="c1_4"><path d="M137.5,150.5V125.9H194v24.6Z"/></clipPath>
<clipPath id="c2_4"><path d="M208.5,151V119h73.3v32Z"/></clipPath>
<clipPath id="c3_4"><path d="M137.5,978.5v-472H848.7v472Z"/></clipPath>
<path d="M69,-215c0,0,-12,0,-21,1c0,0,-8,1,-12,4c0,0,-4,2,-4,7c0,0,-1,4,2,10L134,11v96c0,0,0,20,4,32c0,0,4,12,13,18c0,0,9,6,22,8c0,0,13,2,33,2c0,0,19,0,32,-2c0,0,13,-2,22,-8c0,0,9,-6,13,-18c0,0,4,-12,4,-32c0,0,0,-23,-2,-43c0,0,-3,-19,-8,-36c0,0,-5,-17,-14,-33c0,0,-8,-17,-21,-36L130,-194c0,0,-4,-5,-9,-9c0,0,-5,-4,-12,-7c0,0,-7,-3,-16,-4c0,0,-9,-1,-24,-1Z"
id="f1_nq"
transform="scale(0.001,-0.001)"/>

<path d="M372,-4c0,0,-19,0,-31,2c0,0,-12,2,-20,3c0,0,-8,3,-11,8c0,0,-3,4,-3,10V375L34,920c0,0,-8,17,-10,27c0,0,-2,10,4,15c0,0,5,5,20,6c0,0,14,2,39,2c0,0,22,0,36,-2c0,0,14,-1,22,-4c0,0,8,-2,12,-7c0,0,5,-5,8,-12L299,667c0,0,18,-40,37,-83c0,0,19,-43,38,-87h2c0,0,17,42,35,84c0,0,18,43,37,84L582,944c0,0,3,7,7,12c0,0,4,6,11,8c0,0,7,3,20,4c0,0,12,2,32,2c0,0,27,0,42,-2c0,0,15,-2,21,-7c0,0,6,-5,4,-15c0,0,-2,-10,-10,-26L436,375V19c0,0,0,-6,-3,-10c0,0,-3,-5,-10,-8c0,0,-8,-1,-20,-3c0,0,-13,-2,-31,-2Z"
id="f1_3f"
transform="scale(0.001,-0.001)"/>

<path d="M401,90c0,0,54,0,93,19c0,0,40,20,65,55c0,0,26,35,37,84c0,0,12,48,12,106c0,0,0,55,-10,104c0,0,-10,48,-33,85c0,0,-23,36,-62,58c0,0,-40,21,-99,21c0,0,-54,0,-93,-20c0,0,-39,-19,-65,-54c0,0,-25,-36,-37,-85c0,0,-12,-48,-12,-106c0,0,0,-55,10,-103c0,0,10,-49,33,-85c0,0,24,-36,63,-58c0,0,39,-21,98,-21ZM395,-13c0,0,-82,0,-144,24c0,0,-61,25,-102,72c0,0,-41,47,-61,114c0,0,-21,67,-21,152c0,0,0,82,22,151c0,0,21,69,64,119c0,0,43,50,107,78c0,0,64,28,150,28c0,0,82,0,144,-25c0,0,61,-25,102,-72c0,0,41,-47,62,-114c0,0,20,-67,20,-151c0,0,0,-83,-21,-152c0,0,-22,-69,-65,-119C652,92,609,42,545,14c0,0,-65,-27,-150,-27Z"
id="f1_am"
transform="scale(0.001,-0.001)"/>

<path d="M351,-13c0,0,-67,0,-113,22c0,0,-46,22,-75,60c0,0,-28,39,-40,90c0,0,-13,51,-13,124V690c0,0,0,6,3,10c0,0,3,4,10,7c0,0,8,4,20,5c0,0,11,1,29,1c0,0,18,0,30,-1c0,0,12,-1,19,-5c0,0,7,-3,10,-7c0,0,3,-4,3,-10V299c0,0,0,-59,9,-94c0,0,8,-36,26,-61c0,0,18,-24,44,-38c0,0,27,-14,63,-14c0,0,46,0,92,33c0,0,46,32,98,95V690c0,0,0,6,2,10c0,0,3,4,10,7c0,0,8,4,19,5c0,0,12,1,30,1c0,0,18,0,30,-1c0,0,12,-1,19,-5c0,0,7,-3,10,-7c0,0,3,-4,3,-10V18c0,0,0,-6,-2,-10c0,0,-3,-4,-10,-7c0,0,-6,-2,-17,-3c0,0,-11,-2,-27,-2c0,0,-17,0,-28,2c0,0,-10,1,-17,3c0,0,-6,3,-8,7c0,0,-3,4,-3,10v89c0,0,-57,-63,-113,-92c0,0,-56,-28,-113,-28Z"
id="f1_c6"
transform="scale(0.001,-0.001)"/>

<path d="M367,-13c0,0,-73,0,-129,23c0,0,-56,24,-93,70c0,0,-38,46,-58,112c0,0,-20,67,-20,154c0,0,0,99,25,171c0,0,24,71,66,116c0,0,42,46,99,68c0,0,58,22,124,22c0,0,32,0,62,-6c0,0,31,-6,56,-16c0,0,25,-10,45,-22c0,0,20,-13,29,-22c0,0,9,-9,12,-14c0,0,3,-5,6,-13c0,0,2,-7,3,-16c0,0,0,-9,0,-22c0,0,0,-29,-6,-41c0,0,-7,-11,-17,-11c0,0,-11,0,-25,12c0,0,-15,12,-37,27c0,0,-23,15,-55,28c0,0,-31,12,-75,12c0,0,-88,0,-136,-68c0,0,-47,-68,-47,-198c0,0,0,-65,12,-114c0,0,12,-49,36,-81c0,0,24,-33,59,-49c0,0,35,-16,79,-16c0,0,43,0,75,13c0,0,32,14,56,30c0,0,23,16,39,29c0,0,16,13,25,13c0,0,5,0,9,-3c0,0,4,-3,7,-10c0,0,2,-7,3,-18c0,0,1,-11,1,-26c0,0,0,-12,0,-22c0,0,-1,-9,-3,-15c0,0,-2,-7,-4,-12c0,0,-3,-4,-12,-14c0,0,-10,-9,-32,-23c0,0,-22,-14,-50,-24C496,11,468,0,435,-6c0,0,-33,-7,-68,-7Z"
id="f1_7l"
transform="scale(0.001,-0.001)"/>

<path d="M321,82c0,0,48,0,90,25c0,0,41,24,87,75V325H392c0,0,-50,0,-88,-9c0,0,-37,-9,-62,-25c0,0,-24,-17,-36,-41c0,0,-11,-23,-11,-54c0,0,0,-52,33,-83c0,0,33,-31,93,-31ZM301,-13c0,0,-53,0,-96,13c0,0,-43,14,-73,40c0,0,-30,26,-47,64c0,0,-17,38,-17,87c0,0,0,56,24,98c0,0,23,42,66,69c0,0,43,28,106,42c0,0,63,14,141,14h93v52c0,0,0,39,-9,69c0,0,-8,30,-26,50c0,0,-18,20,-47,30c0,0,-30,10,-72,10c0,0,-46,0,-82,-11c0,0,-36,-11,-63,-24c0,0,-27,-13,-46,-24c0,0,-18,-11,-27,-11c0,0,-6,0,-10,3c0,0,-5,3,-8,9c0,0,-3,6,-5,16c0,0,-1,9,-1,20c0,0,0,19,2,30c0,0,3,11,13,20c0,0,10,10,35,23c0,0,24,13,56,24c0,0,32,10,70,17c0,0,38,8,77,8c0,0,73,0,123,-17c0,0,51,-16,82,-48c0,0,32,-32,46,-79c0,0,14,-47,14,-110V18c0,0,0,-9,-6,-14c0,0,-6,-4,-16,-6c0,0,-11,-2,-31,-2c0,0,-19,0,-31,2c0,0,-12,2,-17,6c0,0,-5,5,-5,13V85c0,0,-44,-47,-98,-73c0,0,-54,-25,-115,-25Z"
id="f1_77"
transform="scale(0.001,-0.001)"/>

<path d="M176,-4c0,0,-18,0,-30,2c0,0,-12,1,-19,3c0,0,-7,3,-10,7c0,0,-3,4,-3,10V690c0,0,0,6,3,10c0,0,2,4,9,7c0,0,6,4,17,5c0,0,10,1,27,1c0,0,17,0,28,-1c0,0,10,-1,16,-5c0,0,6,-3,9,-7c0,0,3,-4,3,-10V601c0,0,56,64,112,94c0,0,57,30,114,30c0,0,67,0,113,-23c0,0,46,-23,74,-61c0,0,29,-38,41,-89c0,0,12,-52,12,-123V18c0,0,0,-6,-3,-10c0,0,-3,-4,-9,-7c0,0,-7,-2,-19,-3c0,0,-12,-2,-30,-2c0,0,-19,0,-30,2c0,0,-12,1,-19,3c0,0,-7,3,-10,7c0,0,-3,4,-3,10V412c0,0,0,58,-9,93c0,0,-9,35,-26,61c0,0,-17,25,-44,38c0,0,-27,14,-63,14c0,0,-46,0,-93,-33c0,0,-46,-33,-97,-96V18c0,0,0,-6,-3,-10c0,0,-2,-4,-9,-7c0,0,-7,-2,-19,-3c0,0,-12,-2,-30,-2Z"
id="f1_af"
transform="scale(0.001,-0.001)"/>

<path d="M272,-13c0,0,-35,0,-68,6c0,0,-32,6,-58,13c0,0,-26,9,-44,18c0,0,-17,10,-26,17c0,0,-8,8,-12,21c0,0,-3,14,-3,37c0,0,0,14,1,24c0,0,2,9,4,15c0,0,2,6,6,9c0,0,4,3,10,3c0,0,8,0,24,-11c0,0,16,-10,39,-22c0,0,24,-12,56,-22c0,0,32,-10,74,-10c0,0,31,0,56,7c0,0,26,6,44,19c0,0,19,14,29,34c0,0,10,20,10,47c0,0,0,29,-14,48c0,0,-15,19,-39,34c0,0,-24,15,-53,27c0,0,-30,11,-62,24c0,0,-32,13,-62,29c0,0,-30,16,-54,39c0,0,-24,23,-38,55c0,0,-15,32,-15,77c0,0,0,40,16,76c0,0,15,36,45,63c0,0,31,28,77,44c0,0,46,17,107,17c0,0,27,0,54,-5c0,0,26,-5,48,-11c0,0,22,-7,37,-15c0,0,15,-8,23,-14c0,0,8,-6,11,-11c0,0,2,-4,3,-10c0,0,1,-5,2,-14c0,0,2,-8,2,-20c0,0,0,-12,-2,-22c0,0,-1,-9,-3,-15c0,0,-3,-6,-7,-8c0,0,-3,-3,-8,-3c0,0,-7,0,-19,8c0,0,-13,8,-33,18c0,0,-20,9,-47,17c0,0,-28,9,-63,9c0,0,-31,0,-55,-7c0,0,-24,-7,-39,-20c0,0,-15,-13,-23,-31c0,0,-8,-18,-8,-39c0,0,0,-29,15,-49c0,0,15,-20,39,-35c0,0,24,-15,54,-27c0,0,31,-11,62,-24c0,0,32,-13,63,-29c0,0,31,-15,55,-38c0,0,24,-22,38,-53c0,0,15,-32,15,-75c0,0,0,-51,-19,-92c0,0,-19,-40,-54,-68C463,42,428,15,379,1c0,0,-48,-14,-107,-14Z"
id="f1_b5"
transform="scale(0.001,-0.001)"/>

<path d="M176,-4c0,0,-18,0,-30,2c0,0,-12,1,-19,3c0,0,-7,3,-10,7c0,0,-3,4,-3,10v997c0,0,0,6,3,11c0,0,3,4,10,7c0,0,7,3,19,5c0,0,12,1,30,1c0,0,18,0,30,-1c0,0,12,-2,19,-5c0,0,7,-3,9,-7c0,0,3,-5,3,-11V408L492,687c0,0,6,7,12,12c0,0,7,5,16,8c0,0,10,4,22,5c0,0,13,1,31,1c0,0,19,0,31,-1c0,0,13,-1,21,-4c0,0,8,-3,11,-7c0,0,3,-4,3,-11c0,0,0,-9,-4,-18c0,0,-5,-8,-16,-20L375,408L648,54c0,0,10,-13,14,-20c0,0,4,-8,4,-15c0,0,0,-6,-3,-10c0,0,-3,-5,-10,-8c0,0,-7,-2,-20,-3c0,0,-13,-2,-32,-2c0,0,-20,0,-33,1c0,0,-13,1,-22,3c0,0,-9,3,-15,7c0,0,-5,5,-10,12L237,391V18c0,0,0,-6,-3,-10c0,0,-2,-4,-9,-7c0,0,-7,-2,-19,-3c0,0,-12,-2,-30,-2Z"
id="f1_a5"
transform="scale(0.001,-0.001)"/>

<path d="M176,-4c0,0,-18,0,-30,2c0,0,-12,1,-19,3c0,0,-7,3,-10,7c0,0,-3,4,-3,10V690c0,0,0,5,3,9c0,0,3,5,10,8c0,0,7,3,19,4c0,0,12,2,30,2c0,0,18,0,30,-2c0,0,12,-1,19,-4c0,0,7,-3,9,-8c0,0,3,-4,3,-9V18c0,0,0,-6,-3,-10c0,0,-2,-4,-9,-7c0,0,-7,-2,-19,-3c0,0,-12,-2,-30,-2Zm-1,846c0,0,-43,0,-59,15c0,0,-16,15,-16,58c0,0,0,43,16,59c0,0,17,16,61,16c0,0,43,0,59,-16c0,0,16,-15,16,-58c0,0,0,-43,-16,-58c0,0,-17,-16,-61,-16Z"
id="f1_9q"
transform="scale(0.001,-0.001)"/>

<path d="M429,92c0,0,47,0,80,22c0,0,33,23,54,60c0,0,20,38,30,84c0,0,10,46,10,93c0,0,0,52,-8,100c0,0,-8,48,-27,86c0,0,-19,37,-51,60c0,0,-32,22,-80,22c0,0,-24,0,-47,-7c0,0,-23,-7,-47,-23c0,0,-24,-15,-50,-40c0,0,-26,-25,-56,-62V220c0,0,51,-62,97,-95c0,0,45,-33,95,-33ZM176,-271c0,0,-18,0,-30,2c0,0,-12,1,-19,4c0,0,-7,3,-10,8c0,0,-3,4,-3,10V690c0,0,0,6,3,10c0,0,2,5,9,8c0,0,6,3,17,4c0,0,10,1,25,1c0,0,16,0,26,-1c0,0,10,-1,17,-4c0,0,6,-3,9,-7c0,0,3,-4,3,-11V601c0,0,30,31,59,54c0,0,28,23,57,39c0,0,28,15,59,23c0,0,30,8,63,8c0,0,74,0,125,-29c0,0,52,-28,84,-77c0,0,32,-50,47,-115c0,0,15,-65,15,-139c0,0,0,-88,-19,-158c0,0,-19,-70,-56,-119c0,0,-37,-49,-91,-75c0,0,-55,-26,-125,-26c0,0,-30,0,-55,6c0,0,-25,6,-50,18c0,0,-24,13,-48,32c0,0,-24,19,-51,46V-247c0,0,0,-6,-3,-10c0,0,-2,-5,-9,-8c0,0,-7,-3,-19,-4c0,0,-12,-2,-30,-2Z"
id="f1_ay"
transform="scale(0.001,-0.001)"/>

<path d="M339,-13c0,0,-52,0,-90,13c0,0,-37,14,-61,42c0,0,-24,28,-34,71c0,0,-11,43,-11,101V607H49c0,0,-11,0,-18,12c0,0,-7,12,-7,39c0,0,0,14,2,24c0,0,2,10,5,16c0,0,3,7,8,9c0,0,5,3,11,3h93V870c0,0,0,5,2,9c0,0,3,5,10,8c0,0,7,4,19,5c0,0,12,2,30,2c0,0,19,0,31,-2c0,0,11,-1,18,-5c0,0,7,-3,10,-8c0,0,3,-4,3,-9V710H438c0,0,6,0,10,-3c0,0,5,-2,8,-9c0,0,4,-6,5,-16c0,0,1,-10,1,-24c0,0,0,-27,-6,-39c0,0,-7,-12,-18,-12H266V232c0,0,0,-69,20,-105c0,0,21,-35,74,-35c0,0,17,0,30,3c0,0,14,4,24,7c0,0,10,4,18,7c0,0,7,4,13,4c0,0,4,0,7,-2c0,0,4,-2,6,-7c0,0,2,-5,3,-14c0,0,1,-9,1,-23c0,0,0,-22,-2,-34c0,0,-3,-13,-9,-19c0,0,-6,-6,-18,-11c0,0,-12,-4,-28,-8c0,0,-15,-3,-32,-5c0,0,-17,-3,-34,-3Z"
id="f1_bf"
transform="scale(0.001,-0.001)"/>

<path d="M176,-4c0,0,-18,0,-30,2c0,0,-12,1,-19,3c0,0,-7,3,-10,7c0,0,-3,4,-3,10v997c0,0,0,6,3,11c0,0,3,4,10,7c0,0,7,3,19,5c0,0,12,1,30,1c0,0,18,0,30,-1c0,0,12,-2,19,-5c0,0,7,-3,9,-7c0,0,3,-5,3,-10V614c0,0,53,56,107,83c0,0,54,28,108,28c0,0,67,0,113,-23c0,0,46,-23,74,-61c0,0,29,-38,41,-89c0,0,12,-52,12,-124V18c0,0,0,-6,-3,-10c0,0,-3,-4,-9,-7c0,0,-7,-2,-19,-3c0,0,-12,-2,-30,-2c0,0,-19,0,-30,2c0,0,-12,1,-19,3c0,0,-7,3,-10,7c0,0,-3,4,-3,10V412c0,0,0,58,-9,93c0,0,-9,35,-26,61c0,0,-17,25,-44,38c0,0,-27,14,-63,14c0,0,-46,0,-93,-33c0,0,-46,-33,-97,-96V18c0,0,0,-6,-3,-10c0,0,-2,-4,-9,-7c0,0,-7,-2,-19,-3c0,0,-12,-2,-30,-2Z"
id="f1_9n"
transform="scale(0.001,-0.001)"/>

<path d="M564,420c0,0,2,98,-43,153c0,0,-46,56,-134,56c0,0,-46,0,-80,-18c0,0,-35,-17,-58,-45c0,0,-23,-29,-36,-67c0,0,-12,-37,-14,-79ZM405,-13c0,0,-83,0,-145,22c0,0,-62,24,-105,69c0,0,-42,46,-64,114c0,0,-22,69,-22,160c0,0,0,87,23,156c0,0,22,69,64,117c0,0,43,48,102,74c0,0,60,26,134,26c0,0,79,0,135,-26c0,0,55,-25,91,-68c0,0,36,-43,53,-101c0,0,16,-58,16,-123V384c0,0,0,-29,-14,-41c0,0,-15,-13,-33,-13H199c0,0,0,-56,11,-100c0,0,12,-45,38,-77c0,0,26,-33,68,-50c0,0,41,-17,102,-17c0,0,48,0,85,8c0,0,37,8,65,17c0,0,27,10,44,18c0,0,18,8,27,8c0,0,5,0,9,-3c0,0,4,-2,7,-8c0,0,2,-5,3,-14c0,0,1,-9,1,-23c0,0,0,-9,-1,-16c0,0,0,-8,-2,-13c0,0,-1,-6,-3,-10c0,0,-3,-5,-7,-9c0,0,-4,-4,-24,-13c0,0,-20,-10,-53,-18c0,0,-32,-9,-74,-16c0,0,-42,-7,-90,-7Z"
id="f1_7z"
transform="scale(0.001,-0.001)"/>

<path d="M209,-4c0,0,-18,0,-30,2c0,0,-12,1,-19,3c0,0,-7,3,-10,7c0,0,-3,4,-3,10V607H52c0,0,-12,0,-18,12c0,0,-6,12,-6,39c0,0,0,14,2,24c0,0,1,10,4,16c0,0,3,7,8,9c0,0,4,3,10,3h95v69c0,0,0,71,13,121c0,0,13,50,40,82c0,0,27,33,67,48c0,0,41,15,96,15c0,0,26,0,51,-5c0,0,25,-4,38,-10c0,0,13,-6,18,-10c0,0,4,-5,7,-12c0,0,3,-7,5,-17c0,0,1,-10,1,-24c0,0,0,-15,-2,-23c0,0,-1,-9,-3,-14c0,0,-2,-5,-5,-7c0,0,-3,-2,-8,-2c0,0,-5,0,-13,3c0,0,-7,4,-19,8c0,0,-11,4,-26,7c0,0,-15,4,-36,4c0,0,-27,0,-47,-9c0,0,-19,-9,-31,-28c0,0,-12,-19,-17,-50c0,0,-5,-30,-5,-73V710H421c0,0,6,0,10,-3c0,0,4,-2,7,-9c0,0,4,-6,6,-16c0,0,2,-10,2,-24c0,0,0,-27,-7,-39c0,0,-7,-12,-18,-12H271V18c0,0,0,-6,-3,-10c0,0,-3,-4,-11,-7c0,0,-7,-2,-19,-3c0,0,-12,-2,-29,-2Z"
id="f1_89"
transform="scale(0.001,-0.001)"/>

<path d="M176,-4c0,0,-18,0,-30,2c0,0,-12,1,-19,3c0,0,-7,3,-10,7c0,0,-3,4,-3,10v997c0,0,0,6,3,11c0,0,3,4,10,7c0,0,7,3,19,5c0,0,12,1,30,1c0,0,18,0,30,-1c0,0,12,-2,19,-5c0,0,7,-3,9,-7c0,0,3,-5,3,-11V18c0,0,0,-6,-3,-10c0,0,-2,-4,-9,-7c0,0,-7,-2,-19,-3c0,0,-12,-2,-30,-2Z"
id="f1_a8"
transform="scale(0.001,-0.001)"/>

<path d="M324,-4c0,0,-23,0,-37,2c0,0,-15,1,-24,3c0,0,-9,3,-14,8c0,0,-4,6,-7,13L46,660c0,0,-4,11,-5,18c0,0,-2,8,-2,13c0,0,0,7,3,11c0,0,3,4,10,7c0,0,8,2,19,3c0,0,12,1,30,1c0,0,20,0,33,-1c0,0,13,-1,20,-4c0,0,6,-3,9,-8c0,0,3,-4,5,-11L330,136l2,-7l1,7L482,689c0,0,1,7,5,11c0,0,3,5,10,8c0,0,6,3,18,4c0,0,12,1,31,1c0,0,18,0,29,-1c0,0,12,-1,18,-4c0,0,7,-3,10,-7c0,0,3,-5,5,-11L768,136l1,-7l1,7L930,689c0,0,1,7,5,11c0,0,3,5,10,8c0,0,7,3,20,4c0,0,12,1,31,1c0,0,18,0,29,-1c0,0,11,-1,17,-4c0,0,6,-3,9,-6c0,0,3,-4,3,-11c0,0,0,-5,-2,-13c0,0,-1,-7,-5,-18L849,22c0,0,-2,-8,-7,-13c0,0,-5,-6,-13,-9c0,0,-9,-2,-24,-3c0,0,-15,-1,-37,-1c0,0,-23,0,-39,2c0,0,-15,1,-25,3c0,0,-9,3,-14,8c0,0,-4,6,-6,13L543,510l-2,6l-2,-6L409,22c0,0,-3,-8,-7,-13c0,0,-5,-6,-15,-9c0,0,-10,-2,-25,-3c0,0,-15,-1,-38,-1Z"
id="f1_ci"
transform="scale(0.001,-0.001)"/>

<path d="M346,-177c0,0,56,0,94,11c0,0,37,11,60,28c0,0,24,18,34,41c0,0,10,23,10,49c0,0,0,43,-36,65c0,0,-35,23,-95,25L239,48c0,0,-24,-19,-39,-35c0,0,-15,-16,-24,-31c0,0,-9,-16,-12,-30c0,0,-4,-15,-4,-31c0,0,0,-48,49,-73c0,0,50,-25,137,-25Zm-6,512c0,0,36,0,63,12c0,0,27,12,44,32c0,0,18,21,26,48c0,0,9,27,9,56c0,0,0,69,-38,107c0,0,-37,39,-107,39c0,0,-35,0,-62,-12c0,0,-26,-12,-44,-33c0,0,-17,-21,-26,-48c0,0,-8,-28,-8,-58c0,0,0,-66,37,-104c0,0,38,-39,106,-39Zm0,-606c0,0,-81,0,-138,14c0,0,-57,14,-94,38c0,0,-36,24,-52,57c0,0,-17,33,-17,72c0,0,0,24,6,47c0,0,6,24,18,43c0,0,13,21,31,40c0,0,18,19,42,38c0,0,-36,19,-54,47c0,0,-17,28,-17,61c0,0,0,45,18,81c0,0,19,36,46,64c0,0,-23,28,-36,62c0,0,-14,35,-14,84c0,0,0,58,20,104c0,0,19,45,53,77c0,0,35,31,83,48c0,0,48,17,105,17c0,0,30,0,57,-4c0,0,26,-3,49,-9H649c0,0,13,0,19,-12c0,0,7,-13,7,-38c0,0,0,-26,-7,-37c0,0,-7,-12,-19,-12H553c0,0,26,-27,37,-60c0,0,10,-32,10,-68c0,0,0,-58,-18,-103c0,0,-19,-45,-54,-76c0,0,-34,-31,-82,-47c0,0,-48,-16,-106,-16c0,0,-41,0,-78,10c0,0,-37,11,-57,28c0,0,-14,-14,-22,-31c0,0,-9,-17,-9,-39c0,0,0,-27,24,-44c0,0,25,-17,65,-18l175,-8c0,0,50,-1,92,-14c0,0,41,-12,72,-35c0,0,31,-22,48,-55c0,0,17,-34,17,-76c0,0,0,-47,-20,-88c0,0,-19,-42,-59,-74c0,0,-40,-31,-102,-50c0,0,-61,-18,-146,-18Z"
id="f1_9d"
transform="scale(0.001,-0.001)"/>

<path d="M92,-4c0,0,-22,0,-35,2C57,-2,43,0,37,3c0,0,-7,5,-6,12c0,0,0,7,7,17L247,360L49,675c0,0,-6,11,-6,18c0,0,-1,7,6,12c0,0,7,5,22,6c0,0,14,2,38,2c0,0,22,0,35,-1c0,0,13,-1,20,-4c0,0,8,-2,12,-6c0,0,3,-3,6,-9L335,443L490,693c0,0,3,5,7,9c0,0,4,3,10,6c0,0,7,3,18,4c0,0,12,1,32,1c0,0,21,0,35,-2c0,0,14,-1,21,-5c0,0,7,-4,6,-12c0,0,-1,-7,-8,-19L415,364L622,32c0,0,6,-10,6,-17c0,0,0,-7,-7,-12c0,0,-7,-3,-21,-5c0,0,-15,-2,-38,-2c0,0,-22,0,-35,1c0,0,-13,1,-21,3c0,0,-8,3,-12,7c0,0,-4,4,-7,9L326,282L165,16c0,0,-3,-5,-7,-9c0,0,-4,-4,-12,-7c0,0,-8,-2,-20,-3c0,0,-13,-1,-34,-1Z"
id="f1_cn"
transform="scale(0.001,-0.001)"/>

<path d="M252,-271c0,0,-19,0,-31,2c0,0,-12,2,-18,6c0,0,-7,5,-8,12c0,0,0,8,4,18L292,0c0,0,-7,3,-13,10c0,0,-6,6,-8,14L31,665c0,0,-6,16,-6,25c0,0,0,9,6,14c0,0,6,5,20,7c0,0,13,2,36,2c0,0,22,0,35,-1c0,0,12,-1,20,-4c0,0,7,-3,11,-9c0,0,3,-6,7,-15L351,145h3L539,687c0,0,4,14,10,18c0,0,7,4,19,6c0,0,13,2,37,2c0,0,21,0,34,-2c0,0,14,-2,20,-7c0,0,6,-5,6,-14c0,0,0,-9,-4,-23L420,0L330,-246c0,0,-4,-12,-22,-18c0,0,-19,-7,-56,-7Z"
id="f1_co"
transform="scale(0.001,-0.001)"/>

<path d="M366,92c0,0,25,0,48,7c0,0,22,6,46,22c0,0,24,16,50,41c0,0,26,24,56,61V492c0,0,-51,62,-97,94c0,0,-47,33,-98,33c0,0,-47,0,-79,-22c0,0,-33,-23,-54,-59c0,0,-20,-37,-30,-83c0,0,-9,-47,-9,-94c0,0,0,-51,8,-100c0,0,8,-48,27,-86c0,0,19,-38,52,-60c0,0,32,-23,80,-23ZM345,-13c0,0,-74,0,-127,28c0,0,-52,29,-84,78c0,0,-33,49,-48,115c0,0,-15,66,-15,139c0,0,0,86,19,156c0,0,19,70,55,119c0,0,37,50,91,76c0,0,54,27,125,27c0,0,59,0,108,-26c0,0,49,-26,97,-76v390c0,0,0,5,2,10c0,0,3,4,10,7c0,0,8,3,19,5c0,0,12,1,30,1c0,0,18,0,30,-1c0,0,12,-2,19,-5c0,0,7,-3,10,-7c0,0,3,-5,3,-10V18c0,0,0,-6,-2,-10c0,0,-3,-5,-9,-7c0,0,-7,-2,-17,-3c0,0,-10,-2,-25,-2c0,0,-16,0,-26,2c0,0,-11,1,-18,3c0,0,-6,2,-9,7c0,0,-3,4,-3,10v90c0,0,-53,-58,-110,-90c0,0,-58,-31,-125,-31Z"
id="f1_7v"
transform="scale(0.001,-0.001)"/>

<path d="M176,-4c0,0,-18,0,-30,2c0,0,-12,1,-19,3c0,0,-7,3,-10,7c0,0,-3,4,-3,10V690c0,0,0,6,3,10c0,0,2,4,9,7c0,0,6,4,17,5c0,0,10,1,27,1c0,0,17,0,28,-1c0,0,10,-1,16,-5c0,0,6,-3,9,-7c0,0,3,-4,3,-10V592c0,0,27,41,51,66c0,0,25,26,46,41c0,0,22,14,43,20c0,0,21,6,43,6c0,0,10,0,22,-2c0,0,12,-1,26,-4c0,0,13,-3,24,-6c0,0,11,-4,15,-8c0,0,5,-4,6,-7c0,0,2,-3,3,-9c0,0,1,-5,1,-15c0,0,0,-10,0,-27c0,0,0,-16,0,-28c0,0,-1,-11,-3,-17c0,0,-2,-6,-6,-10c0,0,-3,-3,-9,-3c0,0,-6,0,-15,3c0,0,-8,4,-19,7c0,0,-11,3,-24,6c0,0,-14,3,-29,3c0,0,-19,0,-37,-7c0,0,-18,-8,-37,-25c0,0,-20,-18,-42,-46c0,0,-21,-29,-48,-70V18c0,0,0,-6,-3,-10c0,0,-2,-4,-9,-7c0,0,-7,-2,-19,-3c0,0,-12,-2,-30,-2Z"
id="f1_b1"
transform="scale(0.001,-0.001)"/>

<path d="M431,92c0,0,46,0,79,22c0,0,33,23,53,60c0,0,21,37,30,83c0,0,10,46,10,93c0,0,0,51,-8,100c0,0,-8,49,-28,86c0,0,-19,37,-51,60c0,0,-32,23,-80,23c0,0,-24,0,-47,-7c0,0,-23,-7,-47,-22c0,0,-24,-16,-50,-41c0,0,-25,-24,-55,-62V219c0,0,51,-62,98,-95c0,0,46,-32,96,-32ZM443,-13c0,0,-32,0,-59,7c0,0,-27,6,-53,19c0,0,-26,14,-52,36c0,0,-27,22,-56,52V18c0,0,0,-6,-3,-10c0,0,-3,-5,-9,-7c0,0,-7,-2,-17,-3c0,0,-10,-2,-26,-2c0,0,-15,0,-25,2c0,0,-11,1,-17,3c0,0,-7,2,-9,7c0,0,-3,4,-3,10v997c0,0,0,6,3,11c0,0,3,4,10,7c0,0,7,3,19,5c0,0,12,1,30,1c0,0,18,0,30,-1c0,0,12,-2,19,-5c0,0,7,-3,9,-7c0,0,3,-5,3,-10V614c0,0,30,31,58,52c0,0,28,20,55,34c0,0,27,13,54,19c0,0,27,6,57,6c0,0,73,0,125,-30c0,0,52,-29,84,-78c0,0,32,-48,47,-114c0,0,15,-66,15,-139c0,0,0,-87,-19,-157c0,0,-19,-70,-56,-119c0,0,-37,-49,-90,-76c0,0,-54,-25,-124,-25Z"
id="f1_7k"
transform="scale(0.001,-0.001)"/>

<path d="M176,-4c0,0,-18,0,-30,2c0,0,-12,1,-19,3c0,0,-7,3,-10,7c0,0,-3,4,-3,10V690c0,0,0,6,3,10c0,0,2,4,9,7c0,0,6,4,17,5c0,0,10,1,27,1c0,0,17,0,28,-1c0,0,10,-1,16,-5c0,0,6,-3,9,-7c0,0,3,-4,3,-10V601c0,0,56,64,110,94c0,0,53,30,108,30c0,0,42,0,75,-10c0,0,33,-10,58,-28c0,0,26,-17,44,-42c0,0,18,-24,30,-55c0,0,33,37,63,63c0,0,31,26,59,41c0,0,28,16,54,23c0,0,27,8,53,8c0,0,65,0,109,-23c0,0,44,-23,71,-61c0,0,28,-38,39,-89c0,0,12,-52,12,-108V18c0,0,0,-6,-3,-10c0,0,-3,-4,-10,-7c0,0,-7,-2,-19,-3c0,0,-12,-2,-29,-2c0,0,-19,0,-31,2c0,0,-12,1,-19,3c0,0,-7,3,-10,7c0,0,-3,4,-3,10V427c0,0,0,43,-8,78c0,0,-7,35,-23,61c0,0,-17,25,-42,38c0,0,-25,14,-60,14c0,0,-42,0,-85,-33c0,0,-43,-33,-94,-96V18c0,0,0,-6,-3,-10c0,0,-3,-4,-11,-7c0,0,-7,-2,-19,-3c0,0,-11,-2,-29,-2c0,0,-18,0,-30,2c0,0,-12,1,-19,3c0,0,-7,3,-10,7c0,0,-3,4,-3,10V427c0,0,0,43,-8,78c0,0,-8,35,-24,61c0,0,-17,25,-42,38c0,0,-25,14,-59,14c0,0,-43,0,-86,-33c0,0,-44,-33,-95,-96V18c0,0,0,-6,-3,-10c0,0,-2,-4,-9,-7c0,0,-7,-2,-19,-3c0,0,-12,-2,-30,-2Z"
id="f1_ae"
transform="scale(0.001,-0.001)"/>

<path d="M192,-6c0,0,-45,0,-62,16c0,0,-18,18,-18,69c0,0,0,53,18,71c0,0,18,17,64,17c0,0,45,0,62,-17c0,0,17,-17,17,-69c0,0,0,-53,-18,-70c0,0,-17,-17,-63,-17Z"
id="f1_nt"
transform="scale(0.001,-0.001)"/>

<path d="M372,-4c0,0,-18,0,-30,2c0,0,-13,2,-21,3c0,0,-7,3,-10,8c0,0,-3,4,-3,10V857H36c0,0,-6,0,-11,3c0,0,-5,2,-8,9c0,0,-2,6,-4,17c0,0,-2,10,-2,24c0,0,0,14,2,25c0,0,2,11,4,17c0,0,3,7,8,10c0,0,5,3,11,3H708c0,0,6,0,11,-3c0,0,5,-3,8,-10c0,0,4,-6,5,-17c0,0,2,-11,2,-25c0,0,0,-14,-2,-24c0,0,-1,-11,-5,-17c0,0,-3,-7,-8,-9c0,0,-5,-3,-11,-3H436V19c0,0,0,-6,-3,-10c0,0,-3,-5,-10,-8c0,0,-8,-1,-20,-3c0,0,-12,-2,-31,-2Z"
id="f1_2t"
transform="scale(0.001,-0.001)"/>

<path d="M102,0C102,0,87,0,77,10C77,10,66,21,66,45V71c0,0,0,10,2,18c0,0,1,9,4,17c0,0,3,8,9,17c0,0,5,10,12,22L390,606H102c0,0,-12,0,-19,13c0,0,-7,12,-7,39c0,0,0,14,2,24c0,0,1,10,5,16c0,0,3,7,8,9c0,0,5,3,11,3H487c0,0,9,0,15,-2c0,0,6,-3,11,-8c0,0,4,-5,7,-13c0,0,3,-8,3,-21V642c0,0,0,-10,-2,-19c0,0,-1,-9,-4,-18c0,0,-3,-8,-9,-18c0,0,-5,-10,-12,-22L201,104H516c0,0,6,0,11,-3c0,0,4,-3,8,-9c0,0,3,-6,5,-16c0,0,3,-10,3,-24c0,0,0,-14,-3,-24c0,0,-2,-10,-5,-16c0,0,-3,-7,-8,-9c0,0,-5,-3,-11,-3Z"
id="f1_ct"
transform="scale(0.001,-0.001)"/>

<path d="M321,-256c0,0,-13,0,-23,1c0,0,-10,0,-17,3c0,0,-7,2,-11,5c0,0,-5,3,-7,7c0,0,-40,76,-71,154c0,0,-31,78,-51,157c0,0,-21,81,-32,163c0,0,-10,83,-10,167c0,0,0,84,11,166c0,0,12,82,33,163c0,0,21,81,52,160c0,0,31,78,69,155c0,0,0,3,4,5c0,0,3,2,9,4c0,0,6,3,16,4c0,0,11,1,27,1c0,0,17,0,28,-2c0,0,10,-3,16,-6c0,0,6,-4,7,-10c0,0,1,-6,-2,-13c0,0,-71,-150,-106,-307c0,0,-34,-158,-34,-318c0,0,0,-160,35,-318c0,0,35,-156,103,-308c0,0,4,-9,4,-15c0,0,1,-6,-4,-10c0,0,-6,-4,-16,-6c0,0,-11,-2,-30,-2Z"
id="f1_ov"
transform="scale(0.001,-0.001)"/>

<path d="M346,-4c0,0,-23,0,-38,2c0,0,-15,1,-24,3c0,0,-9,3,-15,8c0,0,-5,6,-8,13L33,660c0,0,-3,9,-5,15c0,0,-2,7,-2,11c0,0,0,3,0,5c0,0,0,6,3,11c0,0,3,4,10,7c0,0,7,2,18,3c0,0,12,1,29,1c0,0,22,0,35,-1c0,0,13,-1,20,-4c0,0,7,-3,10,-8c0,0,4,-4,7,-11L347,135l3,-9l2,9L540,689c0,0,1,7,5,11c0,0,3,5,11,8c0,0,7,3,19,4c0,0,12,1,32,1c0,0,18,0,29,-1c0,0,11,-1,17,-4c0,0,7,-3,9,-7c0,0,3,-4,3,-10c0,0,0,-3,-1,-6c0,0,0,-4,-1,-7c0,0,0,-4,-2,-8c0,0,-1,-5,-2,-10L430,22c0,0,-3,-8,-8,-13c0,0,-5,-6,-15,-9c0,0,-9,-2,-24,-3c0,0,-15,-1,-37,-1Z"
id="f1_ch"
transform="scale(0.001,-0.001)"/>

<path d="M142,-256c0,0,-19,0,-30,2c0,0,-11,2,-16,6c0,0,-5,4,-4,10c0,0,0,6,4,15c0,0,69,151,104,308c0,0,35,158,35,318c0,0,0,160,-35,318c0,0,-35,157,-106,307c0,0,-3,7,-2,13c0,0,1,6,7,10c0,0,6,3,16,6c0,0,11,2,28,2c0,0,16,0,26,-1c0,0,10,-1,17,-4c0,0,6,-2,9,-4c0,0,3,-2,5,-5c0,0,76,-153,120,-315c0,0,44,-161,44,-329c0,0,0,-84,-11,-167c0,0,-10,-82,-31,-163c0,0,-21,-79,-51,-157c0,0,-30,-78,-71,-154c0,0,-2,-4,-6,-7c0,0,-5,-3,-12,-5c0,0,-7,-3,-17,-3c0,0,-9,-1,-23,-1Z"
id="f1_ow"
transform="scale(0.001,-0.001)"/>

<path d="M79,326c0,0,-14,0,-20,11c0,0,-7,12,-7,40c0,0,0,29,7,40c0,0,6,11,20,11H390c0,0,6,0,11,-2c0,0,5,-2,8,-9c0,0,4,-6,6,-16c0,0,2,-9,2,-24c0,0,0,-29,-7,-40c0,0,-7,-11,-20,-11Z"
id="f1_oj"
transform="scale(0.001,-0.001)"/>

<path d="M69,661c0,0,-12,0,-21,1c0,0,-8,1,-12,4c0,0,-4,2,-4,7c0,0,-1,4,2,11L134,889v95c0,0,0,19,4,31c0,0,4,12,13,19c0,0,9,7,22,9c0,0,13,2,33,2c0,0,19,0,32,-2c0,0,13,-2,22,-9c0,0,9,-7,13,-19c0,0,4,-12,4,-31c0,0,0,-23,-2,-42c0,0,-3,-19,-8,-37c0,0,-5,-17,-14,-34c0,0,-8,-17,-21,-35L130,683c0,0,-4,-6,-9,-10c0,0,-5,-5,-12,-7c0,0,-7,-3,-16,-4c0,0,-9,-1,-24,-1Z"
id="f1_nw"
transform="scale(0.001,-0.001)"/>

<path d="M398,-4c0,0,-25,0,-41,2c0,0,-17,1,-27,3c0,0,-11,4,-16,10c0,0,-6,6,-8,17L51,920c0,0,-5,17,-5,27c0,0,0,10,6,15c0,0,6,5,20,6c0,0,15,2,38,2c0,0,24,0,37,-1c0,0,13,-1,20,-4c0,0,8,-3,10,-8c0,0,3,-6,4,-14L398,134h1L605,942c0,0,2,8,6,13c0,0,3,6,10,9c0,0,8,3,22,4c0,0,13,2,36,2c0,0,21,0,33,-2c0,0,12,-1,20,-4c0,0,7,-3,11,-9c0,0,3,-5,5,-13L970,134h1l213,808c0,0,2,8,4,13c0,0,3,6,10,9c0,0,7,3,20,4c0,0,13,2,35,2c0,0,22,0,35,-2c0,0,13,-2,19,-7c0,0,6,-5,6,-15c0,0,-1,-10,-5,-27L1053,28c0,0,-3,-11,-9,-17c0,0,-6,-6,-17,-10c0,0,-10,-2,-26,-3c0,0,-15,-2,-37,-2c0,0,-23,0,-39,2c0,0,-16,1,-27,3c0,0,-10,4,-15,10c0,0,-6,6,-9,17L672,757h-1L484,28c0,0,-2,-11,-7,-17c0,0,-6,-6,-15,-10c0,0,-10,-2,-25,-3c0,0,-16,-2,-39,-2Z"
id="f1_39"
transform="scale(0.001,-0.001)"/>

<path d="M192,-4c0,0,-18,0,-30,2c0,0,-13,2,-20,3c0,0,-8,3,-11,8c0,0,-3,5,-3,10V913c0,0,0,29,15,40c0,0,16,12,33,12H610c0,0,5,0,10,-3c0,0,5,-3,9,-10c0,0,4,-6,5,-17c0,0,2,-11,2,-25c0,0,0,-14,-2,-24c0,0,-1,-11,-5,-17c0,0,-4,-7,-9,-9c0,0,-5,-3,-10,-3H256V528H591c0,0,5,0,10,-3c0,0,5,-2,8,-8c0,0,4,-6,6,-16c0,0,1,-10,1,-26c0,0,0,-14,-1,-24c0,0,-2,-10,-6,-17c0,0,-3,-6,-8,-9c0,0,-5,-4,-10,-4H256V19c0,0,0,-5,-3,-10c0,0,-3,-5,-10,-8c0,0,-7,-1,-19,-3c0,0,-12,-2,-32,-2Z"
id="f1_13"
transform="scale(0.001,-0.001)"/>

<path d="M161,0c0,0,-5,0,-10,3c0,0,-4,2,-8,8c0,0,-5,6,-7,16c0,0,-2,9,-2,24c0,0,0,13,2,23c0,0,2,9,6,16c0,0,3,6,8,9c0,0,5,4,11,4H362V837L176,726c0,0,-15,-8,-23,-9c0,0,-1,-1,-3,-1c-3,0,-8,1,-11,4c0,0,-5,5,-7,16c0,0,-2,11,-2,28c0,0,0,13,1,22c0,0,1,9,4,15c0,0,2,6,6,10c0,0,4,5,11,9L374,963c0,0,3,2,7,4c0,0,5,1,11,3c0,0,7,1,16,2c0,0,9,0,22,0c0,0,18,0,30,-2c0,0,12,-1,19,-4c0,0,7,-2,9,-6c0,0,2,-5,2,-9V103H665c0,0,6,0,11,-4c0,0,5,-3,8,-9c0,0,4,-7,6,-16c0,0,2,-10,2,-23c0,0,0,-15,-3,-24c0,0,-2,-10,-6,-16c0,0,-3,-6,-8,-8c0,0,-5,-3,-10,-3Z"
id="f1_ry"
transform="scale(0.001,-0.001)"/>

<path d="M128,0c0,0,-11,0,-19,3c0,0,-8,2,-13,8c0,0,-6,6,-8,17c0,0,-3,11,-3,28c0,0,0,15,1,26c0,0,1,11,5,20c0,0,4,8,9,17c0,0,6,8,15,18L302,336c0,0,65,68,104,123c0,0,39,54,61,99c0,0,21,45,28,81c0,0,6,37,6,69c0,0,0,32,-10,61c0,0,-11,29,-30,50c0,0,-20,22,-50,35c0,0,-30,12,-69,12c0,0,-45,0,-81,-12c0,0,-37,-13,-64,-28c0,0,-27,-15,-45,-27c0,0,-19,-13,-28,-13c0,0,-5,0,-9,3c0,0,-4,3,-7,10c0,0,-2,6,-4,18c0,0,-1,11,-1,26c0,0,0,12,0,20c0,0,1,8,3,14c0,0,2,6,5,11c0,0,3,5,12,13c0,0,9,8,31,21c0,0,22,14,55,27c0,0,33,13,73,22c0,0,40,9,84,9c0,0,70,0,123,-20c0,0,53,-20,87,-54c0,0,35,-34,52,-80c0,0,17,-46,17,-97c0,0,0,-46,-8,-92c0,0,-8,-46,-35,-99c0,0,-26,-54,-76,-119c0,0,-50,-65,-133,-151L240,109H660c0,0,6,0,12,-4c0,0,5,-3,9,-10c0,0,5,-7,6,-17c0,0,2,-10,2,-23c0,0,0,-13,-2,-24c0,0,-1,-10,-5,-17c0,0,-3,-7,-9,-11c0,0,-5,-3,-12,-3Z"
id="f1_rz"
transform="scale(0.001,-0.001)"/>

<path d="M604,356L436,837h-1L269,356ZM87,-4c0,0,-22,0,-36,2C51,-2,37,0,32,4c0,0,-6,5,-6,15c0,0,1,10,7,27L357,943c0,0,3,8,7,13c0,0,5,6,15,9c0,0,9,3,23,4c0,0,15,1,37,1c0,0,24,0,40,-1c0,0,16,-1,25,-4c0,0,10,-3,15,-9c0,0,5,-5,8,-14L851,45c0,0,6,-16,7,-26c0,0,0,-10,-6,-16c0,0,-6,-4,-20,-5c0,0,-14,-2,-37,-2c0,0,-23,0,-37,1c0,0,-14,1,-21,3c0,0,-7,3,-10,7c0,0,-3,5,-6,11L638,253H236L157,21c0,0,-2,-6,-6,-11c0,0,-3,-5,-10,-9c0,0,-7,-2,-21,-3c0,0,-13,-2,-33,-2Z"
id="f1_5"
transform="scale(0.001,-0.001)"/>

<path d="M343,-13c0,0,-49,0,-91,8c0,0,-42,7,-75,18c0,0,-33,11,-54,22c0,0,-22,12,-27,17c0,0,-6,5,-9,10c0,0,-3,5,-5,13c0,0,-3,7,-4,18c0,0,-1,11,-1,27c0,0,0,26,5,37c0,0,6,10,15,10c0,0,7,0,27,-12c0,0,20,-12,51,-25c0,0,31,-14,72,-26c0,0,41,-12,92,-12c0,0,49,0,87,13c0,0,37,12,62,35c0,0,26,24,39,55c0,0,12,32,12,69c0,0,0,41,-16,74c0,0,-16,33,-47,57c0,0,-31,24,-76,36c0,0,-45,13,-103,13H206c0,0,-6,0,-12,3c0,0,-6,2,-10,8c0,0,-4,6,-6,16c0,0,-3,10,-3,25c0,0,0,14,2,24c0,0,2,9,7,15c0,0,4,5,9,8c0,0,5,3,12,3h84c0,0,49,0,89,12c0,0,39,13,66,37c0,0,27,24,42,57c0,0,14,33,14,74c0,0,0,30,-9,57c0,0,-10,28,-30,48c0,0,-19,20,-49,32c0,0,-31,11,-70,11c0,0,-43,0,-80,-13c0,0,-36,-13,-64,-28c0,0,-29,-15,-47,-28c0,0,-19,-13,-26,-13c0,0,-6,0,-10,2c0,0,-4,2,-6,7c0,0,-3,6,-4,16c0,0,-1,10,-1,26c0,0,0,12,0,20c0,0,1,9,3,15c0,0,3,6,6,12c0,0,3,5,10,12c0,0,7,7,28,20c0,0,22,14,54,27c0,0,32,13,73,22c0,0,41,9,89,9c0,0,67,0,118,-17c0,0,51,-18,85,-49c0,0,34,-31,51,-75c0,0,17,-44,17,-97c0,0,0,-45,-12,-84c0,0,-12,-39,-35,-70c0,0,-24,-30,-57,-51c0,0,-34,-21,-78,-30v-1c0,0,50,-5,92,-25c0,0,41,-20,71,-50c0,0,30,-29,47,-69c0,0,16,-40,16,-86c0,0,0,-66,-23,-119c0,0,-23,-54,-66,-92C593,65,550,27,486,7c0,0,-63,-20,-143,-20Z"
id="f1_s0"
transform="scale(0.001,-0.001)"/>

<path d="M189,-238c0,0,-8,0,-17,3c0,0,-8,3,-15,9c0,0,-6,6,-10,16c0,0,-5,10,-5,25V991c0,0,0,14,5,24c0,0,4,10,10,17c0,0,7,6,15,9c0,0,9,2,17,2H380c0,0,5,0,9,-2c0,0,4,-2,7,-8c0,0,3,-6,5,-15c0,0,1,-8,1,-21c0,0,0,-24,-6,-34c0,0,-5,-11,-16,-11H259V-148H380c0,0,5,0,9,-2c0,0,4,-2,7,-8c0,0,3,-5,5,-14c0,0,1,-8,1,-21c0,0,0,-25,-6,-35c0,0,-5,-10,-16,-10Z"
id="f1_ox"
transform="scale(0.001,-0.001)"/>

<path d="M469,327V857h-2L153,327ZM530,-4c0,0,-18,0,-30,2c0,0,-12,1,-19,3c0,0,-7,3,-9,7c0,0,-3,4,-3,10V221H71c0,0,-9,0,-15,2c0,0,-6,2,-11,8c0,0,-5,6,-7,17c0,0,-2,12,-2,30c0,0,0,14,1,25c0,0,1,11,3,20c0,0,2,10,6,18c0,0,4,9,9,18L403,947c0,0,3,6,10,10c0,0,7,5,19,8c0,0,11,3,27,4c0,0,17,1,39,1c0,0,25,0,43,-2c0,0,18,-2,29,-5c0,0,12,-3,18,-8c0,0,6,-4,6,-11V327H702c0,0,13,0,21,-13c0,0,8,-13,8,-40c0,0,0,-25,-8,-39c0,0,-7,-14,-21,-14H594V18c0,0,0,-6,-3,-10c0,0,-3,-4,-11,-7c0,0,-7,-2,-19,-3c0,0,-12,-2,-31,-2Z"
id="f1_s1"
transform="scale(0.001,-0.001)"/>

<path d="M89,-238c0,0,-11,0,-16,10c0,0,-6,10,-6,35c0,0,0,13,1,21c0,0,1,9,4,14c0,0,3,6,7,8c0,0,5,2,10,2H210V952H89c0,0,-11,0,-16,11c0,0,-6,10,-6,34c0,0,0,13,1,21c0,0,1,9,4,15c0,0,3,6,7,8c0,0,5,2,10,2H279c0,0,9,0,18,-2c0,0,8,-3,15,-9c0,0,7,-7,11,-17c0,0,4,-10,4,-24V-185c0,0,0,-15,-4,-25c0,0,-4,-10,-11,-16c0,0,-7,-6,-15,-9c0,0,-9,-3,-18,-3Z"
id="f1_oy"
transform="scale(0.001,-0.001)"/>

</defs>
<g fill="#000000"  clip-path="url(#c0_4)">
<use xlink:href="#f1_nq" transform="matrix(12,0,0,12,194.8,151.5)"/>
<use xlink:href="#f1_3f" transform="matrix(12,0,0,12,174.2,185.2)"/>
<use xlink:href="#f1_am" transform="matrix(12,0,0,12,181.9,185.2)"/>
<use xlink:href="#f1_c6" transform="matrix(12,0,0,12,191.5,185.2)"/>
<use xlink:href="#f1_7l" transform="matrix(12,0,0,12,205,185.2)"/>
<use xlink:href="#f1_77" transform="matrix(12,0,0,12,212.7,185.2)"/>
<use xlink:href="#f1_af" transform="matrix(12,0,0,12,221.5,185.2)"/>
<use xlink:href="#f1_b5" transform="matrix(12,0,0,12,235.1,185.2)"/>
<use xlink:href="#f1_a5" transform="matrix(12,0,0,12,242.4,185.2)"/>
<use xlink:href="#f1_9q" transform="matrix(12,0,0,12,250.8,185.2)"/>
<use xlink:href="#f1_ay" transform="matrix(12,0,0,12,254.9,185.2)"/>
<use xlink:href="#f1_bf" transform="matrix(12,0,0,12,268.4,185.2)"/>
<use xlink:href="#f1_9n" transform="matrix(12,0,0,12,274.7,185.2)"/>
<use xlink:href="#f1_7z" transform="matrix(12,0,0,12,284.2,185.2)"/>
<use xlink:href="#f1_89" transform="matrix(12,0,0,12,297.7,185.2)"/>
<use xlink:href="#f1_am" transform="matrix(12,0,0,12,302.9,185.2)"/>
<use xlink:href="#f1_a8" transform="matrix(12,0,0,12,312.4,185.2)"/>
<use xlink:href="#f1_a8" transform="matrix(12,0,0,12,316.8,185.2)"/>
<use xlink:href="#f1_am" transform="matrix(12,0,0,12,320.8,185.2)"/>
<use xlink:href="#f1_ci" transform="matrix(12,0,0,12,330.4,185.2)"/>
<use xlink:href="#f1_9q" transform="matrix(12,0,0,12,343.5,185.2)"/>
<use xlink:href="#f1_af" transform="matrix(12,0,0,12,347.6,185.2)"/>
<use xlink:href="#f1_9d" transform="matrix(12,0,0,12,357.1,185.2)"/>
<use xlink:href="#f1_b5" transform="matrix(12,0,0,12,369.9,185.2)"/>
<use xlink:href="#f1_7z" transform="matrix(12,0,0,12,377.2,185.2)"/>
<use xlink:href="#f1_7l" transform="matrix(12,0,0,12,386.4,185.2)"/>
<use xlink:href="#f1_bf" transform="matrix(12,0,0,12,394.1,185.2)"/>
<use xlink:href="#f1_9q" transform="matrix(12,0,0,12,400.3,185.2)"/>
<use xlink:href="#f1_am" transform="matrix(12,0,0,12,404.3,185.2)"/>
<use xlink:href="#f1_af" transform="matrix(12,0,0,12,414.2,185.2)"/>
<use xlink:href="#f1_7z" transform="matrix(12,0,0,12,427.8,185.2)"/>
<use xlink:href="#f1_cn" transform="matrix(12,0,0,12,436.6,185.2)"/>
<use xlink:href="#f1_7l" transform="matrix(12,0,0,12,444.3,185.2)"/>
<use xlink:href="#f1_7z" transform="matrix(12,0,0,12,452,185.2)"/>
<use xlink:href="#f1_ay" transform="matrix(12,0,0,12,461.1,185.2)"/>
<use xlink:href="#f1_bf" transform="matrix(12,0,0,12,470.7,185.2)"/>
<use xlink:href="#f1_co" transform="matrix(12,0,0,12,480.9,185.2)"/>
<use xlink:href="#f1_am" transform="matrix(12,0,0,12,489,185.2)"/>
<use xlink:href="#f1_c6" transform="matrix(12,0,0,12,498.5,185.2)"/>
<use xlink:href="#f1_ci" transform="matrix(12,0,0,12,512.5,185.2)"/>
<use xlink:href="#f1_77" transform="matrix(12,0,0,12,525.3,185.2)"/>
<use xlink:href="#f1_af" transform="matrix(12,0,0,12,534.1,185.2)"/>
<use xlink:href="#f1_bf" transform="matrix(12,0,0,12,544,185.2)"/>
<use xlink:href="#f1_bf" transform="matrix(12,0,0,12,554.2,185.2)"/>
<use xlink:href="#f1_am" transform="matrix(12,0,0,12,560.1,185.2)"/>
<use xlink:href="#f1_a5" transform="matrix(12,0,0,12,573.7,185.2)"/>
<use xlink:href="#f1_af" transform="matrix(12,0,0,12,582.1,185.2)"/>
<use xlink:href="#f1_am" transform="matrix(12,0,0,12,591.6,185.2)"/>
<use xlink:href="#f1_ci" transform="matrix(12,0,0,12,601.1,185.2)"/>
<use xlink:href="#f1_9n" transform="matrix(12,0,0,12,618.3,185.2)"/>
<use xlink:href="#f1_am" transform="matrix(12,0,0,12,628.2,185.2)"/>
<use xlink:href="#f1_ci" transform="matrix(12,0,0,12,637.8,185.2)"/>
<use xlink:href="#f1_77" transform="matrix(12,0,0,12,655,185.2)"/>
<use xlink:href="#f1_7v" transform="matrix(12,0,0,12,667.8,185.2)"/>
<use xlink:href="#f1_7z" transform="matrix(12,0,0,12,677.3,185.2)"/>
<use xlink:href="#f1_7z" transform="matrix(12,0,0,12,686.5,185.2)"/>
<use xlink:href="#f1_ay" transform="matrix(12,0,0,12,695.7,185.2)"/>
<use xlink:href="#f1_a8" transform="matrix(12,0,0,12,710.2,185.2)"/>
<use xlink:href="#f1_7z" transform="matrix(12,0,0,12,714.2,185.2)"/>
<use xlink:href="#f1_77" transform="matrix(12,0,0,12,723.3,185.2)"/>
<use xlink:href="#f1_b1" transform="matrix(12,0,0,12,732.1,185.2)"/>
<use xlink:href="#f1_af" transform="matrix(12,0,0,12,738.4,185.2)"/>
<use xlink:href="#f1_9q" transform="matrix(12,0,0,12,748.3,185.2)"/>
<use xlink:href="#f1_af" transform="matrix(12,0,0,12,752.3,185.2)"/>
<use xlink:href="#f1_9d" transform="matrix(12,0,0,12,761.8,185.2)"/>
<use xlink:href="#f1_af" transform="matrix(12,0,0,12,137.6,212.7)"/>
<use xlink:href="#f1_7z" transform="matrix(12,0,0,12,147.1,212.7)"/>
<use xlink:href="#f1_bf" transform="matrix(12,0,0,12,156.2,212.7)"/>
<use xlink:href="#f1_ci" transform="matrix(12,0,0,12,162.5,212.7)"/>
<use xlink:href="#f1_am" transform="matrix(12,0,0,12,175.3,212.7)"/>
<use xlink:href="#f1_b1" transform="matrix(12,0,0,12,184.9,212.7)"/>
<use xlink:href="#f1_a5" transform="matrix(12,0,0,12,191.1,212.7)"/>
<use xlink:href="#f1_7l" transform="matrix(12,0,0,12,203.5,212.7)"/>
<use xlink:href="#f1_77" transform="matrix(12,0,0,12,211.2,212.7)"/>
<use xlink:href="#f1_af" transform="matrix(12,0,0,12,220,212.7)"/>
<use xlink:href="#f1_7k" transform="matrix(12,0,0,12,233.6,212.7)"/>
<use xlink:href="#f1_7z" transform="matrix(12,0,0,12,243.1,212.7)"/>
<use xlink:href="#f1_ay" transform="matrix(12,0,0,12,256.7,212.7)"/>
<use xlink:href="#f1_b1" transform="matrix(12,0,0,12,266.2,212.7)"/>
<use xlink:href="#f1_7z" transform="matrix(12,0,0,12,272.5,212.7)"/>
<use xlink:href="#f1_7l" transform="matrix(12,0,0,12,281.6,212.7)"/>
<use xlink:href="#f1_9q" transform="matrix(12,0,0,12,289.3,212.7)"/>
<use xlink:href="#f1_b5" transform="matrix(12,0,0,12,293.4,212.7)"/>
<use xlink:href="#f1_7z" transform="matrix(12,0,0,12,300.7,212.7)"/>
<use xlink:href="#f1_a8" transform="matrix(12,0,0,12,309.8,212.7)"/>
<use xlink:href="#f1_co" transform="matrix(12,0,0,12,313.9,212.7)"/>
<use xlink:href="#f1_7v" transform="matrix(12,0,0,12,326.3,212.7)"/>
<use xlink:href="#f1_7z" transform="matrix(12,0,0,12,335.8,212.7)"/>
<use xlink:href="#f1_b5" transform="matrix(12,0,0,12,345,212.7)"/>
<use xlink:href="#f1_7l" transform="matrix(12,0,0,12,352.3,212.7)"/>
<use xlink:href="#f1_b1" transform="matrix(12,0,0,12,360,212.7)"/>
<use xlink:href="#f1_9q" transform="matrix(12,0,0,12,366.3,212.7)"/>
<use xlink:href="#f1_7k" transform="matrix(12,0,0,12,370.6,212.7)"/>
<use xlink:href="#f1_7z" transform="matrix(12,0,0,12,380.2,212.7)"/>
<use xlink:href="#f1_7v" transform="matrix(12,0,0,12,389.3,212.7)"/>
<use xlink:href="#f1_ae" transform="matrix(12,0,0,12,402.9,212.7)"/>
<use xlink:href="#f1_77" transform="matrix(12,0,0,12,417.9,212.7)"/>
<use xlink:href="#f1_bf" transform="matrix(12,0,0,12,426.4,212.7)"/>
<use xlink:href="#f1_9n" transform="matrix(12,0,0,12,432.6,212.7)"/>
<use xlink:href="#f1_7z" transform="matrix(12,0,0,12,442.1,212.7)"/>
<use xlink:href="#f1_ae" transform="matrix(12,0,0,12,451.2,212.7)"/>
<use xlink:href="#f1_77" transform="matrix(12,0,0,12,465.9,212.7)"/>
<use xlink:href="#f1_bf" transform="matrix(12,0,0,12,474.4,212.7)"/>
<use xlink:href="#f1_9q" transform="matrix(12,0,0,12,480.6,212.7)"/>
<use xlink:href="#f1_7l" transform="matrix(12,0,0,12,484.6,212.7)"/>
<use xlink:href="#f1_77" transform="matrix(12,0,0,12,492.3,212.7)"/>
<use xlink:href="#f1_a8" transform="matrix(12,0,0,12,501.1,212.7)"/>
<use xlink:href="#f1_a8" transform="matrix(12,0,0,12,505.5,212.7)"/>
<use xlink:href="#f1_co" transform="matrix(12,0,0,12,509.9,212.7)"/>
<use xlink:href="#f1_nt" transform="matrix(12,0,0,12,516.9,212.7)"/>
<use xlink:href="#f1_2t" transform="matrix(12,0,0,12,192.6,267.7)"/>
<use xlink:href="#f1_9n" transform="matrix(12,0,0,12,201.4,267.7)"/>
<use xlink:href="#f1_7z" transform="matrix(12,0,0,12,210.9,267.7)"/>
<use xlink:href="#f1_ay" transform="matrix(12,0,0,12,224.1,267.7)"/>
<use xlink:href="#f1_77" transform="matrix(12,0,0,12,233.6,267.7)"/>
<use xlink:href="#f1_b1" transform="matrix(12,0,0,12,242.4,267.7)"/>
<use xlink:href="#f1_77" transform="matrix(12,0,0,12,248.3,267.7)"/>
<use xlink:href="#f1_a8" transform="matrix(12,0,0,12,257.5,267.7)"/>
<use xlink:href="#f1_a8" transform="matrix(12,0,0,12,261.5,267.7)"/>
<use xlink:href="#f1_7z" transform="matrix(12,0,0,12,265.5,267.7)"/>
<use xlink:href="#f1_a8" transform="matrix(12,0,0,12,275,267.7)"/>
<use xlink:href="#f1_7l" transform="matrix(12,0,0,12,283.1,267.7)"/>
<use xlink:href="#f1_77" transform="matrix(12,0,0,12,290.8,267.7)"/>
<use xlink:href="#f1_b5" transform="matrix(12,0,0,12,299.6,267.7)"/>
<use xlink:href="#f1_7l" transform="matrix(12,0,0,12,306.9,267.7)"/>
<use xlink:href="#f1_77" transform="matrix(12,0,0,12,314.6,267.7)"/>
<use xlink:href="#f1_7v" transform="matrix(12,0,0,12,323.4,267.7)"/>
<use xlink:href="#f1_7z" transform="matrix(12,0,0,12,333,267.7)"/>
<use xlink:href="#f1_7v" transform="matrix(12,0,0,12,342.1,267.7)"/>
<use xlink:href="#f1_c6" transform="matrix(12,0,0,12,355.7,267.7)"/>
<use xlink:href="#f1_af" transform="matrix(12,0,0,12,365.2,267.7)"/>
<use xlink:href="#f1_9q" transform="matrix(12,0,0,12,375.1,267.7)"/>
<use xlink:href="#f1_bf" transform="matrix(12,0,0,12,379.1,267.7)"/>
<use xlink:href="#f1_b5" transform="matrix(12,0,0,12,385.4,267.7)"/>
<use xlink:href="#f1_ci" transform="matrix(12,0,0,12,396.7,267.7)"/>
<use xlink:href="#f1_9q" transform="matrix(12,0,0,12,409.9,267.7)"/>
<use xlink:href="#f1_a8" transform="matrix(12,0,0,12,413.9,267.7)"/>
<use xlink:href="#f1_a8" transform="matrix(12,0,0,12,417.9,267.7)"/>
<use xlink:href="#f1_7v" transform="matrix(12,0,0,12,426.4,267.7)"/>
<use xlink:href="#f1_9q" transform="matrix(12,0,0,12,435.9,267.7)"/>
<use xlink:href="#f1_7l" transform="matrix(12,0,0,12,439.9,267.7)"/>
<use xlink:href="#f1_9n" transform="matrix(12,0,0,12,448,267.7)"/>
<use xlink:href="#f1_am" transform="matrix(12,0,0,12,457.5,267.7)"/>
<use xlink:href="#f1_bf" transform="matrix(12,0,0,12,467,267.7)"/>
<use xlink:href="#f1_am" transform="matrix(12,0,0,12,473.3,267.7)"/>
<use xlink:href="#f1_ae" transform="matrix(12,0,0,12,482.8,267.7)"/>
<use xlink:href="#f1_9q" transform="matrix(12,0,0,12,497.4,267.7)"/>
<use xlink:href="#f1_ct" transform="matrix(12,0,0,12,501.5,267.7)"/>
<use xlink:href="#f1_7z" transform="matrix(12,0,0,12,508.5,267.7)"/>
<use xlink:href="#f1_ov" transform="matrix(12,0,0,12,521.7,267.7)"/>
<use xlink:href="#f1_7v" transform="matrix(12,0,0,12,527.2,267.7)"/>
<use xlink:href="#f1_9q" transform="matrix(12,0,0,12,537,267.7)"/>
<use xlink:href="#f1_ch" transform="matrix(12,0,0,12,541.1,267.7)"/>
<use xlink:href="#f1_9q" transform="matrix(12,0,0,12,549.5,267.7)"/>
<use xlink:href="#f1_7v" transform="matrix(12,0,0,12,553.5,267.7)"/>
<use xlink:href="#f1_7z" transform="matrix(12,0,0,12,563.4,267.7)"/>
<use xlink:href="#f1_9q" transform="matrix(12,0,0,12,577,267.7)"/>
<use xlink:href="#f1_af" transform="matrix(12,0,0,12,581.1,267.7)"/>
<use xlink:href="#f1_bf" transform="matrix(12,0,0,12,590.6,267.7)"/>
<use xlink:href="#f1_am" transform="matrix(12,0,0,12,596.5,267.7)"/>
<use xlink:href="#f1_bf" transform="matrix(12,0,0,12,610,267.7)"/>
<use xlink:href="#f1_ci" transform="matrix(12,0,0,12,616.2,267.7)"/>
<use xlink:href="#f1_am" transform="matrix(12,0,0,12,629.4,267.7)"/>
<use xlink:href="#f1_ay" transform="matrix(12,0,0,12,643,267.7)"/>
<use xlink:href="#f1_77" transform="matrix(12,0,0,12,652.5,267.7)"/>
<use xlink:href="#f1_b1" transform="matrix(12,0,0,12,661.7,267.7)"/>
<use xlink:href="#f1_bf" transform="matrix(12,0,0,12,667.9,267.7)"/>
<use xlink:href="#f1_b5" transform="matrix(12,0,0,12,674.1,267.7)"/>
<use xlink:href="#f1_ow" transform="matrix(12,0,0,12,681.4,267.7)"/>
<use xlink:href="#f1_9q" transform="matrix(12,0,0,12,691,267.7)"/>
<use xlink:href="#f1_af" transform="matrix(12,0,0,12,695,267.7)"/>
<use xlink:href="#f1_ay" transform="matrix(12,0,0,12,704.5,267.7)"/>
<use xlink:href="#f1_c6" transform="matrix(12,0,0,12,714.4,267.7)"/>
<use xlink:href="#f1_bf" transform="matrix(12,0,0,12,723.9,267.7)"/>
<use xlink:href="#f1_b5" transform="matrix(12,0,0,12,137.6,295.2)"/>
<use xlink:href="#f1_ay" transform="matrix(12,0,0,12,144.9,295.2)"/>
<use xlink:href="#f1_77" transform="matrix(12,0,0,12,154.4,295.2)"/>
<use xlink:href="#f1_7l" transform="matrix(12,0,0,12,163.2,295.2)"/>
<use xlink:href="#f1_7z" transform="matrix(12,0,0,12,171,295.2)"/>
<use xlink:href="#f1_7v" transform="matrix(12,0,0,12,184.1,295.2)"/>
<use xlink:href="#f1_9q" transform="matrix(12,0,0,12,193.7,295.2)"/>
<use xlink:href="#f1_89" transform="matrix(12,0,0,12,197.7,295.2)"/>
<use xlink:href="#f1_89" transform="matrix(12,0,0,12,203.2,295.2)"/>
<use xlink:href="#f1_7z" transform="matrix(12,0,0,12,208.3,295.2)"/>
<use xlink:href="#f1_b1" transform="matrix(12,0,0,12,217.5,295.2)"/>
<use xlink:href="#f1_7z" transform="matrix(12,0,0,12,223.7,295.2)"/>
<use xlink:href="#f1_af" transform="matrix(12,0,0,12,232.9,295.2)"/>
<use xlink:href="#f1_bf" transform="matrix(12,0,0,12,242.4,295.2)"/>
<use xlink:href="#f1_a8" transform="matrix(12,0,0,12,248.6,295.2)"/>
<use xlink:href="#f1_co" transform="matrix(12,0,0,12,252.7,295.2)"/>
<use xlink:href="#f1_nt" transform="matrix(12,0,0,12,259.7,295.2)"/>
<use xlink:href="#f1_2t" transform="matrix(12,0,0,12,268.5,295.2)"/>
<use xlink:href="#f1_9n" transform="matrix(12,0,0,12,277.3,295.2)"/>
<use xlink:href="#f1_7z" transform="matrix(12,0,0,12,286.8,295.2)"/>
<use xlink:href="#f1_b5" transform="matrix(12,0,0,12,300,295.2)"/>
<use xlink:href="#f1_7z" transform="matrix(12,0,0,12,307.3,295.2)"/>
<use xlink:href="#f1_b1" transform="matrix(12,0,0,12,316.5,295.2)"/>
<use xlink:href="#f1_9q" transform="matrix(12,0,0,12,323.1,295.2)"/>
<use xlink:href="#f1_77" transform="matrix(12,0,0,12,327.1,295.2)"/>
<use xlink:href="#f1_a8" transform="matrix(12,0,0,12,335.9,295.2)"/>
<use xlink:href="#f1_7l" transform="matrix(12,0,0,12,344,295.2)"/>
<use xlink:href="#f1_77" transform="matrix(12,0,0,12,351.7,295.2)"/>
<use xlink:href="#f1_b5" transform="matrix(12,0,0,12,360.5,295.2)"/>
<use xlink:href="#f1_7l" transform="matrix(12,0,0,12,367.8,295.2)"/>
<use xlink:href="#f1_77" transform="matrix(12,0,0,12,375.5,295.2)"/>
<use xlink:href="#f1_7v" transform="matrix(12,0,0,12,384.3,295.2)"/>
<use xlink:href="#f1_7z" transform="matrix(12,0,0,12,393.8,295.2)"/>
<use xlink:href="#f1_7v" transform="matrix(12,0,0,12,403,295.2)"/>
<use xlink:href="#f1_a8" transform="matrix(12,0,0,12,416.6,295.2)"/>
<use xlink:href="#f1_77" transform="matrix(12,0,0,12,420.6,295.2)"/>
<use xlink:href="#f1_co" transform="matrix(12,0,0,12,429,295.2)"/>
<use xlink:href="#f1_7z" transform="matrix(12,0,0,12,437.1,295.2)"/>
<use xlink:href="#f1_b1" transform="matrix(12,0,0,12,446.2,295.2)"/>
<use xlink:href="#f1_b5" transform="matrix(12,0,0,12,452.5,295.2)"/>
<use xlink:href="#f1_ci" transform="matrix(12,0,0,12,463.8,295.2)"/>
<use xlink:href="#f1_9q" transform="matrix(12,0,0,12,477,295.2)"/>
<use xlink:href="#f1_a8" transform="matrix(12,0,0,12,481.1,295.2)"/>
<use xlink:href="#f1_a8" transform="matrix(12,0,0,12,485.4,295.2)"/>
<use xlink:href="#f1_ay" transform="matrix(12,0,0,12,493.5,295.2)"/>
<use xlink:href="#f1_9q" transform="matrix(12,0,0,12,503.4,295.2)"/>
<use xlink:href="#f1_7l" transform="matrix(12,0,0,12,507.8,295.2)"/>
<use xlink:href="#f1_a5" transform="matrix(12,0,0,12,515.5,295.2)"/>
<use xlink:href="#f1_oj" transform="matrix(12,0,0,12,523.4,295.2)"/>
<use xlink:href="#f1_c6" transform="matrix(12,0,0,12,528.9,295.2)"/>
<use xlink:href="#f1_ay" transform="matrix(12,0,0,12,538.5,295.2)"/>
<use xlink:href="#f1_ay" transform="matrix(12,0,0,12,552,295.2)"/>
<use xlink:href="#f1_b1" transform="matrix(12,0,0,12,561.6,295.2)"/>
<use xlink:href="#f1_7z" transform="matrix(12,0,0,12,567.8,295.2)"/>
<use xlink:href="#f1_ch" transform="matrix(12,0,0,12,576.9,295.2)"/>
<use xlink:href="#f1_9q" transform="matrix(12,0,0,12,585.4,295.2)"/>
<use xlink:href="#f1_am" transform="matrix(12,0,0,12,589.4,295.2)"/>
<use xlink:href="#f1_c6" transform="matrix(12,0,0,12,599,295.2)"/>
<use xlink:href="#f1_b5" transform="matrix(12,0,0,12,608.5,295.2)"/>
<use xlink:href="#f1_a8" transform="matrix(12,0,0,12,620.2,295.2)"/>
<use xlink:href="#f1_77" transform="matrix(12,0,0,12,624.2,295.2)"/>
<use xlink:href="#f1_co" transform="matrix(12,0,0,12,632.7,295.2)"/>
<use xlink:href="#f1_7z" transform="matrix(12,0,0,12,640.7,295.2)"/>
<use xlink:href="#f1_b1" transform="matrix(12,0,0,12,649.9,295.2)"/>
<use xlink:href="#f1_nw" transform="matrix(12,0,0,12,657.2,295.2)"/>
<use xlink:href="#f1_b5" transform="matrix(12,0,0,12,660.5,295.2)"/>
<use xlink:href="#f1_am" transform="matrix(12,0,0,12,671.9,295.2)"/>
<use xlink:href="#f1_c6" transform="matrix(12,0,0,12,681.4,295.2)"/>
<use xlink:href="#f1_bf" transform="matrix(12,0,0,12,690.9,295.2)"/>
<use xlink:href="#f1_ay" transform="matrix(12,0,0,12,697.1,295.2)"/>
<use xlink:href="#f1_c6" transform="matrix(12,0,0,12,707,295.2)"/>
<use xlink:href="#f1_bf" transform="matrix(12,0,0,12,716.6,295.2)"/>
<use xlink:href="#f1_b5" transform="matrix(12,0,0,12,722.8,295.2)"/>
<use xlink:href="#f1_77" transform="matrix(12,0,0,12,734.1,295.2)"/>
<use xlink:href="#f1_af" transform="matrix(12,0,0,12,742.9,295.2)"/>
<use xlink:href="#f1_7v" transform="matrix(12,0,0,12,752.4,295.2)"/>
<use xlink:href="#f1_b1" transform="matrix(12,0,0,12,137.6,322.8)"/>
<use xlink:href="#f1_7z" transform="matrix(12,0,0,12,143.8,322.8)"/>
<use xlink:href="#f1_ay" transform="matrix(12,0,0,12,152.9,322.8)"/>
<use xlink:href="#f1_7z" transform="matrix(12,0,0,12,162.5,322.8)"/>
<use xlink:href="#f1_77" transform="matrix(12,0,0,12,171.6,322.8)"/>
<use xlink:href="#f1_bf" transform="matrix(12,0,0,12,180.1,322.8)"/>
<use xlink:href="#f1_bf" transform="matrix(12,0,0,12,190.4,322.8)"/>
<use xlink:href="#f1_9n" transform="matrix(12,0,0,12,196.6,322.8)"/>
<use xlink:href="#f1_7z" transform="matrix(12,0,0,12,206.1,322.8)"/>
<use xlink:href="#f1_7v" transform="matrix(12,0,0,12,219.3,322.8)"/>
<use xlink:href="#f1_9q" transform="matrix(12,0,0,12,228.8,322.8)"/>
<use xlink:href="#f1_7l" transform="matrix(12,0,0,12,232.9,322.8)"/>
<use xlink:href="#f1_9n" transform="matrix(12,0,0,12,240.9,322.8)"/>
<use xlink:href="#f1_am" transform="matrix(12,0,0,12,250.5,322.8)"/>
<use xlink:href="#f1_bf" transform="matrix(12,0,0,12,260,322.8)"/>
<use xlink:href="#f1_am" transform="matrix(12,0,0,12,266.2,322.8)"/>
<use xlink:href="#f1_ae" transform="matrix(12,0,0,12,275.7,322.8)"/>
<use xlink:href="#f1_co" transform="matrix(12,0,0,12,290,322.8)"/>
<use xlink:href="#f1_7v" transform="matrix(12,0,0,12,302.5,322.8)"/>
<use xlink:href="#f1_9q" transform="matrix(12,0,0,12,312,322.8)"/>
<use xlink:href="#f1_ch" transform="matrix(12,0,0,12,316,322.8)"/>
<use xlink:href="#f1_9q" transform="matrix(12,0,0,12,324.5,322.8)"/>
<use xlink:href="#f1_b5" transform="matrix(12,0,0,12,328.5,322.8)"/>
<use xlink:href="#f1_9q" transform="matrix(12,0,0,12,335.8,322.8)"/>
<use xlink:href="#f1_am" transform="matrix(12,0,0,12,340.2,322.8)"/>
<use xlink:href="#f1_af" transform="matrix(12,0,0,12,349.7,322.8)"/>
<use xlink:href="#f1_ay" transform="matrix(12,0,0,12,363.6,322.8)"/>
<use xlink:href="#f1_b1" transform="matrix(12,0,0,12,373.2,322.8)"/>
<use xlink:href="#f1_am" transform="matrix(12,0,0,12,379.4,322.8)"/>
<use xlink:href="#f1_7l" transform="matrix(12,0,0,12,388.9,322.8)"/>
<use xlink:href="#f1_7z" transform="matrix(12,0,0,12,396.6,322.8)"/>
<use xlink:href="#f1_b5" transform="matrix(12,0,0,12,405.8,322.8)"/>
<use xlink:href="#f1_b5" transform="matrix(12,0,0,12,413.1,322.8)"/>
<use xlink:href="#f1_77" transform="matrix(12,0,0,12,424.5,322.8)"/>
<use xlink:href="#f1_9d" transform="matrix(12,0,0,12,433.3,322.8)"/>
<use xlink:href="#f1_77" transform="matrix(12,0,0,12,441.7,322.8)"/>
<use xlink:href="#f1_9q" transform="matrix(12,0,0,12,450.5,322.8)"/>
<use xlink:href="#f1_af" transform="matrix(12,0,0,12,454.5,322.8)"/>
<use xlink:href="#f1_nt" transform="matrix(12,0,0,12,464.1,322.8)"/>
<use xlink:href="#f1_39" transform="matrix(12,0,0,12,472.9,322.8)"/>
<use xlink:href="#f1_9n" transform="matrix(12,0,0,12,489,322.8)"/>
<use xlink:href="#f1_7z" transform="matrix(12,0,0,12,498.5,322.8)"/>
<use xlink:href="#f1_af" transform="matrix(12,0,0,12,508,322.8)"/>
<use xlink:href="#f1_bf" transform="matrix(12,0,0,12,521.6,322.8)"/>
<use xlink:href="#f1_9n" transform="matrix(12,0,0,12,527.8,322.8)"/>
<use xlink:href="#f1_7z" transform="matrix(12,0,0,12,537.4,322.8)"/>
<use xlink:href="#f1_7k" transform="matrix(12,0,0,12,550.6,322.8)"/>
<use xlink:href="#f1_b1" transform="matrix(12,0,0,12,560.1,322.8)"/>
<use xlink:href="#f1_7z" transform="matrix(12,0,0,12,566.3,322.8)"/>
<use xlink:href="#f1_77" transform="matrix(12,0,0,12,575.4,322.8)"/>
<use xlink:href="#f1_bf" transform="matrix(12,0,0,12,583.9,322.8)"/>
<use xlink:href="#f1_9n" transform="matrix(12,0,0,12,590.1,322.8)"/>
<use xlink:href="#f1_am" transform="matrix(12,0,0,12,604,322.8)"/>
<use xlink:href="#f1_89" transform="matrix(12,0,0,12,613.6,322.8)"/>
<use xlink:href="#f1_ay" transform="matrix(12,0,0,12,623.5,322.8)"/>
<use xlink:href="#f1_77" transform="matrix(12,0,0,12,633,322.8)"/>
<use xlink:href="#f1_b1" transform="matrix(12,0,0,12,641.8,322.8)"/>
<use xlink:href="#f1_77" transform="matrix(12,0,0,12,647.7,322.8)"/>
<use xlink:href="#f1_a8" transform="matrix(12,0,0,12,656.4,322.8)"/>
<use xlink:href="#f1_a8" transform="matrix(12,0,0,12,660.8,322.8)"/>
<use xlink:href="#f1_7z" transform="matrix(12,0,0,12,664.9,322.8)"/>
<use xlink:href="#f1_a8" transform="matrix(12,0,0,12,674,322.8)"/>
<use xlink:href="#f1_7l" transform="matrix(12,0,0,12,682.5,322.8)"/>
<use xlink:href="#f1_77" transform="matrix(12,0,0,12,690.2,322.8)"/>
<use xlink:href="#f1_b5" transform="matrix(12,0,0,12,698.9,322.8)"/>
<use xlink:href="#f1_7l" transform="matrix(12,0,0,12,706.3,322.8)"/>
<use xlink:href="#f1_77" transform="matrix(12,0,0,12,714,322.8)"/>
<use xlink:href="#f1_7v" transform="matrix(12,0,0,12,722.8,322.8)"/>
<use xlink:href="#f1_7z" transform="matrix(12,0,0,12,732.3,322.8)"/>
<use xlink:href="#f1_77" transform="matrix(12,0,0,12,137.6,350.3)"/>
<use xlink:href="#f1_af" transform="matrix(12,0,0,12,146.4,350.3)"/>
<use xlink:href="#f1_7v" transform="matrix(12,0,0,12,155.9,350.3)"/>
<use xlink:href="#f1_7v" transform="matrix(12,0,0,12,169.5,350.3)"/>
<use xlink:href="#f1_7z" transform="matrix(12,0,0,12,179,350.3)"/>
<use xlink:href="#f1_ay" transform="matrix(12,0,0,12,188.1,350.3)"/>
<use xlink:href="#f1_bf" transform="matrix(12,0,0,12,197.7,350.3)"/>
<use xlink:href="#f1_9n" transform="matrix(12,0,0,12,203.9,350.3)"/>
<use xlink:href="#f1_am" transform="matrix(12,0,0,12,217.8,350.3)"/>
<use xlink:href="#f1_89" transform="matrix(12,0,0,12,227.4,350.3)"/>
<use xlink:href="#f1_b5" transform="matrix(12,0,0,12,236.9,350.3)"/>
<use xlink:href="#f1_7z" transform="matrix(12,0,0,12,244.2,350.3)"/>
<use xlink:href="#f1_b1" transform="matrix(12,0,0,12,253.3,350.3)"/>
<use xlink:href="#f1_9q" transform="matrix(12,0,0,12,260,350.3)"/>
<use xlink:href="#f1_77" transform="matrix(12,0,0,12,264,350.3)"/>
<use xlink:href="#f1_a8" transform="matrix(12,0,0,12,272.8,350.3)"/>
<use xlink:href="#f1_7l" transform="matrix(12,0,0,12,280.9,350.3)"/>
<use xlink:href="#f1_77" transform="matrix(12,0,0,12,288.6,350.3)"/>
<use xlink:href="#f1_b5" transform="matrix(12,0,0,12,297.3,350.3)"/>
<use xlink:href="#f1_7l" transform="matrix(12,0,0,12,304.7,350.3)"/>
<use xlink:href="#f1_77" transform="matrix(12,0,0,12,312.4,350.3)"/>
<use xlink:href="#f1_7v" transform="matrix(12,0,0,12,321.2,350.3)"/>
<use xlink:href="#f1_7z" transform="matrix(12,0,0,12,330.7,350.3)"/>
<use xlink:href="#f1_77" transform="matrix(12,0,0,12,343.9,350.3)"/>
<use xlink:href="#f1_b1" transform="matrix(12,0,0,12,352.7,350.3)"/>
<use xlink:href="#f1_7z" transform="matrix(12,0,0,12,358.9,350.3)"/>
<use xlink:href="#f1_7k" transform="matrix(12,0,0,12,372.1,350.3)"/>
<use xlink:href="#f1_9q" transform="matrix(12,0,0,12,381.7,350.3)"/>
<use xlink:href="#f1_9d" transform="matrix(12,0,0,12,385.7,350.3)"/>
<use xlink:href="#f1_7z" transform="matrix(12,0,0,12,398.5,350.3)"/>
<use xlink:href="#f1_af" transform="matrix(12,0,0,12,407.7,350.3)"/>
<use xlink:href="#f1_am" transform="matrix(12,0,0,12,417.6,350.3)"/>
<use xlink:href="#f1_c6" transform="matrix(12,0,0,12,427.1,350.3)"/>
<use xlink:href="#f1_9d" transform="matrix(12,0,0,12,436.6,350.3)"/>
<use xlink:href="#f1_9n" transform="matrix(12,0,0,12,445.4,350.3)"/>
<use xlink:href="#f1_bf" transform="matrix(12,0,0,12,459,350.3)"/>
<use xlink:href="#f1_am" transform="matrix(12,0,0,12,465.2,350.3)"/>
<use xlink:href="#f1_ae" transform="matrix(12,0,0,12,478.8,350.3)"/>
<use xlink:href="#f1_77" transform="matrix(12,0,0,12,493.4,350.3)"/>
<use xlink:href="#f1_bf" transform="matrix(12,0,0,12,501.9,350.3)"/>
<use xlink:href="#f1_7l" transform="matrix(12,0,0,12,508.1,350.3)"/>
<use xlink:href="#f1_9n" transform="matrix(12,0,0,12,515.8,350.3)"/>
<use xlink:href="#f1_bf" transform="matrix(12,0,0,12,529.4,350.3)"/>
<use xlink:href="#f1_9n" transform="matrix(12,0,0,12,535.6,350.3)"/>
<use xlink:href="#f1_7z" transform="matrix(12,0,0,12,545.1,350.3)"/>
<use xlink:href="#f1_7l" transform="matrix(12,0,0,12,558.3,350.3)"/>
<use xlink:href="#f1_am" transform="matrix(12,0,0,12,566,350.3)"/>
<use xlink:href="#f1_ae" transform="matrix(12,0,0,12,575.5,350.3)"/>
<use xlink:href="#f1_ay" transform="matrix(12,0,0,12,590.2,350.3)"/>
<use xlink:href="#f1_a8" transform="matrix(12,0,0,12,600.1,350.3)"/>
<use xlink:href="#f1_7z" transform="matrix(12,0,0,12,604.1,350.3)"/>
<use xlink:href="#f1_cn" transform="matrix(12,0,0,12,612.9,350.3)"/>
<use xlink:href="#f1_9q" transform="matrix(12,0,0,12,621,350.3)"/>
<use xlink:href="#f1_bf" transform="matrix(12,0,0,12,625,350.3)"/>
<use xlink:href="#f1_co" transform="matrix(12,0,0,12,631.2,350.3)"/>
<use xlink:href="#f1_am" transform="matrix(12,0,0,12,643.7,350.3)"/>
<use xlink:href="#f1_89" transform="matrix(12,0,0,12,653.2,350.3)"/>
<use xlink:href="#f1_bf" transform="matrix(12,0,0,12,662.7,350.3)"/>
<use xlink:href="#f1_9n" transform="matrix(12,0,0,12,669.3,350.3)"/>
<use xlink:href="#f1_7z" transform="matrix(12,0,0,12,678.8,350.3)"/>
<use xlink:href="#f1_7v" transform="matrix(12,0,0,12,692,350.3)"/>
<use xlink:href="#f1_77" transform="matrix(12,0,0,12,701.6,350.3)"/>
<use xlink:href="#f1_bf" transform="matrix(12,0,0,12,710.4,350.3)"/>
<use xlink:href="#f1_77" transform="matrix(12,0,0,12,716.2,350.3)"/>
<use xlink:href="#f1_b5" transform="matrix(12,0,0,12,725,350.3)"/>
<use xlink:href="#f1_7z" transform="matrix(12,0,0,12,732.4,350.3)"/>
<use xlink:href="#f1_bf" transform="matrix(12,0,0,12,741.5,350.3)"/>
<use xlink:href="#f1_ov" transform="matrix(12,0,0,12,137.6,377.8)"/>
<use xlink:href="#f1_9q" transform="matrix(12,0,0,12,143.1,377.8)"/>
<use xlink:href="#f1_af" transform="matrix(12,0,0,12,147.1,377.8)"/>
<use xlink:href="#f1_ay" transform="matrix(12,0,0,12,156.6,377.8)"/>
<use xlink:href="#f1_c6" transform="matrix(12,0,0,12,166.2,377.8)"/>
<use xlink:href="#f1_bf" transform="matrix(12,0,0,12,175.7,377.8)"/>
<use xlink:href="#f1_b5" transform="matrix(12,0,0,12,186,377.8)"/>
<use xlink:href="#f1_ay" transform="matrix(12,0,0,12,193.3,377.8)"/>
<use xlink:href="#f1_77" transform="matrix(12,0,0,12,202.8,377.8)"/>
<use xlink:href="#f1_7l" transform="matrix(12,0,0,12,211.6,377.8)"/>
<use xlink:href="#f1_7z" transform="matrix(12,0,0,12,219.3,377.8)"/>
<use xlink:href="#f1_ow" transform="matrix(12,0,0,12,228.5,377.8)"/>
<use xlink:href="#f1_nq" transform="matrix(12,0,0,12,234.3,377.8)"/>
<use xlink:href="#f1_9q" transform="matrix(12,0,0,12,243.1,377.8)"/>
<use xlink:href="#f1_bf" transform="matrix(12,0,0,12,247.1,377.8)"/>
<use xlink:href="#f1_7l" transform="matrix(12,0,0,12,257.4,377.8)"/>
<use xlink:href="#f1_77" transform="matrix(12,0,0,12,265.1,377.8)"/>
<use xlink:href="#f1_af" transform="matrix(12,0,0,12,273.9,377.8)"/>
<use xlink:href="#f1_7l" transform="matrix(12,0,0,12,287.6,377.8)"/>
<use xlink:href="#f1_a8" transform="matrix(12,0,0,12,295.6,377.8)"/>
<use xlink:href="#f1_77" transform="matrix(12,0,0,12,299.7,377.8)"/>
<use xlink:href="#f1_b5" transform="matrix(12,0,0,12,308.4,377.8)"/>
<use xlink:href="#f1_b5" transform="matrix(12,0,0,12,315.8,377.8)"/>
<use xlink:href="#f1_9q" transform="matrix(12,0,0,12,323.1,377.8)"/>
<use xlink:href="#f1_89" transform="matrix(12,0,0,12,327.1,377.8)"/>
<use xlink:href="#f1_co" transform="matrix(12,0,0,12,333,377.8)"/>
<use xlink:href="#f1_77" transform="matrix(12,0,0,12,345.4,377.8)"/>
<use xlink:href="#f1_af" transform="matrix(12,0,0,12,354.2,377.8)"/>
<use xlink:href="#f1_7v" transform="matrix(12,0,0,12,363.7,377.8)"/>
<use xlink:href="#f1_b1" transform="matrix(12,0,0,12,377.3,377.8)"/>
<use xlink:href="#f1_7z" transform="matrix(12,0,0,12,383.5,377.8)"/>
<use xlink:href="#f1_ay" transform="matrix(12,0,0,12,392.7,377.8)"/>
<use xlink:href="#f1_b1" transform="matrix(12,0,0,12,402.2,377.8)"/>
<use xlink:href="#f1_7z" transform="matrix(12,0,0,12,408.5,377.8)"/>
<use xlink:href="#f1_b5" transform="matrix(12,0,0,12,417.6,377.8)"/>
<use xlink:href="#f1_7z" transform="matrix(12,0,0,12,425,377.8)"/>
<use xlink:href="#f1_af" transform="matrix(12,0,0,12,434.1,377.8)"/>
<use xlink:href="#f1_bf" transform="matrix(12,0,0,12,443.7,377.8)"/>
<use xlink:href="#f1_7l" transform="matrix(12,0,0,12,453.9,377.8)"/>
<use xlink:href="#f1_am" transform="matrix(12,0,0,12,461.6,377.8)"/>
<use xlink:href="#f1_ae" transform="matrix(12,0,0,12,471.1,377.8)"/>
<use xlink:href="#f1_ay" transform="matrix(12,0,0,12,485.8,377.8)"/>
<use xlink:href="#f1_a8" transform="matrix(12,0,0,12,495.3,377.8)"/>
<use xlink:href="#f1_9q" transform="matrix(12,0,0,12,499.4,377.8)"/>
<use xlink:href="#f1_7l" transform="matrix(12,0,0,12,503.4,377.8)"/>
<use xlink:href="#f1_77" transform="matrix(12,0,0,12,511.1,377.8)"/>
<use xlink:href="#f1_bf" transform="matrix(12,0,0,12,519.5,377.8)"/>
<use xlink:href="#f1_7z" transform="matrix(12,0,0,12,525.4,377.8)"/>
<use xlink:href="#f1_7v" transform="matrix(12,0,0,12,534.5,377.8)"/>
<use xlink:href="#f1_ay" transform="matrix(12,0,0,12,548.1,377.8)"/>
<use xlink:href="#f1_b1" transform="matrix(12,0,0,12,557.7,377.8)"/>
<use xlink:href="#f1_am" transform="matrix(12,0,0,12,563.9,377.8)"/>
<use xlink:href="#f1_7k" transform="matrix(12,0,0,12,573.8,377.8)"/>
<use xlink:href="#f1_a8" transform="matrix(12,0,0,12,583.3,377.8)"/>
<use xlink:href="#f1_7z" transform="matrix(12,0,0,12,587.4,377.8)"/>
<use xlink:href="#f1_ae" transform="matrix(12,0,0,12,596.5,377.8)"/>
<use xlink:href="#f1_ch" transform="matrix(12,0,0,12,615.5,377.8)"/>
<use xlink:href="#f1_7z" transform="matrix(12,0,0,12,623.6,377.8)"/>
<use xlink:href="#f1_b1" transform="matrix(12,0,0,12,632.7,377.8)"/>
<use xlink:href="#f1_co" transform="matrix(12,0,0,12,639.3,377.8)"/>
<use xlink:href="#f1_7z" transform="matrix(12,0,0,12,651.9,377.8)"/>
<use xlink:href="#f1_89" transform="matrix(12,0,0,12,660.7,377.8)"/>
<use xlink:href="#f1_89" transform="matrix(12,0,0,12,666.2,377.8)"/>
<use xlink:href="#f1_7z" transform="matrix(12,0,0,12,671.3,377.8)"/>
<use xlink:href="#f1_7l" transform="matrix(12,0,0,12,680.4,377.8)"/>
<use xlink:href="#f1_bf" transform="matrix(12,0,0,12,688.2,377.8)"/>
<use xlink:href="#f1_9q" transform="matrix(12,0,0,12,694.4,377.8)"/>
<use xlink:href="#f1_ch" transform="matrix(12,0,0,12,698.4,377.8)"/>
<use xlink:href="#f1_7z" transform="matrix(12,0,0,12,706.5,377.8)"/>
<use xlink:href="#f1_a8" transform="matrix(12,0,0,12,716,377.8)"/>
<use xlink:href="#f1_co" transform="matrix(12,0,0,12,720,377.8)"/>
<use xlink:href="#f1_nt" transform="matrix(12,0,0,12,727,377.8)"/>
<use xlink:href="#f1_13" transform="matrix(12,0,0,12,137.6,405.3)"/>
<use xlink:href="#f1_9q" transform="matrix(12,0,0,12,146,405.3)"/>
<use xlink:href="#f1_9d" transform="matrix(12,0,0,12,150,405.3)"/>
<use xlink:href="#f1_c6" transform="matrix(12,0,0,12,158.8,405.3)"/>
<use xlink:href="#f1_b1" transform="matrix(12,0,0,12,168.4,405.3)"/>
<use xlink:href="#f1_7z" transform="matrix(12,0,0,12,174.6,405.3)"/>
<use xlink:href="#f1_ry" transform="matrix(12,0,0,12,187.8,405.3)"/>
<use xlink:href="#f1_nt" transform="matrix(12,0,0,12,197,405.3)"/>
<use xlink:href="#f1_rz" transform="matrix(12,0,0,12,201.7,405.3)"/>
<use xlink:href="#f1_b5" transform="matrix(12,0,0,12,214.9,405.3)"/>
<use xlink:href="#f1_9n" transform="matrix(12,0,0,12,222.2,405.3)"/>
<use xlink:href="#f1_am" transform="matrix(12,0,0,12,231.8,405.3)"/>
<use xlink:href="#f1_ci" transform="matrix(12,0,0,12,241.3,405.3)"/>
<use xlink:href="#f1_77" transform="matrix(12,0,0,12,258.5,405.3)"/>
<use xlink:href="#f1_b5" transform="matrix(12,0,0,12,271.3,405.3)"/>
<use xlink:href="#f1_7z" transform="matrix(12,0,0,12,278.6,405.3)"/>
<use xlink:href="#f1_7l" transform="matrix(12,0,0,12,287.8,405.3)"/>
<use xlink:href="#f1_bf" transform="matrix(12,0,0,12,295.5,405.3)"/>
<use xlink:href="#f1_9q" transform="matrix(12,0,0,12,301.7,405.3)"/>
<use xlink:href="#f1_am" transform="matrix(12,0,0,12,305.8,405.3)"/>
<use xlink:href="#f1_af" transform="matrix(12,0,0,12,315.3,405.3)"/>
<use xlink:href="#f1_am" transform="matrix(12,0,0,12,329.2,405.3)"/>
<use xlink:href="#f1_89" transform="matrix(12,0,0,12,338.7,405.3)"/>
<use xlink:href="#f1_77" transform="matrix(12,0,0,12,348.6,405.3)"/>
<use xlink:href="#f1_7v" transform="matrix(12,0,0,12,361.5,405.3)"/>
<use xlink:href="#f1_7z" transform="matrix(12,0,0,12,371,405.3)"/>
<use xlink:href="#f1_7z" transform="matrix(12,0,0,12,380.1,405.3)"/>
<use xlink:href="#f1_ay" transform="matrix(12,0,0,12,389.3,405.3)"/>
<use xlink:href="#f1_af" transform="matrix(12,0,0,12,403.2,405.3)"/>
<use xlink:href="#f1_7z" transform="matrix(12,0,0,12,412.8,405.3)"/>
<use xlink:href="#f1_bf" transform="matrix(12,0,0,12,421.9,405.3)"/>
<use xlink:href="#f1_ci" transform="matrix(12,0,0,12,428.1,405.3)"/>
<use xlink:href="#f1_am" transform="matrix(12,0,0,12,441,405.3)"/>
<use xlink:href="#f1_b1" transform="matrix(12,0,0,12,450.5,405.3)"/>
<use xlink:href="#f1_a5" transform="matrix(12,0,0,12,456.7,405.3)"/>
<use xlink:href="#f1_nt" transform="matrix(12,0,0,12,465.2,405.3)"/>
<use xlink:href="#f1_13" transform="matrix(12,0,0,12,418.2,1038)"/>
<use xlink:href="#f1_9q" transform="matrix(12,0,0,12,426.6,1038)"/>
<use xlink:href="#f1_9d" transform="matrix(12,0,0,12,430.7,1038)"/>
<use xlink:href="#f1_c6" transform="matrix(12,0,0,12,439.4,1038)"/>
<use xlink:href="#f1_b1" transform="matrix(12,0,0,12,449,1038)"/>
<use xlink:href="#f1_7z" transform="matrix(12,0,0,12,455.2,1038)"/>
<use xlink:href="#f1_ry" transform="matrix(12,0,0,12,468.4,1038)"/>
<use xlink:href="#f1_nt" transform="matrix(12,0,0,12,477.6,1038)"/>
<use xlink:href="#f1_rz" transform="matrix(12,0,0,12,482.3,1038)"/>
<use xlink:href="#f1_5" transform="matrix(12,0,0,12,192.6,1093)"/>
<use xlink:href="#f1_7v" transform="matrix(12,0,0,12,207.2,1093)"/>
<use xlink:href="#f1_7z" transform="matrix(12,0,0,12,216.8,1093)"/>
<use xlink:href="#f1_7z" transform="matrix(12,0,0,12,225.9,1093)"/>
<use xlink:href="#f1_ay" transform="matrix(12,0,0,12,235.1,1093)"/>
<use xlink:href="#f1_af" transform="matrix(12,0,0,12,248.7,1093)"/>
<use xlink:href="#f1_7z" transform="matrix(12,0,0,12,258.2,1093)"/>
<use xlink:href="#f1_bf" transform="matrix(12,0,0,12,267.3,1093)"/>
<use xlink:href="#f1_ci" transform="matrix(12,0,0,12,273.6,1093)"/>
<use xlink:href="#f1_am" transform="matrix(12,0,0,12,286.4,1093)"/>
<use xlink:href="#f1_b1" transform="matrix(12,0,0,12,295.9,1093)"/>
<use xlink:href="#f1_a5" transform="matrix(12,0,0,12,302.2,1093)"/>
<use xlink:href="#f1_9q" transform="matrix(12,0,0,12,315.1,1093)"/>
<use xlink:href="#f1_b5" transform="matrix(12,0,0,12,319.2,1093)"/>
<use xlink:href="#f1_7k" transform="matrix(12,0,0,12,330.5,1093)"/>
<use xlink:href="#f1_7z" transform="matrix(12,0,0,12,340,1093)"/>
<use xlink:href="#f1_7l" transform="matrix(12,0,0,12,349.2,1093)"/>
<use xlink:href="#f1_am" transform="matrix(12,0,0,12,356.9,1093)"/>
<use xlink:href="#f1_ae" transform="matrix(12,0,0,12,366.4,1093)"/>
<use xlink:href="#f1_7z" transform="matrix(12,0,0,12,381.1,1093)"/>
<use xlink:href="#f1_77" transform="matrix(12,0,0,12,394.4,1093)"/>
<use xlink:href="#f1_9n" transform="matrix(12,0,0,12,407.5,1093)"/>
<use xlink:href="#f1_9q" transform="matrix(12,0,0,12,417.1,1093)"/>
<use xlink:href="#f1_7z" transform="matrix(12,0,0,12,421.1,1093)"/>
<use xlink:href="#f1_b1" transform="matrix(12,0,0,12,430.2,1093)"/>
<use xlink:href="#f1_77" transform="matrix(12,0,0,12,436.1,1093)"/>
<use xlink:href="#f1_b1" transform="matrix(12,0,0,12,444.9,1093)"/>
<use xlink:href="#f1_7l" transform="matrix(12,0,0,12,451.2,1093)"/>
<use xlink:href="#f1_9n" transform="matrix(12,0,0,12,458.9,1093)"/>
<use xlink:href="#f1_9q" transform="matrix(12,0,0,12,468.7,1093)"/>
<use xlink:href="#f1_7l" transform="matrix(12,0,0,12,472.8,1093)"/>
<use xlink:href="#f1_77" transform="matrix(12,0,0,12,480.5,1093)"/>
<use xlink:href="#f1_a8" transform="matrix(12,0,0,12,489.3,1093)"/>
<use xlink:href="#f1_7l" transform="matrix(12,0,0,12,497.4,1093)"/>
<use xlink:href="#f1_am" transform="matrix(12,0,0,12,505.5,1093)"/>
<use xlink:href="#f1_ae" transform="matrix(12,0,0,12,515,1093)"/>
<use xlink:href="#f1_ay" transform="matrix(12,0,0,12,529.6,1093)"/>
<use xlink:href="#f1_am" transform="matrix(12,0,0,12,539.2,1093)"/>
<use xlink:href="#f1_b5" transform="matrix(12,0,0,12,548.7,1093)"/>
<use xlink:href="#f1_9q" transform="matrix(12,0,0,12,556,1093)"/>
<use xlink:href="#f1_bf" transform="matrix(12,0,0,12,560.1,1093)"/>
<use xlink:href="#f1_7z" transform="matrix(12,0,0,12,566.3,1093)"/>
<use xlink:href="#f1_ae" transform="matrix(12,0,0,12,579.6,1093)"/>
<use xlink:href="#f1_am" transform="matrix(12,0,0,12,594.2,1093)"/>
<use xlink:href="#f1_7v" transform="matrix(12,0,0,12,603.8,1093)"/>
<use xlink:href="#f1_7z" transform="matrix(12,0,0,12,613.3,1093)"/>
<use xlink:href="#f1_a8" transform="matrix(12,0,0,12,622.5,1093)"/>
<use xlink:href="#f1_ci" transform="matrix(12,0,0,12,630.6,1093)"/>
<use xlink:href="#f1_9n" transform="matrix(12,0,0,12,643.7,1093)"/>
<use xlink:href="#f1_7z" transform="matrix(12,0,0,12,653.3,1093)"/>
<use xlink:href="#f1_b1" transform="matrix(12,0,0,12,662.4,1093)"/>
<use xlink:href="#f1_7z" transform="matrix(12,0,0,12,668.7,1093)"/>
<use xlink:href="#f1_7z" transform="matrix(12,0,0,12,681.9,1093)"/>
<use xlink:href="#f1_77" transform="matrix(12,0,0,12,691,1093)"/>
<use xlink:href="#f1_7l" transform="matrix(12,0,0,12,699.8,1093)"/>
<use xlink:href="#f1_9n" transform="matrix(12,0,0,12,707.5,1093)"/>
<use xlink:href="#f1_a8" transform="matrix(12,0,0,12,721.4,1093)"/>
<use xlink:href="#f1_77" transform="matrix(12,0,0,12,725.5,1093)"/>
<use xlink:href="#f1_co" transform="matrix(12,0,0,12,733.9,1093)"/>
<use xlink:href="#f1_7z" transform="matrix(12,0,0,12,742,1093)"/>
<use xlink:href="#f1_b1" transform="matrix(12,0,0,12,751.5,1093)"/>
<use xlink:href="#f1_ov" transform="matrix(12,0,0,12,137.6,1120.5)"/>
<use xlink:href="#f1_89" transform="matrix(12,0,0,12,143.1,1120.5)"/>
<use xlink:href="#f1_9q" transform="matrix(12,0,0,12,148.6,1120.5)"/>
<use xlink:href="#f1_9d" transform="matrix(12,0,0,12,152.6,1120.5)"/>
<use xlink:href="#f1_c6" transform="matrix(12,0,0,12,161.4,1120.5)"/>
<use xlink:href="#f1_b1" transform="matrix(12,0,0,12,170.9,1120.5)"/>
<use xlink:href="#f1_7z" transform="matrix(12,0,0,12,177.2,1120.5)"/>
<use xlink:href="#f1_s0" transform="matrix(12,0,0,12,190.4,1120.5)"/>
<use xlink:href="#f1_nt" transform="matrix(12,0,0,12,199.5,1120.5)"/>
<use xlink:href="#f1_ry" transform="matrix(12,0,0,12,204.3,1120.5)"/>
<use xlink:href="#f1_ow" transform="matrix(12,0,0,12,213.4,1120.5)"/>
<use xlink:href="#f1_77" transform="matrix(12,0,0,12,223,1120.5)"/>
<use xlink:href="#f1_ay" transform="matrix(12,0,0,12,232.2,1120.5)"/>
<use xlink:href="#f1_ay" transform="matrix(12,0,0,12,241.7,1120.5)"/>
<use xlink:href="#f1_a8" transform="matrix(12,0,0,12,251.3,1120.5)"/>
<use xlink:href="#f1_9q" transform="matrix(12,0,0,12,255.6,1120.5)"/>
<use xlink:href="#f1_7z" transform="matrix(12,0,0,12,259.7,1120.5)"/>
<use xlink:href="#f1_b5" transform="matrix(12,0,0,12,268.8,1120.5)"/>
<use xlink:href="#f1_77" transform="matrix(12,0,0,12,280.2,1120.5)"/>
<use xlink:href="#f1_a8" transform="matrix(12,0,0,12,293,1120.5)"/>
<use xlink:href="#f1_9q" transform="matrix(12,0,0,12,297.4,1120.5)"/>
<use xlink:href="#f1_af" transform="matrix(12,0,0,12,301.4,1120.5)"/>
<use xlink:href="#f1_7z" transform="matrix(12,0,0,12,311,1120.5)"/>
<use xlink:href="#f1_77" transform="matrix(12,0,0,12,320.1,1120.5)"/>
<use xlink:href="#f1_b1" transform="matrix(12,0,0,12,328.9,1120.5)"/>
<use xlink:href="#f1_bf" transform="matrix(12,0,0,12,339.5,1120.5)"/>
<use xlink:href="#f1_b1" transform="matrix(12,0,0,12,345.7,1120.5)"/>
<use xlink:href="#f1_77" transform="matrix(12,0,0,12,351.6,1120.5)"/>
<use xlink:href="#f1_af" transform="matrix(12,0,0,12,360.4,1120.5)"/>
<use xlink:href="#f1_b5" transform="matrix(12,0,0,12,369.9,1120.5)"/>
<use xlink:href="#f1_89" transform="matrix(12,0,0,12,376.9,1120.5)"/>
<use xlink:href="#f1_am" transform="matrix(12,0,0,12,382.4,1120.5)"/>
<use xlink:href="#f1_b1" transform="matrix(12,0,0,12,391.9,1120.5)"/>
<use xlink:href="#f1_ae" transform="matrix(12,0,0,12,398.2,1120.5)"/>
<use xlink:href="#f1_77" transform="matrix(12,0,0,12,412.8,1120.5)"/>
<use xlink:href="#f1_bf" transform="matrix(12,0,0,12,421.3,1120.5)"/>
<use xlink:href="#f1_9q" transform="matrix(12,0,0,12,427.9,1120.5)"/>
<use xlink:href="#f1_am" transform="matrix(12,0,0,12,431.9,1120.5)"/>
<use xlink:href="#f1_af" transform="matrix(12,0,0,12,441.4,1120.5)"/>
<use xlink:href="#f1_89" transform="matrix(12,0,0,12,455.3,1120.5)"/>
<use xlink:href="#f1_am" transform="matrix(12,0,0,12,460.5,1120.5)"/>
<use xlink:href="#f1_a8" transform="matrix(12,0,0,12,470.4,1120.5)"/>
<use xlink:href="#f1_a8" transform="matrix(12,0,0,12,474.4,1120.5)"/>
<use xlink:href="#f1_am" transform="matrix(12,0,0,12,478.4,1120.5)"/>
<use xlink:href="#f1_ci" transform="matrix(12,0,0,12,488.3,1120.5)"/>
<use xlink:href="#f1_7z" transform="matrix(12,0,0,12,501.1,1120.5)"/>
<use xlink:href="#f1_7v" transform="matrix(12,0,0,12,510.3,1120.5)"/>
<use xlink:href="#f1_ci" transform="matrix(12,0,0,12,524.2,1120.5)"/>
<use xlink:href="#f1_9q" transform="matrix(12,0,0,12,537.4,1120.5)"/>
<use xlink:href="#f1_bf" transform="matrix(12,0,0,12,541.4,1120.5)"/>
<use xlink:href="#f1_9n" transform="matrix(12,0,0,12,547.6,1120.5)"/>
<use xlink:href="#f1_77" transform="matrix(12,0,0,12,561.2,1120.5)"/>
<use xlink:href="#f1_af" transform="matrix(12,0,0,12,574.4,1120.5)"/>
<use xlink:href="#f1_am" transform="matrix(12,0,0,12,583.9,1120.5)"/>
<use xlink:href="#f1_af" transform="matrix(12,0,0,12,593.5,1120.5)"/>
<use xlink:href="#f1_a8" transform="matrix(12,0,0,12,603.3,1120.5)"/>
<use xlink:href="#f1_9q" transform="matrix(12,0,0,12,607.4,1120.5)"/>
<use xlink:href="#f1_af" transform="matrix(12,0,0,12,611.4,1120.5)"/>
<use xlink:href="#f1_7z" transform="matrix(12,0,0,12,620.9,1120.5)"/>
<use xlink:href="#f1_77" transform="matrix(12,0,0,12,630.1,1120.5)"/>
<use xlink:href="#f1_b1" transform="matrix(12,0,0,12,639.3,1120.5)"/>
<use xlink:href="#f1_89" transform="matrix(12,0,0,12,649.7,1120.5)"/>
<use xlink:href="#f1_c6" transform="matrix(12,0,0,12,655.5,1120.5)"/>
<use xlink:href="#f1_af" transform="matrix(12,0,0,12,665,1120.5)"/>
<use xlink:href="#f1_7l" transform="matrix(12,0,0,12,674.6,1120.5)"/>
<use xlink:href="#f1_bf" transform="matrix(12,0,0,12,682.3,1120.5)"/>
<use xlink:href="#f1_9q" transform="matrix(12,0,0,12,688.5,1120.5)"/>
<use xlink:href="#f1_am" transform="matrix(12,0,0,12,692.9,1120.5)"/>
<use xlink:href="#f1_af" transform="matrix(12,0,0,12,702.4,1120.5)"/>
<use xlink:href="#f1_ox" transform="matrix(12,0,0,12,716,1120.5)"/>
<use xlink:href="#f1_rz" transform="matrix(12,0,0,12,721.8,1120.5)"/>
<use xlink:href="#f1_s1" transform="matrix(12,0,0,12,731,1120.5)"/>
<use xlink:href="#f1_oy" transform="matrix(12,0,0,12,740.2,1120.5)"/>
<use xlink:href="#f1_bf" transform="matrix(12,0,0,12,750.2,1120.5)"/>
<use xlink:href="#f1_am" transform="matrix(12,0,0,12,756,1120.5)"/>
<use xlink:href="#f1_bf" transform="matrix(12,0,0,12,137.6,1148)"/>
<use xlink:href="#f1_9n" transform="matrix(12,0,0,12,143.8,1148)"/>
<use xlink:href="#f1_7z" transform="matrix(12,0,0,12,153.3,1148)"/>
<use xlink:href="#f1_ay" transform="matrix(12,0,0,12,166.5,1148)"/>
<use xlink:href="#f1_b1" transform="matrix(12,0,0,12,176.1,1148)"/>
<use xlink:href="#f1_7z" transform="matrix(12,0,0,12,182.3,1148)"/>
<use xlink:href="#f1_7l" transform="matrix(12,0,0,12,191.4,1148)"/>
<use xlink:href="#f1_7z" transform="matrix(12,0,0,12,199.2,1148)"/>
<use xlink:href="#f1_7v" transform="matrix(12,0,0,12,208.3,1148)"/>
<use xlink:href="#f1_9q" transform="matrix(12,0,0,12,217.9,1148)"/>
<use xlink:href="#f1_af" transform="matrix(12,0,0,12,221.9,1148)"/>
<use xlink:href="#f1_9d" transform="matrix(12,0,0,12,231.4,1148)"/>
<use xlink:href="#f1_a8" transform="matrix(12,0,0,12,244.2,1148)"/>
<use xlink:href="#f1_77" transform="matrix(12,0,0,12,248.3,1148)"/>
<use xlink:href="#f1_co" transform="matrix(12,0,0,12,256.7,1148)"/>
<use xlink:href="#f1_7z" transform="matrix(12,0,0,12,264.8,1148)"/>
<use xlink:href="#f1_b1" transform="matrix(12,0,0,12,274.3,1148)"/>
<use xlink:href="#f1_nt" transform="matrix(12,0,0,12,278.7,1148)"/>
</g>
<image clip-path="url(#c1_4)" preserveAspectRatio="none" x="138" y="126" width="56" height="25" xlink:href="img/1.jpg"/>
<image clip-path="url(#c2_4)" preserveAspectRatio="none" x="209" y="119" width="73" height="32" xlink:href="img/2.jpg"/>
<image clip-path="url(#c3_4)" preserveAspectRatio="none" x="138" y="506" width="711" height="473" xlink:href="img/3.jpg"/>
</svg>