<?xml version="1.0" encoding="UTF-8" standalone="no"?>
<!DOCTYPE svg PUBLIC "-//W3C//DTD SVG 1.1//EN"
"http://www.w3.org/Graphics/SVG/1.1/DTD/svg11.dtd">
<svg viewBox="0 0 909 1286" version="1.1" xmlns="http://www.w3.org/2000/svg" xmlns:xlink="http://www.w3.org/1999/xlink">
<defs>
<clipPath id="c0"><path d="M0,1286.3V0H909.3V1286.3Z"/></clipPath>
<style type="text/css"><![CDATA[
.g0{
fill: #0000FF;
}
]]></style>
<path d="M382,534c0,0,51,0,88,12c0,0,37,12,61,35c0,0,25,22,36,51c0,0,12,30,12,65c0,0,0,57,-25,96c0,0,-26,40,-86,57c0,0,-18,5,-42,7c0,0,-23,2,-61,2H256V534ZM192,-4c0,0,-18,0,-31,2c0,0,-12,2,-19,3c0,0,-8,3,-11,8c0,0,-3,4,-3,10V913c0,0,0,29,15,40c0,0,16,12,33,12H381c0,0,37,0,61,-2c0,0,24,-2,44,-4c0,0,56,-10,98,-30c0,0,43,-21,73,-53c0,0,29,-33,43,-74c0,0,15,-41,15,-91c0,0,0,-49,-13,-87c0,0,-13,-39,-38,-68c0,0,-25,-30,-59,-51c0,0,-34,-22,-77,-37c0,0,24,-10,43,-26c0,0,20,-16,37,-39c0,0,16,-22,31,-51c0,0,15,-29,30,-66L756,73c0,0,10,-26,13,-37c0,0,3,-11,3,-17c0,0,0,-6,-2,-10c0,0,-2,-5,-10,-8c0,0,-7,-2,-21,-3c0,0,-13,-2,-36,-2c0,0,-19,0,-31,2c0,0,-13,1,-20,3c0,0,-7,4,-12,10c0,0,-4,6,-7,15L545,253c0,0,-16,39,-33,72c0,0,-17,32,-40,56c0,0,-23,23,-54,36c0,0,-32,13,-76,13H256V19c0,0,0,-6,-3,-10c0,0,-3,-5,-10,-8c0,0,-7,-1,-20,-3c0,0,-12,-2,-31,-2Z"
id="f1_2j"
transform="scale(0.001,-0.001)"/>

<path d="M564,420c0,0,2,98,-43,153c0,0,-46,56,-134,56c0,0,-46,0,-80,-18c0,0,-35,-17,-58,-45c0,0,-23,-29,-36,-67c0,0,-12,-37,-14,-79ZM405,-13c0,0,-83,0,-145,22c0,0,-62,24,-105,69c0,0,-42,46,-64,114c0,0,-22,69,-22,160c0,0,0,87,23,156c0,0,22,69,64,117c0,0,43,48,102,74c0,0,60,26,134,26c0,0,79,0,135,-26c0,0,55,-25,91,-68c0,0,36,-43,53,-101c0,0,16,-58,16,-123V384c0,0,0,-29,-14,-41c0,0,-15,-13,-33,-13H199c0,0,0,-56,11,-100c0,0,12,-45,38,-77c0,0,26,-33,68,-50c0,0,41,-17,102,-17c0,0,48,0,85,8c0,0,37,8,65,17c0,0,27,10,44,18c0,0,18,8,27,8c0,0,5,0,9,-3c0,0,4,-2,7,-8c0,0,2,-5,3,-14c0,0,1,-9,1,-23c0,0,0,-9,-1,-16c0,0,0,-8,-2,-13c0,0,-1,-6,-3,-10c0,0,-3,-5,-7,-9c0,0,-4,-4,-24,-13c0,0,-20,-10,-53,-18c0,0,-32,-9,-74,-16c0,0,-42,-7,-90,-7Z"
id="f1_7z"
transform="scale(0.001,-0.001)"/>

<path d="M209,-4c0,0,-18,0,-30,2c0,0,-12,1,-19,3c0,0,-7,3,-10,7c0,0,-3,4,-3,10V607H52c0,0,-12,0,-18,12c0,0,-6,12,-6,39c0,0,0,14,2,24c0,0,1,10,4,16c0,0,3,7,8,9c0,0,4,3,10,3h95v69c0,0,0,71,13,121c0,0,13,50,40,82c0,0,27,33,67,48c0,0,41,15,96,15c0,0,26,0,51,-5c0,0,25,-4,38,-10c0,0,13,-6,18,-10c0,0,4,-5,7,-12c0,0,3,-7,5,-17c0,0,1,-10,1,-24c0,0,0,-15,-2,-23c0,0,-1,-9,-3,-14c0,0,-2,-5,-5,-7c0,0,-3,-2,-8,-2c0,0,-5,0,-13,3c0,0,-7,4,-19,8c0,0,-11,4,-26,7c0,0,-15,4,-36,4c0,0,-27,0,-47,-9c0,0,-19,-9,-31,-28c0,0,-12,-19,-17,-50c0,0,-5,-30,-5,-73V710H421c0,0,6,0,10,-3c0,0,4,-2,7,-9c0,0,4,-6,6,-16c0,0,2,-10,2,-24c0,0,0,-27,-7,-39c0,0,-7,-12,-18,-12H271V18c0,0,0,-6,-3,-10c0,0,-3,-4,-11,-7c0,0,-7,-2,-19,-3c0,0,-12,-2,-29,-2Z"
id="f1_89"
transform="scale(0.001,-0.001)"/>

<path d="M176,-4c0,0,-18,0,-30,2c0,0,-12,1,-19,3c0,0,-7,3,-10,7c0,0,-3,4,-3,10V690c0,0,0,6,3,10c0,0,2,4,9,7c0,0,6,4,17,5c0,0,10,1,27,1c0,0,17,0,28,-1c0,0,10,-1,16,-5c0,0,6,-3,9,-7c0,0,3,-4,3,-10V592c0,0,27,41,51,66c0,0,25,26,46,41c0,0,22,14,43,20c0,0,21,6,43,6c0,0,10,0,22,-2c0,0,12,-1,26,-4c0,0,13,-3,24,-6c0,0,11,-4,15,-8c0,0,5,-4,6,-7c0,0,2,-3,3,-9c0,0,1,-5,1,-15c0,0,0,-10,0,-27c0,0,0,-16,0,-28c0,0,-1,-11,-3,-17c0,0,-2,-6,-6,-10c0,0,-3,-3,-9,-3c0,0,-6,0,-15,3c0,0,-8,4,-19,7c0,0,-11,3,-24,6c0,0,-14,3,-29,3c0,0,-19,0,-37,-7c0,0,-18,-8,-37,-25c0,0,-20,-18,-42,-46c0,0,-21,-29,-48,-70V18c0,0,0,-6,-3,-10c0,0,-2,-4,-9,-7c0,0,-7,-2,-19,-3c0,0,-12,-2,-30,-2Z"
id="f1_b1"
transform="scale(0.001,-0.001)"/>

<path d="M176,-4c0,0,-18,0,-30,2c0,0,-12,1,-19,3c0,0,-7,3,-10,7c0,0,-3,4,-3,10V690c0,0,0,6,3,10c0,0,2,4,9,7c0,0,6,4,17,5c0,0,10,1,27,1c0,0,17,0,28,-1c0,0,10,-1,16,-5c0,0,6,-3,9,-7c0,0,3,-4,3,-10V601c0,0,56,64,112,94c0,0,57,30,114,30c0,0,67,0,113,-23c0,0,46,-23,74,-61c0,0,29,-38,41,-89c0,0,12,-52,12,-123V18c0,0,0,-6,-3,-10c0,0,-3,-4,-9,-7c0,0,-7,-2,-19,-3c0,0,-12,-2,-30,-2c0,0,-19,0,-30,2c0,0,-12,1,-19,3c0,0,-7,3,-10,7c0,0,-3,4,-3,10V412c0,0,0,58,-9,93c0,0,-9,35,-26,61c0,0,-17,25,-44,38c0,0,-27,14,-63,14c0,0,-46,0,-93,-33c0,0,-46,-33,-97,-96V18c0,0,0,-6,-3,-10c0,0,-2,-4,-9,-7c0,0,-7,-2,-19,-3c0,0,-12,-2,-30,-2Z"
id="f1_af"
transform="scale(0.001,-0.001)"/>

<path d="M367,-13c0,0,-73,0,-129,23c0,0,-56,24,-93,70c0,0,-38,46,-58,112c0,0,-20,67,-20,154c0,0,0,99,25,171c0,0,24,71,66,116c0,0,42,46,99,68c0,0,58,22,124,22c0,0,32,0,62,-6c0,0,31,-6,56,-16c0,0,25,-10,45,-22c0,0,20,-13,29,-22c0,0,9,-9,12,-14c0,0,3,-5,6,-13c0,0,2,-7,3,-16c0,0,0,-9,0,-22c0,0,0,-29,-6,-41c0,0,-7,-11,-17,-11c0,0,-11,0,-25,12c0,0,-15,12,-37,27c0,0,-23,15,-55,28c0,0,-31,12,-75,12c0,0,-88,0,-136,-68c0,0,-47,-68,-47,-198c0,0,0,-65,12,-114c0,0,12,-49,36,-81c0,0,24,-33,59,-49c0,0,35,-16,79,-16c0,0,43,0,75,13c0,0,32,14,56,30c0,0,23,16,39,29c0,0,16,13,25,13c0,0,5,0,9,-3c0,0,4,-3,7,-10c0,0,2,-7,3,-18c0,0,1,-11,1,-26c0,0,0,-12,0,-22c0,0,-1,-9,-3,-15c0,0,-2,-7,-4,-12c0,0,-3,-4,-12,-14c0,0,-10,-9,-32,-23c0,0,-22,-14,-50,-24C496,11,468,0,435,-6c0,0,-33,-7,-68,-7Z"
id="f1_7l"
transform="scale(0.001,-0.001)"/>

<path d="M218,-6c0,0,-24,0,-39,4c0,0,-15,3,-24,13c0,0,-8,10,-12,27c0,0,-3,16,-3,41c0,0,0,24,3,41c0,0,4,17,12,27c0,0,9,9,24,14c0,0,15,4,39,4c0,0,23,0,38,-4c0,0,15,-5,24,-14c0,0,10,-10,13,-27c0,0,3,-17,3,-41c0,0,0,-25,-3,-41c0,0,-3,-17,-13,-27c0,0,-9,-10,-24,-13c0,0,-15,-4,-38,-4Zm0,518c0,0,-24,0,-39,4c0,0,-15,5,-24,15c0,0,-8,10,-12,26c0,0,-3,16,-3,40c0,0,0,26,3,42c0,0,4,17,12,27c0,0,9,10,24,14c0,0,15,4,39,4c0,0,23,0,38,-4c0,0,15,-4,24,-14c0,0,10,-10,13,-27c0,0,3,-16,3,-42c0,0,0,-24,-3,-40c0,0,-3,-16,-13,-26c0,0,-9,-10,-24,-15c0,0,-15,-4,-38,-4Z"
id="f1_ns"
transform="scale(0.001,-0.001)"/>

<path d="M189,-238c0,0,-8,0,-17,3c0,0,-8,3,-15,9c0,0,-6,6,-10,16c0,0,-5,10,-5,25V991c0,0,0,14,5,24c0,0,4,10,10,17c0,0,7,6,15,9c0,0,9,2,17,2H380c0,0,5,0,9,-2c0,0,4,-2,7,-8c0,0,3,-6,5,-15c0,0,1,-8,1,-21c0,0,0,-24,-6,-34c0,0,-5,-11,-16,-11H259V-148H380c0,0,5,0,9,-2c0,0,4,-2,7,-8c0,0,3,-5,5,-14c0,0,1,-8,1,-21c0,0,0,-25,-6,-35c0,0,-5,-10,-16,-10Z"
id="f1_ox"
transform="scale(0.001,-0.001)"/>

<path d="M161,0c0,0,-5,0,-10,3c0,0,-4,2,-8,8c0,0,-5,6,-7,16c0,0,-2,9,-2,24c0,0,0,13,2,23c0,0,2,9,6,16c0,0,3,6,8,9c0,0,5,4,11,4H362V837L176,726c0,0,-15,-8,-23,-9c0,0,-1,-1,-3,-1c-3,0,-8,1,-11,4c0,0,-5,5,-7,16c0,0,-2,11,-2,28c0,0,0,13,1,22c0,0,1,9,4,15c0,0,2,6,6,10c0,0,4,5,11,9L374,963c0,0,3,2,7,4c0,0,5,1,11,3c0,0,7,1,16,2c0,0,9,0,22,0c0,0,18,0,30,-2c0,0,12,-1,19,-4c0,0,7,-2,9,-6c0,0,2,-5,2,-9V103H665c0,0,6,0,11,-4c0,0,5,-3,8,-9c0,0,4,-7,6,-16c0,0,2,-10,2,-23c0,0,0,-15,-3,-24c0,0,-2,-10,-6,-16c0,0,-3,-6,-8,-8c0,0,-5,-3,-10,-3Z"
id="f1_ry"
transform="scale(0.001,-0.001)"/>

<path d="M89,-238c0,0,-11,0,-16,10c0,0,-6,10,-6,35c0,0,0,13,1,21c0,0,1,9,4,14c0,0,3,6,7,8c0,0,5,2,10,2H210V952H89c0,0,-11,0,-16,11c0,0,-6,10,-6,34c0,0,0,13,1,21c0,0,1,9,4,15c0,0,3,6,7,8c0,0,5,2,10,2H279c0,0,9,0,18,-2c0,0,8,-3,15,-9c0,0,7,-7,11,-17c0,0,4,-10,4,-24V-185c0,0,0,-15,-4,-25c0,0,-4,-10,-11,-16c0,0,-7,-6,-15,-9c0,0,-9,-3,-18,-3Z"
id="f1_oy"
transform="scale(0.001,-0.001)"/>

<path d="M372,-4c0,0,-19,0,-31,2c0,0,-12,2,-20,3c0,0,-8,3,-11,8c0,0,-3,4,-3,10V375L34,920c0,0,-8,17,-10,27c0,0,-2,10,4,15c0,0,5,5,20,6c0,0,14,2,39,2c0,0,22,0,36,-2c0,0,14,-1,22,-4c0,0,8,-2,12,-7c0,0,5,-5,8,-12L299,667c0,0,18,-40,37,-83c0,0,19,-43,38,-87h2c0,0,17,42,35,84c0,0,18,43,37,84L582,944c0,0,3,7,7,12c0,0,4,6,11,8c0,0,7,3,20,4c0,0,12,2,32,2c0,0,27,0,42,-2c0,0,15,-2,21,-7c0,0,6,-5,4,-15c0,0,-2,-10,-10,-26L436,375V19c0,0,0,-6,-3,-10c0,0,-3,-5,-10,-8c0,0,-8,-1,-20,-3c0,0,-13,-2,-31,-2Z"
id="f1_3f"
transform="scale(0.001,-0.001)"/>

<path d="M192,-6c0,0,-45,0,-62,16c0,0,-18,18,-18,69c0,0,0,53,18,71c0,0,18,17,64,17c0,0,45,0,62,-17c0,0,17,-17,17,-69c0,0,0,-53,-18,-70c0,0,-17,-17,-63,-17Z"
id="f1_nt"
transform="scale(0.001,-0.001)"/>

<path d="M318,-13c0,0,-48,0,-90,8c0,0,-41,8,-73,19c0,0,-33,12,-55,25c0,0,-22,13,-30,22c0,0,-9,8,-13,22c0,0,-4,14,-4,37c0,0,0,17,1,27c0,0,2,11,5,18c0,0,3,7,7,9c0,0,5,3,11,3c0,0,10,0,29,-13c0,0,19,-12,49,-27c0,0,30,-15,72,-28c0,0,42,-13,97,-13c0,0,42,0,77,11c0,0,34,11,59,32c0,0,25,20,39,50c0,0,13,30,13,68c0,0,0,41,-19,70c0,0,-18,29,-49,51c0,0,-30,22,-70,41c0,0,-39,18,-80,37c0,0,-41,19,-80,42c0,0,-39,23,-69,54c0,0,-31,32,-50,74c0,0,-19,42,-19,101c0,0,0,60,22,108c0,0,22,47,61,79c0,0,40,32,94,49c0,0,54,17,116,17c0,0,32,0,65,-6c0,0,32,-5,61,-15c0,0,29,-9,51,-20c0,0,22,-12,30,-19c0,0,7,-7,9,-11c0,0,2,-4,4,-10c0,0,1,-7,2,-16c0,0,1,-9,1,-23c0,0,0,-13,-2,-24c0,0,-1,-10,-3,-17c0,0,-2,-8,-6,-11c0,0,-4,-3,-10,-3c0,0,-8,0,-25,10c0,0,-18,11,-43,24c0,0,-26,13,-60,23c0,0,-35,11,-78,11c0,0,-40,0,-70,-11c0,0,-30,-10,-49,-28c0,0,-20,-18,-29,-43c0,0,-10,-25,-10,-52c0,0,0,-40,18,-70c0,0,19,-29,50,-51c0,0,31,-22,71,-41c0,0,39,-19,80,-38c0,0,41,-19,81,-41c0,0,39,-23,70,-54c0,0,31,-31,50,-73c0,0,19,-42,19,-100c0,0,0,-68,-25,-121c0,0,-25,-53,-69,-89C552,61,508,24,448,5c0,0,-60,-18,-130,-18Z"
id="f1_2n"
transform="scale(0.001,-0.001)"/>

<path d="M604,356L436,837h-1L269,356ZM87,-4c0,0,-22,0,-36,2C51,-2,37,0,32,4c0,0,-6,5,-6,15c0,0,1,10,7,27L357,943c0,0,3,8,7,13c0,0,5,6,15,9c0,0,9,3,23,4c0,0,15,1,37,1c0,0,24,0,40,-1c0,0,16,-1,25,-4c0,0,10,-3,15,-9c0,0,5,-5,8,-14L851,45c0,0,6,-16,7,-26c0,0,0,-10,-6,-16c0,0,-6,-4,-20,-5c0,0,-14,-2,-37,-2c0,0,-23,0,-37,1c0,0,-14,1,-21,3c0,0,-7,3,-10,7c0,0,-3,5,-6,11L638,253H236L157,21c0,0,-2,-6,-6,-11c0,0,-3,-5,-10,-9c0,0,-7,-2,-21,-3c0,0,-13,-2,-33,-2Z"
id="f1_5"
transform="scale(0.001,-0.001)"/>

<path d="M431,92c0,0,46,0,79,22c0,0,33,23,53,60c0,0,21,37,30,83c0,0,10,46,10,93c0,0,0,51,-8,100c0,0,-8,49,-28,86c0,0,-19,37,-51,60c0,0,-32,23,-80,23c0,0,-24,0,-47,-7c0,0,-23,-7,-47,-22c0,0,-24,-16,-50,-41c0,0,-25,-24,-55,-62V219c0,0,51,-62,98,-95c0,0,46,-32,96,-32ZM443,-13c0,0,-32,0,-59,7c0,0,-27,6,-53,19c0,0,-26,14,-52,36c0,0,-27,22,-56,52V18c0,0,0,-6,-3,-10c0,0,-3,-5,-9,-7c0,0,-7,-2,-17,-3c0,0,-10,-2,-26,-2c0,0,-15,0,-25,2c0,0,-11,1,-17,3c0,0,-7,2,-9,7c0,0,-3,4,-3,10v997c0,0,0,6,3,11c0,0,3,4,10,7c0,0,7,3,19,5c0,0,12,1,30,1c0,0,18,0,30,-1c0,0,12,-2,19,-5c0,0,7,-3,9,-7c0,0,3,-5,3,-10V614c0,0,30,31,58,52c0,0,28,20,55,34c0,0,27,13,54,19c0,0,27,6,57,6c0,0,73,0,125,-30c0,0,52,-29,84,-78c0,0,32,-48,47,-114c0,0,15,-66,15,-139c0,0,0,-87,-19,-157c0,0,-19,-70,-56,-119c0,0,-37,-49,-90,-76c0,0,-54,-25,-124,-25Z"
id="f1_7k"
transform="scale(0.001,-0.001)"/>

<path d="M351,-13c0,0,-67,0,-113,22c0,0,-46,22,-75,60c0,0,-28,39,-40,90c0,0,-13,51,-13,124V690c0,0,0,6,3,10c0,0,3,4,10,7c0,0,8,4,20,5c0,0,11,1,29,1c0,0,18,0,30,-1c0,0,12,-1,19,-5c0,0,7,-3,10,-7c0,0,3,-4,3,-10V299c0,0,0,-59,9,-94c0,0,8,-36,26,-61c0,0,18,-24,44,-38c0,0,27,-14,63,-14c0,0,46,0,92,33c0,0,46,32,98,95V690c0,0,0,6,2,10c0,0,3,4,10,7c0,0,8,4,19,5c0,0,12,1,30,1c0,0,18,0,30,-1c0,0,12,-1,19,-5c0,0,7,-3,10,-7c0,0,3,-4,3,-10V18c0,0,0,-6,-2,-10c0,0,-3,-4,-10,-7c0,0,-6,-2,-17,-3c0,0,-11,-2,-27,-2c0,0,-17,0,-28,2c0,0,-10,1,-17,3c0,0,-6,3,-8,7c0,0,-3,4,-3,10v89c0,0,-57,-63,-113,-92c0,0,-56,-28,-113,-28Z"
id="f1_c6"
transform="scale(0.001,-0.001)"/>

<path d="M79,326c0,0,-14,0,-20,11c0,0,-7,12,-7,40c0,0,0,29,7,40c0,0,6,11,20,11H390c0,0,6,0,11,-2c0,0,5,-2,8,-9c0,0,4,-6,6,-16c0,0,2,-9,2,-24c0,0,0,-29,-7,-40c0,0,-7,-11,-20,-11Z"
id="f1_oj"
transform="scale(0.001,-0.001)"/>

<path d="M189,-4c0,0,-18,0,-30,2c0,0,-12,2,-19,3c0,0,-7,3,-9,8c0,0,-3,4,-3,10V907c0,0,0,31,16,45c0,0,17,13,37,13h78c0,0,24,0,41,-4c0,0,18,-5,32,-15c0,0,13,-9,22,-24c0,0,9,-15,16,-35L649,188h4L944,884c0,0,8,23,18,39c0,0,9,15,21,25c0,0,11,9,26,13c0,0,14,4,32,4h82c0,0,11,0,21,-3c0,0,10,-4,17,-11c0,0,7,-7,12,-18c0,0,4,-10,4,-26V19c0,0,0,-6,-3,-10c0,0,-3,-5,-10,-8c0,0,-8,-1,-19,-3c0,0,-12,-2,-30,-2c0,0,-18,0,-30,2c0,0,-12,2,-19,3c0,0,-7,3,-10,8c0,0,-3,4,-3,10V860h-2L707,15c0,0,-2,-5,-6,-9c0,0,-4,-3,-12,-6c0,0,-8,-2,-18,-3c0,0,-11,-1,-26,-1c0,0,-16,0,-27,2c0,0,-11,1,-19,3c0,0,-7,2,-11,6c0,0,-4,4,-6,8L253,860V19c0,0,0,-6,-3,-10c0,0,-3,-5,-11,-8c0,0,-7,-1,-19,-3c0,0,-12,-2,-31,-2Z"
id="f1_1x"
transform="scale(0.001,-0.001)"/>

<path d="M401,90c0,0,54,0,93,19c0,0,40,20,65,55c0,0,26,35,37,84c0,0,12,48,12,106c0,0,0,55,-10,104c0,0,-10,48,-33,85c0,0,-23,36,-62,58c0,0,-40,21,-99,21c0,0,-54,0,-93,-20c0,0,-39,-19,-65,-54c0,0,-25,-36,-37,-85c0,0,-12,-48,-12,-106c0,0,0,-55,10,-103c0,0,10,-49,33,-85c0,0,24,-36,63,-58c0,0,39,-21,98,-21ZM395,-13c0,0,-82,0,-144,24c0,0,-61,25,-102,72c0,0,-41,47,-61,114c0,0,-21,67,-21,152c0,0,0,82,22,151c0,0,21,69,64,119c0,0,43,50,107,78c0,0,64,28,150,28c0,0,82,0,144,-25c0,0,61,-25,102,-72c0,0,41,-47,62,-114c0,0,20,-67,20,-151c0,0,0,-83,-21,-152c0,0,-22,-69,-65,-119C652,92,609,42,545,14c0,0,-65,-27,-150,-27Z"
id="f1_am"
transform="scale(0.001,-0.001)"/>

<path d="M272,-13c0,0,-35,0,-68,6c0,0,-32,6,-58,13c0,0,-26,9,-44,18c0,0,-17,10,-26,17c0,0,-8,8,-12,21c0,0,-3,14,-3,37c0,0,0,14,1,24c0,0,2,9,4,15c0,0,2,6,6,9c0,0,4,3,10,3c0,0,8,0,24,-11c0,0,16,-10,39,-22c0,0,24,-12,56,-22c0,0,32,-10,74,-10c0,0,31,0,56,7c0,0,26,6,44,19c0,0,19,14,29,34c0,0,10,20,10,47c0,0,0,29,-14,48c0,0,-15,19,-39,34c0,0,-24,15,-53,27c0,0,-30,11,-62,24c0,0,-32,13,-62,29c0,0,-30,16,-54,39c0,0,-24,23,-38,55c0,0,-15,32,-15,77c0,0,0,40,16,76c0,0,15,36,45,63c0,0,31,28,77,44c0,0,46,17,107,17c0,0,27,0,54,-5c0,0,26,-5,48,-11c0,0,22,-7,37,-15c0,0,15,-8,23,-14c0,0,8,-6,11,-11c0,0,2,-4,3,-10c0,0,1,-5,2,-14c0,0,2,-8,2,-20c0,0,0,-12,-2,-22c0,0,-1,-9,-3,-15c0,0,-3,-6,-7,-8c0,0,-3,-3,-8,-3c0,0,-7,0,-19,8c0,0,-13,8,-33,18c0,0,-20,9,-47,17c0,0,-28,9,-63,9c0,0,-31,0,-55,-7c0,0,-24,-7,-39,-20c0,0,-15,-13,-23,-31c0,0,-8,-18,-8,-39c0,0,0,-29,15,-49c0,0,15,-20,39,-35c0,0,24,-15,54,-27c0,0,31,-11,62,-24c0,0,32,-13,63,-29c0,0,31,-15,55,-38c0,0,24,-22,38,-53c0,0,15,-32,15,-75c0,0,0,-51,-19,-92c0,0,-19,-40,-54,-68C463,42,428,15,379,1c0,0,-48,-14,-107,-14Z"
id="f1_b5"
transform="scale(0.001,-0.001)"/>

<path d="M339,-13c0,0,-52,0,-90,13c0,0,-37,14,-61,42c0,0,-24,28,-34,71c0,0,-11,43,-11,101V607H49c0,0,-11,0,-18,12c0,0,-7,12,-7,39c0,0,0,14,2,24c0,0,2,10,5,16c0,0,3,7,8,9c0,0,5,3,11,3h93V870c0,0,0,5,2,9c0,0,3,5,10,8c0,0,7,4,19,5c0,0,12,2,30,2c0,0,19,0,31,-2c0,0,11,-1,18,-5c0,0,7,-3,10,-8c0,0,3,-4,3,-9V710H438c0,0,6,0,10,-3c0,0,5,-2,8,-9c0,0,4,-6,5,-16c0,0,1,-10,1,-24c0,0,0,-27,-6,-39c0,0,-7,-12,-18,-12H266V232c0,0,0,-69,20,-105c0,0,21,-35,74,-35c0,0,17,0,30,3c0,0,14,4,24,7c0,0,10,4,18,7c0,0,7,4,13,4c0,0,4,0,7,-2c0,0,4,-2,6,-7c0,0,2,-5,3,-14c0,0,1,-9,1,-23c0,0,0,-22,-2,-34c0,0,-3,-13,-9,-19c0,0,-6,-6,-18,-11c0,0,-12,-4,-28,-8c0,0,-15,-3,-32,-5c0,0,-17,-3,-34,-3Z"
id="f1_bf"
transform="scale(0.001,-0.001)"/>

<path d="M321,82c0,0,48,0,90,25c0,0,41,24,87,75V325H392c0,0,-50,0,-88,-9c0,0,-37,-9,-62,-25c0,0,-24,-17,-36,-41c0,0,-11,-23,-11,-54c0,0,0,-52,33,-83c0,0,33,-31,93,-31ZM301,-13c0,0,-53,0,-96,13c0,0,-43,14,-73,40c0,0,-30,26,-47,64c0,0,-17,38,-17,87c0,0,0,56,24,98c0,0,23,42,66,69c0,0,43,28,106,42c0,0,63,14,141,14h93v52c0,0,0,39,-9,69c0,0,-8,30,-26,50c0,0,-18,20,-47,30c0,0,-30,10,-72,10c0,0,-46,0,-82,-11c0,0,-36,-11,-63,-24c0,0,-27,-13,-46,-24c0,0,-18,-11,-27,-11c0,0,-6,0,-10,3c0,0,-5,3,-8,9c0,0,-3,6,-5,16c0,0,-1,9,-1,20c0,0,0,19,2,30c0,0,3,11,13,20c0,0,10,10,35,23c0,0,24,13,56,24c0,0,32,10,70,17c0,0,38,8,77,8c0,0,73,0,123,-17c0,0,51,-16,82,-48c0,0,32,-32,46,-79c0,0,14,-47,14,-110V18c0,0,0,-9,-6,-14c0,0,-6,-4,-16,-6c0,0,-11,-2,-31,-2c0,0,-19,0,-31,2c0,0,-12,2,-17,6c0,0,-5,5,-5,13V85c0,0,-44,-47,-98,-73c0,0,-54,-25,-115,-25Z"
id="f1_77"
transform="scale(0.001,-0.001)"/>

<path d="M69,-215c0,0,-12,0,-21,1c0,0,-8,1,-12,4c0,0,-4,2,-4,7c0,0,-1,4,2,10L134,11v96c0,0,0,20,4,32c0,0,4,12,13,18c0,0,9,6,22,8c0,0,13,2,33,2c0,0,19,0,32,-2c0,0,13,-2,22,-8c0,0,9,-6,13,-18c0,0,4,-12,4,-32c0,0,0,-23,-2,-43c0,0,-3,-19,-8,-36c0,0,-5,-17,-14,-33c0,0,-8,-17,-21,-36L130,-194c0,0,-4,-5,-9,-9c0,0,-5,-4,-12,-7c0,0,-7,-3,-16,-4c0,0,-9,-1,-24,-1Z"
id="f1_nq"
transform="scale(0.001,-0.001)"/>

<path d="M192,-4c0,0,-18,0,-30,2c0,0,-13,2,-20,3c0,0,-8,3,-11,8c0,0,-3,4,-3,10V946c0,0,0,6,3,11c0,0,4,4,12,7c0,0,7,2,20,4c0,0,12,2,29,2c0,0,19,0,31,-2c0,0,13,-2,20,-4c0,0,7,-3,10,-7c0,0,3,-5,3,-11V19c0,0,0,-6,-3,-10c0,0,-3,-5,-10,-8c0,0,-7,-1,-20,-3c0,0,-12,-2,-31,-2Z"
id="f1_1c"
transform="scale(0.001,-0.001)"/>

<path d="M176,-4c0,0,-18,0,-30,2c0,0,-12,1,-19,3c0,0,-7,3,-10,7c0,0,-3,4,-3,10V690c0,0,0,6,3,10c0,0,2,4,9,7c0,0,6,4,17,5c0,0,10,1,27,1c0,0,17,0,28,-1c0,0,10,-1,16,-5c0,0,6,-3,9,-7c0,0,3,-4,3,-10V601c0,0,56,64,110,94c0,0,53,30,108,30c0,0,42,0,75,-10c0,0,33,-10,58,-28c0,0,26,-17,44,-42c0,0,18,-24,30,-55c0,0,33,37,63,63c0,0,31,26,59,41c0,0,28,16,54,23c0,0,27,8,53,8c0,0,65,0,109,-23c0,0,44,-23,71,-61c0,0,28,-38,39,-89c0,0,12,-52,12,-108V18c0,0,0,-6,-3,-10c0,0,-3,-4,-10,-7c0,0,-7,-2,-19,-3c0,0,-12,-2,-29,-2c0,0,-19,0,-31,2c0,0,-12,1,-19,3c0,0,-7,3,-10,7c0,0,-3,4,-3,10V427c0,0,0,43,-8,78c0,0,-7,35,-23,61c0,0,-17,25,-42,38c0,0,-25,14,-60,14c0,0,-42,0,-85,-33c0,0,-43,-33,-94,-96V18c0,0,0,-6,-3,-10c0,0,-3,-4,-11,-7c0,0,-7,-2,-19,-3c0,0,-11,-2,-29,-2c0,0,-18,0,-30,2c0,0,-12,1,-19,3c0,0,-7,3,-10,7c0,0,-3,4,-3,10V427c0,0,0,43,-8,78c0,0,-8,35,-24,61c0,0,-17,25,-42,38c0,0,-25,14,-59,14c0,0,-43,0,-86,-33c0,0,-44,-33,-95,-96V18c0,0,0,-6,-3,-10c0,0,-2,-4,-9,-7c0,0,-7,-2,-19,-3c0,0,-12,-2,-30,-2Z"
id="f1_ae"
transform="scale(0.001,-0.001)"/>

<path d="M176,-4c0,0,-18,0,-30,2c0,0,-12,1,-19,3c0,0,-7,3,-10,7c0,0,-3,4,-3,10V690c0,0,0,5,3,9c0,0,3,5,10,8c0,0,7,3,19,4c0,0,12,2,30,2c0,0,18,0,30,-2c0,0,12,-1,19,-4c0,0,7,-3,9,-8c0,0,3,-4,3,-9V18c0,0,0,-6,-3,-10c0,0,-2,-4,-9,-7c0,0,-7,-2,-19,-3c0,0,-12,-2,-30,-2Zm-1,846c0,0,-43,0,-59,15c0,0,-16,15,-16,58c0,0,0,43,16,59c0,0,17,16,61,16c0,0,43,0,59,-16c0,0,16,-15,16,-58c0,0,0,-43,-16,-58c0,0,-17,-16,-61,-16Z"
id="f1_9q"
transform="scale(0.001,-0.001)"/>

<path d="M176,-4c0,0,-18,0,-30,2c0,0,-12,1,-19,3c0,0,-7,3,-10,7c0,0,-3,4,-3,10v997c0,0,0,6,3,11c0,0,3,4,10,7c0,0,7,3,19,5c0,0,12,1,30,1c0,0,18,0,30,-1c0,0,12,-2,19,-5c0,0,7,-3,9,-7c0,0,3,-5,3,-11V18c0,0,0,-6,-3,-10c0,0,-2,-4,-9,-7c0,0,-7,-2,-19,-3c0,0,-12,-2,-30,-2Z"
id="f1_a8"
transform="scale(0.001,-0.001)"/>

<path d="M192,-4c0,0,-18,0,-30,2c0,0,-13,2,-20,3c0,0,-8,3,-11,8c0,0,-3,4,-3,10V946c0,0,0,6,3,11c0,0,3,4,11,7c0,0,7,2,20,4c0,0,12,2,30,2c0,0,19,0,31,-2c0,0,13,-2,20,-4c0,0,7,-3,10,-7c0,0,3,-5,3,-11V559H696V946c0,0,0,6,3,10c0,0,3,5,10,8c0,0,8,2,20,4c0,0,11,2,31,2c0,0,18,0,30,-2c0,0,12,-2,20,-4c0,0,7,-3,10,-7c0,0,3,-5,3,-11V19c0,0,0,-6,-3,-10c0,0,-3,-5,-10,-8c0,0,-8,-1,-20,-3c0,0,-12,-2,-30,-2c0,0,-20,0,-31,2c0,0,-12,2,-20,3c0,0,-7,3,-10,8c0,0,-3,4,-3,10V448H256V19c0,0,0,-6,-3,-10c0,0,-3,-5,-10,-8c0,0,-7,-1,-20,-3c0,0,-12,-2,-31,-2Z"
id="f1_19"
transform="scale(0.001,-0.001)"/>

<path d="M372,-4c0,0,-18,0,-30,2c0,0,-13,2,-21,3c0,0,-7,3,-10,8c0,0,-3,4,-3,10V857H36c0,0,-6,0,-11,3c0,0,-5,2,-8,9c0,0,-2,6,-4,17c0,0,-2,10,-2,24c0,0,0,14,2,25c0,0,2,11,4,17c0,0,3,7,8,10c0,0,5,3,11,3H708c0,0,6,0,11,-3c0,0,5,-3,8,-10c0,0,4,-6,5,-17c0,0,2,-11,2,-25c0,0,0,-14,-2,-24c0,0,-1,-11,-5,-17c0,0,-3,-7,-8,-9c0,0,-5,-3,-11,-3H436V19c0,0,0,-6,-3,-10c0,0,-3,-5,-10,-8c0,0,-8,-1,-20,-3c0,0,-12,-2,-31,-2Z"
id="f1_2t"
transform="scale(0.001,-0.001)"/>

<path d="M176,0c0,0,-17,0,-33,12c0,0,-15,11,-15,40V946c0,0,0,6,3,11c0,0,3,4,11,7c0,0,7,2,20,4c0,0,12,2,30,2c0,0,19,0,31,-2c0,0,13,-2,20,-4c0,0,7,-3,10,-7c0,0,3,-5,3,-11V111H603c0,0,6,0,11,-3c0,0,5,-3,8,-10c0,0,4,-6,5,-16c0,0,2,-11,2,-26c0,0,0,-15,-2,-25c0,0,-1,-10,-5,-17c0,0,-3,-7,-8,-11c0,0,-5,-3,-11,-3Z"
id="f1_1r"
transform="scale(0.001,-0.001)"/>

<path d="M346,-177c0,0,56,0,94,11c0,0,37,11,60,28c0,0,24,18,34,41c0,0,10,23,10,49c0,0,0,43,-36,65c0,0,-35,23,-95,25L239,48c0,0,-24,-19,-39,-35c0,0,-15,-16,-24,-31c0,0,-9,-16,-12,-30c0,0,-4,-15,-4,-31c0,0,0,-48,49,-73c0,0,50,-25,137,-25Zm-6,512c0,0,36,0,63,12c0,0,27,12,44,32c0,0,18,21,26,48c0,0,9,27,9,56c0,0,0,69,-38,107c0,0,-37,39,-107,39c0,0,-35,0,-62,-12c0,0,-26,-12,-44,-33c0,0,-17,-21,-26,-48c0,0,-8,-28,-8,-58c0,0,0,-66,37,-104c0,0,38,-39,106,-39Zm0,-606c0,0,-81,0,-138,14c0,0,-57,14,-94,38c0,0,-36,24,-52,57c0,0,-17,33,-17,72c0,0,0,24,6,47c0,0,6,24,18,43c0,0,13,21,31,40c0,0,18,19,42,38c0,0,-36,19,-54,47c0,0,-17,28,-17,61c0,0,0,45,18,81c0,0,19,36,46,64c0,0,-23,28,-36,62c0,0,-14,35,-14,84c0,0,0,58,20,104c0,0,19,45,53,77c0,0,35,31,83,48c0,0,48,17,105,17c0,0,30,0,57,-4c0,0,26,-3,49,-9H649c0,0,13,0,19,-12c0,0,7,-13,7,-38c0,0,0,-26,-7,-37c0,0,-7,-12,-19,-12H553c0,0,26,-27,37,-60c0,0,10,-32,10,-68c0,0,0,-58,-18,-103c0,0,-19,-45,-54,-76c0,0,-34,-31,-82,-47c0,0,-48,-16,-106,-16c0,0,-41,0,-78,10c0,0,-37,11,-57,28c0,0,-14,-14,-22,-31c0,0,-9,-17,-9,-39c0,0,0,-27,24,-44c0,0,25,-17,65,-18l175,-8c0,0,50,-1,92,-14c0,0,41,-12,72,-35c0,0,31,-22,48,-55c0,0,17,-34,17,-76c0,0,0,-47,-20,-88c0,0,-19,-42,-59,-74c0,0,-40,-31,-102,-50c0,0,-61,-18,-146,-18Z"
id="f1_9d"
transform="scale(0.001,-0.001)"/>

<path d="M192,-4c0,0,-18,0,-30,2c0,0,-13,2,-20,3c0,0,-8,3,-11,8c0,0,-3,5,-3,10V913c0,0,0,29,15,40c0,0,16,12,33,12H610c0,0,5,0,10,-3c0,0,5,-3,9,-10c0,0,4,-6,5,-17c0,0,2,-11,2,-25c0,0,0,-14,-2,-24c0,0,-1,-11,-5,-17c0,0,-4,-7,-9,-9c0,0,-5,-3,-10,-3H256V528H591c0,0,5,0,10,-3c0,0,5,-2,8,-8c0,0,4,-6,6,-16c0,0,1,-10,1,-26c0,0,0,-14,-1,-24c0,0,-2,-10,-6,-17c0,0,-3,-6,-8,-9c0,0,-5,-4,-10,-4H256V19c0,0,0,-5,-3,-10c0,0,-3,-5,-10,-8c0,0,-7,-1,-19,-3c0,0,-12,-2,-32,-2Z"
id="f1_13"
transform="scale(0.001,-0.001)"/>

<path d="M388,108c0,0,93,0,156,23c0,0,64,23,106,71c0,0,43,47,64,119c0,0,21,72,21,171c0,0,0,78,-19,145c0,0,-20,68,-61,117c0,0,-41,49,-105,77c0,0,-63,28,-163,28H256V108ZM176,0c0,0,-17,0,-33,12c0,0,-15,11,-15,40V913c0,0,0,29,15,41c0,0,16,11,33,11H394c0,0,126,0,212,-32c0,0,87,-33,145,-94c0,0,59,-60,89,-147c0,0,30,-86,30,-195c0,0,0,-126,-32,-219c0,0,-32,-94,-93,-155c0,0,-62,-62,-151,-92C594,31,504,0,380,0Z"
id="f1_p"
transform="scale(0.001,-0.001)"/>

<path d="M176,-4c0,0,-18,0,-30,2c0,0,-12,1,-19,3c0,0,-7,3,-10,7c0,0,-3,4,-3,10v997c0,0,0,6,3,11c0,0,3,4,10,7c0,0,7,3,19,5c0,0,12,1,30,1c0,0,18,0,30,-1c0,0,12,-2,19,-5c0,0,7,-3,9,-7c0,0,3,-5,3,-10V614c0,0,53,56,107,83c0,0,54,28,108,28c0,0,67,0,113,-23c0,0,46,-23,74,-61c0,0,29,-38,41,-89c0,0,12,-52,12,-124V18c0,0,0,-6,-3,-10c0,0,-3,-4,-9,-7c0,0,-7,-2,-19,-3c0,0,-12,-2,-30,-2c0,0,-19,0,-30,2c0,0,-12,1,-19,3c0,0,-7,3,-10,7c0,0,-3,4,-3,10V412c0,0,0,58,-9,93c0,0,-9,35,-26,61c0,0,-17,25,-44,38c0,0,-27,14,-63,14c0,0,-46,0,-93,-33c0,0,-46,-33,-97,-96V18c0,0,0,-6,-3,-10c0,0,-2,-4,-9,-7c0,0,-7,-2,-19,-3c0,0,-12,-2,-30,-2Z"
id="f1_9n"
transform="scale(0.001,-0.001)"/>

<path d="M128,0c0,0,-11,0,-19,3c0,0,-8,2,-13,8c0,0,-6,6,-8,17c0,0,-3,11,-3,28c0,0,0,15,1,26c0,0,1,11,5,20c0,0,4,8,9,17c0,0,6,8,15,18L302,336c0,0,65,68,104,123c0,0,39,54,61,99c0,0,21,45,28,81c0,0,6,37,6,69c0,0,0,32,-10,61c0,0,-11,29,-30,50c0,0,-20,22,-50,35c0,0,-30,12,-69,12c0,0,-45,0,-81,-12c0,0,-37,-13,-64,-28c0,0,-27,-15,-45,-27c0,0,-19,-13,-28,-13c0,0,-5,0,-9,3c0,0,-4,3,-7,10c0,0,-2,6,-4,18c0,0,-1,11,-1,26c0,0,0,12,0,20c0,0,1,8,3,14c0,0,2,6,5,11c0,0,3,5,12,13c0,0,9,8,31,21c0,0,22,14,55,27c0,0,33,13,73,22c0,0,40,9,84,9c0,0,70,0,123,-20c0,0,53,-20,87,-54c0,0,35,-34,52,-80c0,0,17,-46,17,-97c0,0,0,-46,-8,-92c0,0,-8,-46,-35,-99c0,0,-26,-54,-76,-119c0,0,-50,-65,-133,-151L240,109H660c0,0,6,0,12,-4c0,0,5,-3,9,-10c0,0,5,-7,6,-17c0,0,2,-10,2,-23c0,0,0,-13,-2,-24c0,0,-1,-10,-5,-17c0,0,-3,-7,-9,-11c0,0,-5,-3,-12,-3Z"
id="f1_rz"
transform="scale(0.001,-0.001)"/>

<path d="M145,-13c0,0,-21,0,-41,4c0,0,-21,3,-38,9C66,0,49,5,36,11c0,0,-12,7,-17,11c0,0,-4,5,-6,9c0,0,-3,4,-5,11C8,42,6,48,6,57C6,57,5,67,5,80c0,0,0,16,1,27c0,0,1,11,4,17c0,0,3,7,7,9c0,0,4,3,10,3c0,0,6,0,16,-6c0,0,9,-5,22,-12c0,0,13,-7,30,-13c0,0,17,-5,41,-5c0,0,25,0,43,6c0,0,18,6,30,24c0,0,12,17,18,47c0,0,6,30,6,79V947c0,0,0,5,3,10c0,0,3,4,10,7c0,0,8,3,20,4c0,0,12,2,31,2c0,0,18,0,30,-2c0,0,13,-1,20,-4c0,0,7,-3,11,-7c0,0,3,-5,3,-10V243c0,0,0,-57,-10,-105c0,0,-11,-48,-36,-82C315,56,289,23,248,5c0,0,-42,-18,-103,-18Z"
id="f1_1n"
transform="scale(0.001,-0.001)"/>

<path d="M366,92c0,0,25,0,48,7c0,0,22,6,46,22c0,0,24,16,50,41c0,0,26,24,56,61V492c0,0,-51,62,-97,94c0,0,-47,33,-98,33c0,0,-47,0,-79,-22c0,0,-33,-23,-54,-59c0,0,-20,-37,-30,-83c0,0,-9,-47,-9,-94c0,0,0,-51,8,-100c0,0,8,-48,27,-86c0,0,19,-38,52,-60c0,0,32,-23,80,-23ZM345,-13c0,0,-74,0,-127,28c0,0,-52,29,-84,78c0,0,-33,49,-48,115c0,0,-15,66,-15,139c0,0,0,86,19,156c0,0,19,70,55,119c0,0,37,50,91,76c0,0,54,27,125,27c0,0,59,0,108,-26c0,0,49,-26,97,-76v390c0,0,0,5,2,10c0,0,3,4,10,7c0,0,8,3,19,5c0,0,12,1,30,1c0,0,18,0,30,-1c0,0,12,-2,19,-5c0,0,7,-3,10,-7c0,0,3,-5,3,-10V18c0,0,0,-6,-2,-10c0,0,-3,-5,-9,-7c0,0,-7,-2,-17,-3c0,0,-10,-2,-25,-2c0,0,-16,0,-26,2c0,0,-11,1,-18,3c0,0,-6,2,-9,7c0,0,-3,4,-3,10v90c0,0,-53,-58,-110,-90c0,0,-58,-31,-125,-31Z"
id="f1_7v"
transform="scale(0.001,-0.001)"/>

<path d="M176,0c0,0,-17,0,-33,12c0,0,-15,11,-15,40V913c0,0,0,29,15,41c0,0,16,11,33,11H635c0,0,6,0,10,-3c0,0,5,-3,8,-10c0,0,3,-6,5,-16c0,0,2,-10,2,-25c0,0,0,-14,-2,-24c0,0,-2,-10,-5,-16c0,0,-3,-7,-8,-10c0,0,-4,-2,-10,-2H256V555H581c0,0,6,0,11,-3c0,0,5,-3,8,-9c0,0,3,-6,5,-17c0,0,1,-10,1,-24c0,0,0,-14,-1,-23c0,0,-2,-10,-5,-16c0,0,-3,-6,-8,-9c0,0,-5,-2,-11,-2H256V107H640c0,0,6,0,11,-3c0,0,4,-3,8,-10c0,0,4,-6,5,-16c0,0,2,-10,2,-25c0,0,0,-14,-2,-24c0,0,-1,-10,-5,-16c0,0,-4,-7,-8,-10c0,0,-5,-3,-11,-3Z"
id="f1_t"
transform="scale(0.001,-0.001)"/>

<path d="M372,472c0,0,58,0,97,15c0,0,38,15,65,42c0,0,26,26,39,63c0,0,14,37,14,80c0,0,0,59,-22,99c0,0,-23,39,-55,59c0,0,-32,19,-67,24c0,0,-35,5,-68,5H256V472ZM192,-4c0,0,-18,0,-31,2c0,0,-12,2,-19,3c0,0,-8,3,-11,8c0,0,-3,4,-3,10V910c0,0,0,30,16,42c0,0,15,13,35,13H386c0,0,31,0,60,-3c0,0,28,-2,68,-11c0,0,39,-8,80,-32c0,0,40,-23,69,-58c0,0,28,-34,43,-79c0,0,16,-45,16,-100c0,0,0,-72,-24,-130c0,0,-24,-58,-69,-100c0,0,-44,-41,-109,-63c0,0,-64,-22,-154,-22H256V19c0,0,0,-6,-3,-10c0,0,-3,-5,-10,-8c0,0,-7,-1,-20,-3c0,0,-12,-2,-31,-2Z"
id="f1_2g"
transform="scale(0.001,-0.001)"/>

<path d="M343,-13c0,0,-49,0,-91,8c0,0,-42,7,-75,18c0,0,-33,11,-54,22c0,0,-22,12,-27,17c0,0,-6,5,-9,10c0,0,-3,5,-5,13c0,0,-3,7,-4,18c0,0,-1,11,-1,27c0,0,0,26,5,37c0,0,6,10,15,10c0,0,7,0,27,-12c0,0,20,-12,51,-25c0,0,31,-14,72,-26c0,0,41,-12,92,-12c0,0,49,0,87,13c0,0,37,12,62,35c0,0,26,24,39,55c0,0,12,32,12,69c0,0,0,41,-16,74c0,0,-16,33,-47,57c0,0,-31,24,-76,36c0,0,-45,13,-103,13H206c0,0,-6,0,-12,3c0,0,-6,2,-10,8c0,0,-4,6,-6,16c0,0,-3,10,-3,25c0,0,0,14,2,24c0,0,2,9,7,15c0,0,4,5,9,8c0,0,5,3,12,3h84c0,0,49,0,89,12c0,0,39,13,66,37c0,0,27,24,42,57c0,0,14,33,14,74c0,0,0,30,-9,57c0,0,-10,28,-30,48c0,0,-19,20,-49,32c0,0,-31,11,-70,11c0,0,-43,0,-80,-13c0,0,-36,-13,-64,-28c0,0,-29,-15,-47,-28c0,0,-19,-13,-26,-13c0,0,-6,0,-10,2c0,0,-4,2,-6,7c0,0,-3,6,-4,16c0,0,-1,10,-1,26c0,0,0,12,0,20c0,0,1,9,3,15c0,0,3,6,6,12c0,0,3,5,10,12c0,0,7,7,28,20c0,0,22,14,54,27c0,0,32,13,73,22c0,0,41,9,89,9c0,0,67,0,118,-17c0,0,51,-18,85,-49c0,0,34,-31,51,-75c0,0,17,-44,17,-97c0,0,0,-45,-12,-84c0,0,-12,-39,-35,-70c0,0,-24,-30,-57,-51c0,0,-34,-21,-78,-30v-1c0,0,50,-5,92,-25c0,0,41,-20,71,-50c0,0,30,-29,47,-69c0,0,16,-40,16,-86c0,0,0,-66,-23,-119c0,0,-23,-54,-66,-92C593,65,550,27,486,7c0,0,-63,-20,-143,-20Z"
id="f1_s0"
transform="scale(0.001,-0.001)"/>

<path d="M429,92c0,0,47,0,80,22c0,0,33,23,54,60c0,0,20,38,30,84c0,0,10,46,10,93c0,0,0,52,-8,100c0,0,-8,48,-27,86c0,0,-19,37,-51,60c0,0,-32,22,-80,22c0,0,-24,0,-47,-7c0,0,-23,-7,-47,-23c0,0,-24,-15,-50,-40c0,0,-26,-25,-56,-62V220c0,0,51,-62,97,-95c0,0,45,-33,95,-33ZM176,-271c0,0,-18,0,-30,2c0,0,-12,1,-19,4c0,0,-7,3,-10,8c0,0,-3,4,-3,10V690c0,0,0,6,3,10c0,0,2,5,9,8c0,0,6,3,17,4c0,0,10,1,25,1c0,0,16,0,26,-1c0,0,10,-1,17,-4c0,0,6,-3,9,-7c0,0,3,-4,3,-11V601c0,0,30,31,59,54c0,0,28,23,57,39c0,0,28,15,59,23c0,0,30,8,63,8c0,0,74,0,125,-29c0,0,52,-28,84,-77c0,0,32,-50,47,-115c0,0,15,-65,15,-139c0,0,0,-88,-19,-158c0,0,-19,-70,-56,-119c0,0,-37,-49,-91,-75c0,0,-55,-26,-125,-26c0,0,-30,0,-55,6c0,0,-25,6,-50,18c0,0,-24,13,-48,32c0,0,-24,19,-51,46V-247c0,0,0,-6,-3,-10c0,0,-2,-5,-9,-8c0,0,-7,-3,-19,-4c0,0,-12,-2,-30,-2Z"
id="f1_ay"
transform="scale(0.001,-0.001)"/>

<path d="M60,-208c0,0,-18,0,-31,2c0,0,-12,3,-19,8c0,0,-6,5,-8,12c0,0,-1,7,3,17L457,1067c0,0,3,10,7,16c0,0,5,5,12,8c0,0,7,4,19,5c0,0,11,1,26,1c0,0,19,0,31,-3c0,0,12,-2,19,-7c0,0,6,-4,8,-12c0,0,1,-7,-2,-17L125,-178c0,0,-3,-10,-7,-16c0,0,-5,-5,-13,-8c0,0,-7,-3,-18,-5c0,0,-11,-1,-27,-1Z"
id="f1_od"
transform="scale(0.001,-0.001)"/>

<path d="M324,-4c0,0,-23,0,-37,2c0,0,-15,1,-24,3c0,0,-9,3,-14,8c0,0,-4,6,-7,13L46,660c0,0,-4,11,-5,18c0,0,-2,8,-2,13c0,0,0,7,3,11c0,0,3,4,10,7c0,0,8,2,19,3c0,0,12,1,30,1c0,0,20,0,33,-1c0,0,13,-1,20,-4c0,0,6,-3,9,-8c0,0,3,-4,5,-11L330,136l2,-7l1,7L482,689c0,0,1,7,5,11c0,0,3,5,10,8c0,0,6,3,18,4c0,0,12,1,31,1c0,0,18,0,29,-1c0,0,12,-1,18,-4c0,0,7,-3,10,-7c0,0,3,-5,5,-11L768,136l1,-7l1,7L930,689c0,0,1,7,5,11c0,0,3,5,10,8c0,0,7,3,20,4c0,0,12,1,31,1c0,0,18,0,29,-1c0,0,11,-1,17,-4c0,0,6,-3,9,-6c0,0,3,-4,3,-11c0,0,0,-5,-2,-13c0,0,-1,-7,-5,-18L849,22c0,0,-2,-8,-7,-13c0,0,-5,-6,-13,-9c0,0,-9,-2,-24,-3c0,0,-15,-1,-37,-1c0,0,-23,0,-39,2c0,0,-15,1,-25,3c0,0,-9,3,-14,8c0,0,-4,6,-6,13L543,510l-2,6l-2,-6L409,22c0,0,-3,-8,-7,-13c0,0,-5,-6,-15,-9c0,0,-10,-2,-25,-3c0,0,-15,-1,-38,-1Z"
id="f1_ci"
transform="scale(0.001,-0.001)"/>

<path d="M176,-4c0,0,-18,0,-30,2c0,0,-12,1,-19,3c0,0,-7,3,-10,7c0,0,-3,4,-3,10v997c0,0,0,6,3,11c0,0,3,4,10,7c0,0,7,3,19,5c0,0,12,1,30,1c0,0,18,0,30,-1c0,0,12,-2,19,-5c0,0,7,-3,9,-7c0,0,3,-5,3,-11V408L492,687c0,0,6,7,12,12c0,0,7,5,16,8c0,0,10,4,22,5c0,0,13,1,31,1c0,0,19,0,31,-1c0,0,13,-1,21,-4c0,0,8,-3,11,-7c0,0,3,-4,3,-11c0,0,0,-9,-4,-18c0,0,-5,-8,-16,-20L375,408L648,54c0,0,10,-13,14,-20c0,0,4,-8,4,-15c0,0,0,-6,-3,-10c0,0,-3,-5,-10,-8c0,0,-7,-2,-20,-3c0,0,-13,-2,-32,-2c0,0,-20,0,-33,1c0,0,-13,1,-22,3c0,0,-9,3,-15,7c0,0,-5,5,-10,12L237,391V18c0,0,0,-6,-3,-10c0,0,-2,-4,-9,-7c0,0,-7,-2,-19,-3c0,0,-12,-2,-30,-2Z"
id="f1_a5"
transform="scale(0.001,-0.001)"/>

<path d="M21,-271c0,0,-12,0,-19,11c0,0,-6,11,-6,37c0,0,0,26,6,38c0,0,7,13,19,13H740c0,0,12,0,18,-12c0,0,7,-12,7,-37c0,0,0,-26,-6,-38c0,0,-6,-12,-19,-12Z"
id="f1_or"
transform="scale(0.001,-0.001)"/>

<path d="M469,366l32,248H292L263,366ZM164,-4c0,0,-18,0,-29,1c0,0,-11,1,-17,3c0,0,-6,3,-8,7c0,0,-3,4,-2,9l31,255H52c0,0,-11,0,-18,11c0,0,-7,10,-7,36c0,0,0,13,2,22c0,0,2,9,5,14c0,0,3,6,8,9c0,0,4,3,10,3H152l31,248H93c0,0,-12,0,-19,11c0,0,-7,11,-7,35c0,0,0,26,7,38c0,0,7,11,19,11H194l31,239c0,0,0,6,3,10c0,0,3,4,9,6c0,0,6,3,17,4c0,0,12,2,29,2c0,0,18,0,28,-2c0,0,11,-1,16,-4c0,0,6,-2,7,-6c0,0,2,-4,2,-9L304,709H512l29,239c0,0,1,6,4,10c0,0,3,4,9,6c0,0,5,3,17,4c0,0,11,2,29,2c0,0,17,0,28,-2c0,0,11,-1,16,-4c0,0,5,-2,7,-6c0,0,2,-4,1,-9L622,709h86c0,0,11,0,18,-12c0,0,7,-11,7,-36c0,0,0,-13,-2,-22c0,0,-1,-9,-5,-14c0,0,-3,-6,-8,-8c0,0,-5,-3,-10,-3H610L580,366h87c0,0,11,0,18,-12c0,0,7,-11,7,-36c0,0,0,-13,-2,-22c0,0,-2,-9,-5,-14c0,0,-3,-6,-8,-9c0,0,-5,-2,-10,-2H568L536,16c0,0,0,-5,-3,-9c0,0,-2,-4,-8,-7c0,0,-6,-2,-16,-3c0,0,-11,-1,-28,-1c0,0,-17,0,-28,1c0,0,-11,1,-17,3c0,0,-6,3,-9,7c0,0,-2,4,-1,9l31,255H250L219,16c0,0,-2,-5,-4,-9c0,0,-2,-4,-7,-7c0,0,-6,-2,-16,-3c0,0,-11,-1,-28,-1Z"
id="f1_qg"
transform="scale(0.001,-0.001)"/>

<path d="M526,569c0,0,-36,0,-62,8c0,0,-26,8,-46,21c0,0,-20,13,-35,29c0,0,-16,17,-29,34c0,0,-14,17,-27,32c0,0,-13,15,-26,26c0,0,-13,12,-29,18c0,0,-16,7,-36,7c0,0,-25,0,-43,-11c0,0,-17,-11,-28,-28c0,0,-12,-18,-16,-42c0,0,-5,-23,-5,-49c0,0,0,-13,-13,-17c0,0,-13,-4,-37,-4c0,0,-14,0,-24,1c0,0,-9,2,-15,4c0,0,-5,3,-7,7c0,0,-2,5,-2,10v20c0,0,0,52,14,91c0,0,14,39,40,65c0,0,25,27,60,40c0,0,36,14,78,14c0,0,35,0,61,-8c0,0,26,-8,47,-20c0,0,20,-13,35,-29c0,0,16,-16,29,-33c0,0,14,-17,26,-32c0,0,12,-15,26,-26c0,0,13,-12,29,-19c0,0,16,-6,37,-6c0,0,24,0,42,9c0,0,17,10,28,27c0,0,12,18,17,41c0,0,5,24,5,52c0,0,0,12,12,16c0,0,13,4,36,4c0,0,15,0,24,-1c0,0,10,-1,16,-4c0,0,6,-3,8,-7c0,0,2,-5,2,-11V773c0,0,-2,-51,-19,-89c0,0,-16,-38,-42,-63c0,0,-27,-26,-61,-39c0,0,-34,-13,-70,-13Z"
id="f1_pi"
transform="scale(0.001,-0.001)"/>

<path d="M92,-4c0,0,-22,0,-35,2C57,-2,43,0,37,3c0,0,-7,5,-6,12c0,0,0,7,7,17L247,360L49,675c0,0,-6,11,-6,18c0,0,-1,7,6,12c0,0,7,5,22,6c0,0,14,2,38,2c0,0,22,0,35,-1c0,0,13,-1,20,-4c0,0,8,-2,12,-6c0,0,3,-3,6,-9L335,443L490,693c0,0,3,5,7,9c0,0,4,3,10,6c0,0,7,3,18,4c0,0,12,1,32,1c0,0,21,0,35,-2c0,0,14,-1,21,-5c0,0,7,-4,6,-12c0,0,-1,-7,-8,-19L415,364L622,32c0,0,6,-10,6,-17c0,0,0,-7,-7,-12c0,0,-7,-3,-21,-5c0,0,-15,-2,-38,-2c0,0,-22,0,-35,1c0,0,-13,1,-21,3c0,0,-8,3,-12,7c0,0,-4,4,-7,9L326,282L165,16c0,0,-3,-5,-7,-9c0,0,-4,-4,-12,-7c0,0,-8,-2,-20,-3c0,0,-13,-1,-34,-1Z"
id="f1_cn"
transform="scale(0.001,-0.001)"/>

<path d="M98,233c0,0,-11,0,-19,11c0,0,-9,11,-9,41c0,0,0,28,8,41c0,0,7,12,20,12H662c0,0,13,0,21,-12c0,0,7,-13,7,-41c0,0,0,-30,-8,-41c0,0,-9,-11,-20,-11Zm0,289c0,0,-11,0,-19,12c0,0,-9,11,-9,41c0,0,0,27,8,40c0,0,7,13,20,13H662c0,0,13,0,21,-13c0,0,7,-13,7,-40c0,0,0,-30,-8,-41c0,0,-9,-12,-20,-12Z"
id="f1_ua"
transform="scale(0.001,-0.001)"/>

<path d="M833,72c0,0,30,0,49,11c0,0,19,11,31,33c0,0,11,22,16,53c0,0,5,31,5,71c0,0,0,42,-6,74c0,0,-6,33,-18,55c0,0,-13,21,-33,32c0,0,-20,11,-47,11c0,0,-27,0,-46,-11c0,0,-19,-10,-32,-31c0,0,-12,-21,-18,-52c0,0,-6,-31,-6,-73c0,0,0,-50,7,-84c0,0,7,-34,20,-54c0,0,13,-20,33,-28c0,0,20,-7,45,-7Zm-6,-82c0,0,-54,0,-93,16c0,0,-39,17,-63,50c0,0,-25,32,-37,79c0,0,-11,46,-11,106c0,0,0,54,12,101c0,0,13,46,38,79c0,0,25,34,65,53c0,0,40,20,95,20c0,0,58,0,98,-20c0,0,40,-20,64,-54c0,0,24,-34,34,-80c0,0,9,-45,9,-96c0,0,0,-58,-12,-104c0,0,-13,-47,-39,-81C987,59,961,26,921,7c0,0,-40,-17,-94,-17ZM264,554c0,0,30,0,49,11c0,0,19,12,31,34c0,0,11,22,16,53c0,0,5,31,5,71c0,0,0,42,-6,74c0,0,-6,33,-18,54c0,0,-13,22,-33,33c0,0,-20,10,-48,10c0,0,-26,0,-45,-10c0,0,-20,-10,-32,-31c0,0,-12,-21,-18,-52c0,0,-6,-31,-6,-73c0,0,0,-51,7,-85c0,0,7,-34,20,-53c0,0,13,-20,33,-28c0,0,20,-8,45,-8Zm-6,-83c0,0,-54,0,-93,18c0,0,-39,17,-64,49c0,0,-24,33,-36,79c0,0,-11,47,-11,107c0,0,0,54,12,100c0,0,12,47,38,80c0,0,25,34,65,53c0,0,40,19,94,19c0,0,59,0,99,-20c0,0,40,-20,64,-54c0,0,24,-34,34,-79c0,0,9,-46,9,-96c0,0,0,-58,-12,-105c0,0,-13,-47,-39,-80c0,0,-26,-33,-66,-52c0,0,-40,-19,-94,-19ZM193,-26c0,0,-16,0,-26,3c0,0,-10,3,-14,8c0,0,-5,5,-3,12c0,0,1,6,7,15L828,974c0,0,4,5,9,10c0,0,5,4,13,6c0,0,8,2,18,3c0,0,10,1,26,1c0,0,15,0,25,-2c0,0,11,-3,15,-8c0,0,4,-5,3,-13c0,0,-1,-7,-7,-15L258,-5c0,0,-4,-7,-9,-10c0,0,-5,-3,-13,-6c0,0,-7,-3,-17,-4c0,0,-11,-1,-26,-1Z"
id="f1_u2"
transform="scale(0.001,-0.001)"/>

<path d="M385,92c0,0,42,0,74,13c0,0,31,14,54,39c0,0,23,25,38,60c0,0,15,35,24,77c0,0,9,43,12,92c0,0,3,50,3,103c0,0,0,73,-5,130c0,0,-5,57,-15,101c0,0,-10,44,-26,76c0,0,-16,32,-39,52c0,0,-22,21,-51,30c0,0,-29,9,-64,9c0,0,-64,0,-103,-30c0,0,-40,-29,-63,-82c0,0,-23,-52,-31,-122c0,0,-8,-70,-8,-150c0,0,0,-108,11,-184c0,0,11,-76,36,-123c0,0,24,-48,62,-69c0,0,37,-22,91,-22ZM378,-13c0,0,-91,0,-154,32c0,0,-62,32,-100,95c0,0,-38,63,-54,155c0,0,-16,92,-16,212c0,0,0,110,18,202c0,0,18,92,58,158c0,0,40,66,106,103c0,0,66,36,161,36c0,0,92,0,154,-33c0,0,62,-32,100,-95c0,0,39,-63,55,-155c0,0,16,-92,16,-212c0,0,0,-111,-18,-203c0,0,-17,-91,-58,-157C646,125,605,59,540,22c0,0,-66,-35,-162,-35Z"
id="f1_rx"
transform="scale(0.001,-0.001)"/>

<path d="M482,-11c0,0,-94,0,-170,31c0,0,-76,31,-129,92c0,0,-53,61,-82,151c0,0,-29,90,-29,207c0,0,0,120,31,214c0,0,31,94,87,159c0,0,56,65,134,100c0,0,78,34,173,34c0,0,41,0,81,-8c0,0,39,-8,73,-19c0,0,33,-12,60,-28c0,0,26,-15,36,-25c0,0,10,-10,13,-15c0,0,3,-6,5,-13c0,0,1,-7,3,-17c0,0,1,-9,1,-23c0,0,0,-15,-2,-25c0,0,-1,-11,-4,-18c0,0,-3,-7,-7,-10c0,0,-4,-4,-10,-4c0,0,-11,0,-30,15c0,0,-18,14,-48,32c0,0,-29,17,-71,32c0,0,-42,14,-101,14c0,0,-64,0,-117,-25c0,0,-52,-26,-90,-76c0,0,-37,-50,-57,-122c0,0,-21,-72,-21,-164c0,0,0,-92,20,-163c0,0,20,-70,57,-117c0,0,36,-48,90,-72c0,0,54,-24,122,-24c0,0,57,0,100,14c0,0,43,14,73,32c0,0,30,17,50,31c0,0,19,15,30,15c0,0,5,0,9,-3c0,0,4,-2,6,-8c0,0,2,-7,3,-18c0,0,2,-11,2,-28c0,0,0,-12,-1,-21c0,0,-1,-9,-3,-16c0,0,-2,-6,-5,-12c0,0,-3,-5,-10,-12c0,0,-8,-8,-31,-23c0,0,-24,-15,-60,-30C663,23,628,8,582,-1c0,0,-46,-10,-100,-10Z"
id="f1_j"
transform="scale(0.001,-0.001)"/>

<path d="M346,-4c0,0,-23,0,-38,2c0,0,-15,1,-24,3c0,0,-9,3,-15,8c0,0,-5,6,-8,13L33,660c0,0,-3,9,-5,15c0,0,-2,7,-2,11c0,0,0,3,0,5c0,0,0,6,3,11c0,0,3,4,10,7c0,0,7,2,18,3c0,0,12,1,29,1c0,0,22,0,35,-1c0,0,13,-1,20,-4c0,0,7,-3,10,-8c0,0,4,-4,7,-11L347,135l3,-9l2,9L540,689c0,0,1,7,5,11c0,0,3,5,11,8c0,0,7,3,19,4c0,0,12,1,32,1c0,0,18,0,29,-1c0,0,11,-1,17,-4c0,0,7,-3,9,-7c0,0,3,-4,3,-10c0,0,0,-3,-1,-6c0,0,0,-4,-1,-7c0,0,0,-4,-2,-8c0,0,-1,-5,-2,-10L430,22c0,0,-3,-8,-8,-13c0,0,-5,-6,-15,-9c0,0,-9,-2,-24,-3c0,0,-15,-1,-37,-1Z"
id="f1_ch"
transform="scale(0.001,-0.001)"/>

<path d="M469,327V857h-2L153,327ZM530,-4c0,0,-18,0,-30,2c0,0,-12,1,-19,3c0,0,-7,3,-9,7c0,0,-3,4,-3,10V221H71c0,0,-9,0,-15,2c0,0,-6,2,-11,8c0,0,-5,6,-7,17c0,0,-2,12,-2,30c0,0,0,14,1,25c0,0,1,11,3,20c0,0,2,10,6,18c0,0,4,9,9,18L403,947c0,0,3,6,10,10c0,0,7,5,19,8c0,0,11,3,27,4c0,0,17,1,39,1c0,0,25,0,43,-2c0,0,18,-2,29,-5c0,0,12,-3,18,-8c0,0,6,-4,6,-11V327H702c0,0,13,0,21,-13c0,0,8,-13,8,-40c0,0,0,-25,-8,-39c0,0,-7,-14,-21,-14H594V18c0,0,0,-6,-3,-10c0,0,-3,-4,-11,-7c0,0,-7,-2,-19,-3c0,0,-12,-2,-31,-2Z"
id="f1_s1"
transform="scale(0.001,-0.001)"/>

<path d="M252,-271c0,0,-19,0,-31,2c0,0,-12,2,-18,6c0,0,-7,5,-8,12c0,0,0,8,4,18L292,0c0,0,-7,3,-13,10c0,0,-6,6,-8,14L31,665c0,0,-6,16,-6,25c0,0,0,9,6,14c0,0,6,5,20,7c0,0,13,2,36,2c0,0,22,0,35,-1c0,0,12,-1,20,-4c0,0,7,-3,11,-9c0,0,3,-6,7,-15L351,145h3L539,687c0,0,4,14,10,18c0,0,7,4,19,6c0,0,13,2,37,2c0,0,21,0,34,-2c0,0,14,-2,20,-7c0,0,6,-5,6,-14c0,0,0,-9,-4,-23L420,0L330,-246c0,0,-4,-12,-22,-18c0,0,-19,-7,-56,-7Z"
id="f1_co"
transform="scale(0.001,-0.001)"/>

<path d="M610,-21c0,0,-162,0,-287,63c0,0,-126,65,-194,187c0,0,-68,121,-68,258c0,0,0,145,75,275c0,0,76,129,205,201c0,0,128,71,273,71c0,0,107,0,225,-46c0,0,69,-27,88,-27c0,0,24,0,41,18c0,0,18,17,23,55h29V683H991c0,0,-33,138,-122,211c0,0,-90,73,-203,73c0,0,-95,0,-174,-54c0,0,-79,-55,-116,-143c0,0,-47,-112,-47,-250c0,0,0,-135,34,-247c0,0,35,-111,108,-168c0,0,73,-57,189,-57c0,0,96,0,175,42c0,0,80,41,168,144V146c0,0,-85,-89,-178,-129c0,0,-92,-38,-215,-38Z"
id="f4_13"
transform="scale(0.001,-0.001)"/>

<path d="M381,31c0,0,33,0,56,19c0,0,29,25,38,71c0,0,15,71,15,286c0,0,0,127,-14,174c0,0,-14,48,-42,69c0,0,-19,16,-50,16c0,0,-38,0,-65,-29c0,0,-27,-29,-36,-113c0,0,-8,-85,-8,-235c0,0,0,-80,10,-150c0,0,8,-53,35,-80c0,0,27,-28,61,-28Zm2,-51c0,0,-157,0,-242,110c0,0,-85,110,-85,256c0,0,0,150,87,261c0,0,86,112,238,112c0,0,90,0,169,-47c0,0,78,-47,119,-134c0,0,40,-86,40,-189c0,0,0,-149,-75,-249c0,0,-91,-120,-251,-120Z"
id="f4_2b"
transform="scale(0.001,-0.001)"/>

<path d="M397,69c0,0,65,0,123,103V539c0,0,-55,105,-134,105c0,0,-28,0,-46,-15c0,0,-27,-23,-45,-81c0,0,-17,-58,-17,-178c0,0,0,-132,19,-195c0,0,19,-63,53,-91c0,0,17,-15,47,-15ZM332,-20c0,0,-133,0,-211,119c0,0,-62,97,-62,238c0,0,0,112,38,202c0,0,39,89,107,134c0,0,67,46,145,46c0,0,50,0,88,-20c0,0,39,-19,83,-67V842c0,0,0,80,-7,96c0,0,-8,22,-26,32c0,0,-18,11,-68,11v31H729V209c0,0,0,-81,5,-96c0,0,6,-25,22,-36c0,0,17,-12,58,-15V37L520,-20V90C520,90,467,26,426,3c0,0,-42,-23,-94,-23Z"
id="f4_20"
transform="scale(0.001,-0.001)"/>

<path d="M32,0V26c0,0,46,2,69,27c0,0,14,18,14,92V551c0,0,0,75,-17,95c0,0,-17,21,-66,24v27H325V145c0,0,0,-74,17,-95c0,0,17,-21,68,-24V0ZM220,804c0,0,-48,0,-82,33c0,0,-33,34,-33,82c0,0,0,48,33,82c0,0,34,33,82,33c0,0,48,0,82,-33c0,0,33,-34,33,-82c0,0,0,-48,-34,-82c0,0,-34,-33,-81,-33Z"
id="f4_25"
transform="scale(0.001,-0.001)"/>

<path d="M52,0V26c0,0,44,5,62,29c0,0,13,16,13,97V546c0,0,0,79,-14,98c0,0,-15,20,-61,26v27H336V607c0,0,54,59,104,85c0,0,49,27,106,27c0,0,68,0,113,-38c0,0,44,-38,59,-94c0,0,12,-42,12,-163V152c0,0,0,-81,15,-101c0,0,14,-19,61,-25V0H452V26c0,0,40,6,57,33c0,0,12,19,12,93V462c0,0,0,86,-7,109c0,0,-6,22,-22,35c0,0,-16,12,-36,12c0,0,-64,0,-120,-92V152c0,0,0,-79,15,-100c0,0,15,-20,55,-26V0Z"
id="f4_2a"
transform="scale(0.001,-0.001)"/>

<path d="M393,-277c0,0,104,0,164,28c0,0,59,27,59,77c0,0,0,19,-11,32c0,0,-20,22,-61,30c0,0,-41,8,-218,8c0,0,-76,0,-101,-12c0,0,-42,-23,-42,-63c0,0,0,-38,44,-69c0,0,44,-31,166,-31ZM366,253c0,0,45,0,75,41c0,0,30,41,30,160c0,0,0,134,-33,183c0,0,-24,36,-68,36c0,0,-43,0,-73,-44c0,0,-30,-44,-30,-181c0,0,0,-112,29,-153c0,0,30,-42,70,-42Zm8,-581c0,0,-94,0,-171,18c0,0,-78,18,-112,51c0,0,-33,32,-33,68c0,0,0,34,25,61c0,0,26,28,96,46c0,0,-97,48,-97,132c0,0,0,51,40,100c0,0,39,48,125,84c0,0,-100,36,-145,96c0,0,-44,60,-44,138c0,0,0,103,83,178c0,0,84,75,215,75c0,0,70,0,144,-30H734V607H601c0,0,37,-36,51,-66c0,0,18,-40,18,-85c0,0,0,-74,-42,-129c0,0,-41,-55,-112,-86c0,0,-72,-31,-127,-31c0,0,-5,0,-90,4c0,0,-33,0,-56,-22c0,0,-23,-22,-23,-52c0,0,0,-27,21,-44c0,0,20,-17,66,-17l130,1c0,0,157,0,216,-34c0,0,84,-47,84,-146c0,0,0,-64,-39,-115c0,0,-38,-52,-102,-77c0,0,-96,-36,-222,-36Z"
id="f4_23"
transform="scale(0.001,-0.001)"/>

<path d="M29,0V27H63c0,0,44,0,71,16c0,0,19,11,30,36c0,0,8,18,8,94V839c0,0,0,69,-4,84c0,0,-7,27,-27,41c0,0,-29,21,-78,21H29v27H877V713H850c0,0,-22,109,-61,157c0,0,-39,48,-111,70c0,0,-42,13,-158,13H416V542h20c0,0,97,0,140,60c0,0,44,60,56,178h27V251H632c0,0,-9,87,-38,142c0,0,-29,55,-67,74c0,0,-39,19,-111,19V201c0,0,0,-84,7,-103c0,0,7,-18,26,-30c0,0,20,-12,63,-12h60c0,0,142,0,228,65c0,0,86,66,123,201h28L905,0Z"
id="f4_15"
transform="scale(0.001,-0.001)"/>

<path d="M34,0V26c0,0,51,0,93,28c0,0,42,28,123,147l58,85L188,509c0,0,-59,109,-88,133c0,0,-29,25,-65,28v27H419V669L362,656c0,0,-6,-6,-6,-18c0,0,0,-11,4,-23c0,0,2,-5,20,-40L435,473l27,41c0,0,60,82,60,115c0,0,0,15,-13,26c0,0,-13,11,-47,15v27H710V670c0,0,-46,-2,-85,-28c0,0,-40,-27,-89,-103L460,427L584,198c0,0,62,-121,99,-153c0,0,20,-17,55,-19V0H349V26c0,0,46,4,57,12c0,0,11,9,11,23c0,0,0,21,-24,66L332,240L281,165c0,0,-35,-52,-39,-62c0,0,-6,-14,-6,-25c0,0,0,-17,7,-29c0,0,7,-11,19,-17c0,0,13,-6,45,-6V0Z"
id="f4_2k"
transform="scale(0.001,-0.001)"/>

<path d="M458,424c0,0,0,120,-13,165c0,0,-13,44,-40,67c0,0,-16,14,-42,14c0,0,-39,0,-63,-38c0,0,-44,-66,-44,-182V424ZM358,-20c0,0,-155,0,-235,119c0,0,-64,96,-64,239c0,0,0,174,94,277c0,0,94,104,221,104c0,0,106,0,184,-87c0,0,78,-87,84,-257H259c0,0,7,-139,74,-220c0,0,51,-62,124,-62c0,0,45,0,81,25c0,0,37,25,79,90l25,-16C642,192,585,76,517,28c0,0,-69,-48,-159,-48Z"
id="f4_21"
transform="scale(0.001,-0.001)"/>

<path d="M57,0V26c0,0,45,4,61,25c0,0,16,22,16,113V550c0,0,0,59,-6,76c0,0,-7,21,-22,30c0,0,-14,10,-49,14v27H342l1,-158c0,0,69,109,121,144c0,0,52,36,100,36c0,0,42,0,66,-26c0,0,25,-26,25,-73c0,0,0,-50,-24,-77c0,0,-25,-28,-59,-28c0,0,-39,0,-68,25c0,0,-28,26,-33,29c0,0,-8,4,-17,4c0,0,-22,0,-41,-16c0,0,-31,-26,-46,-73c0,0,-24,-72,-24,-159V122c0,0,0,-42,5,-54c0,0,9,-21,27,-30c0,0,17,-9,59,-12V0Z"
id="f4_2e"
transform="scale(0.001,-0.001)"/>

<path d="M365,-20c0,0,-139,0,-223,105c0,0,-83,105,-83,253c0,0,0,142,76,250c0,0,92,131,253,131c0,0,108,0,172,-55c0,0,63,-54,63,-121c0,0,0,-43,-25,-68c0,0,-26,-25,-68,-25c0,0,-44,0,-73,29c0,0,-28,29,-35,104c0,0,-5,47,-22,65c0,0,-17,19,-40,19c0,0,-36,0,-61,-38c0,0,-39,-58,-39,-176c0,0,0,-99,31,-188c0,0,32,-90,86,-134c0,0,41,-32,97,-32c0,0,36,0,69,17c0,0,33,17,78,65l23,-18C644,163,595,70,521,25c0,0,-73,-45,-156,-45Z"
id="f4_1z"
transform="scale(0.001,-0.001)"/>

<path d="M312,-20c0,0,-50,0,-134,30c0,0,-22,9,-30,9c0,0,-25,0,-41,-37H82L70,232H97c0,0,33,-99,91,-148c0,0,59,-49,111,-49c0,0,35,0,58,22c0,0,22,22,22,54c0,0,0,35,-22,61c0,0,-22,27,-100,80c0,0,-114,79,-147,120c0,0,-49,62,-49,136c0,0,0,80,55,145c0,0,56,66,161,66c0,0,56,0,109,-28c0,0,20,-11,33,-11c0,0,13,0,21,5c0,0,9,6,27,32h26L504,479H477c0,0,-45,106,-94,145c0,0,-48,39,-96,39c0,0,-31,0,-52,-21c0,0,-22,-20,-22,-47c0,0,0,-20,15,-39c0,0,24,-30,133,-105c0,0,110,-74,144,-126c0,0,35,-52,35,-116c0,0,0,-58,-29,-114C511,95,482,39,429,9c0,0,-53,-29,-117,-29Z"
id="f4_2f"
transform="scale(0.001,-0.001)"/>

<path d="M381,81c0,0,99,0,167,24c0,0,68,25,114,75c0,0,45,51,68,128c0,0,23,78,23,184c0,0,0,85,-21,157c0,0,-22,72,-66,124c0,0,-45,52,-112,81c0,0,-68,30,-174,30H232V81ZM183,0c0,0,-14,0,-28,10c0,0,-14,10,-14,37V918c0,0,0,27,14,37c0,0,14,10,28,10H386c0,0,123,0,208,-33c0,0,84,-34,141,-96c0,0,57,-61,87,-147c0,0,29,-86,29,-192c0,0,0,-122,-31,-215c0,0,-31,-93,-90,-155c0,0,-60,-63,-148,-95C582,32,495,0,373,0Z"
id="f5_p"
transform="scale(0.001,-0.001)"/>

<path d="M583,413c0,0,2,107,-49,168c0,0,-52,60,-150,60c0,0,-51,0,-89,-19c0,0,-39,-19,-65,-50c0,0,-26,-32,-41,-73c0,0,-14,-42,-16,-86ZM401,-13c0,0,-79,0,-139,23c0,0,-60,23,-101,69c0,0,-41,46,-63,114c0,0,-21,68,-21,158c0,0,0,86,22,154c0,0,22,68,63,115c0,0,41,48,99,73c0,0,58,25,129,25c0,0,76,0,130,-26c0,0,53,-25,88,-68c0,0,35,-43,51,-100c0,0,16,-57,16,-120V386c0,0,0,-27,-14,-37c0,0,-15,-10,-28,-10H173c0,0,0,-62,12,-113c0,0,13,-51,41,-87c0,0,28,-37,74,-56c0,0,45,-19,111,-19c0,0,47,0,85,8c0,0,37,8,64,18c0,0,27,10,45,18c0,0,17,8,25,8c0,0,4,0,8,-2c0,0,4,-2,6,-7c0,0,2,-5,3,-12c0,0,1,-8,1,-19c0,0,0,-5,0,-10c0,0,-1,-5,-2,-9c0,0,-1,-4,-4,-8c0,0,-2,-3,-6,-7c0,0,-3,-4,-23,-13c0,0,-19,-9,-50,-19c0,0,-32,-9,-73,-15c0,0,-42,-8,-89,-8Z"
id="f5_7z"
transform="scale(0.001,-0.001)"/>

<path d="M168,-4c0,0,-12,0,-21,2c0,0,-9,1,-14,2c0,0,-5,3,-7,6c0,0,-2,4,-2,9V690c0,0,0,5,2,9c0,0,2,3,7,6c0,0,5,3,13,4c0,0,8,1,21,1c0,0,12,0,21,-1c0,0,8,-1,12,-4c0,0,5,-3,7,-6c0,0,2,-4,2,-9V595c0,0,58,65,114,94c0,0,56,29,111,29c0,0,66,0,112,-23c0,0,45,-22,73,-60c0,0,28,-38,40,-89c0,0,13,-51,13,-122V15c0,0,0,-5,-3,-9c0,0,-2,-3,-7,-6c0,0,-4,-1,-13,-2c0,0,-9,-2,-21,-2c0,0,-14,0,-22,2c0,0,-9,1,-14,2c0,0,-5,3,-7,6c0,0,-2,4,-2,9V416c0,0,0,62,-10,102c0,0,-10,39,-29,67c0,0,-19,28,-50,43c0,0,-30,15,-70,15c0,0,-51,0,-103,-36c0,0,-51,-37,-108,-108V15c0,0,0,-5,-2,-9c0,0,-2,-3,-7,-6c0,0,-5,-1,-14,-2c0,0,-8,-2,-22,-2Z"
id="f5_af"
transform="scale(0.001,-0.001)"/>

<path d="M271,-13c0,0,-35,0,-67,6c0,0,-31,5,-56,13c0,0,-26,9,-43,18c0,0,-18,10,-26,17c0,0,-8,8,-12,19c0,0,-3,11,-3,30c0,0,0,10,1,17c0,0,2,7,4,13c0,0,2,5,6,7c0,0,3,3,8,3c0,0,8,0,24,-10c0,0,15,-11,39,-23c0,0,23,-13,56,-23c0,0,32,-10,75,-10c0,0,34,0,62,7c0,0,28,8,49,23c0,0,21,15,33,38c0,0,11,24,11,55c0,0,0,32,-15,53c0,0,-15,22,-39,38c0,0,-24,16,-55,28c0,0,-31,13,-63,26c0,0,-33,13,-64,29c0,0,-31,15,-55,38c0,0,-24,22,-39,53c0,0,-15,32,-15,76c0,0,0,35,13,69c0,0,14,34,42,61c0,0,28,27,72,43c0,0,43,17,103,17c0,0,25,0,50,-4c0,0,25,-5,46,-11c0,0,20,-7,35,-15c0,0,15,-8,23,-14c0,0,8,-6,11,-10c0,0,2,-4,3,-9c0,0,1,-4,2,-11c0,0,1,-6,1,-15c0,0,0,-9,-1,-16c0,0,-1,-7,-4,-12c0,0,-2,-5,-5,-8c0,0,-4,-2,-8,-2c0,0,-6,0,-18,8c0,0,-12,8,-31,18c0,0,-20,10,-46,18c0,0,-27,8,-62,8c0,0,-35,0,-62,-8c0,0,-26,-8,-44,-23c0,0,-17,-15,-25,-35c0,0,-9,-21,-9,-45c0,0,0,-32,15,-55c0,0,15,-22,39,-39c0,0,25,-16,56,-29c0,0,32,-13,64,-25c0,0,33,-13,64,-28c0,0,31,-16,56,-37c0,0,24,-22,39,-52c0,0,15,-30,15,-73c0,0,0,-49,-18,-87c0,0,-18,-39,-51,-65C452,42,419,15,373,1c0,0,-46,-14,-102,-14Z"
id="f5_b5"
transform="scale(0.001,-0.001)"/>

<path d="M322,-253c0,0,-9,0,-16,1c0,0,-8,0,-13,2c0,0,-6,1,-9,4c0,0,-4,2,-6,6c0,0,-41,75,-72,152c0,0,-31,78,-52,157c0,0,-22,81,-33,164c0,0,-11,82,-11,167c0,0,0,84,13,167c0,0,12,83,34,163c0,0,22,81,53,160c0,0,31,78,70,154c0,0,0,2,3,4c0,0,2,2,6,4c0,0,5,2,13,3c0,0,7,1,20,1c0,0,11,0,18,-2c0,0,7,-2,11,-5c0,0,4,-3,5,-8c0,0,0,-4,-2,-10c0,0,-76,-152,-112,-311c0,0,-36,-160,-36,-317c0,0,0,-159,37,-318c0,0,37,-158,109,-312c0,0,3,-7,3,-12c0,0,1,-5,-3,-8c0,0,-3,-3,-10,-5c0,0,-8,-1,-20,-1Z"
id="f5_ov"
transform="scale(0.001,-0.001)"/>

<path d="M136,-253c0,0,-13,0,-21,1c0,0,-7,2,-11,5c0,0,-3,3,-2,8c0,0,1,5,4,12c0,0,72,153,108,311c0,0,36,160,36,319c0,0,0,157,-36,317c0,0,-36,159,-110,311c0,0,-3,6,-2,10c0,0,0,5,4,8c0,0,4,3,11,5c0,0,7,2,19,2c0,0,11,0,19,-1c0,0,8,-1,13,-3c0,0,5,-2,7,-4c0,0,1,-2,3,-4c0,0,76,-151,121,-314c0,0,45,-162,45,-330c0,0,0,-85,-11,-167c0,0,-10,-83,-31,-164c0,0,-21,-79,-52,-157c0,0,-30,-77,-70,-152c0,0,-2,-4,-6,-6c0,0,-4,-3,-9,-4c0,0,-6,-2,-13,-2c0,0,-7,-1,-16,-1Z"
id="f5_ow"
transform="scale(0.001,-0.001)"/>

<path d="M214,-4c0,0,-20,0,-31,3c0,0,-12,3,-20,11c0,0,-7,8,-10,22c0,0,-2,14,-2,35c0,0,0,20,2,34c0,0,3,15,10,22c0,0,8,8,20,12c0,0,11,3,31,3c0,0,19,0,31,-3c0,0,13,-4,20,-12c0,0,7,-7,10,-22c0,0,3,-14,3,-34c0,0,0,-21,-3,-35c0,0,-3,-14,-10,-22c0,0,-7,-8,-20,-11c0,0,-12,-3,-31,-3Zm0,535c0,0,-20,0,-31,3c0,0,-12,4,-20,12c0,0,-7,8,-10,22c0,0,-2,13,-2,34c0,0,0,21,2,35c0,0,3,14,10,22c0,0,8,8,20,11c0,0,11,4,31,4c0,0,19,0,31,-4c0,0,13,-3,20,-11c0,0,7,-8,10,-22c0,0,3,-14,3,-35c0,0,0,-21,-3,-34c0,0,-3,-14,-10,-22c0,0,-7,-8,-20,-12c0,0,-12,-3,-31,-3Z"
id="f5_ns"
transform="scale(0.001,-0.001)"/>

<path d="M366,92c0,0,25,0,48,7c0,0,22,6,46,22c0,0,24,16,50,41c0,0,26,24,56,61V492c0,0,-51,62,-97,94c0,0,-47,33,-98,33c0,0,-47,0,-79,-22c0,0,-33,-23,-54,-59c0,0,-20,-37,-30,-83c0,0,-9,-47,-9,-94c0,0,0,-52,8,-100c0,0,8,-49,27,-86c0,0,19,-38,52,-60c0,0,32,-23,80,-23ZM627,-271c0,0,-18,0,-30,2c0,0,-11,1,-19,4c0,0,-7,3,-10,8c0,0,-2,4,-2,10V97c0,0,-31,-31,-59,-52c0,0,-27,-21,-54,-34c0,0,-27,-12,-54,-18c0,0,-28,-6,-57,-6c0,0,-73,0,-124,28c0,0,-52,29,-84,78c0,0,-33,49,-48,115c0,0,-15,66,-15,139c0,0,0,86,19,156c0,0,19,70,56,119c0,0,37,50,91,76c0,0,54,27,125,27c0,0,30,0,56,-7c0,0,26,-6,52,-20c0,0,25,-14,52,-36c0,0,26,-22,58,-52v80c0,0,0,7,3,11c0,0,3,4,9,7c0,0,7,3,18,4c0,0,10,1,26,1c0,0,15,0,25,-1c0,0,10,-1,17,-4c0,0,6,-3,9,-8c0,0,2,-4,2,-10V-247c0,0,0,-6,-3,-10c0,0,-3,-5,-10,-8c0,0,-7,-3,-19,-4c0,0,-12,-2,-30,-2Z"
id="f1_b0"
transform="scale(0.001,-0.001)"/>

<path d="M321,-256c0,0,-13,0,-23,1c0,0,-10,0,-17,3c0,0,-7,2,-11,5c0,0,-5,3,-7,7c0,0,-40,76,-71,154c0,0,-31,78,-51,157c0,0,-21,81,-32,163c0,0,-10,83,-10,167c0,0,0,84,11,166c0,0,12,82,33,163c0,0,21,81,52,160c0,0,31,78,69,155c0,0,0,3,4,5c0,0,3,2,9,4c0,0,6,3,16,4c0,0,11,1,27,1c0,0,17,0,28,-2c0,0,10,-3,16,-6c0,0,6,-4,7,-10c0,0,1,-6,-2,-13c0,0,-71,-150,-106,-307c0,0,-34,-158,-34,-318c0,0,0,-160,35,-318c0,0,35,-156,103,-308c0,0,4,-9,4,-15c0,0,1,-6,-4,-10c0,0,-6,-4,-16,-6c0,0,-11,-2,-30,-2Z"
id="f1_ov"
transform="scale(0.001,-0.001)"/>

<path d="M142,-256c0,0,-19,0,-30,2c0,0,-11,2,-16,6c0,0,-5,4,-4,10c0,0,0,6,4,15c0,0,69,151,104,308c0,0,35,158,35,318c0,0,0,160,-35,318c0,0,-35,157,-106,307c0,0,-3,7,-2,13c0,0,1,6,7,10c0,0,6,3,16,6c0,0,11,2,28,2c0,0,16,0,26,-1c0,0,10,-1,17,-4c0,0,6,-2,9,-4c0,0,3,-2,5,-5c0,0,76,-153,120,-315c0,0,44,-161,44,-329c0,0,0,-84,-11,-167c0,0,-10,-82,-31,-163c0,0,-21,-79,-51,-157c0,0,-30,-78,-71,-154c0,0,-2,-4,-6,-7c0,0,-5,-3,-12,-5c0,0,-7,-3,-17,-3c0,0,-9,-1,-23,-1Z"
id="f1_ow"
transform="scale(0.001,-0.001)"/>

<path d="M398,90c0,0,48,0,83,17c0,0,35,18,58,49c0,0,23,30,34,67c0,0,11,38,11,78c0,0,0,43,-8,78c0,0,-9,36,-29,60c0,0,-20,25,-54,38c0,0,-33,14,-83,14c0,0,-27,0,-55,-5c0,0,-28,-5,-53,-13c0,0,-26,-9,-49,-21c0,0,-24,-11,-43,-25c0,0,0,-96,12,-161c0,0,12,-65,36,-104c0,0,23,-39,58,-56c0,0,35,-16,82,-16ZM386,-13c0,0,-60,0,-106,14c0,0,-47,15,-81,42c0,0,-34,28,-57,68c0,0,-23,40,-36,92c0,0,-14,51,-20,113c0,0,-6,61,-6,131c0,0,0,62,7,125c0,0,6,64,23,123c0,0,18,58,47,110c0,0,29,52,74,91c0,0,44,38,106,60c0,0,62,23,144,23c0,0,28,0,56,-4c0,0,28,-3,52,-9c0,0,24,-5,41,-12c0,0,16,-7,21,-11c0,0,5,-4,8,-9c0,0,3,-4,4,-10c0,0,2,-6,2,-13c0,0,1,-7,1,-17c0,0,0,-14,0,-23c0,0,-1,-10,-3,-16c0,0,-3,-6,-7,-9c0,0,-4,-3,-11,-3c0,0,-8,0,-22,5c0,0,-14,5,-34,12c0,0,-21,6,-49,11c0,0,-29,6,-67,6c0,0,-69,0,-119,-29c0,0,-50,-28,-82,-76c0,0,-32,-48,-47,-111c0,0,-15,-63,-18,-131c0,0,20,11,44,22c0,0,24,11,53,20c0,0,29,9,61,15c0,0,32,5,68,5c0,0,79,0,132,-21c0,0,54,-21,87,-59c0,0,34,-38,48,-89c0,0,14,-51,14,-110c0,0,0,-64,-19,-123c0,0,-20,-59,-60,-105C635,85,595,40,533,13c0,0,-62,-26,-147,-26Z"
id="f1_s3"
transform="scale(0.001,-0.001)"/>

</defs>
<g fill="#000000"  clip-path="url(#c0)">
<use xlink:href="#f1_2j" transform="matrix(12,0,0,12,137.6,130.2)"/>
<use xlink:href="#f1_7z" transform="matrix(12,0,0,12,147.1,130.2)"/>
<use xlink:href="#f1_89" transform="matrix(12,0,0,12,155.9,130.2)"/>
<use xlink:href="#f1_7z" transform="matrix(12,0,0,12,161,130.2)"/>
<use xlink:href="#f1_b1" transform="matrix(12,0,0,12,170.2,130.2)"/>
<use xlink:href="#f1_7z" transform="matrix(12,0,0,12,176.4,130.2)"/>
<use xlink:href="#f1_af" transform="matrix(12,0,0,12,185.6,130.2)"/>
<use xlink:href="#f1_7l" transform="matrix(12,0,0,12,195.1,130.2)"/>
<use xlink:href="#f1_7z" transform="matrix(12,0,0,12,202.8,130.2)"/>
<use xlink:href="#f1_ns" transform="matrix(12,0,0,12,212,130.2)"/>
<use xlink:href="#f1_ox" transform="matrix(12,0,0,12,137.6,157.7)"/>
<use xlink:href="#f1_ry" transform="matrix(12,0,0,12,143.1,157.7)"/>
<use xlink:href="#f1_oy" transform="matrix(12,0,0,12,152.2,157.7)"/>
<use xlink:href="#f1_3f" transform="matrix(12,0,0,12,161.8,157.7)"/>
<use xlink:href="#f1_nt" transform="matrix(12,0,0,12,168.7,157.7)"/>
<use xlink:href="#f1_2n" transform="matrix(12,0,0,12,173.5,157.7)"/>
<use xlink:href="#f1_nt" transform="matrix(12,0,0,12,181.9,157.7)"/>
<use xlink:href="#f1_5" transform="matrix(12,0,0,12,190.7,157.7)"/>
<use xlink:href="#f1_7k" transform="matrix(12,0,0,12,201.3,157.7)"/>
<use xlink:href="#f1_c6" transform="matrix(12,0,0,12,210.9,157.7)"/>
<use xlink:href="#f1_oj" transform="matrix(12,0,0,12,220.5,157.7)"/>
<use xlink:href="#f1_1x" transform="matrix(12,0,0,12,226,157.7)"/>
<use xlink:href="#f1_am" transform="matrix(12,0,0,12,241.7,157.7)"/>
<use xlink:href="#f1_b5" transform="matrix(12,0,0,12,251.3,157.7)"/>
<use xlink:href="#f1_bf" transform="matrix(12,0,0,12,258.2,157.7)"/>
<use xlink:href="#f1_77" transform="matrix(12,0,0,12,264.1,157.7)"/>
<use xlink:href="#f1_89" transform="matrix(12,0,0,12,272.9,157.7)"/>
<use xlink:href="#f1_77" transform="matrix(12,0,0,12,278,157.7)"/>
<use xlink:href="#f1_nq" transform="matrix(12,0,0,12,287.2,157.7)"/>
<use xlink:href="#f1_1x" transform="matrix(12,0,0,12,295.6,157.7)"/>
<use xlink:href="#f1_nt" transform="matrix(12,0,0,12,311.5,157.7)"/>
<use xlink:href="#f1_1x" transform="matrix(12,0,0,12,320.3,157.7)"/>
<use xlink:href="#f1_nt" transform="matrix(12,0,0,12,336,157.7)"/>
<use xlink:href="#f1_1c" transform="matrix(12,0,0,12,344.8,157.7)"/>
<use xlink:href="#f1_b5" transform="matrix(12,0,0,12,349.6,157.7)"/>
<use xlink:href="#f1_ae" transform="matrix(12,0,0,12,356.9,157.7)"/>
<use xlink:href="#f1_77" transform="matrix(12,0,0,12,371.5,157.7)"/>
<use xlink:href="#f1_9q" transform="matrix(12,0,0,12,380.3,157.7)"/>
<use xlink:href="#f1_a8" transform="matrix(12,0,0,12,384.4,157.7)"/>
<use xlink:href="#f1_nq" transform="matrix(12,0,0,12,388.5,157.7)"/>
<use xlink:href="#f1_19" transform="matrix(12,0,0,12,406.1,157.7)"/>
<use xlink:href="#f1_nt" transform="matrix(12,0,0,12,417.5,157.7)"/>
<use xlink:href="#f1_2t" transform="matrix(12,0,0,12,421.1,157.7)"/>
<use xlink:href="#f1_nt" transform="matrix(12,0,0,12,428.1,157.7)"/>
<use xlink:href="#f1_1r" transform="matrix(12,0,0,12,436.9,157.7)"/>
<use xlink:href="#f1_9q" transform="matrix(12,0,0,12,444.6,157.7)"/>
<use xlink:href="#f1_af" transform="matrix(12,0,0,12,448.6,157.7)"/>
<use xlink:href="#f1_nq" transform="matrix(12,0,0,12,458.5,157.7)"/>
<use xlink:href="#f1_1r" transform="matrix(12,0,0,12,467,157.7)"/>
<use xlink:href="#f1_7z" transform="matrix(12,0,0,12,474.7,157.7)"/>
<use xlink:href="#f1_77" transform="matrix(12,0,0,12,483.8,157.7)"/>
<use xlink:href="#f1_b1" transform="matrix(12,0,0,12,492.6,157.7)"/>
<use xlink:href="#f1_af" transform="matrix(12,0,0,12,499.2,157.7)"/>
<use xlink:href="#f1_9q" transform="matrix(12,0,0,12,509.1,157.7)"/>
<use xlink:href="#f1_af" transform="matrix(12,0,0,12,513.1,157.7)"/>
<use xlink:href="#f1_9d" transform="matrix(12,0,0,12,522.6,157.7)"/>
<use xlink:href="#f1_13" transform="matrix(12,0,0,12,535.4,157.7)"/>
<use xlink:href="#f1_b1" transform="matrix(12,0,0,12,543.9,157.7)"/>
<use xlink:href="#f1_am" transform="matrix(12,0,0,12,550.1,157.7)"/>
<use xlink:href="#f1_ae" transform="matrix(12,0,0,12,559.6,157.7)"/>
<use xlink:href="#f1_p" transform="matrix(12,0,0,12,578.3,157.7)"/>
<use xlink:href="#f1_77" transform="matrix(12,0,0,12,589.7,157.7)"/>
<use xlink:href="#f1_bf" transform="matrix(12,0,0,12,598.1,157.7)"/>
<use xlink:href="#f1_77" transform="matrix(12,0,0,12,604,157.7)"/>
<use xlink:href="#f1_nq" transform="matrix(12,0,0,12,613.3,157.7)"/>
<use xlink:href="#f1_77" transform="matrix(12,0,0,12,621.8,157.7)"/>
<use xlink:href="#f1_b5" transform="matrix(12,0,0,12,634.6,157.7)"/>
<use xlink:href="#f1_9n" transform="matrix(12,0,0,12,641.9,157.7)"/>
<use xlink:href="#f1_am" transform="matrix(12,0,0,12,651.4,157.7)"/>
<use xlink:href="#f1_b1" transform="matrix(12,0,0,12,661.3,157.7)"/>
<use xlink:href="#f1_bf" transform="matrix(12,0,0,12,667.6,157.7)"/>
<use xlink:href="#f1_7l" transform="matrix(12,0,0,12,677.8,157.7)"/>
<use xlink:href="#f1_am" transform="matrix(12,0,0,12,685.5,157.7)"/>
<use xlink:href="#f1_c6" transform="matrix(12,0,0,12,695,157.7)"/>
<use xlink:href="#f1_b1" transform="matrix(12,0,0,12,704.6,157.7)"/>
<use xlink:href="#f1_b5" transform="matrix(12,0,0,12,710.8,157.7)"/>
<use xlink:href="#f1_7z" transform="matrix(12,0,0,12,718.1,157.7)"/>
<use xlink:href="#f1_nt" transform="matrix(12,0,0,12,727.4,157.7)"/>
<use xlink:href="#f1_ox" transform="matrix(12,0,0,12,137.6,185.2)"/>
<use xlink:href="#f1_rz" transform="matrix(12,0,0,12,143.1,185.2)"/>
<use xlink:href="#f1_oy" transform="matrix(12,0,0,12,152.2,185.2)"/>
<use xlink:href="#f1_2t" transform="matrix(12,0,0,12,162.1,185.2)"/>
<use xlink:href="#f1_nt" transform="matrix(12,0,0,12,169.1,185.2)"/>
<use xlink:href="#f1_19" transform="matrix(12,0,0,12,173.9,185.2)"/>
<use xlink:href="#f1_77" transform="matrix(12,0,0,12,185.2,185.2)"/>
<use xlink:href="#f1_b5" transform="matrix(12,0,0,12,194,185.2)"/>
<use xlink:href="#f1_bf" transform="matrix(12,0,0,12,201,185.2)"/>
<use xlink:href="#f1_9q" transform="matrix(12,0,0,12,207.2,185.2)"/>
<use xlink:href="#f1_7z" transform="matrix(12,0,0,12,211.3,185.2)"/>
<use xlink:href="#f1_nq" transform="matrix(12,0,0,12,220.5,185.2)"/>
<use xlink:href="#f1_2j" transform="matrix(12,0,0,12,229.3,185.2)"/>
<use xlink:href="#f1_nt" transform="matrix(12,0,0,12,239.2,185.2)"/>
<use xlink:href="#f1_2t" transform="matrix(12,0,0,12,248,185.2)"/>
<use xlink:href="#f1_9q" transform="matrix(12,0,0,12,256.8,185.2)"/>
<use xlink:href="#f1_7k" transform="matrix(12,0,0,12,260.8,185.2)"/>
<use xlink:href="#f1_b5" transform="matrix(12,0,0,12,270.3,185.2)"/>
<use xlink:href="#f1_9n" transform="matrix(12,0,0,12,277.7,185.2)"/>
<use xlink:href="#f1_9q" transform="matrix(12,0,0,12,287.5,185.2)"/>
<use xlink:href="#f1_b1" transform="matrix(12,0,0,12,291.6,185.2)"/>
<use xlink:href="#f1_77" transform="matrix(12,0,0,12,297.4,185.2)"/>
<use xlink:href="#f1_af" transform="matrix(12,0,0,12,306.2,185.2)"/>
<use xlink:href="#f1_9q" transform="matrix(12,0,0,12,316.1,185.2)"/>
<use xlink:href="#f1_nq" transform="matrix(12,0,0,12,320.3,185.2)"/>
<use xlink:href="#f1_1n" transform="matrix(12,0,0,12,329.1,185.2)"/>
<use xlink:href="#f1_nt" transform="matrix(12,0,0,12,334.9,185.2)"/>
<use xlink:href="#f1_13" transform="matrix(12,0,0,12,343.7,185.2)"/>
<use xlink:href="#f1_b1" transform="matrix(12,0,0,12,352.1,185.2)"/>
<use xlink:href="#f1_9q" transform="matrix(12,0,0,12,358.4,185.2)"/>
<use xlink:href="#f1_7z" transform="matrix(12,0,0,12,362.4,185.2)"/>
<use xlink:href="#f1_7v" transform="matrix(12,0,0,12,371.5,185.2)"/>
<use xlink:href="#f1_ae" transform="matrix(12,0,0,12,381.1,185.2)"/>
<use xlink:href="#f1_77" transform="matrix(12,0,0,12,395.8,185.2)"/>
<use xlink:href="#f1_af" transform="matrix(12,0,0,12,404.5,185.2)"/>
<use xlink:href="#f1_nq" transform="matrix(12,0,0,12,414.5,185.2)"/>
<use xlink:href="#f1_2t" transform="matrix(12,0,0,12,423,185.2)"/>
<use xlink:href="#f1_9n" transform="matrix(12,0,0,12,432.1,185.2)"/>
<use xlink:href="#f1_7z" transform="matrix(12,0,0,12,441.6,185.2)"/>
<use xlink:href="#f1_t" transform="matrix(12,0,0,12,454.8,185.2)"/>
<use xlink:href="#f1_a8" transform="matrix(12,0,0,12,464,185.2)"/>
<use xlink:href="#f1_7z" transform="matrix(12,0,0,12,468,185.2)"/>
<use xlink:href="#f1_ae" transform="matrix(12,0,0,12,477.1,185.2)"/>
<use xlink:href="#f1_7z" transform="matrix(12,0,0,12,491.8,185.2)"/>
<use xlink:href="#f1_af" transform="matrix(12,0,0,12,501,185.2)"/>
<use xlink:href="#f1_bf" transform="matrix(12,0,0,12,510.5,185.2)"/>
<use xlink:href="#f1_b5" transform="matrix(12,0,0,12,516.7,185.2)"/>
<use xlink:href="#f1_am" transform="matrix(12,0,0,12,528.1,185.2)"/>
<use xlink:href="#f1_89" transform="matrix(12,0,0,12,537.6,185.2)"/>
<use xlink:href="#f1_2n" transform="matrix(12,0,0,12,547.2,185.2)"/>
<use xlink:href="#f1_bf" transform="matrix(12,0,0,12,555.6,185.2)"/>
<use xlink:href="#f1_77" transform="matrix(12,0,0,12,561.5,185.2)"/>
<use xlink:href="#f1_bf" transform="matrix(12,0,0,12,569.9,185.2)"/>
<use xlink:href="#f1_9q" transform="matrix(12,0,0,12,576.1,185.2)"/>
<use xlink:href="#f1_b5" transform="matrix(12,0,0,12,580.1,185.2)"/>
<use xlink:href="#f1_bf" transform="matrix(12,0,0,12,587.1,185.2)"/>
<use xlink:href="#f1_9q" transform="matrix(12,0,0,12,593.7,185.2)"/>
<use xlink:href="#f1_7l" transform="matrix(12,0,0,12,597.7,185.2)"/>
<use xlink:href="#f1_77" transform="matrix(12,0,0,12,605.4,185.2)"/>
<use xlink:href="#f1_a8" transform="matrix(12,0,0,12,614.2,185.2)"/>
<use xlink:href="#f1_1r" transform="matrix(12,0,0,12,622.3,185.2)"/>
<use xlink:href="#f1_7z" transform="matrix(12,0,0,12,630,185.2)"/>
<use xlink:href="#f1_77" transform="matrix(12,0,0,12,639.1,185.2)"/>
<use xlink:href="#f1_b1" transform="matrix(12,0,0,12,647.9,185.2)"/>
<use xlink:href="#f1_af" transform="matrix(12,0,0,12,654.5,185.2)"/>
<use xlink:href="#f1_9q" transform="matrix(12,0,0,12,664.1,185.2)"/>
<use xlink:href="#f1_af" transform="matrix(12,0,0,12,668.1,185.2)"/>
<use xlink:href="#f1_9d" transform="matrix(12,0,0,12,677.6,185.2)"/>
<use xlink:href="#f1_ns" transform="matrix(12,0,0,12,686.4,185.2)"/>
<use xlink:href="#f1_p" transform="matrix(12,0,0,12,695.2,185.2)"/>
<use xlink:href="#f1_77" transform="matrix(12,0,0,12,706.9,185.2)"/>
<use xlink:href="#f1_bf" transform="matrix(12,0,0,12,715.3,185.2)"/>
<use xlink:href="#f1_77" transform="matrix(12,0,0,12,721.2,185.2)"/>
<use xlink:href="#f1_1x" transform="matrix(12,0,0,12,137.6,212.7)"/>
<use xlink:href="#f1_9q" transform="matrix(12,0,0,12,153.3,212.7)"/>
<use xlink:href="#f1_af" transform="matrix(12,0,0,12,157.4,212.7)"/>
<use xlink:href="#f1_9q" transform="matrix(12,0,0,12,166.9,212.7)"/>
<use xlink:href="#f1_af" transform="matrix(12,0,0,12,170.9,212.7)"/>
<use xlink:href="#f1_9d" transform="matrix(12,0,0,12,180.5,212.7)"/>
<use xlink:href="#f1_nq" transform="matrix(12,0,0,12,189.6,212.7)"/>
<use xlink:href="#f1_1c" transform="matrix(12,0,0,12,198,212.7)"/>
<use xlink:href="#f1_af" transform="matrix(12,0,0,12,202.8,212.7)"/>
<use xlink:href="#f1_89" transform="matrix(12,0,0,12,212.3,212.7)"/>
<use xlink:href="#f1_7z" transform="matrix(12,0,0,12,217.5,212.7)"/>
<use xlink:href="#f1_b1" transform="matrix(12,0,0,12,226.6,212.7)"/>
<use xlink:href="#f1_7z" transform="matrix(12,0,0,12,232.9,212.7)"/>
<use xlink:href="#f1_af" transform="matrix(12,0,0,12,242,212.7)"/>
<use xlink:href="#f1_7l" transform="matrix(12,0,0,12,251.6,212.7)"/>
<use xlink:href="#f1_7z" transform="matrix(12,0,0,12,259.3,212.7)"/>
<use xlink:href="#f1_nq" transform="matrix(12,0,0,12,268.4,212.7)"/>
<use xlink:href="#f1_77" transform="matrix(12,0,0,12,276.9,212.7)"/>
<use xlink:href="#f1_af" transform="matrix(12,0,0,12,285.7,212.7)"/>
<use xlink:href="#f1_7v" transform="matrix(12,0,0,12,295.6,212.7)"/>
<use xlink:href="#f1_2g" transform="matrix(12,0,0,12,309.2,212.7)"/>
<use xlink:href="#f1_b1" transform="matrix(12,0,0,12,318.7,212.7)"/>
<use xlink:href="#f1_7z" transform="matrix(12,0,0,12,325,212.7)"/>
<use xlink:href="#f1_7v" transform="matrix(12,0,0,12,334.1,212.7)"/>
<use xlink:href="#f1_9q" transform="matrix(12,0,0,12,343.7,212.7)"/>
<use xlink:href="#f1_7l" transform="matrix(12,0,0,12,347.7,212.7)"/>
<use xlink:href="#f1_bf" transform="matrix(12,0,0,12,355.4,212.7)"/>
<use xlink:href="#f1_9q" transform="matrix(12,0,0,12,362,212.7)"/>
<use xlink:href="#f1_am" transform="matrix(12,0,0,12,366,212.7)"/>
<use xlink:href="#f1_af" transform="matrix(12,0,0,12,375.5,212.7)"/>
<use xlink:href="#f1_nq" transform="matrix(12,0,0,12,385.4,212.7)"/>
<use xlink:href="#f1_2n" transform="matrix(12,0,0,12,393.9,212.7)"/>
<use xlink:href="#f1_7z" transform="matrix(12,0,0,12,402.3,212.7)"/>
<use xlink:href="#f1_7l" transform="matrix(12,0,0,12,411.4,212.7)"/>
<use xlink:href="#f1_am" transform="matrix(12,0,0,12,419.1,212.7)"/>
<use xlink:href="#f1_af" transform="matrix(12,0,0,12,428.7,212.7)"/>
<use xlink:href="#f1_7v" transform="matrix(12,0,0,12,438.2,212.7)"/>
<use xlink:href="#f1_t" transform="matrix(12,0,0,12,452.1,212.7)"/>
<use xlink:href="#f1_7v" transform="matrix(12,0,0,12,460.9,212.7)"/>
<use xlink:href="#f1_9q" transform="matrix(12,0,0,12,470.4,212.7)"/>
<use xlink:href="#f1_bf" transform="matrix(12,0,0,12,474.5,212.7)"/>
<use xlink:href="#f1_9q" transform="matrix(12,0,0,12,480.7,212.7)"/>
<use xlink:href="#f1_am" transform="matrix(12,0,0,12,485.1,212.7)"/>
<use xlink:href="#f1_af" transform="matrix(12,0,0,12,494.6,212.7)"/>
<use xlink:href="#f1_nt" transform="matrix(12,0,0,12,504.4,212.7)"/>
<use xlink:href="#f1_ox" transform="matrix(12,0,0,12,137.6,240.2)"/>
<use xlink:href="#f1_s0" transform="matrix(12,0,0,12,143.1,240.2)"/>
<use xlink:href="#f1_oy" transform="matrix(12,0,0,12,152.2,240.2)"/>
</g>
<g fill="#0000FF"  clip-path="url(#c0)">
<use xlink:href="#f1_9n" transform="matrix(6,0,0,6,161.8,240.2)"/>
<use xlink:href="#f1_bf" transform="matrix(6,0,0,6,166.5,240.2)"/>
<use xlink:href="#f1_bf" transform="matrix(6,0,0,6,169.8,240.2)"/>
<use xlink:href="#f1_ay" transform="matrix(6,0,0,6,172.8,240.2)"/>
<use xlink:href="#f1_b5" transform="matrix(6,0,0,6,177.5,240.2)"/>
<use xlink:href="#f1_ns" transform="matrix(6,0,0,6,181.2,240.2)"/>
<use xlink:href="#f1_od" transform="matrix(6,0,0,6,183.7,240.2)"/>
<use xlink:href="#f1_od" transform="matrix(6,0,0,6,187.4,240.2)"/>
<use xlink:href="#f1_7z" transform="matrix(6,0,0,6,190.7,240.2)"/>
<use xlink:href="#f1_af" transform="matrix(6,0,0,6,195.1,240.2)"/>
<use xlink:href="#f1_nt" transform="matrix(6,0,0,6,199.9,240.2)"/>
<use xlink:href="#f1_ci" transform="matrix(6,0,0,6,201.7,240.2)"/>
<use xlink:href="#f1_9q" transform="matrix(6,0,0,6,208.3,240.2)"/>
<use xlink:href="#f1_a5" transform="matrix(6,0,0,6,210.5,240.2)"/>
<use xlink:href="#f1_9q" transform="matrix(6,0,0,6,214.5,240.2)"/>
<use xlink:href="#f1_ay" transform="matrix(6,0,0,6,216.7,240.2)"/>
<use xlink:href="#f1_7z" transform="matrix(6,0,0,6,221.5,240.2)"/>
<use xlink:href="#f1_7v" transform="matrix(6,0,0,6,225.9,240.2)"/>
<use xlink:href="#f1_9q" transform="matrix(6,0,0,6,230.6,240.2)"/>
<use xlink:href="#f1_77" transform="matrix(6,0,0,6,232.8,240.2)"/>
<use xlink:href="#f1_nt" transform="matrix(6,0,0,6,237.2,240.2)"/>
<use xlink:href="#f1_am" transform="matrix(6,0,0,6,239.8,240.2)"/>
<use xlink:href="#f1_b1" transform="matrix(6,0,0,6,244.6,240.2)"/>
<use xlink:href="#f1_9d" transform="matrix(6,0,0,6,247.5,240.2)"/>
<use xlink:href="#f1_od" transform="matrix(6,0,0,6,252.3,240.2)"/>
<use xlink:href="#f1_ci" transform="matrix(6,0,0,6,255.9,240.2)"/>
<use xlink:href="#f1_9q" transform="matrix(6,0,0,6,262.5,240.2)"/>
<use xlink:href="#f1_a5" transform="matrix(6,0,0,6,264.7,240.2)"/>
<use xlink:href="#f1_9q" transform="matrix(6,0,0,6,268.7,240.2)"/>
<use xlink:href="#f1_od" transform="matrix(6,0,0,6,270.9,240.2)"/>
<use xlink:href="#f1_1r" transform="matrix(6,0,0,6,274.6,240.2)"/>
<use xlink:href="#f1_9q" transform="matrix(6,0,0,6,278.6,240.2)"/>
<use xlink:href="#f1_af" transform="matrix(6,0,0,6,280.8,240.2)"/>
<use xlink:href="#f1_7z" transform="matrix(6,0,0,6,285.6,240.2)"/>
<use xlink:href="#f1_77" transform="matrix(6,0,0,6,290,240.2)"/>
<use xlink:href="#f1_b1" transform="matrix(6,0,0,6,294.3,240.2)"/>
<use xlink:href="#f1_or" transform="matrix(6,0,0,6,297.6,240.2)"/>
<use xlink:href="#f1_b1" transform="matrix(6,0,0,6,302,240.2)"/>
<use xlink:href="#f1_7z" transform="matrix(6,0,0,6,305,240.2)"/>
<use xlink:href="#f1_9d" transform="matrix(6,0,0,6,309.4,240.2)"/>
<use xlink:href="#f1_b1" transform="matrix(6,0,0,6,313.8,240.2)"/>
<use xlink:href="#f1_7z" transform="matrix(6,0,0,6,316.7,240.2)"/>
<use xlink:href="#f1_b5" transform="matrix(6,0,0,6,321.1,240.2)"/>
<use xlink:href="#f1_b5" transform="matrix(6,0,0,6,324.8,240.2)"/>
<use xlink:href="#f1_9q" transform="matrix(6,0,0,6,328.4,240.2)"/>
<use xlink:href="#f1_am" transform="matrix(6,0,0,6,330.6,240.2)"/>
<use xlink:href="#f1_af" transform="matrix(6,0,0,6,335.4,240.2)"/>
<use xlink:href="#f1_qg" transform="matrix(6,0,0,6,340.1,240.2)"/>
<use xlink:href="#f1_ns" transform="matrix(6,0,0,6,344.5,240.2)"/>
<use xlink:href="#f1_pi" transform="matrix(6,0,0,6,347.1,240.2)"/>
<use xlink:href="#f1_ns" transform="matrix(6,0,0,6,351.8,240.2)"/>
<use xlink:href="#f1_bf" transform="matrix(6,0,0,6,354.3,240.2)"/>
<use xlink:href="#f1_7z" transform="matrix(6,0,0,6,357.3,240.2)"/>
<use xlink:href="#f1_cn" transform="matrix(6,0,0,6,361.7,240.2)"/>
<use xlink:href="#f1_bf" transform="matrix(6,0,0,6,365.7,240.2)"/>
<use xlink:href="#f1_ua" transform="matrix(6,0,0,6,369,240.2)"/>
<use xlink:href="#f1_1c" transform="matrix(6,0,0,6,373.4,240.2)"/>
<use xlink:href="#f1_af" transform="matrix(6,0,0,6,375.6,240.2)"/>
<use xlink:href="#f1_u2" transform="matrix(6,0,0,6,380.4,240.2)"/>
<use xlink:href="#f1_rz" transform="matrix(6,0,0,6,386.9,240.2)"/>
<use xlink:href="#f1_rx" transform="matrix(6,0,0,6,391.7,240.2)"/>
<use xlink:href="#f1_b5" transform="matrix(6,0,0,6,396.5,240.2)"/>
<use xlink:href="#f1_bf" transform="matrix(6,0,0,6,399.8,240.2)"/>
<use xlink:href="#f1_77" transform="matrix(6,0,0,6,402.7,240.2)"/>
<use xlink:href="#f1_bf" transform="matrix(6,0,0,6,407.1,240.2)"/>
<use xlink:href="#f1_9q" transform="matrix(6,0,0,6,410,240.2)"/>
<use xlink:href="#f1_b5" transform="matrix(6,0,0,6,412.2,240.2)"/>
<use xlink:href="#f1_bf" transform="matrix(6,0,0,6,415.9,240.2)"/>
<use xlink:href="#f1_9q" transform="matrix(6,0,0,6,418.8,240.2)"/>
<use xlink:href="#f1_7l" transform="matrix(6,0,0,6,421,240.2)"/>
<use xlink:href="#f1_b5" transform="matrix(6,0,0,6,425,240.2)"/>
<use xlink:href="#f1_u2" transform="matrix(6,0,0,6,428.7,240.2)"/>
<use xlink:href="#f1_rz" transform="matrix(6,0,0,6,435.3,240.2)"/>
<use xlink:href="#f1_j" transform="matrix(6,0,0,6,440,240.2)"/>
<use xlink:href="#f1_u2" transform="matrix(6,0,0,6,444.8,240.2)"/>
<use xlink:href="#f1_rz" transform="matrix(6,0,0,6,451.4,240.2)"/>
<use xlink:href="#f1_rx" transform="matrix(6,0,0,6,456.1,240.2)"/>
<use xlink:href="#f1_a8" transform="matrix(6,0,0,6,460.9,240.2)"/>
<use xlink:href="#f1_9q" transform="matrix(6,0,0,6,462.7,240.2)"/>
<use xlink:href="#f1_af" transform="matrix(6,0,0,6,464.9,240.2)"/>
<use xlink:href="#f1_7z" transform="matrix(6,0,0,6,469.7,240.2)"/>
<use xlink:href="#f1_77" transform="matrix(6,0,0,6,474.1,240.2)"/>
<use xlink:href="#f1_b1" transform="matrix(6,0,0,6,478.5,240.2)"/>
<use xlink:href="#f1_u2" transform="matrix(6,0,0,6,481.8,240.2)"/>
<use xlink:href="#f1_rz" transform="matrix(6,0,0,6,488.4,240.2)"/>
<use xlink:href="#f1_rx" transform="matrix(6,0,0,6,493.1,240.2)"/>
<use xlink:href="#f1_b1" transform="matrix(6,0,0,6,497.9,240.2)"/>
<use xlink:href="#f1_7z" transform="matrix(6,0,0,6,500.8,240.2)"/>
<use xlink:href="#f1_9d" transform="matrix(6,0,0,6,505.2,240.2)"/>
<use xlink:href="#f1_b1" transform="matrix(6,0,0,6,509.6,240.2)"/>
<use xlink:href="#f1_7z" transform="matrix(6,0,0,6,512.6,240.2)"/>
<use xlink:href="#f1_b5" transform="matrix(6,0,0,6,517,240.2)"/>
<use xlink:href="#f1_b5" transform="matrix(6,0,0,6,520.6,240.2)"/>
<use xlink:href="#f1_9q" transform="matrix(6,0,0,6,524.3,240.2)"/>
<use xlink:href="#f1_am" transform="matrix(6,0,0,6,526.5,240.2)"/>
<use xlink:href="#f1_af" transform="matrix(6,0,0,6,531.2,240.2)"/>
<use xlink:href="#f1_u2" transform="matrix(6,0,0,6,536,240.2)"/>
<use xlink:href="#f1_rz" transform="matrix(6,0,0,6,542.6,240.2)"/>
<use xlink:href="#f1_rx" transform="matrix(6,0,0,6,547.3,240.2)"/>
<use xlink:href="#f1_9q" transform="matrix(6,0,0,6,552.1,240.2)"/>
<use xlink:href="#f1_b5" transform="matrix(6,0,0,6,554.3,240.2)"/>
<use xlink:href="#f1_nq" transform="matrix(6,0,0,6,557.9,240.2)"/>
<use xlink:href="#f1_77" transform="matrix(6,0,0,6,560.1,240.2)"/>
<use xlink:href="#f1_b5" transform="matrix(6,0,0,6,564.5,240.2)"/>
<use xlink:href="#f1_u2" transform="matrix(6,0,0,6,568.2,240.2)"/>
<use xlink:href="#f1_rz" transform="matrix(6,0,0,6,574.4,240.2)"/>
<use xlink:href="#f1_rx" transform="matrix(6,0,0,6,579.2,240.2)"/>
<use xlink:href="#f1_7v" transform="matrix(6,0,0,6,584,240.2)"/>
<use xlink:href="#f1_7z" transform="matrix(6,0,0,6,588.7,240.2)"/>
<use xlink:href="#f1_ay" transform="matrix(6,0,0,6,593.1,240.2)"/>
<use xlink:href="#f1_7z" transform="matrix(6,0,0,6,597.9,240.2)"/>
<use xlink:href="#f1_af" transform="matrix(6,0,0,6,602.3,240.2)"/>
<use xlink:href="#f1_7v" transform="matrix(6,0,0,6,607.1,240.2)"/>
<use xlink:href="#f1_7z" transform="matrix(6,0,0,6,611.8,240.2)"/>
<use xlink:href="#f1_af" transform="matrix(6,0,0,6,616.2,240.2)"/>
<use xlink:href="#f1_bf" transform="matrix(6,0,0,6,621,240.2)"/>
<use xlink:href="#f1_u2" transform="matrix(6,0,0,6,623.9,240.2)"/>
<use xlink:href="#f1_rz" transform="matrix(6,0,0,6,630.5,240.2)"/>
<use xlink:href="#f1_rx" transform="matrix(6,0,0,6,635.3,240.2)"/>
<use xlink:href="#f1_77" transform="matrix(6,0,0,6,640,240.2)"/>
<use xlink:href="#f1_af" transform="matrix(6,0,0,6,644.4,240.2)"/>
<use xlink:href="#f1_7v" transform="matrix(6,0,0,6,649.2,240.2)"/>
<use xlink:href="#f1_u2" transform="matrix(6,0,0,6,654,240.2)"/>
<use xlink:href="#f1_rz" transform="matrix(6,0,0,6,660.5,240.2)"/>
<use xlink:href="#f1_rx" transform="matrix(6,0,0,6,665.3,240.2)"/>
<use xlink:href="#f1_9q" transform="matrix(6,0,0,6,670.1,240.2)"/>
<use xlink:href="#f1_af" transform="matrix(6,0,0,6,672.3,240.2)"/>
<use xlink:href="#f1_7v" transform="matrix(6,0,0,6,677,240.2)"/>
<use xlink:href="#f1_7z" transform="matrix(6,0,0,6,681.8,240.2)"/>
<use xlink:href="#f1_ay" transform="matrix(6,0,0,6,686.2,240.2)"/>
<use xlink:href="#f1_7z" transform="matrix(6,0,0,6,691,240.2)"/>
<use xlink:href="#f1_af" transform="matrix(6,0,0,6,695.4,240.2)"/>
<use xlink:href="#f1_7v" transform="matrix(6,0,0,6,700.1,240.2)"/>
<use xlink:href="#f1_7z" transform="matrix(6,0,0,6,704.9,240.2)"/>
<use xlink:href="#f1_af" transform="matrix(6,0,0,6,709.3,240.2)"/>
<use xlink:href="#f1_bf" transform="matrix(6,0,0,6,714.4,240.2)"/>
<use xlink:href="#f1_u2" transform="matrix(6,0,0,6,717.3,240.2)"/>
<use xlink:href="#f1_rz" transform="matrix(6,0,0,6,723.9,240.2)"/>
<use xlink:href="#f1_rx" transform="matrix(6,0,0,6,728.7,240.2)"/>
<use xlink:href="#f1_ch" transform="matrix(6,0,0,6,733.4,240.2)"/>
<use xlink:href="#f1_77" transform="matrix(6,0,0,6,737.5,240.2)"/>
<use xlink:href="#f1_b1" transform="matrix(6,0,0,6,741.9,240.2)"/>
<use xlink:href="#f1_9q" transform="matrix(6,0,0,6,745.2,240.2)"/>
<use xlink:href="#f1_77" transform="matrix(6,0,0,6,747.4,240.2)"/>
<use xlink:href="#f1_7k" transform="matrix(6,0,0,6,751.8,240.2)"/>
<use xlink:href="#f1_a8" transform="matrix(6,0,0,6,756.5,240.2)"/>
<use xlink:href="#f1_7z" transform="matrix(6,0,0,6,758.7,240.2)"/>
<use xlink:href="#f1_b5" transform="matrix(6,0,0,6,763.1,240.2)"/>
</g>
<path fill-rule="evenodd" d="M161.8,242.1H767v-.8H161.8v.8Z" class="g0"/>
<g fill="#000000"  clip-path="url(#c0)">
<use xlink:href="#f1_ox" transform="matrix(12,0,0,12,137.6,267.7)"/>
<use xlink:href="#f1_s1" transform="matrix(12,0,0,12,143.1,267.7)"/>
<use xlink:href="#f1_oy" transform="matrix(12,0,0,12,152.2,267.7)"/>
</g>
<g fill="#0000FF"  clip-path="url(#c0)">
<use xlink:href="#f1_9n" transform="matrix(12,0,0,12,161.8,267.7)"/>
<use xlink:href="#f1_bf" transform="matrix(12,0,0,12,171.3,267.7)"/>
<use xlink:href="#f1_bf" transform="matrix(12,0,0,12,177.2,267.7)"/>
<use xlink:href="#f1_ay" transform="matrix(12,0,0,12,183.4,267.7)"/>
<use xlink:href="#f1_b5" transform="matrix(12,0,0,12,192.9,267.7)"/>
<use xlink:href="#f1_ns" transform="matrix(12,0,0,12,200.2,267.7)"/>
<use xlink:href="#f1_od" transform="matrix(12,0,0,12,205,267.7)"/>
<use xlink:href="#f1_od" transform="matrix(12,0,0,12,212,267.7)"/>
<use xlink:href="#f1_ay" transform="matrix(12,0,0,12,218.9,267.7)"/>
<use xlink:href="#f1_co" transform="matrix(12,0,0,12,228.5,267.7)"/>
<use xlink:href="#f1_bf" transform="matrix(12,0,0,12,237.3,267.7)"/>
<use xlink:href="#f1_am" transform="matrix(12,0,0,12,243.1,267.7)"/>
<use xlink:href="#f1_b1" transform="matrix(12,0,0,12,252.7,267.7)"/>
<use xlink:href="#f1_7l" transform="matrix(12,0,0,12,258.9,267.7)"/>
<use xlink:href="#f1_9n" transform="matrix(12,0,0,12,266.6,267.7)"/>
<use xlink:href="#f1_nt" transform="matrix(12,0,0,12,276.1,267.7)"/>
<use xlink:href="#f1_am" transform="matrix(12,0,0,12,280.9,267.7)"/>
<use xlink:href="#f1_b1" transform="matrix(12,0,0,12,290.4,267.7)"/>
<use xlink:href="#f1_9d" transform="matrix(12,0,0,12,296.6,267.7)"/>
<use xlink:href="#f1_od" transform="matrix(12,0,0,12,305.8,267.7)"/>
<use xlink:href="#f1_bf" transform="matrix(12,0,0,12,312.8,267.7)"/>
<use xlink:href="#f1_c6" transform="matrix(12,0,0,12,319,267.7)"/>
<use xlink:href="#f1_bf" transform="matrix(12,0,0,12,328.8,267.7)"/>
<use xlink:href="#f1_am" transform="matrix(12,0,0,12,334.7,267.7)"/>
<use xlink:href="#f1_b1" transform="matrix(12,0,0,12,344.2,267.7)"/>
<use xlink:href="#f1_9q" transform="matrix(12,0,0,12,350.8,267.7)"/>
<use xlink:href="#f1_77" transform="matrix(12,0,0,12,354.9,267.7)"/>
<use xlink:href="#f1_a8" transform="matrix(12,0,0,12,363.6,267.7)"/>
<use xlink:href="#f1_b5" transform="matrix(12,0,0,12,367.7,267.7)"/>
<use xlink:href="#f1_od" transform="matrix(12,0,0,12,375,267.7)"/>
<use xlink:href="#f1_7k" transform="matrix(12,0,0,12,382,267.7)"/>
<use xlink:href="#f1_7z" transform="matrix(12,0,0,12,391.5,267.7)"/>
<use xlink:href="#f1_9d" transform="matrix(12,0,0,12,400.6,267.7)"/>
<use xlink:href="#f1_9q" transform="matrix(12,0,0,12,409.5,267.7)"/>
<use xlink:href="#f1_af" transform="matrix(12,0,0,12,413.8,267.7)"/>
<use xlink:href="#f1_af" transform="matrix(12,0,0,12,423.4,267.7)"/>
<use xlink:href="#f1_7z" transform="matrix(12,0,0,12,432.9,267.7)"/>
<use xlink:href="#f1_b1" transform="matrix(12,0,0,12,442,267.7)"/>
<use xlink:href="#f1_od" transform="matrix(12,0,0,12,448.7,267.7)"/>
<use xlink:href="#f1_7z" transform="matrix(12,0,0,12,455.3,267.7)"/>
<use xlink:href="#f1_cn" transform="matrix(12,0,0,12,464.1,267.7)"/>
<use xlink:href="#f1_77" transform="matrix(12,0,0,12,471.8,267.7)"/>
<use xlink:href="#f1_ae" transform="matrix(12,0,0,12,480.5,267.7)"/>
<use xlink:href="#f1_ay" transform="matrix(12,0,0,12,495.2,267.7)"/>
<use xlink:href="#f1_a8" transform="matrix(12,0,0,12,504.8,267.7)"/>
<use xlink:href="#f1_7z" transform="matrix(12,0,0,12,509.1,267.7)"/>
<use xlink:href="#f1_b5" transform="matrix(12,0,0,12,518.3,267.7)"/>
<use xlink:href="#f1_or" transform="matrix(12,0,0,12,525.6,267.7)"/>
<use xlink:href="#f1_af" transform="matrix(12,0,0,12,534.7,267.7)"/>
<use xlink:href="#f1_af" transform="matrix(12,0,0,12,544.3,267.7)"/>
<use xlink:href="#f1_od" transform="matrix(12,0,0,12,553.9,267.7)"/>
<use xlink:href="#f1_bf" transform="matrix(12,0,0,12,560.8,267.7)"/>
<use xlink:href="#f1_ci" transform="matrix(12,0,0,12,567,267.7)"/>
<use xlink:href="#f1_am" transform="matrix(12,0,0,12,579.9,267.7)"/>
<use xlink:href="#f1_or" transform="matrix(12,0,0,12,589.4,267.7)"/>
<use xlink:href="#f1_a8" transform="matrix(12,0,0,12,598.5,267.7)"/>
<use xlink:href="#f1_77" transform="matrix(12,0,0,12,602.6,267.7)"/>
<use xlink:href="#f1_co" transform="matrix(12,0,0,12,611,267.7)"/>
<use xlink:href="#f1_7z" transform="matrix(12,0,0,12,619.1,267.7)"/>
<use xlink:href="#f1_b1" transform="matrix(12,0,0,12,628.2,267.7)"/>
<use xlink:href="#f1_or" transform="matrix(12,0,0,12,634.5,267.7)"/>
<use xlink:href="#f1_af" transform="matrix(12,0,0,12,643.6,267.7)"/>
<use xlink:href="#f1_7z" transform="matrix(12,0,0,12,653.2,267.7)"/>
<use xlink:href="#f1_bf" transform="matrix(12,0,0,12,662.3,267.7)"/>
<use xlink:href="#f1_or" transform="matrix(12,0,0,12,668.6,267.7)"/>
<use xlink:href="#f1_af" transform="matrix(12,0,0,12,677.7,267.7)"/>
<use xlink:href="#f1_af" transform="matrix(12,0,0,12,687.3,267.7)"/>
<use xlink:href="#f1_nt" transform="matrix(12,0,0,12,696.8,267.7)"/>
<use xlink:href="#f1_9n" transform="matrix(12,0,0,12,701.6,267.7)"/>
<use xlink:href="#f1_bf" transform="matrix(12,0,0,12,711.1,267.7)"/>
<use xlink:href="#f1_ae" transform="matrix(12,0,0,12,717.3,267.7)"/>
<use xlink:href="#f1_a8" transform="matrix(12,0,0,12,732,267.7)"/>
</g>
<path fill-rule="evenodd" d="M161.8,271H737v-1.1H161.8V271Z" class="g0"/>
<g fill="#000000"  clip-path="url(#c0)">
<use xlink:href="#f4_13" transform="matrix(24,0,0,24,137.6,370.8)"/>
<use xlink:href="#f4_2b" transform="matrix(24,0,0,24,164,370.8)"/>
<use xlink:href="#f4_20" transform="matrix(24,0,0,24,182.4,370.8)"/>
<use xlink:href="#f4_25" transform="matrix(24,0,0,24,202.8,370.8)"/>
<use xlink:href="#f4_2a" transform="matrix(24,0,0,24,213,370.8)"/>
<use xlink:href="#f4_23" transform="matrix(24,0,0,24,233.6,370.8)"/>
<use xlink:href="#f4_15" transform="matrix(24,0,0,24,261.2,370.8)"/>
<use xlink:href="#f4_2k" transform="matrix(24,0,0,24,285.7,370.8)"/>
<use xlink:href="#f4_21" transform="matrix(24,0,0,24,304,370.8)"/>
<use xlink:href="#f4_2e" transform="matrix(24,0,0,24,320.2,370.8)"/>
<use xlink:href="#f4_1z" transform="matrix(24,0,0,24,335.9,370.8)"/>
<use xlink:href="#f4_25" transform="matrix(24,0,0,24,352.1,370.8)"/>
<use xlink:href="#f4_2f" transform="matrix(24,0,0,24,362.3,370.8)"/>
<use xlink:href="#f4_21" transform="matrix(24,0,0,24,376.5,370.8)"/>
<use xlink:href="#f1_ns" transform="matrix(12,0,0,12,392.9,370.8)"/>
</g>
<g fill="#2F5496"  clip-path="url(#c0)">
<use xlink:href="#f5_p" transform="matrix(13,0,0,13,137.6,408.9)"/>
<use xlink:href="#f5_7z" transform="matrix(13,0,0,13,149.7,408.9)"/>
<use xlink:href="#f5_af" transform="matrix(13,0,0,13,159.6,408.9)"/>
<use xlink:href="#f5_b5" transform="matrix(13,0,0,13,169.9,408.9)"/>
<use xlink:href="#f5_7z" transform="matrix(13,0,0,13,177.5,408.9)"/>
<use xlink:href="#f5_ov" transform="matrix(13,0,0,13,187.4,408.9)"/>
<use xlink:href="#f5_ow" transform="matrix(13,0,0,13,193.4,408.9)"/>
<use xlink:href="#f5_ns" transform="matrix(13,0,0,13,219,408.9)"/>
</g>
<g fill="#000000"  clip-path="url(#c0)">
<use xlink:href="#f1_89" transform="matrix(12,0,0,12,137.6,435.7)"/>
<use xlink:href="#f1_b1" transform="matrix(12,0,0,12,143.1,435.7)"/>
<use xlink:href="#f1_am" transform="matrix(12,0,0,12,149.3,435.7)"/>
<use xlink:href="#f1_ae" transform="matrix(12,0,0,12,158.8,435.7)"/>
<use xlink:href="#f1_bf" transform="matrix(12,0,0,12,177.5,435.7)"/>
<use xlink:href="#f1_7z" transform="matrix(12,0,0,12,183.4,435.7)"/>
<use xlink:href="#f1_af" transform="matrix(12,0,0,12,192.5,435.7)"/>
<use xlink:href="#f1_b5" transform="matrix(12,0,0,12,202.1,435.7)"/>
<use xlink:href="#f1_am" transform="matrix(12,0,0,12,209.4,435.7)"/>
<use xlink:href="#f1_b1" transform="matrix(12,0,0,12,219,435.7)"/>
<use xlink:href="#f1_89" transform="matrix(12,0,0,12,225.2,435.7)"/>
<use xlink:href="#f1_a8" transform="matrix(12,0,0,12,231,435.7)"/>
<use xlink:href="#f1_am" transform="matrix(12,0,0,12,235.1,435.7)"/>
<use xlink:href="#f1_ci" transform="matrix(12,0,0,12,244.7,435.7)"/>
<use xlink:href="#f1_nt" transform="matrix(12,0,0,12,256.8,435.7)"/>
<use xlink:href="#f1_a5" transform="matrix(12,0,0,12,261.5,435.7)"/>
<use xlink:href="#f1_7z" transform="matrix(12,0,0,12,269.2,435.7)"/>
<use xlink:href="#f1_b1" transform="matrix(12,0,0,12,278.4,435.7)"/>
<use xlink:href="#f1_77" transform="matrix(12,0,0,12,284.3,435.7)"/>
<use xlink:href="#f1_b5" transform="matrix(12,0,0,12,293,435.7)"/>
<use xlink:href="#f1_nt" transform="matrix(12,0,0,12,300.4,435.7)"/>
<use xlink:href="#f1_ae" transform="matrix(12,0,0,12,305.1,435.7)"/>
<use xlink:href="#f1_am" transform="matrix(12,0,0,12,319.8,435.7)"/>
<use xlink:href="#f1_7v" transform="matrix(12,0,0,12,329.3,435.7)"/>
<use xlink:href="#f1_7z" transform="matrix(12,0,0,12,338.9,435.7)"/>
<use xlink:href="#f1_a8" transform="matrix(12,0,0,12,348,435.7)"/>
<use xlink:href="#f1_b5" transform="matrix(12,0,0,12,352.1,435.7)"/>
<use xlink:href="#f1_9q" transform="matrix(12,0,0,12,363.4,435.7)"/>
<use xlink:href="#f1_ae" transform="matrix(12,0,0,12,367.4,435.7)"/>
<use xlink:href="#f1_ay" transform="matrix(12,0,0,12,382.1,435.7)"/>
<use xlink:href="#f1_am" transform="matrix(12,0,0,12,392,435.7)"/>
<use xlink:href="#f1_b1" transform="matrix(12,0,0,12,401.5,435.7)"/>
<use xlink:href="#f1_bf" transform="matrix(12,0,0,12,407.7,435.7)"/>
<use xlink:href="#f1_2n" transform="matrix(12,0,0,12,418,435.7)"/>
<use xlink:href="#f1_7z" transform="matrix(12,0,0,12,426.4,435.7)"/>
<use xlink:href="#f1_b0" transform="matrix(12,0,0,12,435.6,435.7)"/>
<use xlink:href="#f1_c6" transform="matrix(12,0,0,12,445.1,435.7)"/>
<use xlink:href="#f1_7z" transform="matrix(12,0,0,12,454.6,435.7)"/>
<use xlink:href="#f1_af" transform="matrix(12,0,0,12,463.8,435.7)"/>
<use xlink:href="#f1_bf" transform="matrix(12,0,0,12,473.3,435.7)"/>
<use xlink:href="#f1_9q" transform="matrix(12,0,0,12,479.6,435.7)"/>
<use xlink:href="#f1_77" transform="matrix(12,0,0,12,483.6,435.7)"/>
<use xlink:href="#f1_a8" transform="matrix(12,0,0,12,492.7,435.7)"/>
<use xlink:href="#f1_89" transform="matrix(12,0,0,12,137.6,463.3)"/>
<use xlink:href="#f1_b1" transform="matrix(12,0,0,12,143.1,463.3)"/>
<use xlink:href="#f1_am" transform="matrix(12,0,0,12,149.3,463.3)"/>
<use xlink:href="#f1_ae" transform="matrix(12,0,0,12,158.8,463.3)"/>
<use xlink:href="#f1_bf" transform="matrix(12,0,0,12,177.5,463.3)"/>
<use xlink:href="#f1_7z" transform="matrix(12,0,0,12,183.4,463.3)"/>
<use xlink:href="#f1_af" transform="matrix(12,0,0,12,192.5,463.3)"/>
<use xlink:href="#f1_b5" transform="matrix(12,0,0,12,202.1,463.3)"/>
<use xlink:href="#f1_am" transform="matrix(12,0,0,12,209.4,463.3)"/>
<use xlink:href="#f1_b1" transform="matrix(12,0,0,12,219,463.3)"/>
<use xlink:href="#f1_89" transform="matrix(12,0,0,12,225.2,463.3)"/>
<use xlink:href="#f1_a8" transform="matrix(12,0,0,12,231,463.3)"/>
<use xlink:href="#f1_am" transform="matrix(12,0,0,12,235.1,463.3)"/>
<use xlink:href="#f1_ci" transform="matrix(12,0,0,12,244.6,463.3)"/>
<use xlink:href="#f1_nt" transform="matrix(12,0,0,12,256.7,463.3)"/>
<use xlink:href="#f1_a5" transform="matrix(12,0,0,12,261.5,463.3)"/>
<use xlink:href="#f1_7z" transform="matrix(12,0,0,12,269.2,463.3)"/>
<use xlink:href="#f1_b1" transform="matrix(12,0,0,12,278.3,463.3)"/>
<use xlink:href="#f1_77" transform="matrix(12,0,0,12,284.2,463.3)"/>
<use xlink:href="#f1_b5" transform="matrix(12,0,0,12,293,463.3)"/>
<use xlink:href="#f1_nt" transform="matrix(12,0,0,12,300.3,463.3)"/>
<use xlink:href="#f1_a8" transform="matrix(12,0,0,12,305,463.3)"/>
<use xlink:href="#f1_77" transform="matrix(12,0,0,12,309.1,463.3)"/>
<use xlink:href="#f1_co" transform="matrix(12,0,0,12,317.5,463.3)"/>
<use xlink:href="#f1_7z" transform="matrix(12,0,0,12,325.6,463.3)"/>
<use xlink:href="#f1_b1" transform="matrix(12,0,0,12,334.7,463.3)"/>
<use xlink:href="#f1_b5" transform="matrix(12,0,0,12,341,463.3)"/>
<use xlink:href="#f1_9q" transform="matrix(12,0,0,12,352.3,463.3)"/>
<use xlink:href="#f1_ae" transform="matrix(12,0,0,12,356.4,463.3)"/>
<use xlink:href="#f1_ay" transform="matrix(12,0,0,12,371,463.3)"/>
<use xlink:href="#f1_am" transform="matrix(12,0,0,12,380.6,463.3)"/>
<use xlink:href="#f1_b1" transform="matrix(12,0,0,12,390.1,463.3)"/>
<use xlink:href="#f1_bf" transform="matrix(12,0,0,12,396.3,463.3)"/>
<use xlink:href="#f1_p" transform="matrix(12,0,0,12,406.6,463.3)"/>
<use xlink:href="#f1_7z" transform="matrix(12,0,0,12,417.9,463.3)"/>
<use xlink:href="#f1_af" transform="matrix(12,0,0,12,427.1,463.3)"/>
<use xlink:href="#f1_b5" transform="matrix(12,0,0,12,436.6,463.3)"/>
<use xlink:href="#f1_7z" transform="matrix(12,0,0,12,443.9,463.3)"/>
<use xlink:href="#f1_nq" transform="matrix(12,0,0,12,453.1,463.3)"/>
<use xlink:href="#f1_13" transform="matrix(12,0,0,12,461.5,463.3)"/>
<use xlink:href="#f1_a8" transform="matrix(12,0,0,12,470.3,463.3)"/>
<use xlink:href="#f1_77" transform="matrix(12,0,0,12,474.4,463.3)"/>
<use xlink:href="#f1_bf" transform="matrix(12,0,0,12,482.8,463.3)"/>
<use xlink:href="#f1_bf" transform="matrix(12,0,0,12,488.7,463.3)"/>
<use xlink:href="#f1_7z" transform="matrix(12,0,0,12,494.5,463.3)"/>
<use xlink:href="#f1_af" transform="matrix(12,0,0,12,504,463.3)"/>
<use xlink:href="#f1_nq" transform="matrix(12,0,0,12,513.6,463.3)"/>
<use xlink:href="#f1_2n" transform="matrix(12,0,0,12,522,463.3)"/>
<use xlink:href="#f1_am" transform="matrix(12,0,0,12,530.4,463.3)"/>
<use xlink:href="#f1_89" transform="matrix(12,0,0,12,540.3,463.3)"/>
<use xlink:href="#f1_bf" transform="matrix(12,0,0,12,545.8,463.3)"/>
<use xlink:href="#f1_ae" transform="matrix(12,0,0,12,552,463.3)"/>
<use xlink:href="#f1_77" transform="matrix(12,0,0,12,566.7,463.3)"/>
<use xlink:href="#f1_cn" transform="matrix(12,0,0,12,575.1,463.3)"/>
<use xlink:href="#f1_ae" transform="matrix(12,0,0,12,137.6,490.8)"/>
<use xlink:href="#f1_am" transform="matrix(12,0,0,12,152.2,490.8)"/>
<use xlink:href="#f1_7v" transform="matrix(12,0,0,12,161.8,490.8)"/>
<use xlink:href="#f1_7z" transform="matrix(12,0,0,12,171.3,490.8)"/>
<use xlink:href="#f1_ua" transform="matrix(12,0,0,12,180.4,490.8)"/>
<use xlink:href="#f1_2n" transform="matrix(12,0,0,12,189.6,490.8)"/>
<use xlink:href="#f1_7z" transform="matrix(12,0,0,12,198,490.8)"/>
<use xlink:href="#f1_b0" transform="matrix(12,0,0,12,207.2,490.8)"/>
<use xlink:href="#f1_c6" transform="matrix(12,0,0,12,216.7,490.8)"/>
<use xlink:href="#f1_7z" transform="matrix(12,0,0,12,226.3,490.8)"/>
<use xlink:href="#f1_af" transform="matrix(12,0,0,12,235.4,490.8)"/>
<use xlink:href="#f1_bf" transform="matrix(12,0,0,12,245,490.8)"/>
<use xlink:href="#f1_9q" transform="matrix(12,0,0,12,251.2,490.8)"/>
<use xlink:href="#f1_77" transform="matrix(12,0,0,12,255.2,490.8)"/>
<use xlink:href="#f1_a8" transform="matrix(12,0,0,12,264,490.8)"/>
<use xlink:href="#f1_ov" transform="matrix(12,0,0,12,268.1,490.8)"/>
<use xlink:href="#f1_ow" transform="matrix(12,0,0,12,273.6,490.8)"/>
<use xlink:href="#f1_ae" transform="matrix(12,0,0,12,137.6,545.8)"/>
<use xlink:href="#f1_am" transform="matrix(12,0,0,12,152.2,545.8)"/>
<use xlink:href="#f1_7v" transform="matrix(12,0,0,12,161.8,545.8)"/>
<use xlink:href="#f1_7z" transform="matrix(12,0,0,12,171.3,545.8)"/>
<use xlink:href="#f1_nt" transform="matrix(12,0,0,12,180.4,545.8)"/>
<use xlink:href="#f1_77" transform="matrix(12,0,0,12,185.2,545.8)"/>
<use xlink:href="#f1_7v" transform="matrix(12,0,0,12,194,545.8)"/>
<use xlink:href="#f1_7v" transform="matrix(12,0,0,12,203.6,545.8)"/>
<use xlink:href="#f1_ov" transform="matrix(12,0,0,12,213.1,545.8)"/>
<use xlink:href="#f1_ox" transform="matrix(12,0,0,12,218.6,545.8)"/>
<use xlink:href="#f1_p" transform="matrix(12,0,0,12,224.1,545.8)"/>
<use xlink:href="#f1_7z" transform="matrix(12,0,0,12,235.4,545.8)"/>
<use xlink:href="#f1_af" transform="matrix(12,0,0,12,244.6,545.8)"/>
<use xlink:href="#f1_b5" transform="matrix(12,0,0,12,254.1,545.8)"/>
<use xlink:href="#f1_7z" transform="matrix(12,0,0,12,261.5,545.8)"/>
<use xlink:href="#f1_ov" transform="matrix(12,0,0,12,270.6,545.8)"/>
<use xlink:href="#f1_s3" transform="matrix(12,0,0,12,276.1,545.8)"/>
<use xlink:href="#f1_s1" transform="matrix(12,0,0,12,285.3,545.8)"/>
<use xlink:href="#f1_ow" transform="matrix(12,0,0,12,294.5,545.8)"/>
<use xlink:href="#f1_nq" transform="matrix(12,0,0,12,300.3,545.8)"/>
<use xlink:href="#f1_9q" transform="matrix(12,0,0,12,309.1,545.8)"/>
<use xlink:href="#f1_af" transform="matrix(12,0,0,12,313.1,545.8)"/>
<use xlink:href="#f1_ay" transform="matrix(12,0,0,12,322.6,545.8)"/>
<use xlink:href="#f1_c6" transform="matrix(12,0,0,12,332.2,545.8)"/>
<use xlink:href="#f1_bf" transform="matrix(12,0,0,12,341.7,545.8)"/>
<use xlink:href="#f1_or" transform="matrix(12,0,0,12,347.9,545.8)"/>
<use xlink:href="#f1_b5" transform="matrix(12,0,0,12,357.1,545.8)"/>
<use xlink:href="#f1_9n" transform="matrix(12,0,0,12,364.4,545.8)"/>
<use xlink:href="#f1_77" transform="matrix(12,0,0,12,373.9,545.8)"/>
<use xlink:href="#f1_ay" transform="matrix(12,0,0,12,382.7,545.8)"/>
<use xlink:href="#f1_7z" transform="matrix(12,0,0,12,392.3,545.8)"/>
<use xlink:href="#f1_ua" transform="matrix(12,0,0,12,401.4,545.8)"/>
<use xlink:href="#f1_ov" transform="matrix(12,0,0,12,410.6,545.8)"/>
<use xlink:href="#f1_s3" transform="matrix(12,0,0,12,416.1,545.8)"/>
<use xlink:href="#f1_s1" transform="matrix(12,0,0,12,425.6,545.8)"/>
<use xlink:href="#f1_nq" transform="matrix(12,0,0,12,434.8,545.8)"/>
<use xlink:href="#f1_s3" transform="matrix(12,0,0,12,439.2,545.8)"/>
<use xlink:href="#f1_s1" transform="matrix(12,0,0,12,448.7,545.8)"/>
<use xlink:href="#f1_ow" transform="matrix(12,0,0,12,457.9,545.8)"/>
<use xlink:href="#f1_oy" transform="matrix(12,0,0,12,463.4,545.8)"/>
<use xlink:href="#f1_ow" transform="matrix(12,0,0,12,468.9,545.8)"/>
</g>
</svg>