<?xml version="1.0" encoding="UTF-8" standalone="no"?>
<!DOCTYPE svg PUBLIC "-//W3C//DTD SVG 1.1//EN"
"http://www.w3.org/Graphics/SVG/1.1/DTD/svg11.dtd">
<svg viewBox="0 0 909 1286" version="1.1" xmlns="http://www.w3.org/2000/svg" xmlns:xlink="http://www.w3.org/1999/xlink">
<defs>
<clipPath id="c0"><path d="M0,1286.2V0H909.4V1286.2Z"/></clipPath>
<style type="text/css"><![CDATA[
.g0{
fill: none;
stroke: #0000FF;
stroke-width: 0.611;
stroke-linecap: butt;
stroke-linejoin: miter;
}
]]></style>
<path d="M373,507c0,0,54,0,94,13c0,0,41,14,69,39c0,0,27,26,41,61c0,0,14,36,14,78c0,0,0,176,-213,176H245V507ZM110,0V980H378c0,0,90,0,155,-19c0,0,65,-19,107,-54c0,0,43,-36,63,-86c0,0,20,-50,20,-113c0,0,0,-52,-15,-96c0,0,-16,-45,-44,-81c0,0,-29,-36,-71,-61c0,0,-42,-26,-95,-40c0,0,13,-8,24,-18c0,0,11,-10,22,-24L807,0H686c0,0,-35,0,-54,28L400,377c0,0,-11,16,-24,23c0,0,-13,7,-40,7H245V0Z"
id="f0_2d"
transform="scale(0.001,-0.001)"/>

<path d="M587,445c0,0,0,44,-13,81c0,0,-12,36,-36,63c0,0,-24,26,-59,41c0,0,-34,15,-78,15c0,0,-91,0,-145,-53c0,0,-53,-54,-67,-147ZM406,-9c0,0,-76,0,-140,24c0,0,-65,25,-111,75c0,0,-47,50,-73,122c0,0,-26,73,-26,168c0,0,0,76,23,142c0,0,24,66,68,115c0,0,45,49,108,76c0,0,64,28,144,28c0,0,66,0,122,-22c0,0,56,-22,97,-63c0,0,41,-42,64,-102c0,0,23,-61,23,-139c0,0,0,-31,-7,-41c0,0,-6,-10,-24,-10H186c0,0,1,-69,18,-120c0,0,18,-51,48,-84c0,0,30,-34,72,-51c0,0,42,-16,93,-16c0,0,48,0,83,10c0,0,35,11,60,25c0,0,25,13,42,24c0,0,17,11,30,11c0,0,8,0,14,-4c0,0,6,-3,10,-9l38,-48c0,0,-25,-29,-58,-50c0,0,-33,-21,-71,-35C565,17,527,3,486,-3c0,0,-41,-6,-80,-6Z"
id="f0_b"
transform="scale(0.001,-0.001)"/>

<path d="M127,0V620L53,630c0,0,-16,1,-25,9c0,0,-10,9,-10,23v54H127v70c0,0,0,62,17,111c0,0,16,49,48,82c0,0,31,33,76,51c0,0,45,17,101,17c0,0,23,0,45,-3c0,0,22,-4,42,-11l-4,-65c0,0,-1,-18,-18,-19c0,0,-16,-2,-44,-2c0,0,-31,0,-56,-9c0,0,-25,-8,-43,-27c0,0,-18,-20,-28,-51c0,0,-9,-32,-9,-78V716H450V621H258V0Z"
id="f0_t"
transform="scale(0.001,-0.001)"/>

<path d="M98,0V730h75c0,0,21,0,30,-9c0,0,8,-8,10,-27l9,-108c0,0,33,73,82,114c0,0,50,42,119,42c0,0,23,0,43,-5c0,0,20,-4,37,-16L492,624c0,0,-2,-18,-21,-18c0,0,-10,0,-29,4c0,0,-19,4,-42,4c0,0,-34,0,-59,-10c0,0,-26,-10,-47,-30c0,0,-20,-20,-36,-48c0,0,-16,-28,-29,-65V0Z"
id="f0_g"
transform="scale(0.001,-0.001)"/>

<path d="M104,0V730h79c0,0,14,0,23,-7c0,0,9,-6,10,-20l12,-78c0,0,47,52,105,84c0,0,58,32,134,32c0,0,60,0,105,-20c0,0,45,-20,76,-56c0,0,30,-36,46,-87c0,0,15,-51,15,-113V0H578V465c0,0,0,81,-37,127c0,0,-37,45,-112,45c0,0,-56,0,-104,-26c0,0,-49,-27,-89,-74V0Z"
id="f0_a"
transform="scale(0.001,-0.001)"/>

<path d="M357,-9c0,0,-64,0,-120,24c0,0,-56,25,-97,73c0,0,-42,49,-65,118c0,0,-24,70,-24,160c0,0,0,81,22,150c0,0,22,69,63,119c0,0,42,50,102,78c0,0,61,28,140,28c0,0,75,0,131,-25c0,0,56,-25,99,-70L574,598c0,0,-6,-8,-12,-12c0,0,-5,-4,-16,-4c0,0,-11,0,-23,9c0,0,-12,9,-30,20c0,0,-18,10,-44,19c0,0,-25,9,-63,9c0,0,-49,0,-86,-19c0,0,-38,-19,-63,-54c0,0,-25,-36,-38,-86c0,0,-13,-51,-13,-114c0,0,0,-66,14,-117c0,0,13,-51,39,-86c0,0,25,-35,61,-54c0,0,36,-18,80,-18c0,0,44,0,71,11c0,0,28,11,47,25c0,0,18,13,31,24c0,0,12,12,25,12c0,0,15,0,24,-13l38,-48c0,0,-24,-29,-53,-50c0,0,-29,-21,-62,-35C501,17,467,3,431,-3c0,0,-36,-6,-74,-6Z"
id="f0_4"
transform="scale(0.001,-0.001)"/>

<path d="M202,-11c0,0,-18,0,-35,8c0,0,-16,6,-29,18c0,0,-12,13,-19,29c0,0,-8,17,-8,36c0,0,0,19,8,36c0,0,7,17,19,29c0,0,13,13,29,21c0,0,17,7,35,7c0,0,19,0,36,-7c0,0,16,-8,29,-21c0,0,13,-12,21,-29c0,0,7,-17,7,-36c0,0,0,-19,-7,-36c0,0,-8,-16,-21,-29C267,15,254,3,238,-3c0,0,-17,-8,-36,-8Zm-4,505c0,0,-19,0,-35,7c0,0,-17,8,-29,20c0,0,-12,12,-20,29c0,0,-7,17,-7,36c0,0,0,19,7,36c0,0,8,17,20,29c0,0,12,13,29,20c0,0,16,8,35,8c0,0,18,0,35,-8c0,0,17,-7,30,-20c0,0,13,-12,20,-29c0,0,8,-17,8,-36c0,0,0,-19,-8,-36c0,0,-7,-17,-20,-29c0,0,-13,-12,-30,-20c0,0,-17,-7,-35,-7Z"
id="f0_17"
transform="scale(0.001,-0.001)"/>

<path d="M119,-207V1104H386v-51c0,0,0,-15,-9,-25c0,0,-10,-10,-26,-10H229V-121H351c0,0,16,0,26,-10c0,0,9,-10,9,-25v-51Z"
id="f0_1x"
transform="scale(0.001,-0.001)"/>

<path d="M190,0V95H394V757c0,0,0,29,2,61L230,671c0,0,-13,-11,-28,-11c-2,0,-5,1,-7,1c0,0,-17,5,-23,15l-40,54L418,983H519V95H706V0Z"
id="f0_18"
transform="scale(0.001,-0.001)"/>

<path d="M82,-207v51c0,0,0,15,10,25c0,0,10,10,27,10H239V1018H119c0,0,-17,0,-27,10c0,0,-10,10,-10,25v51H349V-207Z"
id="f0_1y"
transform="scale(0.001,-0.001)"/>

<path d="M304,0V390L0,980H119c0,0,18,0,28,-8c0,0,11,-9,19,-23L333,571c0,0,13,-23,23,-44c0,0,10,-20,17,-41c0,0,7,21,17,41c0,0,9,21,22,43L578,949c0,0,6,11,17,21c0,0,11,10,29,10H744L440,392V0Z"
id="f0_2c"
transform="scale(0.001,-0.001)"/>

<path d="M191,-11c0,0,-19,0,-35,8c0,0,-16,6,-29,18c0,0,-12,13,-20,29c0,0,-7,17,-7,36c0,0,0,19,7,36c0,0,8,17,20,29c0,0,13,13,29,21c0,0,16,7,35,7c0,0,19,0,35,-7c0,0,17,-8,30,-21c0,0,13,-12,21,-29c0,0,7,-17,7,-36c0,0,0,-19,-7,-36c0,0,-8,-16,-21,-29C256,15,243,3,226,-3c0,0,-16,-8,-35,-8Z"
id="f0_u"
transform="scale(0.001,-0.001)"/>

<path d="M336,-9c0,0,-91,0,-166,33c0,0,-76,35,-129,94l40,64c0,0,5,8,13,13c0,0,7,5,18,5c0,0,14,0,32,-15c0,0,17,-16,43,-34c0,0,26,-18,63,-34c0,0,37,-15,89,-15c0,0,43,0,77,13c0,0,33,13,57,36c0,0,23,23,35,55c0,0,13,33,13,72c0,0,0,44,-19,73c0,0,-19,28,-50,47c0,0,-31,19,-71,32c0,0,-39,13,-80,27c0,0,-41,14,-81,33c0,0,-39,18,-70,48c0,0,-31,30,-50,74c0,0,-19,44,-19,109c0,0,0,52,19,101c0,0,19,49,56,86c0,0,37,38,91,61c0,0,54,22,124,22c0,0,79,0,144,-26c0,0,65,-26,113,-76L595,826c0,0,-12,-21,-31,-21c0,0,-11,0,-27,11c0,0,-15,12,-37,26c0,0,-22,14,-53,25c0,0,-31,12,-74,12c0,0,-41,0,-72,-12c0,0,-31,-11,-51,-32c0,0,-21,-20,-31,-48c0,0,-11,-27,-11,-58c0,0,0,-41,19,-68c0,0,19,-27,50,-46c0,0,31,-19,71,-33c0,0,39,-14,80,-29c0,0,41,-15,81,-34c0,0,39,-19,70,-48c0,0,31,-29,50,-70c0,0,19,-42,19,-103c0,0,0,-65,-21,-121c0,0,-21,-56,-60,-98c0,0,-40,-42,-99,-66C468,13,410,-9,336,-9Z"
id="f0_1z"
transform="scale(0.001,-0.001)"/>

<path d="M610,364L471,759c0,0,-7,18,-14,41c0,0,-8,24,-15,52c0,0,-7,-28,-15,-52c0,0,-7,-24,-14,-42L275,364ZM6,0L374,980H512L879,0H774c0,0,-18,0,-29,9c0,0,-11,9,-17,22L645,267H240L157,32c0,0,-4,-13,-16,-22C141,10,128,0,111,0Z"
id="f0_w"
transform="scale(0.001,-0.001)"/>

<path d="M404,91c0,0,101,0,155,72c0,0,53,73,53,216c0,0,0,133,-47,195c0,0,-48,63,-136,63c0,0,-60,0,-106,-28c0,0,-46,-29,-84,-81V176c0,0,34,-47,75,-66c0,0,41,-19,90,-19ZM437,-9c0,0,-71,0,-120,26c0,0,-48,27,-85,76L225,28C225,28,222,0,192,0H107V1061H239V626c0,0,44,53,102,84c0,0,57,31,132,31c0,0,63,0,114,-25c0,0,51,-24,87,-71c0,0,35,-46,54,-112c0,0,19,-66,19,-150c0,0,0,-88,-21,-161c0,0,-22,-72,-62,-124c0,0,-40,-52,-98,-80C566,18,509,-9,437,-9Z"
id="f0_10"
transform="scale(0.001,-0.001)"/>

<path d="M336,-10c0,0,-60,0,-105,19c0,0,-45,19,-76,56c0,0,-30,36,-46,87c0,0,-16,51,-16,113V730H225V265c0,0,0,-82,36,-127c0,0,37,-45,113,-45c0,0,56,0,104,26c0,0,48,26,89,73V730H698V0H619c0,0,-13,0,-22,6c0,0,-9,7,-11,21l-12,77c0,0,-47,-52,-104,-83c0,0,-58,-31,-134,-31Z"
id="f0_j"
transform="scale(0.001,-0.001)"/>

<path d="M56,376V487H413V376Z"
id="f0_1n"
transform="scale(0.001,-0.001)"/>

<path d="M125,0V980H225c0,0,17,0,28,-3c0,0,10,-3,19,-20L623,357c0,0,10,-17,17,-35c0,0,8,-18,16,-36c0,0,7,19,15,37c0,0,8,18,17,34l346,601c0,0,9,16,19,19c0,0,11,3,29,3h100V0H1062V715c0,0,0,15,1,34c0,0,1,18,2,37L715,171c0,0,-17,-31,-49,-31H647c0,0,-32,0,-49,31L239,785c0,0,5,-38,5,-70V0Z"
id="f0_2"
transform="scale(0.001,-0.001)"/>

<path d="M404,92c0,0,53,0,92,18c0,0,40,18,66,53c0,0,27,35,40,86c0,0,13,51,13,116c0,0,0,65,-13,115c0,0,-13,51,-40,86c0,0,-26,35,-66,54c0,0,-39,19,-92,19c0,0,-54,0,-94,-19c0,0,-40,-19,-66,-54c0,0,-27,-35,-40,-86c0,0,-13,-50,-13,-115c0,0,0,-65,13,-116c0,0,13,-51,40,-86c0,0,26,-35,66,-53c0,0,40,-18,94,-18ZM404,-9c0,0,-80,0,-145,25c0,0,-64,27,-109,75c0,0,-46,49,-70,119c0,0,-24,69,-24,156c0,0,0,85,24,155c0,0,24,69,70,118c0,0,45,49,109,75c0,0,65,27,145,27c0,0,79,0,144,-27c0,0,64,-26,108,-75c0,0,45,-49,69,-118c0,0,25,-70,25,-155c0,0,0,-87,-25,-156c0,0,-24,-70,-69,-119C656,91,612,43,548,16C548,16,483,-9,404,-9Z"
id="f0_n"
transform="scale(0.001,-0.001)"/>

<path d="M284,-10c0,0,-72,0,-131,23C153,13,93,38,52,78l31,49c0,0,6,10,14,15c0,0,8,5,21,5c0,0,13,0,27,-10c0,0,13,-10,32,-22c0,0,19,-13,46,-23c0,0,27,-10,67,-10c0,0,35,0,59,10c0,0,25,9,42,25c0,0,16,17,25,38c0,0,8,22,8,46c0,0,0,30,-16,49c0,0,-15,20,-39,34c0,0,-25,14,-57,24c0,0,-32,11,-65,22c0,0,-33,12,-65,26c0,0,-31,15,-56,38c0,0,-25,22,-40,55c0,0,-15,33,-15,80c0,0,0,42,16,81c0,0,17,38,48,67c0,0,31,29,78,47c0,0,46,17,106,17c0,0,67,0,123,-23c0,0,55,-22,94,-62L507,609c0,0,-9,-17,-27,-17c0,0,-12,0,-25,9c0,0,-13,8,-31,17c0,0,-18,9,-43,18c0,0,-25,8,-59,8c0,0,-30,0,-53,-8c0,0,-23,-9,-39,-23c0,0,-17,-14,-26,-33c0,0,-9,-19,-9,-41c0,0,0,-28,15,-47c0,0,15,-18,40,-32c0,0,25,-13,56,-24c0,0,32,-11,65,-22c0,0,33,-11,64,-26c0,0,32,-15,57,-37c0,0,24,-21,39,-52c0,0,15,-31,15,-75c0,0,0,-51,-17,-94c0,0,-17,-43,-50,-74C479,56,445,25,396,7c0,0,-48,-17,-112,-17Z"
id="f0_l"
transform="scale(0.001,-0.001)"/>

<path d="M311,-10c0,0,-84,0,-130,47c0,0,-45,49,-45,139V621H52c0,0,-11,0,-19,7c0,0,-8,8,-8,22v52l115,15l31,224c0,0,1,12,9,18c0,0,8,7,20,7h67V716H468V621H267V185c0,0,0,-45,21,-67c0,0,20,-23,53,-23c0,0,19,0,33,6c0,0,14,5,24,12c0,0,9,6,16,12c0,0,7,5,13,5c0,0,7,0,11,-3c0,0,4,-3,8,-10L485,54C485,54,451,23,406,6c0,0,-46,-16,-95,-16Z"
id="f0_k"
transform="scale(0.001,-0.001)"/>

<path d="M307,81c0,0,32,0,60,6c0,0,28,7,52,19c0,0,25,13,47,31c0,0,22,18,44,41V328c0,0,-88,-3,-149,-14c0,0,-61,-11,-100,-29c0,0,-38,-18,-55,-42c0,0,-17,-24,-17,-54c0,0,0,-29,9,-49c0,0,9,-21,25,-34c0,0,16,-13,37,-19c0,0,22,-6,47,-6ZM267,-10c0,0,-42,0,-79,10c0,0,-37,12,-65,36c0,0,-28,24,-44,61c0,0,-16,36,-16,85c0,0,0,43,23,83c0,0,24,40,77,71c0,0,53,32,138,52c0,0,85,19,209,22v56c0,0,0,85,-37,128c0,0,-36,43,-105,43c0,0,-46,0,-78,-12c0,0,-32,-12,-55,-26c0,0,-23,-14,-40,-26c0,0,-17,-12,-34,-12c0,0,-13,0,-23,7c0,0,-10,6,-16,17L98,627c0,0,61,58,131,87c0,0,69,28,154,28c0,0,62,0,109,-20c0,0,48,-19,80,-56c0,0,32,-36,49,-87c0,0,17,-51,17,-113V0H580c0,0,-20,0,-30,6c0,0,-11,6,-14,25L519,98c0,0,-28,-26,-55,-46c0,0,-28,-21,-57,-35C407,17,377,3,342,-3c0,0,-34,-7,-75,-7Z"
id="f0_3"
transform="scale(0.001,-0.001)"/>

<path d="M143,-194l-22,20c0,0,-10,9,-10,21c0,0,0,9,11,20c0,0,6,7,17,21c0,0,12,13,23,30c0,0,12,17,22,38c0,0,9,21,14,44h-9c0,0,-38,0,-61,25c0,0,-24,26,-24,65c0,0,0,16,7,31c0,0,6,15,17,26c0,0,12,11,28,18c0,0,16,7,35,7c0,0,22,0,39,-9c0,0,17,-8,28,-22c0,0,11,-13,17,-32c0,0,5,-19,5,-41c0,0,0,-32,-9,-67c0,0,-9,-34,-27,-69c0,0,-17,-34,-43,-66c0,0,-25,-33,-58,-60Z"
id="f0_x"
transform="scale(0.001,-0.001)"/>

<path d="M125,0V980H260V0Z"
id="f0_1p"
transform="scale(0.001,-0.001)"/>

<path d="M110,0V730h77c0,0,15,0,24,-7c0,0,8,-6,10,-20l11,-75c0,0,21,25,44,45c0,0,22,21,49,36c0,0,26,15,55,24c0,0,30,8,64,8c0,0,75,0,123,-41c0,0,47,-41,67,-111c0,0,16,41,41,69c0,0,26,28,58,47c0,0,31,19,67,27c0,0,36,9,73,9c0,0,119,0,184,-72c0,0,66,-71,66,-204V0H991V465c0,0,0,85,-38,128c0,0,-39,44,-112,44c0,0,-32,0,-61,-11c0,0,-30,-11,-52,-33c0,0,-22,-22,-35,-54c0,0,-13,-32,-13,-74V0H549V465c0,0,0,87,-36,130c0,0,-36,42,-106,42c0,0,-48,0,-90,-25c0,0,-42,-25,-76,-69V0Z"
id="f0_p"
transform="scale(0.001,-0.001)"/>

<path d="M110,0V730H241V0Zm63,866c0,0,-19,0,-35,8c0,0,-16,7,-29,19c0,0,-12,13,-19,29c0,0,-8,17,-8,36c0,0,0,19,8,36c0,0,7,17,19,29c0,0,13,13,29,21c0,0,16,7,35,7c0,0,19,0,35,-7c0,0,17,-8,30,-21c0,0,13,-12,21,-29c0,0,7,-17,7,-36c0,0,0,-19,-7,-36c0,0,-8,-16,-21,-29c0,0,-13,-12,-29,-19c0,0,-17,-8,-36,-8Z"
id="f0_6"
transform="scale(0.001,-0.001)"/>

<path d="M110,0V1061H241V0Z"
id="f0_m"
transform="scale(0.001,-0.001)"/>

<path d="M104,0V980H241V544H711V980H847V0H711V445H241V0Z"
id="f0_15"
transform="scale(0.001,-0.001)"/>

<path d="M304,0V867H18V980H727V867H441V0Z"
id="f0_y"
transform="scale(0.001,-0.001)"/>

<path d="M103,0V980H239V114H617V0Z"
id="f0_f"
transform="scale(0.001,-0.001)"/>

<path d="M355,-167c0,0,49,0,87,10c0,0,38,10,65,26c0,0,26,17,39,41c0,0,13,23,13,51c0,0,0,27,-13,42c0,0,-14,16,-38,26c0,0,-24,9,-55,13c0,0,-32,4,-67,6c0,0,-35,3,-71,4c0,0,-36,2,-70,7c0,0,-36,-19,-59,-47c0,0,-23,-26,-23,-64c0,0,0,-25,11,-45c0,0,11,-21,34,-37c0,0,24,-15,61,-24c0,0,36,-9,86,-9ZM345,358c0,0,72,0,109,40c0,0,37,41,37,106c0,0,0,66,-37,105c0,0,-37,39,-109,39c0,0,-71,0,-108,-39c0,0,-37,-39,-37,-105c0,0,0,-33,9,-59c0,0,10,-26,28,-46c0,0,18,-19,45,-30c0,0,28,-11,63,-11Zm8,-620c0,0,-77,0,-134,16c0,0,-58,16,-96,43c0,0,-38,26,-57,62c0,0,-18,35,-18,73c0,0,0,53,31,90c0,0,32,37,88,59c0,0,-30,14,-48,38c0,0,-18,25,-18,66c0,0,0,31,22,66c0,0,22,35,67,59c0,0,-51,30,-81,80c0,0,-29,50,-29,117c0,0,0,53,20,97c0,0,19,43,54,74c0,0,35,31,84,47c0,0,48,17,107,17c0,0,45,0,85,-11c0,0,39,-10,71,-30H692V653c0,0,0,-26,-30,-31L585,611c0,0,23,-48,23,-104c0,0,0,-54,-20,-97c0,0,-20,-44,-55,-74c0,0,-35,-31,-83,-48c0,0,-48,-16,-105,-16c0,0,-48,0,-88,11c0,0,-22,-14,-32,-30c0,0,-11,-17,-11,-32c0,0,0,-26,20,-39c0,0,20,-13,53,-19c0,0,33,-6,75,-7c0,0,42,-2,85,-5c0,0,44,-3,86,-11c0,0,41,-7,74,-25c0,0,33,-19,53,-50c0,0,20,-32,20,-82c0,0,0,-47,-22,-91c0,0,-22,-44,-65,-78c0,0,-42,-35,-103,-55c0,0,-60,-21,-137,-21Z"
id="f0_h"
transform="scale(0.001,-0.001)"/>

<path d="M103,0V980H658V870H239V530H595V420H239V0Z"
id="f0_1l"
transform="scale(0.001,-0.001)"/>

<path d="M442,110c0,0,70,0,127,25c0,0,57,26,97,75c0,0,40,49,62,120c0,0,22,71,22,160c0,0,0,90,-22,160c0,0,-22,71,-62,120c0,0,-40,49,-97,75c0,0,-57,26,-127,26H240V110ZM104,0V980H442c0,0,100,0,183,-35c0,0,82,-36,141,-100c0,0,58,-64,91,-155c0,0,32,-90,32,-200c0,0,0,-110,-32,-201c0,0,-33,-90,-91,-154C766,135,707,70,625,35C625,35,542,0,442,0Z"
id="f0_d"
transform="scale(0.001,-0.001)"/>

<path d="M107,0V1061H238V633c0,0,45,50,101,79c0,0,56,29,129,29c0,0,59,0,105,-20c0,0,45,-20,75,-56c0,0,31,-36,46,-87c0,0,15,-51,15,-113V0H578V465c0,0,0,81,-36,127c0,0,-37,45,-112,45c0,0,-56,0,-104,-27c0,0,-48,-27,-88,-74V0Z"
id="f0_5"
transform="scale(0.001,-0.001)"/>

<path d="M69,0V43c0,0,0,12,5,27c0,0,5,14,18,26L395,410c0,0,39,39,70,76c0,0,31,36,53,73c0,0,21,37,33,75c0,0,12,38,12,81c0,0,0,42,-13,74c0,0,-13,32,-35,54c0,0,-23,21,-53,31c0,0,-31,11,-67,11c0,0,-35,0,-65,-11c0,0,-29,-11,-52,-30c0,0,-24,-19,-40,-45c0,0,-16,-27,-24,-58c0,0,-6,-26,-20,-33c0,0,-10,-6,-27,-6c-4,0,-9,1,-14,1L88,714c0,0,9,68,36,120c0,0,27,51,68,87c0,0,41,35,95,53c0,0,53,17,115,17c0,0,62,0,115,-18c0,0,53,-19,92,-54c0,0,39,-35,61,-86c0,0,22,-50,22,-115c0,0,0,-55,-17,-101c0,0,-16,-47,-43,-90c0,0,-27,-42,-63,-83c0,0,-36,-40,-75,-81L242,101c0,0,29,8,58,12c0,0,28,5,54,5H665c0,0,21,0,32,-12c0,0,12,-11,12,-31V0Z"
id="f0_1b"
transform="scale(0.001,-0.001)"/>

<path d="M304,-10c0,0,-82,0,-127,47c0,0,-45,49,-45,139V621H51c0,0,-11,0,-19,7c0,0,-8,8,-8,22v52l113,15l29,224c0,0,3,12,10,18c0,0,8,7,20,7h67V716H742V0H610V621H263V185c0,0,0,-45,20,-67c0,0,20,-23,52,-23c0,0,19,0,32,6c0,0,13,5,22,12c0,0,9,6,16,12c0,0,7,5,13,5c0,0,6,0,11,-3c0,0,4,-3,7,-10L475,54C475,54,442,23,398,6c0,0,-45,-16,-94,-16ZM677,871c0,0,-19,0,-35,8c0,0,-17,7,-29,20c0,0,-12,12,-20,29c0,0,-7,16,-7,35c0,0,0,19,7,36c0,0,8,17,20,30c0,0,12,12,29,20c0,0,16,7,35,7c0,0,18,0,35,-7c0,0,17,-8,30,-20c0,0,13,-13,20,-30c0,0,8,-17,8,-36c0,0,0,-19,-8,-35c0,0,-7,-17,-20,-29c0,0,-13,-13,-30,-20c0,0,-17,-8,-35,-8Z"
id="f0_r"
transform="scale(0.001,-0.001)"/>

<path d="M142,-9c0,0,-29,0,-57,4C85,-5,57,-1,25,7c0,0,2,21,4,41c0,0,2,21,4,40c0,0,1,11,8,19c0,0,7,7,22,7c0,0,9,0,25,-5c0,0,15,-6,40,-6c0,0,67,0,103,55c0,0,35,55,35,178V980H401V339c0,0,0,-82,-16,-147c0,0,-16,-64,-49,-110c0,0,-33,-45,-82,-69C254,13,206,-9,142,-9Z"
id="f0_2e"
transform="scale(0.001,-0.001)"/>

<path d="M371,95c0,0,62,0,108,28c0,0,45,29,85,81V557c0,0,-35,47,-76,66c0,0,-41,19,-91,19c0,0,-99,0,-153,-73c0,0,-54,-72,-54,-206c0,0,0,-71,13,-122c0,0,12,-51,35,-83c0,0,23,-33,57,-48c0,0,33,-15,76,-15ZM328,-9c0,0,-62,0,-112,23c0,0,-50,24,-86,71c0,0,-36,47,-55,117c0,0,-20,70,-20,161c0,0,0,80,21,150c0,0,22,70,62,120c0,0,40,51,98,80c0,0,58,29,131,29c0,0,66,0,113,-22c0,0,47,-22,84,-63v404H695V0H617c0,0,-14,0,-23,6c0,0,-9,7,-11,21l-13,87c0,0,-46,-56,-105,-90C465,24,406,-9,328,-9Z"
id="f0_o"
transform="scale(0.001,-0.001)"/>

<path d="M108,0V980H681V870H245V548H596V442H245V110H682L681,0Z"
id="f0_1s"
transform="scale(0.001,-0.001)"/>

<path d="M391,473c0,0,52,0,92,15c0,0,41,15,68,42c0,0,27,27,41,64c0,0,14,37,14,82c0,0,0,94,-53,146c0,0,-53,52,-162,52H245V473ZM110,0V980H391c0,0,89,0,155,-21c0,0,66,-22,110,-62c0,0,43,-39,64,-95c0,0,22,-57,22,-126c0,0,0,-69,-23,-125c0,0,-23,-57,-67,-99c0,0,-45,-41,-110,-64c0,0,-65,-22,-151,-22H245V0Z"
id="f0_1a"
transform="scale(0.001,-0.001)"/>

<path d="M396,-9c0,0,-76,0,-130,18c0,0,-53,19,-91,53c0,0,-38,34,-63,80c0,0,-25,47,-41,102l54,23c0,0,14,6,31,6c3,0,7,0,10,-1c0,0,20,-3,29,-22c0,0,9,-19,22,-46c0,0,13,-26,35,-51c0,0,23,-24,57,-41c0,0,34,-17,86,-17c0,0,49,0,85,17c0,0,37,17,62,43c0,0,24,26,37,59c0,0,12,33,12,64c0,0,0,39,-10,72c0,0,-10,33,-36,57c0,0,-27,23,-75,37c0,0,-47,13,-122,13v91c0,0,62,0,104,13c0,0,43,13,69,36c0,0,27,22,39,53c0,0,12,32,12,69c0,0,0,42,-12,73c0,0,-12,31,-34,52c0,0,-22,21,-53,31c0,0,-30,10,-66,10c0,0,-36,0,-65,-11c0,0,-29,-11,-53,-30c0,0,-23,-19,-39,-45c0,0,-16,-27,-24,-58c0,0,-6,-26,-20,-33c0,0,-10,-6,-27,-6c-5,0,-9,1,-14,1L99,714c0,0,10,68,37,120c0,0,27,51,68,87c0,0,41,35,95,53c0,0,53,17,115,17c0,0,62,0,113,-17c0,0,52,-18,89,-51c0,0,37,-33,58,-79c0,0,21,-47,21,-103c0,0,0,-47,-12,-84c0,0,-12,-36,-33,-64c0,0,-22,-28,-52,-47c0,0,-31,-19,-69,-31c0,0,93,-25,140,-84c0,0,47,-60,47,-149c0,0,0,-68,-25,-122c0,0,-26,-54,-69,-92C622,68,578,30,520,10C520,10,462,-9,396,-9Z"
id="f0_1f"
transform="scale(0.001,-0.001)"/>

<path d="M313,-10c0,0,-85,0,-131,47c0,0,-45,49,-45,139V621H53c0,0,-12,0,-20,7c0,0,-8,8,-8,22v52l116,15l31,224c0,0,1,12,9,18c0,0,8,7,20,7h67V716H596l31,225c0,0,1,12,9,18c0,0,8,7,20,7h67V716H925V621H723V185c0,0,0,-45,21,-67c0,0,21,-23,53,-23c0,0,20,0,34,6c0,0,14,5,24,12c0,0,10,6,17,12c0,0,7,5,13,5c0,0,10,0,18,-13L942,54C942,54,909,23,863,6c0,0,-45,-16,-95,-16c0,0,-85,0,-131,47c0,0,-45,49,-45,139V621H268V185c0,0,0,-45,21,-67c0,0,21,-23,53,-23c0,0,20,0,34,6c0,0,13,5,23,12c0,0,11,6,18,12c0,0,7,5,13,5c0,0,6,0,11,-3c0,0,4,-3,7,-10L487,54C487,54,454,23,408,6c0,0,-46,-16,-95,-16Z"
id="f0_1h"
transform="scale(0.001,-0.001)"/>

<path d="M404,91c0,0,100,0,154,72c0,0,54,73,54,207c0,0,0,71,-12,122c0,0,-12,50,-36,83c0,0,-23,32,-57,47c0,0,-34,15,-77,15c0,0,-61,0,-108,-28c0,0,-47,-29,-86,-81V176c0,0,35,-47,76,-66c0,0,42,-19,92,-19ZM105,-245V730h79c0,0,14,0,23,-7c0,0,9,-6,10,-20l13,-85c0,0,46,56,106,90c0,0,59,34,137,34c0,0,63,0,113,-24c0,0,51,-24,87,-71c0,0,36,-47,55,-117c0,0,19,-69,19,-160c0,0,0,-81,-21,-150c0,0,-22,-70,-62,-121c0,0,-41,-51,-99,-80C565,19,507,-9,433,-9c0,0,-66,0,-113,21c0,0,-47,22,-84,63V-245Z"
id="f0_e"
transform="scale(0.001,-0.001)"/>

<path d="M-8,-64L473,1013c0,0,19,48,69,48h55L119,-14c0,0,-11,-25,-31,-38c0,0,-20,-12,-42,-12Z"
id="f0_2f"
transform="scale(0.001,-0.001)"/>

<path d="M245,0L16,730H119c0,0,15,0,26,-9c0,0,10,-8,13,-19L289,236c0,0,7,-25,12,-49c0,0,6,-24,9,-48c0,0,6,24,14,48c0,0,7,24,15,50L484,706c0,0,4,11,14,18c0,0,9,7,23,7h56c0,0,15,0,25,-7c0,0,9,-7,13,-18L756,237c0,0,9,-25,15,-50c0,0,7,-24,13,-48c0,0,8,48,23,98L941,703c0,0,3,12,13,19c0,0,10,8,24,8h98L847,0H743c0,0,-19,0,-26,25L564,516c0,0,-6,17,-10,34c0,0,-4,17,-8,34c0,0,-4,-17,-7,-34c0,0,-4,-17,-10,-35L374,25C374,25,366,0,345,0Z"
id="f0_13"
transform="scale(0.001,-0.001)"/>

<path d="M95,0V1061H227V437h30c0,0,14,0,22,4c0,0,9,4,19,16L492,704c0,0,10,12,21,19c0,0,11,7,29,7H661L432,442c0,0,-11,-11,-21,-20c0,0,-10,-9,-22,-17c0,0,12,-8,22,-20c0,0,10,-11,21,-24L676,0H558c0,0,-16,0,-28,6c0,0,-12,5,-21,19L310,324c0,0,-11,15,-20,20c0,0,-10,4,-30,4H227V0Z"
id="f0_q"
transform="scale(0.001,-0.001)"/>

<path d="M0,-204v87H761v-87Z"
id="f0_2g"
transform="scale(0.001,-0.001)"/>

<path d="M435,400l41,233H322L282,400ZM107,0l54,304H71c0,0,-20,0,-29,12c0,0,-9,12,-5,42l6,42H174l40,233H66l9,54c0,0,4,22,17,32c0,0,13,10,42,10h93l46,256c0,0,4,22,20,34c0,0,16,13,37,13h59L335,729H489l54,303h58c0,0,21,0,33,-14c0,0,13,-13,9,-35L597,729H735L725,674c0,0,-4,-22,-17,-32c0,0,-13,-9,-42,-9H584L543,400H653c0,0,21,0,30,-12c0,0,9,-12,5,-42l-6,-42H530L476,0H417c0,0,-19,0,-32,16c0,0,-12,16,-8,40l45,248H269L225,50c0,0,-5,-27,-22,-38C203,12,186,0,165,0Z"
id="f0_2h"
transform="scale(0.001,-0.001)"/>

<path d="M46,298c0,0,0,48,14,88c0,0,13,41,38,70c0,0,25,29,62,45c0,0,36,16,83,16c0,0,38,0,75,-12c0,0,36,-11,70,-25c0,0,34,-15,65,-26c0,0,30,-12,57,-12c0,0,47,0,72,31c0,0,26,30,27,81H715c0,0,0,-49,-14,-90c0,0,-13,-40,-38,-69c0,0,-25,-29,-62,-46c0,0,-36,-16,-83,-16c0,0,-38,0,-75,12c0,0,-36,12,-70,26c0,0,-34,14,-65,26c0,0,-30,12,-57,12c0,0,-47,0,-72,-30c0,0,-26,-31,-27,-81Z"
id="f0_2i"
transform="scale(0.001,-0.001)"/>

<path d="M17,0L244,374L27,730H152c0,0,15,0,22,-6c0,0,7,-5,13,-14L339,445c0,0,3,9,7,16c0,0,3,8,9,16L483,707c0,0,6,11,14,17c0,0,7,6,18,6H635L417,381L645,0H518c0,0,-14,0,-24,9c0,0,-9,8,-15,18L325,303c0,0,-6,-17,-14,-29L172,27c0,0,-6,-11,-15,-19c0,0,-9,-8,-23,-8Z"
id="f0_14"
transform="scale(0.001,-0.001)"/>

<path d="M70,315v98H690V315Zm0,242v99H690V557Z"
id="f0_27"
transform="scale(0.001,-0.001)"/>

<path d="M821,74c0,0,25,0,47,9c0,0,21,9,38,29c0,0,16,20,25,52c0,0,10,33,10,80c0,0,0,47,-10,80c0,0,-9,33,-25,54c0,0,-17,20,-38,30c0,0,-22,9,-47,9c0,0,-24,0,-46,-9c0,0,-22,-10,-38,-30c0,0,-16,-21,-25,-54c0,0,-9,-33,-9,-80c0,0,0,-47,9,-80c0,0,9,-32,25,-52c0,0,16,-20,38,-29c0,0,22,-9,46,-9Zm0,-86c0,0,-47,0,-87,16c0,0,-41,18,-71,51c0,0,-30,33,-46,81c0,0,-17,48,-17,108c0,0,0,62,17,110c0,0,16,48,46,81c0,0,30,33,71,51c0,0,40,18,87,18c0,0,47,0,88,-18c0,0,41,-18,70,-51c0,0,30,-33,47,-81c0,0,17,-48,17,-110c0,0,0,-60,-18,-108c0,0,-18,-48,-49,-81C976,55,946,22,906,4c0,0,-41,-16,-85,-16ZM270,613c0,0,25,0,47,9c0,0,22,9,38,29c0,0,16,20,25,53c0,0,9,32,9,79c0,0,0,47,-9,80c0,0,-9,33,-25,54c0,0,-16,21,-38,30c0,0,-22,9,-47,9c0,0,-25,0,-46,-9c0,0,-22,-9,-38,-30c0,0,-16,-21,-25,-54c0,0,-9,-33,-9,-80c0,0,0,-47,9,-79c0,0,9,-33,25,-53c0,0,16,-20,38,-29c0,0,21,-9,46,-9ZM106,0L842,987c0,0,13,22,30,33c0,0,16,12,42,12h57L231,39C231,39,218,16,201,8C201,8,184,0,162,0ZM270,527c0,0,-47,0,-88,17c0,0,-40,17,-70,50c0,0,-29,33,-46,81c0,0,-17,47,-17,108c0,0,0,61,17,110c0,0,17,48,46,82c0,0,30,33,70,50c0,0,41,17,88,17c0,0,47,0,88,-17c0,0,40,-17,70,-50c0,0,30,-34,47,-82c0,0,17,-49,17,-110c0,0,0,-61,-18,-108c0,0,-18,-48,-49,-81c0,0,-30,-33,-71,-50c0,0,-40,-17,-84,-17Z"
id="f0_2j"
transform="scale(0.001,-0.001)"/>

<path d="M386,95c0,0,44,0,83,20c0,0,40,19,70,66c0,0,30,46,48,122c0,0,18,75,18,187c0,0,0,112,-18,188c0,0,-18,75,-48,122c0,0,-30,46,-70,66c0,0,-39,20,-83,20c0,0,-43,0,-82,-20c0,0,-39,-20,-69,-66c0,0,-31,-47,-49,-122c0,0,-17,-76,-17,-188c0,0,0,-112,17,-187c0,0,18,-76,49,-122c0,0,30,-47,69,-66c0,0,39,-20,82,-20ZM386,-9c0,0,-73,0,-136,29c0,0,-64,30,-110,92c0,0,-47,61,-74,155c0,0,-26,95,-26,223c0,0,0,128,26,223c0,0,27,94,74,156c0,0,46,62,110,92c0,0,63,30,136,30c0,0,74,0,137,-30c0,0,64,-30,111,-92c0,0,47,-62,74,-156c0,0,27,-95,27,-223c0,0,0,-128,-27,-223c0,0,-27,-94,-74,-155c0,0,-47,-62,-111,-92C523,20,460,-9,386,-9Z"
id="f0_1t"
transform="scale(0.001,-0.001)"/>

<path d="M468,-9c0,0,-95,0,-172,35c0,0,-77,37,-132,103c0,0,-55,66,-85,158c0,0,-29,92,-29,203c0,0,0,111,31,203c0,0,32,93,88,159c0,0,57,66,136,103c0,0,79,36,175,36c0,0,94,0,166,-33c0,0,72,-34,126,-91L727,804c0,0,-4,-7,-11,-11c0,0,-7,-4,-17,-4c0,0,-13,0,-28,13c0,0,-15,13,-40,29c0,0,-25,16,-61,30c0,0,-37,13,-91,13c0,0,-64,0,-118,-26c0,0,-53,-26,-91,-76c0,0,-39,-49,-60,-120c0,0,-21,-72,-21,-162c0,0,0,-91,22,-163c0,0,22,-71,61,-120c0,0,39,-50,92,-76c0,0,52,-26,113,-26c0,0,37,0,66,5c0,0,30,6,55,16c0,0,25,11,47,28c0,0,22,17,44,40c0,0,11,10,23,10c0,0,10,0,19,-9l54,-58C785,137,732,67,654,28C654,28,577,-9,468,-9Z"
id="f0_v"
transform="scale(0.001,-0.001)"/>

<path d="M286,0L14,730H122c0,0,15,0,26,-9c0,0,10,-8,14,-18L318,236c0,0,9,-26,16,-51c0,0,7,-25,13,-50c0,0,5,25,12,50c0,0,7,25,18,51L535,703c0,0,4,11,14,19c0,0,10,8,23,8H676L404,0Z"
id="f0_z"
transform="scale(0.001,-0.001)"/>

<path d="M498,354V754c0,0,0,36,4,79L160,354ZM498,0V257H76c0,0,-15,0,-25,7c0,0,-9,8,-12,21L26,348L490,981H607V354H749V283c0,0,0,-11,-7,-19c0,0,-7,-7,-21,-7H607V0Z"
id="f0_1i"
transform="scale(0.001,-0.001)"/>

<path d="M162,-245L287,43L8,730H122c0,0,17,0,26,-9c0,0,9,-8,13,-18L331,246c0,0,6,-15,12,-31c0,0,5,-16,9,-31c0,0,5,16,10,32c0,0,6,16,12,32L539,703c0,0,4,11,15,19c0,0,10,8,23,8H681L305,-214c0,0,-6,-15,-16,-23c0,0,-10,-8,-29,-8Z"
id="f0_11"
transform="scale(0.001,-0.001)"/>

</defs>
<g fill="#000000"  clip-path="url(#c0)">
<use xlink:href="#f0_2d" transform="matrix(12,0,0,12,137.7,141)"/>
<use xlink:href="#f0_b" transform="matrix(12,0,0,12,147.3,141)"/>
<use xlink:href="#f0_t" transform="matrix(12,0,0,12,156.3,141)"/>
<use xlink:href="#f0_b" transform="matrix(12,0,0,12,161.3,141)"/>
<use xlink:href="#f0_g" transform="matrix(12,0,0,12,170.5,141)"/>
<use xlink:href="#f0_b" transform="matrix(12,0,0,12,176.6,141)"/>
<use xlink:href="#f0_a" transform="matrix(12,0,0,12,185.7,141)"/>
<use xlink:href="#f0_4" transform="matrix(12,0,0,12,195.4,141)"/>
<use xlink:href="#f0_b" transform="matrix(12,0,0,12,203.1,141)"/>
<use xlink:href="#f0_17" transform="matrix(12,0,0,12,212.3,141)"/>
<use xlink:href="#f0_1x" transform="matrix(12,0,0,12,137.7,168.5)"/>
<use xlink:href="#f0_18" transform="matrix(12,0,0,12,143.3,168.5)"/>
<use xlink:href="#f0_1y" transform="matrix(12,0,0,12,152.6,168.5)"/>
<use xlink:href="#f0_2c" transform="matrix(12,0,0,12,162.4,168.5)"/>
<use xlink:href="#f0_u" transform="matrix(12,0,0,12,169.3,168.5)"/>
<use xlink:href="#f0_1z" transform="matrix(12,0,0,12,173.9,168.5)"/>
<use xlink:href="#f0_u" transform="matrix(12,0,0,12,182.3,168.5)"/>
<use xlink:href="#f0_w" transform="matrix(12,0,0,12,191,168.5)"/>
<use xlink:href="#f0_10" transform="matrix(12,0,0,12,201.5,168.5)"/>
<use xlink:href="#f0_j" transform="matrix(12,0,0,12,211.1,168.5)"/>
<use xlink:href="#f0_1n" transform="matrix(12,0,0,12,220.8,168.5)"/>
<use xlink:href="#f0_2" transform="matrix(12,0,0,12,226.6,168.5)"/>
<use xlink:href="#f0_n" transform="matrix(12,0,0,12,242.3,168.5)"/>
<use xlink:href="#f0_l" transform="matrix(12,0,0,12,251.7,168.5)"/>
<use xlink:href="#f0_k" transform="matrix(12,0,0,12,258.8,168.5)"/>
<use xlink:href="#f0_3" transform="matrix(12,0,0,12,264.7,168.5)"/>
<use xlink:href="#f0_t" transform="matrix(12,0,0,12,273.4,168.5)"/>
<use xlink:href="#f0_3" transform="matrix(12,0,0,12,278.6,168.5)"/>
<use xlink:href="#f0_x" transform="matrix(12,0,0,12,287.4,168.5)"/>
<use xlink:href="#f0_2" transform="matrix(12,0,0,12,296.1,168.5)"/>
<use xlink:href="#f0_u" transform="matrix(12,0,0,12,311.8,168.5)"/>
<use xlink:href="#f0_2" transform="matrix(12,0,0,12,320.5,168.5)"/>
<use xlink:href="#f0_u" transform="matrix(12,0,0,12,336.2,168.5)"/>
<use xlink:href="#f0_1p" transform="matrix(12,0,0,12,344.9,168.5)"/>
<use xlink:href="#f0_l" transform="matrix(12,0,0,12,349.5,168.5)"/>
<use xlink:href="#f0_p" transform="matrix(12,0,0,12,356.7,168.5)"/>
<use xlink:href="#f0_3" transform="matrix(12,0,0,12,371.3,168.5)"/>
<use xlink:href="#f0_6" transform="matrix(12,0,0,12,380,168.5)"/>
<use xlink:href="#f0_m" transform="matrix(12,0,0,12,384.3,168.5)"/>
<use xlink:href="#f0_x" transform="matrix(12,0,0,12,388.7,168.5)"/>
<use xlink:href="#f0_15" transform="matrix(12,0,0,12,401.5,168.5)"/>
<use xlink:href="#f0_u" transform="matrix(12,0,0,12,412.9,168.5)"/>
<use xlink:href="#f0_y" transform="matrix(12,0,0,12,416,168.5)"/>
<use xlink:href="#f0_u" transform="matrix(12,0,0,12,423.2,168.5)"/>
<use xlink:href="#f0_f" transform="matrix(12,0,0,12,432,168.5)"/>
<use xlink:href="#f0_6" transform="matrix(12,0,0,12,439.7,168.5)"/>
<use xlink:href="#f0_a" transform="matrix(12,0,0,12,443.9,168.5)"/>
<use xlink:href="#f0_x" transform="matrix(12,0,0,12,453.6,168.5)"/>
<use xlink:href="#f0_f" transform="matrix(12,0,0,12,462.3,168.5)"/>
<use xlink:href="#f0_b" transform="matrix(12,0,0,12,469.9,168.5)"/>
<use xlink:href="#f0_3" transform="matrix(12,0,0,12,479.1,168.5)"/>
<use xlink:href="#f0_g" transform="matrix(12,0,0,12,487.8,168.5)"/>
<use xlink:href="#f0_a" transform="matrix(12,0,0,12,494.2,168.5)"/>
<use xlink:href="#f0_6" transform="matrix(12,0,0,12,503.8,168.5)"/>
<use xlink:href="#f0_a" transform="matrix(12,0,0,12,508.1,168.5)"/>
<use xlink:href="#f0_h" transform="matrix(12,0,0,12,517.7,168.5)"/>
<use xlink:href="#f0_1l" transform="matrix(12,0,0,12,530.5,168.5)"/>
<use xlink:href="#f0_g" transform="matrix(12,0,0,12,538.9,168.5)"/>
<use xlink:href="#f0_n" transform="matrix(12,0,0,12,545,168.5)"/>
<use xlink:href="#f0_p" transform="matrix(12,0,0,12,554.6,168.5)"/>
<use xlink:href="#f0_d" transform="matrix(12,0,0,12,573.4,168.5)"/>
<use xlink:href="#f0_3" transform="matrix(12,0,0,12,584.7,168.5)"/>
<use xlink:href="#f0_k" transform="matrix(12,0,0,12,593.3,168.5)"/>
<use xlink:href="#f0_3" transform="matrix(12,0,0,12,599.2,168.5)"/>
<use xlink:href="#f0_x" transform="matrix(12,0,0,12,607.9,168.5)"/>
<use xlink:href="#f0_3" transform="matrix(12,0,0,12,616.6,168.5)"/>
<use xlink:href="#f0_l" transform="matrix(12,0,0,12,629.6,168.5)"/>
<use xlink:href="#f0_5" transform="matrix(12,0,0,12,636.7,168.5)"/>
<use xlink:href="#f0_n" transform="matrix(12,0,0,12,646.4,168.5)"/>
<use xlink:href="#f0_g" transform="matrix(12,0,0,12,656,168.5)"/>
<use xlink:href="#f0_k" transform="matrix(12,0,0,12,662.4,168.5)"/>
<use xlink:href="#f0_4" transform="matrix(12,0,0,12,672.8,168.5)"/>
<use xlink:href="#f0_n" transform="matrix(12,0,0,12,680.4,168.5)"/>
<use xlink:href="#f0_j" transform="matrix(12,0,0,12,690,168.5)"/>
<use xlink:href="#f0_g" transform="matrix(12,0,0,12,699.5,168.5)"/>
<use xlink:href="#f0_l" transform="matrix(12,0,0,12,705.6,168.5)"/>
<use xlink:href="#f0_b" transform="matrix(12,0,0,12,712.8,168.5)"/>
<use xlink:href="#f0_u" transform="matrix(12,0,0,12,721.9,168.5)"/>
<use xlink:href="#f0_1x" transform="matrix(12,0,0,12,137.7,196)"/>
<use xlink:href="#f0_1b" transform="matrix(12,0,0,12,143.3,196)"/>
<use xlink:href="#f0_1y" transform="matrix(12,0,0,12,152.6,196)"/>
<use xlink:href="#f0_y" transform="matrix(12,0,0,12,162.4,196)"/>
<use xlink:href="#f0_u" transform="matrix(12,0,0,12,169.6,196)"/>
<use xlink:href="#f0_15" transform="matrix(12,0,0,12,174,196)"/>
<use xlink:href="#f0_3" transform="matrix(12,0,0,12,185.5,196)"/>
<use xlink:href="#f0_l" transform="matrix(12,0,0,12,194.2,196)"/>
<use xlink:href="#f0_r" transform="matrix(12,0,0,12,201.2,196)"/>
<use xlink:href="#f0_b" transform="matrix(12,0,0,12,211.4,196)"/>
<use xlink:href="#f0_x" transform="matrix(12,0,0,12,220.6,196)"/>
<use xlink:href="#f0_2d" transform="matrix(12,0,0,12,229.3,196)"/>
<use xlink:href="#f0_u" transform="matrix(12,0,0,12,239.4,196)"/>
<use xlink:href="#f0_y" transform="matrix(12,0,0,12,248.2,196)"/>
<use xlink:href="#f0_6" transform="matrix(12,0,0,12,257.1,196)"/>
<use xlink:href="#f0_10" transform="matrix(12,0,0,12,261.3,196)"/>
<use xlink:href="#f0_l" transform="matrix(12,0,0,12,270.8,196)"/>
<use xlink:href="#f0_5" transform="matrix(12,0,0,12,278,196)"/>
<use xlink:href="#f0_6" transform="matrix(12,0,0,12,287.6,196)"/>
<use xlink:href="#f0_g" transform="matrix(12,0,0,12,291.9,196)"/>
<use xlink:href="#f0_3" transform="matrix(12,0,0,12,297.8,196)"/>
<use xlink:href="#f0_a" transform="matrix(12,0,0,12,306.5,196)"/>
<use xlink:href="#f0_6" transform="matrix(12,0,0,12,316.1,196)"/>
<use xlink:href="#f0_x" transform="matrix(12,0,0,12,320.5,196)"/>
<use xlink:href="#f0_2e" transform="matrix(12,0,0,12,329.2,196)"/>
<use xlink:href="#f0_u" transform="matrix(12,0,0,12,334.9,196)"/>
<use xlink:href="#f0_1l" transform="matrix(12,0,0,12,343.7,196)"/>
<use xlink:href="#f0_g" transform="matrix(12,0,0,12,352.1,196)"/>
<use xlink:href="#f0_6" transform="matrix(12,0,0,12,358.4,196)"/>
<use xlink:href="#f0_b" transform="matrix(12,0,0,12,362.6,196)"/>
<use xlink:href="#f0_o" transform="matrix(12,0,0,12,371.8,196)"/>
<use xlink:href="#f0_p" transform="matrix(12,0,0,12,381.4,196)"/>
<use xlink:href="#f0_3" transform="matrix(12,0,0,12,396.1,196)"/>
<use xlink:href="#f0_a" transform="matrix(12,0,0,12,404.8,196)"/>
<use xlink:href="#f0_x" transform="matrix(12,0,0,12,414.6,196)"/>
<use xlink:href="#f0_y" transform="matrix(12,0,0,12,423.3,196)"/>
<use xlink:href="#f0_5" transform="matrix(12,0,0,12,432.2,196)"/>
<use xlink:href="#f0_b" transform="matrix(12,0,0,12,441.8,196)"/>
<use xlink:href="#f0_1s" transform="matrix(12,0,0,12,455.1,196)"/>
<use xlink:href="#f0_m" transform="matrix(12,0,0,12,464.1,196)"/>
<use xlink:href="#f0_b" transform="matrix(12,0,0,12,468.2,196)"/>
<use xlink:href="#f0_p" transform="matrix(12,0,0,12,477.4,196)"/>
<use xlink:href="#f0_b" transform="matrix(12,0,0,12,492,196)"/>
<use xlink:href="#f0_a" transform="matrix(12,0,0,12,501,196)"/>
<use xlink:href="#f0_k" transform="matrix(12,0,0,12,510.5,196)"/>
<use xlink:href="#f0_l" transform="matrix(12,0,0,12,516.6,196)"/>
<use xlink:href="#f0_n" transform="matrix(12,0,0,12,528,196)"/>
<use xlink:href="#f0_t" transform="matrix(12,0,0,12,537.7,196)"/>
<use xlink:href="#f0_1z" transform="matrix(12,0,0,12,547.4,196)"/>
<use xlink:href="#f0_k" transform="matrix(12,0,0,12,555.8,196)"/>
<use xlink:href="#f0_3" transform="matrix(12,0,0,12,561.8,196)"/>
<use xlink:href="#f0_r" transform="matrix(12,0,0,12,570.3,196)"/>
<use xlink:href="#f0_l" transform="matrix(12,0,0,12,580.4,196)"/>
<use xlink:href="#f0_r" transform="matrix(12,0,0,12,587.4,196)"/>
<use xlink:href="#f0_4" transform="matrix(12,0,0,12,597.7,196)"/>
<use xlink:href="#f0_3" transform="matrix(12,0,0,12,605.3,196)"/>
<use xlink:href="#f0_m" transform="matrix(12,0,0,12,614,196)"/>
<use xlink:href="#f0_f" transform="matrix(12,0,0,12,622.4,196)"/>
<use xlink:href="#f0_b" transform="matrix(12,0,0,12,630,196)"/>
<use xlink:href="#f0_3" transform="matrix(12,0,0,12,639.2,196)"/>
<use xlink:href="#f0_g" transform="matrix(12,0,0,12,647.9,196)"/>
<use xlink:href="#f0_a" transform="matrix(12,0,0,12,654.3,196)"/>
<use xlink:href="#f0_6" transform="matrix(12,0,0,12,663.9,196)"/>
<use xlink:href="#f0_a" transform="matrix(12,0,0,12,668.2,196)"/>
<use xlink:href="#f0_h" transform="matrix(12,0,0,12,677.8,196)"/>
<use xlink:href="#f0_17" transform="matrix(12,0,0,12,686.4,196)"/>
<use xlink:href="#f0_d" transform="matrix(12,0,0,12,695.5,196)"/>
<use xlink:href="#f0_3" transform="matrix(12,0,0,12,706.8,196)"/>
<use xlink:href="#f0_k" transform="matrix(12,0,0,12,715.4,196)"/>
<use xlink:href="#f0_3" transform="matrix(12,0,0,12,721.3,196)"/>
<use xlink:href="#f0_2" transform="matrix(12,0,0,12,137.7,223.5)"/>
<use xlink:href="#f0_6" transform="matrix(12,0,0,12,153.4,223.5)"/>
<use xlink:href="#f0_a" transform="matrix(12,0,0,12,157.5,223.5)"/>
<use xlink:href="#f0_6" transform="matrix(12,0,0,12,167.1,223.5)"/>
<use xlink:href="#f0_a" transform="matrix(12,0,0,12,171.4,223.5)"/>
<use xlink:href="#f0_h" transform="matrix(12,0,0,12,181,223.5)"/>
<use xlink:href="#f0_x" transform="matrix(12,0,0,12,189.8,223.5)"/>
<use xlink:href="#f0_1p" transform="matrix(12,0,0,12,198.5,223.5)"/>
<use xlink:href="#f0_a" transform="matrix(12,0,0,12,203.1,223.5)"/>
<use xlink:href="#f0_t" transform="matrix(12,0,0,12,212.6,223.5)"/>
<use xlink:href="#f0_b" transform="matrix(12,0,0,12,217.8,223.5)"/>
<use xlink:href="#f0_g" transform="matrix(12,0,0,12,226.9,223.5)"/>
<use xlink:href="#f0_b" transform="matrix(12,0,0,12,233,223.5)"/>
<use xlink:href="#f0_a" transform="matrix(12,0,0,12,242.2,223.5)"/>
<use xlink:href="#f0_4" transform="matrix(12,0,0,12,251.8,223.5)"/>
<use xlink:href="#f0_b" transform="matrix(12,0,0,12,259.4,223.5)"/>
<use xlink:href="#f0_x" transform="matrix(12,0,0,12,268.6,223.5)"/>
<use xlink:href="#f0_3" transform="matrix(12,0,0,12,277.3,223.5)"/>
<use xlink:href="#f0_a" transform="matrix(12,0,0,12,286,223.5)"/>
<use xlink:href="#f0_o" transform="matrix(12,0,0,12,295.7,223.5)"/>
<use xlink:href="#f0_1a" transform="matrix(12,0,0,12,309.5,223.5)"/>
<use xlink:href="#f0_g" transform="matrix(12,0,0,12,319,223.5)"/>
<use xlink:href="#f0_b" transform="matrix(12,0,0,12,325.1,223.5)"/>
<use xlink:href="#f0_o" transform="matrix(12,0,0,12,334.2,223.5)"/>
<use xlink:href="#f0_6" transform="matrix(12,0,0,12,343.8,223.5)"/>
<use xlink:href="#f0_4" transform="matrix(12,0,0,12,348,223.5)"/>
<use xlink:href="#f0_r" transform="matrix(12,0,0,12,355.7,223.5)"/>
<use xlink:href="#f0_n" transform="matrix(12,0,0,12,365.9,223.5)"/>
<use xlink:href="#f0_a" transform="matrix(12,0,0,12,375.6,223.5)"/>
<use xlink:href="#f0_x" transform="matrix(12,0,0,12,385.2,223.5)"/>
<use xlink:href="#f0_1z" transform="matrix(12,0,0,12,394,223.5)"/>
<use xlink:href="#f0_b" transform="matrix(12,0,0,12,402.4,223.5)"/>
<use xlink:href="#f0_4" transform="matrix(12,0,0,12,411.4,223.5)"/>
<use xlink:href="#f0_n" transform="matrix(12,0,0,12,419.1,223.5)"/>
<use xlink:href="#f0_a" transform="matrix(12,0,0,12,428.7,223.5)"/>
<use xlink:href="#f0_o" transform="matrix(12,0,0,12,438.3,223.5)"/>
<use xlink:href="#f0_1s" transform="matrix(12,0,0,12,452.2,223.5)"/>
<use xlink:href="#f0_o" transform="matrix(12,0,0,12,460.9,223.5)"/>
<use xlink:href="#f0_6" transform="matrix(12,0,0,12,470.4,223.5)"/>
<use xlink:href="#f0_r" transform="matrix(12,0,0,12,474.7,223.5)"/>
<use xlink:href="#f0_n" transform="matrix(12,0,0,12,484.9,223.5)"/>
<use xlink:href="#f0_a" transform="matrix(12,0,0,12,494.5,223.5)"/>
<use xlink:href="#f0_u" transform="matrix(12,0,0,12,504.1,223.5)"/>
<use xlink:href="#f0_1x" transform="matrix(12,0,0,12,137.7,251)"/>
<use xlink:href="#f0_1f" transform="matrix(12,0,0,12,143.3,251)"/>
<use xlink:href="#f0_1y" transform="matrix(12,0,0,12,152.6,251)"/>
</g>
<g fill="#0000FF"  clip-path="url(#c0)">
<use xlink:href="#f0_5" transform="matrix(6,0,0,6,162.4,251)"/>
<use xlink:href="#f0_1h" transform="matrix(6,0,0,6,167.1,251)"/>
<use xlink:href="#f0_e" transform="matrix(6,0,0,6,172.9,251)"/>
<use xlink:href="#f0_l" transform="matrix(6,0,0,6,177.7,251)"/>
<use xlink:href="#f0_17" transform="matrix(6,0,0,6,181.2,251)"/>
<use xlink:href="#f0_2f" transform="matrix(6,0,0,6,183.6,251)"/>
<use xlink:href="#f0_2f" transform="matrix(6,0,0,6,187.2,251)"/>
<use xlink:href="#f0_b" transform="matrix(6,0,0,6,190.5,251)"/>
<use xlink:href="#f0_a" transform="matrix(6,0,0,6,195.1,251)"/>
<use xlink:href="#f0_u" transform="matrix(6,0,0,6,200,251)"/>
<use xlink:href="#f0_13" transform="matrix(6,0,0,6,202,251)"/>
<use xlink:href="#f0_6" transform="matrix(6,0,0,6,208.5,251)"/>
<use xlink:href="#f0_q" transform="matrix(6,0,0,6,210.6,251)"/>
<use xlink:href="#f0_6" transform="matrix(6,0,0,6,214.8,251)"/>
<use xlink:href="#f0_e" transform="matrix(6,0,0,6,216.9,251)"/>
<use xlink:href="#f0_b" transform="matrix(6,0,0,6,221.6,251)"/>
<use xlink:href="#f0_o" transform="matrix(6,0,0,6,226.2,251)"/>
<use xlink:href="#f0_6" transform="matrix(6,0,0,6,231.1,251)"/>
<use xlink:href="#f0_3" transform="matrix(6,0,0,6,233.1,251)"/>
<use xlink:href="#f0_u" transform="matrix(6,0,0,6,237.5,251)"/>
<use xlink:href="#f0_n" transform="matrix(6,0,0,6,239.8,251)"/>
<use xlink:href="#f0_g" transform="matrix(6,0,0,6,244.7,251)"/>
<use xlink:href="#f0_h" transform="matrix(6,0,0,6,247.7,251)"/>
<use xlink:href="#f0_2f" transform="matrix(6,0,0,6,252.3,251)"/>
<use xlink:href="#f0_13" transform="matrix(6,0,0,6,255.8,251)"/>
<use xlink:href="#f0_6" transform="matrix(6,0,0,6,262.4,251)"/>
<use xlink:href="#f0_q" transform="matrix(6,0,0,6,264.5,251)"/>
<use xlink:href="#f0_6" transform="matrix(6,0,0,6,268.6,251)"/>
<use xlink:href="#f0_2f" transform="matrix(6,0,0,6,270.7,251)"/>
<use xlink:href="#f0_f" transform="matrix(6,0,0,6,274.4,251)"/>
<use xlink:href="#f0_6" transform="matrix(6,0,0,6,278.2,251)"/>
<use xlink:href="#f0_a" transform="matrix(6,0,0,6,280.2,251)"/>
<use xlink:href="#f0_b" transform="matrix(6,0,0,6,285.1,251)"/>
<use xlink:href="#f0_3" transform="matrix(6,0,0,6,289.7,251)"/>
<use xlink:href="#f0_g" transform="matrix(6,0,0,6,294.1,251)"/>
<use xlink:href="#f0_2g" transform="matrix(6,0,0,6,297.3,251)"/>
<use xlink:href="#f0_g" transform="matrix(6,0,0,6,301.9,251)"/>
<use xlink:href="#f0_b" transform="matrix(6,0,0,6,304.9,251)"/>
<use xlink:href="#f0_h" transform="matrix(6,0,0,6,309.5,251)"/>
<use xlink:href="#f0_g" transform="matrix(6,0,0,6,313.8,251)"/>
<use xlink:href="#f0_b" transform="matrix(6,0,0,6,316.8,251)"/>
<use xlink:href="#f0_l" transform="matrix(6,0,0,6,321.4,251)"/>
<use xlink:href="#f0_l" transform="matrix(6,0,0,6,324.9,251)"/>
<use xlink:href="#f0_6" transform="matrix(6,0,0,6,328.4,251)"/>
<use xlink:href="#f0_n" transform="matrix(6,0,0,6,330.5,251)"/>
<use xlink:href="#f0_a" transform="matrix(6,0,0,6,335.4,251)"/>
<use xlink:href="#f0_2h" transform="matrix(6,0,0,6,340.3,251)"/>
<use xlink:href="#f0_17" transform="matrix(6,0,0,6,344.9,251)"/>
<use xlink:href="#f0_2i" transform="matrix(6,0,0,6,347.3,251)"/>
<use xlink:href="#f0_17" transform="matrix(6,0,0,6,351.9,251)"/>
<use xlink:href="#f0_k" transform="matrix(6,0,0,6,354.3,251)"/>
<use xlink:href="#f0_b" transform="matrix(6,0,0,6,357.2,251)"/>
<use xlink:href="#f0_14" transform="matrix(6,0,0,6,361.7,251)"/>
<use xlink:href="#f0_k" transform="matrix(6,0,0,6,365.6,251)"/>
<use xlink:href="#f0_27" transform="matrix(6,0,0,6,368.7,251)"/>
<use xlink:href="#f0_1p" transform="matrix(6,0,0,6,373.3,251)"/>
<use xlink:href="#f0_a" transform="matrix(6,0,0,6,375.6,251)"/>
<use xlink:href="#f0_2j" transform="matrix(6,0,0,6,380.4,251)"/>
<use xlink:href="#f0_1b" transform="matrix(6,0,0,6,387,251)"/>
<use xlink:href="#f0_1t" transform="matrix(6,0,0,6,391.6,251)"/>
<use xlink:href="#f0_l" transform="matrix(6,0,0,6,396.2,251)"/>
<use xlink:href="#f0_k" transform="matrix(6,0,0,6,399.7,251)"/>
<use xlink:href="#f0_3" transform="matrix(6,0,0,6,402.7,251)"/>
<use xlink:href="#f0_r" transform="matrix(6,0,0,6,407,251)"/>
<use xlink:href="#f0_l" transform="matrix(6,0,0,6,412,251)"/>
<use xlink:href="#f0_r" transform="matrix(6,0,0,6,415.6,251)"/>
<use xlink:href="#f0_4" transform="matrix(6,0,0,6,420.7,251)"/>
<use xlink:href="#f0_l" transform="matrix(6,0,0,6,424.6,251)"/>
<use xlink:href="#f0_2j" transform="matrix(6,0,0,6,428.1,251)"/>
<use xlink:href="#f0_1b" transform="matrix(6,0,0,6,434.6,251)"/>
<use xlink:href="#f0_v" transform="matrix(6,0,0,6,439.2,251)"/>
<use xlink:href="#f0_2j" transform="matrix(6,0,0,6,444.1,251)"/>
<use xlink:href="#f0_1b" transform="matrix(6,0,0,6,450.8,251)"/>
<use xlink:href="#f0_1t" transform="matrix(6,0,0,6,455.4,251)"/>
<use xlink:href="#f0_m" transform="matrix(6,0,0,6,460,251)"/>
<use xlink:href="#f0_6" transform="matrix(6,0,0,6,462.1,251)"/>
<use xlink:href="#f0_a" transform="matrix(6,0,0,6,464.2,251)"/>
<use xlink:href="#f0_b" transform="matrix(6,0,0,6,469,251)"/>
<use xlink:href="#f0_3" transform="matrix(6,0,0,6,473.6,251)"/>
<use xlink:href="#f0_g" transform="matrix(6,0,0,6,478,251)"/>
<use xlink:href="#f0_2j" transform="matrix(6,0,0,6,481.2,251)"/>
<use xlink:href="#f0_1b" transform="matrix(6,0,0,6,487.7,251)"/>
<use xlink:href="#f0_1t" transform="matrix(6,0,0,6,492.3,251)"/>
<use xlink:href="#f0_g" transform="matrix(6,0,0,6,497.1,251)"/>
<use xlink:href="#f0_b" transform="matrix(6,0,0,6,500.1,251)"/>
<use xlink:href="#f0_h" transform="matrix(6,0,0,6,504.7,251)"/>
<use xlink:href="#f0_g" transform="matrix(6,0,0,6,509,251)"/>
<use xlink:href="#f0_b" transform="matrix(6,0,0,6,512,251)"/>
<use xlink:href="#f0_l" transform="matrix(6,0,0,6,516.6,251)"/>
<use xlink:href="#f0_l" transform="matrix(6,0,0,6,520.2,251)"/>
<use xlink:href="#f0_6" transform="matrix(6,0,0,6,523.8,251)"/>
<use xlink:href="#f0_n" transform="matrix(6,0,0,6,525.9,251)"/>
<use xlink:href="#f0_a" transform="matrix(6,0,0,6,530.6,251)"/>
<use xlink:href="#f0_2j" transform="matrix(6,0,0,6,535.5,251)"/>
<use xlink:href="#f0_1b" transform="matrix(6,0,0,6,542.1,251)"/>
<use xlink:href="#f0_1t" transform="matrix(6,0,0,6,546.6,251)"/>
<use xlink:href="#f0_6" transform="matrix(6,0,0,6,551.2,251)"/>
<use xlink:href="#f0_l" transform="matrix(6,0,0,6,553.5,251)"/>
<use xlink:href="#f0_x" transform="matrix(6,0,0,6,557,251)"/>
<use xlink:href="#f0_3" transform="matrix(6,0,0,6,559.3,251)"/>
<use xlink:href="#f0_l" transform="matrix(6,0,0,6,563.7,251)"/>
<use xlink:href="#f0_2j" transform="matrix(6,0,0,6,567.2,251)"/>
<use xlink:href="#f0_1b" transform="matrix(6,0,0,6,573.8,251)"/>
<use xlink:href="#f0_1t" transform="matrix(6,0,0,6,578.5,251)"/>
<use xlink:href="#f0_o" transform="matrix(6,0,0,6,583.1,251)"/>
<use xlink:href="#f0_b" transform="matrix(6,0,0,6,587.8,251)"/>
<use xlink:href="#f0_e" transform="matrix(6,0,0,6,592.4,251)"/>
<use xlink:href="#f0_b" transform="matrix(6,0,0,6,597.3,251)"/>
<use xlink:href="#f0_a" transform="matrix(6,0,0,6,601.7,251)"/>
<use xlink:href="#f0_o" transform="matrix(6,0,0,6,606.6,251)"/>
<use xlink:href="#f0_b" transform="matrix(6,0,0,6,611.5,251)"/>
<use xlink:href="#f0_a" transform="matrix(6,0,0,6,616.1,251)"/>
<use xlink:href="#f0_k" transform="matrix(6,0,0,6,620.8,251)"/>
<use xlink:href="#f0_2j" transform="matrix(6,0,0,6,623.8,251)"/>
<use xlink:href="#f0_1b" transform="matrix(6,0,0,6,630.4,251)"/>
<use xlink:href="#f0_1t" transform="matrix(6,0,0,6,635,251)"/>
<use xlink:href="#f0_3" transform="matrix(6,0,0,6,639.6,251)"/>
<use xlink:href="#f0_a" transform="matrix(6,0,0,6,644,251)"/>
<use xlink:href="#f0_o" transform="matrix(6,0,0,6,648.7,251)"/>
<use xlink:href="#f0_2j" transform="matrix(6,0,0,6,653.6,251)"/>
<use xlink:href="#f0_1b" transform="matrix(6,0,0,6,660.2,251)"/>
<use xlink:href="#f0_1t" transform="matrix(6,0,0,6,664.8,251)"/>
<use xlink:href="#f0_6" transform="matrix(6,0,0,6,669.3,251)"/>
<use xlink:href="#f0_a" transform="matrix(6,0,0,6,671.5,251)"/>
<use xlink:href="#f0_o" transform="matrix(6,0,0,6,676.3,251)"/>
<use xlink:href="#f0_b" transform="matrix(6,0,0,6,681.1,251)"/>
<use xlink:href="#f0_e" transform="matrix(6,0,0,6,685.7,251)"/>
<use xlink:href="#f0_b" transform="matrix(6,0,0,6,690.5,251)"/>
<use xlink:href="#f0_a" transform="matrix(6,0,0,6,695,251)"/>
<use xlink:href="#f0_o" transform="matrix(6,0,0,6,699.8,251)"/>
<use xlink:href="#f0_b" transform="matrix(6,0,0,6,704.7,251)"/>
<use xlink:href="#f0_a" transform="matrix(6,0,0,6,709.3,251)"/>
<use xlink:href="#f0_k" transform="matrix(6,0,0,6,714,251)"/>
<use xlink:href="#f0_2j" transform="matrix(6,0,0,6,717.1,251)"/>
<use xlink:href="#f0_1b" transform="matrix(6,0,0,6,723.6,251)"/>
<use xlink:href="#f0_1t" transform="matrix(6,0,0,6,728.2,251)"/>
<use xlink:href="#f0_z" transform="matrix(6,0,0,6,732.8,251)"/>
<use xlink:href="#f0_3" transform="matrix(6,0,0,6,736.8,251)"/>
<use xlink:href="#f0_g" transform="matrix(6,0,0,6,741.2,251)"/>
<use xlink:href="#f0_6" transform="matrix(6,0,0,6,744.4,251)"/>
<use xlink:href="#f0_3" transform="matrix(6,0,0,6,746.5,251)"/>
<use xlink:href="#f0_10" transform="matrix(6,0,0,6,750.8,251)"/>
<use xlink:href="#f0_m" transform="matrix(6,0,0,6,755.7,251)"/>
<use xlink:href="#f0_b" transform="matrix(6,0,0,6,757.8,251)"/>
<use xlink:href="#f0_l" transform="matrix(6,0,0,6,762.4,251)"/>
</g>
<path d="M162.4,251.9H766.6" class="g0"/>
<g fill="#000000"  clip-path="url(#c0)">
<use xlink:href="#f0_1x" transform="matrix(12,0,0,12,137.7,278.5)"/>
<use xlink:href="#f0_1i" transform="matrix(12,0,0,12,143.3,278.5)"/>
<use xlink:href="#f0_1y" transform="matrix(12,0,0,12,152.6,278.5)"/>
<use xlink:href="#f0_5" transform="matrix(12,0,0,12,162.3,278.5)"/>
<use xlink:href="#f0_1h" transform="matrix(12,0,0,12,171.8,278.5)"/>
<use xlink:href="#f0_e" transform="matrix(12,0,0,12,183.4,278.5)"/>
<use xlink:href="#f0_l" transform="matrix(12,0,0,12,192.9,278.5)"/>
<use xlink:href="#f0_17" transform="matrix(12,0,0,12,200.1,278.5)"/>
<use xlink:href="#f0_2f" transform="matrix(12,0,0,12,205,278.5)"/>
<use xlink:href="#f0_2f" transform="matrix(12,0,0,12,212.1,278.5)"/>
<use xlink:href="#f0_e" transform="matrix(12,0,0,12,219.1,278.5)"/>
<use xlink:href="#f0_11" transform="matrix(12,0,0,12,228.6,278.5)"/>
<use xlink:href="#f0_k" transform="matrix(12,0,0,12,237,278.5)"/>
<use xlink:href="#f0_n" transform="matrix(12,0,0,12,243,278.5)"/>
<use xlink:href="#f0_g" transform="matrix(12,0,0,12,252.6,278.5)"/>
<use xlink:href="#f0_4" transform="matrix(12,0,0,12,258.7,278.5)"/>
<use xlink:href="#f0_5" transform="matrix(12,0,0,12,266.5,278.5)"/>
<use xlink:href="#f0_u" transform="matrix(12,0,0,12,276.2,278.5)"/>
<use xlink:href="#f0_n" transform="matrix(12,0,0,12,280.8,278.5)"/>
<use xlink:href="#f0_g" transform="matrix(12,0,0,12,290.4,278.5)"/>
<use xlink:href="#f0_h" transform="matrix(12,0,0,12,296.5,278.5)"/>
<use xlink:href="#f0_2f" transform="matrix(12,0,0,12,305.8,278.5)"/>
<use xlink:href="#f0_k" transform="matrix(12,0,0,12,312.8,278.5)"/>
<use xlink:href="#f0_j" transform="matrix(12,0,0,12,319,278.5)"/>
<use xlink:href="#f0_k" transform="matrix(12,0,0,12,328.6,278.5)"/>
<use xlink:href="#f0_n" transform="matrix(12,0,0,12,334.7,278.5)"/>
<use xlink:href="#f0_g" transform="matrix(12,0,0,12,344.3,278.5)"/>
<use xlink:href="#f0_6" transform="matrix(12,0,0,12,350.6,278.5)"/>
<use xlink:href="#f0_3" transform="matrix(12,0,0,12,354.8,278.5)"/>
<use xlink:href="#f0_m" transform="matrix(12,0,0,12,363.5,278.5)"/>
<use xlink:href="#f0_l" transform="matrix(12,0,0,12,367.8,278.5)"/>
<use xlink:href="#f0_2f" transform="matrix(12,0,0,12,375,278.5)"/>
<use xlink:href="#f0_10" transform="matrix(12,0,0,12,382,278.5)"/>
<use xlink:href="#f0_b" transform="matrix(12,0,0,12,391.6,278.5)"/>
<use xlink:href="#f0_h" transform="matrix(12,0,0,12,400.8,278.5)"/>
<use xlink:href="#f0_6" transform="matrix(12,0,0,12,409.3,278.5)"/>
<use xlink:href="#f0_a" transform="matrix(12,0,0,12,413.6,278.5)"/>
<use xlink:href="#f0_a" transform="matrix(12,0,0,12,423.2,278.5)"/>
<use xlink:href="#f0_b" transform="matrix(12,0,0,12,432.8,278.5)"/>
<use xlink:href="#f0_g" transform="matrix(12,0,0,12,442,278.5)"/>
<use xlink:href="#f0_2f" transform="matrix(12,0,0,12,448.4,278.5)"/>
<use xlink:href="#f0_b" transform="matrix(12,0,0,12,455.1,278.5)"/>
<use xlink:href="#f0_14" transform="matrix(12,0,0,12,463.9,278.5)"/>
<use xlink:href="#f0_3" transform="matrix(12,0,0,12,471.6,278.5)"/>
<use xlink:href="#f0_p" transform="matrix(12,0,0,12,480.3,278.5)"/>
<use xlink:href="#f0_e" transform="matrix(12,0,0,12,495,278.5)"/>
<use xlink:href="#f0_m" transform="matrix(12,0,0,12,504.6,278.5)"/>
<use xlink:href="#f0_b" transform="matrix(12,0,0,12,508.8,278.5)"/>
<use xlink:href="#f0_l" transform="matrix(12,0,0,12,517.8,278.5)"/>
<use xlink:href="#f0_2g" transform="matrix(12,0,0,12,525,278.5)"/>
<use xlink:href="#f0_a" transform="matrix(12,0,0,12,534.2,278.5)"/>
<use xlink:href="#f0_a" transform="matrix(12,0,0,12,543.8,278.5)"/>
<use xlink:href="#f0_2f" transform="matrix(12,0,0,12,553.4,278.5)"/>
<use xlink:href="#f0_k" transform="matrix(12,0,0,12,560.4,278.5)"/>
<use xlink:href="#f0_13" transform="matrix(12,0,0,12,566.5,278.5)"/>
<use xlink:href="#f0_n" transform="matrix(12,0,0,12,579.5,278.5)"/>
<use xlink:href="#f0_2g" transform="matrix(12,0,0,12,589.1,278.5)"/>
<use xlink:href="#f0_m" transform="matrix(12,0,0,12,598.3,278.5)"/>
<use xlink:href="#f0_3" transform="matrix(12,0,0,12,602.5,278.5)"/>
<use xlink:href="#f0_11" transform="matrix(12,0,0,12,610.9,278.5)"/>
<use xlink:href="#f0_b" transform="matrix(12,0,0,12,619,278.5)"/>
<use xlink:href="#f0_g" transform="matrix(12,0,0,12,628.2,278.5)"/>
<use xlink:href="#f0_2g" transform="matrix(12,0,0,12,634.5,278.5)"/>
<use xlink:href="#f0_a" transform="matrix(12,0,0,12,643.6,278.5)"/>
<use xlink:href="#f0_b" transform="matrix(12,0,0,12,653.2,278.5)"/>
<use xlink:href="#f0_k" transform="matrix(12,0,0,12,662.3,278.5)"/>
<use xlink:href="#f0_2g" transform="matrix(12,0,0,12,668.4,278.5)"/>
<use xlink:href="#f0_a" transform="matrix(12,0,0,12,677.5,278.5)"/>
<use xlink:href="#f0_a" transform="matrix(12,0,0,12,687.1,278.5)"/>
<use xlink:href="#f0_u" transform="matrix(12,0,0,12,696.8,278.5)"/>
<use xlink:href="#f0_5" transform="matrix(12,0,0,12,701.3,278.5)"/>
<use xlink:href="#f0_k" transform="matrix(12,0,0,12,711,278.5)"/>
<use xlink:href="#f0_p" transform="matrix(12,0,0,12,717.1,278.5)"/>
<use xlink:href="#f0_m" transform="matrix(12,0,0,12,731.6,278.5)"/>
</g>
</svg>