<?xml version="1.0" encoding="UTF-8" standalone="no"?>
<!DOCTYPE svg PUBLIC "-//W3C//DTD SVG 1.1//EN"
"http://www.w3.org/Graphics/SVG/1.1/DTD/svg11.dtd">
<svg viewBox="0 0 909 1286" version="1.1" xmlns="http://www.w3.org/2000/svg" xmlns:xlink="http://www.w3.org/1999/xlink">
<defs>
<clipPath id="c0_3"><path d="M0,1286.3V0H909.3V1286.3Z"/></clipPath>
<clipPath id="c1_3"><path d="M137.5,263.5v-32h73.2v32Z"/></clipPath>
<clipPath id="c2_3"><path d="M329.8,761.5V503H578.5V761.5Z"/></clipPath>
<style type="text/css"><![CDATA[
.g0_3{
fill: #954F72;
}
]]></style>
<path d="M367,-13c0,0,-73,0,-129,23c0,0,-56,24,-93,70c0,0,-38,46,-58,112c0,0,-20,67,-20,154c0,0,0,99,25,171c0,0,24,71,66,116c0,0,42,46,99,68c0,0,58,22,124,22c0,0,32,0,62,-6c0,0,31,-6,56,-16c0,0,25,-10,45,-22c0,0,20,-13,29,-22c0,0,9,-9,12,-14c0,0,3,-5,6,-13c0,0,2,-7,3,-16c0,0,0,-9,0,-22c0,0,0,-29,-6,-41c0,0,-7,-11,-17,-11c0,0,-11,0,-25,12c0,0,-15,12,-37,27c0,0,-23,15,-55,28c0,0,-31,12,-75,12c0,0,-88,0,-136,-68c0,0,-47,-68,-47,-198c0,0,0,-65,12,-114c0,0,12,-49,36,-81c0,0,24,-33,59,-49c0,0,35,-16,79,-16c0,0,43,0,75,13c0,0,32,14,56,30c0,0,23,16,39,29c0,0,16,13,25,13c0,0,5,0,9,-3c0,0,4,-3,7,-10c0,0,2,-7,3,-18c0,0,1,-11,1,-26c0,0,0,-12,0,-22c0,0,-1,-9,-3,-15c0,0,-2,-7,-4,-12c0,0,-3,-4,-12,-14c0,0,-10,-9,-32,-23c0,0,-22,-14,-50,-24C496,11,468,0,435,-6c0,0,-33,-7,-68,-7Z"
id="f1_7l"
transform="scale(0.001,-0.001)"/>

<path d="M401,90c0,0,54,0,93,19c0,0,40,20,65,55c0,0,26,35,37,84c0,0,12,48,12,106c0,0,0,55,-10,104c0,0,-10,48,-33,85c0,0,-23,36,-62,58c0,0,-40,21,-99,21c0,0,-54,0,-93,-20c0,0,-39,-19,-65,-54c0,0,-25,-36,-37,-85c0,0,-12,-48,-12,-106c0,0,0,-55,10,-103c0,0,10,-49,33,-85c0,0,24,-36,63,-58c0,0,39,-21,98,-21ZM395,-13c0,0,-82,0,-144,24c0,0,-61,25,-102,72c0,0,-41,47,-61,114c0,0,-21,67,-21,152c0,0,0,82,22,151c0,0,21,69,64,119c0,0,43,50,107,78c0,0,64,28,150,28c0,0,82,0,144,-25c0,0,61,-25,102,-72c0,0,41,-47,62,-114c0,0,20,-67,20,-151c0,0,0,-83,-21,-152c0,0,-22,-69,-65,-119C652,92,609,42,545,14c0,0,-65,-27,-150,-27Z"
id="f1_am"
transform="scale(0.001,-0.001)"/>

<path d="M346,-4c0,0,-23,0,-38,2c0,0,-15,1,-24,3c0,0,-9,3,-15,8c0,0,-5,6,-8,13L33,660c0,0,-3,9,-5,15c0,0,-2,7,-2,11c0,0,0,3,0,5c0,0,0,6,3,11c0,0,3,4,10,7c0,0,7,2,18,3c0,0,12,1,29,1c0,0,22,0,35,-1c0,0,13,-1,20,-4c0,0,7,-3,10,-8c0,0,4,-4,7,-11L347,135l3,-9l2,9L540,689c0,0,1,7,5,11c0,0,3,5,11,8c0,0,7,3,19,4c0,0,12,1,32,1c0,0,18,0,29,-1c0,0,11,-1,17,-4c0,0,7,-3,9,-7c0,0,3,-4,3,-10c0,0,0,-3,-1,-6c0,0,0,-4,-1,-7c0,0,0,-4,-2,-8c0,0,-1,-5,-2,-10L430,22c0,0,-3,-8,-8,-13c0,0,-5,-6,-15,-9c0,0,-9,-2,-24,-3c0,0,-15,-1,-37,-1Z"
id="f1_ch"
transform="scale(0.001,-0.001)"/>

<path d="M176,-4c0,0,-18,0,-30,2c0,0,-12,1,-19,3c0,0,-7,3,-10,7c0,0,-3,4,-3,10V690c0,0,0,5,3,9c0,0,3,5,10,8c0,0,7,3,19,4c0,0,12,2,30,2c0,0,18,0,30,-2c0,0,12,-1,19,-4c0,0,7,-3,9,-8c0,0,3,-4,3,-9V18c0,0,0,-6,-3,-10c0,0,-2,-4,-9,-7c0,0,-7,-2,-19,-3c0,0,-12,-2,-30,-2Zm-1,846c0,0,-43,0,-59,15c0,0,-16,15,-16,58c0,0,0,43,16,59c0,0,17,16,61,16c0,0,43,0,59,-16c0,0,16,-15,16,-58c0,0,0,-43,-16,-58c0,0,-17,-16,-61,-16Z"
id="f1_9q"
transform="scale(0.001,-0.001)"/>

<path d="M366,92c0,0,25,0,48,7c0,0,22,6,46,22c0,0,24,16,50,41c0,0,26,24,56,61V492c0,0,-51,62,-97,94c0,0,-47,33,-98,33c0,0,-47,0,-79,-22c0,0,-33,-23,-54,-59c0,0,-20,-37,-30,-83c0,0,-9,-47,-9,-94c0,0,0,-51,8,-100c0,0,8,-48,27,-86c0,0,19,-38,52,-60c0,0,32,-23,80,-23ZM345,-13c0,0,-74,0,-127,28c0,0,-52,29,-84,78c0,0,-33,49,-48,115c0,0,-15,66,-15,139c0,0,0,86,19,156c0,0,19,70,55,119c0,0,37,50,91,76c0,0,54,27,125,27c0,0,59,0,108,-26c0,0,49,-26,97,-76v390c0,0,0,5,2,10c0,0,3,4,10,7c0,0,8,3,19,5c0,0,12,1,30,1c0,0,18,0,30,-1c0,0,12,-2,19,-5c0,0,7,-3,10,-7c0,0,3,-5,3,-10V18c0,0,0,-6,-2,-10c0,0,-3,-5,-9,-7c0,0,-7,-2,-17,-3c0,0,-10,-2,-25,-2c0,0,-16,0,-26,2c0,0,-11,1,-18,3c0,0,-6,2,-9,7c0,0,-3,4,-3,10v90c0,0,-53,-58,-110,-90c0,0,-58,-31,-125,-31Z"
id="f1_7v"
transform="scale(0.001,-0.001)"/>

<path d="M79,326c0,0,-14,0,-20,11c0,0,-7,12,-7,40c0,0,0,29,7,40c0,0,6,11,20,11H390c0,0,6,0,11,-2c0,0,5,-2,8,-9c0,0,4,-6,6,-16c0,0,2,-9,2,-24c0,0,0,-29,-7,-40c0,0,-7,-11,-20,-11Z"
id="f1_oj"
transform="scale(0.001,-0.001)"/>

<path d="M161,0c0,0,-5,0,-10,3c0,0,-4,2,-8,8c0,0,-5,6,-7,16c0,0,-2,9,-2,24c0,0,0,13,2,23c0,0,2,9,6,16c0,0,3,6,8,9c0,0,5,4,11,4H362V837L176,726c0,0,-15,-8,-23,-9c0,0,-1,-1,-3,-1c-3,0,-8,1,-11,4c0,0,-5,5,-7,16c0,0,-2,11,-2,28c0,0,0,13,1,22c0,0,1,9,4,15c0,0,2,6,6,10c0,0,4,5,11,9L374,963c0,0,3,2,7,4c0,0,5,1,11,3c0,0,7,1,16,2c0,0,9,0,22,0c0,0,18,0,30,-2c0,0,12,-1,19,-4c0,0,7,-2,9,-6c0,0,2,-5,2,-9V103H665c0,0,6,0,11,-4c0,0,5,-3,8,-9c0,0,4,-7,6,-16c0,0,2,-10,2,-23c0,0,0,-15,-3,-24c0,0,-2,-10,-6,-16c0,0,-3,-6,-8,-8c0,0,-5,-3,-10,-3Z"
id="f1_ry"
transform="scale(0.001,-0.001)"/>

<path d="M368,474c0,0,56,0,108,17c0,0,53,17,91,44c0,0,0,96,-13,161c0,0,-13,65,-37,105c0,0,-25,40,-61,58c0,0,-36,18,-83,18c0,0,-48,0,-82,-17c0,0,-35,-18,-57,-47c0,0,-22,-30,-32,-67c0,0,-11,-37,-11,-77c0,0,0,-44,10,-80c0,0,9,-37,30,-62c0,0,21,-25,54,-39c0,0,34,-14,83,-14ZM284,-13c0,0,-32,0,-62,4c0,0,-30,5,-54,9c0,0,-25,6,-41,13c0,0,-16,7,-24,14c0,0,-7,6,-11,18c0,0,-3,11,-3,31c0,0,0,16,1,26c0,0,1,10,3,15c0,0,3,5,7,7c0,0,4,2,10,2c0,0,8,0,23,-6c0,0,15,-5,38,-12c0,0,22,-7,53,-12c0,0,31,-6,69,-6c0,0,72,0,124,28c0,0,52,28,85,75c0,0,33,47,49,109c0,0,16,62,18,130c0,0,-40,-23,-95,-41c0,0,-55,-17,-127,-17c0,0,-80,0,-135,21c0,0,-55,22,-88,61c0,0,-33,38,-48,90c0,0,-14,52,-14,114c0,0,0,64,18,122c0,0,19,58,58,102c0,0,40,44,101,70c0,0,61,26,146,26c0,0,61,0,107,-16c0,0,47,-15,81,-44c0,0,35,-28,59,-69c0,0,23,-41,38,-92c0,0,14,-51,21,-112c0,0,6,-60,6,-126c0,0,0,-63,-7,-127c0,0,-8,-64,-26,-123c0,0,-18,-59,-48,-111c0,0,-30,-52,-76,-91C540,69,494,30,431,8c0,0,-63,-21,-147,-21Z"
id="f1_s6"
transform="scale(0.001,-0.001)"/>

<path d="M176,-4c0,0,-18,0,-30,2c0,0,-12,1,-19,3c0,0,-7,3,-10,7c0,0,-3,4,-3,10V690c0,0,0,6,3,10c0,0,2,4,9,7c0,0,6,4,17,5c0,0,10,1,27,1c0,0,17,0,28,-1c0,0,10,-1,16,-5c0,0,6,-3,9,-7c0,0,3,-4,3,-10V592c0,0,27,41,51,66c0,0,25,26,46,41c0,0,22,14,43,20c0,0,21,6,43,6c0,0,10,0,22,-2c0,0,12,-1,26,-4c0,0,13,-3,24,-6c0,0,11,-4,15,-8c0,0,5,-4,6,-7c0,0,2,-3,3,-9c0,0,1,-5,1,-15c0,0,0,-10,0,-27c0,0,0,-16,0,-28c0,0,-1,-11,-3,-17c0,0,-2,-6,-6,-10c0,0,-3,-3,-9,-3c0,0,-6,0,-15,3c0,0,-8,4,-19,7c0,0,-11,3,-24,6c0,0,-14,3,-29,3c0,0,-19,0,-37,-7c0,0,-18,-8,-37,-25c0,0,-20,-18,-42,-46c0,0,-21,-29,-48,-70V18c0,0,0,-6,-3,-10c0,0,-2,-4,-9,-7c0,0,-7,-2,-19,-3c0,0,-12,-2,-30,-2Z"
id="f1_b1"
transform="scale(0.001,-0.001)"/>

<path d="M351,-13c0,0,-67,0,-113,22c0,0,-46,22,-75,60c0,0,-28,39,-40,90c0,0,-13,51,-13,124V690c0,0,0,6,3,10c0,0,3,4,10,7c0,0,8,4,20,5c0,0,11,1,29,1c0,0,18,0,30,-1c0,0,12,-1,19,-5c0,0,7,-3,10,-7c0,0,3,-4,3,-10V299c0,0,0,-59,9,-94c0,0,8,-36,26,-61c0,0,18,-24,44,-38c0,0,27,-14,63,-14c0,0,46,0,92,33c0,0,46,32,98,95V690c0,0,0,6,2,10c0,0,3,4,10,7c0,0,8,4,19,5c0,0,12,1,30,1c0,0,18,0,30,-1c0,0,12,-1,19,-5c0,0,7,-3,10,-7c0,0,3,-4,3,-10V18c0,0,0,-6,-2,-10c0,0,-3,-4,-10,-7c0,0,-6,-2,-17,-3c0,0,-11,-2,-27,-2c0,0,-17,0,-28,2c0,0,-10,1,-17,3c0,0,-6,3,-8,7c0,0,-3,4,-3,10v89c0,0,-57,-63,-113,-92c0,0,-56,-28,-113,-28Z"
id="f1_c6"
transform="scale(0.001,-0.001)"/>

<path d="M272,-13c0,0,-35,0,-68,6c0,0,-32,6,-58,13c0,0,-26,9,-44,18c0,0,-17,10,-26,17c0,0,-8,8,-12,21c0,0,-3,14,-3,37c0,0,0,14,1,24c0,0,2,9,4,15c0,0,2,6,6,9c0,0,4,3,10,3c0,0,8,0,24,-11c0,0,16,-10,39,-22c0,0,24,-12,56,-22c0,0,32,-10,74,-10c0,0,31,0,56,7c0,0,26,6,44,19c0,0,19,14,29,34c0,0,10,20,10,47c0,0,0,29,-14,48c0,0,-15,19,-39,34c0,0,-24,15,-53,27c0,0,-30,11,-62,24c0,0,-32,13,-62,29c0,0,-30,16,-54,39c0,0,-24,23,-38,55c0,0,-15,32,-15,77c0,0,0,40,16,76c0,0,15,36,45,63c0,0,31,28,77,44c0,0,46,17,107,17c0,0,27,0,54,-5c0,0,26,-5,48,-11c0,0,22,-7,37,-15c0,0,15,-8,23,-14c0,0,8,-6,11,-11c0,0,2,-4,3,-10c0,0,1,-5,2,-14c0,0,2,-8,2,-20c0,0,0,-12,-2,-22c0,0,-1,-9,-3,-15c0,0,-3,-6,-7,-8c0,0,-3,-3,-8,-3c0,0,-7,0,-19,8c0,0,-13,8,-33,18c0,0,-20,9,-47,17c0,0,-28,9,-63,9c0,0,-31,0,-55,-7c0,0,-24,-7,-39,-20c0,0,-15,-13,-23,-31c0,0,-8,-18,-8,-39c0,0,0,-29,15,-49c0,0,15,-20,39,-35c0,0,24,-15,54,-27c0,0,31,-11,62,-24c0,0,32,-13,63,-29c0,0,31,-15,55,-38c0,0,24,-22,38,-53c0,0,15,-32,15,-75c0,0,0,-51,-19,-92c0,0,-19,-40,-54,-68C463,42,428,15,379,1c0,0,-48,-14,-107,-14Z"
id="f1_b5"
transform="scale(0.001,-0.001)"/>

<path d="M176,-4c0,0,-18,0,-30,2c0,0,-12,1,-19,3c0,0,-7,3,-10,7c0,0,-3,4,-3,10v997c0,0,0,6,3,11c0,0,3,4,10,7c0,0,7,3,19,5c0,0,12,1,30,1c0,0,18,0,30,-1c0,0,12,-2,19,-5c0,0,7,-3,9,-7c0,0,3,-5,3,-11V18c0,0,0,-6,-3,-10c0,0,-2,-4,-9,-7c0,0,-7,-2,-19,-3c0,0,-12,-2,-30,-2Z"
id="f1_a8"
transform="scale(0.001,-0.001)"/>

<path d="M321,82c0,0,48,0,90,25c0,0,41,24,87,75V325H392c0,0,-50,0,-88,-9c0,0,-37,-9,-62,-25c0,0,-24,-17,-36,-41c0,0,-11,-23,-11,-54c0,0,0,-52,33,-83c0,0,33,-31,93,-31ZM301,-13c0,0,-53,0,-96,13c0,0,-43,14,-73,40c0,0,-30,26,-47,64c0,0,-17,38,-17,87c0,0,0,56,24,98c0,0,23,42,66,69c0,0,43,28,106,42c0,0,63,14,141,14h93v52c0,0,0,39,-9,69c0,0,-8,30,-26,50c0,0,-18,20,-47,30c0,0,-30,10,-72,10c0,0,-46,0,-82,-11c0,0,-36,-11,-63,-24c0,0,-27,-13,-46,-24c0,0,-18,-11,-27,-11c0,0,-6,0,-10,3c0,0,-5,3,-8,9c0,0,-3,6,-5,16c0,0,-1,9,-1,20c0,0,0,19,2,30c0,0,3,11,13,20c0,0,10,10,35,23c0,0,24,13,56,24c0,0,32,10,70,17c0,0,38,8,77,8c0,0,73,0,123,-17c0,0,51,-16,82,-48c0,0,32,-32,46,-79c0,0,14,-47,14,-110V18c0,0,0,-9,-6,-14c0,0,-6,-4,-16,-6c0,0,-11,-2,-31,-2c0,0,-19,0,-31,2c0,0,-12,2,-17,6c0,0,-5,5,-5,13V85c0,0,-44,-47,-98,-73c0,0,-54,-25,-115,-25Z"
id="f1_77"
transform="scale(0.001,-0.001)"/>

<path d="M209,-4c0,0,-18,0,-30,2c0,0,-12,1,-19,3c0,0,-7,3,-10,7c0,0,-3,4,-3,10V607H52c0,0,-12,0,-18,12c0,0,-6,12,-6,39c0,0,0,14,2,24c0,0,1,10,4,16c0,0,3,7,8,9c0,0,4,3,10,3h95v69c0,0,0,71,13,121c0,0,13,50,40,82c0,0,27,33,67,48c0,0,41,15,96,15c0,0,26,0,51,-5c0,0,25,-4,38,-10c0,0,13,-6,18,-10c0,0,4,-5,7,-12c0,0,3,-7,5,-17c0,0,1,-10,1,-24c0,0,0,-15,-2,-23c0,0,-1,-9,-3,-14c0,0,-2,-5,-5,-7c0,0,-3,-2,-8,-2c0,0,-5,0,-13,3c0,0,-7,4,-19,8c0,0,-11,4,-26,7c0,0,-15,4,-36,4c0,0,-27,0,-47,-9c0,0,-19,-9,-31,-28c0,0,-12,-19,-17,-50c0,0,-5,-30,-5,-73V710H421c0,0,6,0,10,-3c0,0,4,-2,7,-9c0,0,4,-6,6,-16c0,0,2,-10,2,-24c0,0,0,-27,-7,-39c0,0,-7,-12,-18,-12H271V18c0,0,0,-6,-3,-10c0,0,-3,-4,-11,-7c0,0,-7,-2,-19,-3c0,0,-12,-2,-29,-2Z"
id="f1_89"
transform="scale(0.001,-0.001)"/>

<path d="M339,-13c0,0,-52,0,-90,13c0,0,-37,14,-61,42c0,0,-24,28,-34,71c0,0,-11,43,-11,101V607H49c0,0,-11,0,-18,12c0,0,-7,12,-7,39c0,0,0,14,2,24c0,0,2,10,5,16c0,0,3,7,8,9c0,0,5,3,11,3h93V870c0,0,0,5,2,9c0,0,3,5,10,8c0,0,7,4,19,5c0,0,12,2,30,2c0,0,19,0,31,-2c0,0,11,-1,18,-5c0,0,7,-3,10,-8c0,0,3,-4,3,-9V710H438c0,0,6,0,10,-3c0,0,5,-2,8,-9c0,0,4,-6,5,-16c0,0,1,-10,1,-24c0,0,0,-27,-6,-39c0,0,-7,-12,-18,-12H266V232c0,0,0,-69,20,-105c0,0,21,-35,74,-35c0,0,17,0,30,3c0,0,14,4,24,7c0,0,10,4,18,7c0,0,7,4,13,4c0,0,4,0,7,-2c0,0,4,-2,6,-7c0,0,2,-5,3,-14c0,0,1,-9,1,-23c0,0,0,-22,-2,-34c0,0,-3,-13,-9,-19c0,0,-6,-6,-18,-11c0,0,-12,-4,-28,-8c0,0,-15,-3,-32,-5c0,0,-17,-3,-34,-3Z"
id="f1_bf"
transform="scale(0.001,-0.001)"/>

<path d="M176,-4c0,0,-18,0,-30,2c0,0,-12,1,-19,3c0,0,-7,3,-10,7c0,0,-3,4,-3,10V690c0,0,0,6,3,10c0,0,2,4,9,7c0,0,6,4,17,5c0,0,10,1,27,1c0,0,17,0,28,-1c0,0,10,-1,16,-5c0,0,6,-3,9,-7c0,0,3,-4,3,-10V601c0,0,56,64,112,94c0,0,57,30,114,30c0,0,67,0,113,-23c0,0,46,-23,74,-61c0,0,29,-38,41,-89c0,0,12,-52,12,-123V18c0,0,0,-6,-3,-10c0,0,-3,-4,-9,-7c0,0,-7,-2,-19,-3c0,0,-12,-2,-30,-2c0,0,-19,0,-30,2c0,0,-12,1,-19,3c0,0,-7,3,-10,7c0,0,-3,4,-3,10V412c0,0,0,58,-9,93c0,0,-9,35,-26,61c0,0,-17,25,-44,38c0,0,-27,14,-63,14c0,0,-46,0,-93,-33c0,0,-46,-33,-97,-96V18c0,0,0,-6,-3,-10c0,0,-2,-4,-9,-7c0,0,-7,-2,-19,-3c0,0,-12,-2,-30,-2Z"
id="f1_af"
transform="scale(0.001,-0.001)"/>

<path d="M252,-271c0,0,-19,0,-31,2c0,0,-12,2,-18,6c0,0,-7,5,-8,12c0,0,0,8,4,18L292,0c0,0,-7,3,-13,10c0,0,-6,6,-8,14L31,665c0,0,-6,16,-6,25c0,0,0,9,6,14c0,0,6,5,20,7c0,0,13,2,36,2c0,0,22,0,35,-1c0,0,12,-1,20,-4c0,0,7,-3,11,-9c0,0,3,-6,7,-15L351,145h3L539,687c0,0,4,14,10,18c0,0,7,4,19,6c0,0,13,2,37,2c0,0,21,0,34,-2c0,0,14,-2,20,-7c0,0,6,-5,6,-14c0,0,0,-9,-4,-23L420,0L330,-246c0,0,-4,-12,-22,-18c0,0,-19,-7,-56,-7Z"
id="f1_co"
transform="scale(0.001,-0.001)"/>

<path d="M564,420c0,0,2,98,-43,153c0,0,-46,56,-134,56c0,0,-46,0,-80,-18c0,0,-35,-17,-58,-45c0,0,-23,-29,-36,-67c0,0,-12,-37,-14,-79ZM405,-13c0,0,-83,0,-145,22c0,0,-62,24,-105,69c0,0,-42,46,-64,114c0,0,-22,69,-22,160c0,0,0,87,23,156c0,0,22,69,64,117c0,0,43,48,102,74c0,0,60,26,134,26c0,0,79,0,135,-26c0,0,55,-25,91,-68c0,0,36,-43,53,-101c0,0,16,-58,16,-123V384c0,0,0,-29,-14,-41c0,0,-15,-13,-33,-13H199c0,0,0,-56,11,-100c0,0,12,-45,38,-77c0,0,26,-33,68,-50c0,0,41,-17,102,-17c0,0,48,0,85,8c0,0,37,8,65,17c0,0,27,10,44,18c0,0,18,8,27,8c0,0,5,0,9,-3c0,0,4,-2,7,-8c0,0,2,-5,3,-14c0,0,1,-9,1,-23c0,0,0,-9,-1,-16c0,0,0,-8,-2,-13c0,0,-1,-6,-3,-10c0,0,-3,-5,-7,-9c0,0,-4,-4,-24,-13c0,0,-20,-10,-53,-18c0,0,-32,-9,-74,-16c0,0,-42,-7,-90,-7Z"
id="f1_7z"
transform="scale(0.001,-0.001)"/>

<path d="M176,-4c0,0,-18,0,-30,2c0,0,-12,1,-19,3c0,0,-7,3,-10,7c0,0,-3,4,-3,10V690c0,0,0,6,3,10c0,0,2,4,9,7c0,0,6,4,17,5c0,0,10,1,27,1c0,0,17,0,28,-1c0,0,10,-1,16,-5c0,0,6,-3,9,-7c0,0,3,-4,3,-10V601c0,0,56,64,110,94c0,0,53,30,108,30c0,0,42,0,75,-10c0,0,33,-10,58,-28c0,0,26,-17,44,-42c0,0,18,-24,30,-55c0,0,33,37,63,63c0,0,31,26,59,41c0,0,28,16,54,23c0,0,27,8,53,8c0,0,65,0,109,-23c0,0,44,-23,71,-61c0,0,28,-38,39,-89c0,0,12,-52,12,-108V18c0,0,0,-6,-3,-10c0,0,-3,-4,-10,-7c0,0,-7,-2,-19,-3c0,0,-12,-2,-29,-2c0,0,-19,0,-31,2c0,0,-12,1,-19,3c0,0,-7,3,-10,7c0,0,-3,4,-3,10V427c0,0,0,43,-8,78c0,0,-7,35,-23,61c0,0,-17,25,-42,38c0,0,-25,14,-60,14c0,0,-42,0,-85,-33c0,0,-43,-33,-94,-96V18c0,0,0,-6,-3,-10c0,0,-3,-4,-11,-7c0,0,-7,-2,-19,-3c0,0,-11,-2,-29,-2c0,0,-18,0,-30,2c0,0,-12,1,-19,3c0,0,-7,3,-10,7c0,0,-3,4,-3,10V427c0,0,0,43,-8,78c0,0,-8,35,-24,61c0,0,-17,25,-42,38c0,0,-25,14,-59,14c0,0,-43,0,-86,-33c0,0,-44,-33,-95,-96V18c0,0,0,-6,-3,-10c0,0,-2,-4,-9,-7c0,0,-7,-2,-19,-3c0,0,-12,-2,-30,-2Z"
id="f1_ae"
transform="scale(0.001,-0.001)"/>

<path d="M192,-6c0,0,-45,0,-62,16c0,0,-18,18,-18,69c0,0,0,53,18,71c0,0,18,17,64,17c0,0,45,0,62,-17c0,0,17,-17,17,-69c0,0,0,-53,-18,-70c0,0,-17,-17,-63,-17Z"
id="f1_nt"
transform="scale(0.001,-0.001)"/>

<path d="M192,-4c0,0,-18,0,-30,2c0,0,-13,2,-20,3c0,0,-8,3,-11,8c0,0,-3,4,-3,10V946c0,0,0,6,3,11c0,0,3,4,11,7c0,0,7,2,20,4c0,0,12,2,30,2c0,0,19,0,31,-2c0,0,13,-2,20,-4c0,0,7,-3,10,-7c0,0,3,-5,3,-11V559H696V946c0,0,0,6,3,10c0,0,3,5,10,8c0,0,8,2,20,4c0,0,11,2,31,2c0,0,18,0,30,-2c0,0,12,-2,20,-4c0,0,7,-3,10,-7c0,0,3,-5,3,-11V19c0,0,0,-6,-3,-10c0,0,-3,-5,-10,-8c0,0,-8,-1,-20,-3c0,0,-12,-2,-30,-2c0,0,-20,0,-31,2c0,0,-12,2,-20,3c0,0,-7,3,-10,8c0,0,-3,4,-3,10V448H256V19c0,0,0,-6,-3,-10c0,0,-3,-5,-10,-8c0,0,-7,-1,-20,-3c0,0,-12,-2,-31,-2Z"
id="f1_19"
transform="scale(0.001,-0.001)"/>

<path d="M69,661c0,0,-12,0,-21,1c0,0,-8,1,-12,4c0,0,-4,2,-4,7c0,0,-1,4,2,11L134,889v95c0,0,0,19,4,31c0,0,4,12,13,19c0,0,9,7,22,9c0,0,13,2,33,2c0,0,19,0,32,-2c0,0,13,-2,22,-9c0,0,9,-7,13,-19c0,0,4,-12,4,-31c0,0,0,-23,-2,-42c0,0,-3,-19,-8,-37c0,0,-5,-17,-14,-34c0,0,-8,-17,-21,-35L130,683c0,0,-4,-6,-9,-10c0,0,-5,-5,-12,-7c0,0,-7,-3,-16,-4c0,0,-9,-1,-24,-1Z"
id="f1_nw"
transform="scale(0.001,-0.001)"/>

<path d="M429,92c0,0,47,0,80,22c0,0,33,23,54,60c0,0,20,38,30,84c0,0,10,46,10,93c0,0,0,52,-8,100c0,0,-8,48,-27,86c0,0,-19,37,-51,60c0,0,-32,22,-80,22c0,0,-24,0,-47,-7c0,0,-23,-7,-47,-23c0,0,-24,-15,-50,-40c0,0,-26,-25,-56,-62V220c0,0,51,-62,97,-95c0,0,45,-33,95,-33ZM176,-271c0,0,-18,0,-30,2c0,0,-12,1,-19,4c0,0,-7,3,-10,8c0,0,-3,4,-3,10V690c0,0,0,6,3,10c0,0,2,5,9,8c0,0,6,3,17,4c0,0,10,1,25,1c0,0,16,0,26,-1c0,0,10,-1,17,-4c0,0,6,-3,9,-7c0,0,3,-4,3,-11V601c0,0,30,31,59,54c0,0,28,23,57,39c0,0,28,15,59,23c0,0,30,8,63,8c0,0,74,0,125,-29c0,0,52,-28,84,-77c0,0,32,-50,47,-115c0,0,15,-65,15,-139c0,0,0,-88,-19,-158c0,0,-19,-70,-56,-119c0,0,-37,-49,-91,-75c0,0,-55,-26,-125,-26c0,0,-30,0,-55,6c0,0,-25,6,-50,18c0,0,-24,13,-48,32c0,0,-24,19,-51,46V-247c0,0,0,-6,-3,-10c0,0,-2,-5,-9,-8c0,0,-7,-3,-19,-4c0,0,-12,-2,-30,-2Z"
id="f1_ay"
transform="scale(0.001,-0.001)"/>

<path d="M431,92c0,0,46,0,79,22c0,0,33,23,53,60c0,0,21,37,30,83c0,0,10,46,10,93c0,0,0,51,-8,100c0,0,-8,49,-28,86c0,0,-19,37,-51,60c0,0,-32,23,-80,23c0,0,-24,0,-47,-7c0,0,-23,-7,-47,-22c0,0,-24,-16,-50,-41c0,0,-25,-24,-55,-62V219c0,0,51,-62,98,-95c0,0,46,-32,96,-32ZM443,-13c0,0,-32,0,-59,7c0,0,-27,6,-53,19c0,0,-26,14,-52,36c0,0,-27,22,-56,52V18c0,0,0,-6,-3,-10c0,0,-3,-5,-9,-7c0,0,-7,-2,-17,-3c0,0,-10,-2,-26,-2c0,0,-15,0,-25,2c0,0,-11,1,-17,3c0,0,-7,2,-9,7c0,0,-3,4,-3,10v997c0,0,0,6,3,11c0,0,3,4,10,7c0,0,7,3,19,5c0,0,12,1,30,1c0,0,18,0,30,-1c0,0,12,-2,19,-5c0,0,7,-3,9,-7c0,0,3,-5,3,-10V614c0,0,30,31,58,52c0,0,28,20,55,34c0,0,27,13,54,19c0,0,27,6,57,6c0,0,73,0,125,-30c0,0,52,-29,84,-78c0,0,32,-48,47,-114c0,0,15,-66,15,-139c0,0,0,-87,-19,-157c0,0,-19,-70,-56,-119c0,0,-37,-49,-90,-76c0,0,-54,-25,-124,-25Z"
id="f1_7k"
transform="scale(0.001,-0.001)"/>

<path d="M176,-4c0,0,-18,0,-30,2c0,0,-12,1,-19,3c0,0,-7,3,-10,7c0,0,-3,4,-3,10v997c0,0,0,6,3,11c0,0,3,4,10,7c0,0,7,3,19,5c0,0,12,1,30,1c0,0,18,0,30,-1c0,0,12,-2,19,-5c0,0,7,-3,9,-7c0,0,3,-5,3,-10V614c0,0,53,56,107,83c0,0,54,28,108,28c0,0,67,0,113,-23c0,0,46,-23,74,-61c0,0,29,-38,41,-89c0,0,12,-52,12,-124V18c0,0,0,-6,-3,-10c0,0,-3,-4,-9,-7c0,0,-7,-2,-19,-3c0,0,-12,-2,-30,-2c0,0,-19,0,-30,2c0,0,-12,1,-19,3c0,0,-7,3,-10,7c0,0,-3,4,-3,10V412c0,0,0,58,-9,93c0,0,-9,35,-26,61c0,0,-17,25,-44,38c0,0,-27,14,-63,14c0,0,-46,0,-93,-33c0,0,-46,-33,-97,-96V18c0,0,0,-6,-3,-10c0,0,-2,-4,-9,-7c0,0,-7,-2,-19,-3c0,0,-12,-2,-30,-2Z"
id="f1_9n"
transform="scale(0.001,-0.001)"/>

<path d="M92,-4c0,0,-22,0,-35,2C57,-2,43,0,37,3c0,0,-7,5,-6,12c0,0,0,7,7,17L247,360L49,675c0,0,-6,11,-6,18c0,0,-1,7,6,12c0,0,7,5,22,6c0,0,14,2,38,2c0,0,22,0,35,-1c0,0,13,-1,20,-4c0,0,8,-2,12,-6c0,0,3,-3,6,-9L335,443L490,693c0,0,3,5,7,9c0,0,4,3,10,6c0,0,7,3,18,4c0,0,12,1,32,1c0,0,21,0,35,-2c0,0,14,-1,21,-5c0,0,7,-4,6,-12c0,0,-1,-7,-8,-19L415,364L622,32c0,0,6,-10,6,-17c0,0,0,-7,-7,-12c0,0,-7,-3,-21,-5c0,0,-15,-2,-38,-2c0,0,-22,0,-35,1c0,0,-13,1,-21,3c0,0,-8,3,-12,7c0,0,-4,4,-7,9L326,282L165,16c0,0,-3,-5,-7,-9c0,0,-4,-4,-12,-7c0,0,-8,-2,-20,-3c0,0,-13,-1,-34,-1Z"
id="f1_cn"
transform="scale(0.001,-0.001)"/>

<path d="M346,-177c0,0,56,0,94,11c0,0,37,11,60,28c0,0,24,18,34,41c0,0,10,23,10,49c0,0,0,43,-36,65c0,0,-35,23,-95,25L239,48c0,0,-24,-19,-39,-35c0,0,-15,-16,-24,-31c0,0,-9,-16,-12,-30c0,0,-4,-15,-4,-31c0,0,0,-48,49,-73c0,0,50,-25,137,-25Zm-6,512c0,0,36,0,63,12c0,0,27,12,44,32c0,0,18,21,26,48c0,0,9,27,9,56c0,0,0,69,-38,107c0,0,-37,39,-107,39c0,0,-35,0,-62,-12c0,0,-26,-12,-44,-33c0,0,-17,-21,-26,-48c0,0,-8,-28,-8,-58c0,0,0,-66,37,-104c0,0,38,-39,106,-39Zm0,-606c0,0,-81,0,-138,14c0,0,-57,14,-94,38c0,0,-36,24,-52,57c0,0,-17,33,-17,72c0,0,0,24,6,47c0,0,6,24,18,43c0,0,13,21,31,40c0,0,18,19,42,38c0,0,-36,19,-54,47c0,0,-17,28,-17,61c0,0,0,45,18,81c0,0,19,36,46,64c0,0,-23,28,-36,62c0,0,-14,35,-14,84c0,0,0,58,20,104c0,0,19,45,53,77c0,0,35,31,83,48c0,0,48,17,105,17c0,0,30,0,57,-4c0,0,26,-3,49,-9H649c0,0,13,0,19,-12c0,0,7,-13,7,-38c0,0,0,-26,-7,-37c0,0,-7,-12,-19,-12H553c0,0,26,-27,37,-60c0,0,10,-32,10,-68c0,0,0,-58,-18,-103c0,0,-19,-45,-54,-76c0,0,-34,-31,-82,-47c0,0,-48,-16,-106,-16c0,0,-41,0,-78,10c0,0,-37,11,-57,28c0,0,-14,-14,-22,-31c0,0,-9,-17,-9,-39c0,0,0,-27,24,-44c0,0,25,-17,65,-18l175,-8c0,0,50,-1,92,-14c0,0,41,-12,72,-35c0,0,31,-22,48,-55c0,0,17,-34,17,-76c0,0,0,-47,-20,-88c0,0,-19,-42,-59,-74c0,0,-40,-31,-102,-50c0,0,-61,-18,-146,-18Z"
id="f1_9d"
transform="scale(0.001,-0.001)"/>

<path d="M372,-4c0,0,-18,0,-30,2c0,0,-13,2,-21,3c0,0,-7,3,-10,8c0,0,-3,4,-3,10V857H36c0,0,-6,0,-11,3c0,0,-5,2,-8,9c0,0,-2,6,-4,17c0,0,-2,10,-2,24c0,0,0,14,2,25c0,0,2,11,4,17c0,0,3,7,8,10c0,0,5,3,11,3H708c0,0,6,0,11,-3c0,0,5,-3,8,-10c0,0,4,-6,5,-17c0,0,2,-11,2,-25c0,0,0,-14,-2,-24c0,0,-1,-11,-5,-17c0,0,-3,-7,-8,-9c0,0,-5,-3,-11,-3H436V19c0,0,0,-6,-3,-10c0,0,-3,-5,-10,-8c0,0,-8,-1,-20,-3c0,0,-12,-2,-31,-2Z"
id="f1_2t"
transform="scale(0.001,-0.001)"/>

<path d="M176,0c0,0,-17,0,-33,12c0,0,-15,11,-15,40V913c0,0,0,29,15,41c0,0,16,11,33,11H635c0,0,6,0,10,-3c0,0,5,-3,8,-10c0,0,3,-6,5,-16c0,0,2,-10,2,-25c0,0,0,-14,-2,-24c0,0,-2,-10,-5,-16c0,0,-3,-7,-8,-10c0,0,-4,-2,-10,-2H256V555H581c0,0,6,0,11,-3c0,0,5,-3,8,-9c0,0,3,-6,5,-17c0,0,1,-10,1,-24c0,0,0,-14,-1,-23c0,0,-2,-10,-5,-16c0,0,-3,-6,-8,-9c0,0,-5,-2,-11,-2H256V107H640c0,0,6,0,11,-3c0,0,4,-3,8,-10c0,0,4,-6,5,-16c0,0,2,-10,2,-25c0,0,0,-14,-2,-24c0,0,-1,-10,-5,-16c0,0,-4,-7,-8,-10c0,0,-5,-3,-11,-3Z"
id="f1_t"
transform="scale(0.001,-0.001)"/>

<path d="M366,92c0,0,25,0,48,7c0,0,22,6,46,22c0,0,24,16,50,41c0,0,26,24,56,61V492c0,0,-51,62,-97,94c0,0,-47,33,-98,33c0,0,-47,0,-79,-22c0,0,-33,-23,-54,-59c0,0,-20,-37,-30,-83c0,0,-9,-47,-9,-94c0,0,0,-52,8,-100c0,0,8,-49,27,-86c0,0,19,-38,52,-60c0,0,32,-23,80,-23ZM627,-271c0,0,-18,0,-30,2c0,0,-11,1,-19,4c0,0,-7,3,-10,8c0,0,-2,4,-2,10V97c0,0,-31,-31,-59,-52c0,0,-27,-21,-54,-34c0,0,-27,-12,-54,-18c0,0,-28,-6,-57,-6c0,0,-73,0,-124,28c0,0,-52,29,-84,78c0,0,-33,49,-48,115c0,0,-15,66,-15,139c0,0,0,86,19,156c0,0,19,70,56,119c0,0,37,50,91,76c0,0,54,27,125,27c0,0,30,0,56,-7c0,0,26,-6,52,-20c0,0,25,-14,52,-36c0,0,26,-22,58,-52v80c0,0,0,7,3,11c0,0,3,4,9,7c0,0,7,3,18,4c0,0,10,1,26,1c0,0,15,0,25,-1c0,0,10,-1,17,-4c0,0,6,-3,9,-8c0,0,2,-4,2,-10V-247c0,0,0,-6,-3,-10c0,0,-3,-5,-10,-8c0,0,-7,-3,-19,-4c0,0,-12,-2,-30,-2Z"
id="f1_b0"
transform="scale(0.001,-0.001)"/>

<path d="M385,92c0,0,42,0,74,13c0,0,31,14,54,39c0,0,23,25,38,60c0,0,15,35,24,77c0,0,9,43,12,92c0,0,3,50,3,103c0,0,0,73,-5,130c0,0,-5,57,-15,101c0,0,-10,44,-26,76c0,0,-16,32,-39,52c0,0,-22,21,-51,30c0,0,-29,9,-64,9c0,0,-64,0,-103,-30c0,0,-40,-29,-63,-82c0,0,-23,-52,-31,-122c0,0,-8,-70,-8,-150c0,0,0,-108,11,-184c0,0,11,-76,36,-123c0,0,24,-48,62,-69c0,0,37,-22,91,-22ZM378,-13c0,0,-91,0,-154,32c0,0,-62,32,-100,95c0,0,-38,63,-54,155c0,0,-16,92,-16,212c0,0,0,110,18,202c0,0,18,92,58,158c0,0,40,66,106,103c0,0,66,36,161,36c0,0,92,0,154,-33c0,0,62,-32,100,-95c0,0,39,-63,55,-155c0,0,16,-92,16,-212c0,0,0,-111,-18,-203c0,0,-17,-91,-58,-157C646,125,605,59,540,22c0,0,-66,-35,-162,-35Z"
id="f1_rx"
transform="scale(0.001,-0.001)"/>

<path d="M324,-4c0,0,-23,0,-37,2c0,0,-15,1,-24,3c0,0,-9,3,-14,8c0,0,-4,6,-7,13L46,660c0,0,-4,11,-5,18c0,0,-2,8,-2,13c0,0,0,7,3,11c0,0,3,4,10,7c0,0,8,2,19,3c0,0,12,1,30,1c0,0,20,0,33,-1c0,0,13,-1,20,-4c0,0,6,-3,9,-8c0,0,3,-4,5,-11L330,136l2,-7l1,7L482,689c0,0,1,7,5,11c0,0,3,5,10,8c0,0,6,3,18,4c0,0,12,1,31,1c0,0,18,0,29,-1c0,0,12,-1,18,-4c0,0,7,-3,10,-7c0,0,3,-5,5,-11L768,136l1,-7l1,7L930,689c0,0,1,7,5,11c0,0,3,5,10,8c0,0,7,3,20,4c0,0,12,1,31,1c0,0,18,0,29,-1c0,0,11,-1,17,-4c0,0,6,-3,9,-6c0,0,3,-4,3,-11c0,0,0,-5,-2,-13c0,0,-1,-7,-5,-18L849,22c0,0,-2,-8,-7,-13c0,0,-5,-6,-13,-9c0,0,-9,-2,-24,-3c0,0,-15,-1,-37,-1c0,0,-23,0,-39,2c0,0,-15,1,-25,3c0,0,-9,3,-14,8c0,0,-4,6,-6,13L543,510l-2,6l-2,-6L409,22c0,0,-3,-8,-7,-13c0,0,-5,-6,-15,-9c0,0,-10,-2,-25,-3c0,0,-15,-1,-38,-1Z"
id="f1_ci"
transform="scale(0.001,-0.001)"/>

<path d="M192,-4c0,0,-18,0,-30,2c0,0,-13,2,-20,3c0,0,-8,3,-11,8c0,0,-3,5,-3,10V946c0,0,0,6,3,11c0,0,3,4,11,7c0,0,7,2,20,4c0,0,12,2,30,2c0,0,19,0,31,-2c0,0,13,-2,20,-4c0,0,7,-3,10,-7c0,0,3,-5,3,-11V517L598,946c0,0,5,7,10,11c0,0,6,5,15,7c0,0,9,3,21,4c0,0,12,2,32,2c0,0,19,0,31,-2c0,0,12,-2,19,-5c0,0,7,-3,10,-7c0,0,2,-5,2,-10c0,0,0,-10,-5,-19c0,0,-4,-10,-18,-27L395,517L740,59c0,0,12,-20,15,-27c0,0,3,-7,3,-12c0,0,0,-5,-3,-10c0,0,-3,-5,-10,-8c0,0,-7,-2,-20,-4c0,0,-13,-2,-33,-2c0,0,-26,0,-42,2c0,0,-17,2,-25,8c0,0,-8,6,-14,13L256,502V19c0,0,0,-5,-3,-10c0,0,-3,-5,-10,-8c0,0,-7,-1,-20,-3c0,0,-12,-2,-31,-2Z"
id="f1_1p"
transform="scale(0.001,-0.001)"/>

<path d="M218,-6c0,0,-24,0,-39,4c0,0,-15,3,-24,13c0,0,-8,10,-12,27c0,0,-3,16,-3,41c0,0,0,24,3,41c0,0,4,17,12,27c0,0,9,9,24,14c0,0,15,4,39,4c0,0,23,0,38,-4c0,0,15,-5,24,-14c0,0,10,-10,13,-27c0,0,3,-17,3,-41c0,0,0,-25,-3,-41c0,0,-3,-17,-13,-27c0,0,-9,-10,-24,-13c0,0,-15,-4,-38,-4Zm0,518c0,0,-24,0,-39,4c0,0,-15,5,-24,15c0,0,-8,10,-12,26c0,0,-3,16,-3,40c0,0,0,26,3,42c0,0,4,17,12,27c0,0,9,10,24,14c0,0,15,4,39,4c0,0,23,0,38,-4c0,0,15,-4,24,-14c0,0,10,-10,13,-27c0,0,3,-16,3,-42c0,0,0,-24,-3,-40c0,0,-3,-16,-13,-26c0,0,-9,-10,-24,-15c0,0,-15,-4,-38,-4Z"
id="f1_ns"
transform="scale(0.001,-0.001)"/>

<path d="M388,108c0,0,93,0,156,23c0,0,64,23,106,71c0,0,43,47,64,119c0,0,21,72,21,171c0,0,0,78,-19,145c0,0,-20,68,-61,117c0,0,-41,49,-105,77c0,0,-63,28,-163,28H256V108ZM176,0c0,0,-17,0,-33,12c0,0,-15,11,-15,40V913c0,0,0,29,15,41c0,0,16,11,33,11H394c0,0,126,0,212,-32c0,0,87,-33,145,-94c0,0,59,-60,89,-147c0,0,30,-86,30,-195c0,0,0,-126,-32,-219c0,0,-32,-94,-93,-155c0,0,-62,-62,-151,-92C594,31,504,0,380,0Z"
id="f1_p"
transform="scale(0.001,-0.001)"/>

<path d="M321,-256c0,0,-13,0,-23,1c0,0,-10,0,-17,3c0,0,-7,2,-11,5c0,0,-5,3,-7,7c0,0,-40,76,-71,154c0,0,-31,78,-51,157c0,0,-21,81,-32,163c0,0,-10,83,-10,167c0,0,0,84,11,166c0,0,12,82,33,163c0,0,21,81,52,160c0,0,31,78,69,155c0,0,0,3,4,5c0,0,3,2,9,4c0,0,6,3,16,4c0,0,11,1,27,1c0,0,17,0,28,-2c0,0,10,-3,16,-6c0,0,6,-4,7,-10c0,0,1,-6,-2,-13c0,0,-71,-150,-106,-307c0,0,-34,-158,-34,-318c0,0,0,-160,35,-318c0,0,35,-156,103,-308c0,0,4,-9,4,-15c0,0,1,-6,-4,-10c0,0,-6,-4,-16,-6c0,0,-11,-2,-30,-2Z"
id="f1_ov"
transform="scale(0.001,-0.001)"/>

<path d="M98,233c0,0,-11,0,-19,11c0,0,-9,11,-9,41c0,0,0,28,8,41c0,0,7,12,20,12H662c0,0,13,0,21,-12c0,0,7,-13,7,-41c0,0,0,-30,-8,-41c0,0,-9,-11,-20,-11Zm0,289c0,0,-11,0,-19,12c0,0,-9,11,-9,41c0,0,0,27,8,40c0,0,7,13,20,13H662c0,0,13,0,21,-13c0,0,7,-13,7,-40c0,0,0,-30,-8,-41c0,0,-9,-12,-20,-12Z"
id="f1_ua"
transform="scale(0.001,-0.001)"/>

<path d="M69,-215c0,0,-12,0,-21,1c0,0,-8,1,-12,4c0,0,-4,2,-4,7c0,0,-1,4,2,10L134,11v96c0,0,0,20,4,32c0,0,4,12,13,18c0,0,9,6,22,8c0,0,13,2,33,2c0,0,19,0,32,-2c0,0,13,-2,22,-8c0,0,9,-6,13,-18c0,0,4,-12,4,-32c0,0,0,-23,-2,-43c0,0,-3,-19,-8,-36c0,0,-5,-17,-14,-33c0,0,-8,-17,-21,-36L130,-194c0,0,-4,-5,-9,-9c0,0,-5,-4,-12,-7c0,0,-7,-3,-16,-4c0,0,-9,-1,-24,-1Z"
id="f1_nq"
transform="scale(0.001,-0.001)"/>

<path d="M168,649c0,0,-14,0,-23,2c0,0,-8,1,-14,4c0,0,-6,3,-8,8c0,0,-2,4,-2,10l-17,345c0,0,0,6,3,11c0,0,4,4,12,7c0,0,7,3,19,5c0,0,13,1,30,1c0,0,36,0,50,-6c0,0,14,-6,14,-18L215,673c0,0,0,-6,-2,-10c0,0,-3,-5,-9,-8c0,0,-6,-3,-14,-4c0,0,-9,-2,-22,-2Zm265,0c0,0,-14,0,-23,2c0,0,-9,1,-14,4c0,0,-6,3,-8,8c0,0,-2,4,-2,10l-17,345c0,0,0,6,3,11c0,0,4,4,11,7c0,0,8,3,20,5c0,0,13,1,30,1c0,0,18,0,30,-1c0,0,12,-2,20,-5c0,0,7,-3,10,-7c0,0,4,-5,3,-11L480,673c0,0,0,-6,-3,-10c0,0,-2,-5,-8,-8c0,0,-6,-3,-14,-4c0,0,-9,-2,-22,-2Z"
id="f1_pk"
transform="scale(0.001,-0.001)"/>

<path d="M102,0C102,0,87,0,77,10C77,10,66,21,66,45V71c0,0,0,10,2,18c0,0,1,9,4,17c0,0,3,8,9,17c0,0,5,10,12,22L390,606H102c0,0,-12,0,-19,13c0,0,-7,12,-7,39c0,0,0,14,2,24c0,0,1,10,5,16c0,0,3,7,8,9c0,0,5,3,11,3H487c0,0,9,0,15,-2c0,0,6,-3,11,-8c0,0,4,-5,7,-13c0,0,3,-8,3,-21V642c0,0,0,-10,-2,-19c0,0,-1,-9,-4,-18c0,0,-3,-8,-9,-18c0,0,-5,-10,-12,-22L201,104H516c0,0,6,0,11,-3c0,0,4,-3,8,-9c0,0,3,-6,5,-16c0,0,3,-10,3,-24c0,0,0,-14,-3,-24c0,0,-2,-10,-5,-16c0,0,-3,-7,-8,-9c0,0,-5,-3,-11,-3Z"
id="f1_ct"
transform="scale(0.001,-0.001)"/>

<path d="M142,-256c0,0,-19,0,-30,2c0,0,-11,2,-16,6c0,0,-5,4,-4,10c0,0,0,6,4,15c0,0,69,151,104,308c0,0,35,158,35,318c0,0,0,160,-35,318c0,0,-35,157,-106,307c0,0,-3,7,-2,13c0,0,1,6,7,10c0,0,6,3,16,6c0,0,11,2,28,2c0,0,16,0,26,-1c0,0,10,-1,17,-4c0,0,6,-2,9,-4c0,0,3,-2,5,-5c0,0,76,-153,120,-315c0,0,44,-161,44,-329c0,0,0,-84,-11,-167c0,0,-10,-82,-31,-163c0,0,-21,-79,-51,-157c0,0,-30,-78,-71,-154c0,0,-2,-4,-6,-7c0,0,-5,-3,-12,-5c0,0,-7,-3,-17,-3c0,0,-9,-1,-23,-1Z"
id="f1_ow"
transform="scale(0.001,-0.001)"/>

<path d="M541,-13c0,0,-112,0,-200,34c0,0,-88,35,-149,99c0,0,-60,64,-92,154c0,0,-33,90,-33,200c0,0,0,115,35,208c0,0,35,94,98,160c0,0,63,65,151,101c0,0,89,37,196,37c0,0,55,0,104,-10c0,0,48,-10,86,-23c0,0,37,-12,63,-28c0,0,26,-15,35,-24c0,0,10,-10,14,-23c0,0,4,-13,4,-37c0,0,0,-14,-2,-25c0,0,-1,-10,-4,-18c0,0,-3,-7,-8,-10c0,0,-4,-3,-9,-3c0,0,-9,0,-30,14c0,0,-21,15,-56,32c0,0,-35,17,-84,31c0,0,-49,14,-116,14c0,0,-80,0,-143,-29c0,0,-64,-29,-108,-81c0,0,-44,-51,-67,-122c0,0,-24,-71,-24,-154c0,0,0,-93,26,-165c0,0,26,-72,71,-121c0,0,46,-49,109,-75c0,0,63,-25,138,-25c0,0,45,0,91,11c0,0,46,10,85,32V423H499c0,0,-13,0,-19,13c0,0,-7,13,-7,40c0,0,0,14,2,24c0,0,1,10,5,17c0,0,3,6,7,9c0,0,5,3,12,3H805c0,0,8,0,17,-3c0,0,8,-3,14,-9c0,0,7,-6,11,-16c0,0,4,-11,4,-24V108c0,0,0,-19,-7,-33c0,0,-7,-15,-28,-26c0,0,-22,-10,-56,-23C760,26,725,13,689,4c0,0,-37,-8,-74,-12c0,0,-37,-5,-74,-5Z"
id="f1_14"
transform="scale(0.001,-0.001)"/>

<path d="M372,472c0,0,58,0,97,15c0,0,38,15,65,42c0,0,26,26,39,63c0,0,14,37,14,80c0,0,0,59,-22,99c0,0,-23,39,-55,59c0,0,-32,19,-67,24c0,0,-35,5,-68,5H256V472ZM192,-4c0,0,-18,0,-31,2c0,0,-12,2,-19,3c0,0,-8,3,-11,8c0,0,-3,4,-3,10V910c0,0,0,30,16,42c0,0,15,13,35,13H386c0,0,31,0,60,-3c0,0,28,-2,68,-11c0,0,39,-8,80,-32c0,0,40,-23,69,-58c0,0,28,-34,43,-79c0,0,16,-45,16,-100c0,0,0,-72,-24,-130c0,0,-24,-58,-69,-100c0,0,-44,-41,-109,-63c0,0,-64,-22,-154,-22H256V19c0,0,0,-6,-3,-10c0,0,-3,-5,-10,-8c0,0,-7,-1,-20,-3c0,0,-12,-2,-31,-2Z"
id="f1_2g"
transform="scale(0.001,-0.001)"/>

<path d="M192,-4c0,0,-18,0,-30,2c0,0,-13,2,-20,3c0,0,-8,3,-11,8c0,0,-3,5,-3,10V913c0,0,0,29,15,40c0,0,16,12,33,12H610c0,0,5,0,10,-3c0,0,5,-3,9,-10c0,0,4,-6,5,-17c0,0,2,-11,2,-25c0,0,0,-14,-2,-24c0,0,-1,-11,-5,-17c0,0,-4,-7,-9,-9c0,0,-5,-3,-10,-3H256V528H591c0,0,5,0,10,-3c0,0,5,-2,8,-8c0,0,4,-6,6,-16c0,0,1,-10,1,-26c0,0,0,-14,-1,-24c0,0,-2,-10,-6,-17c0,0,-3,-6,-8,-9c0,0,-5,-4,-10,-4H256V19c0,0,0,-5,-3,-10c0,0,-3,-5,-10,-8c0,0,-7,-1,-19,-3c0,0,-12,-2,-32,-2Z"
id="f1_13"
transform="scale(0.001,-0.001)"/>

<path d="M192,-4c0,0,-18,0,-30,2c0,0,-13,2,-20,3c0,0,-8,3,-11,8c0,0,-3,4,-3,10V946c0,0,0,6,3,11c0,0,4,4,12,7c0,0,7,2,20,4c0,0,12,2,29,2c0,0,19,0,31,-2c0,0,13,-2,20,-4c0,0,7,-3,10,-7c0,0,3,-5,3,-11V19c0,0,0,-6,-3,-10c0,0,-3,-5,-10,-8c0,0,-7,-1,-20,-3c0,0,-12,-2,-31,-2Z"
id="f1_1c"
transform="scale(0.001,-0.001)"/>

<path d="M176,0c0,0,-17,0,-33,12c0,0,-15,11,-15,40V946c0,0,0,6,3,11c0,0,3,4,11,7c0,0,7,2,20,4c0,0,12,2,30,2c0,0,19,0,31,-2c0,0,13,-2,20,-4c0,0,7,-3,10,-7c0,0,3,-5,3,-11V111H603c0,0,6,0,11,-3c0,0,5,-3,8,-10c0,0,4,-6,5,-16c0,0,2,-11,2,-26c0,0,0,-15,-2,-25c0,0,-1,-10,-5,-17c0,0,-3,-7,-8,-11c0,0,-5,-3,-11,-3Z"
id="f1_1r"
transform="scale(0.001,-0.001)"/>

<path d="M69,663c0,0,-12,0,-21,1c0,0,-8,1,-11,4c0,0,-4,3,-5,8c0,0,0,4,3,11l99,203v95c0,0,0,19,3,31c0,0,4,12,13,18c0,0,8,7,21,9c0,0,13,2,32,2c0,0,18,0,30,-2c0,0,13,-2,21,-9c0,0,9,-6,13,-18c0,0,4,-12,4,-31c0,0,0,-23,-2,-42c0,0,-3,-19,-8,-36c0,0,-4,-18,-13,-34c0,0,-9,-17,-20,-35L126,685c0,0,-3,-6,-8,-10c0,0,-5,-4,-11,-6c0,0,-7,-3,-16,-5c0,0,-9,-1,-22,-1Zm267,0c0,0,-12,0,-20,1c0,0,-8,1,-12,4c0,0,-4,3,-4,8c0,0,0,4,2,11l99,203v95c0,0,0,19,3,31c0,0,4,12,13,18c0,0,8,7,21,9c0,0,13,2,32,2c0,0,17,0,30,-2c0,0,13,-2,21,-9c0,0,9,-6,13,-18c0,0,4,-12,4,-31c0,0,0,-23,-2,-42c0,0,-3,-19,-7,-36c0,0,-5,-18,-14,-34c0,0,-8,-17,-20,-35L393,685c0,0,-3,-6,-8,-10c0,0,-5,-4,-11,-6c0,0,-7,-3,-16,-5c0,0,-9,-1,-22,-1Z"
id="f1_o0"
transform="scale(0.001,-0.001)"/>

<path d="M441,106c0,0,45,0,77,10c0,0,33,10,58,31c0,0,25,21,39,51c0,0,15,31,15,71c0,0,0,43,-14,76c0,0,-14,33,-41,55c0,0,-26,23,-66,34c0,0,-40,12,-100,12H255V106ZM401,549c0,0,50,0,81,13c0,0,30,13,50,35c0,0,20,22,30,51c0,0,9,29,9,61c0,0,0,35,-10,63c0,0,-9,28,-30,48c0,0,-21,20,-55,30c0,0,-33,10,-88,10H255V549ZM176,0c0,0,-17,0,-33,12c0,0,-15,11,-15,40V913c0,0,0,29,15,41c0,0,16,11,33,11H395c0,0,87,0,142,-16c0,0,55,-17,92,-48c0,0,37,-31,55,-77c0,0,19,-45,19,-103c0,0,0,-34,-8,-65c0,0,-8,-32,-24,-58c0,0,-16,-27,-41,-47c0,0,-24,-21,-55,-35c0,0,39,-7,74,-27c0,0,34,-20,60,-50c0,0,26,-31,41,-72c0,0,15,-41,15,-90c0,0,0,-46,-12,-84c0,0,-12,-39,-32,-69c0,0,-21,-31,-51,-54c0,0,-29,-23,-66,-39C604,31,567,16,525,8C525,8,483,0,428,0Z"
id="f1_i"
transform="scale(0.001,-0.001)"/>

<path d="M176,-4c0,0,-18,0,-30,2c0,0,-12,1,-19,3c0,0,-7,3,-10,7c0,0,-3,4,-3,10v997c0,0,0,6,3,11c0,0,3,4,10,7c0,0,7,3,19,5c0,0,12,1,30,1c0,0,18,0,30,-1c0,0,12,-2,19,-5c0,0,7,-3,9,-7c0,0,3,-5,3,-11V408L492,687c0,0,6,7,12,12c0,0,7,5,16,8c0,0,10,4,22,5c0,0,13,1,31,1c0,0,19,0,31,-1c0,0,13,-1,21,-4c0,0,8,-3,11,-7c0,0,3,-4,3,-11c0,0,0,-9,-4,-18c0,0,-5,-8,-16,-20L375,408L648,54c0,0,10,-13,14,-20c0,0,4,-8,4,-15c0,0,0,-6,-3,-10c0,0,-3,-5,-10,-8c0,0,-7,-2,-20,-3c0,0,-13,-2,-32,-2c0,0,-20,0,-33,1c0,0,-13,1,-22,3c0,0,-9,3,-15,7c0,0,-5,5,-10,12L237,391V18c0,0,0,-6,-3,-10c0,0,-2,-4,-9,-7c0,0,-7,-2,-19,-3c0,0,-12,-2,-30,-2Z"
id="f1_a5"
transform="scale(0.001,-0.001)"/>

<path d="M189,-238c0,0,-8,0,-17,3c0,0,-8,3,-15,9c0,0,-6,6,-10,16c0,0,-5,10,-5,25V991c0,0,0,14,5,24c0,0,4,10,10,17c0,0,7,6,15,9c0,0,9,2,17,2H380c0,0,5,0,9,-2c0,0,4,-2,7,-8c0,0,3,-6,5,-15c0,0,1,-8,1,-21c0,0,0,-24,-6,-34c0,0,-5,-11,-16,-11H259V-148H380c0,0,5,0,9,-2c0,0,4,-2,7,-8c0,0,3,-5,5,-14c0,0,1,-8,1,-21c0,0,0,-25,-6,-35c0,0,-5,-10,-16,-10Z"
id="f1_ox"
transform="scale(0.001,-0.001)"/>

<path d="M469,327V857h-2L153,327ZM530,-4c0,0,-18,0,-30,2c0,0,-12,1,-19,3c0,0,-7,3,-9,7c0,0,-3,4,-3,10V221H71c0,0,-9,0,-15,2c0,0,-6,2,-11,8c0,0,-5,6,-7,17c0,0,-2,12,-2,30c0,0,0,14,1,25c0,0,1,11,3,20c0,0,2,10,6,18c0,0,4,9,9,18L403,947c0,0,3,6,10,10c0,0,7,5,19,8c0,0,11,3,27,4c0,0,17,1,39,1c0,0,25,0,43,-2c0,0,18,-2,29,-5c0,0,12,-3,18,-8c0,0,6,-4,6,-11V327H702c0,0,13,0,21,-13c0,0,8,-13,8,-40c0,0,0,-25,-8,-39c0,0,-7,-14,-21,-14H594V18c0,0,0,-6,-3,-10c0,0,-3,-4,-11,-7c0,0,-7,-2,-19,-3c0,0,-12,-2,-31,-2Z"
id="f1_s1"
transform="scale(0.001,-0.001)"/>

<path d="M89,-238c0,0,-11,0,-16,10c0,0,-6,10,-6,35c0,0,0,13,1,21c0,0,1,9,4,14c0,0,3,6,7,8c0,0,5,2,10,2H210V952H89c0,0,-11,0,-16,11c0,0,-6,10,-6,34c0,0,0,13,1,21c0,0,1,9,4,15c0,0,3,6,7,8c0,0,5,2,10,2H279c0,0,9,0,18,-2c0,0,8,-3,15,-9c0,0,7,-7,11,-17c0,0,4,-10,4,-24V-185c0,0,0,-15,-4,-25c0,0,-4,-10,-11,-16c0,0,-7,-6,-15,-9c0,0,-9,-3,-18,-3Z"
id="f1_oy"
transform="scale(0.001,-0.001)"/>

<path d="M20,368c0,0,-14,0,-20,13c0,0,-7,13,-7,41c0,0,0,28,7,41c0,0,6,13,20,13H736c0,0,7,0,13,-3c0,0,5,-4,9,-10c0,0,3,-6,5,-16c0,0,2,-10,2,-25c0,0,0,-28,-7,-41c0,0,-8,-13,-22,-13Z"
id="f1_ol"
transform="scale(0.001,-0.001)"/>

<path d="M482,-11c0,0,-94,0,-170,31c0,0,-76,31,-129,92c0,0,-53,61,-82,151c0,0,-29,90,-29,207c0,0,0,120,31,214c0,0,31,94,87,159c0,0,56,65,134,100c0,0,78,34,173,34c0,0,41,0,81,-8c0,0,39,-8,73,-19c0,0,33,-12,60,-28c0,0,26,-15,36,-25c0,0,10,-10,13,-15c0,0,3,-6,5,-13c0,0,1,-7,3,-17c0,0,1,-9,1,-23c0,0,0,-15,-2,-25c0,0,-1,-11,-4,-18c0,0,-3,-7,-7,-10c0,0,-4,-4,-10,-4c0,0,-11,0,-30,15c0,0,-18,14,-48,32c0,0,-29,17,-71,32c0,0,-42,14,-101,14c0,0,-64,0,-117,-25c0,0,-52,-26,-90,-76c0,0,-37,-50,-57,-122c0,0,-21,-72,-21,-164c0,0,0,-92,20,-163c0,0,20,-70,57,-117c0,0,36,-48,90,-72c0,0,54,-24,122,-24c0,0,57,0,100,14c0,0,43,14,73,32c0,0,30,17,50,31c0,0,19,15,30,15c0,0,5,0,9,-3c0,0,4,-2,6,-8c0,0,2,-7,3,-18c0,0,2,-11,2,-28c0,0,0,-12,-1,-21c0,0,-1,-9,-3,-16c0,0,-2,-6,-5,-12c0,0,-3,-5,-10,-12c0,0,-8,-8,-31,-23c0,0,-24,-15,-60,-30C663,23,628,8,582,-1c0,0,-46,-10,-100,-10Z"
id="f1_j"
transform="scale(0.001,-0.001)"/>

</defs>
<g fill="#000000"  clip-path="url(#c0_3)">
<use xlink:href="#f1_7l" transform="matrix(12,0,0,12,137.6,130.2)"/>
<use xlink:href="#f1_am" transform="matrix(12,0,0,12,145.3,130.2)"/>
<use xlink:href="#f1_ch" transform="matrix(12,0,0,12,154.8,130.2)"/>
<use xlink:href="#f1_9q" transform="matrix(12,0,0,12,163.2,130.2)"/>
<use xlink:href="#f1_7v" transform="matrix(12,0,0,12,167.3,130.2)"/>
<use xlink:href="#f1_oj" transform="matrix(12,0,0,12,176.8,130.2)"/>
<use xlink:href="#f1_ry" transform="matrix(12,0,0,12,182.3,130.2)"/>
<use xlink:href="#f1_s6" transform="matrix(12,0,0,12,191.5,130.2)"/>
<use xlink:href="#f1_ch" transform="matrix(12,0,0,12,204.7,130.2)"/>
<use xlink:href="#f1_9q" transform="matrix(12,0,0,12,213.5,130.2)"/>
<use xlink:href="#f1_b1" transform="matrix(12,0,0,12,217.5,130.2)"/>
<use xlink:href="#f1_c6" transform="matrix(12,0,0,12,223.7,130.2)"/>
<use xlink:href="#f1_b5" transform="matrix(12,0,0,12,233.3,130.2)"/>
<use xlink:href="#f1_7l" transform="matrix(12,0,0,12,244.6,130.2)"/>
<use xlink:href="#f1_a8" transform="matrix(12,0,0,12,252.7,130.2)"/>
<use xlink:href="#f1_77" transform="matrix(12,0,0,12,256.7,130.2)"/>
<use xlink:href="#f1_b5" transform="matrix(12,0,0,12,265.5,130.2)"/>
<use xlink:href="#f1_b5" transform="matrix(12,0,0,12,272.8,130.2)"/>
<use xlink:href="#f1_9q" transform="matrix(12,0,0,12,280.1,130.2)"/>
<use xlink:href="#f1_89" transform="matrix(12,0,0,12,284.2,130.2)"/>
<use xlink:href="#f1_9q" transform="matrix(12,0,0,12,289.7,130.2)"/>
<use xlink:href="#f1_7l" transform="matrix(12,0,0,12,293.7,130.2)"/>
<use xlink:href="#f1_77" transform="matrix(12,0,0,12,301.4,130.2)"/>
<use xlink:href="#f1_bf" transform="matrix(12,0,0,12,309.8,130.2)"/>
<use xlink:href="#f1_9q" transform="matrix(12,0,0,12,316,130.2)"/>
<use xlink:href="#f1_am" transform="matrix(12,0,0,12,320.4,130.2)"/>
<use xlink:href="#f1_af" transform="matrix(12,0,0,12,329.9,130.2)"/>
<use xlink:href="#f1_b5" transform="matrix(12,0,0,12,343.5,130.2)"/>
<use xlink:href="#f1_co" transform="matrix(12,0,0,12,350.5,130.2)"/>
<use xlink:href="#f1_b5" transform="matrix(12,0,0,12,358.5,130.2)"/>
<use xlink:href="#f1_bf" transform="matrix(12,0,0,12,365.5,130.2)"/>
<use xlink:href="#f1_7z" transform="matrix(12,0,0,12,371.4,130.2)"/>
<use xlink:href="#f1_ae" transform="matrix(12,0,0,12,380.5,130.2)"/>
<use xlink:href="#f1_nt" transform="matrix(12,0,0,12,395.2,130.2)"/>
<use xlink:href="#f1_19" transform="matrix(12,0,0,12,404.3,130.2)"/>
<use xlink:href="#f1_c6" transform="matrix(12,0,0,12,415.6,130.2)"/>
<use xlink:href="#f1_ae" transform="matrix(12,0,0,12,425.2,130.2)"/>
<use xlink:href="#f1_77" transform="matrix(12,0,0,12,439.8,130.2)"/>
<use xlink:href="#f1_af" transform="matrix(12,0,0,12,449,130.2)"/>
<use xlink:href="#f1_nw" transform="matrix(12,0,0,12,458.5,130.2)"/>
<use xlink:href="#f1_b5" transform="matrix(12,0,0,12,461.8,130.2)"/>
<use xlink:href="#f1_7l" transform="matrix(12,0,0,12,473.1,130.2)"/>
<use xlink:href="#f1_77" transform="matrix(12,0,0,12,480.8,130.2)"/>
<use xlink:href="#f1_ay" transform="matrix(12,0,0,12,489.6,130.2)"/>
<use xlink:href="#f1_77" transform="matrix(12,0,0,12,499.2,130.2)"/>
<use xlink:href="#f1_7k" transform="matrix(12,0,0,12,508.3,130.2)"/>
<use xlink:href="#f1_9q" transform="matrix(12,0,0,12,517.9,130.2)"/>
<use xlink:href="#f1_a8" transform="matrix(12,0,0,12,521.9,130.2)"/>
<use xlink:href="#f1_9q" transform="matrix(12,0,0,12,526.3,130.2)"/>
<use xlink:href="#f1_bf" transform="matrix(12,0,0,12,530.3,130.2)"/>
<use xlink:href="#f1_9q" transform="matrix(12,0,0,12,536.5,130.2)"/>
<use xlink:href="#f1_7z" transform="matrix(12,0,0,12,540.6,130.2)"/>
<use xlink:href="#f1_b5" transform="matrix(12,0,0,12,549.7,130.2)"/>
<use xlink:href="#f1_9q" transform="matrix(12,0,0,12,561.1,130.2)"/>
<use xlink:href="#f1_af" transform="matrix(12,0,0,12,565.1,130.2)"/>
<use xlink:href="#f1_c6" transform="matrix(12,0,0,12,579,130.2)"/>
<use xlink:href="#f1_af" transform="matrix(12,0,0,12,588.6,130.2)"/>
<use xlink:href="#f1_7v" transform="matrix(12,0,0,12,598.1,130.2)"/>
<use xlink:href="#f1_7z" transform="matrix(12,0,0,12,607.6,130.2)"/>
<use xlink:href="#f1_b1" transform="matrix(12,0,0,12,616.8,130.2)"/>
<use xlink:href="#f1_b5" transform="matrix(12,0,0,12,623,130.2)"/>
<use xlink:href="#f1_bf" transform="matrix(12,0,0,12,630,130.2)"/>
<use xlink:href="#f1_77" transform="matrix(12,0,0,12,635.9,130.2)"/>
<use xlink:href="#f1_af" transform="matrix(12,0,0,12,644.6,130.2)"/>
<use xlink:href="#f1_7v" transform="matrix(12,0,0,12,654.5,130.2)"/>
<use xlink:href="#f1_bf" transform="matrix(12,0,0,12,668.1,130.2)"/>
<use xlink:href="#f1_9n" transform="matrix(12,0,0,12,674.3,130.2)"/>
<use xlink:href="#f1_7z" transform="matrix(12,0,0,12,683.9,130.2)"/>
<use xlink:href="#f1_c6" transform="matrix(12,0,0,12,697.1,130.2)"/>
<use xlink:href="#f1_af" transform="matrix(12,0,0,12,706.9,130.2)"/>
<use xlink:href="#f1_9q" transform="matrix(12,0,0,12,716.5,130.2)"/>
<use xlink:href="#f1_ch" transform="matrix(12,0,0,12,720.5,130.2)"/>
<use xlink:href="#f1_7z" transform="matrix(12,0,0,12,728.6,130.2)"/>
<use xlink:href="#f1_b1" transform="matrix(12,0,0,12,737.7,130.2)"/>
<use xlink:href="#f1_b5" transform="matrix(12,0,0,12,744,130.2)"/>
<use xlink:href="#f1_7z" transform="matrix(12,0,0,12,751.3,130.2)"/>
<use xlink:href="#f1_b5" transform="matrix(12,0,0,12,760.4,130.2)"/>
<use xlink:href="#f1_9q" transform="matrix(12,0,0,12,137.6,157.7)"/>
<use xlink:href="#f1_b5" transform="matrix(12,0,0,12,141.6,157.7)"/>
<use xlink:href="#f1_7z" transform="matrix(12,0,0,12,153,157.7)"/>
<use xlink:href="#f1_cn" transform="matrix(12,0,0,12,161.8,157.7)"/>
<use xlink:href="#f1_bf" transform="matrix(12,0,0,12,169.8,157.7)"/>
<use xlink:href="#f1_7z" transform="matrix(12,0,0,12,175.7,157.7)"/>
<use xlink:href="#f1_af" transform="matrix(12,0,0,12,184.8,157.7)"/>
<use xlink:href="#f1_7v" transform="matrix(12,0,0,12,194.4,157.7)"/>
<use xlink:href="#f1_9q" transform="matrix(12,0,0,12,203.9,157.7)"/>
<use xlink:href="#f1_af" transform="matrix(12,0,0,12,208.3,157.7)"/>
<use xlink:href="#f1_9d" transform="matrix(12,0,0,12,217.8,157.7)"/>
<use xlink:href="#f1_bf" transform="matrix(12,0,0,12,230.6,157.7)"/>
<use xlink:href="#f1_am" transform="matrix(12,0,0,12,236.5,157.7)"/>
<use xlink:href="#f1_77" transform="matrix(12,0,0,12,250.1,157.7)"/>
<use xlink:href="#f1_af" transform="matrix(12,0,0,12,259.2,157.7)"/>
<use xlink:href="#f1_am" transform="matrix(12,0,0,12,268.7,157.7)"/>
<use xlink:href="#f1_bf" transform="matrix(12,0,0,12,278.3,157.7)"/>
<use xlink:href="#f1_9n" transform="matrix(12,0,0,12,284.5,157.7)"/>
<use xlink:href="#f1_7z" transform="matrix(12,0,0,12,294,157.7)"/>
<use xlink:href="#f1_b1" transform="matrix(12,0,0,12,303.2,157.7)"/>
<use xlink:href="#f1_a8" transform="matrix(12,0,0,12,313.8,157.7)"/>
<use xlink:href="#f1_9q" transform="matrix(12,0,0,12,317.8,157.7)"/>
<use xlink:href="#f1_ae" transform="matrix(12,0,0,12,321.9,157.7)"/>
<use xlink:href="#f1_9q" transform="matrix(12,0,0,12,336.9,157.7)"/>
<use xlink:href="#f1_bf" transform="matrix(12,0,0,12,340.9,157.7)"/>
<use xlink:href="#f1_af" transform="matrix(12,0,0,12,351.2,157.7)"/>
<use xlink:href="#f1_7z" transform="matrix(12,0,0,12,360.7,157.7)"/>
<use xlink:href="#f1_ch" transform="matrix(12,0,0,12,369.8,157.7)"/>
<use xlink:href="#f1_7z" transform="matrix(12,0,0,12,377.9,157.7)"/>
<use xlink:href="#f1_b1" transform="matrix(12,0,0,12,387.1,157.7)"/>
<use xlink:href="#f1_9n" transform="matrix(12,0,0,12,397.7,157.7)"/>
<use xlink:href="#f1_77" transform="matrix(12,0,0,12,407.3,157.7)"/>
<use xlink:href="#f1_ay" transform="matrix(12,0,0,12,416,157.7)"/>
<use xlink:href="#f1_ay" transform="matrix(12,0,0,12,425.6,157.7)"/>
<use xlink:href="#f1_7z" transform="matrix(12,0,0,12,435.1,157.7)"/>
<use xlink:href="#f1_af" transform="matrix(12,0,0,12,444.3,157.7)"/>
<use xlink:href="#f1_7z" transform="matrix(12,0,0,12,453.8,157.7)"/>
<use xlink:href="#f1_7v" transform="matrix(12,0,0,12,463.3,157.7)"/>
<use xlink:href="#f1_9q" transform="matrix(12,0,0,12,476.9,157.7)"/>
<use xlink:href="#f1_af" transform="matrix(12,0,0,12,481.3,157.7)"/>
<use xlink:href="#f1_am" transform="matrix(12,0,0,12,494.9,157.7)"/>
<use xlink:href="#f1_c6" transform="matrix(12,0,0,12,504.7,157.7)"/>
<use xlink:href="#f1_b1" transform="matrix(12,0,0,12,514.3,157.7)"/>
<use xlink:href="#f1_9n" transform="matrix(12,0,0,12,524.5,157.7)"/>
<use xlink:href="#f1_9q" transform="matrix(12,0,0,12,534.4,157.7)"/>
<use xlink:href="#f1_b5" transform="matrix(12,0,0,12,538.5,157.7)"/>
<use xlink:href="#f1_bf" transform="matrix(12,0,0,12,545.4,157.7)"/>
<use xlink:href="#f1_am" transform="matrix(12,0,0,12,551.3,157.7)"/>
<use xlink:href="#f1_b1" transform="matrix(12,0,0,12,560.8,157.7)"/>
<use xlink:href="#f1_co" transform="matrix(12,0,0,12,567.4,157.7)"/>
<use xlink:href="#f1_7k" transform="matrix(12,0,0,12,580.3,157.7)"/>
<use xlink:href="#f1_7z" transform="matrix(12,0,0,12,590.2,157.7)"/>
<use xlink:href="#f1_89" transform="matrix(12,0,0,12,599,157.7)"/>
<use xlink:href="#f1_am" transform="matrix(12,0,0,12,604.1,157.7)"/>
<use xlink:href="#f1_b1" transform="matrix(12,0,0,12,613.7,157.7)"/>
<use xlink:href="#f1_7z" transform="matrix(12,0,0,12,619.9,157.7)"/>
<use xlink:href="#f1_nt" transform="matrix(12,0,0,12,629,157.7)"/>
<use xlink:href="#f1_2t" transform="matrix(12,0,0,12,207.6,295.2)"/>
<use xlink:href="#f1_9n" transform="matrix(12,0,0,12,216.4,295.2)"/>
<use xlink:href="#f1_7z" transform="matrix(12,0,0,12,225.9,295.2)"/>
<use xlink:href="#f1_b5" transform="matrix(12,0,0,12,239.1,295.2)"/>
<use xlink:href="#f1_co" transform="matrix(12,0,0,12,246.1,295.2)"/>
<use xlink:href="#f1_b5" transform="matrix(12,0,0,12,254.2,295.2)"/>
<use xlink:href="#f1_bf" transform="matrix(12,0,0,12,261.1,295.2)"/>
<use xlink:href="#f1_7z" transform="matrix(12,0,0,12,267,295.2)"/>
<use xlink:href="#f1_ae" transform="matrix(12,0,0,12,276.1,295.2)"/>
<use xlink:href="#f1_7v" transform="matrix(12,0,0,12,294.9,295.2)"/>
<use xlink:href="#f1_7z" transform="matrix(12,0,0,12,304.4,295.2)"/>
<use xlink:href="#f1_b5" transform="matrix(12,0,0,12,313.5,295.2)"/>
<use xlink:href="#f1_7l" transform="matrix(12,0,0,12,320.9,295.2)"/>
<use xlink:href="#f1_b1" transform="matrix(12,0,0,12,328.6,295.2)"/>
<use xlink:href="#f1_9q" transform="matrix(12,0,0,12,335.2,295.2)"/>
<use xlink:href="#f1_7k" transform="matrix(12,0,0,12,339.2,295.2)"/>
<use xlink:href="#f1_7z" transform="matrix(12,0,0,12,348.7,295.2)"/>
<use xlink:href="#f1_7k" transform="matrix(12,0,0,12,361.9,295.2)"/>
<use xlink:href="#f1_co" transform="matrix(12,0,0,12,371.5,295.2)"/>
<use xlink:href="#f1_t" transform="matrix(12,0,0,12,383.9,295.2)"/>
<use xlink:href="#f1_b0" transform="matrix(12,0,0,12,392.7,295.2)"/>
<use xlink:href="#f1_c6" transform="matrix(12,0,0,12,402.3,295.2)"/>
<use xlink:href="#f1_ry" transform="matrix(12,0,0,12,416.2,295.2)"/>
<use xlink:href="#f1_nt" transform="matrix(12,0,0,12,425.3,295.2)"/>
<use xlink:href="#f1_rx" transform="matrix(12,0,0,12,430.1,295.2)"/>
<use xlink:href="#f1_7l" transform="matrix(12,0,0,12,443.3,295.2)"/>
<use xlink:href="#f1_77" transform="matrix(12,0,0,12,451,295.2)"/>
<use xlink:href="#f1_af" transform="matrix(12,0,0,12,459.8,295.2)"/>
<use xlink:href="#f1_7k" transform="matrix(12,0,0,12,473.7,295.2)"/>
<use xlink:href="#f1_7z" transform="matrix(12,0,0,12,483.2,295.2)"/>
<use xlink:href="#f1_7k" transform="matrix(12,0,0,12,496.4,295.2)"/>
<use xlink:href="#f1_c6" transform="matrix(12,0,0,12,506,295.2)"/>
<use xlink:href="#f1_9q" transform="matrix(12,0,0,12,515.8,295.2)"/>
<use xlink:href="#f1_a8" transform="matrix(12,0,0,12,519.9,295.2)"/>
<use xlink:href="#f1_7v" transform="matrix(12,0,0,12,524.3,295.2)"/>
<use xlink:href="#f1_7z" transform="matrix(12,0,0,12,537.8,295.2)"/>
<use xlink:href="#f1_77" transform="matrix(12,0,0,12,547,295.2)"/>
<use xlink:href="#f1_b5" transform="matrix(12,0,0,12,555.8,295.2)"/>
<use xlink:href="#f1_co" transform="matrix(12,0,0,12,562.7,295.2)"/>
<use xlink:href="#f1_7k" transform="matrix(12,0,0,12,575.2,295.2)"/>
<use xlink:href="#f1_co" transform="matrix(12,0,0,12,584.7,295.2)"/>
<use xlink:href="#f1_2t" transform="matrix(12,0,0,12,597.2,295.2)"/>
<use xlink:href="#f1_7z" transform="matrix(12,0,0,12,604.5,295.2)"/>
<use xlink:href="#f1_af" transform="matrix(12,0,0,12,613.6,295.2)"/>
<use xlink:href="#f1_b5" transform="matrix(12,0,0,12,623.2,295.2)"/>
<use xlink:href="#f1_am" transform="matrix(12,0,0,12,630.5,295.2)"/>
<use xlink:href="#f1_b1" transform="matrix(12,0,0,12,640.1,295.2)"/>
<use xlink:href="#f1_89" transform="matrix(12,0,0,12,646.3,295.2)"/>
<use xlink:href="#f1_a8" transform="matrix(12,0,0,12,651.8,295.2)"/>
<use xlink:href="#f1_am" transform="matrix(12,0,0,12,655.8,295.2)"/>
<use xlink:href="#f1_ci" transform="matrix(12,0,0,12,665.4,295.2)"/>
<use xlink:href="#f1_1p" transform="matrix(12,0,0,12,682.6,295.2)"/>
<use xlink:href="#f1_7z" transform="matrix(12,0,0,12,691.7,295.2)"/>
<use xlink:href="#f1_b1" transform="matrix(12,0,0,12,701.3,295.2)"/>
<use xlink:href="#f1_77" transform="matrix(12,0,0,12,707.1,295.2)"/>
<use xlink:href="#f1_b5" transform="matrix(12,0,0,12,715.9,295.2)"/>
<use xlink:href="#f1_77" transform="matrix(12,0,0,12,727.3,295.2)"/>
<use xlink:href="#f1_b5" transform="matrix(12,0,0,12,736,295.2)"/>
<use xlink:href="#f1_89" transform="matrix(12,0,0,12,137.6,322.8)"/>
<use xlink:href="#f1_am" transform="matrix(12,0,0,12,142.7,322.8)"/>
<use xlink:href="#f1_a8" transform="matrix(12,0,0,12,152.2,322.8)"/>
<use xlink:href="#f1_a8" transform="matrix(12,0,0,12,156.6,322.8)"/>
<use xlink:href="#f1_am" transform="matrix(12,0,0,12,160.7,322.8)"/>
<use xlink:href="#f1_ci" transform="matrix(12,0,0,12,170.2,322.8)"/>
<use xlink:href="#f1_9q" transform="matrix(12,0,0,12,183.4,322.8)"/>
<use xlink:href="#f1_af" transform="matrix(12,0,0,12,187.4,322.8)"/>
<use xlink:href="#f1_9d" transform="matrix(12,0,0,12,196.9,322.8)"/>
<use xlink:href="#f1_ns" transform="matrix(12,0,0,12,205.7,322.8)"/>
<use xlink:href="#f1_p" transform="matrix(12,0,0,12,207.6,377.8)"/>
<use xlink:href="#f1_7z" transform="matrix(12,0,0,12,219,377.8)"/>
<use xlink:href="#f1_af" transform="matrix(12,0,0,12,228.1,377.8)"/>
<use xlink:href="#f1_b5" transform="matrix(12,0,0,12,237.7,377.8)"/>
<use xlink:href="#f1_7z" transform="matrix(12,0,0,12,245,377.8)"/>
<use xlink:href="#f1_ov" transform="matrix(12,0,0,12,254.1,377.8)"/>
<use xlink:href="#f1_c6" transform="matrix(12,0,0,12,259.7,377.8)"/>
<use xlink:href="#f1_af" transform="matrix(12,0,0,12,269.2,377.8)"/>
<use xlink:href="#f1_9q" transform="matrix(12,0,0,12,278.8,377.8)"/>
<use xlink:href="#f1_bf" transform="matrix(12,0,0,12,282.8,377.8)"/>
<use xlink:href="#f1_b5" transform="matrix(12,0,0,12,289,377.8)"/>
<use xlink:href="#f1_ua" transform="matrix(12,0,0,12,296.4,377.8)"/>
<use xlink:href="#f1_ry" transform="matrix(12,0,0,12,305.6,377.8)"/>
<use xlink:href="#f1_nq" transform="matrix(12,0,0,12,314.8,377.8)"/>
<use xlink:href="#f1_af" transform="matrix(12,0,0,12,323.2,377.8)"/>
<use xlink:href="#f1_77" transform="matrix(12,0,0,12,332.7,377.8)"/>
<use xlink:href="#f1_ae" transform="matrix(12,0,0,12,341.5,377.8)"/>
<use xlink:href="#f1_7z" transform="matrix(12,0,0,12,356.1,377.8)"/>
<use xlink:href="#f1_ua" transform="matrix(12,0,0,12,365.3,377.8)"/>
<use xlink:href="#f1_pk" transform="matrix(12,0,0,12,374.5,377.8)"/>
<use xlink:href="#f1_ct" transform="matrix(12,0,0,12,381.9,377.8)"/>
<use xlink:href="#f1_pk" transform="matrix(12,0,0,12,389.2,377.8)"/>
<use xlink:href="#f1_ow" transform="matrix(12,0,0,12,396.6,377.8)"/>
<use xlink:href="#f1_14" transform="matrix(12,0,0,12,137.6,432.8)"/>
<use xlink:href="#f1_am" transform="matrix(12,0,0,12,149.3,432.8)"/>
<use xlink:href="#f1_am" transform="matrix(12,0,0,12,158.8,432.8)"/>
<use xlink:href="#f1_9d" transform="matrix(12,0,0,12,168.4,432.8)"/>
<use xlink:href="#f1_a8" transform="matrix(12,0,0,12,177.1,432.8)"/>
<use xlink:href="#f1_7z" transform="matrix(12,0,0,12,181.2,432.8)"/>
<use xlink:href="#f1_2t" transform="matrix(12,0,0,12,194.4,432.8)"/>
<use xlink:href="#f1_7z" transform="matrix(12,0,0,12,201.7,432.8)"/>
<use xlink:href="#f1_af" transform="matrix(12,0,0,12,210.8,432.8)"/>
<use xlink:href="#f1_b5" transform="matrix(12,0,0,12,220.4,432.8)"/>
<use xlink:href="#f1_am" transform="matrix(12,0,0,12,227.7,432.8)"/>
<use xlink:href="#f1_b1" transform="matrix(12,0,0,12,237.3,432.8)"/>
<use xlink:href="#f1_89" transform="matrix(12,0,0,12,243.5,432.8)"/>
<use xlink:href="#f1_a8" transform="matrix(12,0,0,12,249.3,432.8)"/>
<use xlink:href="#f1_am" transform="matrix(12,0,0,12,253.4,432.8)"/>
<use xlink:href="#f1_ci" transform="matrix(12,0,0,12,262.9,432.8)"/>
<use xlink:href="#f1_7l" transform="matrix(12,0,0,12,280.1,432.8)"/>
<use xlink:href="#f1_77" transform="matrix(12,0,0,12,287.8,432.8)"/>
<use xlink:href="#f1_a8" transform="matrix(12,0,0,12,296.6,432.8)"/>
<use xlink:href="#f1_a8" transform="matrix(12,0,0,12,300.6,432.8)"/>
<use xlink:href="#f1_7z" transform="matrix(12,0,0,12,304.7,432.8)"/>
<use xlink:href="#f1_7v" transform="matrix(12,0,0,12,314.2,432.8)"/>
<use xlink:href="#f1_9q" transform="matrix(12,0,0,12,327.8,432.8)"/>
<use xlink:href="#f1_bf" transform="matrix(12,0,0,12,331.8,432.8)"/>
<use xlink:href="#f1_p" transform="matrix(12,0,0,12,342,432.8)"/>
<use xlink:href="#f1_7z" transform="matrix(12,0,0,12,353.4,432.8)"/>
<use xlink:href="#f1_af" transform="matrix(12,0,0,12,362.5,432.8)"/>
<use xlink:href="#f1_b5" transform="matrix(12,0,0,12,372.1,432.8)"/>
<use xlink:href="#f1_7z" transform="matrix(12,0,0,12,379.4,432.8)"/>
<use xlink:href="#f1_a8" transform="matrix(12,0,0,12,392.6,432.8)"/>
<use xlink:href="#f1_77" transform="matrix(12,0,0,12,396.6,432.8)"/>
<use xlink:href="#f1_co" transform="matrix(12,0,0,12,405.1,432.8)"/>
<use xlink:href="#f1_7z" transform="matrix(12,0,0,12,413.1,432.8)"/>
<use xlink:href="#f1_b1" transform="matrix(12,0,0,12,422.7,432.8)"/>
<use xlink:href="#f1_77" transform="matrix(12,0,0,12,433.2,432.8)"/>
<use xlink:href="#f1_af" transform="matrix(12,0,0,12,442,432.8)"/>
<use xlink:href="#f1_7v" transform="matrix(12,0,0,12,451.9,432.8)"/>
<use xlink:href="#f1_9q" transform="matrix(12,0,0,12,465.5,432.8)"/>
<use xlink:href="#f1_bf" transform="matrix(12,0,0,12,469.5,432.8)"/>
<use xlink:href="#f1_9q" transform="matrix(12,0,0,12,480.1,432.8)"/>
<use xlink:href="#f1_b5" transform="matrix(12,0,0,12,484.1,432.8)"/>
<use xlink:href="#f1_am" transform="matrix(12,0,0,12,495.5,432.8)"/>
<use xlink:href="#f1_af" transform="matrix(12,0,0,12,505.4,432.8)"/>
<use xlink:href="#f1_7z" transform="matrix(12,0,0,12,514.9,432.8)"/>
<use xlink:href="#f1_c6" transform="matrix(12,0,0,12,528.1,432.8)"/>
<use xlink:href="#f1_af" transform="matrix(12,0,0,12,537.6,432.8)"/>
<use xlink:href="#f1_9q" transform="matrix(12,0,0,12,547.2,432.8)"/>
<use xlink:href="#f1_bf" transform="matrix(12,0,0,12,551.2,432.8)"/>
<use xlink:href="#f1_9q" transform="matrix(12,0,0,12,561.8,432.8)"/>
<use xlink:href="#f1_af" transform="matrix(12,0,0,12,565.8,432.8)"/>
<use xlink:href="#f1_77" transform="matrix(12,0,0,12,579.7,432.8)"/>
<use xlink:href="#f1_a8" transform="matrix(12,0,0,12,592.6,432.8)"/>
<use xlink:href="#f1_77" transform="matrix(12,0,0,12,596.6,432.8)"/>
<use xlink:href="#f1_co" transform="matrix(12,0,0,12,605,432.8)"/>
<use xlink:href="#f1_7z" transform="matrix(12,0,0,12,613.1,432.8)"/>
<use xlink:href="#f1_b1" transform="matrix(12,0,0,12,622.6,432.8)"/>
<use xlink:href="#f1_nt" transform="matrix(12,0,0,12,627.3,432.8)"/>
<use xlink:href="#f1_2g" transform="matrix(12,0,0,12,636,432.8)"/>
<use xlink:href="#f1_9q" transform="matrix(12,0,0,12,645.5,432.8)"/>
<use xlink:href="#f1_7l" transform="matrix(12,0,0,12,649.7,432.8)"/>
<use xlink:href="#f1_bf" transform="matrix(12,0,0,12,657.4,432.8)"/>
<use xlink:href="#f1_am" transform="matrix(12,0,0,12,663.6,432.8)"/>
<use xlink:href="#f1_b1" transform="matrix(12,0,0,12,673.1,432.8)"/>
<use xlink:href="#f1_9q" transform="matrix(12,0,0,12,679.3,432.8)"/>
<use xlink:href="#f1_77" transform="matrix(12,0,0,12,683.4,432.8)"/>
<use xlink:href="#f1_a8" transform="matrix(12,0,0,12,692.5,432.8)"/>
<use xlink:href="#f1_nq" transform="matrix(12,0,0,12,696.6,432.8)"/>
<use xlink:href="#f1_9q" transform="matrix(12,0,0,12,705.3,432.8)"/>
<use xlink:href="#f1_bf" transform="matrix(12,0,0,12,709.4,432.8)"/>
<use xlink:href="#f1_7l" transform="matrix(12,0,0,12,719.6,432.8)"/>
<use xlink:href="#f1_77" transform="matrix(12,0,0,12,727.3,432.8)"/>
<use xlink:href="#f1_af" transform="matrix(12,0,0,12,736.1,432.8)"/>
<use xlink:href="#f1_7k" transform="matrix(12,0,0,12,750,432.8)"/>
<use xlink:href="#f1_7z" transform="matrix(12,0,0,12,759.6,432.8)"/>
<use xlink:href="#f1_b1" transform="matrix(12,0,0,12,137.6,460.3)"/>
<use xlink:href="#f1_7z" transform="matrix(12,0,0,12,143.8,460.3)"/>
<use xlink:href="#f1_ay" transform="matrix(12,0,0,12,152.9,460.3)"/>
<use xlink:href="#f1_b1" transform="matrix(12,0,0,12,162.5,460.3)"/>
<use xlink:href="#f1_7z" transform="matrix(12,0,0,12,168.7,460.3)"/>
<use xlink:href="#f1_b5" transform="matrix(12,0,0,12,177.9,460.3)"/>
<use xlink:href="#f1_7z" transform="matrix(12,0,0,12,185.2,460.3)"/>
<use xlink:href="#f1_af" transform="matrix(12,0,0,12,194.4,460.3)"/>
<use xlink:href="#f1_bf" transform="matrix(12,0,0,12,203.9,460.3)"/>
<use xlink:href="#f1_7z" transform="matrix(12,0,0,12,209.8,460.3)"/>
<use xlink:href="#f1_7v" transform="matrix(12,0,0,12,218.9,460.3)"/>
<use xlink:href="#f1_7k" transform="matrix(12,0,0,12,232.5,460.3)"/>
<use xlink:href="#f1_co" transform="matrix(12,0,0,12,242.1,460.3)"/>
<use xlink:href="#f1_77" transform="matrix(12,0,0,12,254.5,460.3)"/>
<use xlink:href="#f1_7l" transform="matrix(12,0,0,12,267.3,460.3)"/>
<use xlink:href="#f1_9q" transform="matrix(12,0,0,12,275,460.3)"/>
<use xlink:href="#f1_b1" transform="matrix(12,0,0,12,279.1,460.3)"/>
<use xlink:href="#f1_7l" transform="matrix(12,0,0,12,285.3,460.3)"/>
<use xlink:href="#f1_a8" transform="matrix(12,0,0,12,293,460.3)"/>
<use xlink:href="#f1_7z" transform="matrix(12,0,0,12,297,460.3)"/>
<use xlink:href="#f1_ci" transform="matrix(12,0,0,12,310.2,460.3)"/>
<use xlink:href="#f1_9q" transform="matrix(12,0,0,12,323.4,460.3)"/>
<use xlink:href="#f1_bf" transform="matrix(12,0,0,12,327.5,460.3)"/>
<use xlink:href="#f1_9n" transform="matrix(12,0,0,12,333.7,460.3)"/>
<use xlink:href="#f1_ci" transform="matrix(12,0,0,12,347.8,460.3)"/>
<use xlink:href="#f1_7z" transform="matrix(12,0,0,12,360.6,460.3)"/>
<use xlink:href="#f1_9q" transform="matrix(12,0,0,12,369.7,460.3)"/>
<use xlink:href="#f1_9d" transform="matrix(12,0,0,12,373.8,460.3)"/>
<use xlink:href="#f1_9n" transform="matrix(12,0,0,12,382.6,460.3)"/>
<use xlink:href="#f1_bf" transform="matrix(12,0,0,12,392.1,460.3)"/>
<use xlink:href="#f1_b5" transform="matrix(12,0,0,12,398.3,460.3)"/>
<use xlink:href="#f1_77" transform="matrix(12,0,0,12,409.8,460.3)"/>
<use xlink:href="#f1_b1" transform="matrix(12,0,0,12,418.5,460.3)"/>
<use xlink:href="#f1_am" transform="matrix(12,0,0,12,424.8,460.3)"/>
<use xlink:href="#f1_c6" transform="matrix(12,0,0,12,434.3,460.3)"/>
<use xlink:href="#f1_af" transform="matrix(12,0,0,12,443.9,460.3)"/>
<use xlink:href="#f1_7v" transform="matrix(12,0,0,12,453.4,460.3)"/>
<use xlink:href="#f1_9q" transform="matrix(12,0,0,12,467,460.3)"/>
<use xlink:href="#f1_bf" transform="matrix(12,0,0,12,471,460.3)"/>
<use xlink:href="#f1_nt" transform="matrix(12,0,0,12,477.2,460.3)"/>
<use xlink:href="#f1_13" transform="matrix(12,0,0,12,418.2,790.4)"/>
<use xlink:href="#f1_9q" transform="matrix(12,0,0,12,426.6,790.4)"/>
<use xlink:href="#f1_9d" transform="matrix(12,0,0,12,430.7,790.4)"/>
<use xlink:href="#f1_c6" transform="matrix(12,0,0,12,439.4,790.4)"/>
<use xlink:href="#f1_b1" transform="matrix(12,0,0,12,449,790.4)"/>
<use xlink:href="#f1_7z" transform="matrix(12,0,0,12,455.2,790.4)"/>
<use xlink:href="#f1_ry" transform="matrix(12,0,0,12,468.4,790.4)"/>
<use xlink:href="#f1_nt" transform="matrix(12,0,0,12,477.6,790.4)"/>
<use xlink:href="#f1_ry" transform="matrix(12,0,0,12,482.3,790.4)"/>
<use xlink:href="#f1_1c" transform="matrix(12,0,0,12,137.6,845.4)"/>
<use xlink:href="#f1_89" transform="matrix(12,0,0,12,142.3,845.4)"/>
<use xlink:href="#f1_ci" transform="matrix(12,0,0,12,151.9,845.4)"/>
<use xlink:href="#f1_7z" transform="matrix(12,0,0,12,164.7,845.4)"/>
<use xlink:href="#f1_9n" transform="matrix(12,0,0,12,177.9,845.4)"/>
<use xlink:href="#f1_77" transform="matrix(12,0,0,12,187.4,845.4)"/>
<use xlink:href="#f1_ch" transform="matrix(12,0,0,12,195.9,845.4)"/>
<use xlink:href="#f1_7z" transform="matrix(12,0,0,12,203.9,845.4)"/>
<use xlink:href="#f1_ry" transform="matrix(12,0,0,12,217.5,845.4)"/>
<use xlink:href="#f1_rx" transform="matrix(12,0,0,12,226.7,845.4)"/>
<use xlink:href="#f1_c6" transform="matrix(12,0,0,12,240.2,845.4)"/>
<use xlink:href="#f1_af" transform="matrix(12,0,0,12,249.7,845.4)"/>
<use xlink:href="#f1_9q" transform="matrix(12,0,0,12,259.3,845.4)"/>
<use xlink:href="#f1_bf" transform="matrix(12,0,0,12,263.3,845.4)"/>
<use xlink:href="#f1_b5" transform="matrix(12,0,0,12,269.5,845.4)"/>
<use xlink:href="#f1_9q" transform="matrix(12,0,0,12,281,845.4)"/>
<use xlink:href="#f1_af" transform="matrix(12,0,0,12,285.4,845.4)"/>
<use xlink:href="#f1_ay" transform="matrix(12,0,0,12,298.9,845.4)"/>
<use xlink:href="#f1_77" transform="matrix(12,0,0,12,308.5,845.4)"/>
<use xlink:href="#f1_b1" transform="matrix(12,0,0,12,317.6,845.4)"/>
<use xlink:href="#f1_77" transform="matrix(12,0,0,12,323.5,845.4)"/>
<use xlink:href="#f1_a8" transform="matrix(12,0,0,12,332.3,845.4)"/>
<use xlink:href="#f1_a8" transform="matrix(12,0,0,12,336.3,845.4)"/>
<use xlink:href="#f1_7z" transform="matrix(12,0,0,12,340.3,845.4)"/>
<use xlink:href="#f1_a8" transform="matrix(12,0,0,12,349.9,845.4)"/>
<use xlink:href="#f1_nq" transform="matrix(12,0,0,12,354,845.4)"/>
<use xlink:href="#f1_9q" transform="matrix(12,0,0,12,362.8,845.4)"/>
<use xlink:href="#f1_bf" transform="matrix(12,0,0,12,366.8,845.4)"/>
<use xlink:href="#f1_7l" transform="matrix(12,0,0,12,377,845.4)"/>
<use xlink:href="#f1_77" transform="matrix(12,0,0,12,384.7,845.4)"/>
<use xlink:href="#f1_af" transform="matrix(12,0,0,12,393.5,845.4)"/>
<use xlink:href="#f1_7k" transform="matrix(12,0,0,12,407.5,845.4)"/>
<use xlink:href="#f1_7z" transform="matrix(12,0,0,12,417,845.4)"/>
<use xlink:href="#f1_7v" transform="matrix(12,0,0,12,430.2,845.4)"/>
<use xlink:href="#f1_7z" transform="matrix(12,0,0,12,439.7,845.4)"/>
<use xlink:href="#f1_b5" transform="matrix(12,0,0,12,448.9,845.4)"/>
<use xlink:href="#f1_7l" transform="matrix(12,0,0,12,456.2,845.4)"/>
<use xlink:href="#f1_b1" transform="matrix(12,0,0,12,463.9,845.4)"/>
<use xlink:href="#f1_9q" transform="matrix(12,0,0,12,470.1,845.4)"/>
<use xlink:href="#f1_7k" transform="matrix(12,0,0,12,474.5,845.4)"/>
<use xlink:href="#f1_7z" transform="matrix(12,0,0,12,484.1,845.4)"/>
<use xlink:href="#f1_7v" transform="matrix(12,0,0,12,493.4,845.4)"/>
<use xlink:href="#f1_77" transform="matrix(12,0,0,12,507.3,845.4)"/>
<use xlink:href="#f1_b5" transform="matrix(12,0,0,12,516.1,845.4)"/>
<use xlink:href="#f1_89" transform="matrix(12,0,0,12,527.5,845.4)"/>
<use xlink:href="#f1_am" transform="matrix(12,0,0,12,532.6,845.4)"/>
<use xlink:href="#f1_a8" transform="matrix(12,0,0,12,542.1,845.4)"/>
<use xlink:href="#f1_a8" transform="matrix(12,0,0,12,546.2,845.4)"/>
<use xlink:href="#f1_am" transform="matrix(12,0,0,12,550.2,845.4)"/>
<use xlink:href="#f1_ci" transform="matrix(12,0,0,12,559.7,845.4)"/>
<use xlink:href="#f1_9q" transform="matrix(12,0,0,12,573.3,845.4)"/>
<use xlink:href="#f1_af" transform="matrix(12,0,0,12,577.3,845.4)"/>
<use xlink:href="#f1_9d" transform="matrix(12,0,0,12,586.8,845.4)"/>
<use xlink:href="#f1_ns" transform="matrix(12,0,0,12,595.6,845.4)"/>
<use xlink:href="#f1_p" transform="matrix(12,0,0,12,207.6,900.4)"/>
<use xlink:href="#f1_7z" transform="matrix(12,0,0,12,219,900.4)"/>
<use xlink:href="#f1_af" transform="matrix(12,0,0,12,228.1,900.4)"/>
<use xlink:href="#f1_b5" transform="matrix(12,0,0,12,237.7,900.4)"/>
<use xlink:href="#f1_7z" transform="matrix(12,0,0,12,245,900.4)"/>
<use xlink:href="#f1_ov" transform="matrix(12,0,0,12,254.1,900.4)"/>
<use xlink:href="#f1_ry" transform="matrix(12,0,0,12,259.7,900.4)"/>
<use xlink:href="#f1_rx" transform="matrix(12,0,0,12,268.9,900.4)"/>
<use xlink:href="#f1_nq" transform="matrix(12,0,0,12,278,900.4)"/>
<use xlink:href="#f1_af" transform="matrix(12,0,0,12,286.5,900.4)"/>
<use xlink:href="#f1_77" transform="matrix(12,0,0,12,296,900.4)"/>
<use xlink:href="#f1_ae" transform="matrix(12,0,0,12,304.8,900.4)"/>
<use xlink:href="#f1_7z" transform="matrix(12,0,0,12,319.4,900.4)"/>
<use xlink:href="#f1_ua" transform="matrix(12,0,0,12,328.6,900.4)"/>
<use xlink:href="#f1_pk" transform="matrix(12,0,0,12,337.8,900.4)"/>
<use xlink:href="#f1_1r" transform="matrix(12,0,0,12,345.2,900.4)"/>
<use xlink:href="#f1_77" transform="matrix(12,0,0,12,352.9,900.4)"/>
<use xlink:href="#f1_co" transform="matrix(12,0,0,12,361.3,900.4)"/>
<use xlink:href="#f1_7z" transform="matrix(12,0,0,12,369.4,900.4)"/>
<use xlink:href="#f1_b1" transform="matrix(12,0,0,12,378.5,900.4)"/>
<use xlink:href="#f1_ci" transform="matrix(12,0,0,12,389.2,900.4)"/>
<use xlink:href="#f1_9q" transform="matrix(12,0,0,12,402.3,900.4)"/>
<use xlink:href="#f1_bf" transform="matrix(12,0,0,12,406.4,900.4)"/>
<use xlink:href="#f1_9n" transform="matrix(12,0,0,12,412.6,900.4)"/>
<use xlink:href="#f1_ry" transform="matrix(12,0,0,12,426.2,900.4)"/>
<use xlink:href="#f1_rx" transform="matrix(12,0,0,12,435.7,900.4)"/>
<use xlink:href="#f1_c6" transform="matrix(12,0,0,12,448.9,900.4)"/>
<use xlink:href="#f1_af" transform="matrix(12,0,0,12,458.8,900.4)"/>
<use xlink:href="#f1_9q" transform="matrix(12,0,0,12,468.3,900.4)"/>
<use xlink:href="#f1_bf" transform="matrix(12,0,0,12,472.3,900.4)"/>
<use xlink:href="#f1_b5" transform="matrix(12,0,0,12,478.5,900.4)"/>
<use xlink:href="#f1_o0" transform="matrix(12,0,0,12,486,900.4)"/>
<use xlink:href="#f1_ow" transform="matrix(12,0,0,12,493.7,900.4)"/>
<use xlink:href="#f1_i" transform="matrix(12,0,0,12,137.6,955.5)"/>
<use xlink:href="#f1_co" transform="matrix(12,0,0,12,147.5,955.5)"/>
<use xlink:href="#f1_ae" transform="matrix(12,0,0,12,159.9,955.5)"/>
<use xlink:href="#f1_77" transform="matrix(12,0,0,12,174.6,955.5)"/>
<use xlink:href="#f1_a5" transform="matrix(12,0,0,12,183.4,955.5)"/>
<use xlink:href="#f1_9q" transform="matrix(12,0,0,12,191.8,955.5)"/>
<use xlink:href="#f1_af" transform="matrix(12,0,0,12,195.8,955.5)"/>
<use xlink:href="#f1_9d" transform="matrix(12,0,0,12,205.4,955.5)"/>
<use xlink:href="#f1_c6" transform="matrix(12,0,0,12,218.2,955.5)"/>
<use xlink:href="#f1_b5" transform="matrix(12,0,0,12,227.7,955.5)"/>
<use xlink:href="#f1_7z" transform="matrix(12,0,0,12,235,955.5)"/>
<use xlink:href="#f1_am" transform="matrix(12,0,0,12,248.2,955.5)"/>
<use xlink:href="#f1_89" transform="matrix(12,0,0,12,257.8,955.5)"/>
<use xlink:href="#f1_bf" transform="matrix(12,0,0,12,267.3,955.5)"/>
<use xlink:href="#f1_9n" transform="matrix(12,0,0,12,273.5,955.5)"/>
<use xlink:href="#f1_9q" transform="matrix(12,0,0,12,283,955.5)"/>
<use xlink:href="#f1_b5" transform="matrix(12,0,0,12,287.1,955.5)"/>
<use xlink:href="#f1_p" transform="matrix(12,0,0,12,298.4,955.5)"/>
<use xlink:href="#f1_7z" transform="matrix(12,0,0,12,309.8,955.5)"/>
<use xlink:href="#f1_af" transform="matrix(12,0,0,12,318.9,955.5)"/>
<use xlink:href="#f1_b5" transform="matrix(12,0,0,12,328.5,955.5)"/>
<use xlink:href="#f1_7z" transform="matrix(12,0,0,12,335.8,955.5)"/>
<use xlink:href="#f1_a8" transform="matrix(12,0,0,12,349.2,955.5)"/>
<use xlink:href="#f1_77" transform="matrix(12,0,0,12,353.3,955.5)"/>
<use xlink:href="#f1_co" transform="matrix(12,0,0,12,361.7,955.5)"/>
<use xlink:href="#f1_7z" transform="matrix(12,0,0,12,369.8,955.5)"/>
<use xlink:href="#f1_b1" transform="matrix(12,0,0,12,378.9,955.5)"/>
<use xlink:href="#f1_nq" transform="matrix(12,0,0,12,384.1,955.5)"/>
<use xlink:href="#f1_ch" transform="matrix(12,0,0,12,392.5,955.5)"/>
<use xlink:href="#f1_7z" transform="matrix(12,0,0,12,400.6,955.5)"/>
<use xlink:href="#f1_b1" transform="matrix(12,0,0,12,409.7,955.5)"/>
<use xlink:href="#f1_co" transform="matrix(12,0,0,12,416.3,955.5)"/>
<use xlink:href="#f1_7l" transform="matrix(12,0,0,12,428.7,955.5)"/>
<use xlink:href="#f1_am" transform="matrix(12,0,0,12,436.4,955.5)"/>
<use xlink:href="#f1_ae" transform="matrix(12,0,0,12,446,955.5)"/>
<use xlink:href="#f1_ay" transform="matrix(12,0,0,12,460.6,955.5)"/>
<use xlink:href="#f1_a8" transform="matrix(12,0,0,12,470.2,955.5)"/>
<use xlink:href="#f1_9q" transform="matrix(12,0,0,12,474.6,955.5)"/>
<use xlink:href="#f1_7l" transform="matrix(12,0,0,12,478.6,955.5)"/>
<use xlink:href="#f1_77" transform="matrix(12,0,0,12,486.3,955.5)"/>
<use xlink:href="#f1_bf" transform="matrix(12,0,0,12,494.7,955.5)"/>
<use xlink:href="#f1_7z" transform="matrix(12,0,0,12,500.6,955.5)"/>
<use xlink:href="#f1_7v" transform="matrix(12,0,0,12,514.1,955.5)"/>
<use xlink:href="#f1_7z" transform="matrix(12,0,0,12,523.7,955.5)"/>
<use xlink:href="#f1_7z" transform="matrix(12,0,0,12,532.8,955.5)"/>
<use xlink:href="#f1_ay" transform="matrix(12,0,0,12,542,955.5)"/>
<use xlink:href="#f1_a8" transform="matrix(12,0,0,12,555.6,955.5)"/>
<use xlink:href="#f1_7z" transform="matrix(12,0,0,12,559.6,955.5)"/>
<use xlink:href="#f1_77" transform="matrix(12,0,0,12,568.7,955.5)"/>
<use xlink:href="#f1_b1" transform="matrix(12,0,0,12,577.9,955.5)"/>
<use xlink:href="#f1_af" transform="matrix(12,0,0,12,584.1,955.5)"/>
<use xlink:href="#f1_9q" transform="matrix(12,0,0,12,593.7,955.5)"/>
<use xlink:href="#f1_af" transform="matrix(12,0,0,12,598.1,955.5)"/>
<use xlink:href="#f1_9d" transform="matrix(12,0,0,12,607.6,955.5)"/>
<use xlink:href="#f1_af" transform="matrix(12,0,0,12,620.4,955.5)"/>
<use xlink:href="#f1_7z" transform="matrix(12,0,0,12,629.9,955.5)"/>
<use xlink:href="#f1_bf" transform="matrix(12,0,0,12,639.1,955.5)"/>
<use xlink:href="#f1_ci" transform="matrix(12,0,0,12,645.3,955.5)"/>
<use xlink:href="#f1_am" transform="matrix(12,0,0,12,658.2,955.5)"/>
<use xlink:href="#f1_b1" transform="matrix(12,0,0,12,667.7,955.5)"/>
<use xlink:href="#f1_a5" transform="matrix(12,0,0,12,673.9,955.5)"/>
<use xlink:href="#f1_7l" transform="matrix(12,0,0,12,686.4,955.5)"/>
<use xlink:href="#f1_77" transform="matrix(12,0,0,12,694.1,955.5)"/>
<use xlink:href="#f1_af" transform="matrix(12,0,0,12,702.9,955.5)"/>
<use xlink:href="#f1_7k" transform="matrix(12,0,0,12,716.8,955.5)"/>
<use xlink:href="#f1_7z" transform="matrix(12,0,0,12,726.3,955.5)"/>
<use xlink:href="#f1_7k" transform="matrix(12,0,0,12,137.6,983)"/>
<use xlink:href="#f1_c6" transform="matrix(12,0,0,12,147.1,983)"/>
<use xlink:href="#f1_9q" transform="matrix(12,0,0,12,156.6,983)"/>
<use xlink:href="#f1_a8" transform="matrix(12,0,0,12,160.7,983)"/>
<use xlink:href="#f1_bf" transform="matrix(12,0,0,12,164.7,983)"/>
<use xlink:href="#f1_7z" transform="matrix(12,0,0,12,175.3,983)"/>
<use xlink:href="#f1_77" transform="matrix(12,0,0,12,184.5,983)"/>
<use xlink:href="#f1_b5" transform="matrix(12,0,0,12,193.3,983)"/>
<use xlink:href="#f1_9q" transform="matrix(12,0,0,12,200.6,983)"/>
<use xlink:href="#f1_a8" transform="matrix(12,0,0,12,204.6,983)"/>
<use xlink:href="#f1_co" transform="matrix(12,0,0,12,208.7,983)"/>
<use xlink:href="#f1_nt" transform="matrix(12,0,0,12,215.6,983)"/>
<use xlink:href="#f1_1c" transform="matrix(12,0,0,12,224.5,983)"/>
<use xlink:href="#f1_89" transform="matrix(12,0,0,12,229.3,983)"/>
<use xlink:href="#f1_co" transform="matrix(12,0,0,12,238.8,983)"/>
<use xlink:href="#f1_am" transform="matrix(12,0,0,12,247.2,983)"/>
<use xlink:href="#f1_c6" transform="matrix(12,0,0,12,256.7,983)"/>
<use xlink:href="#f1_ay" transform="matrix(12,0,0,12,270.3,983)"/>
<use xlink:href="#f1_b1" transform="matrix(12,0,0,12,279.8,983)"/>
<use xlink:href="#f1_7z" transform="matrix(12,0,0,12,286.4,983)"/>
<use xlink:href="#f1_89" transform="matrix(12,0,0,12,295.2,983)"/>
<use xlink:href="#f1_7z" transform="matrix(12,0,0,12,300.4,983)"/>
<use xlink:href="#f1_b1" transform="matrix(12,0,0,12,309.5,983)"/>
<use xlink:href="#f1_2g" transform="matrix(12,0,0,12,319.8,983)"/>
<use xlink:href="#f1_co" transform="matrix(12,0,0,12,329.3,983)"/>
<use xlink:href="#f1_2t" transform="matrix(12,0,0,12,337.7,983)"/>
<use xlink:href="#f1_am" transform="matrix(12,0,0,12,345.1,983)"/>
<use xlink:href="#f1_b1" transform="matrix(12,0,0,12,354.6,983)"/>
<use xlink:href="#f1_7l" transform="matrix(12,0,0,12,360.8,983)"/>
<use xlink:href="#f1_9n" transform="matrix(12,0,0,12,368.5,983)"/>
<use xlink:href="#f1_nw" transform="matrix(12,0,0,12,378.6,983)"/>
<use xlink:href="#f1_b5" transform="matrix(12,0,0,12,381.9,983)"/>
<use xlink:href="#f1_b5" transform="matrix(12,0,0,12,393.2,983)"/>
<use xlink:href="#f1_co" transform="matrix(12,0,0,12,400.2,983)"/>
<use xlink:href="#f1_af" transform="matrix(12,0,0,12,408.6,983)"/>
<use xlink:href="#f1_bf" transform="matrix(12,0,0,12,418.1,983)"/>
<use xlink:href="#f1_77" transform="matrix(12,0,0,12,424,983)"/>
<use xlink:href="#f1_cn" transform="matrix(12,0,0,12,432.4,983)"/>
<use xlink:href="#f1_nq" transform="matrix(12,0,0,12,440.6,983)"/>
<use xlink:href="#f1_co" transform="matrix(12,0,0,12,449,983)"/>
<use xlink:href="#f1_am" transform="matrix(12,0,0,12,457.1,983)"/>
<use xlink:href="#f1_c6" transform="matrix(12,0,0,12,466.9,983)"/>
<use xlink:href="#f1_7l" transform="matrix(12,0,0,12,480.5,983)"/>
<use xlink:href="#f1_77" transform="matrix(12,0,0,12,488.2,983)"/>
<use xlink:href="#f1_af" transform="matrix(12,0,0,12,497,983)"/>
<use xlink:href="#f1_b1" transform="matrix(12,0,0,12,510.9,983)"/>
<use xlink:href="#f1_7z" transform="matrix(12,0,0,12,517.1,983)"/>
<use xlink:href="#f1_89" transform="matrix(12,0,0,12,525.9,983)"/>
<use xlink:href="#f1_7z" transform="matrix(12,0,0,12,531.1,983)"/>
<use xlink:href="#f1_b1" transform="matrix(12,0,0,12,540.2,983)"/>
<use xlink:href="#f1_bf" transform="matrix(12,0,0,12,550.5,983)"/>
<use xlink:href="#f1_am" transform="matrix(12,0,0,12,556.4,983)"/>
<use xlink:href="#f1_ox" transform="matrix(12,0,0,12,570.3,983)"/>
<use xlink:href="#f1_s1" transform="matrix(12,0,0,12,575.8,983)"/>
<use xlink:href="#f1_oy" transform="matrix(12,0,0,12,585.3,983)"/>
<use xlink:href="#f1_ci" transform="matrix(12,0,0,12,594.8,983)"/>
<use xlink:href="#f1_9n" transform="matrix(12,0,0,12,608,983)"/>
<use xlink:href="#f1_9q" transform="matrix(12,0,0,12,617.9,983)"/>
<use xlink:href="#f1_7l" transform="matrix(12,0,0,12,621.9,983)"/>
<use xlink:href="#f1_9n" transform="matrix(12,0,0,12,629.6,983)"/>
<use xlink:href="#f1_9q" transform="matrix(12,0,0,12,643.6,983)"/>
<use xlink:href="#f1_b5" transform="matrix(12,0,0,12,647.6,983)"/>
<use xlink:href="#f1_7l" transform="matrix(12,0,0,12,658.9,983)"/>
<use xlink:href="#f1_77" transform="matrix(12,0,0,12,666.6,983)"/>
<use xlink:href="#f1_a8" transform="matrix(12,0,0,12,675.4,983)"/>
<use xlink:href="#f1_a8" transform="matrix(12,0,0,12,679.5,983)"/>
<use xlink:href="#f1_7z" transform="matrix(12,0,0,12,683.5,983)"/>
<use xlink:href="#f1_7v" transform="matrix(12,0,0,12,692.6,983)"/>
<use xlink:href="#f1_bf" transform="matrix(12,0,0,12,137.6,1010.5)"/>
<use xlink:href="#f1_am" transform="matrix(12,0,0,12,143.4,1010.5)"/>
<use xlink:href="#f1_b1" transform="matrix(12,0,0,12,153,1010.5)"/>
<use xlink:href="#f1_7l" transform="matrix(12,0,0,12,159.2,1010.5)"/>
<use xlink:href="#f1_9n" transform="matrix(12,0,0,12,166.9,1010.5)"/>
<use xlink:href="#f1_nt" transform="matrix(12,0,0,12,176.4,1010.5)"/>
<use xlink:href="#f1_af" transform="matrix(12,0,0,12,181.2,1010.5)"/>
<use xlink:href="#f1_af" transform="matrix(12,0,0,12,190.7,1010.5)"/>
<use xlink:href="#f1_nt" transform="matrix(12,0,0,12,200.3,1010.5)"/>
<use xlink:href="#f1_1r" transform="matrix(12,0,0,12,205,1010.5)"/>
<use xlink:href="#f1_9q" transform="matrix(12,0,0,12,212.7,1010.5)"/>
<use xlink:href="#f1_af" transform="matrix(12,0,0,12,216.7,1010.5)"/>
<use xlink:href="#f1_7z" transform="matrix(12,0,0,12,226.3,1010.5)"/>
<use xlink:href="#f1_77" transform="matrix(12,0,0,12,235.4,1010.5)"/>
<use xlink:href="#f1_b1" transform="matrix(12,0,0,12,244.2,1010.5)"/>
<use xlink:href="#f1_ov" transform="matrix(12,0,0,12,250.9,1010.5)"/>
<use xlink:href="#f1_ow" transform="matrix(12,0,0,12,256.4,1010.5)"/>
<use xlink:href="#f1_9q" transform="matrix(12,0,0,12,266.3,1010.5)"/>
<use xlink:href="#f1_af" transform="matrix(12,0,0,12,270.3,1010.5)"/>
<use xlink:href="#f1_b5" transform="matrix(12,0,0,12,279.9,1010.5)"/>
<use xlink:href="#f1_bf" transform="matrix(12,0,0,12,286.8,1010.5)"/>
<use xlink:href="#f1_7z" transform="matrix(12,0,0,12,292.7,1010.5)"/>
<use xlink:href="#f1_77" transform="matrix(12,0,0,12,301.8,1010.5)"/>
<use xlink:href="#f1_7v" transform="matrix(12,0,0,12,310.7,1010.5)"/>
<use xlink:href="#f1_nt" transform="matrix(12,0,0,12,320.2,1010.5)"/>
<use xlink:href="#f1_2t" transform="matrix(12,0,0,12,192.6,1065.5)"/>
<use xlink:href="#f1_9n" transform="matrix(12,0,0,12,201.4,1065.5)"/>
<use xlink:href="#f1_7z" transform="matrix(12,0,0,12,210.9,1065.5)"/>
<use xlink:href="#f1_a8" transform="matrix(12,0,0,12,224.1,1065.5)"/>
<use xlink:href="#f1_77" transform="matrix(12,0,0,12,228.1,1065.5)"/>
<use xlink:href="#f1_co" transform="matrix(12,0,0,12,236.6,1065.5)"/>
<use xlink:href="#f1_7z" transform="matrix(12,0,0,12,244.6,1065.5)"/>
<use xlink:href="#f1_b1" transform="matrix(12,0,0,12,253.8,1065.5)"/>
<use xlink:href="#f1_b5" transform="matrix(12,0,0,12,260,1065.5)"/>
<use xlink:href="#f1_7l" transform="matrix(12,0,0,12,271.4,1065.5)"/>
<use xlink:href="#f1_77" transform="matrix(12,0,0,12,279.1,1065.5)"/>
<use xlink:href="#f1_af" transform="matrix(12,0,0,12,287.9,1065.5)"/>
<use xlink:href="#f1_7k" transform="matrix(12,0,0,12,301.5,1065.5)"/>
<use xlink:href="#f1_7z" transform="matrix(12,0,0,12,311,1065.5)"/>
<use xlink:href="#f1_89" transform="matrix(12,0,0,12,324.7,1065.5)"/>
<use xlink:href="#f1_c6" transform="matrix(12,0,0,12,330.2,1065.5)"/>
<use xlink:href="#f1_b1" transform="matrix(12,0,0,12,339.7,1065.5)"/>
<use xlink:href="#f1_bf" transform="matrix(12,0,0,12,345.9,1065.5)"/>
<use xlink:href="#f1_9n" transform="matrix(12,0,0,12,352.1,1065.5)"/>
<use xlink:href="#f1_7z" transform="matrix(12,0,0,12,361.7,1065.5)"/>
<use xlink:href="#f1_b1" transform="matrix(12,0,0,12,371.2,1065.5)"/>
<use xlink:href="#f1_7l" transform="matrix(12,0,0,12,381.5,1065.5)"/>
<use xlink:href="#f1_77" transform="matrix(12,0,0,12,389.2,1065.5)"/>
<use xlink:href="#f1_b5" transform="matrix(12,0,0,12,398,1065.5)"/>
<use xlink:href="#f1_7l" transform="matrix(12,0,0,12,405.3,1065.5)"/>
<use xlink:href="#f1_77" transform="matrix(12,0,0,12,413,1065.5)"/>
<use xlink:href="#f1_7v" transform="matrix(12,0,0,12,421.8,1065.5)"/>
<use xlink:href="#f1_7z" transform="matrix(12,0,0,12,431.3,1065.5)"/>
<use xlink:href="#f1_7v" transform="matrix(12,0,0,12,440.5,1065.5)"/>
<use xlink:href="#f1_9q" transform="matrix(12,0,0,12,454.1,1065.5)"/>
<use xlink:href="#f1_af" transform="matrix(12,0,0,12,458.1,1065.5)"/>
<use xlink:href="#f1_b5" transform="matrix(12,0,0,12,472,1065.5)"/>
<use xlink:href="#f1_7z" transform="matrix(12,0,0,12,479.3,1065.5)"/>
<use xlink:href="#f1_b1" transform="matrix(12,0,0,12,488.5,1065.5)"/>
<use xlink:href="#f1_9q" transform="matrix(12,0,0,12,494.7,1065.5)"/>
<use xlink:href="#f1_77" transform="matrix(12,0,0,12,498.8,1065.5)"/>
<use xlink:href="#f1_a8" transform="matrix(12,0,0,12,507.5,1065.5)"/>
<use xlink:href="#f1_bf" transform="matrix(12,0,0,12,516,1065.5)"/>
<use xlink:href="#f1_am" transform="matrix(12,0,0,12,521.8,1065.5)"/>
<use xlink:href="#f1_89" transform="matrix(12,0,0,12,535.8,1065.5)"/>
<use xlink:href="#f1_am" transform="matrix(12,0,0,12,540.9,1065.5)"/>
<use xlink:href="#f1_b1" transform="matrix(12,0,0,12,550.4,1065.5)"/>
<use xlink:href="#f1_ae" transform="matrix(12,0,0,12,557,1065.5)"/>
<use xlink:href="#f1_77" transform="matrix(12,0,0,12,575.7,1065.5)"/>
<use xlink:href="#f1_7v" transform="matrix(12,0,0,12,588.5,1065.5)"/>
<use xlink:href="#f1_7z" transform="matrix(12,0,0,12,598.1,1065.5)"/>
<use xlink:href="#f1_7z" transform="matrix(12,0,0,12,607.2,1065.5)"/>
<use xlink:href="#f1_ay" transform="matrix(12,0,0,12,616.4,1065.5)"/>
<use xlink:href="#f1_7z" transform="matrix(12,0,0,12,626.2,1065.5)"/>
<use xlink:href="#f1_b1" transform="matrix(12,0,0,12,635.3,1065.5)"/>
<use xlink:href="#f1_af" transform="matrix(12,0,0,12,646,1065.5)"/>
<use xlink:href="#f1_7z" transform="matrix(12,0,0,12,655.5,1065.5)"/>
<use xlink:href="#f1_bf" transform="matrix(12,0,0,12,664.6,1065.5)"/>
<use xlink:href="#f1_ci" transform="matrix(12,0,0,12,670.9,1065.5)"/>
<use xlink:href="#f1_am" transform="matrix(12,0,0,12,683.7,1065.5)"/>
<use xlink:href="#f1_b1" transform="matrix(12,0,0,12,693.2,1065.5)"/>
<use xlink:href="#f1_a5" transform="matrix(12,0,0,12,699.5,1065.5)"/>
<use xlink:href="#f1_nt" transform="matrix(12,0,0,12,707.9,1065.5)"/>
<use xlink:href="#f1_2t" transform="matrix(12,0,0,12,137.6,1120.5)"/>
<use xlink:href="#f1_c6" transform="matrix(12,0,0,12,145.3,1120.5)"/>
<use xlink:href="#f1_bf" transform="matrix(12,0,0,12,154.8,1120.5)"/>
<use xlink:href="#f1_am" transform="matrix(12,0,0,12,160.7,1120.5)"/>
<use xlink:href="#f1_b1" transform="matrix(12,0,0,12,170.6,1120.5)"/>
<use xlink:href="#f1_9q" transform="matrix(12,0,0,12,176.8,1120.5)"/>
<use xlink:href="#f1_77" transform="matrix(12,0,0,12,180.8,1120.5)"/>
<use xlink:href="#f1_a8" transform="matrix(12,0,0,12,189.6,1120.5)"/>
<use xlink:href="#f1_ry" transform="matrix(12,0,0,12,198,1120.5)"/>
<use xlink:href="#f1_nt" transform="matrix(12,0,0,12,207.2,1120.5)"/>
<use xlink:href="#f1_ry" transform="matrix(12,0,0,12,212,1120.5)"/>
<use xlink:href="#f1_ol" transform="matrix(12,0,0,12,225.2,1120.5)"/>
</g>
<g fill="#954F72"  clip-path="url(#c0_3)">
<use xlink:href="#f1_j" transform="matrix(12,0,0,12,238.8,1120.5)"/>
<use xlink:href="#f1_am" transform="matrix(12,0,0,12,248.7,1120.5)"/>
<use xlink:href="#f1_a8" transform="matrix(12,0,0,12,258.2,1120.5)"/>
<use xlink:href="#f1_77" transform="matrix(12,0,0,12,262.3,1120.5)"/>
<use xlink:href="#f1_7k" transform="matrix(12,0,0,12,271,1120.5)"/>
<use xlink:href="#f1_t" transform="matrix(12,0,0,12,285,1120.5)"/>
<use xlink:href="#f1_cn" transform="matrix(12,0,0,12,293.8,1120.5)"/>
<use xlink:href="#f1_7z" transform="matrix(12,0,0,12,301.1,1120.5)"/>
<use xlink:href="#f1_b1" transform="matrix(12,0,0,12,310.2,1120.5)"/>
<use xlink:href="#f1_7l" transform="matrix(12,0,0,12,316.5,1120.5)"/>
<use xlink:href="#f1_9q" transform="matrix(12,0,0,12,324.6,1120.5)"/>
<use xlink:href="#f1_b5" transform="matrix(12,0,0,12,328.6,1120.5)"/>
<use xlink:href="#f1_7z" transform="matrix(12,0,0,12,335.9,1120.5)"/>
<use xlink:href="#f1_89" transform="matrix(12,0,0,12,349.1,1120.5)"/>
<use xlink:href="#f1_am" transform="matrix(12,0,0,12,354.2,1120.5)"/>
<use xlink:href="#f1_b1" transform="matrix(12,0,0,12,363.8,1120.5)"/>
<use xlink:href="#f1_p" transform="matrix(12,0,0,12,374.4,1120.5)"/>
<use xlink:href="#f1_7z" transform="matrix(12,0,0,12,385.7,1120.5)"/>
<use xlink:href="#f1_af" transform="matrix(12,0,0,12,394.9,1120.5)"/>
<use xlink:href="#f1_b5" transform="matrix(12,0,0,12,404.4,1120.5)"/>
<use xlink:href="#f1_7z" transform="matrix(12,0,0,12,411.7,1120.5)"/>
<use xlink:href="#f1_ov" transform="matrix(12,0,0,12,420.9,1120.5)"/>
<use xlink:href="#f1_ow" transform="matrix(12,0,0,12,426.4,1120.5)"/>
</g>
<path fill-rule="evenodd" d="M238.8,1123.8H432.1v-1.1H238.8v1.1Z" class="g0_3"/>
<image clip-path="url(#c1_3)" preserveAspectRatio="none" x="138" y="231" width="73" height="32" xlink:href="img/1.jpg"/>
<image clip-path="url(#c2_3)" preserveAspectRatio="none" x="330" y="503" width="248" height="259" xlink:href="img/2.jpg"/>
</svg>