<?xml version="1.0" encoding="UTF-8" standalone="no"?>
<!DOCTYPE svg PUBLIC "-//W3C//DTD SVG 1.1//EN"
"http://www.w3.org/Graphics/SVG/1.1/DTD/svg11.dtd">
<svg viewBox="0 0 909 1286" version="1.1" xmlns="http://www.w3.org/2000/svg" xmlns:xlink="http://www.w3.org/1999/xlink">
<defs>
<clipPath id="c0_3"><path d="M0,1286.2V0H909.4V1286.2Z"/></clipPath>
<clipPath id="c1_3"><path d="M137.3,207.8V175.5H211v32.3Z"/></clipPath>
<clipPath id="c2_3"><path d="M329.7,709.2V450.5H578.6V709.2Z"/></clipPath>
<path d="M304,0V867H18V980H727V867H441V0Z"
id="f0_y"
transform="scale(0.001,-0.001)"/>

<path d="M107,0V1061H238V633c0,0,45,50,101,79c0,0,56,29,129,29c0,0,59,0,105,-20c0,0,45,-20,75,-56c0,0,31,-36,46,-87c0,0,15,-51,15,-113V0H578V465c0,0,0,81,-36,127c0,0,-37,45,-112,45c0,0,-56,0,-104,-27c0,0,-48,-27,-88,-74V0Z"
id="f0_5"
transform="scale(0.001,-0.001)"/>

<path d="M587,445c0,0,0,44,-13,81c0,0,-12,36,-36,63c0,0,-24,26,-59,41c0,0,-34,15,-78,15c0,0,-91,0,-145,-53c0,0,-53,-54,-67,-147ZM406,-9c0,0,-76,0,-140,24c0,0,-65,25,-111,75c0,0,-47,50,-73,122c0,0,-26,73,-26,168c0,0,0,76,23,142c0,0,24,66,68,115c0,0,45,49,108,76c0,0,64,28,144,28c0,0,66,0,122,-22c0,0,56,-22,97,-63c0,0,41,-42,64,-102c0,0,23,-61,23,-139c0,0,0,-31,-7,-41c0,0,-6,-10,-24,-10H186c0,0,1,-69,18,-120c0,0,18,-51,48,-84c0,0,30,-34,72,-51c0,0,42,-16,93,-16c0,0,48,0,83,10c0,0,35,11,60,25c0,0,25,13,42,24c0,0,17,11,30,11c0,0,8,0,14,-4c0,0,6,-3,10,-9l38,-48c0,0,-25,-29,-58,-50c0,0,-33,-21,-71,-35C565,17,527,3,486,-3c0,0,-41,-6,-80,-6Z"
id="f0_b"
transform="scale(0.001,-0.001)"/>

<path d="M284,-10c0,0,-72,0,-131,23C153,13,93,38,52,78l31,49c0,0,6,10,14,15c0,0,8,5,21,5c0,0,13,0,27,-10c0,0,13,-10,32,-22c0,0,19,-13,46,-23c0,0,27,-10,67,-10c0,0,35,0,59,10c0,0,25,9,42,25c0,0,16,17,25,38c0,0,8,22,8,46c0,0,0,30,-16,49c0,0,-15,20,-39,34c0,0,-25,14,-57,24c0,0,-32,11,-65,22c0,0,-33,12,-65,26c0,0,-31,15,-56,38c0,0,-25,22,-40,55c0,0,-15,33,-15,80c0,0,0,42,16,81c0,0,17,38,48,67c0,0,31,29,78,47c0,0,46,17,106,17c0,0,67,0,123,-23c0,0,55,-22,94,-62L507,609c0,0,-9,-17,-27,-17c0,0,-12,0,-25,9c0,0,-13,8,-31,17c0,0,-18,9,-43,18c0,0,-25,8,-59,8c0,0,-30,0,-53,-8c0,0,-23,-9,-39,-23c0,0,-17,-14,-26,-33c0,0,-9,-19,-9,-41c0,0,0,-28,15,-47c0,0,15,-18,40,-32c0,0,25,-13,56,-24c0,0,32,-11,65,-22c0,0,33,-11,64,-26c0,0,32,-15,57,-37c0,0,24,-21,39,-52c0,0,15,-31,15,-75c0,0,0,-51,-17,-94c0,0,-17,-43,-50,-74C479,56,445,25,396,7c0,0,-48,-17,-112,-17Z"
id="f0_l"
transform="scale(0.001,-0.001)"/>

<path d="M162,-245L287,43L8,730H122c0,0,17,0,26,-9c0,0,9,-8,13,-18L331,246c0,0,6,-15,12,-31c0,0,5,-16,9,-31c0,0,5,16,10,32c0,0,6,16,12,32L539,703c0,0,4,11,15,19c0,0,10,8,23,8H681L305,-214c0,0,-6,-15,-16,-23c0,0,-10,-8,-29,-8Z"
id="f0_11"
transform="scale(0.001,-0.001)"/>

<path d="M311,-10c0,0,-84,0,-130,47c0,0,-45,49,-45,139V621H52c0,0,-11,0,-19,7c0,0,-8,8,-8,22v52l115,15l31,224c0,0,1,12,9,18c0,0,8,7,20,7h67V716H468V621H267V185c0,0,0,-45,21,-67c0,0,20,-23,53,-23c0,0,19,0,33,6c0,0,14,5,24,12c0,0,9,6,16,12c0,0,7,5,13,5c0,0,7,0,11,-3c0,0,4,-3,8,-10L485,54C485,54,451,23,406,6c0,0,-46,-16,-95,-16Z"
id="f0_k"
transform="scale(0.001,-0.001)"/>

<path d="M110,0V730h77c0,0,15,0,24,-7c0,0,8,-6,10,-20l11,-75c0,0,21,25,44,45c0,0,22,21,49,36c0,0,26,15,55,24c0,0,30,8,64,8c0,0,75,0,123,-41c0,0,47,-41,67,-111c0,0,16,41,41,69c0,0,26,28,58,47c0,0,31,19,67,27c0,0,36,9,73,9c0,0,119,0,184,-72c0,0,66,-71,66,-204V0H991V465c0,0,0,85,-38,128c0,0,-39,44,-112,44c0,0,-32,0,-61,-11c0,0,-30,-11,-52,-33c0,0,-22,-22,-35,-54c0,0,-13,-32,-13,-74V0H549V465c0,0,0,87,-36,130c0,0,-36,42,-106,42c0,0,-48,0,-90,-25c0,0,-42,-25,-76,-69V0Z"
id="f0_p"
transform="scale(0.001,-0.001)"/>

<path d="M371,95c0,0,62,0,108,28c0,0,45,29,85,81V557c0,0,-35,47,-76,66c0,0,-41,19,-91,19c0,0,-99,0,-153,-73c0,0,-54,-72,-54,-206c0,0,0,-71,13,-122c0,0,12,-51,35,-83c0,0,23,-33,57,-48c0,0,33,-15,76,-15ZM328,-9c0,0,-62,0,-112,23c0,0,-50,24,-86,71c0,0,-36,47,-55,117c0,0,-20,70,-20,161c0,0,0,80,21,150c0,0,22,70,62,120c0,0,40,51,98,80c0,0,58,29,131,29c0,0,66,0,113,-22c0,0,47,-22,84,-63v404H695V0H617c0,0,-14,0,-23,6c0,0,-9,7,-11,21l-13,87c0,0,-46,-56,-105,-90C465,24,406,-9,328,-9Z"
id="f0_o"
transform="scale(0.001,-0.001)"/>

<path d="M357,-9c0,0,-64,0,-120,24c0,0,-56,25,-97,73c0,0,-42,49,-65,118c0,0,-24,70,-24,160c0,0,0,81,22,150c0,0,22,69,63,119c0,0,42,50,102,78c0,0,61,28,140,28c0,0,75,0,131,-25c0,0,56,-25,99,-70L574,598c0,0,-6,-8,-12,-12c0,0,-5,-4,-16,-4c0,0,-11,0,-23,9c0,0,-12,9,-30,20c0,0,-18,10,-44,19c0,0,-25,9,-63,9c0,0,-49,0,-86,-19c0,0,-38,-19,-63,-54c0,0,-25,-36,-38,-86c0,0,-13,-51,-13,-114c0,0,0,-66,14,-117c0,0,13,-51,39,-86c0,0,25,-35,61,-54c0,0,36,-18,80,-18c0,0,44,0,71,11c0,0,28,11,47,25c0,0,18,13,31,24c0,0,12,12,25,12c0,0,15,0,24,-13l38,-48c0,0,-24,-29,-53,-50c0,0,-29,-21,-62,-35C501,17,467,3,431,-3c0,0,-36,-6,-74,-6Z"
id="f0_4"
transform="scale(0.001,-0.001)"/>

<path d="M98,0V730h75c0,0,21,0,30,-9c0,0,8,-8,10,-27l9,-108c0,0,33,73,82,114c0,0,50,42,119,42c0,0,23,0,43,-5c0,0,20,-4,37,-16L492,624c0,0,-2,-18,-21,-18c0,0,-10,0,-29,4c0,0,-19,4,-42,4c0,0,-34,0,-59,-10c0,0,-26,-10,-47,-30c0,0,-20,-20,-36,-48c0,0,-16,-28,-29,-65V0Z"
id="f0_g"
transform="scale(0.001,-0.001)"/>

<path d="M110,0V730H241V0Zm63,866c0,0,-19,0,-35,8c0,0,-16,7,-29,19c0,0,-12,13,-19,29c0,0,-8,17,-8,36c0,0,0,19,8,36c0,0,7,17,19,29c0,0,13,13,29,21c0,0,16,7,35,7c0,0,19,0,35,-7c0,0,17,-8,30,-21c0,0,13,-12,21,-29c0,0,7,-17,7,-36c0,0,0,-19,-7,-36c0,0,-8,-16,-21,-29c0,0,-13,-12,-29,-19c0,0,-17,-8,-36,-8Z"
id="f0_6"
transform="scale(0.001,-0.001)"/>

<path d="M404,91c0,0,101,0,155,72c0,0,53,73,53,216c0,0,0,133,-47,195c0,0,-48,63,-136,63c0,0,-60,0,-106,-28c0,0,-46,-29,-84,-81V176c0,0,34,-47,75,-66c0,0,41,-19,90,-19ZM437,-9c0,0,-71,0,-120,26c0,0,-48,27,-85,76L225,28C225,28,222,0,192,0H107V1061H239V626c0,0,44,53,102,84c0,0,57,31,132,31c0,0,63,0,114,-25c0,0,51,-24,87,-71c0,0,35,-46,54,-112c0,0,19,-66,19,-150c0,0,0,-88,-21,-161c0,0,-22,-72,-62,-124c0,0,-40,-52,-98,-80C566,18,509,-9,437,-9Z"
id="f0_10"
transform="scale(0.001,-0.001)"/>

<path d="M108,0V980H681V870H245V548H596V442H245V110H682L681,0Z"
id="f0_1s"
transform="scale(0.001,-0.001)"/>

<path d="M372,95c0,0,62,0,108,28c0,0,47,29,86,81V557c0,0,-33,45,-76,65c0,0,-42,20,-92,20c0,0,-100,0,-154,-73c0,0,-54,-72,-54,-206c0,0,0,-71,13,-122c0,0,12,-51,35,-83c0,0,24,-33,58,-48c0,0,34,-15,76,-15ZM566,-245V107c0,0,-45,-54,-103,-86C463,21,404,-9,330,-9c0,0,-63,0,-114,23c0,0,-50,24,-86,71c0,0,-36,47,-55,117c0,0,-20,70,-20,161c0,0,0,80,22,150c0,0,21,70,62,120c0,0,40,51,98,80c0,0,58,29,132,29c0,0,70,0,119,-25c0,0,49,-25,87,-70l10,56c0,0,5,27,34,27h78V-245Z"
id="f0_16"
transform="scale(0.001,-0.001)"/>

<path d="M336,-10c0,0,-60,0,-105,19c0,0,-45,19,-76,56c0,0,-30,36,-46,87c0,0,-16,51,-16,113V730H225V265c0,0,0,-82,36,-127c0,0,37,-45,113,-45c0,0,56,0,104,26c0,0,48,26,89,73V730H698V0H619c0,0,-13,0,-22,6c0,0,-9,7,-11,21l-12,77c0,0,-47,-52,-104,-83c0,0,-58,-31,-134,-31Z"
id="f0_j"
transform="scale(0.001,-0.001)"/>

<path d="M190,0V95H394V757c0,0,0,29,2,61L230,671c0,0,-13,-11,-28,-11c-2,0,-5,1,-7,1c0,0,-17,5,-23,15l-40,54L418,983H519V95H706V0Z"
id="f0_18"
transform="scale(0.001,-0.001)"/>

<path d="M191,-11c0,0,-19,0,-35,8c0,0,-16,6,-29,18c0,0,-12,13,-20,29c0,0,-7,17,-7,36c0,0,0,19,7,36c0,0,8,17,20,29c0,0,13,13,29,21c0,0,16,7,35,7c0,0,19,0,35,-7c0,0,17,-8,30,-21c0,0,13,-12,21,-29c0,0,7,-17,7,-36c0,0,0,-19,-7,-36c0,0,-8,-16,-21,-29C256,15,243,3,226,-3c0,0,-16,-8,-35,-8Z"
id="f0_u"
transform="scale(0.001,-0.001)"/>

<path d="M386,95c0,0,44,0,83,20c0,0,40,19,70,66c0,0,30,46,48,122c0,0,18,75,18,187c0,0,0,112,-18,188c0,0,-18,75,-48,122c0,0,-30,46,-70,66c0,0,-39,20,-83,20c0,0,-43,0,-82,-20c0,0,-39,-20,-69,-66c0,0,-31,-47,-49,-122c0,0,-17,-76,-17,-188c0,0,0,-112,17,-187c0,0,18,-76,49,-122c0,0,30,-47,69,-66c0,0,39,-20,82,-20ZM386,-9c0,0,-73,0,-136,29c0,0,-64,30,-110,92c0,0,-47,61,-74,155c0,0,-26,95,-26,223c0,0,0,128,26,223c0,0,27,94,74,156c0,0,46,62,110,92c0,0,63,30,136,30c0,0,74,0,137,-30c0,0,64,-30,111,-92c0,0,47,-62,74,-156c0,0,27,-95,27,-223c0,0,0,-128,-27,-223c0,0,-27,-94,-74,-155c0,0,-47,-62,-111,-92C523,20,460,-9,386,-9Z"
id="f0_1t"
transform="scale(0.001,-0.001)"/>

<path d="M307,81c0,0,32,0,60,6c0,0,28,7,52,19c0,0,25,13,47,31c0,0,22,18,44,41V328c0,0,-88,-3,-149,-14c0,0,-61,-11,-100,-29c0,0,-38,-18,-55,-42c0,0,-17,-24,-17,-54c0,0,0,-29,9,-49c0,0,9,-21,25,-34c0,0,16,-13,37,-19c0,0,22,-6,47,-6ZM267,-10c0,0,-42,0,-79,10c0,0,-37,12,-65,36c0,0,-28,24,-44,61c0,0,-16,36,-16,85c0,0,0,43,23,83c0,0,24,40,77,71c0,0,53,32,138,52c0,0,85,19,209,22v56c0,0,0,85,-37,128c0,0,-36,43,-105,43c0,0,-46,0,-78,-12c0,0,-32,-12,-55,-26c0,0,-23,-14,-40,-26c0,0,-17,-12,-34,-12c0,0,-13,0,-23,7c0,0,-10,6,-16,17L98,627c0,0,61,58,131,87c0,0,69,28,154,28c0,0,62,0,109,-20c0,0,48,-19,80,-56c0,0,32,-36,49,-87c0,0,17,-51,17,-113V0H580c0,0,-20,0,-30,6c0,0,-11,6,-14,25L519,98c0,0,-28,-26,-55,-46c0,0,-28,-21,-57,-35C407,17,377,3,342,-3c0,0,-34,-7,-75,-7Z"
id="f0_3"
transform="scale(0.001,-0.001)"/>

<path d="M104,0V730h79c0,0,14,0,23,-7c0,0,9,-6,10,-20l12,-78c0,0,47,52,105,84c0,0,58,32,134,32c0,0,60,0,105,-20c0,0,45,-20,76,-56c0,0,30,-36,46,-87c0,0,15,-51,15,-113V0H578V465c0,0,0,81,-37,127c0,0,-37,45,-112,45c0,0,-56,0,-104,-26c0,0,-49,-27,-89,-74V0Z"
id="f0_a"
transform="scale(0.001,-0.001)"/>

<path d="M110,0V1061H241V0Z"
id="f0_m"
transform="scale(0.001,-0.001)"/>

<path d="M404,92c0,0,53,0,92,18c0,0,40,18,66,53c0,0,27,35,40,86c0,0,13,51,13,116c0,0,0,65,-13,115c0,0,-13,51,-40,86c0,0,-26,35,-66,54c0,0,-39,19,-92,19c0,0,-54,0,-94,-19c0,0,-40,-19,-66,-54c0,0,-27,-35,-40,-86c0,0,-13,-50,-13,-115c0,0,0,-65,13,-116c0,0,13,-51,40,-86c0,0,26,-35,66,-53c0,0,40,-18,94,-18ZM404,-9c0,0,-80,0,-145,25c0,0,-64,27,-109,75c0,0,-46,49,-70,119c0,0,-24,69,-24,156c0,0,0,85,24,155c0,0,24,69,70,118c0,0,45,49,109,75c0,0,65,27,145,27c0,0,79,0,144,-27c0,0,64,-26,108,-75c0,0,45,-49,69,-118c0,0,25,-70,25,-155c0,0,0,-87,-25,-156c0,0,-24,-70,-69,-119C656,91,612,43,548,16C548,16,483,-9,404,-9Z"
id="f0_n"
transform="scale(0.001,-0.001)"/>

<path d="M124,0V620L52,630c0,0,-15,1,-25,9c0,0,-10,9,-10,23v54H124v38c0,0,0,61,17,115c0,0,18,54,53,94c0,0,36,41,89,65c0,0,53,24,124,24c0,0,53,0,102,-5c0,0,48,-4,95,-5h88V0H562V950c0,0,-36,2,-73,4c0,0,-36,2,-62,2c0,0,-85,0,-130,-53c0,0,-46,-53,-46,-149V716H426V621H255V0Z"
id="f0_25"
transform="scale(0.001,-0.001)"/>

<path d="M245,0L16,730H119c0,0,15,0,26,-9c0,0,10,-8,13,-19L289,236c0,0,7,-25,12,-49c0,0,6,-24,9,-48c0,0,6,24,14,48c0,0,7,24,15,50L484,706c0,0,4,11,14,18c0,0,9,7,23,7h56c0,0,15,0,25,-7c0,0,9,-7,13,-18L756,237c0,0,9,-25,15,-50c0,0,7,-24,13,-48c0,0,8,48,23,98L941,703c0,0,3,12,13,19c0,0,10,8,24,8h98L847,0H743c0,0,-19,0,-26,25L564,516c0,0,-6,17,-10,34c0,0,-4,17,-8,34c0,0,-4,-17,-7,-34c0,0,-4,-17,-10,-35L374,25C374,25,366,0,345,0Z"
id="f0_13"
transform="scale(0.001,-0.001)"/>

<path d="M93,0V980H228V552h39c0,0,22,0,36,7c0,0,14,6,24,21L580,949c0,0,14,17,28,24c0,0,15,7,37,7H761L463,559c0,0,-24,-32,-50,-45c0,0,34,-12,61,-49L783,0H663c0,0,-24,0,-36,8c0,0,-12,8,-22,20L345,416c0,0,-12,17,-25,25c0,0,-14,7,-42,7H228V0Z"
id="f0_26"
transform="scale(0.001,-0.001)"/>

<path d="M127,0V620L53,630c0,0,-16,1,-25,9c0,0,-10,9,-10,23v54H127v70c0,0,0,62,17,111c0,0,16,49,48,82c0,0,31,33,76,51c0,0,45,17,101,17c0,0,23,0,45,-3c0,0,22,-4,42,-11l-4,-65c0,0,-1,-18,-18,-19c0,0,-16,-2,-44,-2c0,0,-31,0,-56,-9c0,0,-25,-8,-43,-27c0,0,-18,-20,-28,-51c0,0,-9,-32,-9,-78V716H450V621H258V0Z"
id="f0_t"
transform="scale(0.001,-0.001)"/>

<path d="M355,-167c0,0,49,0,87,10c0,0,38,10,65,26c0,0,26,17,39,41c0,0,13,23,13,51c0,0,0,27,-13,42c0,0,-14,16,-38,26c0,0,-24,9,-55,13c0,0,-32,4,-67,6c0,0,-35,3,-71,4c0,0,-36,2,-70,7c0,0,-36,-19,-59,-47c0,0,-23,-26,-23,-64c0,0,0,-25,11,-45c0,0,11,-21,34,-37c0,0,24,-15,61,-24c0,0,36,-9,86,-9ZM345,358c0,0,72,0,109,40c0,0,37,41,37,106c0,0,0,66,-37,105c0,0,-37,39,-109,39c0,0,-71,0,-108,-39c0,0,-37,-39,-37,-105c0,0,0,-33,9,-59c0,0,10,-26,28,-46c0,0,18,-19,45,-30c0,0,28,-11,63,-11Zm8,-620c0,0,-77,0,-134,16c0,0,-58,16,-96,43c0,0,-38,26,-57,62c0,0,-18,35,-18,73c0,0,0,53,31,90c0,0,32,37,88,59c0,0,-30,14,-48,38c0,0,-18,25,-18,66c0,0,0,31,22,66c0,0,22,35,67,59c0,0,-51,30,-81,80c0,0,-29,50,-29,117c0,0,0,53,20,97c0,0,19,43,54,74c0,0,35,31,84,47c0,0,48,17,107,17c0,0,45,0,85,-11c0,0,39,-10,71,-30H692V653c0,0,0,-26,-30,-31L585,611c0,0,23,-48,23,-104c0,0,0,-54,-20,-97c0,0,-20,-44,-55,-74c0,0,-35,-31,-83,-48c0,0,-48,-16,-105,-16c0,0,-48,0,-88,11c0,0,-22,-14,-32,-30c0,0,-11,-17,-11,-32c0,0,0,-26,20,-39c0,0,20,-13,53,-19c0,0,33,-6,75,-7c0,0,42,-2,85,-5c0,0,44,-3,86,-11c0,0,41,-7,74,-25c0,0,33,-19,53,-50c0,0,20,-32,20,-82c0,0,0,-47,-22,-91c0,0,-22,-44,-65,-78c0,0,-42,-35,-103,-55c0,0,-60,-21,-137,-21Z"
id="f0_h"
transform="scale(0.001,-0.001)"/>

<path d="M202,-11c0,0,-18,0,-35,8c0,0,-16,6,-29,18c0,0,-12,13,-19,29c0,0,-8,17,-8,36c0,0,0,19,8,36c0,0,7,17,19,29c0,0,13,13,29,21c0,0,17,7,35,7c0,0,19,0,36,-7c0,0,16,-8,29,-21c0,0,13,-12,21,-29c0,0,7,-17,7,-36c0,0,0,-19,-7,-36c0,0,-8,-16,-21,-29C267,15,254,3,238,-3c0,0,-17,-8,-36,-8Zm-4,505c0,0,-19,0,-35,7c0,0,-17,8,-29,20c0,0,-12,12,-20,29c0,0,-7,17,-7,36c0,0,0,19,7,36c0,0,8,17,20,29c0,0,12,13,29,20c0,0,16,8,35,8c0,0,18,0,35,-8c0,0,17,-7,30,-20c0,0,13,-12,20,-29c0,0,8,-17,8,-36c0,0,0,-19,-8,-36c0,0,-7,-17,-20,-29c0,0,-13,-12,-30,-20c0,0,-17,-7,-35,-7Z"
id="f0_17"
transform="scale(0.001,-0.001)"/>

<path d="M442,110c0,0,70,0,127,25c0,0,57,26,97,75c0,0,40,49,62,120c0,0,22,71,22,160c0,0,0,90,-22,160c0,0,-22,71,-62,120c0,0,-40,49,-97,75c0,0,-57,26,-127,26H240V110ZM104,0V980H442c0,0,100,0,183,-35c0,0,82,-36,141,-100c0,0,58,-64,91,-155c0,0,32,-90,32,-200c0,0,0,-110,-32,-201c0,0,-33,-90,-91,-154C766,135,707,70,625,35C625,35,542,0,442,0Z"
id="f0_d"
transform="scale(0.001,-0.001)"/>

<path d="M310,-211c0,0,-54,83,-92,165c0,0,-37,80,-61,162c0,0,-23,82,-34,166c0,0,-11,84,-11,171c0,0,0,87,11,171c0,0,11,83,34,165c0,0,24,82,61,164c0,0,38,81,92,164l58,-35c0,0,11,-8,17,-20c0,0,6,-12,-6,-34c0,0,-75,-131,-114,-276c0,0,-39,-146,-39,-299c0,0,0,-155,39,-300c0,0,39,-145,114,-275c0,0,12,-22,6,-34c0,0,-6,-12,-17,-19l-58,-36Z"
id="f0_1w"
transform="scale(0.001,-0.001)"/>

<path d="M70,315v98H690V315Zm0,242v99H690V557Z"
id="f0_27"
transform="scale(0.001,-0.001)"/>

<path d="M143,-194l-22,20c0,0,-10,9,-10,21c0,0,0,9,11,20c0,0,6,7,17,21c0,0,12,13,23,30c0,0,12,17,22,38c0,0,9,21,14,44h-9c0,0,-38,0,-61,25c0,0,-24,26,-24,65c0,0,0,16,7,31c0,0,6,15,17,26c0,0,12,11,28,18c0,0,16,7,35,7c0,0,22,0,39,-9c0,0,17,-8,28,-22c0,0,11,-13,17,-32c0,0,5,-19,5,-41c0,0,0,-32,-9,-67c0,0,-9,-34,-27,-69c0,0,-17,-34,-43,-66c0,0,-25,-33,-58,-60Z"
id="f0_x"
transform="scale(0.001,-0.001)"/>

<path d="M189,662c0,0,-20,0,-30,13c0,0,-11,13,-14,37L133,823v209H246V823L233,712c0,0,-2,-23,-11,-37c0,0,-10,-13,-33,-13Zm271,0c0,0,-20,0,-31,13c0,0,-10,13,-13,37L404,823v209H517V823L504,712c0,0,-2,-23,-12,-37c0,0,-9,-13,-32,-13Z"
id="f0_28"
transform="scale(0.001,-0.001)"/>

<path d="M45,0V54c0,0,0,10,5,23c0,0,4,13,13,24L409,627H65V730H559V674c0,0,0,-14,-5,-27c0,0,-5,-13,-12,-23L196,102H548V0Z"
id="f0_1u"
transform="scale(0.001,-0.001)"/>

<path d="M154,-211l-59,36c0,0,-5,3,-10,8c0,0,-4,5,-7,11c0,0,-2,6,-1,15c0,0,1,8,7,19c0,0,75,130,114,275c0,0,39,145,39,300c0,0,0,153,-39,299c0,0,-39,145,-114,276c0,0,-6,11,-7,19c0,0,-1,9,1,15c0,0,3,7,7,11c0,0,5,5,10,9l59,35c0,0,53,-83,91,-164c0,0,38,-82,61,-164c0,0,24,-82,35,-165c0,0,10,-84,10,-171c0,0,0,-87,-10,-171c0,0,-11,-84,-35,-166c0,0,-23,-82,-61,-162c0,0,-38,-82,-91,-165Z"
id="f0_19"
transform="scale(0.001,-0.001)"/>

<path d="M556,-9c0,0,-114,0,-207,35c0,0,-92,37,-157,103c0,0,-64,66,-99,158c0,0,-36,92,-36,203c0,0,0,112,34,204c0,0,34,92,97,158c0,0,63,66,153,103c0,0,89,36,201,36c0,0,56,0,104,-8c0,0,49,-9,90,-25c0,0,41,-16,75,-39c0,0,35,-23,65,-51L838,806c0,0,-9,-15,-24,-18c0,0,-3,-1,-7,-1c-6,0,-15,1,-25,7c0,0,-17,10,-38,24c0,0,-20,14,-49,26c0,0,-28,12,-67,21c0,0,-39,9,-92,9c0,0,-77,0,-140,-27c0,0,-63,-26,-108,-76c0,0,-44,-50,-68,-122c0,0,-24,-71,-24,-159c0,0,0,-92,25,-164c0,0,25,-73,72,-123c0,0,46,-51,112,-77c0,0,66,-27,147,-27c0,0,63,0,112,15c0,0,49,14,97,40V369H620c0,0,-14,0,-22,8c0,0,-8,7,-8,18v77H884V95C884,95,812,42,731,16C731,16,650,-9,556,-9Z"
id="f0_21"
transform="scale(0.001,-0.001)"/>

<path d="M391,473c0,0,52,0,92,15c0,0,41,15,68,42c0,0,27,27,41,64c0,0,14,37,14,82c0,0,0,94,-53,146c0,0,-53,52,-162,52H245V473ZM110,0V980H391c0,0,89,0,155,-21c0,0,66,-22,110,-62c0,0,43,-39,64,-95c0,0,22,-57,22,-126c0,0,0,-69,-23,-125c0,0,-23,-57,-67,-99c0,0,-45,-41,-110,-64c0,0,-65,-22,-151,-22H245V0Z"
id="f0_1a"
transform="scale(0.001,-0.001)"/>

<path d="M404,91c0,0,100,0,154,72c0,0,54,73,54,207c0,0,0,71,-12,122c0,0,-12,50,-36,83c0,0,-23,32,-57,47c0,0,-34,15,-77,15c0,0,-61,0,-108,-28c0,0,-47,-29,-86,-81V176c0,0,35,-47,76,-66c0,0,42,-19,92,-19ZM105,-245V730h79c0,0,14,0,23,-7c0,0,9,-6,10,-20l13,-85c0,0,46,56,106,90c0,0,59,34,137,34c0,0,63,0,113,-24c0,0,51,-24,87,-71c0,0,36,-47,55,-117c0,0,19,-69,19,-160c0,0,0,-81,-21,-150c0,0,-22,-70,-62,-121c0,0,-41,-51,-99,-80C565,19,507,-9,433,-9c0,0,-66,0,-113,21c0,0,-47,22,-84,63V-245Z"
id="f0_e"
transform="scale(0.001,-0.001)"/>

<path d="M103,0V980H658V870H239V530H595V420H239V0Z"
id="f0_1l"
transform="scale(0.001,-0.001)"/>

<path d="M125,0V980H260V0Z"
id="f0_1p"
transform="scale(0.001,-0.001)"/>

<path d="M286,0L14,730H122c0,0,15,0,26,-9c0,0,10,-8,14,-18L318,236c0,0,9,-26,16,-51c0,0,7,-25,13,-50c0,0,5,25,12,50c0,0,7,25,18,51L535,703c0,0,4,11,14,19c0,0,10,8,23,8H676L404,0Z"
id="f0_z"
transform="scale(0.001,-0.001)"/>

<path d="M103,0V980H239V114H617V0Z"
id="f0_f"
transform="scale(0.001,-0.001)"/>

<path d="M177,659l-40,25c0,0,-12,7,-11,17c0,0,2,11,8,17c0,0,18,23,32,56c0,0,13,32,17,70c0,0,3,38,-4,78c0,0,-7,40,-30,78c0,0,-9,16,-5,28c0,0,4,12,18,17l80,32c0,0,31,-51,42,-108c0,0,11,-57,2,-112c0,0,-8,-56,-36,-107c0,0,-28,-51,-73,-91Zm244,0l-41,25c0,0,-11,7,-10,17c0,0,1,11,7,17c0,0,19,23,33,56c0,0,13,32,17,70c0,0,3,38,-4,78c0,0,-7,40,-30,78c0,0,-10,16,-5,28c0,0,4,12,18,17l80,32c0,0,31,-51,42,-108c0,0,11,-57,2,-112c0,0,-9,-56,-36,-107c0,0,-28,-51,-73,-91Z"
id="f0_2a"
transform="scale(0.001,-0.001)"/>

<path d="M436,107c0,0,52,0,89,13c0,0,37,14,60,37c0,0,24,23,35,55c0,0,10,33,10,71c0,0,0,75,-47,119c0,0,-47,44,-147,44H243V107ZM401,542c0,0,50,0,88,12c0,0,37,12,62,34c0,0,24,21,36,52c0,0,13,31,13,68c0,0,0,86,-47,126c0,0,-46,40,-146,40H243V542ZM107,0V980H407c0,0,86,0,148,-17c0,0,63,-18,103,-51c0,0,39,-33,58,-81c0,0,19,-47,19,-107c0,0,0,-35,-11,-69c0,0,-11,-34,-32,-62c0,0,-22,-28,-55,-51c0,0,-33,-24,-78,-38c0,0,103,-20,155,-76c0,0,51,-57,51,-148c0,0,0,-63,-21,-114c0,0,-22,-52,-64,-89C680,77,639,40,578,20C578,20,517,0,439,0Z"
id="f0_2b"
transform="scale(0.001,-0.001)"/>

<path d="M95,0V1061H227V437h30c0,0,14,0,22,4c0,0,9,4,19,16L492,704c0,0,10,12,21,19c0,0,11,7,29,7H661L432,442c0,0,-11,-11,-21,-20c0,0,-10,-9,-22,-17c0,0,12,-8,22,-20c0,0,10,-11,21,-24L676,0H558c0,0,-16,0,-28,6c0,0,-12,5,-21,19L310,324c0,0,-11,15,-20,20c0,0,-10,4,-30,4H227V0Z"
id="f0_q"
transform="scale(0.001,-0.001)"/>

<path d="M163,659l-40,25c0,0,-11,7,-10,17c0,0,1,11,7,17c0,0,19,23,32,56c0,0,14,32,17,70c0,0,4,38,-3,78c0,0,-8,40,-30,78c0,0,-10,16,-6,28c0,0,4,12,18,17l81,32c0,0,31,-51,41,-108c0,0,11,-57,3,-112c0,0,-9,-56,-37,-107c0,0,-27,-51,-73,-91Z"
id="f0_12"
transform="scale(0.001,-0.001)"/>

<path d="M17,0L244,374L27,730H152c0,0,15,0,22,-6c0,0,7,-5,13,-14L339,445c0,0,3,9,7,16c0,0,3,8,9,16L483,707c0,0,6,11,14,17c0,0,7,6,18,6H635L417,381L645,0H518c0,0,-14,0,-24,9c0,0,-9,8,-15,18L325,303c0,0,-6,-17,-14,-29L172,27c0,0,-6,-11,-15,-19c0,0,-9,-8,-23,-8Z"
id="f0_14"
transform="scale(0.001,-0.001)"/>

<path d="M119,-207V1104H386v-51c0,0,0,-15,-9,-25c0,0,-10,-10,-26,-10H229V-121H351c0,0,16,0,26,-10c0,0,9,-10,9,-25v-51Z"
id="f0_1x"
transform="scale(0.001,-0.001)"/>

<path d="M498,354V754c0,0,0,36,4,79L160,354ZM498,0V257H76c0,0,-15,0,-25,7c0,0,-9,8,-12,21L26,348L490,981H607V354H749V283c0,0,0,-11,-7,-19c0,0,-7,-7,-21,-7H607V0Z"
id="f0_1i"
transform="scale(0.001,-0.001)"/>

<path d="M82,-207v51c0,0,0,15,10,25c0,0,10,10,27,10H239V1018H119c0,0,-17,0,-27,10c0,0,-10,10,-10,25v51H349V-207Z"
id="f0_1y"
transform="scale(0.001,-0.001)"/>

</defs>
<image clip-path="url(#c1_3)" preserveAspectRatio="none" x="138" y="176" width="73" height="32" xlink:href="img/1.jpg"/>
<g fill="#000000"  clip-path="url(#c0_3)">
<use xlink:href="#f0_y" transform="matrix(12,0,0,12,207.6,251)"/>
<use xlink:href="#f0_5" transform="matrix(12,0,0,12,216.5,251)"/>
<use xlink:href="#f0_b" transform="matrix(12,0,0,12,226.1,251)"/>
<use xlink:href="#f0_l" transform="matrix(12,0,0,12,239.5,251)"/>
<use xlink:href="#f0_11" transform="matrix(12,0,0,12,246.4,251)"/>
<use xlink:href="#f0_l" transform="matrix(12,0,0,12,254.3,251)"/>
<use xlink:href="#f0_k" transform="matrix(12,0,0,12,261.4,251)"/>
<use xlink:href="#f0_b" transform="matrix(12,0,0,12,267.3,251)"/>
<use xlink:href="#f0_p" transform="matrix(12,0,0,12,276.5,251)"/>
<use xlink:href="#f0_o" transform="matrix(12,0,0,12,295.2,251)"/>
<use xlink:href="#f0_b" transform="matrix(12,0,0,12,304.9,251)"/>
<use xlink:href="#f0_l" transform="matrix(12,0,0,12,313.9,251)"/>
<use xlink:href="#f0_4" transform="matrix(12,0,0,12,321.1,251)"/>
<use xlink:href="#f0_g" transform="matrix(12,0,0,12,328.8,251)"/>
<use xlink:href="#f0_6" transform="matrix(12,0,0,12,335.2,251)"/>
<use xlink:href="#f0_10" transform="matrix(12,0,0,12,339.5,251)"/>
<use xlink:href="#f0_b" transform="matrix(12,0,0,12,349,251)"/>
<use xlink:href="#f0_10" transform="matrix(12,0,0,12,362.2,251)"/>
<use xlink:href="#f0_11" transform="matrix(12,0,0,12,371.9,251)"/>
<use xlink:href="#f0_1s" transform="matrix(12,0,0,12,384.2,251)"/>
<use xlink:href="#f0_16" transform="matrix(12,0,0,12,392.9,251)"/>
<use xlink:href="#f0_j" transform="matrix(12,0,0,12,402.6,251)"/>
<use xlink:href="#f0_18" transform="matrix(12,0,0,12,416.4,251)"/>
<use xlink:href="#f0_u" transform="matrix(12,0,0,12,425.7,251)"/>
<use xlink:href="#f0_1t" transform="matrix(12,0,0,12,430.3,251)"/>
<use xlink:href="#f0_4" transform="matrix(12,0,0,12,443.7,251)"/>
<use xlink:href="#f0_3" transform="matrix(12,0,0,12,451.4,251)"/>
<use xlink:href="#f0_a" transform="matrix(12,0,0,12,460.1,251)"/>
<use xlink:href="#f0_10" transform="matrix(12,0,0,12,473.8,251)"/>
<use xlink:href="#f0_b" transform="matrix(12,0,0,12,483.5,251)"/>
<use xlink:href="#f0_10" transform="matrix(12,0,0,12,496.7,251)"/>
<use xlink:href="#f0_j" transform="matrix(12,0,0,12,506.4,251)"/>
<use xlink:href="#f0_6" transform="matrix(12,0,0,12,516,251)"/>
<use xlink:href="#f0_m" transform="matrix(12,0,0,12,520.1,251)"/>
<use xlink:href="#f0_o" transform="matrix(12,0,0,12,524.4,251)"/>
<use xlink:href="#f0_b" transform="matrix(12,0,0,12,538.2,251)"/>
<use xlink:href="#f0_3" transform="matrix(12,0,0,12,547.4,251)"/>
<use xlink:href="#f0_l" transform="matrix(12,0,0,12,556.1,251)"/>
<use xlink:href="#f0_11" transform="matrix(12,0,0,12,563,251)"/>
<use xlink:href="#f0_10" transform="matrix(12,0,0,12,575.4,251)"/>
<use xlink:href="#f0_11" transform="matrix(12,0,0,12,584.8,251)"/>
<use xlink:href="#f0_y" transform="matrix(12,0,0,12,597.3,251)"/>
<use xlink:href="#f0_b" transform="matrix(12,0,0,12,604.7,251)"/>
<use xlink:href="#f0_a" transform="matrix(12,0,0,12,613.8,251)"/>
<use xlink:href="#f0_l" transform="matrix(12,0,0,12,623.4,251)"/>
<use xlink:href="#f0_n" transform="matrix(12,0,0,12,630.6,251)"/>
<use xlink:href="#f0_g" transform="matrix(12,0,0,12,640.2,251)"/>
<use xlink:href="#f0_25" transform="matrix(12,0,0,12,646.5,251)"/>
<use xlink:href="#f0_n" transform="matrix(12,0,0,12,656.3,251)"/>
<use xlink:href="#f0_13" transform="matrix(12,0,0,12,665.9,251)"/>
<use xlink:href="#f0_26" transform="matrix(12,0,0,12,683.1,251)"/>
<use xlink:href="#f0_b" transform="matrix(12,0,0,12,692.3,251)"/>
<use xlink:href="#f0_g" transform="matrix(12,0,0,12,701.5,251)"/>
<use xlink:href="#f0_3" transform="matrix(12,0,0,12,707.4,251)"/>
<use xlink:href="#f0_l" transform="matrix(12,0,0,12,716.1,251)"/>
<use xlink:href="#f0_3" transform="matrix(12,0,0,12,727.6,251)"/>
<use xlink:href="#f0_l" transform="matrix(12,0,0,12,736.3,251)"/>
<use xlink:href="#f0_t" transform="matrix(12,0,0,12,137.7,278.5)"/>
<use xlink:href="#f0_n" transform="matrix(12,0,0,12,142.8,278.5)"/>
<use xlink:href="#f0_m" transform="matrix(12,0,0,12,152.5,278.5)"/>
<use xlink:href="#f0_m" transform="matrix(12,0,0,12,156.7,278.5)"/>
<use xlink:href="#f0_n" transform="matrix(12,0,0,12,160.8,278.5)"/>
<use xlink:href="#f0_13" transform="matrix(12,0,0,12,170.5,278.5)"/>
<use xlink:href="#f0_6" transform="matrix(12,0,0,12,183.6,278.5)"/>
<use xlink:href="#f0_a" transform="matrix(12,0,0,12,187.8,278.5)"/>
<use xlink:href="#f0_h" transform="matrix(12,0,0,12,197.5,278.5)"/>
<use xlink:href="#f0_17" transform="matrix(12,0,0,12,206,278.5)"/>
<use xlink:href="#f0_d" transform="matrix(12,0,0,12,207.6,333.5)"/>
<use xlink:href="#f0_b" transform="matrix(12,0,0,12,218.9,333.5)"/>
<use xlink:href="#f0_a" transform="matrix(12,0,0,12,228.1,333.5)"/>
<use xlink:href="#f0_l" transform="matrix(12,0,0,12,237.7,333.5)"/>
<use xlink:href="#f0_b" transform="matrix(12,0,0,12,244.7,333.5)"/>
<use xlink:href="#f0_1w" transform="matrix(12,0,0,12,253.9,333.5)"/>
<use xlink:href="#f0_j" transform="matrix(12,0,0,12,259.4,333.5)"/>
<use xlink:href="#f0_a" transform="matrix(12,0,0,12,269.1,333.5)"/>
<use xlink:href="#f0_6" transform="matrix(12,0,0,12,278.7,333.5)"/>
<use xlink:href="#f0_k" transform="matrix(12,0,0,12,283,333.5)"/>
<use xlink:href="#f0_l" transform="matrix(12,0,0,12,289.1,333.5)"/>
<use xlink:href="#f0_27" transform="matrix(12,0,0,12,296.1,333.5)"/>
<use xlink:href="#f0_18" transform="matrix(12,0,0,12,305.3,333.5)"/>
<use xlink:href="#f0_x" transform="matrix(12,0,0,12,314.6,333.5)"/>
<use xlink:href="#f0_a" transform="matrix(12,0,0,12,323.3,333.5)"/>
<use xlink:href="#f0_3" transform="matrix(12,0,0,12,332.9,333.5)"/>
<use xlink:href="#f0_p" transform="matrix(12,0,0,12,341.6,333.5)"/>
<use xlink:href="#f0_b" transform="matrix(12,0,0,12,356.2,333.5)"/>
<use xlink:href="#f0_27" transform="matrix(12,0,0,12,365.4,333.5)"/>
<use xlink:href="#f0_28" transform="matrix(12,0,0,12,374.5,333.5)"/>
<use xlink:href="#f0_1u" transform="matrix(12,0,0,12,381.9,333.5)"/>
<use xlink:href="#f0_28" transform="matrix(12,0,0,12,389.1,333.5)"/>
<use xlink:href="#f0_19" transform="matrix(12,0,0,12,396.5,333.5)"/>
<use xlink:href="#f0_21" transform="matrix(12,0,0,12,137.7,388.5)"/>
<use xlink:href="#f0_n" transform="matrix(12,0,0,12,149.2,388.5)"/>
<use xlink:href="#f0_n" transform="matrix(12,0,0,12,158.9,388.5)"/>
<use xlink:href="#f0_h" transform="matrix(12,0,0,12,168.5,388.5)"/>
<use xlink:href="#f0_m" transform="matrix(12,0,0,12,177.1,388.5)"/>
<use xlink:href="#f0_b" transform="matrix(12,0,0,12,181.3,388.5)"/>
<use xlink:href="#f0_y" transform="matrix(12,0,0,12,194.6,388.5)"/>
<use xlink:href="#f0_b" transform="matrix(12,0,0,12,201.9,388.5)"/>
<use xlink:href="#f0_a" transform="matrix(12,0,0,12,211.1,388.5)"/>
<use xlink:href="#f0_l" transform="matrix(12,0,0,12,220.7,388.5)"/>
<use xlink:href="#f0_n" transform="matrix(12,0,0,12,227.9,388.5)"/>
<use xlink:href="#f0_g" transform="matrix(12,0,0,12,237.5,388.5)"/>
<use xlink:href="#f0_25" transform="matrix(12,0,0,12,243.7,388.5)"/>
<use xlink:href="#f0_n" transform="matrix(12,0,0,12,253.5,388.5)"/>
<use xlink:href="#f0_13" transform="matrix(12,0,0,12,263.1,388.5)"/>
<use xlink:href="#f0_4" transform="matrix(12,0,0,12,280.4,388.5)"/>
<use xlink:href="#f0_3" transform="matrix(12,0,0,12,288,388.5)"/>
<use xlink:href="#f0_m" transform="matrix(12,0,0,12,296.7,388.5)"/>
<use xlink:href="#f0_m" transform="matrix(12,0,0,12,300.9,388.5)"/>
<use xlink:href="#f0_b" transform="matrix(12,0,0,12,305.1,388.5)"/>
<use xlink:href="#f0_o" transform="matrix(12,0,0,12,314.3,388.5)"/>
<use xlink:href="#f0_6" transform="matrix(12,0,0,12,328,388.5)"/>
<use xlink:href="#f0_k" transform="matrix(12,0,0,12,332.3,388.5)"/>
<use xlink:href="#f0_d" transform="matrix(12,0,0,12,342.5,388.5)"/>
<use xlink:href="#f0_b" transform="matrix(12,0,0,12,353.8,388.5)"/>
<use xlink:href="#f0_a" transform="matrix(12,0,0,12,362.9,388.5)"/>
<use xlink:href="#f0_l" transform="matrix(12,0,0,12,372.6,388.5)"/>
<use xlink:href="#f0_b" transform="matrix(12,0,0,12,379.6,388.5)"/>
<use xlink:href="#f0_m" transform="matrix(12,0,0,12,392.9,388.5)"/>
<use xlink:href="#f0_3" transform="matrix(12,0,0,12,397.1,388.5)"/>
<use xlink:href="#f0_11" transform="matrix(12,0,0,12,405.5,388.5)"/>
<use xlink:href="#f0_b" transform="matrix(12,0,0,12,413.6,388.5)"/>
<use xlink:href="#f0_g" transform="matrix(12,0,0,12,422.8,388.5)"/>
<use xlink:href="#f0_3" transform="matrix(12,0,0,12,433.3,388.5)"/>
<use xlink:href="#f0_a" transform="matrix(12,0,0,12,442,388.5)"/>
<use xlink:href="#f0_o" transform="matrix(12,0,0,12,451.6,388.5)"/>
<use xlink:href="#f0_6" transform="matrix(12,0,0,12,465.5,388.5)"/>
<use xlink:href="#f0_k" transform="matrix(12,0,0,12,469.6,388.5)"/>
<use xlink:href="#f0_6" transform="matrix(12,0,0,12,479.8,388.5)"/>
<use xlink:href="#f0_l" transform="matrix(12,0,0,12,484.1,388.5)"/>
<use xlink:href="#f0_n" transform="matrix(12,0,0,12,495.4,388.5)"/>
<use xlink:href="#f0_a" transform="matrix(12,0,0,12,505,388.5)"/>
<use xlink:href="#f0_b" transform="matrix(12,0,0,12,514.6,388.5)"/>
<use xlink:href="#f0_j" transform="matrix(12,0,0,12,527.9,388.5)"/>
<use xlink:href="#f0_a" transform="matrix(12,0,0,12,537.5,388.5)"/>
<use xlink:href="#f0_6" transform="matrix(12,0,0,12,547.2,388.5)"/>
<use xlink:href="#f0_k" transform="matrix(12,0,0,12,551.4,388.5)"/>
<use xlink:href="#f0_6" transform="matrix(12,0,0,12,561.6,388.5)"/>
<use xlink:href="#f0_a" transform="matrix(12,0,0,12,565.9,388.5)"/>
<use xlink:href="#f0_3" transform="matrix(12,0,0,12,579.7,388.5)"/>
<use xlink:href="#f0_m" transform="matrix(12,0,0,12,592.6,388.5)"/>
<use xlink:href="#f0_3" transform="matrix(12,0,0,12,596.7,388.5)"/>
<use xlink:href="#f0_11" transform="matrix(12,0,0,12,605.1,388.5)"/>
<use xlink:href="#f0_b" transform="matrix(12,0,0,12,613.2,388.5)"/>
<use xlink:href="#f0_g" transform="matrix(12,0,0,12,622.4,388.5)"/>
<use xlink:href="#f0_u" transform="matrix(12,0,0,12,627,388.5)"/>
<use xlink:href="#f0_1a" transform="matrix(12,0,0,12,635.7,388.5)"/>
<use xlink:href="#f0_6" transform="matrix(12,0,0,12,645.1,388.5)"/>
<use xlink:href="#f0_4" transform="matrix(12,0,0,12,649.3,388.5)"/>
<use xlink:href="#f0_k" transform="matrix(12,0,0,12,657,388.5)"/>
<use xlink:href="#f0_n" transform="matrix(12,0,0,12,663,388.5)"/>
<use xlink:href="#f0_g" transform="matrix(12,0,0,12,672.6,388.5)"/>
<use xlink:href="#f0_6" transform="matrix(12,0,0,12,679,388.5)"/>
<use xlink:href="#f0_3" transform="matrix(12,0,0,12,683.3,388.5)"/>
<use xlink:href="#f0_m" transform="matrix(12,0,0,12,692,388.5)"/>
<use xlink:href="#f0_x" transform="matrix(12,0,0,12,696.2,388.5)"/>
<use xlink:href="#f0_6" transform="matrix(12,0,0,12,704.9,388.5)"/>
<use xlink:href="#f0_k" transform="matrix(12,0,0,12,709.2,388.5)"/>
<use xlink:href="#f0_4" transform="matrix(12,0,0,12,719.4,388.5)"/>
<use xlink:href="#f0_3" transform="matrix(12,0,0,12,727.1,388.5)"/>
<use xlink:href="#f0_a" transform="matrix(12,0,0,12,735.8,388.5)"/>
<use xlink:href="#f0_10" transform="matrix(12,0,0,12,749.5,388.5)"/>
<use xlink:href="#f0_b" transform="matrix(12,0,0,12,759.1,388.5)"/>
<use xlink:href="#f0_g" transform="matrix(12,0,0,12,137.7,416)"/>
<use xlink:href="#f0_b" transform="matrix(12,0,0,12,143.8,416)"/>
<use xlink:href="#f0_e" transform="matrix(12,0,0,12,152.9,416)"/>
<use xlink:href="#f0_g" transform="matrix(12,0,0,12,162.5,416)"/>
<use xlink:href="#f0_b" transform="matrix(12,0,0,12,168.6,416)"/>
<use xlink:href="#f0_l" transform="matrix(12,0,0,12,177.8,416)"/>
<use xlink:href="#f0_b" transform="matrix(12,0,0,12,185,416)"/>
<use xlink:href="#f0_a" transform="matrix(12,0,0,12,194.1,416)"/>
<use xlink:href="#f0_k" transform="matrix(12,0,0,12,203.6,416)"/>
<use xlink:href="#f0_b" transform="matrix(12,0,0,12,209.4,416)"/>
<use xlink:href="#f0_o" transform="matrix(12,0,0,12,218.5,416)"/>
<use xlink:href="#f0_10" transform="matrix(12,0,0,12,232.4,416)"/>
<use xlink:href="#f0_11" transform="matrix(12,0,0,12,241.9,416)"/>
<use xlink:href="#f0_3" transform="matrix(12,0,0,12,254.4,416)"/>
<use xlink:href="#f0_4" transform="matrix(12,0,0,12,267.2,416)"/>
<use xlink:href="#f0_6" transform="matrix(12,0,0,12,275,416)"/>
<use xlink:href="#f0_g" transform="matrix(12,0,0,12,279.3,416)"/>
<use xlink:href="#f0_4" transform="matrix(12,0,0,12,285.2,416)"/>
<use xlink:href="#f0_m" transform="matrix(12,0,0,12,293,416)"/>
<use xlink:href="#f0_b" transform="matrix(12,0,0,12,297.1,416)"/>
<use xlink:href="#f0_13" transform="matrix(12,0,0,12,310.5,416)"/>
<use xlink:href="#f0_6" transform="matrix(12,0,0,12,323.5,416)"/>
<use xlink:href="#f0_k" transform="matrix(12,0,0,12,327.8,416)"/>
<use xlink:href="#f0_5" transform="matrix(12,0,0,12,333.9,416)"/>
<use xlink:href="#f0_13" transform="matrix(12,0,0,12,347.6,416)"/>
<use xlink:href="#f0_b" transform="matrix(12,0,0,12,360.6,416)"/>
<use xlink:href="#f0_6" transform="matrix(12,0,0,12,369.6,416)"/>
<use xlink:href="#f0_h" transform="matrix(12,0,0,12,373.9,416)"/>
<use xlink:href="#f0_5" transform="matrix(12,0,0,12,382.4,416)"/>
<use xlink:href="#f0_k" transform="matrix(12,0,0,12,391.9,416)"/>
<use xlink:href="#f0_l" transform="matrix(12,0,0,12,398,416)"/>
<use xlink:href="#f0_3" transform="matrix(12,0,0,12,409.4,416)"/>
<use xlink:href="#f0_g" transform="matrix(12,0,0,12,418.2,416)"/>
<use xlink:href="#f0_n" transform="matrix(12,0,0,12,424.3,416)"/>
<use xlink:href="#f0_j" transform="matrix(12,0,0,12,433.9,416)"/>
<use xlink:href="#f0_a" transform="matrix(12,0,0,12,443.5,416)"/>
<use xlink:href="#f0_o" transform="matrix(12,0,0,12,453.1,416)"/>
<use xlink:href="#f0_6" transform="matrix(12,0,0,12,467,416)"/>
<use xlink:href="#f0_k" transform="matrix(12,0,0,12,471.3,416)"/>
<use xlink:href="#f0_u" transform="matrix(12,0,0,12,477.4,416)"/>
</g>
<image clip-path="url(#c2_3)" preserveAspectRatio="none" x="330" y="451" width="248" height="258" xlink:href="img/2.jpg"/>
<g fill="#000000"  clip-path="url(#c0_3)">
<use xlink:href="#f0_1l" transform="matrix(12,0,0,12,418.2,746)"/>
<use xlink:href="#f0_6" transform="matrix(12,0,0,12,426.5,746)"/>
<use xlink:href="#f0_h" transform="matrix(12,0,0,12,430.8,746)"/>
<use xlink:href="#f0_j" transform="matrix(12,0,0,12,439.4,746)"/>
<use xlink:href="#f0_g" transform="matrix(12,0,0,12,449,746)"/>
<use xlink:href="#f0_b" transform="matrix(12,0,0,12,455.1,746)"/>
<use xlink:href="#f0_18" transform="matrix(12,0,0,12,468.5,746)"/>
<use xlink:href="#f0_u" transform="matrix(12,0,0,12,477.8,746)"/>
<use xlink:href="#f0_18" transform="matrix(12,0,0,12,482.4,746)"/>
<use xlink:href="#f0_1p" transform="matrix(12,0,0,12,137.7,801)"/>
<use xlink:href="#f0_t" transform="matrix(12,0,0,12,142.2,801)"/>
<use xlink:href="#f0_13" transform="matrix(12,0,0,12,152,801)"/>
<use xlink:href="#f0_b" transform="matrix(12,0,0,12,165,801)"/>
<use xlink:href="#f0_5" transform="matrix(12,0,0,12,178.2,801)"/>
<use xlink:href="#f0_3" transform="matrix(12,0,0,12,187.9,801)"/>
<use xlink:href="#f0_z" transform="matrix(12,0,0,12,196.3,801)"/>
<use xlink:href="#f0_b" transform="matrix(12,0,0,12,204.4,801)"/>
<use xlink:href="#f0_18" transform="matrix(12,0,0,12,217.6,801)"/>
<use xlink:href="#f0_1t" transform="matrix(12,0,0,12,226.9,801)"/>
<use xlink:href="#f0_j" transform="matrix(12,0,0,12,240.4,801)"/>
<use xlink:href="#f0_a" transform="matrix(12,0,0,12,250,801)"/>
<use xlink:href="#f0_6" transform="matrix(12,0,0,12,259.6,801)"/>
<use xlink:href="#f0_k" transform="matrix(12,0,0,12,263.9,801)"/>
<use xlink:href="#f0_l" transform="matrix(12,0,0,12,270,801)"/>
<use xlink:href="#f0_6" transform="matrix(12,0,0,12,281.3,801)"/>
<use xlink:href="#f0_a" transform="matrix(12,0,0,12,285.5,801)"/>
<use xlink:href="#f0_e" transform="matrix(12,0,0,12,299.3,801)"/>
<use xlink:href="#f0_3" transform="matrix(12,0,0,12,308.9,801)"/>
<use xlink:href="#f0_g" transform="matrix(12,0,0,12,317.6,801)"/>
<use xlink:href="#f0_3" transform="matrix(12,0,0,12,323.7,801)"/>
<use xlink:href="#f0_m" transform="matrix(12,0,0,12,332.4,801)"/>
<use xlink:href="#f0_m" transform="matrix(12,0,0,12,336.5,801)"/>
<use xlink:href="#f0_b" transform="matrix(12,0,0,12,340.8,801)"/>
<use xlink:href="#f0_m" transform="matrix(12,0,0,12,349.8,801)"/>
<use xlink:href="#f0_x" transform="matrix(12,0,0,12,354.1,801)"/>
<use xlink:href="#f0_6" transform="matrix(12,0,0,12,362.9,801)"/>
<use xlink:href="#f0_k" transform="matrix(12,0,0,12,367,801)"/>
<use xlink:href="#f0_4" transform="matrix(12,0,0,12,377.2,801)"/>
<use xlink:href="#f0_3" transform="matrix(12,0,0,12,384.9,801)"/>
<use xlink:href="#f0_a" transform="matrix(12,0,0,12,393.6,801)"/>
<use xlink:href="#f0_10" transform="matrix(12,0,0,12,407.5,801)"/>
<use xlink:href="#f0_b" transform="matrix(12,0,0,12,417.1,801)"/>
<use xlink:href="#f0_o" transform="matrix(12,0,0,12,430.4,801)"/>
<use xlink:href="#f0_b" transform="matrix(12,0,0,12,440,801)"/>
<use xlink:href="#f0_l" transform="matrix(12,0,0,12,449,801)"/>
<use xlink:href="#f0_4" transform="matrix(12,0,0,12,456.2,801)"/>
<use xlink:href="#f0_g" transform="matrix(12,0,0,12,463.9,801)"/>
<use xlink:href="#f0_6" transform="matrix(12,0,0,12,470.3,801)"/>
<use xlink:href="#f0_10" transform="matrix(12,0,0,12,474.6,801)"/>
<use xlink:href="#f0_b" transform="matrix(12,0,0,12,484.1,801)"/>
<use xlink:href="#f0_o" transform="matrix(12,0,0,12,493.2,801)"/>
<use xlink:href="#f0_3" transform="matrix(12,0,0,12,507.1,801)"/>
<use xlink:href="#f0_l" transform="matrix(12,0,0,12,515.8,801)"/>
<use xlink:href="#f0_t" transform="matrix(12,0,0,12,527.1,801)"/>
<use xlink:href="#f0_n" transform="matrix(12,0,0,12,532.3,801)"/>
<use xlink:href="#f0_m" transform="matrix(12,0,0,12,541.9,801)"/>
<use xlink:href="#f0_m" transform="matrix(12,0,0,12,546,801)"/>
<use xlink:href="#f0_n" transform="matrix(12,0,0,12,550.3,801)"/>
<use xlink:href="#f0_13" transform="matrix(12,0,0,12,559.9,801)"/>
<use xlink:href="#f0_6" transform="matrix(12,0,0,12,573.1,801)"/>
<use xlink:href="#f0_a" transform="matrix(12,0,0,12,577.3,801)"/>
<use xlink:href="#f0_h" transform="matrix(12,0,0,12,586.9,801)"/>
<use xlink:href="#f0_17" transform="matrix(12,0,0,12,595.5,801)"/>
<use xlink:href="#f0_d" transform="matrix(12,0,0,12,207.6,856)"/>
<use xlink:href="#f0_b" transform="matrix(12,0,0,12,218.9,856)"/>
<use xlink:href="#f0_a" transform="matrix(12,0,0,12,228.1,856)"/>
<use xlink:href="#f0_l" transform="matrix(12,0,0,12,237.7,856)"/>
<use xlink:href="#f0_b" transform="matrix(12,0,0,12,244.7,856)"/>
<use xlink:href="#f0_1w" transform="matrix(12,0,0,12,253.9,856)"/>
<use xlink:href="#f0_18" transform="matrix(12,0,0,12,259.4,856)"/>
<use xlink:href="#f0_1t" transform="matrix(12,0,0,12,268.7,856)"/>
<use xlink:href="#f0_x" transform="matrix(12,0,0,12,278,856)"/>
<use xlink:href="#f0_a" transform="matrix(12,0,0,12,286.8,856)"/>
<use xlink:href="#f0_3" transform="matrix(12,0,0,12,296.4,856)"/>
<use xlink:href="#f0_p" transform="matrix(12,0,0,12,305.1,856)"/>
<use xlink:href="#f0_b" transform="matrix(12,0,0,12,319.8,856)"/>
<use xlink:href="#f0_27" transform="matrix(12,0,0,12,328.8,856)"/>
<use xlink:href="#f0_28" transform="matrix(12,0,0,12,337.9,856)"/>
<use xlink:href="#f0_f" transform="matrix(12,0,0,12,345.3,856)"/>
<use xlink:href="#f0_3" transform="matrix(12,0,0,12,353,856)"/>
<use xlink:href="#f0_11" transform="matrix(12,0,0,12,361.4,856)"/>
<use xlink:href="#f0_b" transform="matrix(12,0,0,12,369.5,856)"/>
<use xlink:href="#f0_g" transform="matrix(12,0,0,12,378.7,856)"/>
<use xlink:href="#f0_13" transform="matrix(12,0,0,12,389.2,856)"/>
<use xlink:href="#f0_6" transform="matrix(12,0,0,12,402.2,856)"/>
<use xlink:href="#f0_k" transform="matrix(12,0,0,12,406.4,856)"/>
<use xlink:href="#f0_5" transform="matrix(12,0,0,12,412.5,856)"/>
<use xlink:href="#f0_18" transform="matrix(12,0,0,12,426.3,856)"/>
<use xlink:href="#f0_1t" transform="matrix(12,0,0,12,435.6,856)"/>
<use xlink:href="#f0_j" transform="matrix(12,0,0,12,449,856)"/>
<use xlink:href="#f0_a" transform="matrix(12,0,0,12,458.6,856)"/>
<use xlink:href="#f0_6" transform="matrix(12,0,0,12,468.3,856)"/>
<use xlink:href="#f0_k" transform="matrix(12,0,0,12,472.5,856)"/>
<use xlink:href="#f0_l" transform="matrix(12,0,0,12,478.6,856)"/>
<use xlink:href="#f0_2a" transform="matrix(12,0,0,12,485.8,856)"/>
<use xlink:href="#f0_19" transform="matrix(12,0,0,12,493.4,856)"/>
<use xlink:href="#f0_2b" transform="matrix(12,0,0,12,137.7,911)"/>
<use xlink:href="#f0_11" transform="matrix(12,0,0,12,147.4,911)"/>
<use xlink:href="#f0_p" transform="matrix(12,0,0,12,159.9,911)"/>
<use xlink:href="#f0_3" transform="matrix(12,0,0,12,174.6,911)"/>
<use xlink:href="#f0_q" transform="matrix(12,0,0,12,183.3,911)"/>
<use xlink:href="#f0_6" transform="matrix(12,0,0,12,191.5,911)"/>
<use xlink:href="#f0_a" transform="matrix(12,0,0,12,195.8,911)"/>
<use xlink:href="#f0_h" transform="matrix(12,0,0,12,205.4,911)"/>
<use xlink:href="#f0_j" transform="matrix(12,0,0,12,218.2,911)"/>
<use xlink:href="#f0_l" transform="matrix(12,0,0,12,227.9,911)"/>
<use xlink:href="#f0_b" transform="matrix(12,0,0,12,235,911)"/>
<use xlink:href="#f0_n" transform="matrix(12,0,0,12,248.3,911)"/>
<use xlink:href="#f0_t" transform="matrix(12,0,0,12,257.9,911)"/>
<use xlink:href="#f0_k" transform="matrix(12,0,0,12,267.7,911)"/>
<use xlink:href="#f0_5" transform="matrix(12,0,0,12,273.8,911)"/>
<use xlink:href="#f0_6" transform="matrix(12,0,0,12,283.4,911)"/>
<use xlink:href="#f0_l" transform="matrix(12,0,0,12,287.7,911)"/>
<use xlink:href="#f0_d" transform="matrix(12,0,0,12,298.9,911)"/>
<use xlink:href="#f0_b" transform="matrix(12,0,0,12,310.1,911)"/>
<use xlink:href="#f0_a" transform="matrix(12,0,0,12,319.2,911)"/>
<use xlink:href="#f0_l" transform="matrix(12,0,0,12,328.9,911)"/>
<use xlink:href="#f0_b" transform="matrix(12,0,0,12,336,911)"/>
<use xlink:href="#f0_m" transform="matrix(12,0,0,12,349.3,911)"/>
<use xlink:href="#f0_3" transform="matrix(12,0,0,12,353.6,911)"/>
<use xlink:href="#f0_11" transform="matrix(12,0,0,12,362,911)"/>
<use xlink:href="#f0_b" transform="matrix(12,0,0,12,369.9,911)"/>
<use xlink:href="#f0_g" transform="matrix(12,0,0,12,379,911)"/>
<use xlink:href="#f0_x" transform="matrix(12,0,0,12,383.9,911)"/>
<use xlink:href="#f0_z" transform="matrix(12,0,0,12,392.6,911)"/>
<use xlink:href="#f0_b" transform="matrix(12,0,0,12,400.7,911)"/>
<use xlink:href="#f0_g" transform="matrix(12,0,0,12,409.9,911)"/>
<use xlink:href="#f0_11" transform="matrix(12,0,0,12,416.3,911)"/>
<use xlink:href="#f0_4" transform="matrix(12,0,0,12,428.7,911)"/>
<use xlink:href="#f0_n" transform="matrix(12,0,0,12,436.3,911)"/>
<use xlink:href="#f0_p" transform="matrix(12,0,0,12,445.9,911)"/>
<use xlink:href="#f0_e" transform="matrix(12,0,0,12,460.6,911)"/>
<use xlink:href="#f0_m" transform="matrix(12,0,0,12,470.2,911)"/>
<use xlink:href="#f0_6" transform="matrix(12,0,0,12,474.3,911)"/>
<use xlink:href="#f0_4" transform="matrix(12,0,0,12,478.6,911)"/>
<use xlink:href="#f0_3" transform="matrix(12,0,0,12,486.2,911)"/>
<use xlink:href="#f0_k" transform="matrix(12,0,0,12,494.8,911)"/>
<use xlink:href="#f0_b" transform="matrix(12,0,0,12,500.7,911)"/>
<use xlink:href="#f0_o" transform="matrix(12,0,0,12,514,911)"/>
<use xlink:href="#f0_b" transform="matrix(12,0,0,12,523.6,911)"/>
<use xlink:href="#f0_b" transform="matrix(12,0,0,12,532.8,911)"/>
<use xlink:href="#f0_e" transform="matrix(12,0,0,12,541.9,911)"/>
<use xlink:href="#f0_m" transform="matrix(12,0,0,12,555.7,911)"/>
<use xlink:href="#f0_b" transform="matrix(12,0,0,12,559.8,911)"/>
<use xlink:href="#f0_3" transform="matrix(12,0,0,12,569,911)"/>
<use xlink:href="#f0_g" transform="matrix(12,0,0,12,577.7,911)"/>
<use xlink:href="#f0_a" transform="matrix(12,0,0,12,584.1,911)"/>
<use xlink:href="#f0_6" transform="matrix(12,0,0,12,593.7,911)"/>
<use xlink:href="#f0_a" transform="matrix(12,0,0,12,597.9,911)"/>
<use xlink:href="#f0_h" transform="matrix(12,0,0,12,607.6,911)"/>
<use xlink:href="#f0_a" transform="matrix(12,0,0,12,620.4,911)"/>
<use xlink:href="#f0_b" transform="matrix(12,0,0,12,630,911)"/>
<use xlink:href="#f0_k" transform="matrix(12,0,0,12,639,911)"/>
<use xlink:href="#f0_13" transform="matrix(12,0,0,12,645.1,911)"/>
<use xlink:href="#f0_n" transform="matrix(12,0,0,12,658.1,911)"/>
<use xlink:href="#f0_g" transform="matrix(12,0,0,12,667.7,911)"/>
<use xlink:href="#f0_q" transform="matrix(12,0,0,12,674,911)"/>
<use xlink:href="#f0_4" transform="matrix(12,0,0,12,686.6,911)"/>
<use xlink:href="#f0_3" transform="matrix(12,0,0,12,694.3,911)"/>
<use xlink:href="#f0_a" transform="matrix(12,0,0,12,703,911)"/>
<use xlink:href="#f0_10" transform="matrix(12,0,0,12,716.7,911)"/>
<use xlink:href="#f0_b" transform="matrix(12,0,0,12,726.4,911)"/>
<use xlink:href="#f0_10" transform="matrix(12,0,0,12,137.7,938.5)"/>
<use xlink:href="#f0_j" transform="matrix(12,0,0,12,147.3,938.5)"/>
<use xlink:href="#f0_6" transform="matrix(12,0,0,12,156.9,938.5)"/>
<use xlink:href="#f0_m" transform="matrix(12,0,0,12,161,938.5)"/>
<use xlink:href="#f0_k" transform="matrix(12,0,0,12,165.3,938.5)"/>
<use xlink:href="#f0_b" transform="matrix(12,0,0,12,175.7,938.5)"/>
<use xlink:href="#f0_3" transform="matrix(12,0,0,12,184.8,938.5)"/>
<use xlink:href="#f0_l" transform="matrix(12,0,0,12,193.5,938.5)"/>
<use xlink:href="#f0_6" transform="matrix(12,0,0,12,200.5,938.5)"/>
<use xlink:href="#f0_m" transform="matrix(12,0,0,12,204.8,938.5)"/>
<use xlink:href="#f0_11" transform="matrix(12,0,0,12,209,938.5)"/>
<use xlink:href="#f0_u" transform="matrix(12,0,0,12,216.1,938.5)"/>
<use xlink:href="#f0_1p" transform="matrix(12,0,0,12,224.9,938.5)"/>
<use xlink:href="#f0_t" transform="matrix(12,0,0,12,229.5,938.5)"/>
<use xlink:href="#f0_11" transform="matrix(12,0,0,12,239.2,938.5)"/>
<use xlink:href="#f0_n" transform="matrix(12,0,0,12,247.3,938.5)"/>
<use xlink:href="#f0_j" transform="matrix(12,0,0,12,257,938.5)"/>
<use xlink:href="#f0_e" transform="matrix(12,0,0,12,270.7,938.5)"/>
<use xlink:href="#f0_g" transform="matrix(12,0,0,12,280.3,938.5)"/>
<use xlink:href="#f0_b" transform="matrix(12,0,0,12,286.4,938.5)"/>
<use xlink:href="#f0_t" transform="matrix(12,0,0,12,295.5,938.5)"/>
<use xlink:href="#f0_b" transform="matrix(12,0,0,12,300.7,938.5)"/>
<use xlink:href="#f0_g" transform="matrix(12,0,0,12,309.7,938.5)"/>
<use xlink:href="#f0_1a" transform="matrix(12,0,0,12,320.3,938.5)"/>
<use xlink:href="#f0_11" transform="matrix(12,0,0,12,329.9,938.5)"/>
<use xlink:href="#f0_y" transform="matrix(12,0,0,12,338,938.5)"/>
<use xlink:href="#f0_n" transform="matrix(12,0,0,12,345.4,938.5)"/>
<use xlink:href="#f0_g" transform="matrix(12,0,0,12,355,938.5)"/>
<use xlink:href="#f0_4" transform="matrix(12,0,0,12,361.1,938.5)"/>
<use xlink:href="#f0_5" transform="matrix(12,0,0,12,368.9,938.5)"/>
<use xlink:href="#f0_12" transform="matrix(12,0,0,12,378.5,938.5)"/>
<use xlink:href="#f0_l" transform="matrix(12,0,0,12,382,938.5)"/>
<use xlink:href="#f0_l" transform="matrix(12,0,0,12,393.3,938.5)"/>
<use xlink:href="#f0_11" transform="matrix(12,0,0,12,400.2,938.5)"/>
<use xlink:href="#f0_a" transform="matrix(12,0,0,12,408.4,938.5)"/>
<use xlink:href="#f0_k" transform="matrix(12,0,0,12,417.9,938.5)"/>
<use xlink:href="#f0_3" transform="matrix(12,0,0,12,423.9,938.5)"/>
<use xlink:href="#f0_14" transform="matrix(12,0,0,12,432.4,938.5)"/>
<use xlink:href="#f0_x" transform="matrix(12,0,0,12,440.4,938.5)"/>
<use xlink:href="#f0_11" transform="matrix(12,0,0,12,449.1,938.5)"/>
<use xlink:href="#f0_n" transform="matrix(12,0,0,12,457.2,938.5)"/>
<use xlink:href="#f0_j" transform="matrix(12,0,0,12,466.8,938.5)"/>
<use xlink:href="#f0_4" transform="matrix(12,0,0,12,480.7,938.5)"/>
<use xlink:href="#f0_3" transform="matrix(12,0,0,12,488.3,938.5)"/>
<use xlink:href="#f0_a" transform="matrix(12,0,0,12,497,938.5)"/>
<use xlink:href="#f0_g" transform="matrix(12,0,0,12,510.8,938.5)"/>
<use xlink:href="#f0_b" transform="matrix(12,0,0,12,516.9,938.5)"/>
<use xlink:href="#f0_t" transform="matrix(12,0,0,12,525.9,938.5)"/>
<use xlink:href="#f0_b" transform="matrix(12,0,0,12,531.1,938.5)"/>
<use xlink:href="#f0_g" transform="matrix(12,0,0,12,540.1,938.5)"/>
<use xlink:href="#f0_k" transform="matrix(12,0,0,12,550.8,938.5)"/>
<use xlink:href="#f0_n" transform="matrix(12,0,0,12,556.7,938.5)"/>
<use xlink:href="#f0_1x" transform="matrix(12,0,0,12,570.5,938.5)"/>
<use xlink:href="#f0_1i" transform="matrix(12,0,0,12,576.1,938.5)"/>
<use xlink:href="#f0_1y" transform="matrix(12,0,0,12,585.3,938.5)"/>
<use xlink:href="#f0_13" transform="matrix(12,0,0,12,595.1,938.5)"/>
<use xlink:href="#f0_5" transform="matrix(12,0,0,12,608.1,938.5)"/>
<use xlink:href="#f0_6" transform="matrix(12,0,0,12,617.7,938.5)"/>
<use xlink:href="#f0_4" transform="matrix(12,0,0,12,622,938.5)"/>
<use xlink:href="#f0_5" transform="matrix(12,0,0,12,629.8,938.5)"/>
<use xlink:href="#f0_6" transform="matrix(12,0,0,12,643.5,938.5)"/>
<use xlink:href="#f0_l" transform="matrix(12,0,0,12,647.6,938.5)"/>
<use xlink:href="#f0_4" transform="matrix(12,0,0,12,659.1,938.5)"/>
<use xlink:href="#f0_3" transform="matrix(12,0,0,12,666.7,938.5)"/>
<use xlink:href="#f0_m" transform="matrix(12,0,0,12,675.3,938.5)"/>
<use xlink:href="#f0_m" transform="matrix(12,0,0,12,679.5,938.5)"/>
<use xlink:href="#f0_b" transform="matrix(12,0,0,12,683.7,938.5)"/>
<use xlink:href="#f0_o" transform="matrix(12,0,0,12,692.8,938.5)"/>
<use xlink:href="#f0_k" transform="matrix(12,0,0,12,137.7,966)"/>
<use xlink:href="#f0_n" transform="matrix(12,0,0,12,143.6,966)"/>
<use xlink:href="#f0_g" transform="matrix(12,0,0,12,153.2,966)"/>
<use xlink:href="#f0_4" transform="matrix(12,0,0,12,159.3,966)"/>
<use xlink:href="#f0_5" transform="matrix(12,0,0,12,167.1,966)"/>
<use xlink:href="#f0_u" transform="matrix(12,0,0,12,176.7,966)"/>
<use xlink:href="#f0_a" transform="matrix(12,0,0,12,181.3,966)"/>
<use xlink:href="#f0_a" transform="matrix(12,0,0,12,190.9,966)"/>
<use xlink:href="#f0_u" transform="matrix(12,0,0,12,200.7,966)"/>
<use xlink:href="#f0_f" transform="matrix(12,0,0,12,205.3,966)"/>
<use xlink:href="#f0_6" transform="matrix(12,0,0,12,212.9,966)"/>
<use xlink:href="#f0_a" transform="matrix(12,0,0,12,217.2,966)"/>
<use xlink:href="#f0_b" transform="matrix(12,0,0,12,226.8,966)"/>
<use xlink:href="#f0_3" transform="matrix(12,0,0,12,236,966)"/>
<use xlink:href="#f0_g" transform="matrix(12,0,0,12,244.7,966)"/>
<use xlink:href="#f0_1w" transform="matrix(12,0,0,12,251.1,966)"/>
<use xlink:href="#f0_19" transform="matrix(12,0,0,12,256.7,966)"/>
<use xlink:href="#f0_6" transform="matrix(12,0,0,12,266.3,966)"/>
<use xlink:href="#f0_a" transform="matrix(12,0,0,12,270.6,966)"/>
<use xlink:href="#f0_l" transform="matrix(12,0,0,12,280,966)"/>
<use xlink:href="#f0_k" transform="matrix(12,0,0,12,287.1,966)"/>
<use xlink:href="#f0_b" transform="matrix(12,0,0,12,293,966)"/>
<use xlink:href="#f0_3" transform="matrix(12,0,0,12,302.2,966)"/>
<use xlink:href="#f0_o" transform="matrix(12,0,0,12,310.9,966)"/>
<use xlink:href="#f0_u" transform="matrix(12,0,0,12,320.5,966)"/>
<use xlink:href="#f0_y" transform="matrix(12,0,0,12,192.7,1021)"/>
<use xlink:href="#f0_5" transform="matrix(12,0,0,12,201.5,1021)"/>
<use xlink:href="#f0_b" transform="matrix(12,0,0,12,211.1,1021)"/>
<use xlink:href="#f0_m" transform="matrix(12,0,0,12,224.6,1021)"/>
<use xlink:href="#f0_3" transform="matrix(12,0,0,12,228.7,1021)"/>
<use xlink:href="#f0_11" transform="matrix(12,0,0,12,237.1,1021)"/>
<use xlink:href="#f0_b" transform="matrix(12,0,0,12,245.2,1021)"/>
<use xlink:href="#f0_g" transform="matrix(12,0,0,12,254.3,1021)"/>
<use xlink:href="#f0_l" transform="matrix(12,0,0,12,260.4,1021)"/>
<use xlink:href="#f0_4" transform="matrix(12,0,0,12,271.7,1021)"/>
<use xlink:href="#f0_3" transform="matrix(12,0,0,12,279.4,1021)"/>
<use xlink:href="#f0_a" transform="matrix(12,0,0,12,288.1,1021)"/>
<use xlink:href="#f0_10" transform="matrix(12,0,0,12,301.8,1021)"/>
<use xlink:href="#f0_b" transform="matrix(12,0,0,12,311.5,1021)"/>
<use xlink:href="#f0_t" transform="matrix(12,0,0,12,324.7,1021)"/>
<use xlink:href="#f0_j" transform="matrix(12,0,0,12,330.4,1021)"/>
<use xlink:href="#f0_g" transform="matrix(12,0,0,12,340,1021)"/>
<use xlink:href="#f0_k" transform="matrix(12,0,0,12,346.4,1021)"/>
<use xlink:href="#f0_5" transform="matrix(12,0,0,12,352.5,1021)"/>
<use xlink:href="#f0_b" transform="matrix(12,0,0,12,362.1,1021)"/>
<use xlink:href="#f0_g" transform="matrix(12,0,0,12,371.1,1021)"/>
<use xlink:href="#f0_4" transform="matrix(12,0,0,12,381.8,1021)"/>
<use xlink:href="#f0_3" transform="matrix(12,0,0,12,389.4,1021)"/>
<use xlink:href="#f0_l" transform="matrix(12,0,0,12,398.1,1021)"/>
<use xlink:href="#f0_4" transform="matrix(12,0,0,12,405.3,1021)"/>
<use xlink:href="#f0_3" transform="matrix(12,0,0,12,412.9,1021)"/>
<use xlink:href="#f0_o" transform="matrix(12,0,0,12,421.7,1021)"/>
<use xlink:href="#f0_b" transform="matrix(12,0,0,12,431.3,1021)"/>
<use xlink:href="#f0_o" transform="matrix(12,0,0,12,440.4,1021)"/>
<use xlink:href="#f0_6" transform="matrix(12,0,0,12,454.2,1021)"/>
<use xlink:href="#f0_a" transform="matrix(12,0,0,12,458.4,1021)"/>
<use xlink:href="#f0_l" transform="matrix(12,0,0,12,472.2,1021)"/>
<use xlink:href="#f0_b" transform="matrix(12,0,0,12,479.2,1021)"/>
<use xlink:href="#f0_g" transform="matrix(12,0,0,12,488.4,1021)"/>
<use xlink:href="#f0_6" transform="matrix(12,0,0,12,494.7,1021)"/>
<use xlink:href="#f0_3" transform="matrix(12,0,0,12,499,1021)"/>
<use xlink:href="#f0_m" transform="matrix(12,0,0,12,507.7,1021)"/>
<use xlink:href="#f0_k" transform="matrix(12,0,0,12,516.1,1021)"/>
<use xlink:href="#f0_n" transform="matrix(12,0,0,12,522,1021)"/>
<use xlink:href="#f0_t" transform="matrix(12,0,0,12,535.8,1021)"/>
<use xlink:href="#f0_n" transform="matrix(12,0,0,12,541,1021)"/>
<use xlink:href="#f0_g" transform="matrix(12,0,0,12,550.6,1021)"/>
<use xlink:href="#f0_p" transform="matrix(12,0,0,12,557,1021)"/>
<use xlink:href="#f0_3" transform="matrix(12,0,0,12,575.8,1021)"/>
<use xlink:href="#f0_o" transform="matrix(12,0,0,12,588.7,1021)"/>
<use xlink:href="#f0_b" transform="matrix(12,0,0,12,598.4,1021)"/>
<use xlink:href="#f0_b" transform="matrix(12,0,0,12,607.5,1021)"/>
<use xlink:href="#f0_e" transform="matrix(12,0,0,12,616.7,1021)"/>
<use xlink:href="#f0_b" transform="matrix(12,0,0,12,626.1,1021)"/>
<use xlink:href="#f0_g" transform="matrix(12,0,0,12,635.3,1021)"/>
<use xlink:href="#f0_a" transform="matrix(12,0,0,12,645.8,1021)"/>
<use xlink:href="#f0_b" transform="matrix(12,0,0,12,655.4,1021)"/>
<use xlink:href="#f0_k" transform="matrix(12,0,0,12,664.5,1021)"/>
<use xlink:href="#f0_13" transform="matrix(12,0,0,12,670.6,1021)"/>
<use xlink:href="#f0_n" transform="matrix(12,0,0,12,683.5,1021)"/>
<use xlink:href="#f0_g" transform="matrix(12,0,0,12,693.2,1021)"/>
<use xlink:href="#f0_q" transform="matrix(12,0,0,12,699.6,1021)"/>
<use xlink:href="#f0_u" transform="matrix(12,0,0,12,707.9,1021)"/>
</g>
</svg>