<?xml version="1.0" encoding="UTF-8" standalone="no"?>
<!DOCTYPE svg PUBLIC "-//W3C//DTD SVG 1.1//EN"
"http://www.w3.org/Graphics/SVG/1.1/DTD/svg11.dtd">
<svg viewBox="0 0 909 1286" version="1.1" xmlns="http://www.w3.org/2000/svg" xmlns:xlink="http://www.w3.org/1999/xlink">
<defs>
<style type="text/css"><![CDATA[
.g0{
fill: #0000FF;
}
]]></style>
<path d="M382,534c0,0,51,0,88,12c0,0,37,12,61,35c0,0,25,22,36,51c0,0,12,30,12,65c0,0,0,57,-25,96c0,0,-26,40,-86,57c0,0,-18,5,-42,7c0,0,-23,2,-61,2H256V534ZM192,-4c0,0,-18,0,-31,2c0,0,-12,2,-19,3c0,0,-8,3,-11,8c0,0,-3,4,-3,10V913c0,0,0,29,15,40c0,0,16,12,33,12H381c0,0,37,0,61,-2c0,0,24,-2,44,-4c0,0,56,-10,98,-30c0,0,43,-21,73,-53c0,0,29,-33,43,-74c0,0,15,-41,15,-91c0,0,0,-49,-13,-87c0,0,-13,-39,-38,-68c0,0,-25,-30,-59,-51c0,0,-34,-22,-77,-37c0,0,24,-10,43,-26c0,0,20,-16,37,-39c0,0,16,-22,31,-51c0,0,15,-29,30,-66L756,73c0,0,10,-26,13,-37c0,0,3,-11,3,-17c0,0,0,-6,-2,-10c0,0,-2,-5,-10,-8c0,0,-7,-2,-21,-3c0,0,-13,-2,-36,-2c0,0,-19,0,-31,2c0,0,-13,1,-20,3c0,0,-7,4,-12,10c0,0,-4,6,-7,15L545,253c0,0,-16,39,-33,72c0,0,-17,32,-40,56c0,0,-23,23,-54,36c0,0,-32,13,-76,13H256V19c0,0,0,-6,-3,-10c0,0,-3,-5,-10,-8c0,0,-7,-1,-20,-3c0,0,-12,-2,-31,-2Z"
id="f0_2j"
transform="scale(0.001,-0.001)"/>

<path d="M564,420c0,0,2,98,-43,153c0,0,-46,56,-134,56c0,0,-46,0,-80,-18c0,0,-35,-17,-58,-45c0,0,-23,-29,-36,-67c0,0,-12,-37,-14,-79ZM405,-13c0,0,-83,0,-145,22c0,0,-62,24,-105,69c0,0,-42,46,-64,114c0,0,-22,69,-22,160c0,0,0,87,23,156c0,0,22,69,64,117c0,0,43,48,102,74c0,0,60,26,134,26c0,0,79,0,135,-26c0,0,55,-25,91,-68c0,0,36,-43,53,-101c0,0,16,-58,16,-123V384c0,0,0,-29,-14,-41c0,0,-15,-13,-33,-13H199c0,0,0,-56,11,-100c0,0,12,-45,38,-77c0,0,26,-33,68,-50c0,0,41,-17,102,-17c0,0,48,0,85,8c0,0,37,8,65,17c0,0,27,10,44,18c0,0,18,8,27,8c0,0,5,0,9,-3c0,0,4,-2,7,-8c0,0,2,-5,3,-14c0,0,1,-9,1,-23c0,0,0,-9,-1,-16c0,0,0,-8,-2,-13c0,0,-1,-6,-3,-10c0,0,-3,-5,-7,-9c0,0,-4,-4,-24,-13c0,0,-20,-10,-53,-18c0,0,-32,-9,-74,-16c0,0,-42,-7,-90,-7Z"
id="f0_7z"
transform="scale(0.001,-0.001)"/>

<path d="M209,-4c0,0,-18,0,-30,2c0,0,-12,1,-19,3c0,0,-7,3,-10,7c0,0,-3,4,-3,10V607H52c0,0,-12,0,-18,12c0,0,-6,12,-6,39c0,0,0,14,2,24c0,0,1,10,4,16c0,0,3,7,8,9c0,0,4,3,10,3h95v69c0,0,0,71,13,121c0,0,13,50,40,82c0,0,27,33,67,48c0,0,41,15,96,15c0,0,26,0,51,-5c0,0,25,-4,38,-10c0,0,13,-6,18,-10c0,0,4,-5,7,-12c0,0,3,-7,5,-17c0,0,1,-10,1,-24c0,0,0,-15,-2,-23c0,0,-1,-9,-3,-14c0,0,-2,-5,-5,-7c0,0,-3,-2,-8,-2c0,0,-5,0,-13,3c0,0,-7,4,-19,8c0,0,-11,4,-26,7c0,0,-15,4,-36,4c0,0,-27,0,-47,-9c0,0,-19,-9,-31,-28c0,0,-12,-19,-17,-50c0,0,-5,-30,-5,-73V710H421c0,0,6,0,10,-3c0,0,4,-2,7,-9c0,0,4,-6,6,-16c0,0,2,-10,2,-24c0,0,0,-27,-7,-39c0,0,-7,-12,-18,-12H271V18c0,0,0,-6,-3,-10c0,0,-3,-4,-11,-7c0,0,-7,-2,-19,-3c0,0,-12,-2,-29,-2Z"
id="f0_89"
transform="scale(0.001,-0.001)"/>

<path d="M176,-4c0,0,-18,0,-30,2c0,0,-12,1,-19,3c0,0,-7,3,-10,7c0,0,-3,4,-3,10V690c0,0,0,6,3,10c0,0,2,4,9,7c0,0,6,4,17,5c0,0,10,1,27,1c0,0,17,0,28,-1c0,0,10,-1,16,-5c0,0,6,-3,9,-7c0,0,3,-4,3,-10V592c0,0,27,41,51,66c0,0,25,26,46,41c0,0,22,14,43,20c0,0,21,6,43,6c0,0,10,0,22,-2c0,0,12,-1,26,-4c0,0,13,-3,24,-6c0,0,11,-4,15,-8c0,0,5,-4,6,-7c0,0,2,-3,3,-9c0,0,1,-5,1,-15c0,0,0,-10,0,-27c0,0,0,-16,0,-28c0,0,-1,-11,-3,-17c0,0,-2,-6,-6,-10c0,0,-3,-3,-9,-3c0,0,-6,0,-15,3c0,0,-8,4,-19,7c0,0,-11,3,-24,6c0,0,-14,3,-29,3c0,0,-19,0,-37,-7c0,0,-18,-8,-37,-25c0,0,-20,-18,-42,-46c0,0,-21,-29,-48,-70V18c0,0,0,-6,-3,-10c0,0,-2,-4,-9,-7c0,0,-7,-2,-19,-3c0,0,-12,-2,-30,-2Z"
id="f0_b1"
transform="scale(0.001,-0.001)"/>

<path d="M176,-4c0,0,-18,0,-30,2c0,0,-12,1,-19,3c0,0,-7,3,-10,7c0,0,-3,4,-3,10V690c0,0,0,6,3,10c0,0,2,4,9,7c0,0,6,4,17,5c0,0,10,1,27,1c0,0,17,0,28,-1c0,0,10,-1,16,-5c0,0,6,-3,9,-7c0,0,3,-4,3,-10V601c0,0,56,64,112,94c0,0,57,30,114,30c0,0,67,0,113,-23c0,0,46,-23,74,-61c0,0,29,-38,41,-89c0,0,12,-52,12,-123V18c0,0,0,-6,-3,-10c0,0,-3,-4,-9,-7c0,0,-7,-2,-19,-3c0,0,-12,-2,-30,-2c0,0,-19,0,-30,2c0,0,-12,1,-19,3c0,0,-7,3,-10,7c0,0,-3,4,-3,10V412c0,0,0,58,-9,93c0,0,-9,35,-26,61c0,0,-17,25,-44,38c0,0,-27,14,-63,14c0,0,-46,0,-93,-33c0,0,-46,-33,-97,-96V18c0,0,0,-6,-3,-10c0,0,-2,-4,-9,-7c0,0,-7,-2,-19,-3c0,0,-12,-2,-30,-2Z"
id="f0_af"
transform="scale(0.001,-0.001)"/>

<path d="M367,-13c0,0,-73,0,-129,23c0,0,-56,24,-93,70c0,0,-38,46,-58,112c0,0,-20,67,-20,154c0,0,0,99,25,171c0,0,24,71,66,116c0,0,42,46,99,68c0,0,58,22,124,22c0,0,32,0,62,-6c0,0,31,-6,56,-16c0,0,25,-10,45,-22c0,0,20,-13,29,-22c0,0,9,-9,12,-14c0,0,3,-5,6,-13c0,0,2,-7,3,-16c0,0,0,-9,0,-22c0,0,0,-29,-6,-41c0,0,-7,-11,-17,-11c0,0,-11,0,-25,12c0,0,-15,12,-37,27c0,0,-23,15,-55,28c0,0,-31,12,-75,12c0,0,-88,0,-136,-68c0,0,-47,-68,-47,-198c0,0,0,-65,12,-114c0,0,12,-49,36,-81c0,0,24,-33,59,-49c0,0,35,-16,79,-16c0,0,43,0,75,13c0,0,32,14,56,30c0,0,23,16,39,29c0,0,16,13,25,13c0,0,5,0,9,-3c0,0,4,-3,7,-10c0,0,2,-7,3,-18c0,0,1,-11,1,-26c0,0,0,-12,0,-22c0,0,-1,-9,-3,-15c0,0,-2,-7,-4,-12c0,0,-3,-4,-12,-14c0,0,-10,-9,-32,-23c0,0,-22,-14,-50,-24C496,11,468,0,435,-6c0,0,-33,-7,-68,-7Z"
id="f0_7l"
transform="scale(0.001,-0.001)"/>

<path d="M218,-6c0,0,-24,0,-39,4c0,0,-15,3,-24,13c0,0,-8,10,-12,27c0,0,-3,16,-3,41c0,0,0,24,3,41c0,0,4,17,12,27c0,0,9,9,24,14c0,0,15,4,39,4c0,0,23,0,38,-4c0,0,15,-5,24,-14c0,0,10,-10,13,-27c0,0,3,-17,3,-41c0,0,0,-25,-3,-41c0,0,-3,-17,-13,-27c0,0,-9,-10,-24,-13c0,0,-15,-4,-38,-4Zm0,518c0,0,-24,0,-39,4c0,0,-15,5,-24,15c0,0,-8,10,-12,26c0,0,-3,16,-3,40c0,0,0,26,3,42c0,0,4,17,12,27c0,0,9,10,24,14c0,0,15,4,39,4c0,0,23,0,38,-4c0,0,15,-4,24,-14c0,0,10,-10,13,-27c0,0,3,-16,3,-42c0,0,0,-24,-3,-40c0,0,-3,-16,-13,-26c0,0,-9,-10,-24,-15c0,0,-15,-4,-38,-4Z"
id="f0_ns"
transform="scale(0.001,-0.001)"/>

<path d="M189,-238c0,0,-8,0,-17,3c0,0,-8,3,-15,9c0,0,-6,6,-10,16c0,0,-5,10,-5,25V991c0,0,0,14,5,24c0,0,4,10,10,17c0,0,7,6,15,9c0,0,9,2,17,2H380c0,0,5,0,9,-2c0,0,4,-2,7,-8c0,0,3,-6,5,-15c0,0,1,-8,1,-21c0,0,0,-24,-6,-34c0,0,-5,-11,-16,-11H259V-148H380c0,0,5,0,9,-2c0,0,4,-2,7,-8c0,0,3,-5,5,-14c0,0,1,-8,1,-21c0,0,0,-25,-6,-35c0,0,-5,-10,-16,-10Z"
id="f0_ox"
transform="scale(0.001,-0.001)"/>

<path d="M161,0c0,0,-5,0,-10,3c0,0,-4,2,-8,8c0,0,-5,6,-7,16c0,0,-2,9,-2,24c0,0,0,13,2,23c0,0,2,9,6,16c0,0,3,6,8,9c0,0,5,4,11,4H362V837L176,726c0,0,-15,-8,-23,-9c0,0,-1,-1,-3,-1c-3,0,-8,1,-11,4c0,0,-5,5,-7,16c0,0,-2,11,-2,28c0,0,0,13,1,22c0,0,1,9,4,15c0,0,2,6,6,10c0,0,4,5,11,9L374,963c0,0,3,2,7,4c0,0,5,1,11,3c0,0,7,1,16,2c0,0,9,0,22,0c0,0,18,0,30,-2c0,0,12,-1,19,-4c0,0,7,-2,9,-6c0,0,2,-5,2,-9V103H665c0,0,6,0,11,-4c0,0,5,-3,8,-9c0,0,4,-7,6,-16c0,0,2,-10,2,-23c0,0,0,-15,-3,-24c0,0,-2,-10,-6,-16c0,0,-3,-6,-8,-8c0,0,-5,-3,-10,-3Z"
id="f0_ry"
transform="scale(0.001,-0.001)"/>

<path d="M89,-238c0,0,-11,0,-16,10c0,0,-6,10,-6,35c0,0,0,13,1,21c0,0,1,9,4,14c0,0,3,6,7,8c0,0,5,2,10,2H210V952H89c0,0,-11,0,-16,11c0,0,-6,10,-6,34c0,0,0,13,1,21c0,0,1,9,4,15c0,0,3,6,7,8c0,0,5,2,10,2H279c0,0,9,0,18,-2c0,0,8,-3,15,-9c0,0,7,-7,11,-17c0,0,4,-10,4,-24V-185c0,0,0,-15,-4,-25c0,0,-4,-10,-11,-16c0,0,-7,-6,-15,-9c0,0,-9,-3,-18,-3Z"
id="f0_oy"
transform="scale(0.001,-0.001)"/>

<path d="M372,-4c0,0,-19,0,-31,2c0,0,-12,2,-20,3c0,0,-8,3,-11,8c0,0,-3,4,-3,10V375L34,920c0,0,-8,17,-10,27c0,0,-2,10,4,15c0,0,5,5,20,6c0,0,14,2,39,2c0,0,22,0,36,-2c0,0,14,-1,22,-4c0,0,8,-2,12,-7c0,0,5,-5,8,-12L299,667c0,0,18,-40,37,-83c0,0,19,-43,38,-87h2c0,0,17,42,35,84c0,0,18,43,37,84L582,944c0,0,3,7,7,12c0,0,4,6,11,8c0,0,7,3,20,4c0,0,12,2,32,2c0,0,27,0,42,-2c0,0,15,-2,21,-7c0,0,6,-5,4,-15c0,0,-2,-10,-10,-26L436,375V19c0,0,0,-6,-3,-10c0,0,-3,-5,-10,-8c0,0,-8,-1,-20,-3c0,0,-13,-2,-31,-2Z"
id="f0_3f"
transform="scale(0.001,-0.001)"/>

<path d="M192,-6c0,0,-45,0,-62,16c0,0,-18,18,-18,69c0,0,0,53,18,71c0,0,18,17,64,17c0,0,45,0,62,-17c0,0,17,-17,17,-69c0,0,0,-53,-18,-70c0,0,-17,-17,-63,-17Z"
id="f0_nt"
transform="scale(0.001,-0.001)"/>

<path d="M318,-13c0,0,-48,0,-90,8c0,0,-41,8,-73,19c0,0,-33,12,-55,25c0,0,-22,13,-30,22c0,0,-9,8,-13,22c0,0,-4,14,-4,37c0,0,0,17,1,27c0,0,2,11,5,18c0,0,3,7,7,9c0,0,5,3,11,3c0,0,10,0,29,-13c0,0,19,-12,49,-27c0,0,30,-15,72,-28c0,0,42,-13,97,-13c0,0,42,0,77,11c0,0,34,11,59,32c0,0,25,20,39,50c0,0,13,30,13,68c0,0,0,41,-19,70c0,0,-18,29,-49,51c0,0,-30,22,-70,41c0,0,-39,18,-80,37c0,0,-41,19,-80,42c0,0,-39,23,-69,54c0,0,-31,32,-50,74c0,0,-19,42,-19,101c0,0,0,60,22,108c0,0,22,47,61,79c0,0,40,32,94,49c0,0,54,17,116,17c0,0,32,0,65,-6c0,0,32,-5,61,-15c0,0,29,-9,51,-20c0,0,22,-12,30,-19c0,0,7,-7,9,-11c0,0,2,-4,4,-10c0,0,1,-7,2,-16c0,0,1,-9,1,-23c0,0,0,-13,-2,-24c0,0,-1,-10,-3,-17c0,0,-2,-8,-6,-11c0,0,-4,-3,-10,-3c0,0,-8,0,-25,10c0,0,-18,11,-43,24c0,0,-26,13,-60,23c0,0,-35,11,-78,11c0,0,-40,0,-70,-11c0,0,-30,-10,-49,-28c0,0,-20,-18,-29,-43c0,0,-10,-25,-10,-52c0,0,0,-40,18,-70c0,0,19,-29,50,-51c0,0,31,-22,71,-41c0,0,39,-19,80,-38c0,0,41,-19,81,-41c0,0,39,-23,70,-54c0,0,31,-31,50,-73c0,0,19,-42,19,-100c0,0,0,-68,-25,-121c0,0,-25,-53,-69,-89C552,61,508,24,448,5c0,0,-60,-18,-130,-18Z"
id="f0_2n"
transform="scale(0.001,-0.001)"/>

<path d="M604,356L436,837h-1L269,356ZM87,-4c0,0,-22,0,-36,2C51,-2,37,0,32,4c0,0,-6,5,-6,15c0,0,1,10,7,27L357,943c0,0,3,8,7,13c0,0,5,6,15,9c0,0,9,3,23,4c0,0,15,1,37,1c0,0,24,0,40,-1c0,0,16,-1,25,-4c0,0,10,-3,15,-9c0,0,5,-5,8,-14L851,45c0,0,6,-16,7,-26c0,0,0,-10,-6,-16c0,0,-6,-4,-20,-5c0,0,-14,-2,-37,-2c0,0,-23,0,-37,1c0,0,-14,1,-21,3c0,0,-7,3,-10,7c0,0,-3,5,-6,11L638,253H236L157,21c0,0,-2,-6,-6,-11c0,0,-3,-5,-10,-9c0,0,-7,-2,-21,-3c0,0,-13,-2,-33,-2Z"
id="f0_5"
transform="scale(0.001,-0.001)"/>

<path d="M431,92c0,0,46,0,79,22c0,0,33,23,53,60c0,0,21,37,30,83c0,0,10,46,10,93c0,0,0,51,-8,100c0,0,-8,49,-28,86c0,0,-19,37,-51,60c0,0,-32,23,-80,23c0,0,-24,0,-47,-7c0,0,-23,-7,-47,-22c0,0,-24,-16,-50,-41c0,0,-25,-24,-55,-62V219c0,0,51,-62,98,-95c0,0,46,-32,96,-32ZM443,-13c0,0,-32,0,-59,7c0,0,-27,6,-53,19c0,0,-26,14,-52,36c0,0,-27,22,-56,52V18c0,0,0,-6,-3,-10c0,0,-3,-5,-9,-7c0,0,-7,-2,-17,-3c0,0,-10,-2,-26,-2c0,0,-15,0,-25,2c0,0,-11,1,-17,3c0,0,-7,2,-9,7c0,0,-3,4,-3,10v997c0,0,0,6,3,11c0,0,3,4,10,7c0,0,7,3,19,5c0,0,12,1,30,1c0,0,18,0,30,-1c0,0,12,-2,19,-5c0,0,7,-3,9,-7c0,0,3,-5,3,-10V614c0,0,30,31,58,52c0,0,28,20,55,34c0,0,27,13,54,19c0,0,27,6,57,6c0,0,73,0,125,-30c0,0,52,-29,84,-78c0,0,32,-48,47,-114c0,0,15,-66,15,-139c0,0,0,-87,-19,-157c0,0,-19,-70,-56,-119c0,0,-37,-49,-90,-76c0,0,-54,-25,-124,-25Z"
id="f0_7k"
transform="scale(0.001,-0.001)"/>

<path d="M351,-13c0,0,-67,0,-113,22c0,0,-46,22,-75,60c0,0,-28,39,-40,90c0,0,-13,51,-13,124V690c0,0,0,6,3,10c0,0,3,4,10,7c0,0,8,4,20,5c0,0,11,1,29,1c0,0,18,0,30,-1c0,0,12,-1,19,-5c0,0,7,-3,10,-7c0,0,3,-4,3,-10V299c0,0,0,-59,9,-94c0,0,8,-36,26,-61c0,0,18,-24,44,-38c0,0,27,-14,63,-14c0,0,46,0,92,33c0,0,46,32,98,95V690c0,0,0,6,2,10c0,0,3,4,10,7c0,0,8,4,19,5c0,0,12,1,30,1c0,0,18,0,30,-1c0,0,12,-1,19,-5c0,0,7,-3,10,-7c0,0,3,-4,3,-10V18c0,0,0,-6,-2,-10c0,0,-3,-4,-10,-7c0,0,-6,-2,-17,-3c0,0,-11,-2,-27,-2c0,0,-17,0,-28,2c0,0,-10,1,-17,3c0,0,-6,3,-8,7c0,0,-3,4,-3,10v89c0,0,-57,-63,-113,-92c0,0,-56,-28,-113,-28Z"
id="f0_c6"
transform="scale(0.001,-0.001)"/>

<path d="M79,326c0,0,-14,0,-20,11c0,0,-7,12,-7,40c0,0,0,29,7,40c0,0,6,11,20,11H390c0,0,6,0,11,-2c0,0,5,-2,8,-9c0,0,4,-6,6,-16c0,0,2,-9,2,-24c0,0,0,-29,-7,-40c0,0,-7,-11,-20,-11Z"
id="f0_oj"
transform="scale(0.001,-0.001)"/>

<path d="M189,-4c0,0,-18,0,-30,2c0,0,-12,2,-19,3c0,0,-7,3,-9,8c0,0,-3,4,-3,10V907c0,0,0,31,16,45c0,0,17,13,37,13h78c0,0,24,0,41,-4c0,0,18,-5,32,-15c0,0,13,-9,22,-24c0,0,9,-15,16,-35L649,188h4L944,884c0,0,8,23,18,39c0,0,9,15,21,25c0,0,11,9,26,13c0,0,14,4,32,4h82c0,0,11,0,21,-3c0,0,10,-4,17,-11c0,0,7,-7,12,-18c0,0,4,-10,4,-26V19c0,0,0,-6,-3,-10c0,0,-3,-5,-10,-8c0,0,-8,-1,-19,-3c0,0,-12,-2,-30,-2c0,0,-18,0,-30,2c0,0,-12,2,-19,3c0,0,-7,3,-10,8c0,0,-3,4,-3,10V860h-2L707,15c0,0,-2,-5,-6,-9c0,0,-4,-3,-12,-6c0,0,-8,-2,-18,-3c0,0,-11,-1,-26,-1c0,0,-16,0,-27,2c0,0,-11,1,-19,3c0,0,-7,2,-11,6c0,0,-4,4,-6,8L253,860V19c0,0,0,-6,-3,-10c0,0,-3,-5,-11,-8c0,0,-7,-1,-19,-3c0,0,-12,-2,-31,-2Z"
id="f0_1x"
transform="scale(0.001,-0.001)"/>

<path d="M401,90c0,0,54,0,93,19c0,0,40,20,65,55c0,0,26,35,37,84c0,0,12,48,12,106c0,0,0,55,-10,104c0,0,-10,48,-33,85c0,0,-23,36,-62,58c0,0,-40,21,-99,21c0,0,-54,0,-93,-20c0,0,-39,-19,-65,-54c0,0,-25,-36,-37,-85c0,0,-12,-48,-12,-106c0,0,0,-55,10,-103c0,0,10,-49,33,-85c0,0,24,-36,63,-58c0,0,39,-21,98,-21ZM395,-13c0,0,-82,0,-144,24c0,0,-61,25,-102,72c0,0,-41,47,-61,114c0,0,-21,67,-21,152c0,0,0,82,22,151c0,0,21,69,64,119c0,0,43,50,107,78c0,0,64,28,150,28c0,0,82,0,144,-25c0,0,61,-25,102,-72c0,0,41,-47,62,-114c0,0,20,-67,20,-151c0,0,0,-83,-21,-152c0,0,-22,-69,-65,-119C652,92,609,42,545,14c0,0,-65,-27,-150,-27Z"
id="f0_am"
transform="scale(0.001,-0.001)"/>

<path d="M272,-13c0,0,-35,0,-68,6c0,0,-32,6,-58,13c0,0,-26,9,-44,18c0,0,-17,10,-26,17c0,0,-8,8,-12,21c0,0,-3,14,-3,37c0,0,0,14,1,24c0,0,2,9,4,15c0,0,2,6,6,9c0,0,4,3,10,3c0,0,8,0,24,-11c0,0,16,-10,39,-22c0,0,24,-12,56,-22c0,0,32,-10,74,-10c0,0,31,0,56,7c0,0,26,6,44,19c0,0,19,14,29,34c0,0,10,20,10,47c0,0,0,29,-14,48c0,0,-15,19,-39,34c0,0,-24,15,-53,27c0,0,-30,11,-62,24c0,0,-32,13,-62,29c0,0,-30,16,-54,39c0,0,-24,23,-38,55c0,0,-15,32,-15,77c0,0,0,40,16,76c0,0,15,36,45,63c0,0,31,28,77,44c0,0,46,17,107,17c0,0,27,0,54,-5c0,0,26,-5,48,-11c0,0,22,-7,37,-15c0,0,15,-8,23,-14c0,0,8,-6,11,-11c0,0,2,-4,3,-10c0,0,1,-5,2,-14c0,0,2,-8,2,-20c0,0,0,-12,-2,-22c0,0,-1,-9,-3,-15c0,0,-3,-6,-7,-8c0,0,-3,-3,-8,-3c0,0,-7,0,-19,8c0,0,-13,8,-33,18c0,0,-20,9,-47,17c0,0,-28,9,-63,9c0,0,-31,0,-55,-7c0,0,-24,-7,-39,-20c0,0,-15,-13,-23,-31c0,0,-8,-18,-8,-39c0,0,0,-29,15,-49c0,0,15,-20,39,-35c0,0,24,-15,54,-27c0,0,31,-11,62,-24c0,0,32,-13,63,-29c0,0,31,-15,55,-38c0,0,24,-22,38,-53c0,0,15,-32,15,-75c0,0,0,-51,-19,-92c0,0,-19,-40,-54,-68C463,42,428,15,379,1c0,0,-48,-14,-107,-14Z"
id="f0_b5"
transform="scale(0.001,-0.001)"/>

<path d="M339,-13c0,0,-52,0,-90,13c0,0,-37,14,-61,42c0,0,-24,28,-34,71c0,0,-11,43,-11,101V607H49c0,0,-11,0,-18,12c0,0,-7,12,-7,39c0,0,0,14,2,24c0,0,2,10,5,16c0,0,3,7,8,9c0,0,5,3,11,3h93V870c0,0,0,5,2,9c0,0,3,5,10,8c0,0,7,4,19,5c0,0,12,2,30,2c0,0,19,0,31,-2c0,0,11,-1,18,-5c0,0,7,-3,10,-8c0,0,3,-4,3,-9V710H438c0,0,6,0,10,-3c0,0,5,-2,8,-9c0,0,4,-6,5,-16c0,0,1,-10,1,-24c0,0,0,-27,-6,-39c0,0,-7,-12,-18,-12H266V232c0,0,0,-69,20,-105c0,0,21,-35,74,-35c0,0,17,0,30,3c0,0,14,4,24,7c0,0,10,4,18,7c0,0,7,4,13,4c0,0,4,0,7,-2c0,0,4,-2,6,-7c0,0,2,-5,3,-14c0,0,1,-9,1,-23c0,0,0,-22,-2,-34c0,0,-3,-13,-9,-19c0,0,-6,-6,-18,-11c0,0,-12,-4,-28,-8c0,0,-15,-3,-32,-5c0,0,-17,-3,-34,-3Z"
id="f0_bf"
transform="scale(0.001,-0.001)"/>

<path d="M321,82c0,0,48,0,90,25c0,0,41,24,87,75V325H392c0,0,-50,0,-88,-9c0,0,-37,-9,-62,-25c0,0,-24,-17,-36,-41c0,0,-11,-23,-11,-54c0,0,0,-52,33,-83c0,0,33,-31,93,-31ZM301,-13c0,0,-53,0,-96,13c0,0,-43,14,-73,40c0,0,-30,26,-47,64c0,0,-17,38,-17,87c0,0,0,56,24,98c0,0,23,42,66,69c0,0,43,28,106,42c0,0,63,14,141,14h93v52c0,0,0,39,-9,69c0,0,-8,30,-26,50c0,0,-18,20,-47,30c0,0,-30,10,-72,10c0,0,-46,0,-82,-11c0,0,-36,-11,-63,-24c0,0,-27,-13,-46,-24c0,0,-18,-11,-27,-11c0,0,-6,0,-10,3c0,0,-5,3,-8,9c0,0,-3,6,-5,16c0,0,-1,9,-1,20c0,0,0,19,2,30c0,0,3,11,13,20c0,0,10,10,35,23c0,0,24,13,56,24c0,0,32,10,70,17c0,0,38,8,77,8c0,0,73,0,123,-17c0,0,51,-16,82,-48c0,0,32,-32,46,-79c0,0,14,-47,14,-110V18c0,0,0,-9,-6,-14c0,0,-6,-4,-16,-6c0,0,-11,-2,-31,-2c0,0,-19,0,-31,2c0,0,-12,2,-17,6c0,0,-5,5,-5,13V85c0,0,-44,-47,-98,-73c0,0,-54,-25,-115,-25Z"
id="f0_77"
transform="scale(0.001,-0.001)"/>

<path d="M69,-215c0,0,-12,0,-21,1c0,0,-8,1,-12,4c0,0,-4,2,-4,7c0,0,-1,4,2,10L134,11v96c0,0,0,20,4,32c0,0,4,12,13,18c0,0,9,6,22,8c0,0,13,2,33,2c0,0,19,0,32,-2c0,0,13,-2,22,-8c0,0,9,-6,13,-18c0,0,4,-12,4,-32c0,0,0,-23,-2,-43c0,0,-3,-19,-8,-36c0,0,-5,-17,-14,-33c0,0,-8,-17,-21,-36L130,-194c0,0,-4,-5,-9,-9c0,0,-5,-4,-12,-7c0,0,-7,-3,-16,-4c0,0,-9,-1,-24,-1Z"
id="f0_nq"
transform="scale(0.001,-0.001)"/>

<path d="M192,-4c0,0,-18,0,-30,2c0,0,-13,2,-20,3c0,0,-8,3,-11,8c0,0,-3,4,-3,10V946c0,0,0,6,3,11c0,0,4,4,12,7c0,0,7,2,20,4c0,0,12,2,29,2c0,0,19,0,31,-2c0,0,13,-2,20,-4c0,0,7,-3,10,-7c0,0,3,-5,3,-11V19c0,0,0,-6,-3,-10c0,0,-3,-5,-10,-8c0,0,-7,-1,-20,-3c0,0,-12,-2,-31,-2Z"
id="f0_1c"
transform="scale(0.001,-0.001)"/>

<path d="M176,-4c0,0,-18,0,-30,2c0,0,-12,1,-19,3c0,0,-7,3,-10,7c0,0,-3,4,-3,10V690c0,0,0,6,3,10c0,0,2,4,9,7c0,0,6,4,17,5c0,0,10,1,27,1c0,0,17,0,28,-1c0,0,10,-1,16,-5c0,0,6,-3,9,-7c0,0,3,-4,3,-10V601c0,0,56,64,110,94c0,0,53,30,108,30c0,0,42,0,75,-10c0,0,33,-10,58,-28c0,0,26,-17,44,-42c0,0,18,-24,30,-55c0,0,33,37,63,63c0,0,31,26,59,41c0,0,28,16,54,23c0,0,27,8,53,8c0,0,65,0,109,-23c0,0,44,-23,71,-61c0,0,28,-38,39,-89c0,0,12,-52,12,-108V18c0,0,0,-6,-3,-10c0,0,-3,-4,-10,-7c0,0,-7,-2,-19,-3c0,0,-12,-2,-29,-2c0,0,-19,0,-31,2c0,0,-12,1,-19,3c0,0,-7,3,-10,7c0,0,-3,4,-3,10V427c0,0,0,43,-8,78c0,0,-7,35,-23,61c0,0,-17,25,-42,38c0,0,-25,14,-60,14c0,0,-42,0,-85,-33c0,0,-43,-33,-94,-96V18c0,0,0,-6,-3,-10c0,0,-3,-4,-11,-7c0,0,-7,-2,-19,-3c0,0,-11,-2,-29,-2c0,0,-18,0,-30,2c0,0,-12,1,-19,3c0,0,-7,3,-10,7c0,0,-3,4,-3,10V427c0,0,0,43,-8,78c0,0,-8,35,-24,61c0,0,-17,25,-42,38c0,0,-25,14,-59,14c0,0,-43,0,-86,-33c0,0,-44,-33,-95,-96V18c0,0,0,-6,-3,-10c0,0,-2,-4,-9,-7c0,0,-7,-2,-19,-3c0,0,-12,-2,-30,-2Z"
id="f0_ae"
transform="scale(0.001,-0.001)"/>

<path d="M176,-4c0,0,-18,0,-30,2c0,0,-12,1,-19,3c0,0,-7,3,-10,7c0,0,-3,4,-3,10V690c0,0,0,5,3,9c0,0,3,5,10,8c0,0,7,3,19,4c0,0,12,2,30,2c0,0,18,0,30,-2c0,0,12,-1,19,-4c0,0,7,-3,9,-8c0,0,3,-4,3,-9V18c0,0,0,-6,-3,-10c0,0,-2,-4,-9,-7c0,0,-7,-2,-19,-3c0,0,-12,-2,-30,-2Zm-1,846c0,0,-43,0,-59,15c0,0,-16,15,-16,58c0,0,0,43,16,59c0,0,17,16,61,16c0,0,43,0,59,-16c0,0,16,-15,16,-58c0,0,0,-43,-16,-58c0,0,-17,-16,-61,-16Z"
id="f0_9q"
transform="scale(0.001,-0.001)"/>

<path d="M176,-4c0,0,-18,0,-30,2c0,0,-12,1,-19,3c0,0,-7,3,-10,7c0,0,-3,4,-3,10v997c0,0,0,6,3,11c0,0,3,4,10,7c0,0,7,3,19,5c0,0,12,1,30,1c0,0,18,0,30,-1c0,0,12,-2,19,-5c0,0,7,-3,9,-7c0,0,3,-5,3,-11V18c0,0,0,-6,-3,-10c0,0,-2,-4,-9,-7c0,0,-7,-2,-19,-3c0,0,-12,-2,-30,-2Z"
id="f0_a8"
transform="scale(0.001,-0.001)"/>

<path d="M192,-4c0,0,-18,0,-30,2c0,0,-13,2,-20,3c0,0,-8,3,-11,8c0,0,-3,4,-3,10V946c0,0,0,6,3,11c0,0,3,4,11,7c0,0,7,2,20,4c0,0,12,2,30,2c0,0,19,0,31,-2c0,0,13,-2,20,-4c0,0,7,-3,10,-7c0,0,3,-5,3,-11V559H696V946c0,0,0,6,3,10c0,0,3,5,10,8c0,0,8,2,20,4c0,0,11,2,31,2c0,0,18,0,30,-2c0,0,12,-2,20,-4c0,0,7,-3,10,-7c0,0,3,-5,3,-11V19c0,0,0,-6,-3,-10c0,0,-3,-5,-10,-8c0,0,-8,-1,-20,-3c0,0,-12,-2,-30,-2c0,0,-20,0,-31,2c0,0,-12,2,-20,3c0,0,-7,3,-10,8c0,0,-3,4,-3,10V448H256V19c0,0,0,-6,-3,-10c0,0,-3,-5,-10,-8c0,0,-7,-1,-20,-3c0,0,-12,-2,-31,-2Z"
id="f0_19"
transform="scale(0.001,-0.001)"/>

<path d="M372,-4c0,0,-18,0,-30,2c0,0,-13,2,-21,3c0,0,-7,3,-10,8c0,0,-3,4,-3,10V857H36c0,0,-6,0,-11,3c0,0,-5,2,-8,9c0,0,-2,6,-4,17c0,0,-2,10,-2,24c0,0,0,14,2,25c0,0,2,11,4,17c0,0,3,7,8,10c0,0,5,3,11,3H708c0,0,6,0,11,-3c0,0,5,-3,8,-10c0,0,4,-6,5,-17c0,0,2,-11,2,-25c0,0,0,-14,-2,-24c0,0,-1,-11,-5,-17c0,0,-3,-7,-8,-9c0,0,-5,-3,-11,-3H436V19c0,0,0,-6,-3,-10c0,0,-3,-5,-10,-8c0,0,-8,-1,-20,-3c0,0,-12,-2,-31,-2Z"
id="f0_2t"
transform="scale(0.001,-0.001)"/>

<path d="M176,0c0,0,-17,0,-33,12c0,0,-15,11,-15,40V946c0,0,0,6,3,11c0,0,3,4,11,7c0,0,7,2,20,4c0,0,12,2,30,2c0,0,19,0,31,-2c0,0,13,-2,20,-4c0,0,7,-3,10,-7c0,0,3,-5,3,-11V111H603c0,0,6,0,11,-3c0,0,5,-3,8,-10c0,0,4,-6,5,-16c0,0,2,-11,2,-26c0,0,0,-15,-2,-25c0,0,-1,-10,-5,-17c0,0,-3,-7,-8,-11c0,0,-5,-3,-11,-3Z"
id="f0_1r"
transform="scale(0.001,-0.001)"/>

<path d="M346,-177c0,0,56,0,94,11c0,0,37,11,60,28c0,0,24,18,34,41c0,0,10,23,10,49c0,0,0,43,-36,65c0,0,-35,23,-95,25L239,48c0,0,-24,-19,-39,-35c0,0,-15,-16,-24,-31c0,0,-9,-16,-12,-30c0,0,-4,-15,-4,-31c0,0,0,-48,49,-73c0,0,50,-25,137,-25Zm-6,512c0,0,36,0,63,12c0,0,27,12,44,32c0,0,18,21,26,48c0,0,9,27,9,56c0,0,0,69,-38,107c0,0,-37,39,-107,39c0,0,-35,0,-62,-12c0,0,-26,-12,-44,-33c0,0,-17,-21,-26,-48c0,0,-8,-28,-8,-58c0,0,0,-66,37,-104c0,0,38,-39,106,-39Zm0,-606c0,0,-81,0,-138,14c0,0,-57,14,-94,38c0,0,-36,24,-52,57c0,0,-17,33,-17,72c0,0,0,24,6,47c0,0,6,24,18,43c0,0,13,21,31,40c0,0,18,19,42,38c0,0,-36,19,-54,47c0,0,-17,28,-17,61c0,0,0,45,18,81c0,0,19,36,46,64c0,0,-23,28,-36,62c0,0,-14,35,-14,84c0,0,0,58,20,104c0,0,19,45,53,77c0,0,35,31,83,48c0,0,48,17,105,17c0,0,30,0,57,-4c0,0,26,-3,49,-9H649c0,0,13,0,19,-12c0,0,7,-13,7,-38c0,0,0,-26,-7,-37c0,0,-7,-12,-19,-12H553c0,0,26,-27,37,-60c0,0,10,-32,10,-68c0,0,0,-58,-18,-103c0,0,-19,-45,-54,-76c0,0,-34,-31,-82,-47c0,0,-48,-16,-106,-16c0,0,-41,0,-78,10c0,0,-37,11,-57,28c0,0,-14,-14,-22,-31c0,0,-9,-17,-9,-39c0,0,0,-27,24,-44c0,0,25,-17,65,-18l175,-8c0,0,50,-1,92,-14c0,0,41,-12,72,-35c0,0,31,-22,48,-55c0,0,17,-34,17,-76c0,0,0,-47,-20,-88c0,0,-19,-42,-59,-74c0,0,-40,-31,-102,-50c0,0,-61,-18,-146,-18Z"
id="f0_9d"
transform="scale(0.001,-0.001)"/>

<path d="M192,-4c0,0,-18,0,-30,2c0,0,-13,2,-20,3c0,0,-8,3,-11,8c0,0,-3,5,-3,10V913c0,0,0,29,15,40c0,0,16,12,33,12H610c0,0,5,0,10,-3c0,0,5,-3,9,-10c0,0,4,-6,5,-17c0,0,2,-11,2,-25c0,0,0,-14,-2,-24c0,0,-1,-11,-5,-17c0,0,-4,-7,-9,-9c0,0,-5,-3,-10,-3H256V528H591c0,0,5,0,10,-3c0,0,5,-2,8,-8c0,0,4,-6,6,-16c0,0,1,-10,1,-26c0,0,0,-14,-1,-24c0,0,-2,-10,-6,-17c0,0,-3,-6,-8,-9c0,0,-5,-4,-10,-4H256V19c0,0,0,-5,-3,-10c0,0,-3,-5,-10,-8c0,0,-7,-1,-19,-3c0,0,-12,-2,-32,-2Z"
id="f0_13"
transform="scale(0.001,-0.001)"/>

<path d="M388,108c0,0,93,0,156,23c0,0,64,23,106,71c0,0,43,47,64,119c0,0,21,72,21,171c0,0,0,78,-19,145c0,0,-20,68,-61,117c0,0,-41,49,-105,77c0,0,-63,28,-163,28H256V108ZM176,0c0,0,-17,0,-33,12c0,0,-15,11,-15,40V913c0,0,0,29,15,41c0,0,16,11,33,11H394c0,0,126,0,212,-32c0,0,87,-33,145,-94c0,0,59,-60,89,-147c0,0,30,-86,30,-195c0,0,0,-126,-32,-219c0,0,-32,-94,-93,-155c0,0,-62,-62,-151,-92C594,31,504,0,380,0Z"
id="f0_p"
transform="scale(0.001,-0.001)"/>

<path d="M176,-4c0,0,-18,0,-30,2c0,0,-12,1,-19,3c0,0,-7,3,-10,7c0,0,-3,4,-3,10v997c0,0,0,6,3,11c0,0,3,4,10,7c0,0,7,3,19,5c0,0,12,1,30,1c0,0,18,0,30,-1c0,0,12,-2,19,-5c0,0,7,-3,9,-7c0,0,3,-5,3,-10V614c0,0,53,56,107,83c0,0,54,28,108,28c0,0,67,0,113,-23c0,0,46,-23,74,-61c0,0,29,-38,41,-89c0,0,12,-52,12,-124V18c0,0,0,-6,-3,-10c0,0,-3,-4,-9,-7c0,0,-7,-2,-19,-3c0,0,-12,-2,-30,-2c0,0,-19,0,-30,2c0,0,-12,1,-19,3c0,0,-7,3,-10,7c0,0,-3,4,-3,10V412c0,0,0,58,-9,93c0,0,-9,35,-26,61c0,0,-17,25,-44,38c0,0,-27,14,-63,14c0,0,-46,0,-93,-33c0,0,-46,-33,-97,-96V18c0,0,0,-6,-3,-10c0,0,-2,-4,-9,-7c0,0,-7,-2,-19,-3c0,0,-12,-2,-30,-2Z"
id="f0_9n"
transform="scale(0.001,-0.001)"/>

<path d="M128,0c0,0,-11,0,-19,3c0,0,-8,2,-13,8c0,0,-6,6,-8,17c0,0,-3,11,-3,28c0,0,0,15,1,26c0,0,1,11,5,20c0,0,4,8,9,17c0,0,6,8,15,18L302,336c0,0,65,68,104,123c0,0,39,54,61,99c0,0,21,45,28,81c0,0,6,37,6,69c0,0,0,32,-10,61c0,0,-11,29,-30,50c0,0,-20,22,-50,35c0,0,-30,12,-69,12c0,0,-45,0,-81,-12c0,0,-37,-13,-64,-28c0,0,-27,-15,-45,-27c0,0,-19,-13,-28,-13c0,0,-5,0,-9,3c0,0,-4,3,-7,10c0,0,-2,6,-4,18c0,0,-1,11,-1,26c0,0,0,12,0,20c0,0,1,8,3,14c0,0,2,6,5,11c0,0,3,5,12,13c0,0,9,8,31,21c0,0,22,14,55,27c0,0,33,13,73,22c0,0,40,9,84,9c0,0,70,0,123,-20c0,0,53,-20,87,-54c0,0,35,-34,52,-80c0,0,17,-46,17,-97c0,0,0,-46,-8,-92c0,0,-8,-46,-35,-99c0,0,-26,-54,-76,-119c0,0,-50,-65,-133,-151L240,109H660c0,0,6,0,12,-4c0,0,5,-3,9,-10c0,0,5,-7,6,-17c0,0,2,-10,2,-23c0,0,0,-13,-2,-24c0,0,-1,-10,-5,-17c0,0,-3,-7,-9,-11c0,0,-5,-3,-12,-3Z"
id="f0_rz"
transform="scale(0.001,-0.001)"/>

<path d="M145,-13c0,0,-21,0,-41,4c0,0,-21,3,-38,9C66,0,49,5,36,11c0,0,-12,7,-17,11c0,0,-4,5,-6,9c0,0,-3,4,-5,11C8,42,6,48,6,57C6,57,5,67,5,80c0,0,0,16,1,27c0,0,1,11,4,17c0,0,3,7,7,9c0,0,4,3,10,3c0,0,6,0,16,-6c0,0,9,-5,22,-12c0,0,13,-7,30,-13c0,0,17,-5,41,-5c0,0,25,0,43,6c0,0,18,6,30,24c0,0,12,17,18,47c0,0,6,30,6,79V947c0,0,0,5,3,10c0,0,3,4,10,7c0,0,8,3,20,4c0,0,12,2,31,2c0,0,18,0,30,-2c0,0,13,-1,20,-4c0,0,7,-3,11,-7c0,0,3,-5,3,-10V243c0,0,0,-57,-10,-105c0,0,-11,-48,-36,-82C315,56,289,23,248,5c0,0,-42,-18,-103,-18Z"
id="f0_1n"
transform="scale(0.001,-0.001)"/>

<path d="M366,92c0,0,25,0,48,7c0,0,22,6,46,22c0,0,24,16,50,41c0,0,26,24,56,61V492c0,0,-51,62,-97,94c0,0,-47,33,-98,33c0,0,-47,0,-79,-22c0,0,-33,-23,-54,-59c0,0,-20,-37,-30,-83c0,0,-9,-47,-9,-94c0,0,0,-51,8,-100c0,0,8,-48,27,-86c0,0,19,-38,52,-60c0,0,32,-23,80,-23ZM345,-13c0,0,-74,0,-127,28c0,0,-52,29,-84,78c0,0,-33,49,-48,115c0,0,-15,66,-15,139c0,0,0,86,19,156c0,0,19,70,55,119c0,0,37,50,91,76c0,0,54,27,125,27c0,0,59,0,108,-26c0,0,49,-26,97,-76v390c0,0,0,5,2,10c0,0,3,4,10,7c0,0,8,3,19,5c0,0,12,1,30,1c0,0,18,0,30,-1c0,0,12,-2,19,-5c0,0,7,-3,10,-7c0,0,3,-5,3,-10V18c0,0,0,-6,-2,-10c0,0,-3,-5,-9,-7c0,0,-7,-2,-17,-3c0,0,-10,-2,-25,-2c0,0,-16,0,-26,2c0,0,-11,1,-18,3c0,0,-6,2,-9,7c0,0,-3,4,-3,10v90c0,0,-53,-58,-110,-90c0,0,-58,-31,-125,-31Z"
id="f0_7v"
transform="scale(0.001,-0.001)"/>

<path d="M176,0c0,0,-17,0,-33,12c0,0,-15,11,-15,40V913c0,0,0,29,15,41c0,0,16,11,33,11H635c0,0,6,0,10,-3c0,0,5,-3,8,-10c0,0,3,-6,5,-16c0,0,2,-10,2,-25c0,0,0,-14,-2,-24c0,0,-2,-10,-5,-16c0,0,-3,-7,-8,-10c0,0,-4,-2,-10,-2H256V555H581c0,0,6,0,11,-3c0,0,5,-3,8,-9c0,0,3,-6,5,-17c0,0,1,-10,1,-24c0,0,0,-14,-1,-23c0,0,-2,-10,-5,-16c0,0,-3,-6,-8,-9c0,0,-5,-2,-11,-2H256V107H640c0,0,6,0,11,-3c0,0,4,-3,8,-10c0,0,4,-6,5,-16c0,0,2,-10,2,-25c0,0,0,-14,-2,-24c0,0,-1,-10,-5,-16c0,0,-4,-7,-8,-10c0,0,-5,-3,-11,-3Z"
id="f0_t"
transform="scale(0.001,-0.001)"/>

<path d="M372,472c0,0,58,0,97,15c0,0,38,15,65,42c0,0,26,26,39,63c0,0,14,37,14,80c0,0,0,59,-22,99c0,0,-23,39,-55,59c0,0,-32,19,-67,24c0,0,-35,5,-68,5H256V472ZM192,-4c0,0,-18,0,-31,2c0,0,-12,2,-19,3c0,0,-8,3,-11,8c0,0,-3,4,-3,10V910c0,0,0,30,16,42c0,0,15,13,35,13H386c0,0,31,0,60,-3c0,0,28,-2,68,-11c0,0,39,-8,80,-32c0,0,40,-23,69,-58c0,0,28,-34,43,-79c0,0,16,-45,16,-100c0,0,0,-72,-24,-130c0,0,-24,-58,-69,-100c0,0,-44,-41,-109,-63c0,0,-64,-22,-154,-22H256V19c0,0,0,-6,-3,-10c0,0,-3,-5,-10,-8c0,0,-7,-1,-20,-3c0,0,-12,-2,-31,-2Z"
id="f0_2g"
transform="scale(0.001,-0.001)"/>

<path d="M343,-13c0,0,-49,0,-91,8c0,0,-42,7,-75,18c0,0,-33,11,-54,22c0,0,-22,12,-27,17c0,0,-6,5,-9,10c0,0,-3,5,-5,13c0,0,-3,7,-4,18c0,0,-1,11,-1,27c0,0,0,26,5,37c0,0,6,10,15,10c0,0,7,0,27,-12c0,0,20,-12,51,-25c0,0,31,-14,72,-26c0,0,41,-12,92,-12c0,0,49,0,87,13c0,0,37,12,62,35c0,0,26,24,39,55c0,0,12,32,12,69c0,0,0,41,-16,74c0,0,-16,33,-47,57c0,0,-31,24,-76,36c0,0,-45,13,-103,13H206c0,0,-6,0,-12,3c0,0,-6,2,-10,8c0,0,-4,6,-6,16c0,0,-3,10,-3,25c0,0,0,14,2,24c0,0,2,9,7,15c0,0,4,5,9,8c0,0,5,3,12,3h84c0,0,49,0,89,12c0,0,39,13,66,37c0,0,27,24,42,57c0,0,14,33,14,74c0,0,0,30,-9,57c0,0,-10,28,-30,48c0,0,-19,20,-49,32c0,0,-31,11,-70,11c0,0,-43,0,-80,-13c0,0,-36,-13,-64,-28c0,0,-29,-15,-47,-28c0,0,-19,-13,-26,-13c0,0,-6,0,-10,2c0,0,-4,2,-6,7c0,0,-3,6,-4,16c0,0,-1,10,-1,26c0,0,0,12,0,20c0,0,1,9,3,15c0,0,3,6,6,12c0,0,3,5,10,12c0,0,7,7,28,20c0,0,22,14,54,27c0,0,32,13,73,22c0,0,41,9,89,9c0,0,67,0,118,-17c0,0,51,-18,85,-49c0,0,34,-31,51,-75c0,0,17,-44,17,-97c0,0,0,-45,-12,-84c0,0,-12,-39,-35,-70c0,0,-24,-30,-57,-51c0,0,-34,-21,-78,-30v-1c0,0,50,-5,92,-25c0,0,41,-20,71,-50c0,0,30,-29,47,-69c0,0,16,-40,16,-86c0,0,0,-66,-23,-119c0,0,-23,-54,-66,-92C593,65,550,27,486,7c0,0,-63,-20,-143,-20Z"
id="f0_s0"
transform="scale(0.001,-0.001)"/>

<path d="M429,92c0,0,47,0,80,22c0,0,33,23,54,60c0,0,20,38,30,84c0,0,10,46,10,93c0,0,0,52,-8,100c0,0,-8,48,-27,86c0,0,-19,37,-51,60c0,0,-32,22,-80,22c0,0,-24,0,-47,-7c0,0,-23,-7,-47,-23c0,0,-24,-15,-50,-40c0,0,-26,-25,-56,-62V220c0,0,51,-62,97,-95c0,0,45,-33,95,-33ZM176,-271c0,0,-18,0,-30,2c0,0,-12,1,-19,4c0,0,-7,3,-10,8c0,0,-3,4,-3,10V690c0,0,0,6,3,10c0,0,2,5,9,8c0,0,6,3,17,4c0,0,10,1,25,1c0,0,16,0,26,-1c0,0,10,-1,17,-4c0,0,6,-3,9,-7c0,0,3,-4,3,-11V601c0,0,30,31,59,54c0,0,28,23,57,39c0,0,28,15,59,23c0,0,30,8,63,8c0,0,74,0,125,-29c0,0,52,-28,84,-77c0,0,32,-50,47,-115c0,0,15,-65,15,-139c0,0,0,-88,-19,-158c0,0,-19,-70,-56,-119c0,0,-37,-49,-91,-75c0,0,-55,-26,-125,-26c0,0,-30,0,-55,6c0,0,-25,6,-50,18c0,0,-24,13,-48,32c0,0,-24,19,-51,46V-247c0,0,0,-6,-3,-10c0,0,-2,-5,-9,-8c0,0,-7,-3,-19,-4c0,0,-12,-2,-30,-2Z"
id="f0_ay"
transform="scale(0.001,-0.001)"/>

<path d="M60,-208c0,0,-18,0,-31,2c0,0,-12,3,-19,8c0,0,-6,5,-8,12c0,0,-1,7,3,17L457,1067c0,0,3,10,7,16c0,0,5,5,12,8c0,0,7,4,19,5c0,0,11,1,26,1c0,0,19,0,31,-3c0,0,12,-2,19,-7c0,0,6,-4,8,-12c0,0,1,-7,-2,-17L125,-178c0,0,-3,-10,-7,-16c0,0,-5,-5,-13,-8c0,0,-7,-3,-18,-5c0,0,-11,-1,-27,-1Z"
id="f0_od"
transform="scale(0.001,-0.001)"/>

<path d="M324,-4c0,0,-23,0,-37,2c0,0,-15,1,-24,3c0,0,-9,3,-14,8c0,0,-4,6,-7,13L46,660c0,0,-4,11,-5,18c0,0,-2,8,-2,13c0,0,0,7,3,11c0,0,3,4,10,7c0,0,8,2,19,3c0,0,12,1,30,1c0,0,20,0,33,-1c0,0,13,-1,20,-4c0,0,6,-3,9,-8c0,0,3,-4,5,-11L330,136l2,-7l1,7L482,689c0,0,1,7,5,11c0,0,3,5,10,8c0,0,6,3,18,4c0,0,12,1,31,1c0,0,18,0,29,-1c0,0,12,-1,18,-4c0,0,7,-3,10,-7c0,0,3,-5,5,-11L768,136l1,-7l1,7L930,689c0,0,1,7,5,11c0,0,3,5,10,8c0,0,7,3,20,4c0,0,12,1,31,1c0,0,18,0,29,-1c0,0,11,-1,17,-4c0,0,6,-3,9,-6c0,0,3,-4,3,-11c0,0,0,-5,-2,-13c0,0,-1,-7,-5,-18L849,22c0,0,-2,-8,-7,-13c0,0,-5,-6,-13,-9c0,0,-9,-2,-24,-3c0,0,-15,-1,-37,-1c0,0,-23,0,-39,2c0,0,-15,1,-25,3c0,0,-9,3,-14,8c0,0,-4,6,-6,13L543,510l-2,6l-2,-6L409,22c0,0,-3,-8,-7,-13c0,0,-5,-6,-15,-9c0,0,-10,-2,-25,-3c0,0,-15,-1,-38,-1Z"
id="f0_ci"
transform="scale(0.001,-0.001)"/>

<path d="M176,-4c0,0,-18,0,-30,2c0,0,-12,1,-19,3c0,0,-7,3,-10,7c0,0,-3,4,-3,10v997c0,0,0,6,3,11c0,0,3,4,10,7c0,0,7,3,19,5c0,0,12,1,30,1c0,0,18,0,30,-1c0,0,12,-2,19,-5c0,0,7,-3,9,-7c0,0,3,-5,3,-11V408L492,687c0,0,6,7,12,12c0,0,7,5,16,8c0,0,10,4,22,5c0,0,13,1,31,1c0,0,19,0,31,-1c0,0,13,-1,21,-4c0,0,8,-3,11,-7c0,0,3,-4,3,-11c0,0,0,-9,-4,-18c0,0,-5,-8,-16,-20L375,408L648,54c0,0,10,-13,14,-20c0,0,4,-8,4,-15c0,0,0,-6,-3,-10c0,0,-3,-5,-10,-8c0,0,-7,-2,-20,-3c0,0,-13,-2,-32,-2c0,0,-20,0,-33,1c0,0,-13,1,-22,3c0,0,-9,3,-15,7c0,0,-5,5,-10,12L237,391V18c0,0,0,-6,-3,-10c0,0,-2,-4,-9,-7c0,0,-7,-2,-19,-3c0,0,-12,-2,-30,-2Z"
id="f0_a5"
transform="scale(0.001,-0.001)"/>

<path d="M21,-271c0,0,-12,0,-19,11c0,0,-6,11,-6,37c0,0,0,26,6,38c0,0,7,13,19,13H740c0,0,12,0,18,-12c0,0,7,-12,7,-37c0,0,0,-26,-6,-38c0,0,-6,-12,-19,-12Z"
id="f0_or"
transform="scale(0.001,-0.001)"/>

<path d="M469,366l32,248H292L263,366ZM164,-4c0,0,-18,0,-29,1c0,0,-11,1,-17,3c0,0,-6,3,-8,7c0,0,-3,4,-2,9l31,255H52c0,0,-11,0,-18,11c0,0,-7,10,-7,36c0,0,0,13,2,22c0,0,2,9,5,14c0,0,3,6,8,9c0,0,4,3,10,3H152l31,248H93c0,0,-12,0,-19,11c0,0,-7,11,-7,35c0,0,0,26,7,38c0,0,7,11,19,11H194l31,239c0,0,0,6,3,10c0,0,3,4,9,6c0,0,6,3,17,4c0,0,12,2,29,2c0,0,18,0,28,-2c0,0,11,-1,16,-4c0,0,6,-2,7,-6c0,0,2,-4,2,-9L304,709H512l29,239c0,0,1,6,4,10c0,0,3,4,9,6c0,0,5,3,17,4c0,0,11,2,29,2c0,0,17,0,28,-2c0,0,11,-1,16,-4c0,0,5,-2,7,-6c0,0,2,-4,1,-9L622,709h86c0,0,11,0,18,-12c0,0,7,-11,7,-36c0,0,0,-13,-2,-22c0,0,-1,-9,-5,-14c0,0,-3,-6,-8,-8c0,0,-5,-3,-10,-3H610L580,366h87c0,0,11,0,18,-12c0,0,7,-11,7,-36c0,0,0,-13,-2,-22c0,0,-2,-9,-5,-14c0,0,-3,-6,-8,-9c0,0,-5,-2,-10,-2H568L536,16c0,0,0,-5,-3,-9c0,0,-2,-4,-8,-7c0,0,-6,-2,-16,-3c0,0,-11,-1,-28,-1c0,0,-17,0,-28,1c0,0,-11,1,-17,3c0,0,-6,3,-9,7c0,0,-2,4,-1,9l31,255H250L219,16c0,0,-2,-5,-4,-9c0,0,-2,-4,-7,-7c0,0,-6,-2,-16,-3c0,0,-11,-1,-28,-1Z"
id="f0_qg"
transform="scale(0.001,-0.001)"/>

<path d="M526,569c0,0,-36,0,-62,8c0,0,-26,8,-46,21c0,0,-20,13,-35,29c0,0,-16,17,-29,34c0,0,-14,17,-27,32c0,0,-13,15,-26,26c0,0,-13,12,-29,18c0,0,-16,7,-36,7c0,0,-25,0,-43,-11c0,0,-17,-11,-28,-28c0,0,-12,-18,-16,-42c0,0,-5,-23,-5,-49c0,0,0,-13,-13,-17c0,0,-13,-4,-37,-4c0,0,-14,0,-24,1c0,0,-9,2,-15,4c0,0,-5,3,-7,7c0,0,-2,5,-2,10v20c0,0,0,52,14,91c0,0,14,39,40,65c0,0,25,27,60,40c0,0,36,14,78,14c0,0,35,0,61,-8c0,0,26,-8,47,-20c0,0,20,-13,35,-29c0,0,16,-16,29,-33c0,0,14,-17,26,-32c0,0,12,-15,26,-26c0,0,13,-12,29,-19c0,0,16,-6,37,-6c0,0,24,0,42,9c0,0,17,10,28,27c0,0,12,18,17,41c0,0,5,24,5,52c0,0,0,12,12,16c0,0,13,4,36,4c0,0,15,0,24,-1c0,0,10,-1,16,-4c0,0,6,-3,8,-7c0,0,2,-5,2,-11V773c0,0,-2,-51,-19,-89c0,0,-16,-38,-42,-63c0,0,-27,-26,-61,-39c0,0,-34,-13,-70,-13Z"
id="f0_pi"
transform="scale(0.001,-0.001)"/>

<path d="M92,-4c0,0,-22,0,-35,2C57,-2,43,0,37,3c0,0,-7,5,-6,12c0,0,0,7,7,17L247,360L49,675c0,0,-6,11,-6,18c0,0,-1,7,6,12c0,0,7,5,22,6c0,0,14,2,38,2c0,0,22,0,35,-1c0,0,13,-1,20,-4c0,0,8,-2,12,-6c0,0,3,-3,6,-9L335,443L490,693c0,0,3,5,7,9c0,0,4,3,10,6c0,0,7,3,18,4c0,0,12,1,32,1c0,0,21,0,35,-2c0,0,14,-1,21,-5c0,0,7,-4,6,-12c0,0,-1,-7,-8,-19L415,364L622,32c0,0,6,-10,6,-17c0,0,0,-7,-7,-12c0,0,-7,-3,-21,-5c0,0,-15,-2,-38,-2c0,0,-22,0,-35,1c0,0,-13,1,-21,3c0,0,-8,3,-12,7c0,0,-4,4,-7,9L326,282L165,16c0,0,-3,-5,-7,-9c0,0,-4,-4,-12,-7c0,0,-8,-2,-20,-3c0,0,-13,-1,-34,-1Z"
id="f0_cn"
transform="scale(0.001,-0.001)"/>

<path d="M98,233c0,0,-11,0,-19,11c0,0,-9,11,-9,41c0,0,0,28,8,41c0,0,7,12,20,12H662c0,0,13,0,21,-12c0,0,7,-13,7,-41c0,0,0,-30,-8,-41c0,0,-9,-11,-20,-11Zm0,289c0,0,-11,0,-19,12c0,0,-9,11,-9,41c0,0,0,27,8,40c0,0,7,13,20,13H662c0,0,13,0,21,-13c0,0,7,-13,7,-40c0,0,0,-30,-8,-41c0,0,-9,-12,-20,-12Z"
id="f0_ua"
transform="scale(0.001,-0.001)"/>

<path d="M833,72c0,0,30,0,49,11c0,0,19,11,31,33c0,0,11,22,16,53c0,0,5,31,5,71c0,0,0,42,-6,74c0,0,-6,33,-18,55c0,0,-13,21,-33,32c0,0,-20,11,-47,11c0,0,-27,0,-46,-11c0,0,-19,-10,-32,-31c0,0,-12,-21,-18,-52c0,0,-6,-31,-6,-73c0,0,0,-50,7,-84c0,0,7,-34,20,-54c0,0,13,-20,33,-28c0,0,20,-7,45,-7Zm-6,-82c0,0,-54,0,-93,16c0,0,-39,17,-63,50c0,0,-25,32,-37,79c0,0,-11,46,-11,106c0,0,0,54,12,101c0,0,13,46,38,79c0,0,25,34,65,53c0,0,40,20,95,20c0,0,58,0,98,-20c0,0,40,-20,64,-54c0,0,24,-34,34,-80c0,0,9,-45,9,-96c0,0,0,-58,-12,-104c0,0,-13,-47,-39,-81C987,59,961,26,921,7c0,0,-40,-17,-94,-17ZM264,554c0,0,30,0,49,11c0,0,19,12,31,34c0,0,11,22,16,53c0,0,5,31,5,71c0,0,0,42,-6,74c0,0,-6,33,-18,54c0,0,-13,22,-33,33c0,0,-20,10,-48,10c0,0,-26,0,-45,-10c0,0,-20,-10,-32,-31c0,0,-12,-21,-18,-52c0,0,-6,-31,-6,-73c0,0,0,-51,7,-85c0,0,7,-34,20,-53c0,0,13,-20,33,-28c0,0,20,-8,45,-8Zm-6,-83c0,0,-54,0,-93,18c0,0,-39,17,-64,49c0,0,-24,33,-36,79c0,0,-11,47,-11,107c0,0,0,54,12,100c0,0,12,47,38,80c0,0,25,34,65,53c0,0,40,19,94,19c0,0,59,0,99,-20c0,0,40,-20,64,-54c0,0,24,-34,34,-79c0,0,9,-46,9,-96c0,0,0,-58,-12,-105c0,0,-13,-47,-39,-80c0,0,-26,-33,-66,-52c0,0,-40,-19,-94,-19ZM193,-26c0,0,-16,0,-26,3c0,0,-10,3,-14,8c0,0,-5,5,-3,12c0,0,1,6,7,15L828,974c0,0,4,5,9,10c0,0,5,4,13,6c0,0,8,2,18,3c0,0,10,1,26,1c0,0,15,0,25,-2c0,0,11,-3,15,-8c0,0,4,-5,3,-13c0,0,-1,-7,-7,-15L258,-5c0,0,-4,-7,-9,-10c0,0,-5,-3,-13,-6c0,0,-7,-3,-17,-4c0,0,-11,-1,-26,-1Z"
id="f0_u2"
transform="scale(0.001,-0.001)"/>

<path d="M385,92c0,0,42,0,74,13c0,0,31,14,54,39c0,0,23,25,38,60c0,0,15,35,24,77c0,0,9,43,12,92c0,0,3,50,3,103c0,0,0,73,-5,130c0,0,-5,57,-15,101c0,0,-10,44,-26,76c0,0,-16,32,-39,52c0,0,-22,21,-51,30c0,0,-29,9,-64,9c0,0,-64,0,-103,-30c0,0,-40,-29,-63,-82c0,0,-23,-52,-31,-122c0,0,-8,-70,-8,-150c0,0,0,-108,11,-184c0,0,11,-76,36,-123c0,0,24,-48,62,-69c0,0,37,-22,91,-22ZM378,-13c0,0,-91,0,-154,32c0,0,-62,32,-100,95c0,0,-38,63,-54,155c0,0,-16,92,-16,212c0,0,0,110,18,202c0,0,18,92,58,158c0,0,40,66,106,103c0,0,66,36,161,36c0,0,92,0,154,-33c0,0,62,-32,100,-95c0,0,39,-63,55,-155c0,0,16,-92,16,-212c0,0,0,-111,-18,-203c0,0,-17,-91,-58,-157C646,125,605,59,540,22c0,0,-66,-35,-162,-35Z"
id="f0_rx"
transform="scale(0.001,-0.001)"/>

<path d="M482,-11c0,0,-94,0,-170,31c0,0,-76,31,-129,92c0,0,-53,61,-82,151c0,0,-29,90,-29,207c0,0,0,120,31,214c0,0,31,94,87,159c0,0,56,65,134,100c0,0,78,34,173,34c0,0,41,0,81,-8c0,0,39,-8,73,-19c0,0,33,-12,60,-28c0,0,26,-15,36,-25c0,0,10,-10,13,-15c0,0,3,-6,5,-13c0,0,1,-7,3,-17c0,0,1,-9,1,-23c0,0,0,-15,-2,-25c0,0,-1,-11,-4,-18c0,0,-3,-7,-7,-10c0,0,-4,-4,-10,-4c0,0,-11,0,-30,15c0,0,-18,14,-48,32c0,0,-29,17,-71,32c0,0,-42,14,-101,14c0,0,-64,0,-117,-25c0,0,-52,-26,-90,-76c0,0,-37,-50,-57,-122c0,0,-21,-72,-21,-164c0,0,0,-92,20,-163c0,0,20,-70,57,-117c0,0,36,-48,90,-72c0,0,54,-24,122,-24c0,0,57,0,100,14c0,0,43,14,73,32c0,0,30,17,50,31c0,0,19,15,30,15c0,0,5,0,9,-3c0,0,4,-2,6,-8c0,0,2,-7,3,-18c0,0,2,-11,2,-28c0,0,0,-12,-1,-21c0,0,-1,-9,-3,-16c0,0,-2,-6,-5,-12c0,0,-3,-5,-10,-12c0,0,-8,-8,-31,-23c0,0,-24,-15,-60,-30C663,23,628,8,582,-1c0,0,-46,-10,-100,-10Z"
id="f0_j"
transform="scale(0.001,-0.001)"/>

<path d="M346,-4c0,0,-23,0,-38,2c0,0,-15,1,-24,3c0,0,-9,3,-15,8c0,0,-5,6,-8,13L33,660c0,0,-3,9,-5,15c0,0,-2,7,-2,11c0,0,0,3,0,5c0,0,0,6,3,11c0,0,3,4,10,7c0,0,7,2,18,3c0,0,12,1,29,1c0,0,22,0,35,-1c0,0,13,-1,20,-4c0,0,7,-3,10,-8c0,0,4,-4,7,-11L347,135l3,-9l2,9L540,689c0,0,1,7,5,11c0,0,3,5,11,8c0,0,7,3,19,4c0,0,12,1,32,1c0,0,18,0,29,-1c0,0,11,-1,17,-4c0,0,7,-3,9,-7c0,0,3,-4,3,-10c0,0,0,-3,-1,-6c0,0,0,-4,-1,-7c0,0,0,-4,-2,-8c0,0,-1,-5,-2,-10L430,22c0,0,-3,-8,-8,-13c0,0,-5,-6,-15,-9c0,0,-9,-2,-24,-3c0,0,-15,-1,-37,-1Z"
id="f0_ch"
transform="scale(0.001,-0.001)"/>

<path d="M469,327V857h-2L153,327ZM530,-4c0,0,-18,0,-30,2c0,0,-12,1,-19,3c0,0,-7,3,-9,7c0,0,-3,4,-3,10V221H71c0,0,-9,0,-15,2c0,0,-6,2,-11,8c0,0,-5,6,-7,17c0,0,-2,12,-2,30c0,0,0,14,1,25c0,0,1,11,3,20c0,0,2,10,6,18c0,0,4,9,9,18L403,947c0,0,3,6,10,10c0,0,7,5,19,8c0,0,11,3,27,4c0,0,17,1,39,1c0,0,25,0,43,-2c0,0,18,-2,29,-5c0,0,12,-3,18,-8c0,0,6,-4,6,-11V327H702c0,0,13,0,21,-13c0,0,8,-13,8,-40c0,0,0,-25,-8,-39c0,0,-7,-14,-21,-14H594V18c0,0,0,-6,-3,-10c0,0,-3,-4,-11,-7c0,0,-7,-2,-19,-3c0,0,-12,-2,-31,-2Z"
id="f0_s1"
transform="scale(0.001,-0.001)"/>

<path d="M252,-271c0,0,-19,0,-31,2c0,0,-12,2,-18,6c0,0,-7,5,-8,12c0,0,0,8,4,18L292,0c0,0,-7,3,-13,10c0,0,-6,6,-8,14L31,665c0,0,-6,16,-6,25c0,0,0,9,6,14c0,0,6,5,20,7c0,0,13,2,36,2c0,0,22,0,35,-1c0,0,12,-1,20,-4c0,0,7,-3,11,-9c0,0,3,-6,7,-15L351,145h3L539,687c0,0,4,14,10,18c0,0,7,4,19,6c0,0,13,2,37,2c0,0,21,0,34,-2c0,0,14,-2,20,-7c0,0,6,-5,6,-14c0,0,0,-9,-4,-23L420,0L330,-246c0,0,-4,-12,-22,-18c0,0,-19,-7,-56,-7Z"
id="f0_co"
transform="scale(0.001,-0.001)"/>

</defs>
<g fill="#000000" >
<use xlink:href="#f0_2j" transform="matrix(12,0,0,12,55,75)"/>
<use xlink:href="#f0_7z" transform="matrix(12,0,0,12,64.5,75)"/>
<use xlink:href="#f0_89" transform="matrix(12,0,0,12,73.5,75)"/>
<use xlink:href="#f0_7z" transform="matrix(12,0,0,12,78.8,75)"/>
<use xlink:href="#f0_b1" transform="matrix(12,0,0,12,88,75)"/>
<use xlink:href="#f0_7z" transform="matrix(12,0,0,12,94.2,75)"/>
<use xlink:href="#f0_af" transform="matrix(12,0,0,12,103.2,75)"/>
<use xlink:href="#f0_7l" transform="matrix(12,0,0,12,112.8,75)"/>
<use xlink:href="#f0_7z" transform="matrix(12,0,0,12,120.7,75)"/>
<use xlink:href="#f0_ns" transform="matrix(12,0,0,12,129.8,75)"/>
<use xlink:href="#f0_ox" transform="matrix(12,0,0,12,55,102.5)"/>
<use xlink:href="#f0_ry" transform="matrix(12,0,0,12,60.6,102.5)"/>
<use xlink:href="#f0_oy" transform="matrix(12,0,0,12,69.9,102.5)"/>
<use xlink:href="#f0_3f" transform="matrix(12,0,0,12,79.9,102.5)"/>
<use xlink:href="#f0_nt" transform="matrix(12,0,0,12,86.7,102.5)"/>
<use xlink:href="#f0_2n" transform="matrix(12,0,0,12,91.3,102.5)"/>
<use xlink:href="#f0_nt" transform="matrix(12,0,0,12,99.8,102.5)"/>
<use xlink:href="#f0_5" transform="matrix(12,0,0,12,108.5,102.5)"/>
<use xlink:href="#f0_7k" transform="matrix(12,0,0,12,119,102.5)"/>
<use xlink:href="#f0_c6" transform="matrix(12,0,0,12,128.6,102.5)"/>
<use xlink:href="#f0_oj" transform="matrix(12,0,0,12,138.2,102.5)"/>
<use xlink:href="#f0_1x" transform="matrix(12,0,0,12,143.8,102.5)"/>
<use xlink:href="#f0_am" transform="matrix(12,0,0,12,159.7,102.5)"/>
<use xlink:href="#f0_b5" transform="matrix(12,0,0,12,169.4,102.5)"/>
<use xlink:href="#f0_bf" transform="matrix(12,0,0,12,176.2,102.5)"/>
<use xlink:href="#f0_77" transform="matrix(12,0,0,12,182.3,102.5)"/>
<use xlink:href="#f0_89" transform="matrix(12,0,0,12,190.9,102.5)"/>
<use xlink:href="#f0_77" transform="matrix(12,0,0,12,196.2,102.5)"/>
<use xlink:href="#f0_nq" transform="matrix(12,0,0,12,205,102.5)"/>
<use xlink:href="#f0_1x" transform="matrix(12,0,0,12,213.6,102.5)"/>
<use xlink:href="#f0_nt" transform="matrix(12,0,0,12,229.3,102.5)"/>
<use xlink:href="#f0_1x" transform="matrix(12,0,0,12,238,102.5)"/>
<use xlink:href="#f0_nt" transform="matrix(12,0,0,12,253.8,102.5)"/>
<use xlink:href="#f0_1c" transform="matrix(12,0,0,12,262.5,102.5)"/>
<use xlink:href="#f0_b5" transform="matrix(12,0,0,12,267.2,102.5)"/>
<use xlink:href="#f0_ae" transform="matrix(12,0,0,12,274.3,102.5)"/>
<use xlink:href="#f0_77" transform="matrix(12,0,0,12,289,102.5)"/>
<use xlink:href="#f0_9q" transform="matrix(12,0,0,12,297.8,102.5)"/>
<use xlink:href="#f0_a8" transform="matrix(12,0,0,12,302,102.5)"/>
<use xlink:href="#f0_nq" transform="matrix(12,0,0,12,306.2,102.5)"/>
<use xlink:href="#f0_19" transform="matrix(12,0,0,12,324.1,102.5)"/>
<use xlink:href="#f0_nt" transform="matrix(12,0,0,12,335.5,102.5)"/>
<use xlink:href="#f0_2t" transform="matrix(12,0,0,12,338.8,102.5)"/>
<use xlink:href="#f0_nt" transform="matrix(12,0,0,12,345.9,102.5)"/>
<use xlink:href="#f0_1r" transform="matrix(12,0,0,12,354.7,102.5)"/>
<use xlink:href="#f0_9q" transform="matrix(12,0,0,12,362.4,102.5)"/>
<use xlink:href="#f0_af" transform="matrix(12,0,0,12,366.4,102.5)"/>
<use xlink:href="#f0_nq" transform="matrix(12,0,0,12,376.1,102.5)"/>
<use xlink:href="#f0_1r" transform="matrix(12,0,0,12,385,102.5)"/>
<use xlink:href="#f0_7z" transform="matrix(12,0,0,12,392.7,102.5)"/>
<use xlink:href="#f0_77" transform="matrix(12,0,0,12,401.8,102.5)"/>
<use xlink:href="#f0_b1" transform="matrix(12,0,0,12,410.4,102.5)"/>
<use xlink:href="#f0_af" transform="matrix(12,0,0,12,416.7,102.5)"/>
<use xlink:href="#f0_9q" transform="matrix(12,0,0,12,426.3,102.5)"/>
<use xlink:href="#f0_af" transform="matrix(12,0,0,12,430.7,102.5)"/>
<use xlink:href="#f0_9d" transform="matrix(12,0,0,12,440.3,102.5)"/>
<use xlink:href="#f0_13" transform="matrix(12,0,0,12,453.1,102.5)"/>
<use xlink:href="#f0_b1" transform="matrix(12,0,0,12,461.7,102.5)"/>
<use xlink:href="#f0_am" transform="matrix(12,0,0,12,467.8,102.5)"/>
<use xlink:href="#f0_ae" transform="matrix(12,0,0,12,477.4,102.5)"/>
<use xlink:href="#f0_p" transform="matrix(12,0,0,12,496.1,102.5)"/>
<use xlink:href="#f0_77" transform="matrix(12,0,0,12,507.4,102.5)"/>
<use xlink:href="#f0_bf" transform="matrix(12,0,0,12,516,102.5)"/>
<use xlink:href="#f0_77" transform="matrix(12,0,0,12,522.1,102.5)"/>
<use xlink:href="#f0_nq" transform="matrix(12,0,0,12,530.7,102.5)"/>
<use xlink:href="#f0_77" transform="matrix(12,0,0,12,539.3,102.5)"/>
<use xlink:href="#f0_b5" transform="matrix(12,0,0,12,552.4,102.5)"/>
<use xlink:href="#f0_9n" transform="matrix(12,0,0,12,559.6,102.5)"/>
<use xlink:href="#f0_am" transform="matrix(12,0,0,12,569.1,102.5)"/>
<use xlink:href="#f0_b1" transform="matrix(12,0,0,12,578.8,102.5)"/>
<use xlink:href="#f0_bf" transform="matrix(12,0,0,12,585.2,102.5)"/>
<use xlink:href="#f0_7l" transform="matrix(12,0,0,12,595.5,102.5)"/>
<use xlink:href="#f0_am" transform="matrix(12,0,0,12,603,102.5)"/>
<use xlink:href="#f0_c6" transform="matrix(12,0,0,12,612.6,102.5)"/>
<use xlink:href="#f0_b1" transform="matrix(12,0,0,12,622.3,102.5)"/>
<use xlink:href="#f0_b5" transform="matrix(12,0,0,12,628.5,102.5)"/>
<use xlink:href="#f0_7z" transform="matrix(12,0,0,12,635.7,102.5)"/>
<use xlink:href="#f0_nt" transform="matrix(12,0,0,12,644.8,102.5)"/>
<use xlink:href="#f0_ox" transform="matrix(12,0,0,12,55,130)"/>
<use xlink:href="#f0_rz" transform="matrix(12,0,0,12,60.6,130)"/>
<use xlink:href="#f0_oy" transform="matrix(12,0,0,12,69.9,130)"/>
<use xlink:href="#f0_2t" transform="matrix(12,0,0,12,79.8,130)"/>
<use xlink:href="#f0_nt" transform="matrix(12,0,0,12,87,130)"/>
<use xlink:href="#f0_19" transform="matrix(12,0,0,12,91.6,130)"/>
<use xlink:href="#f0_77" transform="matrix(12,0,0,12,102.8,130)"/>
<use xlink:href="#f0_b5" transform="matrix(12,0,0,12,111.6,130)"/>
<use xlink:href="#f0_bf" transform="matrix(12,0,0,12,118.7,130)"/>
<use xlink:href="#f0_9q" transform="matrix(12,0,0,12,124.9,130)"/>
<use xlink:href="#f0_7z" transform="matrix(12,0,0,12,129.1,130)"/>
<use xlink:href="#f0_nq" transform="matrix(12,0,0,12,138.2,130)"/>
<use xlink:href="#f0_2j" transform="matrix(12,0,0,12,146.9,130)"/>
<use xlink:href="#f0_nt" transform="matrix(12,0,0,12,157,130)"/>
<use xlink:href="#f0_2t" transform="matrix(12,0,0,12,165.7,130)"/>
<use xlink:href="#f0_9q" transform="matrix(12,0,0,12,174.6,130)"/>
<use xlink:href="#f0_7k" transform="matrix(12,0,0,12,178.8,130)"/>
<use xlink:href="#f0_b5" transform="matrix(12,0,0,12,188.4,130)"/>
<use xlink:href="#f0_9n" transform="matrix(12,0,0,12,195.6,130)"/>
<use xlink:href="#f0_9q" transform="matrix(12,0,0,12,205.2,130)"/>
<use xlink:href="#f0_b1" transform="matrix(12,0,0,12,209.5,130)"/>
<use xlink:href="#f0_77" transform="matrix(12,0,0,12,215.5,130)"/>
<use xlink:href="#f0_af" transform="matrix(12,0,0,12,224.3,130)"/>
<use xlink:href="#f0_9q" transform="matrix(12,0,0,12,233.9,130)"/>
<use xlink:href="#f0_nq" transform="matrix(12,0,0,12,238.1,130)"/>
<use xlink:href="#f0_1n" transform="matrix(12,0,0,12,246.7,130)"/>
<use xlink:href="#f0_nt" transform="matrix(12,0,0,12,252.5,130)"/>
<use xlink:href="#f0_13" transform="matrix(12,0,0,12,261.2,130)"/>
<use xlink:href="#f0_b1" transform="matrix(12,0,0,12,269.6,130)"/>
<use xlink:href="#f0_9q" transform="matrix(12,0,0,12,276,130)"/>
<use xlink:href="#f0_7z" transform="matrix(12,0,0,12,280.4,130)"/>
<use xlink:href="#f0_7v" transform="matrix(12,0,0,12,289.5,130)"/>
<use xlink:href="#f0_ae" transform="matrix(12,0,0,12,299,130)"/>
<use xlink:href="#f0_77" transform="matrix(12,0,0,12,313.7,130)"/>
<use xlink:href="#f0_af" transform="matrix(12,0,0,12,322.5,130)"/>
<use xlink:href="#f0_nq" transform="matrix(12,0,0,12,332.1,130)"/>
<use xlink:href="#f0_2t" transform="matrix(12,0,0,12,340.8,130)"/>
<use xlink:href="#f0_9n" transform="matrix(12,0,0,12,349.8,130)"/>
<use xlink:href="#f0_7z" transform="matrix(12,0,0,12,359.3,130)"/>
<use xlink:href="#f0_t" transform="matrix(12,0,0,12,372.6,130)"/>
<use xlink:href="#f0_a8" transform="matrix(12,0,0,12,381.7,130)"/>
<use xlink:href="#f0_7z" transform="matrix(12,0,0,12,385.9,130)"/>
<use xlink:href="#f0_ae" transform="matrix(12,0,0,12,395.1,130)"/>
<use xlink:href="#f0_7z" transform="matrix(12,0,0,12,409.5,130)"/>
<use xlink:href="#f0_af" transform="matrix(12,0,0,12,418.7,130)"/>
<use xlink:href="#f0_bf" transform="matrix(12,0,0,12,428,130)"/>
<use xlink:href="#f0_b5" transform="matrix(12,0,0,12,434.2,130)"/>
<use xlink:href="#f0_am" transform="matrix(12,0,0,12,445.6,130)"/>
<use xlink:href="#f0_89" transform="matrix(12,0,0,12,455.2,130)"/>
<use xlink:href="#f0_2n" transform="matrix(12,0,0,12,465,130)"/>
<use xlink:href="#f0_bf" transform="matrix(12,0,0,12,473.4,130)"/>
<use xlink:href="#f0_77" transform="matrix(12,0,0,12,479.5,130)"/>
<use xlink:href="#f0_bf" transform="matrix(12,0,0,12,488,130)"/>
<use xlink:href="#f0_9q" transform="matrix(12,0,0,12,494.2,130)"/>
<use xlink:href="#f0_b5" transform="matrix(12,0,0,12,498.4,130)"/>
<use xlink:href="#f0_bf" transform="matrix(12,0,0,12,505.2,130)"/>
<use xlink:href="#f0_9q" transform="matrix(12,0,0,12,511.4,130)"/>
<use xlink:href="#f0_7l" transform="matrix(12,0,0,12,515.6,130)"/>
<use xlink:href="#f0_77" transform="matrix(12,0,0,12,523.2,130)"/>
<use xlink:href="#f0_a8" transform="matrix(12,0,0,12,531.9,130)"/>
<use xlink:href="#f0_1r" transform="matrix(12,0,0,12,540.5,130)"/>
<use xlink:href="#f0_7z" transform="matrix(12,0,0,12,548.2,130)"/>
<use xlink:href="#f0_77" transform="matrix(12,0,0,12,557.3,130)"/>
<use xlink:href="#f0_b1" transform="matrix(12,0,0,12,566.1,130)"/>
<use xlink:href="#f0_af" transform="matrix(12,0,0,12,572.3,130)"/>
<use xlink:href="#f0_9q" transform="matrix(12,0,0,12,582,130)"/>
<use xlink:href="#f0_af" transform="matrix(12,0,0,12,586.4,130)"/>
<use xlink:href="#f0_9d" transform="matrix(12,0,0,12,596,130)"/>
<use xlink:href="#f0_ns" transform="matrix(12,0,0,12,604.6,130)"/>
<use xlink:href="#f0_p" transform="matrix(12,0,0,12,613.4,130)"/>
<use xlink:href="#f0_77" transform="matrix(12,0,0,12,624.7,130)"/>
<use xlink:href="#f0_bf" transform="matrix(12,0,0,12,633.5,130)"/>
<use xlink:href="#f0_77" transform="matrix(12,0,0,12,639.6,130)"/>
<use xlink:href="#f0_1x" transform="matrix(12,0,0,12,652.2,130)"/>
<use xlink:href="#f0_9q" transform="matrix(12,0,0,12,668.2,130)"/>
<use xlink:href="#f0_af" transform="matrix(12,0,0,12,672.2,130)"/>
<use xlink:href="#f0_9q" transform="matrix(12,0,0,12,681.8,130)"/>
<use xlink:href="#f0_af" transform="matrix(12,0,0,12,686,130)"/>
<use xlink:href="#f0_9d" transform="matrix(12,0,0,12,695.7,130)"/>
<use xlink:href="#f0_nq" transform="matrix(12,0,0,12,704.6,130)"/>
<use xlink:href="#f0_1c" transform="matrix(12,0,0,12,713.4,130)"/>
<use xlink:href="#f0_af" transform="matrix(12,0,0,12,718,130)"/>
<use xlink:href="#f0_89" transform="matrix(12,0,0,12,727.3,130)"/>
<use xlink:href="#f0_7z" transform="matrix(12,0,0,12,732.5,130)"/>
<use xlink:href="#f0_b1" transform="matrix(12,0,0,12,741.6,130)"/>
<use xlink:href="#f0_7z" transform="matrix(12,0,0,12,747.8,130)"/>
<use xlink:href="#f0_af" transform="matrix(12,0,0,12,756.8,130)"/>
<use xlink:href="#f0_7l" transform="matrix(12,0,0,12,766.4,130)"/>
<use xlink:href="#f0_7z" transform="matrix(12,0,0,12,774.3,130)"/>
<use xlink:href="#f0_nq" transform="matrix(12,0,0,12,783.4,130)"/>
<use xlink:href="#f0_77" transform="matrix(12,0,0,12,792.2,130)"/>
<use xlink:href="#f0_af" transform="matrix(12,0,0,12,800.8,130)"/>
<use xlink:href="#f0_7v" transform="matrix(12,0,0,12,810.4,130)"/>
<use xlink:href="#f0_2g" transform="matrix(12,0,0,12,55,157.5)"/>
<use xlink:href="#f0_b1" transform="matrix(12,0,0,12,64.5,157.5)"/>
<use xlink:href="#f0_7z" transform="matrix(12,0,0,12,70.7,157.5)"/>
<use xlink:href="#f0_7v" transform="matrix(12,0,0,12,79.8,157.5)"/>
<use xlink:href="#f0_9q" transform="matrix(12,0,0,12,89.5,157.5)"/>
<use xlink:href="#f0_7l" transform="matrix(12,0,0,12,93.7,157.5)"/>
<use xlink:href="#f0_bf" transform="matrix(12,0,0,12,101.4,157.5)"/>
<use xlink:href="#f0_9q" transform="matrix(12,0,0,12,107.7,157.5)"/>
<use xlink:href="#f0_am" transform="matrix(12,0,0,12,111.9,157.5)"/>
<use xlink:href="#f0_af" transform="matrix(12,0,0,12,121.4,157.5)"/>
<use xlink:href="#f0_nq" transform="matrix(12,0,0,12,131,157.5)"/>
<use xlink:href="#f0_2n" transform="matrix(12,0,0,12,139.7,157.5)"/>
<use xlink:href="#f0_7z" transform="matrix(12,0,0,12,148.4,157.5)"/>
<use xlink:href="#f0_7l" transform="matrix(12,0,0,12,157.5,157.5)"/>
<use xlink:href="#f0_am" transform="matrix(12,0,0,12,165,157.5)"/>
<use xlink:href="#f0_af" transform="matrix(12,0,0,12,174.5,157.5)"/>
<use xlink:href="#f0_7v" transform="matrix(12,0,0,12,184.2,157.5)"/>
<use xlink:href="#f0_t" transform="matrix(12,0,0,12,197.9,157.5)"/>
<use xlink:href="#f0_7v" transform="matrix(12,0,0,12,206.7,157.5)"/>
<use xlink:href="#f0_9q" transform="matrix(12,0,0,12,216.4,157.5)"/>
<use xlink:href="#f0_bf" transform="matrix(12,0,0,12,220.6,157.5)"/>
<use xlink:href="#f0_9q" transform="matrix(12,0,0,12,226.8,157.5)"/>
<use xlink:href="#f0_am" transform="matrix(12,0,0,12,231,157.5)"/>
<use xlink:href="#f0_af" transform="matrix(12,0,0,12,240.6,157.5)"/>
<use xlink:href="#f0_nt" transform="matrix(12,0,0,12,250.2,157.5)"/>
<use xlink:href="#f0_ox" transform="matrix(12,0,0,12,55,185)"/>
<use xlink:href="#f0_s0" transform="matrix(12,0,0,12,60.6,185)"/>
<use xlink:href="#f0_oy" transform="matrix(12,0,0,12,69.9,185)"/>
</g>
<g fill="#0000FF" >
<use xlink:href="#f0_9n" transform="matrix(6,0,0,6,79.7,185)"/>
<use xlink:href="#f0_bf" transform="matrix(6,0,0,6,84.5,185)"/>
<use xlink:href="#f0_bf" transform="matrix(6,0,0,6,87.5,185)"/>
<use xlink:href="#f0_ay" transform="matrix(6,0,0,6,90.6,185)"/>
<use xlink:href="#f0_b5" transform="matrix(6,0,0,6,95.3,185)"/>
<use xlink:href="#f0_ns" transform="matrix(6,0,0,6,99,185)"/>
<use xlink:href="#f0_od" transform="matrix(6,0,0,6,101.4,185)"/>
<use xlink:href="#f0_od" transform="matrix(6,0,0,6,104.9,185)"/>
<use xlink:href="#f0_7z" transform="matrix(6,0,0,6,108.2,185)"/>
<use xlink:href="#f0_af" transform="matrix(6,0,0,6,112.7,185)"/>
<use xlink:href="#f0_nt" transform="matrix(6,0,0,6,117.5,185)"/>
<use xlink:href="#f0_ci" transform="matrix(6,0,0,6,119.5,185)"/>
<use xlink:href="#f0_9q" transform="matrix(6,0,0,6,126.1,185)"/>
<use xlink:href="#f0_a5" transform="matrix(6,0,0,6,128.1,185)"/>
<use xlink:href="#f0_9q" transform="matrix(6,0,0,6,132.3,185)"/>
<use xlink:href="#f0_ay" transform="matrix(6,0,0,6,134.4,185)"/>
<use xlink:href="#f0_7z" transform="matrix(6,0,0,6,139.1,185)"/>
<use xlink:href="#f0_7v" transform="matrix(6,0,0,6,143.7,185)"/>
<use xlink:href="#f0_9q" transform="matrix(6,0,0,6,148.5,185)"/>
<use xlink:href="#f0_77" transform="matrix(6,0,0,6,150.5,185)"/>
<use xlink:href="#f0_nt" transform="matrix(6,0,0,6,154.9,185)"/>
<use xlink:href="#f0_am" transform="matrix(6,0,0,6,157.3,185)"/>
<use xlink:href="#f0_b1" transform="matrix(6,0,0,6,162.3,185)"/>
<use xlink:href="#f0_9d" transform="matrix(6,0,0,6,165.2,185)"/>
<use xlink:href="#f0_od" transform="matrix(6,0,0,6,170,185)"/>
<use xlink:href="#f0_ci" transform="matrix(6,0,0,6,173.5,185)"/>
<use xlink:href="#f0_9q" transform="matrix(6,0,0,6,180.1,185)"/>
<use xlink:href="#f0_a5" transform="matrix(6,0,0,6,182.1,185)"/>
<use xlink:href="#f0_9q" transform="matrix(6,0,0,6,186.3,185)"/>
<use xlink:href="#f0_od" transform="matrix(6,0,0,6,188.3,185)"/>
<use xlink:href="#f0_1r" transform="matrix(6,0,0,6,191.8,185)"/>
<use xlink:href="#f0_9q" transform="matrix(6,0,0,6,195.8,185)"/>
<use xlink:href="#f0_af" transform="matrix(6,0,0,6,197.9,185)"/>
<use xlink:href="#f0_7z" transform="matrix(6,0,0,6,202.6,185)"/>
<use xlink:href="#f0_77" transform="matrix(6,0,0,6,207.2,185)"/>
<use xlink:href="#f0_b1" transform="matrix(6,0,0,6,211.6,185)"/>
<use xlink:href="#f0_or" transform="matrix(6,0,0,6,214.7,185)"/>
<use xlink:href="#f0_b1" transform="matrix(6,0,0,6,219.5,185)"/>
<use xlink:href="#f0_7z" transform="matrix(6,0,0,6,222.4,185)"/>
<use xlink:href="#f0_9d" transform="matrix(6,0,0,6,227,185)"/>
<use xlink:href="#f0_b1" transform="matrix(6,0,0,6,231.4,185)"/>
<use xlink:href="#f0_7z" transform="matrix(6,0,0,6,234.3,185)"/>
<use xlink:href="#f0_b5" transform="matrix(6,0,0,6,239.1,185)"/>
<use xlink:href="#f0_b5" transform="matrix(6,0,0,6,242.7,185)"/>
<use xlink:href="#f0_9q" transform="matrix(6,0,0,6,246.4,185)"/>
<use xlink:href="#f0_am" transform="matrix(6,0,0,6,248.4,185)"/>
<use xlink:href="#f0_af" transform="matrix(6,0,0,6,253.2,185)"/>
<use xlink:href="#f0_qg" transform="matrix(6,0,0,6,257.9,185)"/>
<use xlink:href="#f0_ns" transform="matrix(6,0,0,6,262.5,185)"/>
<use xlink:href="#f0_pi" transform="matrix(6,0,0,6,264.9,185)"/>
<use xlink:href="#f0_ns" transform="matrix(6,0,0,6,269.5,185)"/>
<use xlink:href="#f0_bf" transform="matrix(6,0,0,6,271.9,185)"/>
<use xlink:href="#f0_7z" transform="matrix(6,0,0,6,274.8,185)"/>
<use xlink:href="#f0_cn" transform="matrix(6,0,0,6,279.2,185)"/>
<use xlink:href="#f0_bf" transform="matrix(6,0,0,6,283.3,185)"/>
<use xlink:href="#f0_ua" transform="matrix(6,0,0,6,286.4,185)"/>
<use xlink:href="#f0_1c" transform="matrix(6,0,0,6,291,185)"/>
<use xlink:href="#f0_af" transform="matrix(6,0,0,6,293.3,185)"/>
<use xlink:href="#f0_u2" transform="matrix(6,0,0,6,298.1,185)"/>
<use xlink:href="#f0_rz" transform="matrix(6,0,0,6,304.7,185)"/>
<use xlink:href="#f0_rx" transform="matrix(6,0,0,6,309.3,185)"/>
<use xlink:href="#f0_b5" transform="matrix(6,0,0,6,313.9,185)"/>
<use xlink:href="#f0_bf" transform="matrix(6,0,0,6,317.4,185)"/>
<use xlink:href="#f0_77" transform="matrix(6,0,0,6,320.3,185)"/>
<use xlink:href="#f0_bf" transform="matrix(6,0,0,6,324.7,185)"/>
<use xlink:href="#f0_9q" transform="matrix(6,0,0,6,327.8,185)"/>
<use xlink:href="#f0_b5" transform="matrix(6,0,0,6,329.8,185)"/>
<use xlink:href="#f0_bf" transform="matrix(6,0,0,6,333.3,185)"/>
<use xlink:href="#f0_9q" transform="matrix(6,0,0,6,336.4,185)"/>
<use xlink:href="#f0_7l" transform="matrix(6,0,0,6,338.4,185)"/>
<use xlink:href="#f0_b5" transform="matrix(6,0,0,6,342.3,185)"/>
<use xlink:href="#f0_u2" transform="matrix(6,0,0,6,346,185)"/>
<use xlink:href="#f0_rz" transform="matrix(6,0,0,6,352.6,185)"/>
<use xlink:href="#f0_j" transform="matrix(6,0,0,6,357.2,185)"/>
<use xlink:href="#f0_u2" transform="matrix(6,0,0,6,362.1,185)"/>
<use xlink:href="#f0_rz" transform="matrix(6,0,0,6,368.7,185)"/>
<use xlink:href="#f0_rx" transform="matrix(6,0,0,6,373.3,185)"/>
<use xlink:href="#f0_a8" transform="matrix(6,0,0,6,377.9,185)"/>
<use xlink:href="#f0_9q" transform="matrix(6,0,0,6,380.1,185)"/>
<use xlink:href="#f0_af" transform="matrix(6,0,0,6,382.1,185)"/>
<use xlink:href="#f0_7z" transform="matrix(6,0,0,6,386.9,185)"/>
<use xlink:href="#f0_77" transform="matrix(6,0,0,6,391.4,185)"/>
<use xlink:href="#f0_b1" transform="matrix(6,0,0,6,395.8,185)"/>
<use xlink:href="#f0_u2" transform="matrix(6,0,0,6,398.9,185)"/>
<use xlink:href="#f0_rz" transform="matrix(6,0,0,6,405.5,185)"/>
<use xlink:href="#f0_rx" transform="matrix(6,0,0,6,410.3,185)"/>
<use xlink:href="#f0_b1" transform="matrix(6,0,0,6,415.1,185)"/>
<use xlink:href="#f0_7z" transform="matrix(6,0,0,6,418,185)"/>
<use xlink:href="#f0_9d" transform="matrix(6,0,0,6,422.6,185)"/>
<use xlink:href="#f0_b1" transform="matrix(6,0,0,6,427,185)"/>
<use xlink:href="#f0_7z" transform="matrix(6,0,0,6,429.9,185)"/>
<use xlink:href="#f0_b5" transform="matrix(6,0,0,6,434.5,185)"/>
<use xlink:href="#f0_b5" transform="matrix(6,0,0,6,438.2,185)"/>
<use xlink:href="#f0_9q" transform="matrix(6,0,0,6,441.9,185)"/>
<use xlink:href="#f0_am" transform="matrix(6,0,0,6,443.9,185)"/>
<use xlink:href="#f0_af" transform="matrix(6,0,0,6,448.7,185)"/>
<use xlink:href="#f0_u2" transform="matrix(6,0,0,6,453.4,185)"/>
<use xlink:href="#f0_rz" transform="matrix(6,0,0,6,460,185)"/>
<use xlink:href="#f0_rx" transform="matrix(6,0,0,6,464.6,185)"/>
<use xlink:href="#f0_9q" transform="matrix(6,0,0,6,469.2,185)"/>
<use xlink:href="#f0_b5" transform="matrix(6,0,0,6,471.2,185)"/>
<use xlink:href="#f0_nq" transform="matrix(6,0,0,6,474.9,185)"/>
<use xlink:href="#f0_77" transform="matrix(6,0,0,6,477.1,185)"/>
<use xlink:href="#f0_b5" transform="matrix(6,0,0,6,481.5,185)"/>
<use xlink:href="#f0_u2" transform="matrix(6,0,0,6,485.1,185)"/>
<use xlink:href="#f0_rz" transform="matrix(6,0,0,6,491.7,185)"/>
<use xlink:href="#f0_rx" transform="matrix(6,0,0,6,496.3,185)"/>
<use xlink:href="#f0_7v" transform="matrix(6,0,0,6,501.1,185)"/>
<use xlink:href="#f0_7z" transform="matrix(6,0,0,6,505.9,185)"/>
<use xlink:href="#f0_ay" transform="matrix(6,0,0,6,510.4,185)"/>
<use xlink:href="#f0_7z" transform="matrix(6,0,0,6,515.2,185)"/>
<use xlink:href="#f0_af" transform="matrix(6,0,0,6,519.7,185)"/>
<use xlink:href="#f0_7v" transform="matrix(6,0,0,6,524.5,185)"/>
<use xlink:href="#f0_7z" transform="matrix(6,0,0,6,529.3,185)"/>
<use xlink:href="#f0_af" transform="matrix(6,0,0,6,533.8,185)"/>
<use xlink:href="#f0_bf" transform="matrix(6,0,0,6,538.6,185)"/>
<use xlink:href="#f0_u2" transform="matrix(6,0,0,6,541.7,185)"/>
<use xlink:href="#f0_rz" transform="matrix(6,0,0,6,548.3,185)"/>
<use xlink:href="#f0_rx" transform="matrix(6,0,0,6,552.9,185)"/>
<use xlink:href="#f0_77" transform="matrix(6,0,0,6,557.5,185)"/>
<use xlink:href="#f0_af" transform="matrix(6,0,0,6,561.9,185)"/>
<use xlink:href="#f0_7v" transform="matrix(6,0,0,6,566.8,185)"/>
<use xlink:href="#f0_u2" transform="matrix(6,0,0,6,571.6,185)"/>
<use xlink:href="#f0_rz" transform="matrix(6,0,0,6,578.2,185)"/>
<use xlink:href="#f0_rx" transform="matrix(6,0,0,6,582.8,185)"/>
<use xlink:href="#f0_9q" transform="matrix(6,0,0,6,587.4,185)"/>
<use xlink:href="#f0_af" transform="matrix(6,0,0,6,589.6,185)"/>
<use xlink:href="#f0_7v" transform="matrix(6,0,0,6,594.3,185)"/>
<use xlink:href="#f0_7z" transform="matrix(6,0,0,6,599.1,185)"/>
<use xlink:href="#f0_ay" transform="matrix(6,0,0,6,603.7,185)"/>
<use xlink:href="#f0_7z" transform="matrix(6,0,0,6,608.7,185)"/>
<use xlink:href="#f0_af" transform="matrix(6,0,0,6,613.3,185)"/>
<use xlink:href="#f0_7v" transform="matrix(6,0,0,6,618,185)"/>
<use xlink:href="#f0_7z" transform="matrix(6,0,0,6,622.8,185)"/>
<use xlink:href="#f0_af" transform="matrix(6,0,0,6,627.4,185)"/>
<use xlink:href="#f0_bf" transform="matrix(6,0,0,6,632.1,185)"/>
<use xlink:href="#f0_u2" transform="matrix(6,0,0,6,635.2,185)"/>
<use xlink:href="#f0_rz" transform="matrix(6,0,0,6,641.8,185)"/>
<use xlink:href="#f0_rx" transform="matrix(6,0,0,6,646.4,185)"/>
<use xlink:href="#f0_ch" transform="matrix(6,0,0,6,651,185)"/>
<use xlink:href="#f0_77" transform="matrix(6,0,0,6,655,185)"/>
<use xlink:href="#f0_b1" transform="matrix(6,0,0,6,659.4,185)"/>
<use xlink:href="#f0_9q" transform="matrix(6,0,0,6,662.6,185)"/>
<use xlink:href="#f0_77" transform="matrix(6,0,0,6,664.6,185)"/>
<use xlink:href="#f0_7k" transform="matrix(6,0,0,6,669,185)"/>
<use xlink:href="#f0_a8" transform="matrix(6,0,0,6,673.9,185)"/>
<use xlink:href="#f0_7z" transform="matrix(6,0,0,6,675.9,185)"/>
<use xlink:href="#f0_b5" transform="matrix(6,0,0,6,680.5,185)"/>
</g>
<path d="M79.7,186.1H684.2v.5H79.7Z" class="g0"/>
<g fill="#000000" >
<use xlink:href="#f0_ox" transform="matrix(12,0,0,12,55,212.5)"/>
<use xlink:href="#f0_s1" transform="matrix(12,0,0,12,60.6,212.5)"/>
<use xlink:href="#f0_oy" transform="matrix(12,0,0,12,69.9,212.5)"/>
<use xlink:href="#f0_9n" transform="matrix(12,0,0,12,79.8,212.5)"/>
<use xlink:href="#f0_bf" transform="matrix(12,0,0,12,89.2,212.5)"/>
<use xlink:href="#f0_bf" transform="matrix(12,0,0,12,95.3,212.5)"/>
<use xlink:href="#f0_ay" transform="matrix(12,0,0,12,101.2,212.5)"/>
<use xlink:href="#f0_b5" transform="matrix(12,0,0,12,110.8,212.5)"/>
<use xlink:href="#f0_ns" transform="matrix(12,0,0,12,118.1,212.5)"/>
<use xlink:href="#f0_od" transform="matrix(12,0,0,12,122.9,212.5)"/>
<use xlink:href="#f0_od" transform="matrix(12,0,0,12,130,212.5)"/>
<use xlink:href="#f0_ay" transform="matrix(12,0,0,12,137,212.5)"/>
<use xlink:href="#f0_co" transform="matrix(12,0,0,12,146.6,212.5)"/>
<use xlink:href="#f0_bf" transform="matrix(12,0,0,12,154.9,212.5)"/>
<use xlink:href="#f0_am" transform="matrix(12,0,0,12,161,212.5)"/>
<use xlink:href="#f0_b1" transform="matrix(12,0,0,12,170.6,212.5)"/>
<use xlink:href="#f0_7l" transform="matrix(12,0,0,12,176.8,212.5)"/>
<use xlink:href="#f0_9n" transform="matrix(12,0,0,12,184.5,212.5)"/>
<use xlink:href="#f0_nt" transform="matrix(12,0,0,12,194.1,212.5)"/>
<use xlink:href="#f0_am" transform="matrix(12,0,0,12,198.7,212.5)"/>
<use xlink:href="#f0_b1" transform="matrix(12,0,0,12,208.4,212.5)"/>
<use xlink:href="#f0_9d" transform="matrix(12,0,0,12,214.4,212.5)"/>
<use xlink:href="#f0_od" transform="matrix(12,0,0,12,223.8,212.5)"/>
<use xlink:href="#f0_bf" transform="matrix(12,0,0,12,230.9,212.5)"/>
<use xlink:href="#f0_c6" transform="matrix(12,0,0,12,237.1,212.5)"/>
<use xlink:href="#f0_bf" transform="matrix(12,0,0,12,246.7,212.5)"/>
<use xlink:href="#f0_am" transform="matrix(12,0,0,12,252.9,212.5)"/>
<use xlink:href="#f0_b1" transform="matrix(12,0,0,12,262.5,212.5)"/>
<use xlink:href="#f0_9q" transform="matrix(12,0,0,12,268.9,212.5)"/>
<use xlink:href="#f0_77" transform="matrix(12,0,0,12,273.1,212.5)"/>
<use xlink:href="#f0_a8" transform="matrix(12,0,0,12,281.8,212.5)"/>
<use xlink:href="#f0_b5" transform="matrix(12,0,0,12,286,212.5)"/>
<use xlink:href="#f0_od" transform="matrix(12,0,0,12,293.1,212.5)"/>
<use xlink:href="#f0_7k" transform="matrix(12,0,0,12,300.2,212.5)"/>
<use xlink:href="#f0_7z" transform="matrix(12,0,0,12,310.1,212.5)"/>
<use xlink:href="#f0_9d" transform="matrix(12,0,0,12,319.2,212.5)"/>
<use xlink:href="#f0_9q" transform="matrix(12,0,0,12,327.9,212.5)"/>
<use xlink:href="#f0_af" transform="matrix(12,0,0,12,331.9,212.5)"/>
<use xlink:href="#f0_af" transform="matrix(12,0,0,12,341.5,212.5)"/>
<use xlink:href="#f0_7z" transform="matrix(12,0,0,12,351.1,212.5)"/>
<use xlink:href="#f0_b1" transform="matrix(12,0,0,12,360.2,212.5)"/>
<use xlink:href="#f0_od" transform="matrix(12,0,0,12,366.6,212.5)"/>
<use xlink:href="#f0_7z" transform="matrix(12,0,0,12,373.5,212.5)"/>
<use xlink:href="#f0_cn" transform="matrix(12,0,0,12,382.3,212.5)"/>
<use xlink:href="#f0_77" transform="matrix(12,0,0,12,389.9,212.5)"/>
<use xlink:href="#f0_ae" transform="matrix(12,0,0,12,398.6,212.5)"/>
<use xlink:href="#f0_ay" transform="matrix(12,0,0,12,413.3,212.5)"/>
<use xlink:href="#f0_a8" transform="matrix(12,0,0,12,422.8,212.5)"/>
<use xlink:href="#f0_7z" transform="matrix(12,0,0,12,427,212.5)"/>
<use xlink:href="#f0_b5" transform="matrix(12,0,0,12,436.2,212.5)"/>
<use xlink:href="#f0_or" transform="matrix(12,0,0,12,443.3,212.5)"/>
<use xlink:href="#f0_af" transform="matrix(12,0,0,12,452.5,212.5)"/>
<use xlink:href="#f0_af" transform="matrix(12,0,0,12,462.1,212.5)"/>
<use xlink:href="#f0_od" transform="matrix(12,0,0,12,471.7,212.5)"/>
<use xlink:href="#f0_bf" transform="matrix(12,0,0,12,478.8,212.5)"/>
<use xlink:href="#f0_ci" transform="matrix(12,0,0,12,485,212.5)"/>
<use xlink:href="#f0_am" transform="matrix(12,0,0,12,497.9,212.5)"/>
<use xlink:href="#f0_or" transform="matrix(12,0,0,12,507.5,212.5)"/>
<use xlink:href="#f0_a8" transform="matrix(12,0,0,12,516.9,212.5)"/>
<use xlink:href="#f0_77" transform="matrix(12,0,0,12,521.1,212.5)"/>
<use xlink:href="#f0_co" transform="matrix(12,0,0,12,529.5,212.5)"/>
<use xlink:href="#f0_7z" transform="matrix(12,0,0,12,537.6,212.5)"/>
<use xlink:href="#f0_b1" transform="matrix(12,0,0,12,546.7,212.5)"/>
<use xlink:href="#f0_or" transform="matrix(12,0,0,12,552.9,212.5)"/>
<use xlink:href="#f0_af" transform="matrix(12,0,0,12,562.1,212.5)"/>
<use xlink:href="#f0_7z" transform="matrix(12,0,0,12,571.7,212.5)"/>
<use xlink:href="#f0_bf" transform="matrix(12,0,0,12,580.8,212.5)"/>
<use xlink:href="#f0_or" transform="matrix(12,0,0,12,587.1,212.5)"/>
<use xlink:href="#f0_af" transform="matrix(12,0,0,12,596.1,212.5)"/>
<use xlink:href="#f0_af" transform="matrix(12,0,0,12,605.6,212.5)"/>
<use xlink:href="#f0_nt" transform="matrix(12,0,0,12,615.2,212.5)"/>
<use xlink:href="#f0_9n" transform="matrix(12,0,0,12,619.8,212.5)"/>
<use xlink:href="#f0_bf" transform="matrix(12,0,0,12,629.4,212.5)"/>
<use xlink:href="#f0_ae" transform="matrix(12,0,0,12,635.6,212.5)"/>
<use xlink:href="#f0_a8" transform="matrix(12,0,0,12,650.3,212.5)"/>
</g>
</svg>