<?xml version="1.0" encoding="UTF-8" standalone="no"?>
<!DOCTYPE svg PUBLIC "-//W3C//DTD SVG 1.1//EN"
"http://www.w3.org/Graphics/SVG/1.1/DTD/svg11.dtd">
<svg viewBox="0 0 909 1286" version="1.1" xmlns="http://www.w3.org/2000/svg" xmlns:xlink="http://www.w3.org/1999/xlink">
<defs>
<clipPath id="c0_1"><path d="M0,1286.2V0H909.4V1286.2Z"/></clipPath>
<clipPath id="c1_1"><path d="M418,675.3V643h73.5v32.3Z"/></clipPath>
<path d="M125,0V980H225c0,0,17,0,28,-3c0,0,10,-3,19,-20L623,357c0,0,10,-17,17,-35c0,0,8,-18,16,-36c0,0,7,19,15,37c0,0,8,18,17,34l346,601c0,0,9,16,19,19c0,0,11,3,29,3h100V0H1062V715c0,0,0,15,1,34c0,0,1,18,2,37L715,171c0,0,-17,-31,-49,-31H647c0,0,-32,0,-49,31L239,785c0,0,5,-38,5,-70V0Z"
id="f0_2"
transform="scale(0.001,-0.001)"/>

<path d="M307,81c0,0,32,0,60,6c0,0,28,7,52,19c0,0,25,13,47,31c0,0,22,18,44,41V328c0,0,-88,-3,-149,-14c0,0,-61,-11,-100,-29c0,0,-38,-18,-55,-42c0,0,-17,-24,-17,-54c0,0,0,-29,9,-49c0,0,9,-21,25,-34c0,0,16,-13,37,-19c0,0,22,-6,47,-6ZM267,-10c0,0,-42,0,-79,10c0,0,-37,12,-65,36c0,0,-28,24,-44,61c0,0,-16,36,-16,85c0,0,0,43,23,83c0,0,24,40,77,71c0,0,53,32,138,52c0,0,85,19,209,22v56c0,0,0,85,-37,128c0,0,-36,43,-105,43c0,0,-46,0,-78,-12c0,0,-32,-12,-55,-26c0,0,-23,-14,-40,-26c0,0,-17,-12,-34,-12c0,0,-13,0,-23,7c0,0,-10,6,-16,17L98,627c0,0,61,58,131,87c0,0,69,28,154,28c0,0,62,0,109,-20c0,0,48,-19,80,-56c0,0,32,-36,49,-87c0,0,17,-51,17,-113V0H580c0,0,-20,0,-30,6c0,0,-11,6,-14,25L519,98c0,0,-28,-26,-55,-46c0,0,-28,-21,-57,-35C407,17,377,3,342,-3c0,0,-34,-7,-75,-7Z"
id="f0_3"
transform="scale(0.001,-0.001)"/>

<path d="M357,-9c0,0,-64,0,-120,24c0,0,-56,25,-97,73c0,0,-42,49,-65,118c0,0,-24,70,-24,160c0,0,0,81,22,150c0,0,22,69,63,119c0,0,42,50,102,78c0,0,61,28,140,28c0,0,75,0,131,-25c0,0,56,-25,99,-70L574,598c0,0,-6,-8,-12,-12c0,0,-5,-4,-16,-4c0,0,-11,0,-23,9c0,0,-12,9,-30,20c0,0,-18,10,-44,19c0,0,-25,9,-63,9c0,0,-49,0,-86,-19c0,0,-38,-19,-63,-54c0,0,-25,-36,-38,-86c0,0,-13,-51,-13,-114c0,0,0,-66,14,-117c0,0,13,-51,39,-86c0,0,25,-35,61,-54c0,0,36,-18,80,-18c0,0,44,0,71,11c0,0,28,11,47,25c0,0,18,13,31,24c0,0,12,12,25,12c0,0,15,0,24,-13l38,-48c0,0,-24,-29,-53,-50c0,0,-29,-21,-62,-35C501,17,467,3,431,-3c0,0,-36,-6,-74,-6Z"
id="f0_4"
transform="scale(0.001,-0.001)"/>

<path d="M107,0V1061H238V633c0,0,45,50,101,79c0,0,56,29,129,29c0,0,59,0,105,-20c0,0,45,-20,75,-56c0,0,31,-36,46,-87c0,0,15,-51,15,-113V0H578V465c0,0,0,81,-36,127c0,0,-37,45,-112,45c0,0,-56,0,-104,-27c0,0,-48,-27,-88,-74V0Z"
id="f0_5"
transform="scale(0.001,-0.001)"/>

<path d="M110,0V730H241V0Zm63,866c0,0,-19,0,-35,8c0,0,-16,7,-29,19c0,0,-12,13,-19,29c0,0,-8,17,-8,36c0,0,0,19,8,36c0,0,7,17,19,29c0,0,13,13,29,21c0,0,16,7,35,7c0,0,19,0,35,-7c0,0,17,-8,30,-21c0,0,13,-12,21,-29c0,0,7,-17,7,-36c0,0,0,-19,-7,-36c0,0,-8,-16,-21,-29c0,0,-13,-12,-29,-19c0,0,-17,-8,-36,-8Z"
id="f0_6"
transform="scale(0.001,-0.001)"/>

<path d="M104,0V730h79c0,0,14,0,23,-7c0,0,9,-6,10,-20l12,-78c0,0,47,52,105,84c0,0,58,32,134,32c0,0,60,0,105,-20c0,0,45,-20,76,-56c0,0,30,-36,46,-87c0,0,15,-51,15,-113V0H578V465c0,0,0,81,-37,127c0,0,-37,45,-112,45c0,0,-56,0,-104,-26c0,0,-49,-27,-89,-74V0Z"
id="f0_a"
transform="scale(0.001,-0.001)"/>

<path d="M587,445c0,0,0,44,-13,81c0,0,-12,36,-36,63c0,0,-24,26,-59,41c0,0,-34,15,-78,15c0,0,-91,0,-145,-53c0,0,-53,-54,-67,-147ZM406,-9c0,0,-76,0,-140,24c0,0,-65,25,-111,75c0,0,-47,50,-73,122c0,0,-26,73,-26,168c0,0,0,76,23,142c0,0,24,66,68,115c0,0,45,49,108,76c0,0,64,28,144,28c0,0,66,0,122,-22c0,0,56,-22,97,-63c0,0,41,-42,64,-102c0,0,23,-61,23,-139c0,0,0,-31,-7,-41c0,0,-6,-10,-24,-10H186c0,0,1,-69,18,-120c0,0,18,-51,48,-84c0,0,30,-34,72,-51c0,0,42,-16,93,-16c0,0,48,0,83,10c0,0,35,11,60,25c0,0,25,13,42,24c0,0,17,11,30,11c0,0,8,0,14,-4c0,0,6,-3,10,-9l38,-48c0,0,-25,-29,-58,-50c0,0,-33,-21,-71,-35C565,17,527,3,486,-3c0,0,-41,-6,-80,-6Z"
id="f0_b"
transform="scale(0.001,-0.001)"/>

<path d="M442,110c0,0,70,0,127,25c0,0,57,26,97,75c0,0,40,49,62,120c0,0,22,71,22,160c0,0,0,90,-22,160c0,0,-22,71,-62,120c0,0,-40,49,-97,75c0,0,-57,26,-127,26H240V110ZM104,0V980H442c0,0,100,0,183,-35c0,0,82,-36,141,-100c0,0,58,-64,91,-155c0,0,32,-90,32,-200c0,0,0,-110,-32,-201c0,0,-33,-90,-91,-154C766,135,707,70,625,35C625,35,542,0,442,0Z"
id="f0_d"
transform="scale(0.001,-0.001)"/>

<path d="M404,91c0,0,100,0,154,72c0,0,54,73,54,207c0,0,0,71,-12,122c0,0,-12,50,-36,83c0,0,-23,32,-57,47c0,0,-34,15,-77,15c0,0,-61,0,-108,-28c0,0,-47,-29,-86,-81V176c0,0,35,-47,76,-66c0,0,42,-19,92,-19ZM105,-245V730h79c0,0,14,0,23,-7c0,0,9,-6,10,-20l13,-85c0,0,46,56,106,90c0,0,59,34,137,34c0,0,63,0,113,-24c0,0,51,-24,87,-71c0,0,36,-47,55,-117c0,0,19,-69,19,-160c0,0,0,-81,-21,-150c0,0,-22,-70,-62,-121c0,0,-41,-51,-99,-80C565,19,507,-9,433,-9c0,0,-66,0,-113,21c0,0,-47,22,-84,63V-245Z"
id="f0_e"
transform="scale(0.001,-0.001)"/>

<path d="M103,0V980H239V114H617V0Z"
id="f0_f"
transform="scale(0.001,-0.001)"/>

<path d="M98,0V730h75c0,0,21,0,30,-9c0,0,8,-8,10,-27l9,-108c0,0,33,73,82,114c0,0,50,42,119,42c0,0,23,0,43,-5c0,0,20,-4,37,-16L492,624c0,0,-2,-18,-21,-18c0,0,-10,0,-29,4c0,0,-19,4,-42,4c0,0,-34,0,-59,-10c0,0,-26,-10,-47,-30c0,0,-20,-20,-36,-48c0,0,-16,-28,-29,-65V0Z"
id="f0_g"
transform="scale(0.001,-0.001)"/>

<path d="M355,-167c0,0,49,0,87,10c0,0,38,10,65,26c0,0,26,17,39,41c0,0,13,23,13,51c0,0,0,27,-13,42c0,0,-14,16,-38,26c0,0,-24,9,-55,13c0,0,-32,4,-67,6c0,0,-35,3,-71,4c0,0,-36,2,-70,7c0,0,-36,-19,-59,-47c0,0,-23,-26,-23,-64c0,0,0,-25,11,-45c0,0,11,-21,34,-37c0,0,24,-15,61,-24c0,0,36,-9,86,-9ZM345,358c0,0,72,0,109,40c0,0,37,41,37,106c0,0,0,66,-37,105c0,0,-37,39,-109,39c0,0,-71,0,-108,-39c0,0,-37,-39,-37,-105c0,0,0,-33,9,-59c0,0,10,-26,28,-46c0,0,18,-19,45,-30c0,0,28,-11,63,-11Zm8,-620c0,0,-77,0,-134,16c0,0,-58,16,-96,43c0,0,-38,26,-57,62c0,0,-18,35,-18,73c0,0,0,53,31,90c0,0,32,37,88,59c0,0,-30,14,-48,38c0,0,-18,25,-18,66c0,0,0,31,22,66c0,0,22,35,67,59c0,0,-51,30,-81,80c0,0,-29,50,-29,117c0,0,0,53,20,97c0,0,19,43,54,74c0,0,35,31,84,47c0,0,48,17,107,17c0,0,45,0,85,-11c0,0,39,-10,71,-30H692V653c0,0,0,-26,-30,-31L585,611c0,0,23,-48,23,-104c0,0,0,-54,-20,-97c0,0,-20,-44,-55,-74c0,0,-35,-31,-83,-48c0,0,-48,-16,-105,-16c0,0,-48,0,-88,11c0,0,-22,-14,-32,-30c0,0,-11,-17,-11,-32c0,0,0,-26,20,-39c0,0,20,-13,53,-19c0,0,33,-6,75,-7c0,0,42,-2,85,-5c0,0,44,-3,86,-11c0,0,41,-7,74,-25c0,0,33,-19,53,-50c0,0,20,-32,20,-82c0,0,0,-47,-22,-91c0,0,-22,-44,-65,-78c0,0,-42,-35,-103,-55c0,0,-60,-21,-137,-21Z"
id="f0_h"
transform="scale(0.001,-0.001)"/>

<path d="M110,0V980h71c0,0,17,0,26,-4c0,0,9,-4,21,-19L760,224c0,0,-1,18,-2,35c0,0,-2,18,-2,33V980H876V0H807c0,0,-16,0,-26,5c0,0,-11,5,-22,19L227,755c0,0,1,-17,2,-33c0,0,1,-16,1,-30V0Z"
id="f0_i"
transform="scale(0.001,-0.001)"/>

<path d="M336,-10c0,0,-60,0,-105,19c0,0,-45,19,-76,56c0,0,-30,36,-46,87c0,0,-16,51,-16,113V730H225V265c0,0,0,-82,36,-127c0,0,37,-45,113,-45c0,0,56,0,104,26c0,0,48,26,89,73V730H698V0H619c0,0,-13,0,-22,6c0,0,-9,7,-11,21l-12,77c0,0,-47,-52,-104,-83c0,0,-58,-31,-134,-31Z"
id="f0_j"
transform="scale(0.001,-0.001)"/>

<path d="M311,-10c0,0,-84,0,-130,47c0,0,-45,49,-45,139V621H52c0,0,-11,0,-19,7c0,0,-8,8,-8,22v52l115,15l31,224c0,0,1,12,9,18c0,0,8,7,20,7h67V716H468V621H267V185c0,0,0,-45,21,-67c0,0,20,-23,53,-23c0,0,19,0,33,6c0,0,14,5,24,12c0,0,9,6,16,12c0,0,7,5,13,5c0,0,7,0,11,-3c0,0,4,-3,8,-10L485,54C485,54,451,23,406,6c0,0,-46,-16,-95,-16Z"
id="f0_k"
transform="scale(0.001,-0.001)"/>

<path d="M284,-10c0,0,-72,0,-131,23C153,13,93,38,52,78l31,49c0,0,6,10,14,15c0,0,8,5,21,5c0,0,13,0,27,-10c0,0,13,-10,32,-22c0,0,19,-13,46,-23c0,0,27,-10,67,-10c0,0,35,0,59,10c0,0,25,9,42,25c0,0,16,17,25,38c0,0,8,22,8,46c0,0,0,30,-16,49c0,0,-15,20,-39,34c0,0,-25,14,-57,24c0,0,-32,11,-65,22c0,0,-33,12,-65,26c0,0,-31,15,-56,38c0,0,-25,22,-40,55c0,0,-15,33,-15,80c0,0,0,42,16,81c0,0,17,38,48,67c0,0,31,29,78,47c0,0,46,17,106,17c0,0,67,0,123,-23c0,0,55,-22,94,-62L507,609c0,0,-9,-17,-27,-17c0,0,-12,0,-25,9c0,0,-13,8,-31,17c0,0,-18,9,-43,18c0,0,-25,8,-59,8c0,0,-30,0,-53,-8c0,0,-23,-9,-39,-23c0,0,-17,-14,-26,-33c0,0,-9,-19,-9,-41c0,0,0,-28,15,-47c0,0,15,-18,40,-32c0,0,25,-13,56,-24c0,0,32,-11,65,-22c0,0,33,-11,64,-26c0,0,32,-15,57,-37c0,0,24,-21,39,-52c0,0,15,-31,15,-75c0,0,0,-51,-17,-94c0,0,-17,-43,-50,-74C479,56,445,25,396,7c0,0,-48,-17,-112,-17Z"
id="f0_l"
transform="scale(0.001,-0.001)"/>

<path d="M110,0V1061H241V0Z"
id="f0_m"
transform="scale(0.001,-0.001)"/>

<path d="M404,92c0,0,53,0,92,18c0,0,40,18,66,53c0,0,27,35,40,86c0,0,13,51,13,116c0,0,0,65,-13,115c0,0,-13,51,-40,86c0,0,-26,35,-66,54c0,0,-39,19,-92,19c0,0,-54,0,-94,-19c0,0,-40,-19,-66,-54c0,0,-27,-35,-40,-86c0,0,-13,-50,-13,-115c0,0,0,-65,13,-116c0,0,13,-51,40,-86c0,0,26,-35,66,-53c0,0,40,-18,94,-18ZM404,-9c0,0,-80,0,-145,25c0,0,-64,27,-109,75c0,0,-46,49,-70,119c0,0,-24,69,-24,156c0,0,0,85,24,155c0,0,24,69,70,118c0,0,45,49,109,75c0,0,65,27,145,27c0,0,79,0,144,-27c0,0,64,-26,108,-75c0,0,45,-49,69,-118c0,0,25,-70,25,-155c0,0,0,-87,-25,-156c0,0,-24,-70,-69,-119C656,91,612,43,548,16C548,16,483,-9,404,-9Z"
id="f0_n"
transform="scale(0.001,-0.001)"/>

<path d="M371,95c0,0,62,0,108,28c0,0,45,29,85,81V557c0,0,-35,47,-76,66c0,0,-41,19,-91,19c0,0,-99,0,-153,-73c0,0,-54,-72,-54,-206c0,0,0,-71,13,-122c0,0,12,-51,35,-83c0,0,23,-33,57,-48c0,0,33,-15,76,-15ZM328,-9c0,0,-62,0,-112,23c0,0,-50,24,-86,71c0,0,-36,47,-55,117c0,0,-20,70,-20,161c0,0,0,80,21,150c0,0,22,70,62,120c0,0,40,51,98,80c0,0,58,29,131,29c0,0,66,0,113,-22c0,0,47,-22,84,-63v404H695V0H617c0,0,-14,0,-23,6c0,0,-9,7,-11,21l-13,87c0,0,-46,-56,-105,-90C465,24,406,-9,328,-9Z"
id="f0_o"
transform="scale(0.001,-0.001)"/>

<path d="M110,0V730h77c0,0,15,0,24,-7c0,0,8,-6,10,-20l11,-75c0,0,21,25,44,45c0,0,22,21,49,36c0,0,26,15,55,24c0,0,30,8,64,8c0,0,75,0,123,-41c0,0,47,-41,67,-111c0,0,16,41,41,69c0,0,26,28,58,47c0,0,31,19,67,27c0,0,36,9,73,9c0,0,119,0,184,-72c0,0,66,-71,66,-204V0H991V465c0,0,0,85,-38,128c0,0,-39,44,-112,44c0,0,-32,0,-61,-11c0,0,-30,-11,-52,-33c0,0,-22,-22,-35,-54c0,0,-13,-32,-13,-74V0H549V465c0,0,0,87,-36,130c0,0,-36,42,-106,42c0,0,-48,0,-90,-25c0,0,-42,-25,-76,-69V0Z"
id="f0_p"
transform="scale(0.001,-0.001)"/>

<path d="M95,0V1061H227V437h30c0,0,14,0,22,4c0,0,9,4,19,16L492,704c0,0,10,12,21,19c0,0,11,7,29,7H661L432,442c0,0,-11,-11,-21,-20c0,0,-10,-9,-22,-17c0,0,12,-8,22,-20c0,0,10,-11,21,-24L676,0H558c0,0,-16,0,-28,6c0,0,-12,5,-21,19L310,324c0,0,-11,15,-20,20c0,0,-10,4,-30,4H227V0Z"
id="f0_q"
transform="scale(0.001,-0.001)"/>

<path d="M304,-10c0,0,-82,0,-127,47c0,0,-45,49,-45,139V621H51c0,0,-11,0,-19,7c0,0,-8,8,-8,22v52l113,15l29,224c0,0,3,12,10,18c0,0,8,7,20,7h67V716H742V0H610V621H263V185c0,0,0,-45,20,-67c0,0,20,-23,52,-23c0,0,19,0,32,6c0,0,13,5,22,12c0,0,9,6,16,12c0,0,7,5,13,5c0,0,6,0,11,-3c0,0,4,-3,7,-10L475,54C475,54,442,23,398,6c0,0,-45,-16,-94,-16ZM677,871c0,0,-19,0,-35,8c0,0,-17,7,-29,20c0,0,-12,12,-20,29c0,0,-7,16,-7,35c0,0,0,19,7,36c0,0,8,17,20,30c0,0,12,12,29,20c0,0,16,7,35,7c0,0,18,0,35,-7c0,0,17,-8,30,-20c0,0,13,-13,20,-30c0,0,8,-17,8,-36c0,0,0,-19,-8,-35c0,0,-7,-17,-20,-29c0,0,-13,-13,-30,-20c0,0,-17,-8,-35,-8Z"
id="f0_r"
transform="scale(0.001,-0.001)"/>

<path d="M127,0V620L53,630c0,0,-16,1,-25,9c0,0,-10,9,-10,23v54H127v70c0,0,0,62,17,111c0,0,16,49,48,82c0,0,31,33,76,51c0,0,45,17,101,17c0,0,23,0,45,-3c0,0,22,-4,42,-11l-4,-65c0,0,-1,-18,-18,-19c0,0,-16,-2,-44,-2c0,0,-31,0,-56,-9c0,0,-25,-8,-43,-27c0,0,-18,-20,-28,-51c0,0,-9,-32,-9,-78V716H450V621H258V0Z"
id="f0_t"
transform="scale(0.001,-0.001)"/>

<path d="M191,-11c0,0,-19,0,-35,8c0,0,-16,6,-29,18c0,0,-12,13,-20,29c0,0,-7,17,-7,36c0,0,0,19,7,36c0,0,8,17,20,29c0,0,13,13,29,21c0,0,16,7,35,7c0,0,19,0,35,-7c0,0,17,-8,30,-21c0,0,13,-12,21,-29c0,0,7,-17,7,-36c0,0,0,-19,-7,-36c0,0,-8,-16,-21,-29C256,15,243,3,226,-3c0,0,-16,-8,-35,-8Z"
id="f0_u"
transform="scale(0.001,-0.001)"/>

<path d="M468,-9c0,0,-95,0,-172,35c0,0,-77,37,-132,103c0,0,-55,66,-85,158c0,0,-29,92,-29,203c0,0,0,111,31,203c0,0,32,93,88,159c0,0,57,66,136,103c0,0,79,36,175,36c0,0,94,0,166,-33c0,0,72,-34,126,-91L727,804c0,0,-4,-7,-11,-11c0,0,-7,-4,-17,-4c0,0,-13,0,-28,13c0,0,-15,13,-40,29c0,0,-25,16,-61,30c0,0,-37,13,-91,13c0,0,-64,0,-118,-26c0,0,-53,-26,-91,-76c0,0,-39,-49,-60,-120c0,0,-21,-72,-21,-162c0,0,0,-91,22,-163c0,0,22,-71,61,-120c0,0,39,-50,92,-76c0,0,52,-26,113,-26c0,0,37,0,66,5c0,0,30,6,55,16c0,0,25,11,47,28c0,0,22,17,44,40c0,0,11,10,23,10c0,0,10,0,19,-9l54,-58C785,137,732,67,654,28C654,28,577,-9,468,-9Z"
id="f0_v"
transform="scale(0.001,-0.001)"/>

<path d="M610,364L471,759c0,0,-7,18,-14,41c0,0,-8,24,-15,52c0,0,-7,-28,-15,-52c0,0,-7,-24,-14,-42L275,364ZM6,0L374,980H512L879,0H774c0,0,-18,0,-29,9c0,0,-11,9,-17,22L645,267H240L157,32c0,0,-4,-13,-16,-22C141,10,128,0,111,0Z"
id="f0_w"
transform="scale(0.001,-0.001)"/>

<path d="M143,-194l-22,20c0,0,-10,9,-10,21c0,0,0,9,11,20c0,0,6,7,17,21c0,0,12,13,23,30c0,0,12,17,22,38c0,0,9,21,14,44h-9c0,0,-38,0,-61,25c0,0,-24,26,-24,65c0,0,0,16,7,31c0,0,6,15,17,26c0,0,12,11,28,18c0,0,16,7,35,7c0,0,22,0,39,-9c0,0,17,-8,28,-22c0,0,11,-13,17,-32c0,0,5,-19,5,-41c0,0,0,-32,-9,-67c0,0,-9,-34,-27,-69c0,0,-17,-34,-43,-66c0,0,-25,-33,-58,-60Z"
id="f0_x"
transform="scale(0.001,-0.001)"/>

<path d="M304,0V867H18V980H727V867H441V0Z"
id="f0_y"
transform="scale(0.001,-0.001)"/>

<path d="M286,0L14,730H122c0,0,15,0,26,-9c0,0,10,-8,14,-18L318,236c0,0,9,-26,16,-51c0,0,7,-25,13,-50c0,0,5,25,12,50c0,0,7,25,18,51L535,703c0,0,4,11,14,19c0,0,10,8,23,8H676L404,0Z"
id="f0_z"
transform="scale(0.001,-0.001)"/>

<path d="M404,91c0,0,101,0,155,72c0,0,53,73,53,216c0,0,0,133,-47,195c0,0,-48,63,-136,63c0,0,-60,0,-106,-28c0,0,-46,-29,-84,-81V176c0,0,34,-47,75,-66c0,0,41,-19,90,-19ZM437,-9c0,0,-71,0,-120,26c0,0,-48,27,-85,76L225,28C225,28,222,0,192,0H107V1061H239V626c0,0,44,53,102,84c0,0,57,31,132,31c0,0,63,0,114,-25c0,0,51,-24,87,-71c0,0,35,-46,54,-112c0,0,19,-66,19,-150c0,0,0,-88,-21,-161c0,0,-22,-72,-62,-124c0,0,-40,-52,-98,-80C566,18,509,-9,437,-9Z"
id="f0_10"
transform="scale(0.001,-0.001)"/>

<path d="M162,-245L287,43L8,730H122c0,0,17,0,26,-9c0,0,9,-8,13,-18L331,246c0,0,6,-15,12,-31c0,0,5,-16,9,-31c0,0,5,16,10,32c0,0,6,16,12,32L539,703c0,0,4,11,15,19c0,0,10,8,23,8H681L305,-214c0,0,-6,-15,-16,-23c0,0,-10,-8,-29,-8Z"
id="f0_11"
transform="scale(0.001,-0.001)"/>

<path d="M163,659l-40,25c0,0,-11,7,-10,17c0,0,1,11,7,17c0,0,19,23,32,56c0,0,14,32,17,70c0,0,4,38,-3,78c0,0,-8,40,-30,78c0,0,-10,16,-6,28c0,0,4,12,18,17l81,32c0,0,31,-51,41,-108c0,0,11,-57,3,-112c0,0,-9,-56,-37,-107c0,0,-27,-51,-73,-91Z"
id="f0_12"
transform="scale(0.001,-0.001)"/>

<path d="M245,0L16,730H119c0,0,15,0,26,-9c0,0,10,-8,13,-19L289,236c0,0,7,-25,12,-49c0,0,6,-24,9,-48c0,0,6,24,14,48c0,0,7,24,15,50L484,706c0,0,4,11,14,18c0,0,9,7,23,7h56c0,0,15,0,25,-7c0,0,9,-7,13,-18L756,237c0,0,9,-25,15,-50c0,0,7,-24,13,-48c0,0,8,48,23,98L941,703c0,0,3,12,13,19c0,0,10,8,24,8h98L847,0H743c0,0,-19,0,-26,25L564,516c0,0,-6,17,-10,34c0,0,-4,17,-8,34c0,0,-4,-17,-7,-34c0,0,-4,-17,-10,-35L374,25C374,25,366,0,345,0Z"
id="f0_13"
transform="scale(0.001,-0.001)"/>

<path d="M17,0L244,374L27,730H152c0,0,15,0,22,-6c0,0,7,-5,13,-14L339,445c0,0,3,9,7,16c0,0,3,8,9,16L483,707c0,0,6,11,14,17c0,0,7,6,18,6H635L417,381L645,0H518c0,0,-14,0,-24,9c0,0,-9,8,-15,18L325,303c0,0,-6,-17,-14,-29L172,27c0,0,-6,-11,-15,-19c0,0,-9,-8,-23,-8Z"
id="f0_14"
transform="scale(0.001,-0.001)"/>

<path d="M104,0V980H241V544H711V980H847V0H711V445H241V0Z"
id="f0_15"
transform="scale(0.001,-0.001)"/>

<path d="M372,95c0,0,62,0,108,28c0,0,47,29,86,81V557c0,0,-33,45,-76,65c0,0,-42,20,-92,20c0,0,-100,0,-154,-73c0,0,-54,-72,-54,-206c0,0,0,-71,13,-122c0,0,12,-51,35,-83c0,0,24,-33,58,-48c0,0,34,-15,76,-15ZM566,-245V107c0,0,-45,-54,-103,-86C463,21,404,-9,330,-9c0,0,-63,0,-114,23c0,0,-50,24,-86,71c0,0,-36,47,-55,117c0,0,-20,70,-20,161c0,0,0,80,22,150c0,0,21,70,62,120c0,0,40,51,98,80c0,0,58,29,132,29c0,0,70,0,119,-25c0,0,49,-25,87,-70l10,56c0,0,5,27,34,27h78V-245Z"
id="f0_16"
transform="scale(0.001,-0.001)"/>

<path d="M202,-11c0,0,-18,0,-35,8c0,0,-16,6,-29,18c0,0,-12,13,-19,29c0,0,-8,17,-8,36c0,0,0,19,8,36c0,0,7,17,19,29c0,0,13,13,29,21c0,0,17,7,35,7c0,0,19,0,36,-7c0,0,16,-8,29,-21c0,0,13,-12,21,-29c0,0,7,-17,7,-36c0,0,0,-19,-7,-36c0,0,-8,-16,-21,-29C267,15,254,3,238,-3c0,0,-17,-8,-36,-8Zm-4,505c0,0,-19,0,-35,7c0,0,-17,8,-29,20c0,0,-12,12,-20,29c0,0,-7,17,-7,36c0,0,0,19,7,36c0,0,8,17,20,29c0,0,12,13,29,20c0,0,16,8,35,8c0,0,18,0,35,-8c0,0,17,-7,30,-20c0,0,13,-12,20,-29c0,0,8,-17,8,-36c0,0,0,-19,-8,-36c0,0,-7,-17,-20,-29c0,0,-13,-12,-30,-20c0,0,-17,-7,-35,-7Z"
id="f0_17"
transform="scale(0.001,-0.001)"/>

<path d="M190,0V95H394V757c0,0,0,29,2,61L230,671c0,0,-13,-11,-28,-11c-2,0,-5,1,-7,1c0,0,-17,5,-23,15l-40,54L418,983H519V95H706V0Z"
id="f0_18"
transform="scale(0.001,-0.001)"/>

<path d="M154,-211l-59,36c0,0,-5,3,-10,8c0,0,-4,5,-7,11c0,0,-2,6,-1,15c0,0,1,8,7,19c0,0,75,130,114,275c0,0,39,145,39,300c0,0,0,153,-39,299c0,0,-39,145,-114,276c0,0,-6,11,-7,19c0,0,-1,9,1,15c0,0,3,7,7,11c0,0,5,5,10,9l59,35c0,0,53,-83,91,-164c0,0,38,-82,61,-164c0,0,24,-82,35,-165c0,0,10,-84,10,-171c0,0,0,-87,-10,-171c0,0,-11,-84,-35,-166c0,0,-23,-82,-61,-162c0,0,-38,-82,-91,-165Z"
id="f0_19"
transform="scale(0.001,-0.001)"/>

<path d="M391,473c0,0,52,0,92,15c0,0,41,15,68,42c0,0,27,27,41,64c0,0,14,37,14,82c0,0,0,94,-53,146c0,0,-53,52,-162,52H245V473ZM110,0V980H391c0,0,89,0,155,-21c0,0,66,-22,110,-62c0,0,43,-39,64,-95c0,0,22,-57,22,-126c0,0,0,-69,-23,-125c0,0,-23,-57,-67,-99c0,0,-45,-41,-110,-64c0,0,-65,-22,-151,-22H245V0Z"
id="f0_1a"
transform="scale(0.001,-0.001)"/>

<path d="M69,0V43c0,0,0,12,5,27c0,0,5,14,18,26L395,410c0,0,39,39,70,76c0,0,31,36,53,73c0,0,21,37,33,75c0,0,12,38,12,81c0,0,0,42,-13,74c0,0,-13,32,-35,54c0,0,-23,21,-53,31c0,0,-31,11,-67,11c0,0,-35,0,-65,-11c0,0,-29,-11,-52,-30c0,0,-24,-19,-40,-45c0,0,-16,-27,-24,-58c0,0,-6,-26,-20,-33c0,0,-10,-6,-27,-6c-4,0,-9,1,-14,1L88,714c0,0,9,68,36,120c0,0,27,51,68,87c0,0,41,35,95,53c0,0,53,17,115,17c0,0,62,0,115,-18c0,0,53,-19,92,-54c0,0,39,-35,61,-86c0,0,22,-50,22,-115c0,0,0,-55,-17,-101c0,0,-16,-47,-43,-90c0,0,-27,-42,-63,-83c0,0,-36,-40,-75,-81L242,101c0,0,29,8,58,12c0,0,28,5,54,5H665c0,0,21,0,32,-12c0,0,12,-11,12,-31V0Z"
id="f0_1b"
transform="scale(0.001,-0.001)"/>

<path d="M131,0V620L53,630c0,0,-16,1,-25,9c0,0,-10,9,-10,23v54H131v95c0,0,0,119,53,181c0,0,54,61,151,61c0,0,17,0,31,-1c0,0,14,-2,26,-6V974c0,0,0,-11,-10,-14c0,0,-11,-3,-28,-3c0,0,-50,0,-73,-34c0,0,-24,-34,-24,-111V716H691V0H559V621H262V0ZM624,871c0,0,-18,0,-35,8c0,0,-16,7,-28,20c0,0,-13,12,-20,29c0,0,-8,16,-8,35c0,0,0,19,8,36c0,0,7,17,20,30c0,0,12,12,28,20c0,0,17,7,35,7c0,0,19,0,36,-7c0,0,17,-8,30,-20c0,0,13,-13,20,-30c0,0,8,-17,8,-36c0,0,0,-19,-8,-35c0,0,-7,-17,-20,-29c0,0,-13,-13,-30,-20c0,0,-17,-8,-36,-8Z"
id="f0_1d"
transform="scale(0.001,-0.001)"/>

<path d="M396,-9c0,0,-76,0,-130,18c0,0,-53,19,-91,53c0,0,-38,34,-63,80c0,0,-25,47,-41,102l54,23c0,0,14,6,31,6c3,0,7,0,10,-1c0,0,20,-3,29,-22c0,0,9,-19,22,-46c0,0,13,-26,35,-51c0,0,23,-24,57,-41c0,0,34,-17,86,-17c0,0,49,0,85,17c0,0,37,17,62,43c0,0,24,26,37,59c0,0,12,33,12,64c0,0,0,39,-10,72c0,0,-10,33,-36,57c0,0,-27,23,-75,37c0,0,-47,13,-122,13v91c0,0,62,0,104,13c0,0,43,13,69,36c0,0,27,22,39,53c0,0,12,32,12,69c0,0,0,42,-12,73c0,0,-12,31,-34,52c0,0,-22,21,-53,31c0,0,-30,10,-66,10c0,0,-36,0,-65,-11c0,0,-29,-11,-53,-30c0,0,-23,-19,-39,-45c0,0,-16,-27,-24,-58c0,0,-6,-26,-20,-33c0,0,-10,-6,-27,-6c-5,0,-9,1,-14,1L99,714c0,0,10,68,37,120c0,0,27,51,68,87c0,0,41,35,95,53c0,0,53,17,115,17c0,0,62,0,113,-17c0,0,52,-18,89,-51c0,0,37,-33,58,-79c0,0,21,-47,21,-103c0,0,0,-47,-12,-84c0,0,-12,-36,-33,-64c0,0,-22,-28,-52,-47c0,0,-31,-19,-69,-31c0,0,93,-25,140,-84c0,0,47,-60,47,-149c0,0,0,-68,-25,-122c0,0,-26,-54,-69,-92C622,68,578,30,520,10C520,10,462,-9,396,-9Z"
id="f0_1f"
transform="scale(0.001,-0.001)"/>

<path d="M313,-10c0,0,-85,0,-131,47c0,0,-45,49,-45,139V621H53c0,0,-12,0,-20,7c0,0,-8,8,-8,22v52l116,15l31,224c0,0,1,12,9,18c0,0,8,7,20,7h67V716H596l31,225c0,0,1,12,9,18c0,0,8,7,20,7h67V716H925V621H723V185c0,0,0,-45,21,-67c0,0,21,-23,53,-23c0,0,20,0,34,6c0,0,14,5,24,12c0,0,10,6,17,12c0,0,7,5,13,5c0,0,10,0,18,-13L942,54C942,54,909,23,863,6c0,0,-45,-16,-95,-16c0,0,-85,0,-131,47c0,0,-45,49,-45,139V621H268V185c0,0,0,-45,21,-67c0,0,21,-23,53,-23c0,0,20,0,34,6c0,0,13,5,23,12c0,0,11,6,18,12c0,0,7,5,13,5c0,0,6,0,11,-3c0,0,4,-3,7,-10L487,54C487,54,454,23,408,6c0,0,-46,-16,-95,-16Z"
id="f0_1h"
transform="scale(0.001,-0.001)"/>

<path d="M498,354V754c0,0,0,36,4,79L160,354ZM498,0V257H76c0,0,-15,0,-25,7c0,0,-9,8,-12,21L26,348L490,981H607V354H749V283c0,0,0,-11,-7,-19c0,0,-7,-7,-21,-7H607V0Z"
id="f0_1i"
transform="scale(0.001,-0.001)"/>

<path d="M306,-10c0,0,-84,0,-129,47c0,0,-45,49,-45,139V621H51c0,0,-11,0,-19,7c0,0,-8,8,-8,22v52l113,15l30,224c0,0,2,12,9,18c0,0,8,7,21,7h66V716H596v70c0,0,0,62,17,111c0,0,17,49,49,82c0,0,32,33,77,51c0,0,44,17,99,17c0,0,24,0,45,-3c0,0,22,-4,43,-11l-4,-65c0,0,-1,-18,-18,-19c0,0,-17,-2,-44,-2c0,0,-31,0,-56,-9c0,0,-25,-8,-43,-27c0,0,-18,-20,-28,-51c0,0,-9,-32,-9,-78V716H919V621H727V0H596V621H263V185c0,0,0,-45,20,-67c0,0,21,-23,53,-23c0,0,18,0,32,6c0,0,13,5,23,12c0,0,9,6,16,12c0,0,6,5,12,5c0,0,7,0,11,-3c0,0,4,-3,8,-10L477,54C477,54,444,23,399,6c0,0,-45,-16,-93,-16Z"
id="f0_1k"
transform="scale(0.001,-0.001)"/>

<path d="M103,0V980H658V870H239V530H595V420H239V0Z"
id="f0_1l"
transform="scale(0.001,-0.001)"/>

<path d="M175,683c0,0,-31,52,-42,108c0,0,-11,57,-2,113c0,0,9,55,36,106c0,0,28,52,74,92l40,-26c0,0,11,-6,10,-17c0,0,-2,-10,-8,-17c0,0,-18,-22,-32,-55c0,0,-13,-33,-17,-71c0,0,-3,-37,4,-78c0,0,7,-40,30,-78c0,0,10,-16,5,-28c0,0,-4,-12,-18,-17L175,683Z"
id="f0_1m"
transform="scale(0.001,-0.001)"/>

<path d="M56,376V487H413V376Z"
id="f0_1n"
transform="scale(0.001,-0.001)"/>

</defs>
<g fill="#000000"  clip-path="url(#c0_1)">
<use xlink:href="#f0_2" transform="matrix(12,0,0,12,318.2,141)"/>
<use xlink:href="#f0_3" transform="matrix(12,0,0,12,333.9,141)"/>
<use xlink:href="#f0_4" transform="matrix(12,0,0,12,342.7,141)"/>
<use xlink:href="#f0_5" transform="matrix(12,0,0,12,350.4,141)"/>
<use xlink:href="#f0_6" transform="matrix(12,0,0,12,360.1,141)"/>
<use xlink:href="#f0_a" transform="matrix(12,0,0,12,364.3,141)"/>
<use xlink:href="#f0_b" transform="matrix(12,0,0,12,373.8,141)"/>
<use xlink:href="#f0_d" transform="matrix(12,0,0,12,387.2,141)"/>
<use xlink:href="#f0_b" transform="matrix(12,0,0,12,398.3,141)"/>
<use xlink:href="#f0_b" transform="matrix(12,0,0,12,407.5,141)"/>
<use xlink:href="#f0_e" transform="matrix(12,0,0,12,416.6,141)"/>
<use xlink:href="#f0_f" transform="matrix(12,0,0,12,430.4,141)"/>
<use xlink:href="#f0_b" transform="matrix(12,0,0,12,438,141)"/>
<use xlink:href="#f0_3" transform="matrix(12,0,0,12,447.2,141)"/>
<use xlink:href="#f0_g" transform="matrix(12,0,0,12,455.9,141)"/>
<use xlink:href="#f0_a" transform="matrix(12,0,0,12,462.3,141)"/>
<use xlink:href="#f0_6" transform="matrix(12,0,0,12,471.9,141)"/>
<use xlink:href="#f0_a" transform="matrix(12,0,0,12,476.2,141)"/>
<use xlink:href="#f0_h" transform="matrix(12,0,0,12,485.8,141)"/>
<use xlink:href="#f0_6" transform="matrix(12,0,0,12,498.6,141)"/>
<use xlink:href="#f0_a" transform="matrix(12,0,0,12,502.7,141)"/>
<use xlink:href="#f0_3" transform="matrix(12,0,0,12,516.6,141)"/>
<use xlink:href="#f0_i" transform="matrix(12,0,0,12,529.4,141)"/>
<use xlink:href="#f0_j" transform="matrix(12,0,0,12,541.2,141)"/>
<use xlink:href="#f0_k" transform="matrix(12,0,0,12,550.8,141)"/>
<use xlink:href="#f0_l" transform="matrix(12,0,0,12,556.9,141)"/>
<use xlink:href="#f0_5" transform="matrix(12,0,0,12,564.1,141)"/>
<use xlink:href="#f0_b" transform="matrix(12,0,0,12,573.7,141)"/>
<use xlink:href="#f0_m" transform="matrix(12,0,0,12,582.9,141)"/>
<use xlink:href="#f0_m" transform="matrix(12,0,0,12,587.1,141)"/>
<use xlink:href="#f0_2" transform="matrix(12,0,0,12,174.3,196)"/>
<use xlink:href="#f0_n" transform="matrix(12,0,0,12,190,196)"/>
<use xlink:href="#f0_o" transform="matrix(12,0,0,12,199.7,196)"/>
<use xlink:href="#f0_b" transform="matrix(12,0,0,12,209.3,196)"/>
<use xlink:href="#f0_g" transform="matrix(12,0,0,12,218.4,196)"/>
<use xlink:href="#f0_a" transform="matrix(12,0,0,12,224.8,196)"/>
<use xlink:href="#f0_p" transform="matrix(12,0,0,12,238.6,196)"/>
<use xlink:href="#f0_3" transform="matrix(12,0,0,12,253.2,196)"/>
<use xlink:href="#f0_4" transform="matrix(12,0,0,12,261.9,196)"/>
<use xlink:href="#f0_5" transform="matrix(12,0,0,12,269.7,196)"/>
<use xlink:href="#f0_6" transform="matrix(12,0,0,12,279.3,196)"/>
<use xlink:href="#f0_a" transform="matrix(12,0,0,12,283.6,196)"/>
<use xlink:href="#f0_b" transform="matrix(12,0,0,12,293.1,196)"/>
<use xlink:href="#f0_m" transform="matrix(12,0,0,12,306.5,196)"/>
<use xlink:href="#f0_b" transform="matrix(12,0,0,12,310.6,196)"/>
<use xlink:href="#f0_3" transform="matrix(12,0,0,12,319.7,196)"/>
<use xlink:href="#f0_g" transform="matrix(12,0,0,12,328.4,196)"/>
<use xlink:href="#f0_a" transform="matrix(12,0,0,12,334.8,196)"/>
<use xlink:href="#f0_6" transform="matrix(12,0,0,12,344.5,196)"/>
<use xlink:href="#f0_a" transform="matrix(12,0,0,12,348.7,196)"/>
<use xlink:href="#f0_h" transform="matrix(12,0,0,12,358.3,196)"/>
<use xlink:href="#f0_p" transform="matrix(12,0,0,12,371,196)"/>
<use xlink:href="#f0_b" transform="matrix(12,0,0,12,385.7,196)"/>
<use xlink:href="#f0_k" transform="matrix(12,0,0,12,394.7,196)"/>
<use xlink:href="#f0_5" transform="matrix(12,0,0,12,400.8,196)"/>
<use xlink:href="#f0_n" transform="matrix(12,0,0,12,410.4,196)"/>
<use xlink:href="#f0_o" transform="matrix(12,0,0,12,420.1,196)"/>
<use xlink:href="#f0_5" transform="matrix(12,0,0,12,433.9,196)"/>
<use xlink:href="#f0_b" transform="matrix(12,0,0,12,443.6,196)"/>
<use xlink:href="#f0_m" transform="matrix(12,0,0,12,452.6,196)"/>
<use xlink:href="#f0_e" transform="matrix(12,0,0,12,456.8,196)"/>
<use xlink:href="#f0_e" transform="matrix(12,0,0,12,470.7,196)"/>
<use xlink:href="#f0_b" transform="matrix(12,0,0,12,480.2,196)"/>
<use xlink:href="#f0_n" transform="matrix(12,0,0,12,489.3,196)"/>
<use xlink:href="#f0_e" transform="matrix(12,0,0,12,499,196)"/>
<use xlink:href="#f0_m" transform="matrix(12,0,0,12,508.6,196)"/>
<use xlink:href="#f0_b" transform="matrix(12,0,0,12,512.8,196)"/>
<use xlink:href="#f0_6" transform="matrix(12,0,0,12,526.1,196)"/>
<use xlink:href="#f0_a" transform="matrix(12,0,0,12,530.4,196)"/>
<use xlink:href="#f0_p" transform="matrix(12,0,0,12,544.1,196)"/>
<use xlink:href="#f0_3" transform="matrix(12,0,0,12,558.8,196)"/>
<use xlink:href="#f0_q" transform="matrix(12,0,0,12,567.5,196)"/>
<use xlink:href="#f0_6" transform="matrix(12,0,0,12,575.7,196)"/>
<use xlink:href="#f0_a" transform="matrix(12,0,0,12,580,196)"/>
<use xlink:href="#f0_h" transform="matrix(12,0,0,12,589.6,196)"/>
<use xlink:href="#f0_o" transform="matrix(12,0,0,12,602.4,196)"/>
<use xlink:href="#f0_b" transform="matrix(12,0,0,12,612,196)"/>
<use xlink:href="#f0_4" transform="matrix(12,0,0,12,621.1,196)"/>
<use xlink:href="#f0_6" transform="matrix(12,0,0,12,628.8,196)"/>
<use xlink:href="#f0_l" transform="matrix(12,0,0,12,633.1,196)"/>
<use xlink:href="#f0_6" transform="matrix(12,0,0,12,640.1,196)"/>
<use xlink:href="#f0_n" transform="matrix(12,0,0,12,644.4,196)"/>
<use xlink:href="#f0_a" transform="matrix(12,0,0,12,654,196)"/>
<use xlink:href="#f0_3" transform="matrix(12,0,0,12,667.9,196)"/>
<use xlink:href="#f0_a" transform="matrix(12,0,0,12,676.6,196)"/>
<use xlink:href="#f0_o" transform="matrix(12,0,0,12,686.2,196)"/>
<use xlink:href="#f0_e" transform="matrix(12,0,0,12,137.7,223.5)"/>
<use xlink:href="#f0_g" transform="matrix(12,0,0,12,147.3,223.5)"/>
<use xlink:href="#f0_b" transform="matrix(12,0,0,12,153.4,223.5)"/>
<use xlink:href="#f0_o" transform="matrix(12,0,0,12,162.5,223.5)"/>
<use xlink:href="#f0_6" transform="matrix(12,0,0,12,172.2,223.5)"/>
<use xlink:href="#f0_4" transform="matrix(12,0,0,12,176.4,223.5)"/>
<use xlink:href="#f0_r" transform="matrix(12,0,0,12,184.1,223.5)"/>
<use xlink:href="#f0_n" transform="matrix(12,0,0,12,194.3,223.5)"/>
<use xlink:href="#f0_a" transform="matrix(12,0,0,12,203.9,223.5)"/>
<use xlink:href="#f0_t" transform="matrix(12,0,0,12,217.8,223.5)"/>
<use xlink:href="#f0_g" transform="matrix(12,0,0,12,223.3,223.5)"/>
<use xlink:href="#f0_n" transform="matrix(12,0,0,12,229.4,223.5)"/>
<use xlink:href="#f0_p" transform="matrix(12,0,0,12,239,223.5)"/>
<use xlink:href="#f0_o" transform="matrix(12,0,0,12,257.9,223.5)"/>
<use xlink:href="#f0_3" transform="matrix(12,0,0,12,267.5,223.5)"/>
<use xlink:href="#f0_k" transform="matrix(12,0,0,12,276.1,223.5)"/>
<use xlink:href="#f0_3" transform="matrix(12,0,0,12,282.1,223.5)"/>
<use xlink:href="#f0_u" transform="matrix(12,0,0,12,290.8,223.5)"/>
<use xlink:href="#f0_f" transform="matrix(12,0,0,12,299.6,223.5)"/>
<use xlink:href="#f0_6" transform="matrix(12,0,0,12,307.3,223.5)"/>
<use xlink:href="#f0_q" transform="matrix(12,0,0,12,311.4,223.5)"/>
<use xlink:href="#f0_b" transform="matrix(12,0,0,12,319.2,223.5)"/>
<use xlink:href="#f0_v" transform="matrix(12,0,0,12,332.4,223.5)"/>
<use xlink:href="#f0_w" transform="matrix(12,0,0,12,342.2,223.5)"/>
<use xlink:href="#f0_d" transform="matrix(12,0,0,12,352.8,223.5)"/>
<use xlink:href="#f0_x" transform="matrix(12,0,0,12,363.6,223.5)"/>
<use xlink:href="#f0_v" transform="matrix(12,0,0,12,372.3,223.5)"/>
<use xlink:href="#f0_n" transform="matrix(12,0,0,12,382.1,223.5)"/>
<use xlink:href="#f0_p" transform="matrix(12,0,0,12,391.7,223.5)"/>
<use xlink:href="#f0_e" transform="matrix(12,0,0,12,406.3,223.5)"/>
<use xlink:href="#f0_j" transform="matrix(12,0,0,12,416,223.5)"/>
<use xlink:href="#f0_k" transform="matrix(12,0,0,12,425.6,223.5)"/>
<use xlink:href="#f0_b" transform="matrix(12,0,0,12,431.6,223.5)"/>
<use xlink:href="#f0_g" transform="matrix(12,0,0,12,440.7,223.5)"/>
<use xlink:href="#f0_w" transform="matrix(12,0,0,12,451.2,223.5)"/>
<use xlink:href="#f0_6" transform="matrix(12,0,0,12,461.8,223.5)"/>
<use xlink:href="#f0_o" transform="matrix(12,0,0,12,466,223.5)"/>
<use xlink:href="#f0_b" transform="matrix(12,0,0,12,475.6,223.5)"/>
<use xlink:href="#f0_o" transform="matrix(12,0,0,12,484.8,223.5)"/>
<use xlink:href="#f0_d" transform="matrix(12,0,0,12,498.5,223.5)"/>
<use xlink:href="#f0_b" transform="matrix(12,0,0,12,509.8,223.5)"/>
<use xlink:href="#f0_l" transform="matrix(12,0,0,12,519,223.5)"/>
<use xlink:href="#f0_6" transform="matrix(12,0,0,12,526,223.5)"/>
<use xlink:href="#f0_h" transform="matrix(12,0,0,12,530.3,223.5)"/>
<use xlink:href="#f0_a" transform="matrix(12,0,0,12,538.8,223.5)"/>
<use xlink:href="#f0_x" transform="matrix(12,0,0,12,548.4,223.5)"/>
<use xlink:href="#f0_5" transform="matrix(12,0,0,12,557.3,223.5)"/>
<use xlink:href="#f0_j" transform="matrix(12,0,0,12,566.9,223.5)"/>
<use xlink:href="#f0_p" transform="matrix(12,0,0,12,576.5,223.5)"/>
<use xlink:href="#f0_3" transform="matrix(12,0,0,12,591.2,223.5)"/>
<use xlink:href="#f0_a" transform="matrix(12,0,0,12,599.9,223.5)"/>
<use xlink:href="#f0_6" transform="matrix(12,0,0,12,613.6,223.5)"/>
<use xlink:href="#f0_l" transform="matrix(12,0,0,12,617.9,223.5)"/>
<use xlink:href="#f0_p" transform="matrix(12,0,0,12,629.2,223.5)"/>
<use xlink:href="#f0_3" transform="matrix(12,0,0,12,643.8,223.5)"/>
<use xlink:href="#f0_q" transform="matrix(12,0,0,12,652.5,223.5)"/>
<use xlink:href="#f0_6" transform="matrix(12,0,0,12,660.8,223.5)"/>
<use xlink:href="#f0_a" transform="matrix(12,0,0,12,665,223.5)"/>
<use xlink:href="#f0_h" transform="matrix(12,0,0,12,674.8,223.5)"/>
<use xlink:href="#f0_j" transform="matrix(12,0,0,12,687.5,223.5)"/>
<use xlink:href="#f0_l" transform="matrix(12,0,0,12,697.1,223.5)"/>
<use xlink:href="#f0_b" transform="matrix(12,0,0,12,704.3,223.5)"/>
<use xlink:href="#f0_n" transform="matrix(12,0,0,12,717.6,223.5)"/>
<use xlink:href="#f0_t" transform="matrix(12,0,0,12,727.2,223.5)"/>
<use xlink:href="#f0_4" transform="matrix(12,0,0,12,137.7,251)"/>
<use xlink:href="#f0_n" transform="matrix(12,0,0,12,145.3,251)"/>
<use xlink:href="#f0_p" transform="matrix(12,0,0,12,154.9,251)"/>
<use xlink:href="#f0_e" transform="matrix(12,0,0,12,169.6,251)"/>
<use xlink:href="#f0_j" transform="matrix(12,0,0,12,179.2,251)"/>
<use xlink:href="#f0_k" transform="matrix(12,0,0,12,188.8,251)"/>
<use xlink:href="#f0_b" transform="matrix(12,0,0,12,194.8,251)"/>
<use xlink:href="#f0_g" transform="matrix(12,0,0,12,203.9,251)"/>
<use xlink:href="#f0_t" transform="matrix(12,0,0,12,214.5,251)"/>
<use xlink:href="#f0_n" transform="matrix(12,0,0,12,219.6,251)"/>
<use xlink:href="#f0_g" transform="matrix(12,0,0,12,229.3,251)"/>
<use xlink:href="#f0_v" transform="matrix(12,0,0,12,239.8,251)"/>
<use xlink:href="#f0_w" transform="matrix(12,0,0,12,249.6,251)"/>
<use xlink:href="#f0_d" transform="matrix(12,0,0,12,260.1,251)"/>
<use xlink:href="#f0_2" transform="matrix(12,0,0,12,271.4,251)"/>
<use xlink:href="#f0_x" transform="matrix(12,0,0,12,287.1,251)"/>
<use xlink:href="#f0_v" transform="matrix(12,0,0,12,295.8,251)"/>
<use xlink:href="#f0_n" transform="matrix(12,0,0,12,305.6,251)"/>
<use xlink:href="#f0_p" transform="matrix(12,0,0,12,315.2,251)"/>
<use xlink:href="#f0_e" transform="matrix(12,0,0,12,329.8,251)"/>
<use xlink:href="#f0_j" transform="matrix(12,0,0,12,339.5,251)"/>
<use xlink:href="#f0_k" transform="matrix(12,0,0,12,349.1,251)"/>
<use xlink:href="#f0_b" transform="matrix(12,0,0,12,355,251)"/>
<use xlink:href="#f0_g" transform="matrix(12,0,0,12,364.2,251)"/>
<use xlink:href="#f0_w" transform="matrix(12,0,0,12,374.7,251)"/>
<use xlink:href="#f0_6" transform="matrix(12,0,0,12,385.3,251)"/>
<use xlink:href="#f0_o" transform="matrix(12,0,0,12,389.5,251)"/>
<use xlink:href="#f0_b" transform="matrix(12,0,0,12,399.1,251)"/>
<use xlink:href="#f0_o" transform="matrix(12,0,0,12,408.3,251)"/>
<use xlink:href="#f0_d" transform="matrix(12,0,0,12,422,251)"/>
<use xlink:href="#f0_b" transform="matrix(12,0,0,12,433.2,251)"/>
<use xlink:href="#f0_4" transform="matrix(12,0,0,12,442.3,251)"/>
<use xlink:href="#f0_6" transform="matrix(12,0,0,12,450.1,251)"/>
<use xlink:href="#f0_l" transform="matrix(12,0,0,12,454.4,251)"/>
<use xlink:href="#f0_6" transform="matrix(12,0,0,12,461.4,251)"/>
<use xlink:href="#f0_n" transform="matrix(12,0,0,12,465.6,251)"/>
<use xlink:href="#f0_a" transform="matrix(12,0,0,12,475.3,251)"/>
<use xlink:href="#f0_2" transform="matrix(12,0,0,12,489.1,251)"/>
<use xlink:href="#f0_3" transform="matrix(12,0,0,12,504.9,251)"/>
<use xlink:href="#f0_q" transform="matrix(12,0,0,12,513.4,251)"/>
<use xlink:href="#f0_6" transform="matrix(12,0,0,12,521.8,251)"/>
<use xlink:href="#f0_a" transform="matrix(12,0,0,12,526,251)"/>
<use xlink:href="#f0_h" transform="matrix(12,0,0,12,535.7,251)"/>
<use xlink:href="#f0_u" transform="matrix(12,0,0,12,544.2,251)"/>
<use xlink:href="#f0_y" transform="matrix(12,0,0,12,553.1,251)"/>
<use xlink:href="#f0_5" transform="matrix(12,0,0,12,561.9,251)"/>
<use xlink:href="#f0_b" transform="matrix(12,0,0,12,571.5,251)"/>
<use xlink:href="#f0_o" transform="matrix(12,0,0,12,584.8,251)"/>
<use xlink:href="#f0_b" transform="matrix(12,0,0,12,594.4,251)"/>
<use xlink:href="#f0_z" transform="matrix(12,0,0,12,603.5,251)"/>
<use xlink:href="#f0_b" transform="matrix(12,0,0,12,611.6,251)"/>
<use xlink:href="#f0_m" transform="matrix(12,0,0,12,620.7,251)"/>
<use xlink:href="#f0_n" transform="matrix(12,0,0,12,625,251)"/>
<use xlink:href="#f0_e" transform="matrix(12,0,0,12,634.6,251)"/>
<use xlink:href="#f0_p" transform="matrix(12,0,0,12,644.2,251)"/>
<use xlink:href="#f0_b" transform="matrix(12,0,0,12,658.7,251)"/>
<use xlink:href="#f0_a" transform="matrix(12,0,0,12,667.9,251)"/>
<use xlink:href="#f0_k" transform="matrix(12,0,0,12,677.4,251)"/>
<use xlink:href="#f0_n" transform="matrix(12,0,0,12,687.7,251)"/>
<use xlink:href="#f0_t" transform="matrix(12,0,0,12,697.2,251)"/>
<use xlink:href="#f0_p" transform="matrix(12,0,0,12,707.1,251)"/>
<use xlink:href="#f0_n" transform="matrix(12,0,0,12,721.7,251)"/>
<use xlink:href="#f0_o" transform="matrix(12,0,0,12,731.4,251)"/>
<use xlink:href="#f0_b" transform="matrix(12,0,0,12,740.8,251)"/>
<use xlink:href="#f0_g" transform="matrix(12,0,0,12,750,251)"/>
<use xlink:href="#f0_a" transform="matrix(12,0,0,12,756.4,251)"/>
<use xlink:href="#f0_p" transform="matrix(12,0,0,12,137.7,278.5)"/>
<use xlink:href="#f0_3" transform="matrix(12,0,0,12,152.3,278.5)"/>
<use xlink:href="#f0_4" transform="matrix(12,0,0,12,161,278.5)"/>
<use xlink:href="#f0_5" transform="matrix(12,0,0,12,168.8,278.5)"/>
<use xlink:href="#f0_6" transform="matrix(12,0,0,12,178.4,278.5)"/>
<use xlink:href="#f0_a" transform="matrix(12,0,0,12,182.7,278.5)"/>
<use xlink:href="#f0_b" transform="matrix(12,0,0,12,192.3,278.5)"/>
<use xlink:href="#f0_m" transform="matrix(12,0,0,12,205.6,278.5)"/>
<use xlink:href="#f0_b" transform="matrix(12,0,0,12,209.7,278.5)"/>
<use xlink:href="#f0_3" transform="matrix(12,0,0,12,218.8,278.5)"/>
<use xlink:href="#f0_g" transform="matrix(12,0,0,12,227.5,278.5)"/>
<use xlink:href="#f0_a" transform="matrix(12,0,0,12,233.9,278.5)"/>
<use xlink:href="#f0_6" transform="matrix(12,0,0,12,243.6,278.5)"/>
<use xlink:href="#f0_a" transform="matrix(12,0,0,12,247.8,278.5)"/>
<use xlink:href="#f0_h" transform="matrix(12,0,0,12,257.4,278.5)"/>
<use xlink:href="#f0_p" transform="matrix(12,0,0,12,270.3,278.5)"/>
<use xlink:href="#f0_b" transform="matrix(12,0,0,12,284.9,278.5)"/>
<use xlink:href="#f0_k" transform="matrix(12,0,0,12,293.9,278.5)"/>
<use xlink:href="#f0_5" transform="matrix(12,0,0,12,300,278.5)"/>
<use xlink:href="#f0_n" transform="matrix(12,0,0,12,309.7,278.5)"/>
<use xlink:href="#f0_o" transform="matrix(12,0,0,12,319.3,278.5)"/>
<use xlink:href="#f0_l" transform="matrix(12,0,0,12,328.9,278.5)"/>
<use xlink:href="#f0_6" transform="matrix(12,0,0,12,340.2,278.5)"/>
<use xlink:href="#f0_l" transform="matrix(12,0,0,12,344.5,278.5)"/>
<use xlink:href="#f0_6" transform="matrix(12,0,0,12,355.7,278.5)"/>
<use xlink:href="#f0_p" transform="matrix(12,0,0,12,359.9,278.5)"/>
<use xlink:href="#f0_e" transform="matrix(12,0,0,12,374.5,278.5)"/>
<use xlink:href="#f0_n" transform="matrix(12,0,0,12,384.1,278.5)"/>
<use xlink:href="#f0_g" transform="matrix(12,0,0,12,393.8,278.5)"/>
<use xlink:href="#f0_k" transform="matrix(12,0,0,12,400.2,278.5)"/>
<use xlink:href="#f0_3" transform="matrix(12,0,0,12,406.1,278.5)"/>
<use xlink:href="#f0_a" transform="matrix(12,0,0,12,414.8,278.5)"/>
<use xlink:href="#f0_k" transform="matrix(12,0,0,12,424.3,278.5)"/>
<use xlink:href="#f0_k" transform="matrix(12,0,0,12,434.7,278.5)"/>
<use xlink:href="#f0_n" transform="matrix(12,0,0,12,440.6,278.5)"/>
<use xlink:href="#f0_5" transform="matrix(12,0,0,12,454.4,278.5)"/>
<use xlink:href="#f0_j" transform="matrix(12,0,0,12,464,278.5)"/>
<use xlink:href="#f0_p" transform="matrix(12,0,0,12,473.6,278.5)"/>
<use xlink:href="#f0_3" transform="matrix(12,0,0,12,488.3,278.5)"/>
<use xlink:href="#f0_a" transform="matrix(12,0,0,12,497,278.5)"/>
<use xlink:href="#f0_b" transform="matrix(12,0,0,12,510.9,278.5)"/>
<use xlink:href="#f0_a" transform="matrix(12,0,0,12,520,278.5)"/>
<use xlink:href="#f0_o" transform="matrix(12,0,0,12,529.7,278.5)"/>
<use xlink:href="#f0_b" transform="matrix(12,0,0,12,539.3,278.5)"/>
<use xlink:href="#f0_3" transform="matrix(12,0,0,12,548.4,278.5)"/>
<use xlink:href="#f0_z" transform="matrix(12,0,0,12,556.8,278.5)"/>
<use xlink:href="#f0_n" transform="matrix(12,0,0,12,564.9,278.5)"/>
<use xlink:href="#f0_g" transform="matrix(12,0,0,12,574.6,278.5)"/>
<use xlink:href="#f0_10" transform="matrix(12,0,0,12,585.1,278.5)"/>
<use xlink:href="#f0_11" transform="matrix(12,0,0,12,594.7,278.5)"/>
<use xlink:href="#f0_3" transform="matrix(12,0,0,12,607.1,278.5)"/>
<use xlink:href="#f0_o" transform="matrix(12,0,0,12,615.8,278.5)"/>
<use xlink:href="#f0_z" transform="matrix(12,0,0,12,625.5,278.5)"/>
<use xlink:href="#f0_3" transform="matrix(12,0,0,12,633.5,278.5)"/>
<use xlink:href="#f0_a" transform="matrix(12,0,0,12,642.2,278.5)"/>
<use xlink:href="#f0_4" transform="matrix(12,0,0,12,651.8,278.5)"/>
<use xlink:href="#f0_6" transform="matrix(12,0,0,12,659.6,278.5)"/>
<use xlink:href="#f0_a" transform="matrix(12,0,0,12,663.8,278.5)"/>
<use xlink:href="#f0_h" transform="matrix(12,0,0,12,673.5,278.5)"/>
<use xlink:href="#f0_5" transform="matrix(12,0,0,12,686.3,278.5)"/>
<use xlink:href="#f0_j" transform="matrix(12,0,0,12,695.9,278.5)"/>
<use xlink:href="#f0_p" transform="matrix(12,0,0,12,705.5,278.5)"/>
<use xlink:href="#f0_3" transform="matrix(12,0,0,12,720.2,278.5)"/>
<use xlink:href="#f0_a" transform="matrix(12,0,0,12,728.9,278.5)"/>
<use xlink:href="#f0_12" transform="matrix(12,0,0,12,738.5,278.5)"/>
<use xlink:href="#f0_l" transform="matrix(12,0,0,12,742,278.5)"/>
<use xlink:href="#f0_q" transform="matrix(12,0,0,12,137.7,306)"/>
<use xlink:href="#f0_a" transform="matrix(12,0,0,12,146,306)"/>
<use xlink:href="#f0_n" transform="matrix(12,0,0,12,155.7,306)"/>
<use xlink:href="#f0_13" transform="matrix(12,0,0,12,165.3,306)"/>
<use xlink:href="#f0_m" transform="matrix(12,0,0,12,178.3,306)"/>
<use xlink:href="#f0_b" transform="matrix(12,0,0,12,182.5,306)"/>
<use xlink:href="#f0_o" transform="matrix(12,0,0,12,191.7,306)"/>
<use xlink:href="#f0_h" transform="matrix(12,0,0,12,201.3,306)"/>
<use xlink:href="#f0_b" transform="matrix(12,0,0,12,209.7,306)"/>
<use xlink:href="#f0_k" transform="matrix(12,0,0,12,223,306)"/>
<use xlink:href="#f0_n" transform="matrix(12,0,0,12,228.9,306)"/>
<use xlink:href="#f0_10" transform="matrix(12,0,0,12,242.8,306)"/>
<use xlink:href="#f0_g" transform="matrix(12,0,0,12,252.4,306)"/>
<use xlink:href="#f0_n" transform="matrix(12,0,0,12,258.5,306)"/>
<use xlink:href="#f0_3" transform="matrix(12,0,0,12,268.1,306)"/>
<use xlink:href="#f0_o" transform="matrix(12,0,0,12,276.9,306)"/>
<use xlink:href="#f0_b" transform="matrix(12,0,0,12,286.5,306)"/>
<use xlink:href="#f0_g" transform="matrix(12,0,0,12,295.6,306)"/>
<use xlink:href="#f0_3" transform="matrix(12,0,0,12,306.2,306)"/>
<use xlink:href="#f0_a" transform="matrix(12,0,0,12,314.9,306)"/>
<use xlink:href="#f0_o" transform="matrix(12,0,0,12,324.5,306)"/>
<use xlink:href="#f0_o" transform="matrix(12,0,0,12,338.4,306)"/>
<use xlink:href="#f0_b" transform="matrix(12,0,0,12,348,306)"/>
<use xlink:href="#f0_b" transform="matrix(12,0,0,12,357,306)"/>
<use xlink:href="#f0_e" transform="matrix(12,0,0,12,366.2,306)"/>
<use xlink:href="#f0_b" transform="matrix(12,0,0,12,375.8,306)"/>
<use xlink:href="#f0_g" transform="matrix(12,0,0,12,384.9,306)"/>
<use xlink:href="#f0_b" transform="matrix(12,0,0,12,395.5,306)"/>
<use xlink:href="#f0_14" transform="matrix(12,0,0,12,404.3,306)"/>
<use xlink:href="#f0_k" transform="matrix(12,0,0,12,412.2,306)"/>
<use xlink:href="#f0_b" transform="matrix(12,0,0,12,418.2,306)"/>
<use xlink:href="#f0_a" transform="matrix(12,0,0,12,427.4,306)"/>
<use xlink:href="#f0_o" transform="matrix(12,0,0,12,437,306)"/>
<use xlink:href="#f0_l" transform="matrix(12,0,0,12,446.6,306)"/>
<use xlink:href="#f0_u" transform="matrix(12,0,0,12,453.8,306)"/>
<use xlink:href="#f0_15" transform="matrix(12,0,0,12,137.7,361)"/>
<use xlink:href="#f0_b" transform="matrix(12,0,0,12,149.1,361)"/>
<use xlink:href="#f0_g" transform="matrix(12,0,0,12,158.2,361)"/>
<use xlink:href="#f0_b" transform="matrix(12,0,0,12,164.3,361)"/>
<use xlink:href="#f0_13" transform="matrix(12,0,0,12,177.6,361)"/>
<use xlink:href="#f0_b" transform="matrix(12,0,0,12,190.5,361)"/>
<use xlink:href="#f0_13" transform="matrix(12,0,0,12,203.7,361)"/>
<use xlink:href="#f0_6" transform="matrix(12,0,0,12,216.9,361)"/>
<use xlink:href="#f0_m" transform="matrix(12,0,0,12,221,361)"/>
<use xlink:href="#f0_m" transform="matrix(12,0,0,12,225.2,361)"/>
<use xlink:href="#f0_h" transform="matrix(12,0,0,12,233.6,361)"/>
<use xlink:href="#f0_n" transform="matrix(12,0,0,12,242.2,361)"/>
<use xlink:href="#f0_k" transform="matrix(12,0,0,12,255.9,361)"/>
<use xlink:href="#f0_5" transform="matrix(12,0,0,12,262,361)"/>
<use xlink:href="#f0_g" transform="matrix(12,0,0,12,271.7,361)"/>
<use xlink:href="#f0_n" transform="matrix(12,0,0,12,277.8,361)"/>
<use xlink:href="#f0_j" transform="matrix(12,0,0,12,287.4,361)"/>
<use xlink:href="#f0_h" transform="matrix(12,0,0,12,297,361)"/>
<use xlink:href="#f0_5" transform="matrix(12,0,0,12,305.6,361)"/>
<use xlink:href="#f0_k" transform="matrix(12,0,0,12,319.4,361)"/>
<use xlink:href="#f0_5" transform="matrix(12,0,0,12,325.6,361)"/>
<use xlink:href="#f0_b" transform="matrix(12,0,0,12,335.2,361)"/>
<use xlink:href="#f0_10" transform="matrix(12,0,0,12,348.4,361)"/>
<use xlink:href="#f0_3" transform="matrix(12,0,0,12,358.1,361)"/>
<use xlink:href="#f0_l" transform="matrix(12,0,0,12,366.8,361)"/>
<use xlink:href="#f0_6" transform="matrix(12,0,0,12,374,361)"/>
<use xlink:href="#f0_4" transform="matrix(12,0,0,12,378.2,361)"/>
<use xlink:href="#f0_l" transform="matrix(12,0,0,12,386,361)"/>
<use xlink:href="#f0_3" transform="matrix(12,0,0,12,397.3,361)"/>
<use xlink:href="#f0_a" transform="matrix(12,0,0,12,406,361)"/>
<use xlink:href="#f0_o" transform="matrix(12,0,0,12,415.6,361)"/>
<use xlink:href="#f0_l" transform="matrix(12,0,0,12,429.5,361)"/>
<use xlink:href="#f0_n" transform="matrix(12,0,0,12,436.7,361)"/>
<use xlink:href="#f0_p" transform="matrix(12,0,0,12,446.3,361)"/>
<use xlink:href="#f0_b" transform="matrix(12,0,0,12,460.9,361)"/>
<use xlink:href="#f0_3" transform="matrix(12,0,0,12,474.2,361)"/>
<use xlink:href="#f0_o" transform="matrix(12,0,0,12,482.9,361)"/>
<use xlink:href="#f0_z" transform="matrix(12,0,0,12,492.5,361)"/>
<use xlink:href="#f0_3" transform="matrix(12,0,0,12,500.6,361)"/>
<use xlink:href="#f0_a" transform="matrix(12,0,0,12,509.3,361)"/>
<use xlink:href="#f0_4" transform="matrix(12,0,0,12,519,361)"/>
<use xlink:href="#f0_b" transform="matrix(12,0,0,12,526.7,361)"/>
<use xlink:href="#f0_k" transform="matrix(12,0,0,12,540,361)"/>
<use xlink:href="#f0_n" transform="matrix(12,0,0,12,546,361)"/>
<use xlink:href="#f0_e" transform="matrix(12,0,0,12,555.6,361)"/>
<use xlink:href="#f0_6" transform="matrix(12,0,0,12,565.2,361)"/>
<use xlink:href="#f0_4" transform="matrix(12,0,0,12,569.3,361)"/>
<use xlink:href="#f0_l" transform="matrix(12,0,0,12,577.1,361)"/>
<use xlink:href="#f0_6" transform="matrix(12,0,0,12,588.5,361)"/>
<use xlink:href="#f0_a" transform="matrix(12,0,0,12,592.7,361)"/>
<use xlink:href="#f0_t" transform="matrix(12,0,0,12,606.4,361)"/>
<use xlink:href="#f0_n" transform="matrix(12,0,0,12,611.6,361)"/>
<use xlink:href="#f0_m" transform="matrix(12,0,0,12,621.2,361)"/>
<use xlink:href="#f0_m" transform="matrix(12,0,0,12,625.5,361)"/>
<use xlink:href="#f0_n" transform="matrix(12,0,0,12,629.6,361)"/>
<use xlink:href="#f0_13" transform="matrix(12,0,0,12,639.2,361)"/>
<use xlink:href="#f0_6" transform="matrix(12,0,0,12,652.4,361)"/>
<use xlink:href="#f0_a" transform="matrix(12,0,0,12,656.6,361)"/>
<use xlink:href="#f0_h" transform="matrix(12,0,0,12,666.2,361)"/>
<use xlink:href="#f0_l" transform="matrix(12,0,0,12,678.9,361)"/>
<use xlink:href="#f0_b" transform="matrix(12,0,0,12,686.1,361)"/>
<use xlink:href="#f0_16" transform="matrix(12,0,0,12,695.2,361)"/>
<use xlink:href="#f0_j" transform="matrix(12,0,0,12,704.9,361)"/>
<use xlink:href="#f0_b" transform="matrix(12,0,0,12,714.5,361)"/>
<use xlink:href="#f0_a" transform="matrix(12,0,0,12,723.6,361)"/>
<use xlink:href="#f0_4" transform="matrix(12,0,0,12,733.3,361)"/>
<use xlink:href="#f0_b" transform="matrix(12,0,0,12,740.9,361)"/>
<use xlink:href="#f0_l" transform="matrix(12,0,0,12,750.1,361)"/>
<use xlink:href="#f0_17" transform="matrix(12,0,0,12,757.2,361)"/>
<use xlink:href="#f0_18" transform="matrix(12,0,0,12,137.7,416)"/>
<use xlink:href="#f0_19" transform="matrix(12,0,0,12,146.9,416)"/>
<use xlink:href="#f0_1a" transform="matrix(12,0,0,12,165.2,416)"/>
<use xlink:href="#f0_g" transform="matrix(12,0,0,12,174.6,416)"/>
<use xlink:href="#f0_b" transform="matrix(12,0,0,12,180.7,416)"/>
<use xlink:href="#f0_o" transform="matrix(12,0,0,12,189.9,416)"/>
<use xlink:href="#f0_6" transform="matrix(12,0,0,12,199.5,416)"/>
<use xlink:href="#f0_4" transform="matrix(12,0,0,12,203.7,416)"/>
<use xlink:href="#f0_k" transform="matrix(12,0,0,12,211.5,416)"/>
<use xlink:href="#f0_t" transform="matrix(12,0,0,12,221.7,416)"/>
<use xlink:href="#f0_g" transform="matrix(12,0,0,12,227.2,416)"/>
<use xlink:href="#f0_n" transform="matrix(12,0,0,12,233.4,416)"/>
<use xlink:href="#f0_p" transform="matrix(12,0,0,12,243,416)"/>
<use xlink:href="#f0_4" transform="matrix(12,0,0,12,261.9,416)"/>
<use xlink:href="#f0_n" transform="matrix(12,0,0,12,269.5,416)"/>
<use xlink:href="#f0_p" transform="matrix(12,0,0,12,279,416)"/>
<use xlink:href="#f0_e" transform="matrix(12,0,0,12,293.7,416)"/>
<use xlink:href="#f0_n" transform="matrix(12,0,0,12,303.3,416)"/>
<use xlink:href="#f0_a" transform="matrix(12,0,0,12,312.9,416)"/>
<use xlink:href="#f0_b" transform="matrix(12,0,0,12,322.5,416)"/>
<use xlink:href="#f0_a" transform="matrix(12,0,0,12,331.7,416)"/>
<use xlink:href="#f0_k" transform="matrix(12,0,0,12,341.2,416)"/>
<use xlink:href="#f0_t" transform="matrix(12,0,0,12,351.5,416)"/>
<use xlink:href="#f0_3" transform="matrix(12,0,0,12,356.7,416)"/>
<use xlink:href="#f0_4" transform="matrix(12,0,0,12,365.4,416)"/>
<use xlink:href="#f0_k" transform="matrix(12,0,0,12,373.2,416)"/>
<use xlink:href="#f0_n" transform="matrix(12,0,0,12,379.2,416)"/>
<use xlink:href="#f0_g" transform="matrix(12,0,0,12,388.8,416)"/>
<use xlink:href="#f0_l" transform="matrix(12,0,0,12,394.9,416)"/>
<use xlink:href="#f0_x" transform="matrix(12,0,0,12,402.1,416)"/>
<use xlink:href="#f0_m" transform="matrix(12,0,0,12,410.7,416)"/>
<use xlink:href="#f0_6" transform="matrix(12,0,0,12,415,416)"/>
<use xlink:href="#f0_a" transform="matrix(12,0,0,12,419.1,416)"/>
<use xlink:href="#f0_b" transform="matrix(12,0,0,12,428.7,416)"/>
<use xlink:href="#f0_3" transform="matrix(12,0,0,12,437.9,416)"/>
<use xlink:href="#f0_g" transform="matrix(12,0,0,12,446.6,416)"/>
<use xlink:href="#f0_g" transform="matrix(12,0,0,12,457.3,416)"/>
<use xlink:href="#f0_b" transform="matrix(12,0,0,12,463.2,416)"/>
<use xlink:href="#f0_h" transform="matrix(12,0,0,12,472.4,416)"/>
<use xlink:href="#f0_g" transform="matrix(12,0,0,12,481.1,416)"/>
<use xlink:href="#f0_b" transform="matrix(12,0,0,12,487.2,416)"/>
<use xlink:href="#f0_l" transform="matrix(12,0,0,12,496.3,416)"/>
<use xlink:href="#f0_l" transform="matrix(12,0,0,12,503.5,416)"/>
<use xlink:href="#f0_6" transform="matrix(12,0,0,12,510.5,416)"/>
<use xlink:href="#f0_n" transform="matrix(12,0,0,12,514.8,416)"/>
<use xlink:href="#f0_a" transform="matrix(12,0,0,12,524.4,416)"/>
<use xlink:href="#f0_u" transform="matrix(12,0,0,12,534,416)"/>
<use xlink:href="#f0_1b" transform="matrix(12,0,0,12,137.7,443.5)"/>
<use xlink:href="#f0_19" transform="matrix(12,0,0,12,146.9,443.5)"/>
<use xlink:href="#f0_2" transform="matrix(12,0,0,12,165.2,443.5)"/>
<use xlink:href="#f0_3" transform="matrix(12,0,0,12,180.9,443.5)"/>
<use xlink:href="#f0_q" transform="matrix(12,0,0,12,189.6,443.5)"/>
<use xlink:href="#f0_b" transform="matrix(12,0,0,12,197.4,443.5)"/>
<use xlink:href="#f0_4" transform="matrix(12,0,0,12,210.6,443.5)"/>
<use xlink:href="#f0_m" transform="matrix(12,0,0,12,218.3,443.5)"/>
<use xlink:href="#f0_3" transform="matrix(12,0,0,12,222.5,443.5)"/>
<use xlink:href="#f0_l" transform="matrix(12,0,0,12,231.2,443.5)"/>
<use xlink:href="#f0_l" transform="matrix(12,0,0,12,238.4,443.5)"/>
<use xlink:href="#f0_6" transform="matrix(12,0,0,12,245.6,443.5)"/>
<use xlink:href="#f0_1d" transform="matrix(12,0,0,12,249.7,443.5)"/>
<use xlink:href="#f0_4" transform="matrix(12,0,0,12,259.5,443.5)"/>
<use xlink:href="#f0_3" transform="matrix(12,0,0,12,267.1,443.5)"/>
<use xlink:href="#f0_r" transform="matrix(12,0,0,12,275.7,443.5)"/>
<use xlink:href="#f0_n" transform="matrix(12,0,0,12,285.9,443.5)"/>
<use xlink:href="#f0_a" transform="matrix(12,0,0,12,295.5,443.5)"/>
<use xlink:href="#f0_o" transform="matrix(12,0,0,12,309.4,443.5)"/>
<use xlink:href="#f0_b" transform="matrix(12,0,0,12,319,443.5)"/>
<use xlink:href="#f0_4" transform="matrix(12,0,0,12,328,443.5)"/>
<use xlink:href="#f0_6" transform="matrix(12,0,0,12,335.8,443.5)"/>
<use xlink:href="#f0_l" transform="matrix(12,0,0,12,340.1,443.5)"/>
<use xlink:href="#f0_6" transform="matrix(12,0,0,12,347.1,443.5)"/>
<use xlink:href="#f0_n" transform="matrix(12,0,0,12,351.3,443.5)"/>
<use xlink:href="#f0_a" transform="matrix(12,0,0,12,361,443.5)"/>
<use xlink:href="#f0_l" transform="matrix(12,0,0,12,370.6,443.5)"/>
<use xlink:href="#f0_10" transform="matrix(12,0,0,12,382,443.5)"/>
<use xlink:href="#f0_11" transform="matrix(12,0,0,12,391.5,443.5)"/>
<use xlink:href="#f0_b" transform="matrix(12,0,0,12,404,443.5)"/>
<use xlink:href="#f0_14" transform="matrix(12,0,0,12,412.9,443.5)"/>
<use xlink:href="#f0_k" transform="matrix(12,0,0,12,420.8,443.5)"/>
<use xlink:href="#f0_b" transform="matrix(12,0,0,12,426.8,443.5)"/>
<use xlink:href="#f0_a" transform="matrix(12,0,0,12,435.9,443.5)"/>
<use xlink:href="#f0_o" transform="matrix(12,0,0,12,445.5,443.5)"/>
<use xlink:href="#f0_6" transform="matrix(12,0,0,12,455,443.5)"/>
<use xlink:href="#f0_a" transform="matrix(12,0,0,12,459.3,443.5)"/>
<use xlink:href="#f0_h" transform="matrix(12,0,0,12,468.9,443.5)"/>
<use xlink:href="#f0_m" transform="matrix(12,0,0,12,481.7,443.5)"/>
<use xlink:href="#f0_6" transform="matrix(12,0,0,12,485.8,443.5)"/>
<use xlink:href="#f0_a" transform="matrix(12,0,0,12,490.1,443.5)"/>
<use xlink:href="#f0_b" transform="matrix(12,0,0,12,499.7,443.5)"/>
<use xlink:href="#f0_3" transform="matrix(12,0,0,12,508.8,443.5)"/>
<use xlink:href="#f0_g" transform="matrix(12,0,0,12,517.6,443.5)"/>
<use xlink:href="#f0_g" transform="matrix(12,0,0,12,528.1,443.5)"/>
<use xlink:href="#f0_b" transform="matrix(12,0,0,12,534.2,443.5)"/>
<use xlink:href="#f0_h" transform="matrix(12,0,0,12,543.3,443.5)"/>
<use xlink:href="#f0_g" transform="matrix(12,0,0,12,551.9,443.5)"/>
<use xlink:href="#f0_b" transform="matrix(12,0,0,12,558,443.5)"/>
<use xlink:href="#f0_l" transform="matrix(12,0,0,12,567.1,443.5)"/>
<use xlink:href="#f0_l" transform="matrix(12,0,0,12,574.3,443.5)"/>
<use xlink:href="#f0_6" transform="matrix(12,0,0,12,581.5,443.5)"/>
<use xlink:href="#f0_n" transform="matrix(12,0,0,12,585.7,443.5)"/>
<use xlink:href="#f0_a" transform="matrix(12,0,0,12,595.4,443.5)"/>
<use xlink:href="#f0_k" transform="matrix(12,0,0,12,609.1,443.5)"/>
<use xlink:href="#f0_n" transform="matrix(12,0,0,12,615.1,443.5)"/>
<use xlink:href="#f0_m" transform="matrix(12,0,0,12,628.9,443.5)"/>
<use xlink:href="#f0_n" transform="matrix(12,0,0,12,633.2,443.5)"/>
<use xlink:href="#f0_h" transform="matrix(12,0,0,12,642.8,443.5)"/>
<use xlink:href="#f0_6" transform="matrix(12,0,0,12,651.4,443.5)"/>
<use xlink:href="#f0_l" transform="matrix(12,0,0,12,655.5,443.5)"/>
<use xlink:href="#f0_r" transform="matrix(12,0,0,12,662.5,443.5)"/>
<use xlink:href="#f0_4" transform="matrix(12,0,0,12,672.7,443.5)"/>
<use xlink:href="#f0_3" transform="matrix(12,0,0,12,680.4,443.5)"/>
<use xlink:href="#f0_m" transform="matrix(12,0,0,12,689.1,443.5)"/>
<use xlink:href="#f0_g" transform="matrix(12,0,0,12,165.2,471)"/>
<use xlink:href="#f0_b" transform="matrix(12,0,0,12,171.3,471)"/>
<use xlink:href="#f0_h" transform="matrix(12,0,0,12,180.4,471)"/>
<use xlink:href="#f0_g" transform="matrix(12,0,0,12,189,471)"/>
<use xlink:href="#f0_b" transform="matrix(12,0,0,12,195.1,471)"/>
<use xlink:href="#f0_l" transform="matrix(12,0,0,12,204.2,471)"/>
<use xlink:href="#f0_l" transform="matrix(12,0,0,12,211.4,471)"/>
<use xlink:href="#f0_6" transform="matrix(12,0,0,12,218.6,471)"/>
<use xlink:href="#f0_n" transform="matrix(12,0,0,12,222.8,471)"/>
<use xlink:href="#f0_a" transform="matrix(12,0,0,12,232.4,471)"/>
<use xlink:href="#f0_u" transform="matrix(12,0,0,12,242.1,471)"/>
<use xlink:href="#f0_1f" transform="matrix(12,0,0,12,137.7,498.5)"/>
<use xlink:href="#f0_19" transform="matrix(12,0,0,12,146.9,498.5)"/>
<use xlink:href="#f0_1a" transform="matrix(12,0,0,12,165.2,498.5)"/>
<use xlink:href="#f0_3" transform="matrix(12,0,0,12,174.3,498.5)"/>
<use xlink:href="#f0_1h" transform="matrix(12,0,0,12,182.9,498.5)"/>
<use xlink:href="#f0_b" transform="matrix(12,0,0,12,194.3,498.5)"/>
<use xlink:href="#f0_g" transform="matrix(12,0,0,12,203.4,498.5)"/>
<use xlink:href="#f0_a" transform="matrix(12,0,0,12,209.8,498.5)"/>
<use xlink:href="#f0_l" transform="matrix(12,0,0,12,219.4,498.5)"/>
<use xlink:href="#f0_4" transform="matrix(12,0,0,12,230.8,498.5)"/>
<use xlink:href="#f0_m" transform="matrix(12,0,0,12,238.4,498.5)"/>
<use xlink:href="#f0_3" transform="matrix(12,0,0,12,242.7,498.5)"/>
<use xlink:href="#f0_l" transform="matrix(12,0,0,12,251.4,498.5)"/>
<use xlink:href="#f0_l" transform="matrix(12,0,0,12,258.6,498.5)"/>
<use xlink:href="#f0_6" transform="matrix(12,0,0,12,265.7,498.5)"/>
<use xlink:href="#f0_1d" transform="matrix(12,0,0,12,269.9,498.5)"/>
<use xlink:href="#f0_4" transform="matrix(12,0,0,12,279.6,498.5)"/>
<use xlink:href="#f0_3" transform="matrix(12,0,0,12,287.3,498.5)"/>
<use xlink:href="#f0_r" transform="matrix(12,0,0,12,295.8,498.5)"/>
<use xlink:href="#f0_n" transform="matrix(12,0,0,12,306,498.5)"/>
<use xlink:href="#f0_a" transform="matrix(12,0,0,12,315.7,498.5)"/>
<use xlink:href="#f0_3" transform="matrix(12,0,0,12,329.5,498.5)"/>
<use xlink:href="#f0_a" transform="matrix(12,0,0,12,338.3,498.5)"/>
<use xlink:href="#f0_o" transform="matrix(12,0,0,12,347.9,498.5)"/>
<use xlink:href="#f0_o" transform="matrix(12,0,0,12,361.6,498.5)"/>
<use xlink:href="#f0_b" transform="matrix(12,0,0,12,371.3,498.5)"/>
<use xlink:href="#f0_4" transform="matrix(12,0,0,12,380.4,498.5)"/>
<use xlink:href="#f0_6" transform="matrix(12,0,0,12,388,498.5)"/>
<use xlink:href="#f0_l" transform="matrix(12,0,0,12,392.3,498.5)"/>
<use xlink:href="#f0_6" transform="matrix(12,0,0,12,399.5,498.5)"/>
<use xlink:href="#f0_n" transform="matrix(12,0,0,12,403.7,498.5)"/>
<use xlink:href="#f0_a" transform="matrix(12,0,0,12,413.3,498.5)"/>
<use xlink:href="#f0_p" transform="matrix(12,0,0,12,427.1,498.5)"/>
<use xlink:href="#f0_3" transform="matrix(12,0,0,12,441.7,498.5)"/>
<use xlink:href="#f0_q" transform="matrix(12,0,0,12,450.5,498.5)"/>
<use xlink:href="#f0_6" transform="matrix(12,0,0,12,458.8,498.5)"/>
<use xlink:href="#f0_a" transform="matrix(12,0,0,12,463.1,498.5)"/>
<use xlink:href="#f0_h" transform="matrix(12,0,0,12,472.7,498.5)"/>
<use xlink:href="#f0_l" transform="matrix(12,0,0,12,481.3,498.5)"/>
<use xlink:href="#f0_u" transform="matrix(12,0,0,12,488.4,498.5)"/>
<use xlink:href="#f0_1i" transform="matrix(12,0,0,12,137.7,526)"/>
<use xlink:href="#f0_19" transform="matrix(12,0,0,12,146.9,526)"/>
<use xlink:href="#f0_v" transform="matrix(12,0,0,12,165.2,526)"/>
<use xlink:href="#f0_n" transform="matrix(12,0,0,12,174.9,526)"/>
<use xlink:href="#f0_p" transform="matrix(12,0,0,12,184.5,526)"/>
<use xlink:href="#f0_p" transform="matrix(12,0,0,12,199.2,526)"/>
<use xlink:href="#f0_n" transform="matrix(12,0,0,12,213.8,526)"/>
<use xlink:href="#f0_a" transform="matrix(12,0,0,12,223.5,526)"/>
<use xlink:href="#f0_e" transform="matrix(12,0,0,12,237.3,526)"/>
<use xlink:href="#f0_6" transform="matrix(12,0,0,12,246.8,526)"/>
<use xlink:href="#f0_1k" transform="matrix(12,0,0,12,251.1,526)"/>
<use xlink:href="#f0_3" transform="matrix(12,0,0,12,261.9,526)"/>
<use xlink:href="#f0_m" transform="matrix(12,0,0,12,270.6,526)"/>
<use xlink:href="#f0_m" transform="matrix(12,0,0,12,274.9,526)"/>
<use xlink:href="#f0_l" transform="matrix(12,0,0,12,279.1,526)"/>
<use xlink:href="#f0_t" transform="matrix(12,0,0,12,290.4,526)"/>
<use xlink:href="#f0_g" transform="matrix(12,0,0,12,296.1,526)"/>
<use xlink:href="#f0_n" transform="matrix(12,0,0,12,302.2,526)"/>
<use xlink:href="#f0_p" transform="matrix(12,0,0,12,311.8,526)"/>
<use xlink:href="#f0_l" transform="matrix(12,0,0,12,330.6,526)"/>
<use xlink:href="#f0_6" transform="matrix(12,0,0,12,337.6,526)"/>
<use xlink:href="#f0_h" transform="matrix(12,0,0,12,341.8,526)"/>
<use xlink:href="#f0_a" transform="matrix(12,0,0,12,350.4,526)"/>
<use xlink:href="#f0_3" transform="matrix(12,0,0,12,360.2,526)"/>
<use xlink:href="#f0_m" transform="matrix(12,0,0,12,368.9,526)"/>
<use xlink:href="#f0_x" transform="matrix(12,0,0,12,373.1,526)"/>
<use xlink:href="#f0_6" transform="matrix(12,0,0,12,381.8,526)"/>
<use xlink:href="#f0_a" transform="matrix(12,0,0,12,386.1,526)"/>
<use xlink:href="#f0_t" transform="matrix(12,0,0,12,395.5,526)"/>
<use xlink:href="#f0_n" transform="matrix(12,0,0,12,400.7,526)"/>
<use xlink:href="#f0_g" transform="matrix(12,0,0,12,410.4,526)"/>
<use xlink:href="#f0_p" transform="matrix(12,0,0,12,416.8,526)"/>
<use xlink:href="#f0_3" transform="matrix(12,0,0,12,431.4,526)"/>
<use xlink:href="#f0_r" transform="matrix(12,0,0,12,440,526)"/>
<use xlink:href="#f0_n" transform="matrix(12,0,0,12,450.2,526)"/>
<use xlink:href="#f0_a" transform="matrix(12,0,0,12,459.8,526)"/>
<use xlink:href="#f0_k" transform="matrix(12,0,0,12,473.6,526)"/>
<use xlink:href="#f0_n" transform="matrix(12,0,0,12,479.5,526)"/>
<use xlink:href="#f0_o" transform="matrix(12,0,0,12,493.4,526)"/>
<use xlink:href="#f0_3" transform="matrix(12,0,0,12,503,526)"/>
<use xlink:href="#f0_k" transform="matrix(12,0,0,12,511.6,526)"/>
<use xlink:href="#f0_3" transform="matrix(12,0,0,12,517.5,526)"/>
<use xlink:href="#f0_3" transform="matrix(12,0,0,12,530.5,526)"/>
<use xlink:href="#f0_a" transform="matrix(12,0,0,12,539.2,526)"/>
<use xlink:href="#f0_3" transform="matrix(12,0,0,12,548.8,526)"/>
<use xlink:href="#f0_m" transform="matrix(12,0,0,12,557.5,526)"/>
<use xlink:href="#f0_11" transform="matrix(12,0,0,12,561.8,526)"/>
<use xlink:href="#f0_l" transform="matrix(12,0,0,12,569.9,526)"/>
<use xlink:href="#f0_6" transform="matrix(12,0,0,12,577.1,526)"/>
<use xlink:href="#f0_l" transform="matrix(12,0,0,12,581.3,526)"/>
<use xlink:href="#f0_u" transform="matrix(12,0,0,12,588.5,526)"/>
<use xlink:href="#f0_1l" transform="matrix(12,0,0,12,137.7,581)"/>
<use xlink:href="#f0_n" transform="matrix(12,0,0,12,145.9,581)"/>
<use xlink:href="#f0_g" transform="matrix(12,0,0,12,155.5,581)"/>
<use xlink:href="#f0_l" transform="matrix(12,0,0,12,166.1,581)"/>
<use xlink:href="#f0_b" transform="matrix(12,0,0,12,173.2,581)"/>
<use xlink:href="#f0_l" transform="matrix(12,0,0,12,182.4,581)"/>
<use xlink:href="#f0_l" transform="matrix(12,0,0,12,189.4,581)"/>
<use xlink:href="#f0_6" transform="matrix(12,0,0,12,196.6,581)"/>
<use xlink:href="#f0_n" transform="matrix(12,0,0,12,200.8,581)"/>
<use xlink:href="#f0_a" transform="matrix(12,0,0,12,210.4,581)"/>
<use xlink:href="#f0_13" transform="matrix(12,0,0,12,224.2,581)"/>
<use xlink:href="#f0_6" transform="matrix(12,0,0,12,237.3,581)"/>
<use xlink:href="#f0_k" transform="matrix(12,0,0,12,241.6,581)"/>
<use xlink:href="#f0_5" transform="matrix(12,0,0,12,247.7,581)"/>
<use xlink:href="#f0_k" transform="matrix(12,0,0,12,261.4,581)"/>
<use xlink:href="#f0_5" transform="matrix(12,0,0,12,267.5,581)"/>
<use xlink:href="#f0_b" transform="matrix(12,0,0,12,277.2,581)"/>
<use xlink:href="#f0_1m" transform="matrix(12,0,0,12,290.4,581)"/>
<use xlink:href="#f0_4" transform="matrix(12,0,0,12,294.1,581)"/>
<use xlink:href="#f0_5" transform="matrix(12,0,0,12,301.9,581)"/>
<use xlink:href="#f0_3" transform="matrix(12,0,0,12,311.5,581)"/>
<use xlink:href="#f0_m" transform="matrix(12,0,0,12,320.2,581)"/>
<use xlink:href="#f0_m" transform="matrix(12,0,0,12,324.5,581)"/>
<use xlink:href="#f0_b" transform="matrix(12,0,0,12,328.7,581)"/>
<use xlink:href="#f0_a" transform="matrix(12,0,0,12,337.9,581)"/>
<use xlink:href="#f0_h" transform="matrix(12,0,0,12,347.5,581)"/>
<use xlink:href="#f0_b" transform="matrix(12,0,0,12,355.9,581)"/>
<use xlink:href="#f0_12" transform="matrix(12,0,0,12,365,581)"/>
<use xlink:href="#f0_6" transform="matrix(12,0,0,12,373.7,581)"/>
<use xlink:href="#f0_4" transform="matrix(12,0,0,12,377.8,581)"/>
<use xlink:href="#f0_n" transform="matrix(12,0,0,12,385.5,581)"/>
<use xlink:href="#f0_a" transform="matrix(12,0,0,12,395.1,581)"/>
<use xlink:href="#f0_10" transform="matrix(12,0,0,12,409,581)"/>
<use xlink:href="#f0_b" transform="matrix(12,0,0,12,418.5,581)"/>
<use xlink:href="#f0_m" transform="matrix(12,0,0,12,427.6,581)"/>
<use xlink:href="#f0_n" transform="matrix(12,0,0,12,431.9,581)"/>
<use xlink:href="#f0_13" transform="matrix(12,0,0,12,441.5,581)"/>
<use xlink:href="#f0_x" transform="matrix(12,0,0,12,452.9,581)"/>
<use xlink:href="#f0_11" transform="matrix(12,0,0,12,461.6,581)"/>
<use xlink:href="#f0_n" transform="matrix(12,0,0,12,469.7,581)"/>
<use xlink:href="#f0_j" transform="matrix(12,0,0,12,479.4,581)"/>
<use xlink:href="#f0_4" transform="matrix(12,0,0,12,493.2,581)"/>
<use xlink:href="#f0_3" transform="matrix(12,0,0,12,500.9,581)"/>
<use xlink:href="#f0_a" transform="matrix(12,0,0,12,509.6,581)"/>
<use xlink:href="#f0_l" transform="matrix(12,0,0,12,523.3,581)"/>
<use xlink:href="#f0_q" transform="matrix(12,0,0,12,530.5,581)"/>
<use xlink:href="#f0_6" transform="matrix(12,0,0,12,538.8,581)"/>
<use xlink:href="#f0_e" transform="matrix(12,0,0,12,543,581)"/>
<use xlink:href="#f0_6" transform="matrix(12,0,0,12,556.9,581)"/>
<use xlink:href="#f0_k" transform="matrix(12,0,0,12,561,581)"/>
<use xlink:href="#f0_13" transform="matrix(12,0,0,12,571.3,581)"/>
<use xlink:href="#f0_6" transform="matrix(12,0,0,12,584.4,581)"/>
<use xlink:href="#f0_k" transform="matrix(12,0,0,12,588.6,581)"/>
<use xlink:href="#f0_5" transform="matrix(12,0,0,12,594.7,581)"/>
<use xlink:href="#f0_n" transform="matrix(12,0,0,12,604.4,581)"/>
<use xlink:href="#f0_j" transform="matrix(12,0,0,12,614,581)"/>
<use xlink:href="#f0_k" transform="matrix(12,0,0,12,623.6,581)"/>
<use xlink:href="#f0_m" transform="matrix(12,0,0,12,634,581)"/>
<use xlink:href="#f0_n" transform="matrix(12,0,0,12,638.1,581)"/>
<use xlink:href="#f0_l" transform="matrix(12,0,0,12,647.7,581)"/>
<use xlink:href="#f0_l" transform="matrix(12,0,0,12,654.9,581)"/>
<use xlink:href="#f0_n" transform="matrix(12,0,0,12,666.2,581)"/>
<use xlink:href="#f0_t" transform="matrix(12,0,0,12,675.8,581)"/>
<use xlink:href="#f0_g" transform="matrix(12,0,0,12,685.6,581)"/>
<use xlink:href="#f0_b" transform="matrix(12,0,0,12,691.7,581)"/>
<use xlink:href="#f0_3" transform="matrix(12,0,0,12,700.8,581)"/>
<use xlink:href="#f0_o" transform="matrix(12,0,0,12,709.5,581)"/>
<use xlink:href="#f0_6" transform="matrix(12,0,0,12,719.1,581)"/>
<use xlink:href="#f0_a" transform="matrix(12,0,0,12,723.4,581)"/>
<use xlink:href="#f0_h" transform="matrix(12,0,0,12,733,581)"/>
<use xlink:href="#f0_4" transform="matrix(12,0,0,12,137.7,608.5)"/>
<use xlink:href="#f0_n" transform="matrix(12,0,0,12,145.3,608.5)"/>
<use xlink:href="#f0_a" transform="matrix(12,0,0,12,154.9,608.5)"/>
<use xlink:href="#f0_r" transform="matrix(12,0,0,12,164.4,608.5)"/>
<use xlink:href="#f0_a" transform="matrix(12,0,0,12,174.6,608.5)"/>
<use xlink:href="#f0_j" transform="matrix(12,0,0,12,184.2,608.5)"/>
<use xlink:href="#f0_3" transform="matrix(12,0,0,12,193.9,608.5)"/>
<use xlink:href="#f0_m" transform="matrix(12,0,0,12,202.6,608.5)"/>
<use xlink:href="#f0_m" transform="matrix(12,0,0,12,206.8,608.5)"/>
<use xlink:href="#f0_11" transform="matrix(12,0,0,12,211.1,608.5)"/>
<use xlink:href="#f0_10" transform="matrix(12,0,0,12,223.5,608.5)"/>
<use xlink:href="#f0_j" transform="matrix(12,0,0,12,233.1,608.5)"/>
<use xlink:href="#f0_k" transform="matrix(12,0,0,12,242.7,608.5)"/>
<use xlink:href="#f0_6" transform="matrix(12,0,0,12,253.1,608.5)"/>
<use xlink:href="#f0_k" transform="matrix(12,0,0,12,257.2,608.5)"/>
<use xlink:href="#f0_13" transform="matrix(12,0,0,12,267.6,608.5)"/>
<use xlink:href="#f0_6" transform="matrix(12,0,0,12,280.5,608.5)"/>
<use xlink:href="#f0_m" transform="matrix(12,0,0,12,284.8,608.5)"/>
<use xlink:href="#f0_m" transform="matrix(12,0,0,12,288.9,608.5)"/>
<use xlink:href="#f0_5" transform="matrix(12,0,0,12,297.3,608.5)"/>
<use xlink:href="#f0_b" transform="matrix(12,0,0,12,306.9,608.5)"/>
<use xlink:href="#f0_m" transform="matrix(12,0,0,12,315.9,608.5)"/>
<use xlink:href="#f0_e" transform="matrix(12,0,0,12,320.2,608.5)"/>
<use xlink:href="#f0_11" transform="matrix(12,0,0,12,333.9,608.5)"/>
<use xlink:href="#f0_n" transform="matrix(12,0,0,12,342.1,608.5)"/>
<use xlink:href="#f0_j" transform="matrix(12,0,0,12,351.7,608.5)"/>
<use xlink:href="#f0_k" transform="matrix(12,0,0,12,365.6,608.5)"/>
<use xlink:href="#f0_n" transform="matrix(12,0,0,12,371.5,608.5)"/>
<use xlink:href="#f0_j" transform="matrix(12,0,0,12,385.3,608.5)"/>
<use xlink:href="#f0_a" transform="matrix(12,0,0,12,394.9,608.5)"/>
<use xlink:href="#f0_o" transform="matrix(12,0,0,12,404.5,608.5)"/>
<use xlink:href="#f0_b" transform="matrix(12,0,0,12,414.1,608.5)"/>
<use xlink:href="#f0_g" transform="matrix(12,0,0,12,423.3,608.5)"/>
<use xlink:href="#f0_l" transform="matrix(12,0,0,12,429.4,608.5)"/>
<use xlink:href="#f0_k" transform="matrix(12,0,0,12,436.3,608.5)"/>
<use xlink:href="#f0_3" transform="matrix(12,0,0,12,442.2,608.5)"/>
<use xlink:href="#f0_a" transform="matrix(12,0,0,12,450.9,608.5)"/>
<use xlink:href="#f0_o" transform="matrix(12,0,0,12,460.6,608.5)"/>
<use xlink:href="#f0_k" transform="matrix(12,0,0,12,474.4,608.5)"/>
<use xlink:href="#f0_5" transform="matrix(12,0,0,12,480.5,608.5)"/>
<use xlink:href="#f0_b" transform="matrix(12,0,0,12,490.2,608.5)"/>
<use xlink:href="#f0_k" transform="matrix(12,0,0,12,503.4,608.5)"/>
<use xlink:href="#f0_n" transform="matrix(12,0,0,12,509.4,608.5)"/>
<use xlink:href="#f0_e" transform="matrix(12,0,0,12,519,608.5)"/>
<use xlink:href="#f0_6" transform="matrix(12,0,0,12,528.6,608.5)"/>
<use xlink:href="#f0_4" transform="matrix(12,0,0,12,532.9,608.5)"/>
<use xlink:href="#f0_o" transform="matrix(12,0,0,12,544.8,608.5)"/>
<use xlink:href="#f0_b" transform="matrix(12,0,0,12,554.4,608.5)"/>
<use xlink:href="#f0_b" transform="matrix(12,0,0,12,563.4,608.5)"/>
<use xlink:href="#f0_e" transform="matrix(12,0,0,12,572.6,608.5)"/>
<use xlink:href="#f0_b" transform="matrix(12,0,0,12,582.2,608.5)"/>
<use xlink:href="#f0_g" transform="matrix(12,0,0,12,591.4,608.5)"/>
<use xlink:href="#f0_t" transform="matrix(12,0,0,12,601.9,608.5)"/>
<use xlink:href="#f0_n" transform="matrix(12,0,0,12,607.1,608.5)"/>
<use xlink:href="#f0_g" transform="matrix(12,0,0,12,616.7,608.5)"/>
<use xlink:href="#f0_g" transform="matrix(12,0,0,12,627.2,608.5)"/>
<use xlink:href="#f0_b" transform="matrix(12,0,0,12,633.3,608.5)"/>
<use xlink:href="#f0_3" transform="matrix(12,0,0,12,642.5,608.5)"/>
<use xlink:href="#f0_m" transform="matrix(12,0,0,12,651.2,608.5)"/>
<use xlink:href="#f0_1n" transform="matrix(12,0,0,12,655.4,608.5)"/>
<use xlink:href="#f0_m" transform="matrix(12,0,0,12,661.1,608.5)"/>
<use xlink:href="#f0_6" transform="matrix(12,0,0,12,665.3,608.5)"/>
<use xlink:href="#f0_t" transform="matrix(12,0,0,12,669.4,608.5)"/>
<use xlink:href="#f0_b" transform="matrix(12,0,0,12,674.6,608.5)"/>
<use xlink:href="#f0_3" transform="matrix(12,0,0,12,137.7,636)"/>
<use xlink:href="#f0_e" transform="matrix(12,0,0,12,146.4,636)"/>
<use xlink:href="#f0_e" transform="matrix(12,0,0,12,156,636)"/>
<use xlink:href="#f0_m" transform="matrix(12,0,0,12,165.6,636)"/>
<use xlink:href="#f0_6" transform="matrix(12,0,0,12,169.9,636)"/>
<use xlink:href="#f0_4" transform="matrix(12,0,0,12,174.1,636)"/>
<use xlink:href="#f0_3" transform="matrix(12,0,0,12,181.8,636)"/>
<use xlink:href="#f0_r" transform="matrix(12,0,0,12,190.3,636)"/>
<use xlink:href="#f0_n" transform="matrix(12,0,0,12,200.5,636)"/>
<use xlink:href="#f0_a" transform="matrix(12,0,0,12,210.2,636)"/>
<use xlink:href="#f0_l" transform="matrix(12,0,0,12,219.8,636)"/>
<use xlink:href="#f0_u" transform="matrix(12,0,0,12,227,636)"/>
</g>
<image clip-path="url(#c1_1)" preserveAspectRatio="none" x="418" y="643" width="73" height="32" xlink:href="img/1.jpg"/>
</svg>