<?xml version="1.0" encoding="UTF-8" standalone="no"?>
<!DOCTYPE svg PUBLIC "-//W3C//DTD SVG 1.1//EN"
"http://www.w3.org/Graphics/SVG/1.1/DTD/svg11.dtd">
<svg viewBox="0 0 909 1286" version="1.1" xmlns="http://www.w3.org/2000/svg" xmlns:xlink="http://www.w3.org/1999/xlink">
<defs>
<clipPath id="c0_1"><path d="M418,538.5V506.6h73.3v31.9Z"/></clipPath>
<path d="M189,-4c0,0,-18,0,-30,2c0,0,-12,2,-19,3c0,0,-7,3,-9,8c0,0,-3,4,-3,10V907c0,0,0,31,16,45c0,0,17,13,37,13h78c0,0,24,0,41,-4c0,0,18,-5,32,-15c0,0,13,-9,22,-24c0,0,9,-15,16,-35L649,188h4L944,884c0,0,8,23,18,39c0,0,9,15,21,25c0,0,11,9,26,13c0,0,14,4,32,4h82c0,0,11,0,21,-3c0,0,10,-4,17,-11c0,0,7,-7,12,-18c0,0,4,-10,4,-26V19c0,0,0,-6,-3,-10c0,0,-3,-5,-10,-8c0,0,-8,-1,-19,-3c0,0,-12,-2,-30,-2c0,0,-18,0,-30,2c0,0,-12,2,-19,3c0,0,-7,3,-10,8c0,0,-3,4,-3,10V860h-2L707,15c0,0,-2,-5,-6,-9c0,0,-4,-3,-12,-6c0,0,-8,-2,-18,-3c0,0,-11,-1,-26,-1c0,0,-16,0,-27,2c0,0,-11,1,-19,3c0,0,-7,2,-11,6c0,0,-4,4,-6,8L253,860V19c0,0,0,-6,-3,-10c0,0,-3,-5,-11,-8c0,0,-7,-1,-19,-3c0,0,-12,-2,-31,-2Z"
id="f0_1x"
transform="scale(0.001,-0.001)"/>

<path d="M321,82c0,0,48,0,90,25c0,0,41,24,87,75V325H392c0,0,-50,0,-88,-9c0,0,-37,-9,-62,-25c0,0,-24,-17,-36,-41c0,0,-11,-23,-11,-54c0,0,0,-52,33,-83c0,0,33,-31,93,-31ZM301,-13c0,0,-53,0,-96,13c0,0,-43,14,-73,40c0,0,-30,26,-47,64c0,0,-17,38,-17,87c0,0,0,56,24,98c0,0,23,42,66,69c0,0,43,28,106,42c0,0,63,14,141,14h93v52c0,0,0,39,-9,69c0,0,-8,30,-26,50c0,0,-18,20,-47,30c0,0,-30,10,-72,10c0,0,-46,0,-82,-11c0,0,-36,-11,-63,-24c0,0,-27,-13,-46,-24c0,0,-18,-11,-27,-11c0,0,-6,0,-10,3c0,0,-5,3,-8,9c0,0,-3,6,-5,16c0,0,-1,9,-1,20c0,0,0,19,2,30c0,0,3,11,13,20c0,0,10,10,35,23c0,0,24,13,56,24c0,0,32,10,70,17c0,0,38,8,77,8c0,0,73,0,123,-17c0,0,51,-16,82,-48c0,0,32,-32,46,-79c0,0,14,-47,14,-110V18c0,0,0,-9,-6,-14c0,0,-6,-4,-16,-6c0,0,-11,-2,-31,-2c0,0,-19,0,-31,2c0,0,-12,2,-17,6c0,0,-5,5,-5,13V85c0,0,-44,-47,-98,-73c0,0,-54,-25,-115,-25Z"
id="f0_77"
transform="scale(0.001,-0.001)"/>

<path d="M367,-13c0,0,-73,0,-129,23c0,0,-56,24,-93,70c0,0,-38,46,-58,112c0,0,-20,67,-20,154c0,0,0,99,25,171c0,0,24,71,66,116c0,0,42,46,99,68c0,0,58,22,124,22c0,0,32,0,62,-6c0,0,31,-6,56,-16c0,0,25,-10,45,-22c0,0,20,-13,29,-22c0,0,9,-9,12,-14c0,0,3,-5,6,-13c0,0,2,-7,3,-16c0,0,0,-9,0,-22c0,0,0,-29,-6,-41c0,0,-7,-11,-17,-11c0,0,-11,0,-25,12c0,0,-15,12,-37,27c0,0,-23,15,-55,28c0,0,-31,12,-75,12c0,0,-88,0,-136,-68c0,0,-47,-68,-47,-198c0,0,0,-65,12,-114c0,0,12,-49,36,-81c0,0,24,-33,59,-49c0,0,35,-16,79,-16c0,0,43,0,75,13c0,0,32,14,56,30c0,0,23,16,39,29c0,0,16,13,25,13c0,0,5,0,9,-3c0,0,4,-3,7,-10c0,0,2,-7,3,-18c0,0,1,-11,1,-26c0,0,0,-12,0,-22c0,0,-1,-9,-3,-15c0,0,-2,-7,-4,-12c0,0,-3,-4,-12,-14c0,0,-10,-9,-32,-23c0,0,-22,-14,-50,-24C496,11,468,0,435,-6c0,0,-33,-7,-68,-7Z"
id="f0_7l"
transform="scale(0.001,-0.001)"/>

<path d="M176,-4c0,0,-18,0,-30,2c0,0,-12,1,-19,3c0,0,-7,3,-10,7c0,0,-3,4,-3,10v997c0,0,0,6,3,11c0,0,3,4,10,7c0,0,7,3,19,5c0,0,12,1,30,1c0,0,18,0,30,-1c0,0,12,-2,19,-5c0,0,7,-3,9,-7c0,0,3,-5,3,-10V614c0,0,53,56,107,83c0,0,54,28,108,28c0,0,67,0,113,-23c0,0,46,-23,74,-61c0,0,29,-38,41,-89c0,0,12,-52,12,-124V18c0,0,0,-6,-3,-10c0,0,-3,-4,-9,-7c0,0,-7,-2,-19,-3c0,0,-12,-2,-30,-2c0,0,-19,0,-30,2c0,0,-12,1,-19,3c0,0,-7,3,-10,7c0,0,-3,4,-3,10V412c0,0,0,58,-9,93c0,0,-9,35,-26,61c0,0,-17,25,-44,38c0,0,-27,14,-63,14c0,0,-46,0,-93,-33c0,0,-46,-33,-97,-96V18c0,0,0,-6,-3,-10c0,0,-2,-4,-9,-7c0,0,-7,-2,-19,-3c0,0,-12,-2,-30,-2Z"
id="f0_9n"
transform="scale(0.001,-0.001)"/>

<path d="M176,-4c0,0,-18,0,-30,2c0,0,-12,1,-19,3c0,0,-7,3,-10,7c0,0,-3,4,-3,10V690c0,0,0,5,3,9c0,0,3,5,10,8c0,0,7,3,19,4c0,0,12,2,30,2c0,0,18,0,30,-2c0,0,12,-1,19,-4c0,0,7,-3,9,-8c0,0,3,-4,3,-9V18c0,0,0,-6,-3,-10c0,0,-2,-4,-9,-7c0,0,-7,-2,-19,-3c0,0,-12,-2,-30,-2Zm-1,846c0,0,-43,0,-59,15c0,0,-16,15,-16,58c0,0,0,43,16,59c0,0,17,16,61,16c0,0,43,0,59,-16c0,0,16,-15,16,-58c0,0,0,-43,-16,-58c0,0,-17,-16,-61,-16Z"
id="f0_9q"
transform="scale(0.001,-0.001)"/>

<path d="M176,-4c0,0,-18,0,-30,2c0,0,-12,1,-19,3c0,0,-7,3,-10,7c0,0,-3,4,-3,10V690c0,0,0,6,3,10c0,0,2,4,9,7c0,0,6,4,17,5c0,0,10,1,27,1c0,0,17,0,28,-1c0,0,10,-1,16,-5c0,0,6,-3,9,-7c0,0,3,-4,3,-10V601c0,0,56,64,112,94c0,0,57,30,114,30c0,0,67,0,113,-23c0,0,46,-23,74,-61c0,0,29,-38,41,-89c0,0,12,-52,12,-123V18c0,0,0,-6,-3,-10c0,0,-3,-4,-9,-7c0,0,-7,-2,-19,-3c0,0,-12,-2,-30,-2c0,0,-19,0,-30,2c0,0,-12,1,-19,3c0,0,-7,3,-10,7c0,0,-3,4,-3,10V412c0,0,0,58,-9,93c0,0,-9,35,-26,61c0,0,-17,25,-44,38c0,0,-27,14,-63,14c0,0,-46,0,-93,-33c0,0,-46,-33,-97,-96V18c0,0,0,-6,-3,-10c0,0,-2,-4,-9,-7c0,0,-7,-2,-19,-3c0,0,-12,-2,-30,-2Z"
id="f0_af"
transform="scale(0.001,-0.001)"/>

<path d="M564,420c0,0,2,98,-43,153c0,0,-46,56,-134,56c0,0,-46,0,-80,-18c0,0,-35,-17,-58,-45c0,0,-23,-29,-36,-67c0,0,-12,-37,-14,-79ZM405,-13c0,0,-83,0,-145,22c0,0,-62,24,-105,69c0,0,-42,46,-64,114c0,0,-22,69,-22,160c0,0,0,87,23,156c0,0,22,69,64,117c0,0,43,48,102,74c0,0,60,26,134,26c0,0,79,0,135,-26c0,0,55,-25,91,-68c0,0,36,-43,53,-101c0,0,16,-58,16,-123V384c0,0,0,-29,-14,-41c0,0,-15,-13,-33,-13H199c0,0,0,-56,11,-100c0,0,12,-45,38,-77c0,0,26,-33,68,-50c0,0,41,-17,102,-17c0,0,48,0,85,8c0,0,37,8,65,17c0,0,27,10,44,18c0,0,18,8,27,8c0,0,5,0,9,-3c0,0,4,-2,7,-8c0,0,2,-5,3,-14c0,0,1,-9,1,-23c0,0,0,-9,-1,-16c0,0,0,-8,-2,-13c0,0,-1,-6,-3,-10c0,0,-3,-5,-7,-9c0,0,-4,-4,-24,-13c0,0,-20,-10,-53,-18c0,0,-32,-9,-74,-16c0,0,-42,-7,-90,-7Z"
id="f0_7z"
transform="scale(0.001,-0.001)"/>

<path d="M388,108c0,0,93,0,156,23c0,0,64,23,106,71c0,0,43,47,64,119c0,0,21,72,21,171c0,0,0,78,-19,145c0,0,-20,68,-61,117c0,0,-41,49,-105,77c0,0,-63,28,-163,28H256V108ZM176,0c0,0,-17,0,-33,12c0,0,-15,11,-15,40V913c0,0,0,29,15,41c0,0,16,11,33,11H394c0,0,126,0,212,-32c0,0,87,-33,145,-94c0,0,59,-60,89,-147c0,0,30,-86,30,-195c0,0,0,-126,-32,-219c0,0,-32,-94,-93,-155c0,0,-62,-62,-151,-92C594,31,504,0,380,0Z"
id="f0_p"
transform="scale(0.001,-0.001)"/>

<path d="M429,92c0,0,47,0,80,22c0,0,33,23,54,60c0,0,20,38,30,84c0,0,10,46,10,93c0,0,0,52,-8,100c0,0,-8,48,-27,86c0,0,-19,37,-51,60c0,0,-32,22,-80,22c0,0,-24,0,-47,-7c0,0,-23,-7,-47,-23c0,0,-24,-15,-50,-40c0,0,-26,-25,-56,-62V220c0,0,51,-62,97,-95c0,0,45,-33,95,-33ZM176,-271c0,0,-18,0,-30,2c0,0,-12,1,-19,4c0,0,-7,3,-10,8c0,0,-3,4,-3,10V690c0,0,0,6,3,10c0,0,2,5,9,8c0,0,6,3,17,4c0,0,10,1,25,1c0,0,16,0,26,-1c0,0,10,-1,17,-4c0,0,6,-3,9,-7c0,0,3,-4,3,-11V601c0,0,30,31,59,54c0,0,28,23,57,39c0,0,28,15,59,23c0,0,30,8,63,8c0,0,74,0,125,-29c0,0,52,-28,84,-77c0,0,32,-50,47,-115c0,0,15,-65,15,-139c0,0,0,-88,-19,-158c0,0,-19,-70,-56,-119c0,0,-37,-49,-91,-75c0,0,-55,-26,-125,-26c0,0,-30,0,-55,6c0,0,-25,6,-50,18c0,0,-24,13,-48,32c0,0,-24,19,-51,46V-247c0,0,0,-6,-3,-10c0,0,-2,-5,-9,-8c0,0,-7,-3,-19,-4c0,0,-12,-2,-30,-2Z"
id="f0_ay"
transform="scale(0.001,-0.001)"/>

<path d="M176,0c0,0,-17,0,-33,12c0,0,-15,11,-15,40V946c0,0,0,6,3,11c0,0,3,4,11,7c0,0,7,2,20,4c0,0,12,2,30,2c0,0,19,0,31,-2c0,0,13,-2,20,-4c0,0,7,-3,10,-7c0,0,3,-5,3,-11V111H603c0,0,6,0,11,-3c0,0,5,-3,8,-10c0,0,4,-6,5,-16c0,0,2,-11,2,-26c0,0,0,-15,-2,-25c0,0,-1,-10,-5,-17c0,0,-3,-7,-8,-11c0,0,-5,-3,-11,-3Z"
id="f0_1r"
transform="scale(0.001,-0.001)"/>

<path d="M176,-4c0,0,-18,0,-30,2c0,0,-12,1,-19,3c0,0,-7,3,-10,7c0,0,-3,4,-3,10V690c0,0,0,6,3,10c0,0,2,4,9,7c0,0,6,4,17,5c0,0,10,1,27,1c0,0,17,0,28,-1c0,0,10,-1,16,-5c0,0,6,-3,9,-7c0,0,3,-4,3,-10V592c0,0,27,41,51,66c0,0,25,26,46,41c0,0,22,14,43,20c0,0,21,6,43,6c0,0,10,0,22,-2c0,0,12,-1,26,-4c0,0,13,-3,24,-6c0,0,11,-4,15,-8c0,0,5,-4,6,-7c0,0,2,-3,3,-9c0,0,1,-5,1,-15c0,0,0,-10,0,-27c0,0,0,-16,0,-28c0,0,-1,-11,-3,-17c0,0,-2,-6,-6,-10c0,0,-3,-3,-9,-3c0,0,-6,0,-15,3c0,0,-8,4,-19,7c0,0,-11,3,-24,6c0,0,-14,3,-29,3c0,0,-19,0,-37,-7c0,0,-18,-8,-37,-25c0,0,-20,-18,-42,-46c0,0,-21,-29,-48,-70V18c0,0,0,-6,-3,-10c0,0,-2,-4,-9,-7c0,0,-7,-2,-19,-3c0,0,-12,-2,-30,-2Z"
id="f0_b1"
transform="scale(0.001,-0.001)"/>

<path d="M346,-177c0,0,56,0,94,11c0,0,37,11,60,28c0,0,24,18,34,41c0,0,10,23,10,49c0,0,0,43,-36,65c0,0,-35,23,-95,25L239,48c0,0,-24,-19,-39,-35c0,0,-15,-16,-24,-31c0,0,-9,-16,-12,-30c0,0,-4,-15,-4,-31c0,0,0,-48,49,-73c0,0,50,-25,137,-25Zm-6,512c0,0,36,0,63,12c0,0,27,12,44,32c0,0,18,21,26,48c0,0,9,27,9,56c0,0,0,69,-38,107c0,0,-37,39,-107,39c0,0,-35,0,-62,-12c0,0,-26,-12,-44,-33c0,0,-17,-21,-26,-48c0,0,-8,-28,-8,-58c0,0,0,-66,37,-104c0,0,38,-39,106,-39Zm0,-606c0,0,-81,0,-138,14c0,0,-57,14,-94,38c0,0,-36,24,-52,57c0,0,-17,33,-17,72c0,0,0,24,6,47c0,0,6,24,18,43c0,0,13,21,31,40c0,0,18,19,42,38c0,0,-36,19,-54,47c0,0,-17,28,-17,61c0,0,0,45,18,81c0,0,19,36,46,64c0,0,-23,28,-36,62c0,0,-14,35,-14,84c0,0,0,58,20,104c0,0,19,45,53,77c0,0,35,31,83,48c0,0,48,17,105,17c0,0,30,0,57,-4c0,0,26,-3,49,-9H649c0,0,13,0,19,-12c0,0,7,-13,7,-38c0,0,0,-26,-7,-37c0,0,-7,-12,-19,-12H553c0,0,26,-27,37,-60c0,0,10,-32,10,-68c0,0,0,-58,-18,-103c0,0,-19,-45,-54,-76c0,0,-34,-31,-82,-47c0,0,-48,-16,-106,-16c0,0,-41,0,-78,10c0,0,-37,11,-57,28c0,0,-14,-14,-22,-31c0,0,-9,-17,-9,-39c0,0,0,-27,24,-44c0,0,25,-17,65,-18l175,-8c0,0,50,-1,92,-14c0,0,41,-12,72,-35c0,0,31,-22,48,-55c0,0,17,-34,17,-76c0,0,0,-47,-20,-88c0,0,-19,-42,-59,-74c0,0,-40,-31,-102,-50c0,0,-61,-18,-146,-18Z"
id="f0_9d"
transform="scale(0.001,-0.001)"/>

<path d="M189,-4c0,0,-18,0,-30,2c0,0,-12,2,-18,3c0,0,-7,3,-10,8c0,0,-3,5,-3,10V910c0,0,0,30,17,42c0,0,16,13,35,13h62c0,0,21,0,36,-4c0,0,14,-3,26,-12c0,0,11,-9,22,-24c0,0,11,-15,24,-38L584,463c0,0,21,-39,42,-76c0,0,20,-37,38,-73c0,0,19,-35,37,-70c0,0,19,-35,36,-70h1c0,0,-1,59,-2,123c0,0,0,64,0,123V944c0,0,0,5,3,10c0,0,3,4,10,8c0,0,7,3,19,5c0,0,11,1,30,1c0,0,16,0,28,-1c0,0,12,-2,19,-5c0,0,7,-4,10,-8c0,0,3,-5,3,-10V53c0,0,0,-15,-5,-25c0,0,-5,-11,-13,-17c0,0,-8,-7,-18,-10c0,0,-9,-2,-19,-2H762c0,0,-19,0,-34,3c0,0,-14,4,-27,15c0,0,-14,11,-27,29c0,0,-13,19,-28,48L342,643c0,0,-24,42,-49,89c0,0,-24,47,-45,91h-1c0,0,1,-54,2,-110c0,0,1,-56,1,-111V19c0,0,0,-5,-3,-10c0,0,-3,-5,-10,-8c0,0,-7,-1,-19,-3c0,0,-12,-2,-29,-2Z"
id="f0_1y"
transform="scale(0.001,-0.001)"/>

<path d="M351,-13c0,0,-67,0,-113,22c0,0,-46,22,-75,60c0,0,-28,39,-40,90c0,0,-13,51,-13,124V690c0,0,0,6,3,10c0,0,3,4,10,7c0,0,8,4,20,5c0,0,11,1,29,1c0,0,18,0,30,-1c0,0,12,-1,19,-5c0,0,7,-3,10,-7c0,0,3,-4,3,-10V299c0,0,0,-59,9,-94c0,0,8,-36,26,-61c0,0,18,-24,44,-38c0,0,27,-14,63,-14c0,0,46,0,92,33c0,0,46,32,98,95V690c0,0,0,6,2,10c0,0,3,4,10,7c0,0,8,4,19,5c0,0,12,1,30,1c0,0,18,0,30,-1c0,0,12,-1,19,-5c0,0,7,-3,10,-7c0,0,3,-4,3,-10V18c0,0,0,-6,-2,-10c0,0,-3,-4,-10,-7c0,0,-6,-2,-17,-3c0,0,-11,-2,-27,-2c0,0,-17,0,-28,2c0,0,-10,1,-17,3c0,0,-6,3,-8,7c0,0,-3,4,-3,10v89c0,0,-57,-63,-113,-92c0,0,-56,-28,-113,-28Z"
id="f0_c6"
transform="scale(0.001,-0.001)"/>

<path d="M339,-13c0,0,-52,0,-90,13c0,0,-37,14,-61,42c0,0,-24,28,-34,71c0,0,-11,43,-11,101V607H49c0,0,-11,0,-18,12c0,0,-7,12,-7,39c0,0,0,14,2,24c0,0,2,10,5,16c0,0,3,7,8,9c0,0,5,3,11,3h93V870c0,0,0,5,2,9c0,0,3,5,10,8c0,0,7,4,19,5c0,0,12,2,30,2c0,0,19,0,31,-2c0,0,11,-1,18,-5c0,0,7,-3,10,-8c0,0,3,-4,3,-9V710H438c0,0,6,0,10,-3c0,0,5,-2,8,-9c0,0,4,-6,5,-16c0,0,1,-10,1,-24c0,0,0,-27,-6,-39c0,0,-7,-12,-18,-12H266V232c0,0,0,-69,20,-105c0,0,21,-35,74,-35c0,0,17,0,30,3c0,0,14,4,24,7c0,0,10,4,18,7c0,0,7,4,13,4c0,0,4,0,7,-2c0,0,4,-2,6,-7c0,0,2,-5,3,-14c0,0,1,-9,1,-23c0,0,0,-22,-2,-34c0,0,-3,-13,-9,-19c0,0,-6,-6,-18,-11c0,0,-12,-4,-28,-8c0,0,-15,-3,-32,-5c0,0,-17,-3,-34,-3Z"
id="f0_bf"
transform="scale(0.001,-0.001)"/>

<path d="M272,-13c0,0,-35,0,-68,6c0,0,-32,6,-58,13c0,0,-26,9,-44,18c0,0,-17,10,-26,17c0,0,-8,8,-12,21c0,0,-3,14,-3,37c0,0,0,14,1,24c0,0,2,9,4,15c0,0,2,6,6,9c0,0,4,3,10,3c0,0,8,0,24,-11c0,0,16,-10,39,-22c0,0,24,-12,56,-22c0,0,32,-10,74,-10c0,0,31,0,56,7c0,0,26,6,44,19c0,0,19,14,29,34c0,0,10,20,10,47c0,0,0,29,-14,48c0,0,-15,19,-39,34c0,0,-24,15,-53,27c0,0,-30,11,-62,24c0,0,-32,13,-62,29c0,0,-30,16,-54,39c0,0,-24,23,-38,55c0,0,-15,32,-15,77c0,0,0,40,16,76c0,0,15,36,45,63c0,0,31,28,77,44c0,0,46,17,107,17c0,0,27,0,54,-5c0,0,26,-5,48,-11c0,0,22,-7,37,-15c0,0,15,-8,23,-14c0,0,8,-6,11,-11c0,0,2,-4,3,-10c0,0,1,-5,2,-14c0,0,2,-8,2,-20c0,0,0,-12,-2,-22c0,0,-1,-9,-3,-15c0,0,-3,-6,-7,-8c0,0,-3,-3,-8,-3c0,0,-7,0,-19,8c0,0,-13,8,-33,18c0,0,-20,9,-47,17c0,0,-28,9,-63,9c0,0,-31,0,-55,-7c0,0,-24,-7,-39,-20c0,0,-15,-13,-23,-31c0,0,-8,-18,-8,-39c0,0,0,-29,15,-49c0,0,15,-20,39,-35c0,0,24,-15,54,-27c0,0,31,-11,62,-24c0,0,32,-13,63,-29c0,0,31,-15,55,-38c0,0,24,-22,38,-53c0,0,15,-32,15,-75c0,0,0,-51,-19,-92c0,0,-19,-40,-54,-68C463,42,428,15,379,1c0,0,-48,-14,-107,-14Z"
id="f0_b5"
transform="scale(0.001,-0.001)"/>

<path d="M176,-4c0,0,-18,0,-30,2c0,0,-12,1,-19,3c0,0,-7,3,-10,7c0,0,-3,4,-3,10v997c0,0,0,6,3,11c0,0,3,4,10,7c0,0,7,3,19,5c0,0,12,1,30,1c0,0,18,0,30,-1c0,0,12,-2,19,-5c0,0,7,-3,9,-7c0,0,3,-5,3,-11V18c0,0,0,-6,-3,-10c0,0,-2,-4,-9,-7c0,0,-7,-2,-19,-3c0,0,-12,-2,-30,-2Z"
id="f0_a8"
transform="scale(0.001,-0.001)"/>

<path d="M401,90c0,0,54,0,93,19c0,0,40,20,65,55c0,0,26,35,37,84c0,0,12,48,12,106c0,0,0,55,-10,104c0,0,-10,48,-33,85c0,0,-23,36,-62,58c0,0,-40,21,-99,21c0,0,-54,0,-93,-20c0,0,-39,-19,-65,-54c0,0,-25,-36,-37,-85c0,0,-12,-48,-12,-106c0,0,0,-55,10,-103c0,0,10,-49,33,-85c0,0,24,-36,63,-58c0,0,39,-21,98,-21ZM395,-13c0,0,-82,0,-144,24c0,0,-61,25,-102,72c0,0,-41,47,-61,114c0,0,-21,67,-21,152c0,0,0,82,22,151c0,0,21,69,64,119c0,0,43,50,107,78c0,0,64,28,150,28c0,0,82,0,144,-25c0,0,61,-25,102,-72c0,0,41,-47,62,-114c0,0,20,-67,20,-151c0,0,0,-83,-21,-152c0,0,-22,-69,-65,-119C652,92,609,42,545,14c0,0,-65,-27,-150,-27Z"
id="f0_am"
transform="scale(0.001,-0.001)"/>

<path d="M366,92c0,0,25,0,48,7c0,0,22,6,46,22c0,0,24,16,50,41c0,0,26,24,56,61V492c0,0,-51,62,-97,94c0,0,-47,33,-98,33c0,0,-47,0,-79,-22c0,0,-33,-23,-54,-59c0,0,-20,-37,-30,-83c0,0,-9,-47,-9,-94c0,0,0,-51,8,-100c0,0,8,-48,27,-86c0,0,19,-38,52,-60c0,0,32,-23,80,-23ZM345,-13c0,0,-74,0,-127,28c0,0,-52,29,-84,78c0,0,-33,49,-48,115c0,0,-15,66,-15,139c0,0,0,86,19,156c0,0,19,70,55,119c0,0,37,50,91,76c0,0,54,27,125,27c0,0,59,0,108,-26c0,0,49,-26,97,-76v390c0,0,0,5,2,10c0,0,3,4,10,7c0,0,8,3,19,5c0,0,12,1,30,1c0,0,18,0,30,-1c0,0,12,-2,19,-5c0,0,7,-3,10,-7c0,0,3,-5,3,-10V18c0,0,0,-6,-2,-10c0,0,-3,-5,-9,-7c0,0,-7,-2,-17,-3c0,0,-10,-2,-25,-2c0,0,-16,0,-26,2c0,0,-11,1,-18,3c0,0,-6,2,-9,7c0,0,-3,4,-3,10v90c0,0,-53,-58,-110,-90c0,0,-58,-31,-125,-31Z"
id="f0_7v"
transform="scale(0.001,-0.001)"/>

<path d="M176,-4c0,0,-18,0,-30,2c0,0,-12,1,-19,3c0,0,-7,3,-10,7c0,0,-3,4,-3,10V690c0,0,0,6,3,10c0,0,2,4,9,7c0,0,6,4,17,5c0,0,10,1,27,1c0,0,17,0,28,-1c0,0,10,-1,16,-5c0,0,6,-3,9,-7c0,0,3,-4,3,-10V601c0,0,56,64,110,94c0,0,53,30,108,30c0,0,42,0,75,-10c0,0,33,-10,58,-28c0,0,26,-17,44,-42c0,0,18,-24,30,-55c0,0,33,37,63,63c0,0,31,26,59,41c0,0,28,16,54,23c0,0,27,8,53,8c0,0,65,0,109,-23c0,0,44,-23,71,-61c0,0,28,-38,39,-89c0,0,12,-52,12,-108V18c0,0,0,-6,-3,-10c0,0,-3,-4,-10,-7c0,0,-7,-2,-19,-3c0,0,-12,-2,-29,-2c0,0,-19,0,-31,2c0,0,-12,1,-19,3c0,0,-7,3,-10,7c0,0,-3,4,-3,10V427c0,0,0,43,-8,78c0,0,-7,35,-23,61c0,0,-17,25,-42,38c0,0,-25,14,-60,14c0,0,-42,0,-85,-33c0,0,-43,-33,-94,-96V18c0,0,0,-6,-3,-10c0,0,-3,-4,-11,-7c0,0,-7,-2,-19,-3c0,0,-11,-2,-29,-2c0,0,-18,0,-30,2c0,0,-12,1,-19,3c0,0,-7,3,-10,7c0,0,-3,4,-3,10V427c0,0,0,43,-8,78c0,0,-8,35,-24,61c0,0,-17,25,-42,38c0,0,-25,14,-59,14c0,0,-43,0,-86,-33c0,0,-44,-33,-95,-96V18c0,0,0,-6,-3,-10c0,0,-2,-4,-9,-7c0,0,-7,-2,-19,-3c0,0,-12,-2,-30,-2Z"
id="f0_ae"
transform="scale(0.001,-0.001)"/>

<path d="M176,-4c0,0,-18,0,-30,2c0,0,-12,1,-19,3c0,0,-7,3,-10,7c0,0,-3,4,-3,10v997c0,0,0,6,3,11c0,0,3,4,10,7c0,0,7,3,19,5c0,0,12,1,30,1c0,0,18,0,30,-1c0,0,12,-2,19,-5c0,0,7,-3,9,-7c0,0,3,-5,3,-11V408L492,687c0,0,6,7,12,12c0,0,7,5,16,8c0,0,10,4,22,5c0,0,13,1,31,1c0,0,19,0,31,-1c0,0,13,-1,21,-4c0,0,8,-3,11,-7c0,0,3,-4,3,-11c0,0,0,-9,-4,-18c0,0,-5,-8,-16,-20L375,408L648,54c0,0,10,-13,14,-20c0,0,4,-8,4,-15c0,0,0,-6,-3,-10c0,0,-3,-5,-10,-8c0,0,-7,-2,-20,-3c0,0,-13,-2,-32,-2c0,0,-20,0,-33,1c0,0,-13,1,-22,3c0,0,-9,3,-15,7c0,0,-5,5,-10,12L237,391V18c0,0,0,-6,-3,-10c0,0,-2,-4,-9,-7c0,0,-7,-2,-19,-3c0,0,-12,-2,-30,-2Z"
id="f0_a5"
transform="scale(0.001,-0.001)"/>

<path d="M209,-4c0,0,-18,0,-30,2c0,0,-12,1,-19,3c0,0,-7,3,-10,7c0,0,-3,4,-3,10V607H52c0,0,-12,0,-18,12c0,0,-6,12,-6,39c0,0,0,14,2,24c0,0,1,10,4,16c0,0,3,7,8,9c0,0,4,3,10,3h95v69c0,0,0,71,13,121c0,0,13,50,40,82c0,0,27,33,67,48c0,0,41,15,96,15c0,0,26,0,51,-5c0,0,25,-4,38,-10c0,0,13,-6,18,-10c0,0,4,-5,7,-12c0,0,3,-7,5,-17c0,0,1,-10,1,-24c0,0,0,-15,-2,-23c0,0,-1,-9,-3,-14c0,0,-2,-5,-5,-7c0,0,-3,-2,-8,-2c0,0,-5,0,-13,3c0,0,-7,4,-19,8c0,0,-11,4,-26,7c0,0,-15,4,-36,4c0,0,-27,0,-47,-9c0,0,-19,-9,-31,-28c0,0,-12,-19,-17,-50c0,0,-5,-30,-5,-73V710H421c0,0,6,0,10,-3c0,0,4,-2,7,-9c0,0,4,-6,6,-16c0,0,2,-10,2,-24c0,0,0,-27,-7,-39c0,0,-7,-12,-18,-12H271V18c0,0,0,-6,-3,-10c0,0,-3,-4,-11,-7c0,0,-7,-2,-19,-3c0,0,-12,-2,-29,-2Z"
id="f0_89"
transform="scale(0.001,-0.001)"/>

<path d="M192,-6c0,0,-45,0,-62,16c0,0,-18,18,-18,69c0,0,0,53,18,71c0,0,18,17,64,17c0,0,45,0,62,-17c0,0,17,-17,17,-69c0,0,0,-53,-18,-70c0,0,-17,-17,-63,-17Z"
id="f0_nt"
transform="scale(0.001,-0.001)"/>

<path d="M482,-11c0,0,-94,0,-170,31c0,0,-76,31,-129,92c0,0,-53,61,-82,151c0,0,-29,90,-29,207c0,0,0,120,31,214c0,0,31,94,87,159c0,0,56,65,134,100c0,0,78,34,173,34c0,0,41,0,81,-8c0,0,39,-8,73,-19c0,0,33,-12,60,-28c0,0,26,-15,36,-25c0,0,10,-10,13,-15c0,0,3,-6,5,-13c0,0,1,-7,3,-17c0,0,1,-9,1,-23c0,0,0,-15,-2,-25c0,0,-1,-11,-4,-18c0,0,-3,-7,-7,-10c0,0,-4,-4,-10,-4c0,0,-11,0,-30,15c0,0,-18,14,-48,32c0,0,-29,17,-71,32c0,0,-42,14,-101,14c0,0,-64,0,-117,-25c0,0,-52,-26,-90,-76c0,0,-37,-50,-57,-122c0,0,-21,-72,-21,-164c0,0,0,-92,20,-163c0,0,20,-70,57,-117c0,0,36,-48,90,-72c0,0,54,-24,122,-24c0,0,57,0,100,14c0,0,43,14,73,32c0,0,30,17,50,31c0,0,19,15,30,15c0,0,5,0,9,-3c0,0,4,-2,6,-8c0,0,2,-7,3,-18c0,0,2,-11,2,-28c0,0,0,-12,-1,-21c0,0,-1,-9,-3,-16c0,0,-2,-6,-5,-12c0,0,-3,-5,-10,-12c0,0,-8,-8,-31,-23c0,0,-24,-15,-60,-30C663,23,628,8,582,-1c0,0,-46,-10,-100,-10Z"
id="f0_j"
transform="scale(0.001,-0.001)"/>

<path d="M604,356L436,837h-1L269,356ZM87,-4c0,0,-22,0,-36,2C51,-2,37,0,32,4c0,0,-6,5,-6,15c0,0,1,10,7,27L357,943c0,0,3,8,7,13c0,0,5,6,15,9c0,0,9,3,23,4c0,0,15,1,37,1c0,0,24,0,40,-1c0,0,16,-1,25,-4c0,0,10,-3,15,-9c0,0,5,-5,8,-14L851,45c0,0,6,-16,7,-26c0,0,0,-10,-6,-16c0,0,-6,-4,-20,-5c0,0,-14,-2,-37,-2c0,0,-23,0,-37,1c0,0,-14,1,-21,3c0,0,-7,3,-10,7c0,0,-3,5,-6,11L638,253H236L157,21c0,0,-2,-6,-6,-11c0,0,-3,-5,-10,-9c0,0,-7,-2,-21,-3c0,0,-13,-2,-33,-2Z"
id="f0_5"
transform="scale(0.001,-0.001)"/>

<path d="M69,-215c0,0,-12,0,-21,1c0,0,-8,1,-12,4c0,0,-4,2,-4,7c0,0,-1,4,2,10L134,11v96c0,0,0,20,4,32c0,0,4,12,13,18c0,0,9,6,22,8c0,0,13,2,33,2c0,0,19,0,32,-2c0,0,13,-2,22,-8c0,0,9,-6,13,-18c0,0,4,-12,4,-32c0,0,0,-23,-2,-43c0,0,-3,-19,-8,-36c0,0,-5,-17,-14,-33c0,0,-8,-17,-21,-36L130,-194c0,0,-4,-5,-9,-9c0,0,-5,-4,-12,-7c0,0,-7,-3,-16,-4c0,0,-9,-1,-24,-1Z"
id="f0_nq"
transform="scale(0.001,-0.001)"/>

<path d="M372,-4c0,0,-18,0,-30,2c0,0,-13,2,-21,3c0,0,-7,3,-10,8c0,0,-3,4,-3,10V857H36c0,0,-6,0,-11,3c0,0,-5,2,-8,9c0,0,-2,6,-4,17c0,0,-2,10,-2,24c0,0,0,14,2,25c0,0,2,11,4,17c0,0,3,7,8,10c0,0,5,3,11,3H708c0,0,6,0,11,-3c0,0,5,-3,8,-10c0,0,4,-6,5,-17c0,0,2,-11,2,-25c0,0,0,-14,-2,-24c0,0,-1,-11,-5,-17c0,0,-3,-7,-8,-9c0,0,-5,-3,-11,-3H436V19c0,0,0,-6,-3,-10c0,0,-3,-5,-10,-8c0,0,-8,-1,-20,-3c0,0,-12,-2,-31,-2Z"
id="f0_2t"
transform="scale(0.001,-0.001)"/>

<path d="M346,-4c0,0,-23,0,-38,2c0,0,-15,1,-24,3c0,0,-9,3,-15,8c0,0,-5,6,-8,13L33,660c0,0,-3,9,-5,15c0,0,-2,7,-2,11c0,0,0,3,0,5c0,0,0,6,3,11c0,0,3,4,10,7c0,0,7,2,18,3c0,0,12,1,29,1c0,0,22,0,35,-1c0,0,13,-1,20,-4c0,0,7,-3,10,-8c0,0,4,-4,7,-11L347,135l3,-9l2,9L540,689c0,0,1,7,5,11c0,0,3,5,11,8c0,0,7,3,19,4c0,0,12,1,32,1c0,0,18,0,29,-1c0,0,11,-1,17,-4c0,0,7,-3,9,-7c0,0,3,-4,3,-10c0,0,0,-3,-1,-6c0,0,0,-4,-1,-7c0,0,0,-4,-2,-8c0,0,-1,-5,-2,-10L430,22c0,0,-3,-8,-8,-13c0,0,-5,-6,-15,-9c0,0,-9,-2,-24,-3c0,0,-15,-1,-37,-1Z"
id="f0_ch"
transform="scale(0.001,-0.001)"/>

<path d="M431,92c0,0,46,0,79,22c0,0,33,23,53,60c0,0,21,37,30,83c0,0,10,46,10,93c0,0,0,51,-8,100c0,0,-8,49,-28,86c0,0,-19,37,-51,60c0,0,-32,23,-80,23c0,0,-24,0,-47,-7c0,0,-23,-7,-47,-22c0,0,-24,-16,-50,-41c0,0,-25,-24,-55,-62V219c0,0,51,-62,98,-95c0,0,46,-32,96,-32ZM443,-13c0,0,-32,0,-59,7c0,0,-27,6,-53,19c0,0,-26,14,-52,36c0,0,-27,22,-56,52V18c0,0,0,-6,-3,-10c0,0,-3,-5,-9,-7c0,0,-7,-2,-17,-3c0,0,-10,-2,-26,-2c0,0,-15,0,-25,2c0,0,-11,1,-17,3c0,0,-7,2,-9,7c0,0,-3,4,-3,10v997c0,0,0,6,3,11c0,0,3,4,10,7c0,0,7,3,19,5c0,0,12,1,30,1c0,0,18,0,30,-1c0,0,12,-2,19,-5c0,0,7,-3,9,-7c0,0,3,-5,3,-10V614c0,0,30,31,58,52c0,0,28,20,55,34c0,0,27,13,54,19c0,0,27,6,57,6c0,0,73,0,125,-30c0,0,52,-29,84,-78c0,0,32,-48,47,-114c0,0,15,-66,15,-139c0,0,0,-87,-19,-157c0,0,-19,-70,-56,-119c0,0,-37,-49,-90,-76c0,0,-54,-25,-124,-25Z"
id="f0_7k"
transform="scale(0.001,-0.001)"/>

<path d="M252,-271c0,0,-19,0,-31,2c0,0,-12,2,-18,6c0,0,-7,5,-8,12c0,0,0,8,4,18L292,0c0,0,-7,3,-13,10c0,0,-6,6,-8,14L31,665c0,0,-6,16,-6,25c0,0,0,9,6,14c0,0,6,5,20,7c0,0,13,2,36,2c0,0,22,0,35,-1c0,0,12,-1,20,-4c0,0,7,-3,11,-9c0,0,3,-6,7,-15L351,145h3L539,687c0,0,4,14,10,18c0,0,7,4,19,6c0,0,13,2,37,2c0,0,21,0,34,-2c0,0,14,-2,20,-7c0,0,6,-5,6,-14c0,0,0,-9,-4,-23L420,0L330,-246c0,0,-4,-12,-22,-18c0,0,-19,-7,-56,-7Z"
id="f0_co"
transform="scale(0.001,-0.001)"/>

<path d="M69,661c0,0,-12,0,-21,1c0,0,-8,1,-12,4c0,0,-4,2,-4,7c0,0,-1,4,2,11L134,889v95c0,0,0,19,4,31c0,0,4,12,13,19c0,0,9,7,22,9c0,0,13,2,33,2c0,0,19,0,32,-2c0,0,13,-2,22,-9c0,0,9,-7,13,-19c0,0,4,-12,4,-31c0,0,0,-23,-2,-42c0,0,-3,-19,-8,-37c0,0,-5,-17,-14,-34c0,0,-8,-17,-21,-35L130,683c0,0,-4,-6,-9,-10c0,0,-5,-5,-12,-7c0,0,-7,-3,-16,-4c0,0,-9,-1,-24,-1Z"
id="f0_nw"
transform="scale(0.001,-0.001)"/>

<path d="M324,-4c0,0,-23,0,-37,2c0,0,-15,1,-24,3c0,0,-9,3,-14,8c0,0,-4,6,-7,13L46,660c0,0,-4,11,-5,18c0,0,-2,8,-2,13c0,0,0,7,3,11c0,0,3,4,10,7c0,0,8,2,19,3c0,0,12,1,30,1c0,0,20,0,33,-1c0,0,13,-1,20,-4c0,0,6,-3,9,-8c0,0,3,-4,5,-11L330,136l2,-7l1,7L482,689c0,0,1,7,5,11c0,0,3,5,10,8c0,0,6,3,18,4c0,0,12,1,31,1c0,0,18,0,29,-1c0,0,12,-1,18,-4c0,0,7,-3,10,-7c0,0,3,-5,5,-11L768,136l1,-7l1,7L930,689c0,0,1,7,5,11c0,0,3,5,10,8c0,0,7,3,20,4c0,0,12,1,31,1c0,0,18,0,29,-1c0,0,11,-1,17,-4c0,0,6,-3,9,-6c0,0,3,-4,3,-11c0,0,0,-5,-2,-13c0,0,-1,-7,-5,-18L849,22c0,0,-2,-8,-7,-13c0,0,-5,-6,-13,-9c0,0,-9,-2,-24,-3c0,0,-15,-1,-37,-1c0,0,-23,0,-39,2c0,0,-15,1,-25,3c0,0,-9,3,-14,8c0,0,-4,6,-6,13L543,510l-2,6l-2,-6L409,22c0,0,-3,-8,-7,-13c0,0,-5,-6,-15,-9c0,0,-10,-2,-25,-3c0,0,-15,-1,-38,-1Z"
id="f0_ci"
transform="scale(0.001,-0.001)"/>

<path d="M92,-4c0,0,-22,0,-35,2C57,-2,43,0,37,3c0,0,-7,5,-6,12c0,0,0,7,7,17L247,360L49,675c0,0,-6,11,-6,18c0,0,-1,7,6,12c0,0,7,5,22,6c0,0,14,2,38,2c0,0,22,0,35,-1c0,0,13,-1,20,-4c0,0,8,-2,12,-6c0,0,3,-3,6,-9L335,443L490,693c0,0,3,5,7,9c0,0,4,3,10,6c0,0,7,3,18,4c0,0,12,1,32,1c0,0,21,0,35,-2c0,0,14,-1,21,-5c0,0,7,-4,6,-12c0,0,-1,-7,-8,-19L415,364L622,32c0,0,6,-10,6,-17c0,0,0,-7,-7,-12c0,0,-7,-3,-21,-5c0,0,-15,-2,-38,-2c0,0,-22,0,-35,1c0,0,-13,1,-21,3c0,0,-8,3,-12,7c0,0,-4,4,-7,9L326,282L165,16c0,0,-3,-5,-7,-9c0,0,-4,-4,-12,-7c0,0,-8,-2,-20,-3c0,0,-13,-1,-34,-1Z"
id="f0_cn"
transform="scale(0.001,-0.001)"/>

<path d="M192,-4c0,0,-18,0,-30,2c0,0,-13,2,-20,3c0,0,-8,3,-11,8c0,0,-3,4,-3,10V946c0,0,0,6,3,11c0,0,3,4,11,7c0,0,7,2,20,4c0,0,12,2,30,2c0,0,19,0,31,-2c0,0,13,-2,20,-4c0,0,7,-3,10,-7c0,0,3,-5,3,-11V559H696V946c0,0,0,6,3,10c0,0,3,5,10,8c0,0,8,2,20,4c0,0,11,2,31,2c0,0,18,0,30,-2c0,0,12,-2,20,-4c0,0,7,-3,10,-7c0,0,3,-5,3,-11V19c0,0,0,-6,-3,-10c0,0,-3,-5,-10,-8c0,0,-8,-1,-20,-3c0,0,-12,-2,-30,-2c0,0,-20,0,-31,2c0,0,-12,2,-20,3c0,0,-7,3,-10,8c0,0,-3,4,-3,10V448H256V19c0,0,0,-6,-3,-10c0,0,-3,-5,-10,-8c0,0,-7,-1,-20,-3c0,0,-12,-2,-31,-2Z"
id="f0_19"
transform="scale(0.001,-0.001)"/>

<path d="M366,92c0,0,25,0,48,7c0,0,22,6,46,22c0,0,24,16,50,41c0,0,26,24,56,61V492c0,0,-51,62,-97,94c0,0,-47,33,-98,33c0,0,-47,0,-79,-22c0,0,-33,-23,-54,-59c0,0,-20,-37,-30,-83c0,0,-9,-47,-9,-94c0,0,0,-52,8,-100c0,0,8,-49,27,-86c0,0,19,-38,52,-60c0,0,32,-23,80,-23ZM627,-271c0,0,-18,0,-30,2c0,0,-11,1,-19,4c0,0,-7,3,-10,8c0,0,-2,4,-2,10V97c0,0,-31,-31,-59,-52c0,0,-27,-21,-54,-34c0,0,-27,-12,-54,-18c0,0,-28,-6,-57,-6c0,0,-73,0,-124,28c0,0,-52,29,-84,78c0,0,-33,49,-48,115c0,0,-15,66,-15,139c0,0,0,86,19,156c0,0,19,70,56,119c0,0,37,50,91,76c0,0,54,27,125,27c0,0,30,0,56,-7c0,0,26,-6,52,-20c0,0,25,-14,52,-36c0,0,26,-22,58,-52v80c0,0,0,7,3,11c0,0,3,4,9,7c0,0,7,3,18,4c0,0,10,1,26,1c0,0,15,0,25,-1c0,0,10,-1,17,-4c0,0,6,-3,9,-8c0,0,2,-4,2,-10V-247c0,0,0,-6,-3,-10c0,0,-3,-5,-10,-8c0,0,-7,-3,-19,-4c0,0,-12,-2,-30,-2Z"
id="f0_b0"
transform="scale(0.001,-0.001)"/>

<path d="M218,-6c0,0,-24,0,-39,4c0,0,-15,3,-24,13c0,0,-8,10,-12,27c0,0,-3,16,-3,41c0,0,0,24,3,41c0,0,4,17,12,27c0,0,9,9,24,14c0,0,15,4,39,4c0,0,23,0,38,-4c0,0,15,-5,24,-14c0,0,10,-10,13,-27c0,0,3,-17,3,-41c0,0,0,-25,-3,-41c0,0,-3,-17,-13,-27c0,0,-9,-10,-24,-13c0,0,-15,-4,-38,-4Zm0,518c0,0,-24,0,-39,4c0,0,-15,5,-24,15c0,0,-8,10,-12,26c0,0,-3,16,-3,40c0,0,0,26,3,42c0,0,4,17,12,27c0,0,9,10,24,14c0,0,15,4,39,4c0,0,23,0,38,-4c0,0,15,-4,24,-14c0,0,10,-10,13,-27c0,0,3,-16,3,-42c0,0,0,-24,-3,-40c0,0,-3,-16,-13,-26c0,0,-9,-10,-24,-15c0,0,-15,-4,-38,-4Z"
id="f0_ns"
transform="scale(0.001,-0.001)"/>

<path d="M161,0c0,0,-5,0,-10,3c0,0,-4,2,-8,8c0,0,-5,6,-7,16c0,0,-2,9,-2,24c0,0,0,13,2,23c0,0,2,9,6,16c0,0,3,6,8,9c0,0,5,4,11,4H362V837L176,726c0,0,-15,-8,-23,-9c0,0,-1,-1,-3,-1c-3,0,-8,1,-11,4c0,0,-5,5,-7,16c0,0,-2,11,-2,28c0,0,0,13,1,22c0,0,1,9,4,15c0,0,2,6,6,10c0,0,4,5,11,9L374,963c0,0,3,2,7,4c0,0,5,1,11,3c0,0,7,1,16,2c0,0,9,0,22,0c0,0,18,0,30,-2c0,0,12,-1,19,-4c0,0,7,-2,9,-6c0,0,2,-5,2,-9V103H665c0,0,6,0,11,-4c0,0,5,-3,8,-9c0,0,4,-7,6,-16c0,0,2,-10,2,-23c0,0,0,-15,-3,-24c0,0,-2,-10,-6,-16c0,0,-3,-6,-8,-8c0,0,-5,-3,-10,-3Z"
id="f0_ry"
transform="scale(0.001,-0.001)"/>

<path d="M142,-256c0,0,-19,0,-30,2c0,0,-11,2,-16,6c0,0,-5,4,-4,10c0,0,0,6,4,15c0,0,69,151,104,308c0,0,35,158,35,318c0,0,0,160,-35,318c0,0,-35,157,-106,307c0,0,-3,7,-2,13c0,0,1,6,7,10c0,0,6,3,16,6c0,0,11,2,28,2c0,0,16,0,26,-1c0,0,10,-1,17,-4c0,0,6,-2,9,-4c0,0,3,-2,5,-5c0,0,76,-153,120,-315c0,0,44,-161,44,-329c0,0,0,-84,-11,-167c0,0,-10,-82,-31,-163c0,0,-21,-79,-51,-157c0,0,-30,-78,-71,-154c0,0,-2,-4,-6,-7c0,0,-5,-3,-12,-5c0,0,-7,-3,-17,-3c0,0,-9,-1,-23,-1Z"
id="f0_ow"
transform="scale(0.001,-0.001)"/>

<path d="M372,472c0,0,58,0,97,15c0,0,38,15,65,42c0,0,26,26,39,63c0,0,14,37,14,80c0,0,0,59,-22,99c0,0,-23,39,-55,59c0,0,-32,19,-67,24c0,0,-35,5,-68,5H256V472ZM192,-4c0,0,-18,0,-31,2c0,0,-12,2,-19,3c0,0,-8,3,-11,8c0,0,-3,4,-3,10V910c0,0,0,30,16,42c0,0,15,13,35,13H386c0,0,31,0,60,-3c0,0,28,-2,68,-11c0,0,39,-8,80,-32c0,0,40,-23,69,-58c0,0,28,-34,43,-79c0,0,16,-45,16,-100c0,0,0,-72,-24,-130c0,0,-24,-58,-69,-100c0,0,-44,-41,-109,-63c0,0,-64,-22,-154,-22H256V19c0,0,0,-6,-3,-10c0,0,-3,-5,-10,-8c0,0,-7,-1,-20,-3c0,0,-12,-2,-31,-2Z"
id="f0_2g"
transform="scale(0.001,-0.001)"/>

<path d="M128,0c0,0,-11,0,-19,3c0,0,-8,2,-13,8c0,0,-6,6,-8,17c0,0,-3,11,-3,28c0,0,0,15,1,26c0,0,1,11,5,20c0,0,4,8,9,17c0,0,6,8,15,18L302,336c0,0,65,68,104,123c0,0,39,54,61,99c0,0,21,45,28,81c0,0,6,37,6,69c0,0,0,32,-10,61c0,0,-11,29,-30,50c0,0,-20,22,-50,35c0,0,-30,12,-69,12c0,0,-45,0,-81,-12c0,0,-37,-13,-64,-28c0,0,-27,-15,-45,-27c0,0,-19,-13,-28,-13c0,0,-5,0,-9,3c0,0,-4,3,-7,10c0,0,-2,6,-4,18c0,0,-1,11,-1,26c0,0,0,12,0,20c0,0,1,8,3,14c0,0,2,6,5,11c0,0,3,5,12,13c0,0,9,8,31,21c0,0,22,14,55,27c0,0,33,13,73,22c0,0,40,9,84,9c0,0,70,0,123,-20c0,0,53,-20,87,-54c0,0,35,-34,52,-80c0,0,17,-46,17,-97c0,0,0,-46,-8,-92c0,0,-8,-46,-35,-99c0,0,-26,-54,-76,-119c0,0,-50,-65,-133,-151L240,109H660c0,0,6,0,12,-4c0,0,5,-3,9,-10c0,0,5,-7,6,-17c0,0,2,-10,2,-23c0,0,0,-13,-2,-24c0,0,-1,-10,-5,-17c0,0,-3,-7,-9,-11c0,0,-5,-3,-12,-3Z"
id="f0_rz"
transform="scale(0.001,-0.001)"/>

<path d="M343,-13c0,0,-49,0,-91,8c0,0,-42,7,-75,18c0,0,-33,11,-54,22c0,0,-22,12,-27,17c0,0,-6,5,-9,10c0,0,-3,5,-5,13c0,0,-3,7,-4,18c0,0,-1,11,-1,27c0,0,0,26,5,37c0,0,6,10,15,10c0,0,7,0,27,-12c0,0,20,-12,51,-25c0,0,31,-14,72,-26c0,0,41,-12,92,-12c0,0,49,0,87,13c0,0,37,12,62,35c0,0,26,24,39,55c0,0,12,32,12,69c0,0,0,41,-16,74c0,0,-16,33,-47,57c0,0,-31,24,-76,36c0,0,-45,13,-103,13H206c0,0,-6,0,-12,3c0,0,-6,2,-10,8c0,0,-4,6,-6,16c0,0,-3,10,-3,25c0,0,0,14,2,24c0,0,2,9,7,15c0,0,4,5,9,8c0,0,5,3,12,3h84c0,0,49,0,89,12c0,0,39,13,66,37c0,0,27,24,42,57c0,0,14,33,14,74c0,0,0,30,-9,57c0,0,-10,28,-30,48c0,0,-19,20,-49,32c0,0,-31,11,-70,11c0,0,-43,0,-80,-13c0,0,-36,-13,-64,-28c0,0,-29,-15,-47,-28c0,0,-19,-13,-26,-13c0,0,-6,0,-10,2c0,0,-4,2,-6,7c0,0,-3,6,-4,16c0,0,-1,10,-1,26c0,0,0,12,0,20c0,0,1,9,3,15c0,0,3,6,6,12c0,0,3,5,10,12c0,0,7,7,28,20c0,0,22,14,54,27c0,0,32,13,73,22c0,0,41,9,89,9c0,0,67,0,118,-17c0,0,51,-18,85,-49c0,0,34,-31,51,-75c0,0,17,-44,17,-97c0,0,0,-45,-12,-84c0,0,-12,-39,-35,-70c0,0,-24,-30,-57,-51c0,0,-34,-21,-78,-30v-1c0,0,50,-5,92,-25c0,0,41,-20,71,-50c0,0,30,-29,47,-69c0,0,16,-40,16,-86c0,0,0,-66,-23,-119c0,0,-23,-54,-66,-92C593,65,550,27,486,7c0,0,-63,-20,-143,-20Z"
id="f0_s0"
transform="scale(0.001,-0.001)"/>

<path d="M469,327V857h-2L153,327ZM530,-4c0,0,-18,0,-30,2c0,0,-12,1,-19,3c0,0,-7,3,-9,7c0,0,-3,4,-3,10V221H71c0,0,-9,0,-15,2c0,0,-6,2,-11,8c0,0,-5,6,-7,17c0,0,-2,12,-2,30c0,0,0,14,1,25c0,0,1,11,3,20c0,0,2,10,6,18c0,0,4,9,9,18L403,947c0,0,3,6,10,10c0,0,7,5,19,8c0,0,11,3,27,4c0,0,17,1,39,1c0,0,25,0,43,-2c0,0,18,-2,29,-5c0,0,12,-3,18,-8c0,0,6,-4,6,-11V327H702c0,0,13,0,21,-13c0,0,8,-13,8,-40c0,0,0,-25,-8,-39c0,0,-7,-14,-21,-14H594V18c0,0,0,-6,-3,-10c0,0,-3,-4,-11,-7c0,0,-7,-2,-19,-3c0,0,-12,-2,-31,-2Z"
id="f0_s1"
transform="scale(0.001,-0.001)"/>

<path d="M192,-4c0,0,-18,0,-30,2c0,0,-13,2,-20,3c0,0,-8,3,-11,8c0,0,-3,5,-3,10V913c0,0,0,29,15,40c0,0,16,12,33,12H610c0,0,5,0,10,-3c0,0,5,-3,9,-10c0,0,4,-6,5,-17c0,0,2,-11,2,-25c0,0,0,-14,-2,-24c0,0,-1,-11,-5,-17c0,0,-4,-7,-9,-9c0,0,-5,-3,-10,-3H256V528H591c0,0,5,0,10,-3c0,0,5,-2,8,-8c0,0,4,-6,6,-16c0,0,1,-10,1,-26c0,0,0,-14,-1,-24c0,0,-2,-10,-6,-17c0,0,-3,-6,-8,-9c0,0,-5,-4,-10,-4H256V19c0,0,0,-5,-3,-10c0,0,-3,-5,-10,-8c0,0,-7,-1,-19,-3c0,0,-12,-2,-32,-2Z"
id="f0_13"
transform="scale(0.001,-0.001)"/>

<path d="M175,661c0,0,-18,0,-32,2c0,0,-13,2,-22,9c0,0,-8,6,-12,18c0,0,-5,12,-5,32c0,0,0,23,3,42c0,0,2,19,7,37c0,0,5,17,14,34c0,0,9,17,21,35l102,154c0,0,4,6,9,9c0,0,4,4,11,7c0,0,7,2,17,4c0,0,9,1,22,1c0,0,14,0,22,-1c0,0,9,-1,13,-4c0,0,4,-2,4,-7c0,0,0,-4,-3,-10L248,817V722c0,0,0,-20,-5,-32c0,0,-4,-12,-13,-18c0,0,-9,-7,-23,-9c0,0,-13,-2,-32,-2Z"
id="f0_nv"
transform="scale(0.001,-0.001)"/>

<path d="M79,326c0,0,-14,0,-20,11c0,0,-7,12,-7,40c0,0,0,29,7,40c0,0,6,11,20,11H390c0,0,6,0,11,-2c0,0,5,-2,8,-9c0,0,4,-6,6,-16c0,0,2,-9,2,-24c0,0,0,-29,-7,-40c0,0,-7,-11,-20,-11Z"
id="f0_oj"
transform="scale(0.001,-0.001)"/>

</defs>
<g fill="#000000" >
<use xlink:href="#f0_1x" transform="matrix(12,0,0,12,317.9,75)"/>
<use xlink:href="#f0_77" transform="matrix(12,0,0,12,333.7,75)"/>
<use xlink:href="#f0_7l" transform="matrix(12,0,0,12,342.4,75)"/>
<use xlink:href="#f0_9n" transform="matrix(12,0,0,12,350.2,75)"/>
<use xlink:href="#f0_9q" transform="matrix(12,0,0,12,359.8,75)"/>
<use xlink:href="#f0_af" transform="matrix(12,0,0,12,364,75)"/>
<use xlink:href="#f0_7z" transform="matrix(12,0,0,12,373.6,75)"/>
<use xlink:href="#f0_p" transform="matrix(12,0,0,12,387.1,75)"/>
<use xlink:href="#f0_7z" transform="matrix(12,0,0,12,398.3,75)"/>
<use xlink:href="#f0_7z" transform="matrix(12,0,0,12,407.4,75)"/>
<use xlink:href="#f0_ay" transform="matrix(12,0,0,12,416.5,75)"/>
<use xlink:href="#f0_1r" transform="matrix(12,0,0,12,430.2,75)"/>
<use xlink:href="#f0_7z" transform="matrix(12,0,0,12,437.9,75)"/>
<use xlink:href="#f0_77" transform="matrix(12,0,0,12,447,75)"/>
<use xlink:href="#f0_b1" transform="matrix(12,0,0,12,456,75)"/>
<use xlink:href="#f0_af" transform="matrix(12,0,0,12,462.3,75)"/>
<use xlink:href="#f0_9q" transform="matrix(12,0,0,12,471.9,75)"/>
<use xlink:href="#f0_af" transform="matrix(12,0,0,12,476.1,75)"/>
<use xlink:href="#f0_9d" transform="matrix(12,0,0,12,485.7,75)"/>
<use xlink:href="#f0_9q" transform="matrix(12,0,0,12,498.7,75)"/>
<use xlink:href="#f0_af" transform="matrix(12,0,0,12,502.7,75)"/>
<use xlink:href="#f0_77" transform="matrix(12,0,0,12,516.5,75)"/>
<use xlink:href="#f0_1y" transform="matrix(12,0,0,12,529.5,75)"/>
<use xlink:href="#f0_c6" transform="matrix(12,0,0,12,541.3,75)"/>
<use xlink:href="#f0_bf" transform="matrix(12,0,0,12,550.9,75)"/>
<use xlink:href="#f0_b5" transform="matrix(12,0,0,12,557.1,75)"/>
<use xlink:href="#f0_9n" transform="matrix(12,0,0,12,564.3,75)"/>
<use xlink:href="#f0_7z" transform="matrix(12,0,0,12,573.9,75)"/>
<use xlink:href="#f0_a8" transform="matrix(12,0,0,12,583.3,75)"/>
<use xlink:href="#f0_a8" transform="matrix(12,0,0,12,587.5,75)"/>
<use xlink:href="#f0_1x" transform="matrix(12,0,0,12,91.7,130)"/>
<use xlink:href="#f0_am" transform="matrix(12,0,0,12,107.4,130)"/>
<use xlink:href="#f0_7v" transform="matrix(12,0,0,12,117.1,130)"/>
<use xlink:href="#f0_7z" transform="matrix(12,0,0,12,126.7,130)"/>
<use xlink:href="#f0_b1" transform="matrix(12,0,0,12,135.9,130)"/>
<use xlink:href="#f0_af" transform="matrix(12,0,0,12,142.3,130)"/>
<use xlink:href="#f0_ae" transform="matrix(12,0,0,12,156,130)"/>
<use xlink:href="#f0_77" transform="matrix(12,0,0,12,170.7,130)"/>
<use xlink:href="#f0_7l" transform="matrix(12,0,0,12,179.5,130)"/>
<use xlink:href="#f0_9n" transform="matrix(12,0,0,12,187.2,130)"/>
<use xlink:href="#f0_9q" transform="matrix(12,0,0,12,196.8,130)"/>
<use xlink:href="#f0_af" transform="matrix(12,0,0,12,201,130)"/>
<use xlink:href="#f0_7z" transform="matrix(12,0,0,12,210.6,130)"/>
<use xlink:href="#f0_a8" transform="matrix(12,0,0,12,224.1,130)"/>
<use xlink:href="#f0_7z" transform="matrix(12,0,0,12,228.3,130)"/>
<use xlink:href="#f0_77" transform="matrix(12,0,0,12,237.4,130)"/>
<use xlink:href="#f0_b1" transform="matrix(12,0,0,12,246.2,130)"/>
<use xlink:href="#f0_af" transform="matrix(12,0,0,12,252.4,130)"/>
<use xlink:href="#f0_9q" transform="matrix(12,0,0,12,262.1,130)"/>
<use xlink:href="#f0_af" transform="matrix(12,0,0,12,266.3,130)"/>
<use xlink:href="#f0_9d" transform="matrix(12,0,0,12,275.9,130)"/>
<use xlink:href="#f0_ae" transform="matrix(12,0,0,12,288.7,130)"/>
<use xlink:href="#f0_7z" transform="matrix(12,0,0,12,303.3,130)"/>
<use xlink:href="#f0_bf" transform="matrix(12,0,0,12,312.3,130)"/>
<use xlink:href="#f0_9n" transform="matrix(12,0,0,12,318.6,130)"/>
<use xlink:href="#f0_am" transform="matrix(12,0,0,12,328.2,130)"/>
<use xlink:href="#f0_7v" transform="matrix(12,0,0,12,337.9,130)"/>
<use xlink:href="#f0_9n" transform="matrix(12,0,0,12,351.6,130)"/>
<use xlink:href="#f0_7z" transform="matrix(12,0,0,12,361.3,130)"/>
<use xlink:href="#f0_a8" transform="matrix(12,0,0,12,370.4,130)"/>
<use xlink:href="#f0_ay" transform="matrix(12,0,0,12,374.8,130)"/>
<use xlink:href="#f0_ay" transform="matrix(12,0,0,12,388.5,130)"/>
<use xlink:href="#f0_7z" transform="matrix(12,0,0,12,398,130)"/>
<use xlink:href="#f0_am" transform="matrix(12,0,0,12,407.1,130)"/>
<use xlink:href="#f0_ay" transform="matrix(12,0,0,12,416.8,130)"/>
<use xlink:href="#f0_a8" transform="matrix(12,0,0,12,426.7,130)"/>
<use xlink:href="#f0_7z" transform="matrix(12,0,0,12,430.7,130)"/>
<use xlink:href="#f0_9q" transform="matrix(12,0,0,12,444,130)"/>
<use xlink:href="#f0_af" transform="matrix(12,0,0,12,448.2,130)"/>
<use xlink:href="#f0_ae" transform="matrix(12,0,0,12,461.8,130)"/>
<use xlink:href="#f0_77" transform="matrix(12,0,0,12,476.4,130)"/>
<use xlink:href="#f0_a5" transform="matrix(12,0,0,12,485.2,130)"/>
<use xlink:href="#f0_9q" transform="matrix(12,0,0,12,493.6,130)"/>
<use xlink:href="#f0_af" transform="matrix(12,0,0,12,497.8,130)"/>
<use xlink:href="#f0_9d" transform="matrix(12,0,0,12,507.5,130)"/>
<use xlink:href="#f0_7v" transform="matrix(12,0,0,12,520.2,130)"/>
<use xlink:href="#f0_7z" transform="matrix(12,0,0,12,529.9,130)"/>
<use xlink:href="#f0_7l" transform="matrix(12,0,0,12,539.2,130)"/>
<use xlink:href="#f0_9q" transform="matrix(12,0,0,12,547,130)"/>
<use xlink:href="#f0_b5" transform="matrix(12,0,0,12,551.2,130)"/>
<use xlink:href="#f0_9q" transform="matrix(12,0,0,12,558.4,130)"/>
<use xlink:href="#f0_am" transform="matrix(12,0,0,12,562.4,130)"/>
<use xlink:href="#f0_af" transform="matrix(12,0,0,12,571.9,130)"/>
<use xlink:href="#f0_77" transform="matrix(12,0,0,12,586,130)"/>
<use xlink:href="#f0_af" transform="matrix(12,0,0,12,594.6,130)"/>
<use xlink:href="#f0_7v" transform="matrix(12,0,0,12,604.2,130)"/>
<use xlink:href="#f0_ay" transform="matrix(12,0,0,12,618,130)"/>
<use xlink:href="#f0_b1" transform="matrix(12,0,0,12,627.6,130)"/>
<use xlink:href="#f0_7z" transform="matrix(12,0,0,12,633.9,130)"/>
<use xlink:href="#f0_7v" transform="matrix(12,0,0,12,642.8,130)"/>
<use xlink:href="#f0_9q" transform="matrix(12,0,0,12,652.5,130)"/>
<use xlink:href="#f0_7l" transform="matrix(12,0,0,12,656.7,130)"/>
<use xlink:href="#f0_bf" transform="matrix(12,0,0,12,664.4,130)"/>
<use xlink:href="#f0_9q" transform="matrix(12,0,0,12,670.7,130)"/>
<use xlink:href="#f0_am" transform="matrix(12,0,0,12,674.9,130)"/>
<use xlink:href="#f0_af" transform="matrix(12,0,0,12,684.5,130)"/>
<use xlink:href="#f0_89" transform="matrix(12,0,0,12,698.2,130)"/>
<use xlink:href="#f0_b1" transform="matrix(12,0,0,12,704.1,130)"/>
<use xlink:href="#f0_am" transform="matrix(12,0,0,12,710.1,130)"/>
<use xlink:href="#f0_ae" transform="matrix(12,0,0,12,719.8,130)"/>
<use xlink:href="#f0_7v" transform="matrix(12,0,0,12,738.4,130)"/>
<use xlink:href="#f0_77" transform="matrix(12,0,0,12,748.1,130)"/>
<use xlink:href="#f0_bf" transform="matrix(12,0,0,12,756.7,130)"/>
<use xlink:href="#f0_77" transform="matrix(12,0,0,12,762.8,130)"/>
<use xlink:href="#f0_nt" transform="matrix(12,0,0,12,771.4,130)"/>
<use xlink:href="#f0_1r" transform="matrix(12,0,0,12,780.2,130)"/>
<use xlink:href="#f0_9q" transform="matrix(12,0,0,12,787.9,130)"/>
<use xlink:href="#f0_a5" transform="matrix(12,0,0,12,792.1,130)"/>
<use xlink:href="#f0_7z" transform="matrix(12,0,0,12,799.8,130)"/>
<use xlink:href="#f0_j" transform="matrix(12,0,0,12,813,130)"/>
<use xlink:href="#f0_5" transform="matrix(12,0,0,12,822.9,130)"/>
<use xlink:href="#f0_p" transform="matrix(12,0,0,12,833.5,130)"/>
<use xlink:href="#f0_nq" transform="matrix(12,0,0,12,844.3,130)"/>
<use xlink:href="#f0_j" transform="matrix(12,0,0,12,55,157.5)"/>
<use xlink:href="#f0_am" transform="matrix(12,0,0,12,64.8,157.5)"/>
<use xlink:href="#f0_ae" transform="matrix(12,0,0,12,74.4,157.5)"/>
<use xlink:href="#f0_ay" transform="matrix(12,0,0,12,89.1,157.5)"/>
<use xlink:href="#f0_c6" transform="matrix(12,0,0,12,98.7,157.5)"/>
<use xlink:href="#f0_bf" transform="matrix(12,0,0,12,108.4,157.5)"/>
<use xlink:href="#f0_7z" transform="matrix(12,0,0,12,114.5,157.5)"/>
<use xlink:href="#f0_b1" transform="matrix(12,0,0,12,123.5,157.5)"/>
<use xlink:href="#f0_5" transform="matrix(12,0,0,12,134.3,157.5)"/>
<use xlink:href="#f0_9q" transform="matrix(12,0,0,12,144.9,157.5)"/>
<use xlink:href="#f0_7v" transform="matrix(12,0,0,12,148.9,157.5)"/>
<use xlink:href="#f0_7z" transform="matrix(12,0,0,12,158.5,157.5)"/>
<use xlink:href="#f0_7v" transform="matrix(12,0,0,12,167.5,157.5)"/>
<use xlink:href="#f0_p" transform="matrix(12,0,0,12,181.3,157.5)"/>
<use xlink:href="#f0_7z" transform="matrix(12,0,0,12,192.6,157.5)"/>
<use xlink:href="#f0_b5" transform="matrix(12,0,0,12,201.9,157.5)"/>
<use xlink:href="#f0_9q" transform="matrix(12,0,0,12,209.1,157.5)"/>
<use xlink:href="#f0_9d" transform="matrix(12,0,0,12,213.1,157.5)"/>
<use xlink:href="#f0_af" transform="matrix(12,0,0,12,221.8,157.5)"/>
<use xlink:href="#f0_nq" transform="matrix(12,0,0,12,231.4,157.5)"/>
<use xlink:href="#f0_9n" transform="matrix(12,0,0,12,240.2,157.5)"/>
<use xlink:href="#f0_c6" transform="matrix(12,0,0,12,249.8,157.5)"/>
<use xlink:href="#f0_ae" transform="matrix(12,0,0,12,259.5,157.5)"/>
<use xlink:href="#f0_77" transform="matrix(12,0,0,12,274.3,157.5)"/>
<use xlink:href="#f0_af" transform="matrix(12,0,0,12,282.9,157.5)"/>
<use xlink:href="#f0_9q" transform="matrix(12,0,0,12,296.7,157.5)"/>
<use xlink:href="#f0_b5" transform="matrix(12,0,0,12,301.1,157.5)"/>
<use xlink:href="#f0_ae" transform="matrix(12,0,0,12,312.3,157.5)"/>
<use xlink:href="#f0_77" transform="matrix(12,0,0,12,326.8,157.5)"/>
<use xlink:href="#f0_a5" transform="matrix(12,0,0,12,335.6,157.5)"/>
<use xlink:href="#f0_9q" transform="matrix(12,0,0,12,344,157.5)"/>
<use xlink:href="#f0_af" transform="matrix(12,0,0,12,348.2,157.5)"/>
<use xlink:href="#f0_9d" transform="matrix(12,0,0,12,357.9,157.5)"/>
<use xlink:href="#f0_c6" transform="matrix(12,0,0,12,370.6,157.5)"/>
<use xlink:href="#f0_b5" transform="matrix(12,0,0,12,380.3,157.5)"/>
<use xlink:href="#f0_7z" transform="matrix(12,0,0,12,387.6,157.5)"/>
<use xlink:href="#f0_am" transform="matrix(12,0,0,12,400.7,157.5)"/>
<use xlink:href="#f0_89" transform="matrix(12,0,0,12,410.3,157.5)"/>
<use xlink:href="#f0_7l" transform="matrix(12,0,0,12,420.3,157.5)"/>
<use xlink:href="#f0_am" transform="matrix(12,0,0,12,427.6,157.5)"/>
<use xlink:href="#f0_ae" transform="matrix(12,0,0,12,437.3,157.5)"/>
<use xlink:href="#f0_ay" transform="matrix(12,0,0,12,451.9,157.5)"/>
<use xlink:href="#f0_c6" transform="matrix(12,0,0,12,461.5,157.5)"/>
<use xlink:href="#f0_bf" transform="matrix(12,0,0,12,471.2,157.5)"/>
<use xlink:href="#f0_7z" transform="matrix(12,0,0,12,477.3,157.5)"/>
<use xlink:href="#f0_b1" transform="matrix(12,0,0,12,486.4,157.5)"/>
<use xlink:href="#f0_89" transform="matrix(12,0,0,12,496.8,157.5)"/>
<use xlink:href="#f0_am" transform="matrix(12,0,0,12,502.1,157.5)"/>
<use xlink:href="#f0_b1" transform="matrix(12,0,0,12,511.7,157.5)"/>
<use xlink:href="#f0_j" transform="matrix(12,0,0,12,522.2,157.5)"/>
<use xlink:href="#f0_5" transform="matrix(12,0,0,12,532.1,157.5)"/>
<use xlink:href="#f0_p" transform="matrix(12,0,0,12,542.7,157.5)"/>
<use xlink:href="#f0_1x" transform="matrix(12,0,0,12,553.9,157.5)"/>
<use xlink:href="#f0_nq" transform="matrix(12,0,0,12,569.7,157.5)"/>
<use xlink:href="#f0_j" transform="matrix(12,0,0,12,578.4,157.5)"/>
<use xlink:href="#f0_am" transform="matrix(12,0,0,12,588.2,157.5)"/>
<use xlink:href="#f0_ae" transform="matrix(12,0,0,12,597.8,157.5)"/>
<use xlink:href="#f0_ay" transform="matrix(12,0,0,12,612.3,157.5)"/>
<use xlink:href="#f0_c6" transform="matrix(12,0,0,12,621.9,157.5)"/>
<use xlink:href="#f0_bf" transform="matrix(12,0,0,12,631.8,157.5)"/>
<use xlink:href="#f0_7z" transform="matrix(12,0,0,12,637.7,157.5)"/>
<use xlink:href="#f0_b1" transform="matrix(12,0,0,12,646.8,157.5)"/>
<use xlink:href="#f0_5" transform="matrix(12,0,0,12,657.4,157.5)"/>
<use xlink:href="#f0_9q" transform="matrix(12,0,0,12,668,157.5)"/>
<use xlink:href="#f0_7v" transform="matrix(12,0,0,12,672.2,157.5)"/>
<use xlink:href="#f0_7z" transform="matrix(12,0,0,12,681.8,157.5)"/>
<use xlink:href="#f0_7v" transform="matrix(12,0,0,12,690.8,157.5)"/>
<use xlink:href="#f0_p" transform="matrix(12,0,0,12,704.8,157.5)"/>
<use xlink:href="#f0_7z" transform="matrix(12,0,0,12,716,157.5)"/>
<use xlink:href="#f0_7l" transform="matrix(12,0,0,12,725.1,157.5)"/>
<use xlink:href="#f0_9q" transform="matrix(12,0,0,12,732.9,157.5)"/>
<use xlink:href="#f0_b5" transform="matrix(12,0,0,12,737.1,157.5)"/>
<use xlink:href="#f0_9q" transform="matrix(12,0,0,12,744.3,157.5)"/>
<use xlink:href="#f0_am" transform="matrix(12,0,0,12,748.3,157.5)"/>
<use xlink:href="#f0_af" transform="matrix(12,0,0,12,758,157.5)"/>
<use xlink:href="#f0_1x" transform="matrix(12,0,0,12,771.9,157.5)"/>
<use xlink:href="#f0_77" transform="matrix(12,0,0,12,787.7,157.5)"/>
<use xlink:href="#f0_a5" transform="matrix(12,0,0,12,796.3,157.5)"/>
<use xlink:href="#f0_9q" transform="matrix(12,0,0,12,804.6,157.5)"/>
<use xlink:href="#f0_af" transform="matrix(12,0,0,12,808.7,157.5)"/>
<use xlink:href="#f0_9d" transform="matrix(12,0,0,12,818.3,157.5)"/>
<use xlink:href="#f0_nt" transform="matrix(12,0,0,12,827.1,157.5)"/>
<use xlink:href="#f0_2t" transform="matrix(12,0,0,12,55,185)"/>
<use xlink:href="#f0_9n" transform="matrix(12,0,0,12,63.9,185)"/>
<use xlink:href="#f0_7z" transform="matrix(12,0,0,12,73.6,185)"/>
<use xlink:href="#f0_7v" transform="matrix(12,0,0,12,87,185)"/>
<use xlink:href="#f0_7z" transform="matrix(12,0,0,12,96.5,185)"/>
<use xlink:href="#f0_ch" transform="matrix(12,0,0,12,105.6,185)"/>
<use xlink:href="#f0_7z" transform="matrix(12,0,0,12,113.7,185)"/>
<use xlink:href="#f0_a8" transform="matrix(12,0,0,12,122.8,185)"/>
<use xlink:href="#f0_am" transform="matrix(12,0,0,12,127,185)"/>
<use xlink:href="#f0_ay" transform="matrix(12,0,0,12,136.7,185)"/>
<use xlink:href="#f0_ae" transform="matrix(12,0,0,12,146.6,185)"/>
<use xlink:href="#f0_7z" transform="matrix(12,0,0,12,161.1,185)"/>
<use xlink:href="#f0_af" transform="matrix(12,0,0,12,170.2,185)"/>
<use xlink:href="#f0_bf" transform="matrix(12,0,0,12,179.5,185)"/>
<use xlink:href="#f0_am" transform="matrix(12,0,0,12,189.9,185)"/>
<use xlink:href="#f0_89" transform="matrix(12,0,0,12,199.4,185)"/>
<use xlink:href="#f0_ae" transform="matrix(12,0,0,12,209.4,185)"/>
<use xlink:href="#f0_am" transform="matrix(12,0,0,12,224.1,185)"/>
<use xlink:href="#f0_7v" transform="matrix(12,0,0,12,233.6,185)"/>
<use xlink:href="#f0_7z" transform="matrix(12,0,0,12,243.2,185)"/>
<use xlink:href="#f0_b1" transform="matrix(12,0,0,12,252.4,185)"/>
<use xlink:href="#f0_af" transform="matrix(12,0,0,12,258.8,185)"/>
<use xlink:href="#f0_ae" transform="matrix(12,0,0,12,272.5,185)"/>
<use xlink:href="#f0_77" transform="matrix(12,0,0,12,287.2,185)"/>
<use xlink:href="#f0_7l" transform="matrix(12,0,0,12,296.2,185)"/>
<use xlink:href="#f0_9n" transform="matrix(12,0,0,12,303.9,185)"/>
<use xlink:href="#f0_9q" transform="matrix(12,0,0,12,313.5,185)"/>
<use xlink:href="#f0_af" transform="matrix(12,0,0,12,317.5,185)"/>
<use xlink:href="#f0_7z" transform="matrix(12,0,0,12,327.1,185)"/>
<use xlink:href="#f0_a8" transform="matrix(12,0,0,12,340.6,185)"/>
<use xlink:href="#f0_7z" transform="matrix(12,0,0,12,344.8,185)"/>
<use xlink:href="#f0_77" transform="matrix(12,0,0,12,353.8,185)"/>
<use xlink:href="#f0_b1" transform="matrix(12,0,0,12,362.6,185)"/>
<use xlink:href="#f0_af" transform="matrix(12,0,0,12,369,185)"/>
<use xlink:href="#f0_9q" transform="matrix(12,0,0,12,378.6,185)"/>
<use xlink:href="#f0_af" transform="matrix(12,0,0,12,382.8,185)"/>
<use xlink:href="#f0_9d" transform="matrix(12,0,0,12,392.5,185)"/>
<use xlink:href="#f0_ae" transform="matrix(12,0,0,12,405.2,185)"/>
<use xlink:href="#f0_7z" transform="matrix(12,0,0,12,419.9,185)"/>
<use xlink:href="#f0_bf" transform="matrix(12,0,0,12,428.9,185)"/>
<use xlink:href="#f0_9n" transform="matrix(12,0,0,12,435.1,185)"/>
<use xlink:href="#f0_am" transform="matrix(12,0,0,12,444.7,185)"/>
<use xlink:href="#f0_7v" transform="matrix(12,0,0,12,454.4,185)"/>
<use xlink:href="#f0_b5" transform="matrix(12,0,0,12,464.3,185)"/>
<use xlink:href="#f0_9q" transform="matrix(12,0,0,12,475.4,185)"/>
<use xlink:href="#f0_b5" transform="matrix(12,0,0,12,479.6,185)"/>
<use xlink:href="#f0_9q" transform="matrix(12,0,0,12,490.9,185)"/>
<use xlink:href="#f0_ae" transform="matrix(12,0,0,12,495.1,185)"/>
<use xlink:href="#f0_ay" transform="matrix(12,0,0,12,509.6,185)"/>
<use xlink:href="#f0_am" transform="matrix(12,0,0,12,519.3,185)"/>
<use xlink:href="#f0_b1" transform="matrix(12,0,0,12,529.2,185)"/>
<use xlink:href="#f0_bf" transform="matrix(12,0,0,12,535.4,185)"/>
<use xlink:href="#f0_77" transform="matrix(12,0,0,12,541.5,185)"/>
<use xlink:href="#f0_af" transform="matrix(12,0,0,12,550.1,185)"/>
<use xlink:href="#f0_bf" transform="matrix(12,0,0,12,559.5,185)"/>
<use xlink:href="#f0_bf" transform="matrix(12,0,0,12,569.8,185)"/>
<use xlink:href="#f0_am" transform="matrix(12,0,0,12,575.9,185)"/>
<use xlink:href="#f0_9n" transform="matrix(12,0,0,12,589.6,185)"/>
<use xlink:href="#f0_c6" transform="matrix(12,0,0,12,599.1,185)"/>
<use xlink:href="#f0_ae" transform="matrix(12,0,0,12,608.8,185)"/>
<use xlink:href="#f0_77" transform="matrix(12,0,0,12,623.4,185)"/>
<use xlink:href="#f0_af" transform="matrix(12,0,0,12,632.4,185)"/>
<use xlink:href="#f0_7z" transform="matrix(12,0,0,12,646.1,185)"/>
<use xlink:href="#f0_af" transform="matrix(12,0,0,12,655.2,185)"/>
<use xlink:href="#f0_7v" transform="matrix(12,0,0,12,664.7,185)"/>
<use xlink:href="#f0_7z" transform="matrix(12,0,0,12,674.4,185)"/>
<use xlink:href="#f0_77" transform="matrix(12,0,0,12,683.7,185)"/>
<use xlink:href="#f0_ch" transform="matrix(12,0,0,12,692.2,185)"/>
<use xlink:href="#f0_am" transform="matrix(12,0,0,12,700.2,185)"/>
<use xlink:href="#f0_b1" transform="matrix(12,0,0,12,709.9,185)"/>
<use xlink:href="#f0_7k" transform="matrix(12,0,0,12,720.3,185)"/>
<use xlink:href="#f0_co" transform="matrix(12,0,0,12,729.9,185)"/>
<use xlink:href="#f0_77" transform="matrix(12,0,0,12,742.5,185)"/>
<use xlink:href="#f0_7v" transform="matrix(12,0,0,12,751.1,185)"/>
<use xlink:href="#f0_ch" transform="matrix(12,0,0,12,760.8,185)"/>
<use xlink:href="#f0_77" transform="matrix(12,0,0,12,768.8,185)"/>
<use xlink:href="#f0_af" transform="matrix(12,0,0,12,777.5,185)"/>
<use xlink:href="#f0_7l" transform="matrix(12,0,0,12,787.1,185)"/>
<use xlink:href="#f0_9q" transform="matrix(12,0,0,12,795,185)"/>
<use xlink:href="#f0_af" transform="matrix(12,0,0,12,799.2,185)"/>
<use xlink:href="#f0_9d" transform="matrix(12,0,0,12,808.8,185)"/>
<use xlink:href="#f0_9n" transform="matrix(12,0,0,12,55,212.5)"/>
<use xlink:href="#f0_c6" transform="matrix(12,0,0,12,64.6,212.5)"/>
<use xlink:href="#f0_ae" transform="matrix(12,0,0,12,74.3,212.5)"/>
<use xlink:href="#f0_77" transform="matrix(12,0,0,12,89.1,212.5)"/>
<use xlink:href="#f0_af" transform="matrix(12,0,0,12,97.7,212.5)"/>
<use xlink:href="#f0_nw" transform="matrix(12,0,0,12,107.4,212.5)"/>
<use xlink:href="#f0_b5" transform="matrix(12,0,0,12,110.8,212.5)"/>
<use xlink:href="#f0_a5" transform="matrix(12,0,0,12,122.2,212.5)"/>
<use xlink:href="#f0_af" transform="matrix(12,0,0,12,130.6,212.5)"/>
<use xlink:href="#f0_am" transform="matrix(12,0,0,12,140.1,212.5)"/>
<use xlink:href="#f0_ci" transform="matrix(12,0,0,12,149.8,212.5)"/>
<use xlink:href="#f0_a8" transform="matrix(12,0,0,12,162.9,212.5)"/>
<use xlink:href="#f0_7z" transform="matrix(12,0,0,12,166.9,212.5)"/>
<use xlink:href="#f0_7v" transform="matrix(12,0,0,12,176.1,212.5)"/>
<use xlink:href="#f0_9d" transform="matrix(12,0,0,12,186,212.5)"/>
<use xlink:href="#f0_7z" transform="matrix(12,0,0,12,194.4,212.5)"/>
<use xlink:href="#f0_bf" transform="matrix(12,0,0,12,207.6,212.5)"/>
<use xlink:href="#f0_am" transform="matrix(12,0,0,12,213.7,212.5)"/>
<use xlink:href="#f0_7k" transform="matrix(12,0,0,12,227.3,212.5)"/>
<use xlink:href="#f0_b1" transform="matrix(12,0,0,12,236.8,212.5)"/>
<use xlink:href="#f0_am" transform="matrix(12,0,0,12,242.8,212.5)"/>
<use xlink:href="#f0_77" transform="matrix(12,0,0,12,252.5,212.5)"/>
<use xlink:href="#f0_7v" transform="matrix(12,0,0,12,261.5,212.5)"/>
<use xlink:href="#f0_7z" transform="matrix(12,0,0,12,271.1,212.5)"/>
<use xlink:href="#f0_b1" transform="matrix(12,0,0,12,280.3,212.5)"/>
<use xlink:href="#f0_77" transform="matrix(12,0,0,12,291,212.5)"/>
<use xlink:href="#f0_af" transform="matrix(12,0,0,12,299.7,212.5)"/>
<use xlink:href="#f0_7v" transform="matrix(12,0,0,12,309.3,212.5)"/>
<use xlink:href="#f0_7v" transform="matrix(12,0,0,12,323,212.5)"/>
<use xlink:href="#f0_7z" transform="matrix(12,0,0,12,332.6,212.5)"/>
<use xlink:href="#f0_7z" transform="matrix(12,0,0,12,341.7,212.5)"/>
<use xlink:href="#f0_ay" transform="matrix(12,0,0,12,350.8,212.5)"/>
<use xlink:href="#f0_7z" transform="matrix(12,0,0,12,360.5,212.5)"/>
<use xlink:href="#f0_b1" transform="matrix(12,0,0,12,369.8,212.5)"/>
<use xlink:href="#f0_7z" transform="matrix(12,0,0,12,380.2,212.5)"/>
<use xlink:href="#f0_cn" transform="matrix(12,0,0,12,389,212.5)"/>
<use xlink:href="#f0_bf" transform="matrix(12,0,0,12,396.9,212.5)"/>
<use xlink:href="#f0_7z" transform="matrix(12,0,0,12,403.1,212.5)"/>
<use xlink:href="#f0_af" transform="matrix(12,0,0,12,412.1,212.5)"/>
<use xlink:href="#f0_7v" transform="matrix(12,0,0,12,421.6,212.5)"/>
<use xlink:href="#f0_b5" transform="matrix(12,0,0,12,431.2,212.5)"/>
<use xlink:href="#f0_nt" transform="matrix(12,0,0,12,438.6,212.5)"/>
<use xlink:href="#f0_19" transform="matrix(12,0,0,12,55,267.5)"/>
<use xlink:href="#f0_7z" transform="matrix(12,0,0,12,66.4,267.5)"/>
<use xlink:href="#f0_b1" transform="matrix(12,0,0,12,75.5,267.5)"/>
<use xlink:href="#f0_7z" transform="matrix(12,0,0,12,81.8,267.5)"/>
<use xlink:href="#f0_ci" transform="matrix(12,0,0,12,95,267.5)"/>
<use xlink:href="#f0_7z" transform="matrix(12,0,0,12,108.2,267.5)"/>
<use xlink:href="#f0_ci" transform="matrix(12,0,0,12,121.3,267.5)"/>
<use xlink:href="#f0_9q" transform="matrix(12,0,0,12,134.4,267.5)"/>
<use xlink:href="#f0_a8" transform="matrix(12,0,0,12,138.6,267.5)"/>
<use xlink:href="#f0_a8" transform="matrix(12,0,0,12,142.8,267.5)"/>
<use xlink:href="#f0_9d" transform="matrix(12,0,0,12,151.2,267.5)"/>
<use xlink:href="#f0_am" transform="matrix(12,0,0,12,159.8,267.5)"/>
<use xlink:href="#f0_bf" transform="matrix(12,0,0,12,173.4,267.5)"/>
<use xlink:href="#f0_9n" transform="matrix(12,0,0,12,179.6,267.5)"/>
<use xlink:href="#f0_b1" transform="matrix(12,0,0,12,189.2,267.5)"/>
<use xlink:href="#f0_am" transform="matrix(12,0,0,12,195.5,267.5)"/>
<use xlink:href="#f0_c6" transform="matrix(12,0,0,12,205,267.5)"/>
<use xlink:href="#f0_9d" transform="matrix(12,0,0,12,214.6,267.5)"/>
<use xlink:href="#f0_9n" transform="matrix(12,0,0,12,223.2,267.5)"/>
<use xlink:href="#f0_bf" transform="matrix(12,0,0,12,236.8,267.5)"/>
<use xlink:href="#f0_9n" transform="matrix(12,0,0,12,243,267.5)"/>
<use xlink:href="#f0_7z" transform="matrix(12,0,0,12,252.7,267.5)"/>
<use xlink:href="#f0_7k" transform="matrix(12,0,0,12,265.9,267.5)"/>
<use xlink:href="#f0_77" transform="matrix(12,0,0,12,275.6,267.5)"/>
<use xlink:href="#f0_b5" transform="matrix(12,0,0,12,284.6,267.5)"/>
<use xlink:href="#f0_9q" transform="matrix(12,0,0,12,291.7,267.5)"/>
<use xlink:href="#f0_7l" transform="matrix(12,0,0,12,295.9,267.5)"/>
<use xlink:href="#f0_b5" transform="matrix(12,0,0,12,303.7,267.5)"/>
<use xlink:href="#f0_77" transform="matrix(12,0,0,12,314.9,267.5)"/>
<use xlink:href="#f0_af" transform="matrix(12,0,0,12,323.5,267.5)"/>
<use xlink:href="#f0_7v" transform="matrix(12,0,0,12,333.1,267.5)"/>
<use xlink:href="#f0_b5" transform="matrix(12,0,0,12,347.2,267.5)"/>
<use xlink:href="#f0_am" transform="matrix(12,0,0,12,354.2,267.5)"/>
<use xlink:href="#f0_ae" transform="matrix(12,0,0,12,363.8,267.5)"/>
<use xlink:href="#f0_7z" transform="matrix(12,0,0,12,378.7,267.5)"/>
<use xlink:href="#f0_77" transform="matrix(12,0,0,12,391.9,267.5)"/>
<use xlink:href="#f0_7v" transform="matrix(12,0,0,12,400.6,267.5)"/>
<use xlink:href="#f0_ch" transform="matrix(12,0,0,12,410.2,267.5)"/>
<use xlink:href="#f0_77" transform="matrix(12,0,0,12,418.3,267.5)"/>
<use xlink:href="#f0_af" transform="matrix(12,0,0,12,427,267.5)"/>
<use xlink:href="#f0_7l" transform="matrix(12,0,0,12,436.7,267.5)"/>
<use xlink:href="#f0_7z" transform="matrix(12,0,0,12,444.4,267.5)"/>
<use xlink:href="#f0_bf" transform="matrix(12,0,0,12,457.7,267.5)"/>
<use xlink:href="#f0_am" transform="matrix(12,0,0,12,463.8,267.5)"/>
<use xlink:href="#f0_ay" transform="matrix(12,0,0,12,473.4,267.5)"/>
<use xlink:href="#f0_9q" transform="matrix(12,0,0,12,483,267.5)"/>
<use xlink:href="#f0_7l" transform="matrix(12,0,0,12,487.2,267.5)"/>
<use xlink:href="#f0_b5" transform="matrix(12,0,0,12,495.1,267.5)"/>
<use xlink:href="#f0_9q" transform="matrix(12,0,0,12,506.3,267.5)"/>
<use xlink:href="#f0_af" transform="matrix(12,0,0,12,510.3,267.5)"/>
<use xlink:href="#f0_89" transform="matrix(12,0,0,12,524.1,267.5)"/>
<use xlink:href="#f0_am" transform="matrix(12,0,0,12,529.4,267.5)"/>
<use xlink:href="#f0_a8" transform="matrix(12,0,0,12,539.1,267.5)"/>
<use xlink:href="#f0_a8" transform="matrix(12,0,0,12,543.5,267.5)"/>
<use xlink:href="#f0_am" transform="matrix(12,0,0,12,547.5,267.5)"/>
<use xlink:href="#f0_ci" transform="matrix(12,0,0,12,557.2,267.5)"/>
<use xlink:href="#f0_9q" transform="matrix(12,0,0,12,570.3,267.5)"/>
<use xlink:href="#f0_af" transform="matrix(12,0,0,12,574.3,267.5)"/>
<use xlink:href="#f0_9d" transform="matrix(12,0,0,12,584,267.5)"/>
<use xlink:href="#f0_b5" transform="matrix(12,0,0,12,596.9,267.5)"/>
<use xlink:href="#f0_7z" transform="matrix(12,0,0,12,603.9,267.5)"/>
<use xlink:href="#f0_b0" transform="matrix(12,0,0,12,613,267.5)"/>
<use xlink:href="#f0_c6" transform="matrix(12,0,0,12,622.6,267.5)"/>
<use xlink:href="#f0_7z" transform="matrix(12,0,0,12,632.5,267.5)"/>
<use xlink:href="#f0_af" transform="matrix(12,0,0,12,641.5,267.5)"/>
<use xlink:href="#f0_7l" transform="matrix(12,0,0,12,651.2,267.5)"/>
<use xlink:href="#f0_7z" transform="matrix(12,0,0,12,658.9,267.5)"/>
<use xlink:href="#f0_b5" transform="matrix(12,0,0,12,668,267.5)"/>
<use xlink:href="#f0_ns" transform="matrix(12,0,0,12,675.2,267.5)"/>
<use xlink:href="#f0_ry" transform="matrix(12,0,0,12,55,322.5)"/>
<use xlink:href="#f0_ow" transform="matrix(12,0,0,12,64.3,322.5)"/>
<use xlink:href="#f0_2g" transform="matrix(12,0,0,12,82.5,322.5)"/>
<use xlink:href="#f0_b1" transform="matrix(12,0,0,12,92,322.5)"/>
<use xlink:href="#f0_7z" transform="matrix(12,0,0,12,98.2,322.5)"/>
<use xlink:href="#f0_7v" transform="matrix(12,0,0,12,107.3,322.5)"/>
<use xlink:href="#f0_9q" transform="matrix(12,0,0,12,117,322.5)"/>
<use xlink:href="#f0_7l" transform="matrix(12,0,0,12,121.2,322.5)"/>
<use xlink:href="#f0_bf" transform="matrix(12,0,0,12,128.9,322.5)"/>
<use xlink:href="#f0_89" transform="matrix(12,0,0,12,139.2,322.5)"/>
<use xlink:href="#f0_b1" transform="matrix(12,0,0,12,144.8,322.5)"/>
<use xlink:href="#f0_am" transform="matrix(12,0,0,12,150.8,322.5)"/>
<use xlink:href="#f0_ae" transform="matrix(12,0,0,12,160.5,322.5)"/>
<use xlink:href="#f0_7l" transform="matrix(12,0,0,12,179.5,322.5)"/>
<use xlink:href="#f0_am" transform="matrix(12,0,0,12,187,322.5)"/>
<use xlink:href="#f0_ae" transform="matrix(12,0,0,12,196.7,322.5)"/>
<use xlink:href="#f0_ay" transform="matrix(12,0,0,12,211.3,322.5)"/>
<use xlink:href="#f0_am" transform="matrix(12,0,0,12,220.9,322.5)"/>
<use xlink:href="#f0_af" transform="matrix(12,0,0,12,230.5,322.5)"/>
<use xlink:href="#f0_7z" transform="matrix(12,0,0,12,240.4,322.5)"/>
<use xlink:href="#f0_af" transform="matrix(12,0,0,12,249.4,322.5)"/>
<use xlink:href="#f0_bf" transform="matrix(12,0,0,12,258.9,322.5)"/>
<use xlink:href="#f0_89" transform="matrix(12,0,0,12,268.9,322.5)"/>
<use xlink:href="#f0_77" transform="matrix(12,0,0,12,274.3,322.5)"/>
<use xlink:href="#f0_7l" transform="matrix(12,0,0,12,283,322.5)"/>
<use xlink:href="#f0_bf" transform="matrix(12,0,0,12,290.8,322.5)"/>
<use xlink:href="#f0_am" transform="matrix(12,0,0,12,296.9,322.5)"/>
<use xlink:href="#f0_b1" transform="matrix(12,0,0,12,306.5,322.5)"/>
<use xlink:href="#f0_b5" transform="matrix(12,0,0,12,312.5,322.5)"/>
<use xlink:href="#f0_nq" transform="matrix(12,0,0,12,319.7,322.5)"/>
<use xlink:href="#f0_a8" transform="matrix(12,0,0,12,328.4,322.5)"/>
<use xlink:href="#f0_9q" transform="matrix(12,0,0,12,332.8,322.5)"/>
<use xlink:href="#f0_af" transform="matrix(12,0,0,12,336.8,322.5)"/>
<use xlink:href="#f0_7z" transform="matrix(12,0,0,12,346.5,322.5)"/>
<use xlink:href="#f0_77" transform="matrix(12,0,0,12,355.6,322.5)"/>
<use xlink:href="#f0_b1" transform="matrix(12,0,0,12,364.4,322.5)"/>
<use xlink:href="#f0_b1" transform="matrix(12,0,0,12,374.9,322.5)"/>
<use xlink:href="#f0_7z" transform="matrix(12,0,0,12,381.1,322.5)"/>
<use xlink:href="#f0_9d" transform="matrix(12,0,0,12,390.3,322.5)"/>
<use xlink:href="#f0_b1" transform="matrix(12,0,0,12,398.7,322.5)"/>
<use xlink:href="#f0_7z" transform="matrix(12,0,0,12,404.9,322.5)"/>
<use xlink:href="#f0_b5" transform="matrix(12,0,0,12,414.1,322.5)"/>
<use xlink:href="#f0_b5" transform="matrix(12,0,0,12,421.4,322.5)"/>
<use xlink:href="#f0_9q" transform="matrix(12,0,0,12,428.6,322.5)"/>
<use xlink:href="#f0_am" transform="matrix(12,0,0,12,432.6,322.5)"/>
<use xlink:href="#f0_af" transform="matrix(12,0,0,12,442.3,322.5)"/>
<use xlink:href="#f0_nt" transform="matrix(12,0,0,12,452.2,322.5)"/>
<use xlink:href="#f0_rz" transform="matrix(12,0,0,12,55,350)"/>
<use xlink:href="#f0_ow" transform="matrix(12,0,0,12,64.3,350)"/>
<use xlink:href="#f0_1x" transform="matrix(12,0,0,12,82.5,350)"/>
<use xlink:href="#f0_77" transform="matrix(12,0,0,12,98.3,350)"/>
<use xlink:href="#f0_a5" transform="matrix(12,0,0,12,107,350)"/>
<use xlink:href="#f0_7z" transform="matrix(12,0,0,12,114.7,350)"/>
<use xlink:href="#f0_7l" transform="matrix(12,0,0,12,128,350)"/>
<use xlink:href="#f0_a8" transform="matrix(12,0,0,12,135.9,350)"/>
<use xlink:href="#f0_77" transform="matrix(12,0,0,12,140.1,350)"/>
<use xlink:href="#f0_b5" transform="matrix(12,0,0,12,148.9,350)"/>
<use xlink:href="#f0_b5" transform="matrix(12,0,0,12,156.1,350)"/>
<use xlink:href="#f0_9q" transform="matrix(12,0,0,12,163.2,350)"/>
<use xlink:href="#f0_89" transform="matrix(12,0,0,12,167.4,350)"/>
<use xlink:href="#f0_9q" transform="matrix(12,0,0,12,173,350)"/>
<use xlink:href="#f0_7l" transform="matrix(12,0,0,12,177.2,350)"/>
<use xlink:href="#f0_77" transform="matrix(12,0,0,12,184.8,350)"/>
<use xlink:href="#f0_bf" transform="matrix(12,0,0,12,193.4,350)"/>
<use xlink:href="#f0_9q" transform="matrix(12,0,0,12,199.6,350)"/>
<use xlink:href="#f0_am" transform="matrix(12,0,0,12,203.6,350)"/>
<use xlink:href="#f0_af" transform="matrix(12,0,0,12,213.3,350)"/>
<use xlink:href="#f0_7v" transform="matrix(12,0,0,12,227.1,350)"/>
<use xlink:href="#f0_7z" transform="matrix(12,0,0,12,236.7,350)"/>
<use xlink:href="#f0_7l" transform="matrix(12,0,0,12,246.1,350)"/>
<use xlink:href="#f0_9q" transform="matrix(12,0,0,12,253.8,350)"/>
<use xlink:href="#f0_b5" transform="matrix(12,0,0,12,258,350)"/>
<use xlink:href="#f0_9q" transform="matrix(12,0,0,12,265.2,350)"/>
<use xlink:href="#f0_am" transform="matrix(12,0,0,12,269.1,350)"/>
<use xlink:href="#f0_af" transform="matrix(12,0,0,12,278.7,350)"/>
<use xlink:href="#f0_b5" transform="matrix(12,0,0,12,288.6,350)"/>
<use xlink:href="#f0_7k" transform="matrix(12,0,0,12,299.8,350)"/>
<use xlink:href="#f0_co" transform="matrix(12,0,0,12,309.5,350)"/>
<use xlink:href="#f0_7z" transform="matrix(12,0,0,12,321.9,350)"/>
<use xlink:href="#f0_cn" transform="matrix(12,0,0,12,330.7,350)"/>
<use xlink:href="#f0_bf" transform="matrix(12,0,0,12,338.6,350)"/>
<use xlink:href="#f0_7z" transform="matrix(12,0,0,12,344.8,350)"/>
<use xlink:href="#f0_af" transform="matrix(12,0,0,12,353.8,350)"/>
<use xlink:href="#f0_7v" transform="matrix(12,0,0,12,363.3,350)"/>
<use xlink:href="#f0_9q" transform="matrix(12,0,0,12,372.9,350)"/>
<use xlink:href="#f0_af" transform="matrix(12,0,0,12,377.3,350)"/>
<use xlink:href="#f0_9d" transform="matrix(12,0,0,12,387,350)"/>
<use xlink:href="#f0_a8" transform="matrix(12,0,0,12,399.5,350)"/>
<use xlink:href="#f0_9q" transform="matrix(12,0,0,12,403.9,350)"/>
<use xlink:href="#f0_af" transform="matrix(12,0,0,12,408.2,350)"/>
<use xlink:href="#f0_7z" transform="matrix(12,0,0,12,417.7,350)"/>
<use xlink:href="#f0_77" transform="matrix(12,0,0,12,426.8,350)"/>
<use xlink:href="#f0_b1" transform="matrix(12,0,0,12,435.6,350)"/>
<use xlink:href="#f0_b1" transform="matrix(12,0,0,12,446,350)"/>
<use xlink:href="#f0_7z" transform="matrix(12,0,0,12,452.1,350)"/>
<use xlink:href="#f0_9d" transform="matrix(12,0,0,12,461.2,350)"/>
<use xlink:href="#f0_b1" transform="matrix(12,0,0,12,469.8,350)"/>
<use xlink:href="#f0_7z" transform="matrix(12,0,0,12,476.1,350)"/>
<use xlink:href="#f0_b5" transform="matrix(12,0,0,12,485.2,350)"/>
<use xlink:href="#f0_b5" transform="matrix(12,0,0,12,492.5,350)"/>
<use xlink:href="#f0_9q" transform="matrix(12,0,0,12,499.7,350)"/>
<use xlink:href="#f0_am" transform="matrix(12,0,0,12,503.9,350)"/>
<use xlink:href="#f0_af" transform="matrix(12,0,0,12,513.6,350)"/>
<use xlink:href="#f0_bf" transform="matrix(12,0,0,12,527.2,350)"/>
<use xlink:href="#f0_am" transform="matrix(12,0,0,12,533.1,350)"/>
<use xlink:href="#f0_a8" transform="matrix(12,0,0,12,547.2,350)"/>
<use xlink:href="#f0_am" transform="matrix(12,0,0,12,551.4,350)"/>
<use xlink:href="#f0_9d" transform="matrix(12,0,0,12,561,350)"/>
<use xlink:href="#f0_9q" transform="matrix(12,0,0,12,569.7,350)"/>
<use xlink:href="#f0_b5" transform="matrix(12,0,0,12,573.9,350)"/>
<use xlink:href="#f0_bf" transform="matrix(12,0,0,12,580.7,350)"/>
<use xlink:href="#f0_9q" transform="matrix(12,0,0,12,586.9,350)"/>
<use xlink:href="#f0_7l" transform="matrix(12,0,0,12,591.1,350)"/>
<use xlink:href="#f0_77" transform="matrix(12,0,0,12,598.6,350)"/>
<use xlink:href="#f0_a8" transform="matrix(12,0,0,12,607.4,350)"/>
<use xlink:href="#f0_b1" transform="matrix(12,0,0,12,615.8,350)"/>
<use xlink:href="#f0_7z" transform="matrix(12,0,0,12,621.8,350)"/>
<use xlink:href="#f0_9d" transform="matrix(12,0,0,12,630.9,350)"/>
<use xlink:href="#f0_b1" transform="matrix(12,0,0,12,639.7,350)"/>
<use xlink:href="#f0_7z" transform="matrix(12,0,0,12,646,350)"/>
<use xlink:href="#f0_b5" transform="matrix(12,0,0,12,655.1,350)"/>
<use xlink:href="#f0_b5" transform="matrix(12,0,0,12,662.3,350)"/>
<use xlink:href="#f0_9q" transform="matrix(12,0,0,12,669.4,350)"/>
<use xlink:href="#f0_am" transform="matrix(12,0,0,12,673.6,350)"/>
<use xlink:href="#f0_af" transform="matrix(12,0,0,12,683.3,350)"/>
<use xlink:href="#f0_nt" transform="matrix(12,0,0,12,692.9,350)"/>
<use xlink:href="#f0_s0" transform="matrix(12,0,0,12,55,377.5)"/>
<use xlink:href="#f0_ow" transform="matrix(12,0,0,12,64.3,377.5)"/>
<use xlink:href="#f0_2g" transform="matrix(12,0,0,12,82.5,377.5)"/>
<use xlink:href="#f0_77" transform="matrix(12,0,0,12,91.7,377.5)"/>
<use xlink:href="#f0_bf" transform="matrix(12,0,0,12,100.3,377.5)"/>
<use xlink:href="#f0_bf" transform="matrix(12,0,0,12,106.2,377.5)"/>
<use xlink:href="#f0_7z" transform="matrix(12,0,0,12,112.3,377.5)"/>
<use xlink:href="#f0_b1" transform="matrix(12,0,0,12,121.3,377.5)"/>
<use xlink:href="#f0_af" transform="matrix(12,0,0,12,127.5,377.5)"/>
<use xlink:href="#f0_b5" transform="matrix(12,0,0,12,137.1,377.5)"/>
<use xlink:href="#f0_7l" transform="matrix(12,0,0,12,148.6,377.5)"/>
<use xlink:href="#f0_a8" transform="matrix(12,0,0,12,156.4,377.5)"/>
<use xlink:href="#f0_77" transform="matrix(12,0,0,12,160.6,377.5)"/>
<use xlink:href="#f0_b5" transform="matrix(12,0,0,12,169.4,377.5)"/>
<use xlink:href="#f0_b5" transform="matrix(12,0,0,12,176.5,377.5)"/>
<use xlink:href="#f0_9q" transform="matrix(12,0,0,12,183.7,377.5)"/>
<use xlink:href="#f0_89" transform="matrix(12,0,0,12,187.9,377.5)"/>
<use xlink:href="#f0_9q" transform="matrix(12,0,0,12,193.5,377.5)"/>
<use xlink:href="#f0_7l" transform="matrix(12,0,0,12,197.9,377.5)"/>
<use xlink:href="#f0_77" transform="matrix(12,0,0,12,205.4,377.5)"/>
<use xlink:href="#f0_bf" transform="matrix(12,0,0,12,214,377.5)"/>
<use xlink:href="#f0_9q" transform="matrix(12,0,0,12,220.3,377.5)"/>
<use xlink:href="#f0_am" transform="matrix(12,0,0,12,224.3,377.5)"/>
<use xlink:href="#f0_af" transform="matrix(12,0,0,12,234,377.5)"/>
<use xlink:href="#f0_77" transform="matrix(12,0,0,12,247.7,377.5)"/>
<use xlink:href="#f0_af" transform="matrix(12,0,0,12,256.4,377.5)"/>
<use xlink:href="#f0_7v" transform="matrix(12,0,0,12,266,377.5)"/>
<use xlink:href="#f0_7v" transform="matrix(12,0,0,12,280,377.5)"/>
<use xlink:href="#f0_7z" transform="matrix(12,0,0,12,289.5,377.5)"/>
<use xlink:href="#f0_7l" transform="matrix(12,0,0,12,298.7,377.5)"/>
<use xlink:href="#f0_9q" transform="matrix(12,0,0,12,306.4,377.5)"/>
<use xlink:href="#f0_b5" transform="matrix(12,0,0,12,310.6,377.5)"/>
<use xlink:href="#f0_9q" transform="matrix(12,0,0,12,317.8,377.5)"/>
<use xlink:href="#f0_am" transform="matrix(12,0,0,12,322,377.5)"/>
<use xlink:href="#f0_af" transform="matrix(12,0,0,12,331.7,377.5)"/>
<use xlink:href="#f0_ae" transform="matrix(12,0,0,12,345.4,377.5)"/>
<use xlink:href="#f0_77" transform="matrix(12,0,0,12,360.1,377.5)"/>
<use xlink:href="#f0_a5" transform="matrix(12,0,0,12,368.9,377.5)"/>
<use xlink:href="#f0_9q" transform="matrix(12,0,0,12,377.2,377.5)"/>
<use xlink:href="#f0_af" transform="matrix(12,0,0,12,381.4,377.5)"/>
<use xlink:href="#f0_9d" transform="matrix(12,0,0,12,391,377.5)"/>
<use xlink:href="#f0_b5" transform="matrix(12,0,0,12,399.7,377.5)"/>
<use xlink:href="#f0_nt" transform="matrix(12,0,0,12,406.8,377.5)"/>
<use xlink:href="#f0_s1" transform="matrix(12,0,0,12,55,405)"/>
<use xlink:href="#f0_ow" transform="matrix(12,0,0,12,64.3,405)"/>
<use xlink:href="#f0_j" transform="matrix(12,0,0,12,82.5,405)"/>
<use xlink:href="#f0_am" transform="matrix(12,0,0,12,92.3,405)"/>
<use xlink:href="#f0_ae" transform="matrix(12,0,0,12,101.9,405)"/>
<use xlink:href="#f0_ae" transform="matrix(12,0,0,12,116.6,405)"/>
<use xlink:href="#f0_am" transform="matrix(12,0,0,12,131.2,405)"/>
<use xlink:href="#f0_af" transform="matrix(12,0,0,12,140.9,405)"/>
<use xlink:href="#f0_ay" transform="matrix(12,0,0,12,154.7,405)"/>
<use xlink:href="#f0_9q" transform="matrix(12,0,0,12,164.3,405)"/>
<use xlink:href="#f0_bf" transform="matrix(12,0,0,12,168.7,405)"/>
<use xlink:href="#f0_89" transform="matrix(12,0,0,12,174.9,405)"/>
<use xlink:href="#f0_77" transform="matrix(12,0,0,12,180,405)"/>
<use xlink:href="#f0_a8" transform="matrix(12,0,0,12,188.8,405)"/>
<use xlink:href="#f0_a8" transform="matrix(12,0,0,12,193,405)"/>
<use xlink:href="#f0_b5" transform="matrix(12,0,0,12,197.2,405)"/>
<use xlink:href="#f0_89" transform="matrix(12,0,0,12,208.4,405)"/>
<use xlink:href="#f0_b1" transform="matrix(12,0,0,12,214,405)"/>
<use xlink:href="#f0_am" transform="matrix(12,0,0,12,220.2,405)"/>
<use xlink:href="#f0_ae" transform="matrix(12,0,0,12,229.9,405)"/>
<use xlink:href="#f0_b5" transform="matrix(12,0,0,12,248.7,405)"/>
<use xlink:href="#f0_9q" transform="matrix(12,0,0,12,256,405)"/>
<use xlink:href="#f0_9d" transform="matrix(12,0,0,12,260.2,405)"/>
<use xlink:href="#f0_af" transform="matrix(12,0,0,12,268.7,405)"/>
<use xlink:href="#f0_77" transform="matrix(12,0,0,12,278.3,405)"/>
<use xlink:href="#f0_a8" transform="matrix(12,0,0,12,287.1,405)"/>
<use xlink:href="#f0_nq" transform="matrix(12,0,0,12,291.3,405)"/>
<use xlink:href="#f0_9q" transform="matrix(12,0,0,12,300,405)"/>
<use xlink:href="#f0_af" transform="matrix(12,0,0,12,304.4,405)"/>
<use xlink:href="#f0_89" transform="matrix(12,0,0,12,313.7,405)"/>
<use xlink:href="#f0_am" transform="matrix(12,0,0,12,319.1,405)"/>
<use xlink:href="#f0_b1" transform="matrix(12,0,0,12,328.7,405)"/>
<use xlink:href="#f0_ae" transform="matrix(12,0,0,12,335.1,405)"/>
<use xlink:href="#f0_77" transform="matrix(12,0,0,12,349.8,405)"/>
<use xlink:href="#f0_bf" transform="matrix(12,0,0,12,358.2,405)"/>
<use xlink:href="#f0_9q" transform="matrix(12,0,0,12,364.4,405)"/>
<use xlink:href="#f0_am" transform="matrix(12,0,0,12,368.6,405)"/>
<use xlink:href="#f0_af" transform="matrix(12,0,0,12,378.2,405)"/>
<use xlink:href="#f0_bf" transform="matrix(12,0,0,12,392.2,405)"/>
<use xlink:href="#f0_am" transform="matrix(12,0,0,12,398.1,405)"/>
<use xlink:href="#f0_7v" transform="matrix(12,0,0,12,411.9,405)"/>
<use xlink:href="#f0_77" transform="matrix(12,0,0,12,421.4,405)"/>
<use xlink:href="#f0_bf" transform="matrix(12,0,0,12,430,405)"/>
<use xlink:href="#f0_77" transform="matrix(12,0,0,12,436.2,405)"/>
<use xlink:href="#f0_77" transform="matrix(12,0,0,12,448.8,405)"/>
<use xlink:href="#f0_af" transform="matrix(12,0,0,12,457.6,405)"/>
<use xlink:href="#f0_77" transform="matrix(12,0,0,12,467.2,405)"/>
<use xlink:href="#f0_a8" transform="matrix(12,0,0,12,476,405)"/>
<use xlink:href="#f0_co" transform="matrix(12,0,0,12,480.4,405)"/>
<use xlink:href="#f0_b5" transform="matrix(12,0,0,12,488.5,405)"/>
<use xlink:href="#f0_9q" transform="matrix(12,0,0,12,495.7,405)"/>
<use xlink:href="#f0_b5" transform="matrix(12,0,0,12,499.7,405)"/>
<use xlink:href="#f0_nt" transform="matrix(12,0,0,12,506.9,405)"/>
<use xlink:href="#f0_13" transform="matrix(12,0,0,12,55,460)"/>
<use xlink:href="#f0_am" transform="matrix(12,0,0,12,63.3,460)"/>
<use xlink:href="#f0_b1" transform="matrix(12,0,0,12,72.9,460)"/>
<use xlink:href="#f0_b5" transform="matrix(12,0,0,12,83.5,460)"/>
<use xlink:href="#f0_7z" transform="matrix(12,0,0,12,90.8,460)"/>
<use xlink:href="#f0_b5" transform="matrix(12,0,0,12,99.9,460)"/>
<use xlink:href="#f0_b5" transform="matrix(12,0,0,12,107.1,460)"/>
<use xlink:href="#f0_9q" transform="matrix(12,0,0,12,114.3,460)"/>
<use xlink:href="#f0_am" transform="matrix(12,0,0,12,118.5,460)"/>
<use xlink:href="#f0_af" transform="matrix(12,0,0,12,128,460)"/>
<use xlink:href="#f0_ci" transform="matrix(12,0,0,12,141.8,460)"/>
<use xlink:href="#f0_9q" transform="matrix(12,0,0,12,155,460)"/>
<use xlink:href="#f0_bf" transform="matrix(12,0,0,12,159.2,460)"/>
<use xlink:href="#f0_9n" transform="matrix(12,0,0,12,165.3,460)"/>
<use xlink:href="#f0_bf" transform="matrix(12,0,0,12,178.9,460)"/>
<use xlink:href="#f0_9n" transform="matrix(12,0,0,12,185.1,460)"/>
<use xlink:href="#f0_7z" transform="matrix(12,0,0,12,194.8,460)"/>
<use xlink:href="#f0_nv" transform="matrix(12,0,0,12,208,460)"/>
<use xlink:href="#f0_7l" transform="matrix(12,0,0,12,211.7,460)"/>
<use xlink:href="#f0_9n" transform="matrix(12,0,0,12,219.4,460)"/>
<use xlink:href="#f0_77" transform="matrix(12,0,0,12,229.1,460)"/>
<use xlink:href="#f0_a8" transform="matrix(12,0,0,12,238.1,460)"/>
<use xlink:href="#f0_a8" transform="matrix(12,0,0,12,242.1,460)"/>
<use xlink:href="#f0_7z" transform="matrix(12,0,0,12,246.3,460)"/>
<use xlink:href="#f0_af" transform="matrix(12,0,0,12,255.4,460)"/>
<use xlink:href="#f0_9d" transform="matrix(12,0,0,12,265.1,460)"/>
<use xlink:href="#f0_7z" transform="matrix(12,0,0,12,273.5,460)"/>
<use xlink:href="#f0_nw" transform="matrix(12,0,0,12,282.6,460)"/>
<use xlink:href="#f0_9q" transform="matrix(12,0,0,12,291.5,460)"/>
<use xlink:href="#f0_7l" transform="matrix(12,0,0,12,295.7,460)"/>
<use xlink:href="#f0_am" transform="matrix(12,0,0,12,303.2,460)"/>
<use xlink:href="#f0_af" transform="matrix(12,0,0,12,312.9,460)"/>
<use xlink:href="#f0_7k" transform="matrix(12,0,0,12,326.6,460)"/>
<use xlink:href="#f0_7z" transform="matrix(12,0,0,12,336.2,460)"/>
<use xlink:href="#f0_a8" transform="matrix(12,0,0,12,345.3,460)"/>
<use xlink:href="#f0_am" transform="matrix(12,0,0,12,349.6,460)"/>
<use xlink:href="#f0_ci" transform="matrix(12,0,0,12,359.2,460)"/>
<use xlink:href="#f0_nq" transform="matrix(12,0,0,12,370.8,460)"/>
<use xlink:href="#f0_co" transform="matrix(12,0,0,12,379.5,460)"/>
<use xlink:href="#f0_am" transform="matrix(12,0,0,12,387.6,460)"/>
<use xlink:href="#f0_c6" transform="matrix(12,0,0,12,397.2,460)"/>
<use xlink:href="#f0_7l" transform="matrix(12,0,0,12,410.9,460)"/>
<use xlink:href="#f0_77" transform="matrix(12,0,0,12,418.7,460)"/>
<use xlink:href="#f0_af" transform="matrix(12,0,0,12,427.3,460)"/>
<use xlink:href="#f0_b5" transform="matrix(12,0,0,12,441.3,460)"/>
<use xlink:href="#f0_a5" transform="matrix(12,0,0,12,448.5,460)"/>
<use xlink:href="#f0_9q" transform="matrix(12,0,0,12,456.8,460)"/>
<use xlink:href="#f0_ay" transform="matrix(12,0,0,12,460.8,460)"/>
<use xlink:href="#f0_9q" transform="matrix(12,0,0,12,474.9,460)"/>
<use xlink:href="#f0_bf" transform="matrix(12,0,0,12,478.9,460)"/>
<use xlink:href="#f0_ci" transform="matrix(12,0,0,12,489.3,460)"/>
<use xlink:href="#f0_9q" transform="matrix(12,0,0,12,502.4,460)"/>
<use xlink:href="#f0_bf" transform="matrix(12,0,0,12,506.6,460)"/>
<use xlink:href="#f0_9n" transform="matrix(12,0,0,12,512.7,460)"/>
<use xlink:href="#f0_am" transform="matrix(12,0,0,12,522.3,460)"/>
<use xlink:href="#f0_c6" transform="matrix(12,0,0,12,531.9,460)"/>
<use xlink:href="#f0_bf" transform="matrix(12,0,0,12,541.6,460)"/>
<use xlink:href="#f0_a8" transform="matrix(12,0,0,12,552,460)"/>
<use xlink:href="#f0_am" transform="matrix(12,0,0,12,556,460)"/>
<use xlink:href="#f0_b5" transform="matrix(12,0,0,12,565.7,460)"/>
<use xlink:href="#f0_b5" transform="matrix(12,0,0,12,573,460)"/>
<use xlink:href="#f0_am" transform="matrix(12,0,0,12,584.3,460)"/>
<use xlink:href="#f0_89" transform="matrix(12,0,0,12,594,460)"/>
<use xlink:href="#f0_b1" transform="matrix(12,0,0,12,603.6,460)"/>
<use xlink:href="#f0_7z" transform="matrix(12,0,0,12,609.9,460)"/>
<use xlink:href="#f0_77" transform="matrix(12,0,0,12,619,460)"/>
<use xlink:href="#f0_7v" transform="matrix(12,0,0,12,627.8,460)"/>
<use xlink:href="#f0_9q" transform="matrix(12,0,0,12,637.4,460)"/>
<use xlink:href="#f0_af" transform="matrix(12,0,0,12,641.6,460)"/>
<use xlink:href="#f0_9d" transform="matrix(12,0,0,12,651.2,460)"/>
<use xlink:href="#f0_7l" transform="matrix(12,0,0,12,664,460)"/>
<use xlink:href="#f0_am" transform="matrix(12,0,0,12,671.5,460)"/>
<use xlink:href="#f0_af" transform="matrix(12,0,0,12,681.2,460)"/>
<use xlink:href="#f0_bf" transform="matrix(12,0,0,12,690.7,460)"/>
<use xlink:href="#f0_9q" transform="matrix(12,0,0,12,697,460)"/>
<use xlink:href="#f0_af" transform="matrix(12,0,0,12,701,460)"/>
<use xlink:href="#f0_c6" transform="matrix(12,0,0,12,710.6,460)"/>
<use xlink:href="#f0_77" transform="matrix(12,0,0,12,720.5,460)"/>
<use xlink:href="#f0_a8" transform="matrix(12,0,0,12,729.3,460)"/>
<use xlink:href="#f0_a8" transform="matrix(12,0,0,12,733.5,460)"/>
<use xlink:href="#f0_co" transform="matrix(12,0,0,12,737.7,460)"/>
<use xlink:href="#f0_7k" transform="matrix(12,0,0,12,749.9,460)"/>
<use xlink:href="#f0_c6" transform="matrix(12,0,0,12,759.8,460)"/>
<use xlink:href="#f0_bf" transform="matrix(12,0,0,12,769.4,460)"/>
<use xlink:href="#f0_9q" transform="matrix(12,0,0,12,779.7,460)"/>
<use xlink:href="#f0_bf" transform="matrix(12,0,0,12,783.8,460)"/>
<use xlink:href="#f0_ci" transform="matrix(12,0,0,12,794,460)"/>
<use xlink:href="#f0_9q" transform="matrix(12,0,0,12,807.2,460)"/>
<use xlink:href="#f0_a8" transform="matrix(12,0,0,12,811.2,460)"/>
<use xlink:href="#f0_a8" transform="matrix(12,0,0,12,815.4,460)"/>
<use xlink:href="#f0_9n" transform="matrix(12,0,0,12,55,487.5)"/>
<use xlink:href="#f0_7z" transform="matrix(12,0,0,12,64.6,487.5)"/>
<use xlink:href="#f0_a8" transform="matrix(12,0,0,12,73.8,487.5)"/>
<use xlink:href="#f0_ay" transform="matrix(12,0,0,12,78.2,487.5)"/>
<use xlink:href="#f0_co" transform="matrix(12,0,0,12,91.8,487.5)"/>
<use xlink:href="#f0_am" transform="matrix(12,0,0,12,99.9,487.5)"/>
<use xlink:href="#f0_c6" transform="matrix(12,0,0,12,109.6,487.5)"/>
<use xlink:href="#f0_bf" transform="matrix(12,0,0,12,123.2,487.5)"/>
<use xlink:href="#f0_am" transform="matrix(12,0,0,12,129.5,487.5)"/>
<use xlink:href="#f0_c6" transform="matrix(12,0,0,12,143.2,487.5)"/>
<use xlink:href="#f0_af" transform="matrix(12,0,0,12,152.7,487.5)"/>
<use xlink:href="#f0_7v" transform="matrix(12,0,0,12,162.3,487.5)"/>
<use xlink:href="#f0_7z" transform="matrix(12,0,0,12,172.2,487.5)"/>
<use xlink:href="#f0_b1" transform="matrix(12,0,0,12,181.3,487.5)"/>
<use xlink:href="#f0_b5" transform="matrix(12,0,0,12,187.4,487.5)"/>
<use xlink:href="#f0_bf" transform="matrix(12,0,0,12,194.2,487.5)"/>
<use xlink:href="#f0_77" transform="matrix(12,0,0,12,200.3,487.5)"/>
<use xlink:href="#f0_af" transform="matrix(12,0,0,12,208.9,487.5)"/>
<use xlink:href="#f0_7v" transform="matrix(12,0,0,12,218.5,487.5)"/>
<use xlink:href="#f0_bf" transform="matrix(12,0,0,12,232.3,487.5)"/>
<use xlink:href="#f0_9n" transform="matrix(12,0,0,12,238.4,487.5)"/>
<use xlink:href="#f0_7z" transform="matrix(12,0,0,12,248,487.5)"/>
<use xlink:href="#f0_bf" transform="matrix(12,0,0,12,261.2,487.5)"/>
<use xlink:href="#f0_am" transform="matrix(12,0,0,12,267.3,487.5)"/>
<use xlink:href="#f0_ay" transform="matrix(12,0,0,12,277,487.5)"/>
<use xlink:href="#f0_9q" transform="matrix(12,0,0,12,286.6,487.5)"/>
<use xlink:href="#f0_7l" transform="matrix(12,0,0,12,291,487.5)"/>
<use xlink:href="#f0_7v" transform="matrix(12,0,0,12,302.6,487.5)"/>
<use xlink:href="#f0_7z" transform="matrix(12,0,0,12,312.3,487.5)"/>
<use xlink:href="#f0_7z" transform="matrix(12,0,0,12,321.6,487.5)"/>
<use xlink:href="#f0_ay" transform="matrix(12,0,0,12,330.6,487.5)"/>
<use xlink:href="#f0_7z" transform="matrix(12,0,0,12,340.2,487.5)"/>
<use xlink:href="#f0_b1" transform="matrix(12,0,0,12,349.3,487.5)"/>
<use xlink:href="#f0_89" transform="matrix(12,0,0,12,359.9,487.5)"/>
<use xlink:href="#f0_am" transform="matrix(12,0,0,12,365.2,487.5)"/>
<use xlink:href="#f0_b1" transform="matrix(12,0,0,12,374.7,487.5)"/>
<use xlink:href="#f0_b1" transform="matrix(12,0,0,12,385.3,487.5)"/>
<use xlink:href="#f0_7z" transform="matrix(12,0,0,12,391.5,487.5)"/>
<use xlink:href="#f0_77" transform="matrix(12,0,0,12,400.6,487.5)"/>
<use xlink:href="#f0_a8" transform="matrix(12,0,0,12,409.4,487.5)"/>
<use xlink:href="#f0_oj" transform="matrix(12,0,0,12,413.6,487.5)"/>
<use xlink:href="#f0_a8" transform="matrix(12,0,0,12,419.2,487.5)"/>
<use xlink:href="#f0_9q" transform="matrix(12,0,0,12,423.3,487.5)"/>
<use xlink:href="#f0_89" transform="matrix(12,0,0,12,427.5,487.5)"/>
<use xlink:href="#f0_7z" transform="matrix(12,0,0,12,432.8,487.5)"/>
<use xlink:href="#f0_77" transform="matrix(12,0,0,12,445.9,487.5)"/>
<use xlink:href="#f0_ay" transform="matrix(12,0,0,12,454.9,487.5)"/>
<use xlink:href="#f0_ay" transform="matrix(12,0,0,12,464.4,487.5)"/>
<use xlink:href="#f0_a8" transform="matrix(12,0,0,12,474.1,487.5)"/>
<use xlink:href="#f0_9q" transform="matrix(12,0,0,12,478.3,487.5)"/>
<use xlink:href="#f0_7l" transform="matrix(12,0,0,12,482.5,487.5)"/>
<use xlink:href="#f0_77" transform="matrix(12,0,0,12,490,487.5)"/>
<use xlink:href="#f0_bf" transform="matrix(12,0,0,12,498.6,487.5)"/>
<use xlink:href="#f0_9q" transform="matrix(12,0,0,12,504.8,487.5)"/>
<use xlink:href="#f0_am" transform="matrix(12,0,0,12,509.1,487.5)"/>
<use xlink:href="#f0_af" transform="matrix(12,0,0,12,518.6,487.5)"/>
<use xlink:href="#f0_b5" transform="matrix(12,0,0,12,528.2,487.5)"/>
<use xlink:href="#f0_nt" transform="matrix(12,0,0,12,535.6,487.5)"/>
</g>
<image clip-path="url(#c0_1)" preserveAspectRatio="none" x="418" y="507" width="73" height="31" xlink:href="img/1.jpg"/>
</svg>