<?xml version="1.0" encoding="UTF-8" standalone="no"?>
<!DOCTYPE svg PUBLIC "-//W3C//DTD SVG 1.1//EN"
"http://www.w3.org/Graphics/SVG/1.1/DTD/svg11.dtd">
<svg viewBox="0 0 909 1286" version="1.1" xmlns="http://www.w3.org/2000/svg" xmlns:xlink="http://www.w3.org/1999/xlink">
<defs>
<clipPath id="c0_1"><path d="M0,1286.3V0H909.3V1286.3Z"/></clipPath>
<clipPath id="c1_1"><path d="M418.1,703.5v-32h73.2v32Z"/></clipPath>
<path d="M198,-4c0,0,-27,0,-45,2c0,0,-18,2,-28,5c0,0,-11,4,-15,10c0,0,-4,6,-4,13V887c0,0,0,38,20,58c0,0,20,20,53,20H308c0,0,34,0,59,-6c0,0,24,-5,42,-18c0,0,18,-13,30,-35c0,0,12,-21,21,-52L669,279h3L889,852c0,0,9,32,21,53c0,0,11,22,27,35c0,0,15,14,36,19c0,0,21,6,48,6h132c0,0,21,0,35,-5c0,0,15,-5,24,-15c0,0,9,-11,14,-25c0,0,5,-15,5,-33V26c0,0,0,-7,-4,-13c0,0,-4,-6,-15,-10c0,0,-11,-3,-29,-5c0,0,-18,-2,-45,-2c0,0,-27,0,-45,2c0,0,-18,2,-28,5c0,0,-11,4,-15,10c0,0,-5,6,-5,13V813h-1L764,27c0,0,-3,-10,-10,-16c0,0,-6,-6,-18,-10c0,0,-12,-3,-29,-4c0,0,-18,-1,-44,-1c0,0,-25,0,-43,2c0,0,-18,2,-29,5c0,0,-12,4,-19,10c0,0,-6,6,-9,14L293,813h-2V26c0,0,0,-7,-4,-13c0,0,-4,-6,-15,-10c0,0,-11,-3,-29,-5c0,0,-17,-2,-45,-2Z"
id="f0_1x"
transform="scale(0.001,-0.001)"/>

<path d="M337,115c0,0,39,0,73,21c0,0,33,20,67,59V308H405c0,0,-45,0,-77,-7c0,0,-32,-6,-53,-20c0,0,-20,-13,-29,-32c0,0,-9,-19,-9,-44c0,0,0,-42,26,-66c0,0,27,-24,74,-24ZM296,-17c0,0,-53,0,-98,14c0,0,-44,13,-77,40c0,0,-32,28,-50,68c0,0,-18,40,-18,94c0,0,0,58,23,101c0,0,22,43,68,71c0,0,45,28,112,42c0,0,67,13,156,13h65v40c0,0,0,32,-6,55c0,0,-7,24,-21,39c0,0,-15,16,-39,23c0,0,-24,8,-60,8c0,0,-47,0,-84,-11c0,0,-37,-10,-66,-23c0,0,-28,-13,-47,-23c0,0,-19,-11,-31,-11c0,0,-9,0,-15,5c0,0,-6,6,-10,15c0,0,-5,10,-7,24c0,0,-2,14,-2,31c0,0,0,23,4,37c0,0,3,13,14,24c0,0,10,11,36,24c0,0,27,13,62,25c0,0,35,11,76,18c0,0,42,7,86,7c0,0,78,0,134,-15c0,0,55,-15,91,-47c0,0,36,-32,53,-82c0,0,16,-50,16,-118V23c0,0,0,-11,-7,-17c0,0,-8,-6,-24,-7c0,0,-16,-3,-47,-3c0,0,-34,0,-49,3c0,0,-15,1,-21,7c0,0,-7,6,-7,17V76C506,76,465,32,412,7c0,0,-52,-24,-116,-24Z"
id="f0_77"
transform="scale(0.001,-0.001)"/>

<path d="M371,-16c0,0,-77,0,-136,23c0,0,-60,24,-100,71c0,0,-40,47,-61,114c0,0,-20,67,-20,154c0,0,0,100,25,173c0,0,25,72,69,120c0,0,45,48,106,71c0,0,62,23,135,23c0,0,29,0,58,-5c0,0,29,-5,54,-14c0,0,25,-9,45,-20c0,0,19,-12,28,-20c0,0,8,-8,11,-14c0,0,3,-5,5,-14c0,0,2,-9,3,-22c0,0,1,-13,1,-32c0,0,0,-43,-7,-61c0,0,-7,-18,-19,-18c0,0,-13,0,-27,11c0,0,-14,10,-34,23c0,0,-19,13,-46,23c0,0,-27,11,-64,11c0,0,-73,0,-112,-57c0,0,-39,-56,-39,-165c0,0,0,-54,10,-95c0,0,10,-41,29,-69c0,0,19,-28,47,-41c0,0,29,-14,67,-14c0,0,39,0,67,11c0,0,28,12,49,26c0,0,21,14,35,26c0,0,14,11,24,11c0,0,6,0,11,-4c0,0,4,-3,7,-13c0,0,2,-11,4,-26c0,0,1,-16,1,-41c0,0,0,-19,-1,-32c0,0,-1,-13,-3,-22c0,0,-2,-9,-4,-15c0,0,-3,-5,-12,-14c0,0,-9,-8,-30,-20C547,27,525,14,497,5c0,0,-27,-9,-60,-15c0,0,-32,-6,-66,-6Z"
id="f0_7l"
transform="scale(0.001,-0.001)"/>

<path d="M188,-4c0,0,-28,0,-46,2c0,0,-18,2,-28,5c0,0,-11,3,-16,9c0,0,-4,5,-4,13v981c0,0,0,8,4,14c0,0,5,6,16,10c0,0,10,4,28,6c0,0,18,2,46,2c0,0,27,0,45,-2c0,0,18,-2,29,-6c0,0,11,-4,15,-10c0,0,5,-6,5,-14V639c0,0,48,47,98,71c0,0,51,23,105,23c0,0,68,0,115,-22c0,0,47,-22,75,-61c0,0,29,-39,42,-91c0,0,12,-52,12,-126V25c0,0,0,-8,-4,-13c0,0,-5,-6,-15,-9c0,0,-10,-3,-29,-5c0,0,-18,-2,-45,-2c0,0,-28,0,-46,2c0,0,-18,2,-29,5c0,0,-10,3,-15,9c0,0,-4,6,-4,13V405c0,0,0,49,-7,76c0,0,-7,28,-21,48c0,0,-13,19,-35,30c0,0,-21,11,-49,11c0,0,-36,0,-72,-26c0,0,-37,-26,-76,-76V25c0,0,0,-7,-5,-13c0,0,-4,-6,-15,-9c0,0,-11,-3,-29,-5c0,0,-18,-2,-45,-2Z"
id="f0_9n"
transform="scale(0.001,-0.001)"/>

<path d="M188,-4c0,0,-28,0,-46,2c0,0,-18,2,-28,5c0,0,-11,3,-16,9c0,0,-4,5,-4,13V689c0,0,0,8,4,13c0,0,5,6,16,10c0,0,10,4,28,6c0,0,18,3,46,3c0,0,27,0,45,-3c0,0,18,-2,29,-6c0,0,11,-4,15,-10c0,0,5,-5,5,-13V25c0,0,0,-8,-5,-13c0,0,-4,-6,-15,-9c0,0,-11,-3,-29,-5c0,0,-18,-2,-45,-2Zm-1,820c0,0,-63,0,-85,21c0,0,-22,21,-22,75c0,0,0,57,23,79c0,0,23,22,86,22c0,0,63,0,85,-21c0,0,22,-21,22,-76c0,0,0,-56,-23,-78c0,0,-23,-22,-86,-22Z"
id="f0_9q"
transform="scale(0.001,-0.001)"/>

<path d="M188,-4c0,0,-28,0,-46,2c0,0,-18,2,-28,5c0,0,-11,3,-16,9c0,0,-4,5,-4,13V691c0,0,0,7,4,13c0,0,3,5,13,9c0,0,10,4,25,6c0,0,15,2,38,2c0,0,24,0,40,-2c0,0,15,-2,24,-6c0,0,9,-4,12,-9c0,0,4,-6,4,-13V614c0,0,55,60,112,89c0,0,57,30,119,30c0,0,68,0,115,-22c0,0,47,-22,75,-61c0,0,29,-38,42,-90c0,0,12,-51,12,-124V25c0,0,0,-8,-4,-13c0,0,-5,-6,-15,-9c0,0,-10,-3,-29,-5c0,0,-18,-2,-45,-2c0,0,-28,0,-46,2c0,0,-18,2,-29,5c0,0,-10,3,-15,9c0,0,-4,6,-4,13V405c0,0,0,49,-7,76c0,0,-7,28,-21,48c0,0,-13,19,-35,30c0,0,-21,11,-49,11c0,0,-36,0,-72,-26c0,0,-37,-26,-76,-76V25c0,0,0,-7,-5,-13c0,0,-4,-6,-15,-9c0,0,-11,-3,-29,-5c0,0,-18,-2,-45,-2Z"
id="f0_af"
transform="scale(0.001,-0.001)"/>

<path d="M526,431c0,0,2,79,-32,124c0,0,-34,45,-105,45c0,0,-35,0,-62,-13c0,0,-26,-13,-44,-36c0,0,-17,-23,-27,-54c0,0,-9,-31,-11,-66ZM410,-17c0,0,-88,0,-155,22c0,0,-67,22,-112,68c0,0,-44,45,-66,115c0,0,-22,69,-22,162c0,0,0,89,23,161c0,0,23,71,67,120c0,0,44,50,107,76c0,0,63,26,142,26c0,0,84,0,143,-24c0,0,59,-25,97,-69c0,0,38,-43,56,-103c0,0,18,-60,18,-130V377c0,0,0,-34,-15,-51c0,0,-16,-16,-43,-16H245c0,0,0,-43,10,-77c0,0,11,-35,33,-59c0,0,22,-24,56,-37c0,0,35,-13,83,-13c0,0,50,0,87,7c0,0,37,8,65,16c0,0,27,9,45,16c0,0,18,7,29,7c0,0,6,0,11,-2c0,0,4,-3,7,-10c0,0,3,-7,4,-19c0,0,2,-12,2,-31c0,0,0,-16,-1,-28c0,0,-1,-12,-2,-20c0,0,-2,-8,-5,-14c0,0,-3,-5,-8,-10c0,0,-5,-6,-26,-15c0,0,-22,-9,-55,-17c0,0,-34,-8,-77,-14c0,0,-43,-7,-93,-7Z"
id="f0_7z"
transform="scale(0.001,-0.001)"/>

<path d="M403,155c0,0,81,0,136,21c0,0,55,21,92,63c0,0,37,42,55,105c0,0,18,63,18,146c0,0,0,69,-16,128c0,0,-16,59,-51,102c0,0,-36,43,-91,67c0,0,-56,25,-146,25H301V155ZM164,0c0,0,-25,0,-42,15c0,0,-16,14,-16,47V903c0,0,0,33,16,48c0,0,17,14,42,14H411c0,0,129,0,219,-30c0,0,90,-30,152,-90c0,0,61,-59,93,-146c0,0,32,-87,32,-202c0,0,0,-133,-34,-227c0,0,-35,-95,-100,-154c0,0,-65,-60,-158,-88C615,28,523,0,394,0Z"
id="f0_p"
transform="scale(0.001,-0.001)"/>

<path d="M432,142c0,0,36,0,62,18c0,0,26,19,42,49c0,0,16,31,24,69c0,0,8,38,8,76c0,0,0,43,-6,82c0,0,-7,39,-22,70c0,0,-15,30,-40,49c0,0,-25,18,-62,18c0,0,-19,0,-37,-6c0,0,-19,-5,-38,-18c0,0,-19,-13,-39,-33c0,0,-20,-20,-42,-50V247c0,0,39,-51,75,-78c0,0,36,-27,75,-27ZM188,-270c0,0,-28,0,-46,2c0,0,-18,3,-28,7c0,0,-11,4,-16,10c0,0,-4,6,-4,13V691c0,0,0,7,4,13c0,0,3,5,13,9c0,0,9,4,24,6c0,0,15,2,39,2c0,0,22,0,37,-2c0,0,15,-2,25,-6c0,0,9,-4,13,-9c0,0,4,-6,4,-13V612c0,0,29,30,57,53c0,0,28,23,57,38c0,0,29,15,60,23c0,0,31,7,66,7c0,0,73,0,124,-28c0,0,52,-29,84,-79c0,0,33,-50,48,-117c0,0,15,-66,15,-141c0,0,0,-89,-19,-161c0,0,-19,-71,-56,-121C689,86,652,36,598,9c0,0,-54,-26,-125,-26c0,0,-29,0,-53,6c0,0,-24,6,-47,16c0,0,-23,12,-45,29c0,0,-23,17,-46,40V-238c0,0,0,-7,-5,-13c0,0,-4,-6,-15,-10c0,0,-11,-4,-29,-7c0,0,-18,-2,-45,-2Z"
id="f0_ay"
transform="scale(0.001,-0.001)"/>

<path d="M164,0c0,0,-25,0,-42,15c0,0,-16,14,-16,47V939c0,0,0,7,4,13c0,0,5,6,16,10c0,0,12,3,31,6c0,0,19,2,47,2c0,0,29,0,48,-2c0,0,18,-3,29,-6c0,0,11,-4,16,-10c0,0,5,-6,5,-13V162H606c0,0,7,0,13,-4c0,0,5,-4,9,-13c0,0,4,-10,6,-25c0,0,2,-15,2,-38c0,0,0,-22,-2,-37c0,0,-2,-16,-6,-26c0,0,-4,-10,-9,-15c0,0,-6,-4,-13,-4Z"
id="f0_1r"
transform="scale(0.001,-0.001)"/>

<path d="M188,-4c0,0,-28,0,-46,2c0,0,-18,2,-28,5c0,0,-11,3,-16,9c0,0,-4,5,-4,13V691c0,0,0,7,4,13c0,0,3,5,13,9c0,0,10,4,25,6c0,0,15,2,38,2c0,0,24,0,40,-2c0,0,15,-2,24,-6c0,0,9,-4,12,-9c0,0,4,-6,4,-13V608c0,0,26,37,49,61c0,0,23,25,44,39c0,0,21,14,42,20c0,0,21,5,42,5c0,0,10,0,21,-1c0,0,11,-1,23,-4c0,0,12,-2,21,-5c0,0,9,-4,13,-8c0,0,4,-3,6,-8c0,0,2,-4,3,-12c0,0,2,-8,2,-24c0,0,1,-15,1,-42c0,0,0,-27,-1,-44c0,0,-2,-17,-5,-27c0,0,-3,-10,-8,-13c0,0,-5,-4,-12,-4c0,0,-6,0,-13,3c0,0,-8,2,-17,5c0,0,-10,3,-21,6c0,0,-11,2,-24,2c0,0,-16,0,-32,-6c0,0,-15,-6,-32,-20c0,0,-17,-13,-35,-36c0,0,-19,-22,-39,-55V25c0,0,0,-8,-5,-13c0,0,-4,-6,-15,-9c0,0,-11,-3,-29,-5c0,0,-18,-2,-45,-2Z"
id="f0_b1"
transform="scale(0.001,-0.001)"/>

<path d="M345,-143c0,0,43,0,72,9c0,0,29,8,47,23c0,0,18,14,25,31c0,0,8,18,8,37c0,0,0,33,-27,50c0,0,-27,18,-74,20L263,30C263,30,243,16,232,3c0,0,-12,-12,-19,-24c0,0,-7,-12,-9,-23c0,0,-3,-11,-3,-23c0,0,0,-37,38,-56c0,0,38,-20,106,-20Zm-4,517c0,0,28,0,49,9c0,0,21,9,35,25c0,0,14,16,21,36c0,0,7,21,7,43c0,0,0,54,-30,84c0,0,-30,29,-84,29c0,0,-28,0,-49,-9c0,0,-21,-9,-34,-25c0,0,-14,-16,-21,-38c0,0,-7,-21,-7,-44c0,0,0,-51,30,-80c0,0,30,-30,83,-30Zm-4,-645c0,0,-85,0,-145,14c0,0,-60,13,-98,37c0,0,-39,24,-56,57c0,0,-18,33,-18,73c0,0,0,24,6,47c0,0,7,22,19,42c0,0,12,20,30,39c0,0,18,18,41,35c0,0,-32,18,-49,47c0,0,-18,29,-18,64c0,0,0,44,20,80c0,0,21,36,53,65c0,0,-27,26,-42,63c0,0,-16,37,-16,91c0,0,0,58,21,104c0,0,20,46,57,78c0,0,36,32,87,49c0,0,51,16,112,16c0,0,31,0,60,-3c0,0,29,-4,53,-11H665c0,0,13,0,21,-17c0,0,8,-16,8,-55c0,0,0,-36,-8,-53c0,0,-9,-17,-21,-17H587c0,0,17,-18,24,-41c0,0,7,-22,7,-47c0,0,0,-58,-20,-103c0,0,-19,-45,-55,-76c0,0,-36,-31,-88,-47c0,0,-51,-17,-113,-17c0,0,-32,0,-61,8c0,0,-30,8,-45,19c0,0,-9,-10,-16,-23c0,0,-7,-14,-7,-30c0,0,0,-22,19,-36c0,0,19,-13,53,-15l162,-6c0,0,57,-2,101,-16c0,0,44,-14,75,-39c0,0,30,-24,46,-59c0,0,16,-35,16,-79c0,0,0,-49,-22,-93c0,0,-21,-44,-65,-76c0,0,-43,-32,-108,-50c0,0,-66,-19,-153,-19Z"
id="f0_9d"
transform="scale(0.001,-0.001)"/>

<path d="M193,-4c0,0,-26,0,-43,2c0,0,-18,2,-27,6c0,0,-10,4,-14,10c0,0,-3,6,-3,13V895c0,0,0,35,20,53c0,0,21,17,50,17H282c0,0,28,0,47,-5c0,0,20,-5,35,-16c0,0,15,-11,29,-31c0,0,13,-20,27,-49L608,511c0,0,17,-32,33,-63c0,0,16,-31,31,-62c0,0,14,-31,29,-60c0,0,14,-30,27,-60h1c0,0,-2,52,-3,109c0,0,-1,57,-1,108V936c0,0,0,7,4,13c0,0,5,6,15,11c0,0,10,4,28,6c0,0,17,2,44,2c0,0,25,0,42,-2c0,0,17,-2,27,-6c0,0,9,-5,13,-11c0,0,4,-6,4,-13V68c0,0,0,-17,-6,-30c0,0,-6,-14,-17,-23C879,15,869,6,856,2c0,0,-14,-3,-28,-3H744c0,0,-26,0,-45,4c0,0,-19,5,-35,19c0,0,-16,14,-31,38c0,0,-15,23,-34,60L359,572c0,0,-21,40,-43,86c0,0,-21,47,-38,91h-2c0,0,3,-54,5,-107c0,0,2,-53,2,-110V27c0,0,0,-7,-5,-13c0,0,-4,-6,-14,-10c0,0,-10,-4,-27,-6c0,0,-17,-2,-44,-2Z"
id="f0_1y"
transform="scale(0.001,-0.001)"/>

<path d="M334,-17c0,0,-69,0,-115,22c0,0,-47,22,-76,61c0,0,-28,39,-41,90c0,0,-12,51,-12,127V691c0,0,0,7,4,13c0,0,4,5,15,9c0,0,11,4,29,6c0,0,19,2,45,2c0,0,28,0,46,-2c0,0,18,-2,29,-6c0,0,11,-4,15,-9c0,0,5,-6,5,-13V314c0,0,0,-52,6,-79c0,0,7,-28,21,-48c0,0,14,-20,35,-30c0,0,21,-11,49,-11c0,0,36,0,72,26c0,0,36,26,77,76V691c0,0,0,7,4,13c0,0,4,5,15,9c0,0,11,4,29,6c0,0,18,2,45,2c0,0,28,0,46,-2c0,0,18,-2,28,-6c0,0,11,-4,15,-9c0,0,5,-6,5,-13V25c0,0,0,-8,-4,-13c0,0,-4,-6,-13,-9c0,0,-10,-3,-25,-5c0,0,-15,-2,-38,-2c0,0,-25,0,-40,2c0,0,-16,2,-25,5c0,0,-9,3,-12,9c0,0,-4,5,-4,13v77c0,0,-55,-60,-112,-90c0,0,-57,-29,-118,-29Z"
id="f0_c6"
transform="scale(0.001,-0.001)"/>

<path d="M344,-14c0,0,-56,0,-97,14c0,0,-42,14,-69,43c0,0,-26,29,-39,74c0,0,-13,45,-13,106V563H47c0,0,-15,0,-22,18c0,0,-7,17,-7,58c0,0,0,22,1,37c0,0,2,15,6,24c0,0,4,8,9,12c0,0,6,4,13,4h79V864c0,0,0,8,4,14c0,0,4,6,15,10c0,0,11,4,29,6c0,0,19,2,46,2c0,0,27,0,46,-2c0,0,18,-2,28,-6c0,0,11,-4,15,-10c0,0,5,-6,5,-14V716H459c0,0,7,0,13,-4c0,0,6,-4,9,-12c0,0,4,-9,6,-24c0,0,2,-15,2,-37c0,0,0,-41,-8,-58c0,0,-7,-18,-21,-18H314V251c0,0,0,-54,17,-81c0,0,17,-27,61,-27c0,0,15,0,27,2c0,0,12,3,22,6c0,0,9,4,15,6c0,0,7,3,12,3c0,0,4,0,9,-3c0,0,4,-2,6,-10c0,0,2,-8,4,-21c0,0,2,-14,2,-35c0,0,0,-33,-4,-50c0,0,-4,-18,-11,-25c0,0,-7,-7,-20,-12c0,0,-13,-5,-31,-9c0,0,-17,-4,-38,-6c0,0,-20,-3,-41,-3Z"
id="f0_bf"
transform="scale(0.001,-0.001)"/>

<path d="M275,-17c0,0,-37,0,-71,6c0,0,-34,6,-61,13c0,0,-27,9,-45,18c0,0,-18,9,-26,17c0,0,-8,8,-13,25c0,0,-4,17,-4,49c0,0,0,22,1,35c0,0,2,13,5,21c0,0,3,8,7,10c0,0,5,3,11,3c0,0,9,0,25,-9c0,0,16,-10,40,-21c0,0,24,-11,55,-21c0,0,32,-10,72,-10c0,0,26,0,46,5c0,0,19,6,34,15c0,0,14,10,22,25c0,0,7,15,7,34c0,0,0,23,-13,39c0,0,-14,16,-37,28c0,0,-23,11,-52,22c0,0,-28,10,-58,23c0,0,-31,13,-59,29c0,0,-29,17,-52,41c0,0,-23,23,-37,57c0,0,-13,34,-13,81c0,0,0,47,18,87c0,0,19,40,54,69c0,0,35,28,86,44c0,0,50,15,113,15c0,0,31,0,61,-4c0,0,29,-5,53,-11c0,0,24,-7,40,-15c0,0,17,-7,24,-13c0,0,7,-6,10,-11c0,0,3,-6,4,-14c0,0,2,-7,3,-19c0,0,1,-12,1,-29c0,0,0,-20,-1,-33c0,0,-1,-12,-4,-20c0,0,-2,-7,-7,-10c0,0,-4,-3,-10,-3c0,0,-7,0,-21,8c0,0,-14,8,-36,17c0,0,-21,9,-49,17c0,0,-28,7,-64,7c0,0,-25,0,-44,-5c0,0,-19,-5,-30,-15c0,0,-12,-9,-18,-22c0,0,-6,-14,-6,-28c0,0,0,-24,14,-39c0,0,14,-16,37,-28c0,0,23,-12,53,-22c0,0,29,-11,59,-23c0,0,31,-12,60,-29c0,0,30,-16,53,-40c0,0,23,-24,37,-57c0,0,14,-33,14,-79c0,0,0,-57,-21,-100c0,0,-21,-43,-60,-72c0,0,-39,-29,-92,-43c0,0,-53,-15,-115,-15Z"
id="f0_b5"
transform="scale(0.001,-0.001)"/>

<path d="M188,-4c0,0,-28,0,-46,2c0,0,-18,2,-28,5c0,0,-11,3,-16,9c0,0,-4,5,-4,13v981c0,0,0,8,4,14c0,0,5,6,16,10c0,0,10,4,28,6c0,0,18,2,46,2c0,0,27,0,45,-2c0,0,18,-2,29,-6c0,0,11,-4,15,-10c0,0,5,-6,5,-14V25c0,0,0,-8,-5,-13c0,0,-4,-6,-15,-9c0,0,-11,-3,-29,-5c0,0,-18,-2,-45,-2Z"
id="f0_a8"
transform="scale(0.001,-0.001)"/>

<path d="M189,-4c0,0,-18,0,-30,2c0,0,-12,2,-19,3c0,0,-7,3,-9,8c0,0,-3,4,-3,10V907c0,0,0,31,16,45c0,0,17,13,37,13h78c0,0,24,0,41,-4c0,0,18,-5,32,-15c0,0,13,-9,22,-24c0,0,9,-15,16,-35L649,188h4L944,884c0,0,8,23,18,39c0,0,9,15,21,25c0,0,11,9,26,13c0,0,14,4,32,4h82c0,0,11,0,21,-3c0,0,10,-4,17,-11c0,0,7,-7,12,-18c0,0,4,-10,4,-26V19c0,0,0,-6,-3,-10c0,0,-3,-5,-10,-8c0,0,-8,-1,-19,-3c0,0,-12,-2,-30,-2c0,0,-18,0,-30,2c0,0,-12,2,-19,3c0,0,-7,3,-10,8c0,0,-3,4,-3,10V860h-2L707,15c0,0,-2,-5,-6,-9c0,0,-4,-3,-12,-6c0,0,-8,-2,-18,-3c0,0,-11,-1,-26,-1c0,0,-16,0,-27,2c0,0,-11,1,-19,3c0,0,-7,2,-11,6c0,0,-4,4,-6,8L253,860V19c0,0,0,-6,-3,-10c0,0,-3,-5,-11,-8c0,0,-7,-1,-19,-3c0,0,-12,-2,-31,-2Z"
id="f1_1x"
transform="scale(0.001,-0.001)"/>

<path d="M401,90c0,0,54,0,93,19c0,0,40,20,65,55c0,0,26,35,37,84c0,0,12,48,12,106c0,0,0,55,-10,104c0,0,-10,48,-33,85c0,0,-23,36,-62,58c0,0,-40,21,-99,21c0,0,-54,0,-93,-20c0,0,-39,-19,-65,-54c0,0,-25,-36,-37,-85c0,0,-12,-48,-12,-106c0,0,0,-55,10,-103c0,0,10,-49,33,-85c0,0,24,-36,63,-58c0,0,39,-21,98,-21ZM395,-13c0,0,-82,0,-144,24c0,0,-61,25,-102,72c0,0,-41,47,-61,114c0,0,-21,67,-21,152c0,0,0,82,22,151c0,0,21,69,64,119c0,0,43,50,107,78c0,0,64,28,150,28c0,0,82,0,144,-25c0,0,61,-25,102,-72c0,0,41,-47,62,-114c0,0,20,-67,20,-151c0,0,0,-83,-21,-152c0,0,-22,-69,-65,-119C652,92,609,42,545,14c0,0,-65,-27,-150,-27Z"
id="f1_am"
transform="scale(0.001,-0.001)"/>

<path d="M366,92c0,0,25,0,48,7c0,0,22,6,46,22c0,0,24,16,50,41c0,0,26,24,56,61V492c0,0,-51,62,-97,94c0,0,-47,33,-98,33c0,0,-47,0,-79,-22c0,0,-33,-23,-54,-59c0,0,-20,-37,-30,-83c0,0,-9,-47,-9,-94c0,0,0,-51,8,-100c0,0,8,-48,27,-86c0,0,19,-38,52,-60c0,0,32,-23,80,-23ZM345,-13c0,0,-74,0,-127,28c0,0,-52,29,-84,78c0,0,-33,49,-48,115c0,0,-15,66,-15,139c0,0,0,86,19,156c0,0,19,70,55,119c0,0,37,50,91,76c0,0,54,27,125,27c0,0,59,0,108,-26c0,0,49,-26,97,-76v390c0,0,0,5,2,10c0,0,3,4,10,7c0,0,8,3,19,5c0,0,12,1,30,1c0,0,18,0,30,-1c0,0,12,-2,19,-5c0,0,7,-3,10,-7c0,0,3,-5,3,-10V18c0,0,0,-6,-2,-10c0,0,-3,-5,-9,-7c0,0,-7,-2,-17,-3c0,0,-10,-2,-25,-2c0,0,-16,0,-26,2c0,0,-11,1,-18,3c0,0,-6,2,-9,7c0,0,-3,4,-3,10v90c0,0,-53,-58,-110,-90c0,0,-58,-31,-125,-31Z"
id="f1_7v"
transform="scale(0.001,-0.001)"/>

<path d="M564,420c0,0,2,98,-43,153c0,0,-46,56,-134,56c0,0,-46,0,-80,-18c0,0,-35,-17,-58,-45c0,0,-23,-29,-36,-67c0,0,-12,-37,-14,-79ZM405,-13c0,0,-83,0,-145,22c0,0,-62,24,-105,69c0,0,-42,46,-64,114c0,0,-22,69,-22,160c0,0,0,87,23,156c0,0,22,69,64,117c0,0,43,48,102,74c0,0,60,26,134,26c0,0,79,0,135,-26c0,0,55,-25,91,-68c0,0,36,-43,53,-101c0,0,16,-58,16,-123V384c0,0,0,-29,-14,-41c0,0,-15,-13,-33,-13H199c0,0,0,-56,11,-100c0,0,12,-45,38,-77c0,0,26,-33,68,-50c0,0,41,-17,102,-17c0,0,48,0,85,8c0,0,37,8,65,17c0,0,27,10,44,18c0,0,18,8,27,8c0,0,5,0,9,-3c0,0,4,-2,7,-8c0,0,2,-5,3,-14c0,0,1,-9,1,-23c0,0,0,-9,-1,-16c0,0,0,-8,-2,-13c0,0,-1,-6,-3,-10c0,0,-3,-5,-7,-9c0,0,-4,-4,-24,-13c0,0,-20,-10,-53,-18c0,0,-32,-9,-74,-16c0,0,-42,-7,-90,-7Z"
id="f1_7z"
transform="scale(0.001,-0.001)"/>

<path d="M176,-4c0,0,-18,0,-30,2c0,0,-12,1,-19,3c0,0,-7,3,-10,7c0,0,-3,4,-3,10V690c0,0,0,6,3,10c0,0,2,4,9,7c0,0,6,4,17,5c0,0,10,1,27,1c0,0,17,0,28,-1c0,0,10,-1,16,-5c0,0,6,-3,9,-7c0,0,3,-4,3,-10V592c0,0,27,41,51,66c0,0,25,26,46,41c0,0,22,14,43,20c0,0,21,6,43,6c0,0,10,0,22,-2c0,0,12,-1,26,-4c0,0,13,-3,24,-6c0,0,11,-4,15,-8c0,0,5,-4,6,-7c0,0,2,-3,3,-9c0,0,1,-5,1,-15c0,0,0,-10,0,-27c0,0,0,-16,0,-28c0,0,-1,-11,-3,-17c0,0,-2,-6,-6,-10c0,0,-3,-3,-9,-3c0,0,-6,0,-15,3c0,0,-8,4,-19,7c0,0,-11,3,-24,6c0,0,-14,3,-29,3c0,0,-19,0,-37,-7c0,0,-18,-8,-37,-25c0,0,-20,-18,-42,-46c0,0,-21,-29,-48,-70V18c0,0,0,-6,-3,-10c0,0,-2,-4,-9,-7c0,0,-7,-2,-19,-3c0,0,-12,-2,-30,-2Z"
id="f1_b1"
transform="scale(0.001,-0.001)"/>

<path d="M176,-4c0,0,-18,0,-30,2c0,0,-12,1,-19,3c0,0,-7,3,-10,7c0,0,-3,4,-3,10V690c0,0,0,6,3,10c0,0,2,4,9,7c0,0,6,4,17,5c0,0,10,1,27,1c0,0,17,0,28,-1c0,0,10,-1,16,-5c0,0,6,-3,9,-7c0,0,3,-4,3,-10V601c0,0,56,64,112,94c0,0,57,30,114,30c0,0,67,0,113,-23c0,0,46,-23,74,-61c0,0,29,-38,41,-89c0,0,12,-52,12,-123V18c0,0,0,-6,-3,-10c0,0,-3,-4,-9,-7c0,0,-7,-2,-19,-3c0,0,-12,-2,-30,-2c0,0,-19,0,-30,2c0,0,-12,1,-19,3c0,0,-7,3,-10,7c0,0,-3,4,-3,10V412c0,0,0,58,-9,93c0,0,-9,35,-26,61c0,0,-17,25,-44,38c0,0,-27,14,-63,14c0,0,-46,0,-93,-33c0,0,-46,-33,-97,-96V18c0,0,0,-6,-3,-10c0,0,-2,-4,-9,-7c0,0,-7,-2,-19,-3c0,0,-12,-2,-30,-2Z"
id="f1_af"
transform="scale(0.001,-0.001)"/>

<path d="M176,-4c0,0,-18,0,-30,2c0,0,-12,1,-19,3c0,0,-7,3,-10,7c0,0,-3,4,-3,10V690c0,0,0,6,3,10c0,0,2,4,9,7c0,0,6,4,17,5c0,0,10,1,27,1c0,0,17,0,28,-1c0,0,10,-1,16,-5c0,0,6,-3,9,-7c0,0,3,-4,3,-10V601c0,0,56,64,110,94c0,0,53,30,108,30c0,0,42,0,75,-10c0,0,33,-10,58,-28c0,0,26,-17,44,-42c0,0,18,-24,30,-55c0,0,33,37,63,63c0,0,31,26,59,41c0,0,28,16,54,23c0,0,27,8,53,8c0,0,65,0,109,-23c0,0,44,-23,71,-61c0,0,28,-38,39,-89c0,0,12,-52,12,-108V18c0,0,0,-6,-3,-10c0,0,-3,-4,-10,-7c0,0,-7,-2,-19,-3c0,0,-12,-2,-29,-2c0,0,-19,0,-31,2c0,0,-12,1,-19,3c0,0,-7,3,-10,7c0,0,-3,4,-3,10V427c0,0,0,43,-8,78c0,0,-7,35,-23,61c0,0,-17,25,-42,38c0,0,-25,14,-60,14c0,0,-42,0,-85,-33c0,0,-43,-33,-94,-96V18c0,0,0,-6,-3,-10c0,0,-3,-4,-11,-7c0,0,-7,-2,-19,-3c0,0,-11,-2,-29,-2c0,0,-18,0,-30,2c0,0,-12,1,-19,3c0,0,-7,3,-10,7c0,0,-3,4,-3,10V427c0,0,0,43,-8,78c0,0,-8,35,-24,61c0,0,-17,25,-42,38c0,0,-25,14,-59,14c0,0,-43,0,-86,-33c0,0,-44,-33,-95,-96V18c0,0,0,-6,-3,-10c0,0,-2,-4,-9,-7c0,0,-7,-2,-19,-3c0,0,-12,-2,-30,-2Z"
id="f1_ae"
transform="scale(0.001,-0.001)"/>

<path d="M321,82c0,0,48,0,90,25c0,0,41,24,87,75V325H392c0,0,-50,0,-88,-9c0,0,-37,-9,-62,-25c0,0,-24,-17,-36,-41c0,0,-11,-23,-11,-54c0,0,0,-52,33,-83c0,0,33,-31,93,-31ZM301,-13c0,0,-53,0,-96,13c0,0,-43,14,-73,40c0,0,-30,26,-47,64c0,0,-17,38,-17,87c0,0,0,56,24,98c0,0,23,42,66,69c0,0,43,28,106,42c0,0,63,14,141,14h93v52c0,0,0,39,-9,69c0,0,-8,30,-26,50c0,0,-18,20,-47,30c0,0,-30,10,-72,10c0,0,-46,0,-82,-11c0,0,-36,-11,-63,-24c0,0,-27,-13,-46,-24c0,0,-18,-11,-27,-11c0,0,-6,0,-10,3c0,0,-5,3,-8,9c0,0,-3,6,-5,16c0,0,-1,9,-1,20c0,0,0,19,2,30c0,0,3,11,13,20c0,0,10,10,35,23c0,0,24,13,56,24c0,0,32,10,70,17c0,0,38,8,77,8c0,0,73,0,123,-17c0,0,51,-16,82,-48c0,0,32,-32,46,-79c0,0,14,-47,14,-110V18c0,0,0,-9,-6,-14c0,0,-6,-4,-16,-6c0,0,-11,-2,-31,-2c0,0,-19,0,-31,2c0,0,-12,2,-17,6c0,0,-5,5,-5,13V85c0,0,-44,-47,-98,-73c0,0,-54,-25,-115,-25Z"
id="f1_77"
transform="scale(0.001,-0.001)"/>

<path d="M367,-13c0,0,-73,0,-129,23c0,0,-56,24,-93,70c0,0,-38,46,-58,112c0,0,-20,67,-20,154c0,0,0,99,25,171c0,0,24,71,66,116c0,0,42,46,99,68c0,0,58,22,124,22c0,0,32,0,62,-6c0,0,31,-6,56,-16c0,0,25,-10,45,-22c0,0,20,-13,29,-22c0,0,9,-9,12,-14c0,0,3,-5,6,-13c0,0,2,-7,3,-16c0,0,0,-9,0,-22c0,0,0,-29,-6,-41c0,0,-7,-11,-17,-11c0,0,-11,0,-25,12c0,0,-15,12,-37,27c0,0,-23,15,-55,28c0,0,-31,12,-75,12c0,0,-88,0,-136,-68c0,0,-47,-68,-47,-198c0,0,0,-65,12,-114c0,0,12,-49,36,-81c0,0,24,-33,59,-49c0,0,35,-16,79,-16c0,0,43,0,75,13c0,0,32,14,56,30c0,0,23,16,39,29c0,0,16,13,25,13c0,0,5,0,9,-3c0,0,4,-3,7,-10c0,0,2,-7,3,-18c0,0,1,-11,1,-26c0,0,0,-12,0,-22c0,0,-1,-9,-3,-15c0,0,-2,-7,-4,-12c0,0,-3,-4,-12,-14c0,0,-10,-9,-32,-23c0,0,-22,-14,-50,-24C496,11,468,0,435,-6c0,0,-33,-7,-68,-7Z"
id="f1_7l"
transform="scale(0.001,-0.001)"/>

<path d="M176,-4c0,0,-18,0,-30,2c0,0,-12,1,-19,3c0,0,-7,3,-10,7c0,0,-3,4,-3,10v997c0,0,0,6,3,11c0,0,3,4,10,7c0,0,7,3,19,5c0,0,12,1,30,1c0,0,18,0,30,-1c0,0,12,-2,19,-5c0,0,7,-3,9,-7c0,0,3,-5,3,-10V614c0,0,53,56,107,83c0,0,54,28,108,28c0,0,67,0,113,-23c0,0,46,-23,74,-61c0,0,29,-38,41,-89c0,0,12,-52,12,-124V18c0,0,0,-6,-3,-10c0,0,-3,-4,-9,-7c0,0,-7,-2,-19,-3c0,0,-12,-2,-30,-2c0,0,-19,0,-30,2c0,0,-12,1,-19,3c0,0,-7,3,-10,7c0,0,-3,4,-3,10V412c0,0,0,58,-9,93c0,0,-9,35,-26,61c0,0,-17,25,-44,38c0,0,-27,14,-63,14c0,0,-46,0,-93,-33c0,0,-46,-33,-97,-96V18c0,0,0,-6,-3,-10c0,0,-2,-4,-9,-7c0,0,-7,-2,-19,-3c0,0,-12,-2,-30,-2Z"
id="f1_9n"
transform="scale(0.001,-0.001)"/>

<path d="M176,-4c0,0,-18,0,-30,2c0,0,-12,1,-19,3c0,0,-7,3,-10,7c0,0,-3,4,-3,10V690c0,0,0,5,3,9c0,0,3,5,10,8c0,0,7,3,19,4c0,0,12,2,30,2c0,0,18,0,30,-2c0,0,12,-1,19,-4c0,0,7,-3,9,-8c0,0,3,-4,3,-9V18c0,0,0,-6,-3,-10c0,0,-2,-4,-9,-7c0,0,-7,-2,-19,-3c0,0,-12,-2,-30,-2Zm-1,846c0,0,-43,0,-59,15c0,0,-16,15,-16,58c0,0,0,43,16,59c0,0,17,16,61,16c0,0,43,0,59,-16c0,0,16,-15,16,-58c0,0,0,-43,-16,-58c0,0,-17,-16,-61,-16Z"
id="f1_9q"
transform="scale(0.001,-0.001)"/>

<path d="M176,-4c0,0,-18,0,-30,2c0,0,-12,1,-19,3c0,0,-7,3,-10,7c0,0,-3,4,-3,10v997c0,0,0,6,3,11c0,0,3,4,10,7c0,0,7,3,19,5c0,0,12,1,30,1c0,0,18,0,30,-1c0,0,12,-2,19,-5c0,0,7,-3,9,-7c0,0,3,-5,3,-11V18c0,0,0,-6,-3,-10c0,0,-2,-4,-9,-7c0,0,-7,-2,-19,-3c0,0,-12,-2,-30,-2Z"
id="f1_a8"
transform="scale(0.001,-0.001)"/>

<path d="M346,-177c0,0,56,0,94,11c0,0,37,11,60,28c0,0,24,18,34,41c0,0,10,23,10,49c0,0,0,43,-36,65c0,0,-35,23,-95,25L239,48c0,0,-24,-19,-39,-35c0,0,-15,-16,-24,-31c0,0,-9,-16,-12,-30c0,0,-4,-15,-4,-31c0,0,0,-48,49,-73c0,0,50,-25,137,-25Zm-6,512c0,0,36,0,63,12c0,0,27,12,44,32c0,0,18,21,26,48c0,0,9,27,9,56c0,0,0,69,-38,107c0,0,-37,39,-107,39c0,0,-35,0,-62,-12c0,0,-26,-12,-44,-33c0,0,-17,-21,-26,-48c0,0,-8,-28,-8,-58c0,0,0,-66,37,-104c0,0,38,-39,106,-39Zm0,-606c0,0,-81,0,-138,14c0,0,-57,14,-94,38c0,0,-36,24,-52,57c0,0,-17,33,-17,72c0,0,0,24,6,47c0,0,6,24,18,43c0,0,13,21,31,40c0,0,18,19,42,38c0,0,-36,19,-54,47c0,0,-17,28,-17,61c0,0,0,45,18,81c0,0,19,36,46,64c0,0,-23,28,-36,62c0,0,-14,35,-14,84c0,0,0,58,20,104c0,0,19,45,53,77c0,0,35,31,83,48c0,0,48,17,105,17c0,0,30,0,57,-4c0,0,26,-3,49,-9H649c0,0,13,0,19,-12c0,0,7,-13,7,-38c0,0,0,-26,-7,-37c0,0,-7,-12,-19,-12H553c0,0,26,-27,37,-60c0,0,10,-32,10,-68c0,0,0,-58,-18,-103c0,0,-19,-45,-54,-76c0,0,-34,-31,-82,-47c0,0,-48,-16,-106,-16c0,0,-41,0,-78,10c0,0,-37,11,-57,28c0,0,-14,-14,-22,-31c0,0,-9,-17,-9,-39c0,0,0,-27,24,-44c0,0,25,-17,65,-18l175,-8c0,0,50,-1,92,-14c0,0,41,-12,72,-35c0,0,31,-22,48,-55c0,0,17,-34,17,-76c0,0,0,-47,-20,-88c0,0,-19,-42,-59,-74c0,0,-40,-31,-102,-50c0,0,-61,-18,-146,-18Z"
id="f1_9d"
transform="scale(0.001,-0.001)"/>

<path d="M339,-13c0,0,-52,0,-90,13c0,0,-37,14,-61,42c0,0,-24,28,-34,71c0,0,-11,43,-11,101V607H49c0,0,-11,0,-18,12c0,0,-7,12,-7,39c0,0,0,14,2,24c0,0,2,10,5,16c0,0,3,7,8,9c0,0,5,3,11,3h93V870c0,0,0,5,2,9c0,0,3,5,10,8c0,0,7,4,19,5c0,0,12,2,30,2c0,0,19,0,31,-2c0,0,11,-1,18,-5c0,0,7,-3,10,-8c0,0,3,-4,3,-9V710H438c0,0,6,0,10,-3c0,0,5,-2,8,-9c0,0,4,-6,5,-16c0,0,1,-10,1,-24c0,0,0,-27,-6,-39c0,0,-7,-12,-18,-12H266V232c0,0,0,-69,20,-105c0,0,21,-35,74,-35c0,0,17,0,30,3c0,0,14,4,24,7c0,0,10,4,18,7c0,0,7,4,13,4c0,0,4,0,7,-2c0,0,4,-2,6,-7c0,0,2,-5,3,-14c0,0,1,-9,1,-23c0,0,0,-22,-2,-34c0,0,-3,-13,-9,-19c0,0,-6,-6,-18,-11c0,0,-12,-4,-28,-8c0,0,-15,-3,-32,-5c0,0,-17,-3,-34,-3Z"
id="f1_bf"
transform="scale(0.001,-0.001)"/>

<path d="M429,92c0,0,47,0,80,22c0,0,33,23,54,60c0,0,20,38,30,84c0,0,10,46,10,93c0,0,0,52,-8,100c0,0,-8,48,-27,86c0,0,-19,37,-51,60c0,0,-32,22,-80,22c0,0,-24,0,-47,-7c0,0,-23,-7,-47,-23c0,0,-24,-15,-50,-40c0,0,-26,-25,-56,-62V220c0,0,51,-62,97,-95c0,0,45,-33,95,-33ZM176,-271c0,0,-18,0,-30,2c0,0,-12,1,-19,4c0,0,-7,3,-10,8c0,0,-3,4,-3,10V690c0,0,0,6,3,10c0,0,2,5,9,8c0,0,6,3,17,4c0,0,10,1,25,1c0,0,16,0,26,-1c0,0,10,-1,17,-4c0,0,6,-3,9,-7c0,0,3,-4,3,-11V601c0,0,30,31,59,54c0,0,28,23,57,39c0,0,28,15,59,23c0,0,30,8,63,8c0,0,74,0,125,-29c0,0,52,-28,84,-77c0,0,32,-50,47,-115c0,0,15,-65,15,-139c0,0,0,-88,-19,-158c0,0,-19,-70,-56,-119c0,0,-37,-49,-91,-75c0,0,-55,-26,-125,-26c0,0,-30,0,-55,6c0,0,-25,6,-50,18c0,0,-24,13,-48,32c0,0,-24,19,-51,46V-247c0,0,0,-6,-3,-10c0,0,-2,-5,-9,-8c0,0,-7,-3,-19,-4c0,0,-12,-2,-30,-2Z"
id="f1_ay"
transform="scale(0.001,-0.001)"/>

<path d="M176,-4c0,0,-18,0,-30,2c0,0,-12,1,-19,3c0,0,-7,3,-10,7c0,0,-3,4,-3,10v997c0,0,0,6,3,11c0,0,3,4,10,7c0,0,7,3,19,5c0,0,12,1,30,1c0,0,18,0,30,-1c0,0,12,-2,19,-5c0,0,7,-3,9,-7c0,0,3,-5,3,-11V408L492,687c0,0,6,7,12,12c0,0,7,5,16,8c0,0,10,4,22,5c0,0,13,1,31,1c0,0,19,0,31,-1c0,0,13,-1,21,-4c0,0,8,-3,11,-7c0,0,3,-4,3,-11c0,0,0,-9,-4,-18c0,0,-5,-8,-16,-20L375,408L648,54c0,0,10,-13,14,-20c0,0,4,-8,4,-15c0,0,0,-6,-3,-10c0,0,-3,-5,-10,-8c0,0,-7,-2,-20,-3c0,0,-13,-2,-32,-2c0,0,-20,0,-33,1c0,0,-13,1,-22,3c0,0,-9,3,-15,7c0,0,-5,5,-10,12L237,391V18c0,0,0,-6,-3,-10c0,0,-2,-4,-9,-7c0,0,-7,-2,-19,-3c0,0,-12,-2,-30,-2Z"
id="f1_a5"
transform="scale(0.001,-0.001)"/>

<path d="M272,-13c0,0,-35,0,-68,6c0,0,-32,6,-58,13c0,0,-26,9,-44,18c0,0,-17,10,-26,17c0,0,-8,8,-12,21c0,0,-3,14,-3,37c0,0,0,14,1,24c0,0,2,9,4,15c0,0,2,6,6,9c0,0,4,3,10,3c0,0,8,0,24,-11c0,0,16,-10,39,-22c0,0,24,-12,56,-22c0,0,32,-10,74,-10c0,0,31,0,56,7c0,0,26,6,44,19c0,0,19,14,29,34c0,0,10,20,10,47c0,0,0,29,-14,48c0,0,-15,19,-39,34c0,0,-24,15,-53,27c0,0,-30,11,-62,24c0,0,-32,13,-62,29c0,0,-30,16,-54,39c0,0,-24,23,-38,55c0,0,-15,32,-15,77c0,0,0,40,16,76c0,0,15,36,45,63c0,0,31,28,77,44c0,0,46,17,107,17c0,0,27,0,54,-5c0,0,26,-5,48,-11c0,0,22,-7,37,-15c0,0,15,-8,23,-14c0,0,8,-6,11,-11c0,0,2,-4,3,-10c0,0,1,-5,2,-14c0,0,2,-8,2,-20c0,0,0,-12,-2,-22c0,0,-1,-9,-3,-15c0,0,-3,-6,-7,-8c0,0,-3,-3,-8,-3c0,0,-7,0,-19,8c0,0,-13,8,-33,18c0,0,-20,9,-47,17c0,0,-28,9,-63,9c0,0,-31,0,-55,-7c0,0,-24,-7,-39,-20c0,0,-15,-13,-23,-31c0,0,-8,-18,-8,-39c0,0,0,-29,15,-49c0,0,15,-20,39,-35c0,0,24,-15,54,-27c0,0,31,-11,62,-24c0,0,32,-13,63,-29c0,0,31,-15,55,-38c0,0,24,-22,38,-53c0,0,15,-32,15,-75c0,0,0,-51,-19,-92c0,0,-19,-40,-54,-68C463,42,428,15,379,1c0,0,-48,-14,-107,-14Z"
id="f1_b5"
transform="scale(0.001,-0.001)"/>

<path d="M209,-4c0,0,-18,0,-30,2c0,0,-12,1,-19,3c0,0,-7,3,-10,7c0,0,-3,4,-3,10V607H52c0,0,-12,0,-18,12c0,0,-6,12,-6,39c0,0,0,14,2,24c0,0,1,10,4,16c0,0,3,7,8,9c0,0,4,3,10,3h95v69c0,0,0,71,13,121c0,0,13,50,40,82c0,0,27,33,67,48c0,0,41,15,96,15c0,0,26,0,51,-5c0,0,25,-4,38,-10c0,0,13,-6,18,-10c0,0,4,-5,7,-12c0,0,3,-7,5,-17c0,0,1,-10,1,-24c0,0,0,-15,-2,-23c0,0,-1,-9,-3,-14c0,0,-2,-5,-5,-7c0,0,-3,-2,-8,-2c0,0,-5,0,-13,3c0,0,-7,4,-19,8c0,0,-11,4,-26,7c0,0,-15,4,-36,4c0,0,-27,0,-47,-9c0,0,-19,-9,-31,-28c0,0,-12,-19,-17,-50c0,0,-5,-30,-5,-73V710H421c0,0,6,0,10,-3c0,0,4,-2,7,-9c0,0,4,-6,6,-16c0,0,2,-10,2,-24c0,0,0,-27,-7,-39c0,0,-7,-12,-18,-12H271V18c0,0,0,-6,-3,-10c0,0,-3,-4,-11,-7c0,0,-7,-2,-19,-3c0,0,-12,-2,-29,-2Z"
id="f1_89"
transform="scale(0.001,-0.001)"/>

<path d="M192,-6c0,0,-45,0,-62,16c0,0,-18,18,-18,69c0,0,0,53,18,71c0,0,18,17,64,17c0,0,45,0,62,-17c0,0,17,-17,17,-69c0,0,0,-53,-18,-70c0,0,-17,-17,-63,-17Z"
id="f1_nt"
transform="scale(0.001,-0.001)"/>

<path d="M176,0c0,0,-17,0,-33,12c0,0,-15,11,-15,40V946c0,0,0,6,3,11c0,0,3,4,11,7c0,0,7,2,20,4c0,0,12,2,30,2c0,0,19,0,31,-2c0,0,13,-2,20,-4c0,0,7,-3,10,-7c0,0,3,-5,3,-11V111H603c0,0,6,0,11,-3c0,0,5,-3,8,-10c0,0,4,-6,5,-16c0,0,2,-11,2,-26c0,0,0,-15,-2,-25c0,0,-1,-10,-5,-17c0,0,-3,-7,-8,-11c0,0,-5,-3,-11,-3Z"
id="f1_1r"
transform="scale(0.001,-0.001)"/>

<path d="M482,-11c0,0,-94,0,-170,31c0,0,-76,31,-129,92c0,0,-53,61,-82,151c0,0,-29,90,-29,207c0,0,0,120,31,214c0,0,31,94,87,159c0,0,56,65,134,100c0,0,78,34,173,34c0,0,41,0,81,-8c0,0,39,-8,73,-19c0,0,33,-12,60,-28c0,0,26,-15,36,-25c0,0,10,-10,13,-15c0,0,3,-6,5,-13c0,0,1,-7,3,-17c0,0,1,-9,1,-23c0,0,0,-15,-2,-25c0,0,-1,-11,-4,-18c0,0,-3,-7,-7,-10c0,0,-4,-4,-10,-4c0,0,-11,0,-30,15c0,0,-18,14,-48,32c0,0,-29,17,-71,32c0,0,-42,14,-101,14c0,0,-64,0,-117,-25c0,0,-52,-26,-90,-76c0,0,-37,-50,-57,-122c0,0,-21,-72,-21,-164c0,0,0,-92,20,-163c0,0,20,-70,57,-117c0,0,36,-48,90,-72c0,0,54,-24,122,-24c0,0,57,0,100,14c0,0,43,14,73,32c0,0,30,17,50,31c0,0,19,15,30,15c0,0,5,0,9,-3c0,0,4,-2,6,-8c0,0,2,-7,3,-18c0,0,2,-11,2,-28c0,0,0,-12,-1,-21c0,0,-1,-9,-3,-16c0,0,-2,-6,-5,-12c0,0,-3,-5,-10,-12c0,0,-8,-8,-31,-23c0,0,-24,-15,-60,-30C663,23,628,8,582,-1c0,0,-46,-10,-100,-10Z"
id="f1_j"
transform="scale(0.001,-0.001)"/>

<path d="M604,356L436,837h-1L269,356ZM87,-4c0,0,-22,0,-36,2C51,-2,37,0,32,4c0,0,-6,5,-6,15c0,0,1,10,7,27L357,943c0,0,3,8,7,13c0,0,5,6,15,9c0,0,9,3,23,4c0,0,15,1,37,1c0,0,24,0,40,-1c0,0,16,-1,25,-4c0,0,10,-3,15,-9c0,0,5,-5,8,-14L851,45c0,0,6,-16,7,-26c0,0,0,-10,-6,-16c0,0,-6,-4,-20,-5c0,0,-14,-2,-37,-2c0,0,-23,0,-37,1c0,0,-14,1,-21,3c0,0,-7,3,-10,7c0,0,-3,5,-6,11L638,253H236L157,21c0,0,-2,-6,-6,-11c0,0,-3,-5,-10,-9c0,0,-7,-2,-21,-3c0,0,-13,-2,-33,-2Z"
id="f1_5"
transform="scale(0.001,-0.001)"/>

<path d="M388,108c0,0,93,0,156,23c0,0,64,23,106,71c0,0,43,47,64,119c0,0,21,72,21,171c0,0,0,78,-19,145c0,0,-20,68,-61,117c0,0,-41,49,-105,77c0,0,-63,28,-163,28H256V108ZM176,0c0,0,-17,0,-33,12c0,0,-15,11,-15,40V913c0,0,0,29,15,41c0,0,16,11,33,11H394c0,0,126,0,212,-32c0,0,87,-33,145,-94c0,0,59,-60,89,-147c0,0,30,-86,30,-195c0,0,0,-126,-32,-219c0,0,-32,-94,-93,-155c0,0,-62,-62,-151,-92C594,31,504,0,380,0Z"
id="f1_p"
transform="scale(0.001,-0.001)"/>

<path d="M69,-215c0,0,-12,0,-21,1c0,0,-8,1,-12,4c0,0,-4,2,-4,7c0,0,-1,4,2,10L134,11v96c0,0,0,20,4,32c0,0,4,12,13,18c0,0,9,6,22,8c0,0,13,2,33,2c0,0,19,0,32,-2c0,0,13,-2,22,-8c0,0,9,-6,13,-18c0,0,4,-12,4,-32c0,0,0,-23,-2,-43c0,0,-3,-19,-8,-36c0,0,-5,-17,-14,-33c0,0,-8,-17,-21,-36L130,-194c0,0,-4,-5,-9,-9c0,0,-5,-4,-12,-7c0,0,-7,-3,-16,-4c0,0,-9,-1,-24,-1Z"
id="f1_nq"
transform="scale(0.001,-0.001)"/>

<path d="M351,-13c0,0,-67,0,-113,22c0,0,-46,22,-75,60c0,0,-28,39,-40,90c0,0,-13,51,-13,124V690c0,0,0,6,3,10c0,0,3,4,10,7c0,0,8,4,20,5c0,0,11,1,29,1c0,0,18,0,30,-1c0,0,12,-1,19,-5c0,0,7,-3,10,-7c0,0,3,-4,3,-10V299c0,0,0,-59,9,-94c0,0,8,-36,26,-61c0,0,18,-24,44,-38c0,0,27,-14,63,-14c0,0,46,0,92,33c0,0,46,32,98,95V690c0,0,0,6,2,10c0,0,3,4,10,7c0,0,8,4,19,5c0,0,12,1,30,1c0,0,18,0,30,-1c0,0,12,-1,19,-5c0,0,7,-3,10,-7c0,0,3,-4,3,-10V18c0,0,0,-6,-2,-10c0,0,-3,-4,-10,-7c0,0,-6,-2,-17,-3c0,0,-11,-2,-27,-2c0,0,-17,0,-28,2c0,0,-10,1,-17,3c0,0,-6,3,-8,7c0,0,-3,4,-3,10v89c0,0,-57,-63,-113,-92c0,0,-56,-28,-113,-28Z"
id="f1_c6"
transform="scale(0.001,-0.001)"/>

<path d="M372,-4c0,0,-18,0,-30,2c0,0,-13,2,-21,3c0,0,-7,3,-10,8c0,0,-3,4,-3,10V857H36c0,0,-6,0,-11,3c0,0,-5,2,-8,9c0,0,-2,6,-4,17c0,0,-2,10,-2,24c0,0,0,14,2,25c0,0,2,11,4,17c0,0,3,7,8,10c0,0,5,3,11,3H708c0,0,6,0,11,-3c0,0,5,-3,8,-10c0,0,4,-6,5,-17c0,0,2,-11,2,-25c0,0,0,-14,-2,-24c0,0,-1,-11,-5,-17c0,0,-3,-7,-8,-9c0,0,-5,-3,-11,-3H436V19c0,0,0,-6,-3,-10c0,0,-3,-5,-10,-8c0,0,-8,-1,-20,-3c0,0,-12,-2,-31,-2Z"
id="f1_2t"
transform="scale(0.001,-0.001)"/>

<path d="M346,-4c0,0,-23,0,-38,2c0,0,-15,1,-24,3c0,0,-9,3,-15,8c0,0,-5,6,-8,13L33,660c0,0,-3,9,-5,15c0,0,-2,7,-2,11c0,0,0,3,0,5c0,0,0,6,3,11c0,0,3,4,10,7c0,0,7,2,18,3c0,0,12,1,29,1c0,0,22,0,35,-1c0,0,13,-1,20,-4c0,0,7,-3,10,-8c0,0,4,-4,7,-11L347,135l3,-9l2,9L540,689c0,0,1,7,5,11c0,0,3,5,11,8c0,0,7,3,19,4c0,0,12,1,32,1c0,0,18,0,29,-1c0,0,11,-1,17,-4c0,0,7,-3,9,-7c0,0,3,-4,3,-10c0,0,0,-3,-1,-6c0,0,0,-4,-1,-7c0,0,0,-4,-2,-8c0,0,-1,-5,-2,-10L430,22c0,0,-3,-8,-8,-13c0,0,-5,-6,-15,-9c0,0,-9,-2,-24,-3c0,0,-15,-1,-37,-1Z"
id="f1_ch"
transform="scale(0.001,-0.001)"/>

<path d="M431,92c0,0,46,0,79,22c0,0,33,23,53,60c0,0,21,37,30,83c0,0,10,46,10,93c0,0,0,51,-8,100c0,0,-8,49,-28,86c0,0,-19,37,-51,60c0,0,-32,23,-80,23c0,0,-24,0,-47,-7c0,0,-23,-7,-47,-22c0,0,-24,-16,-50,-41c0,0,-25,-24,-55,-62V219c0,0,51,-62,98,-95c0,0,46,-32,96,-32ZM443,-13c0,0,-32,0,-59,7c0,0,-27,6,-53,19c0,0,-26,14,-52,36c0,0,-27,22,-56,52V18c0,0,0,-6,-3,-10c0,0,-3,-5,-9,-7c0,0,-7,-2,-17,-3c0,0,-10,-2,-26,-2c0,0,-15,0,-25,2c0,0,-11,1,-17,3c0,0,-7,2,-9,7c0,0,-3,4,-3,10v997c0,0,0,6,3,11c0,0,3,4,10,7c0,0,7,3,19,5c0,0,12,1,30,1c0,0,18,0,30,-1c0,0,12,-2,19,-5c0,0,7,-3,9,-7c0,0,3,-5,3,-10V614c0,0,30,31,58,52c0,0,28,20,55,34c0,0,27,13,54,19c0,0,27,6,57,6c0,0,73,0,125,-30c0,0,52,-29,84,-78c0,0,32,-48,47,-114c0,0,15,-66,15,-139c0,0,0,-87,-19,-157c0,0,-19,-70,-56,-119c0,0,-37,-49,-90,-76c0,0,-54,-25,-124,-25Z"
id="f1_7k"
transform="scale(0.001,-0.001)"/>

<path d="M252,-271c0,0,-19,0,-31,2c0,0,-12,2,-18,6c0,0,-7,5,-8,12c0,0,0,8,4,18L292,0c0,0,-7,3,-13,10c0,0,-6,6,-8,14L31,665c0,0,-6,16,-6,25c0,0,0,9,6,14c0,0,6,5,20,7c0,0,13,2,36,2c0,0,22,0,35,-1c0,0,12,-1,20,-4c0,0,7,-3,11,-9c0,0,3,-6,7,-15L351,145h3L539,687c0,0,4,14,10,18c0,0,7,4,19,6c0,0,13,2,37,2c0,0,21,0,34,-2c0,0,14,-2,20,-7c0,0,6,-5,6,-14c0,0,0,-9,-4,-23L420,0L330,-246c0,0,-4,-12,-22,-18c0,0,-19,-7,-56,-7Z"
id="f1_co"
transform="scale(0.001,-0.001)"/>

<path d="M69,661c0,0,-12,0,-21,1c0,0,-8,1,-12,4c0,0,-4,2,-4,7c0,0,-1,4,2,11L134,889v95c0,0,0,19,4,31c0,0,4,12,13,19c0,0,9,7,22,9c0,0,13,2,33,2c0,0,19,0,32,-2c0,0,13,-2,22,-9c0,0,9,-7,13,-19c0,0,4,-12,4,-31c0,0,0,-23,-2,-42c0,0,-3,-19,-8,-37c0,0,-5,-17,-14,-34c0,0,-8,-17,-21,-35L130,683c0,0,-4,-6,-9,-10c0,0,-5,-5,-12,-7c0,0,-7,-3,-16,-4c0,0,-9,-1,-24,-1Z"
id="f1_nw"
transform="scale(0.001,-0.001)"/>

<path d="M324,-4c0,0,-23,0,-37,2c0,0,-15,1,-24,3c0,0,-9,3,-14,8c0,0,-4,6,-7,13L46,660c0,0,-4,11,-5,18c0,0,-2,8,-2,13c0,0,0,7,3,11c0,0,3,4,10,7c0,0,8,2,19,3c0,0,12,1,30,1c0,0,20,0,33,-1c0,0,13,-1,20,-4c0,0,6,-3,9,-8c0,0,3,-4,5,-11L330,136l2,-7l1,7L482,689c0,0,1,7,5,11c0,0,3,5,10,8c0,0,6,3,18,4c0,0,12,1,31,1c0,0,18,0,29,-1c0,0,12,-1,18,-4c0,0,7,-3,10,-7c0,0,3,-5,5,-11L768,136l1,-7l1,7L930,689c0,0,1,7,5,11c0,0,3,5,10,8c0,0,7,3,20,4c0,0,12,1,31,1c0,0,18,0,29,-1c0,0,11,-1,17,-4c0,0,6,-3,9,-6c0,0,3,-4,3,-11c0,0,0,-5,-2,-13c0,0,-1,-7,-5,-18L849,22c0,0,-2,-8,-7,-13c0,0,-5,-6,-13,-9c0,0,-9,-2,-24,-3c0,0,-15,-1,-37,-1c0,0,-23,0,-39,2c0,0,-15,1,-25,3c0,0,-9,3,-14,8c0,0,-4,6,-6,13L543,510l-2,6l-2,-6L409,22c0,0,-3,-8,-7,-13c0,0,-5,-6,-15,-9c0,0,-10,-2,-25,-3c0,0,-15,-1,-38,-1Z"
id="f1_ci"
transform="scale(0.001,-0.001)"/>

<path d="M92,-4c0,0,-22,0,-35,2C57,-2,43,0,37,3c0,0,-7,5,-6,12c0,0,0,7,7,17L247,360L49,675c0,0,-6,11,-6,18c0,0,-1,7,6,12c0,0,7,5,22,6c0,0,14,2,38,2c0,0,22,0,35,-1c0,0,13,-1,20,-4c0,0,8,-2,12,-6c0,0,3,-3,6,-9L335,443L490,693c0,0,3,5,7,9c0,0,4,3,10,6c0,0,7,3,18,4c0,0,12,1,32,1c0,0,21,0,35,-2c0,0,14,-1,21,-5c0,0,7,-4,6,-12c0,0,-1,-7,-8,-19L415,364L622,32c0,0,6,-10,6,-17c0,0,0,-7,-7,-12c0,0,-7,-3,-21,-5c0,0,-15,-2,-38,-2c0,0,-22,0,-35,1c0,0,-13,1,-21,3c0,0,-8,3,-12,7c0,0,-4,4,-7,9L326,282L165,16c0,0,-3,-5,-7,-9c0,0,-4,-4,-12,-7c0,0,-8,-2,-20,-3c0,0,-13,-1,-34,-1Z"
id="f1_cn"
transform="scale(0.001,-0.001)"/>

<path d="M192,-4c0,0,-18,0,-30,2c0,0,-13,2,-20,3c0,0,-8,3,-11,8c0,0,-3,4,-3,10V946c0,0,0,6,3,11c0,0,3,4,11,7c0,0,7,2,20,4c0,0,12,2,30,2c0,0,19,0,31,-2c0,0,13,-2,20,-4c0,0,7,-3,10,-7c0,0,3,-5,3,-11V559H696V946c0,0,0,6,3,10c0,0,3,5,10,8c0,0,8,2,20,4c0,0,11,2,31,2c0,0,18,0,30,-2c0,0,12,-2,20,-4c0,0,7,-3,10,-7c0,0,3,-5,3,-11V19c0,0,0,-6,-3,-10c0,0,-3,-5,-10,-8c0,0,-8,-1,-20,-3c0,0,-12,-2,-30,-2c0,0,-20,0,-31,2c0,0,-12,2,-20,3c0,0,-7,3,-10,8c0,0,-3,4,-3,10V448H256V19c0,0,0,-6,-3,-10c0,0,-3,-5,-10,-8c0,0,-7,-1,-20,-3c0,0,-12,-2,-31,-2Z"
id="f1_19"
transform="scale(0.001,-0.001)"/>

<path d="M366,92c0,0,25,0,48,7c0,0,22,6,46,22c0,0,24,16,50,41c0,0,26,24,56,61V492c0,0,-51,62,-97,94c0,0,-47,33,-98,33c0,0,-47,0,-79,-22c0,0,-33,-23,-54,-59c0,0,-20,-37,-30,-83c0,0,-9,-47,-9,-94c0,0,0,-52,8,-100c0,0,8,-49,27,-86c0,0,19,-38,52,-60c0,0,32,-23,80,-23ZM627,-271c0,0,-18,0,-30,2c0,0,-11,1,-19,4c0,0,-7,3,-10,8c0,0,-2,4,-2,10V97c0,0,-31,-31,-59,-52c0,0,-27,-21,-54,-34c0,0,-27,-12,-54,-18c0,0,-28,-6,-57,-6c0,0,-73,0,-124,28c0,0,-52,29,-84,78c0,0,-33,49,-48,115c0,0,-15,66,-15,139c0,0,0,86,19,156c0,0,19,70,56,119c0,0,37,50,91,76c0,0,54,27,125,27c0,0,30,0,56,-7c0,0,26,-6,52,-20c0,0,25,-14,52,-36c0,0,26,-22,58,-52v80c0,0,0,7,3,11c0,0,3,4,9,7c0,0,7,3,18,4c0,0,10,1,26,1c0,0,15,0,25,-1c0,0,10,-1,17,-4c0,0,6,-3,9,-8c0,0,2,-4,2,-10V-247c0,0,0,-6,-3,-10c0,0,-3,-5,-10,-8c0,0,-7,-3,-19,-4c0,0,-12,-2,-30,-2Z"
id="f1_b0"
transform="scale(0.001,-0.001)"/>

<path d="M218,-6c0,0,-24,0,-39,4c0,0,-15,3,-24,13c0,0,-8,10,-12,27c0,0,-3,16,-3,41c0,0,0,24,3,41c0,0,4,17,12,27c0,0,9,9,24,14c0,0,15,4,39,4c0,0,23,0,38,-4c0,0,15,-5,24,-14c0,0,10,-10,13,-27c0,0,3,-17,3,-41c0,0,0,-25,-3,-41c0,0,-3,-17,-13,-27c0,0,-9,-10,-24,-13c0,0,-15,-4,-38,-4Zm0,518c0,0,-24,0,-39,4c0,0,-15,5,-24,15c0,0,-8,10,-12,26c0,0,-3,16,-3,40c0,0,0,26,3,42c0,0,4,17,12,27c0,0,9,10,24,14c0,0,15,4,39,4c0,0,23,0,38,-4c0,0,15,-4,24,-14c0,0,10,-10,13,-27c0,0,3,-16,3,-42c0,0,0,-24,-3,-40c0,0,-3,-16,-13,-26c0,0,-9,-10,-24,-15c0,0,-15,-4,-38,-4Z"
id="f1_ns"
transform="scale(0.001,-0.001)"/>

<path d="M161,0c0,0,-5,0,-10,3c0,0,-4,2,-8,8c0,0,-5,6,-7,16c0,0,-2,9,-2,24c0,0,0,13,2,23c0,0,2,9,6,16c0,0,3,6,8,9c0,0,5,4,11,4H362V837L176,726c0,0,-15,-8,-23,-9c0,0,-1,-1,-3,-1c-3,0,-8,1,-11,4c0,0,-5,5,-7,16c0,0,-2,11,-2,28c0,0,0,13,1,22c0,0,1,9,4,15c0,0,2,6,6,10c0,0,4,5,11,9L374,963c0,0,3,2,7,4c0,0,5,1,11,3c0,0,7,1,16,2c0,0,9,0,22,0c0,0,18,0,30,-2c0,0,12,-1,19,-4c0,0,7,-2,9,-6c0,0,2,-5,2,-9V103H665c0,0,6,0,11,-4c0,0,5,-3,8,-9c0,0,4,-7,6,-16c0,0,2,-10,2,-23c0,0,0,-15,-3,-24c0,0,-2,-10,-6,-16c0,0,-3,-6,-8,-8c0,0,-5,-3,-10,-3Z"
id="f1_ry"
transform="scale(0.001,-0.001)"/>

<path d="M142,-256c0,0,-19,0,-30,2c0,0,-11,2,-16,6c0,0,-5,4,-4,10c0,0,0,6,4,15c0,0,69,151,104,308c0,0,35,158,35,318c0,0,0,160,-35,318c0,0,-35,157,-106,307c0,0,-3,7,-2,13c0,0,1,6,7,10c0,0,6,3,16,6c0,0,11,2,28,2c0,0,16,0,26,-1c0,0,10,-1,17,-4c0,0,6,-2,9,-4c0,0,3,-2,5,-5c0,0,76,-153,120,-315c0,0,44,-161,44,-329c0,0,0,-84,-11,-167c0,0,-10,-82,-31,-163c0,0,-21,-79,-51,-157c0,0,-30,-78,-71,-154c0,0,-2,-4,-6,-7c0,0,-5,-3,-12,-5c0,0,-7,-3,-17,-3c0,0,-9,-1,-23,-1Z"
id="f1_ow"
transform="scale(0.001,-0.001)"/>

<path d="M372,472c0,0,58,0,97,15c0,0,38,15,65,42c0,0,26,26,39,63c0,0,14,37,14,80c0,0,0,59,-22,99c0,0,-23,39,-55,59c0,0,-32,19,-67,24c0,0,-35,5,-68,5H256V472ZM192,-4c0,0,-18,0,-31,2c0,0,-12,2,-19,3c0,0,-8,3,-11,8c0,0,-3,4,-3,10V910c0,0,0,30,16,42c0,0,15,13,35,13H386c0,0,31,0,60,-3c0,0,28,-2,68,-11c0,0,39,-8,80,-32c0,0,40,-23,69,-58c0,0,28,-34,43,-79c0,0,16,-45,16,-100c0,0,0,-72,-24,-130c0,0,-24,-58,-69,-100c0,0,-44,-41,-109,-63c0,0,-64,-22,-154,-22H256V19c0,0,0,-6,-3,-10c0,0,-3,-5,-10,-8c0,0,-7,-1,-20,-3c0,0,-12,-2,-31,-2Z"
id="f1_2g"
transform="scale(0.001,-0.001)"/>

<path d="M321,-256c0,0,-13,0,-23,1c0,0,-10,0,-17,3c0,0,-7,2,-11,5c0,0,-5,3,-7,7c0,0,-40,76,-71,154c0,0,-31,78,-51,157c0,0,-21,81,-32,163c0,0,-10,83,-10,167c0,0,0,84,11,166c0,0,12,82,33,163c0,0,21,81,52,160c0,0,31,78,69,155c0,0,0,3,4,5c0,0,3,2,9,4c0,0,6,3,16,4c0,0,11,1,27,1c0,0,17,0,28,-2c0,0,10,-3,16,-6c0,0,6,-4,7,-10c0,0,1,-6,-2,-13c0,0,-71,-150,-106,-307c0,0,-34,-158,-34,-318c0,0,0,-160,35,-318c0,0,35,-156,103,-308c0,0,4,-9,4,-15c0,0,1,-6,-4,-10c0,0,-6,-4,-16,-6c0,0,-11,-2,-30,-2Z"
id="f1_ov"
transform="scale(0.001,-0.001)"/>

<path d="M128,0c0,0,-11,0,-19,3c0,0,-8,2,-13,8c0,0,-6,6,-8,17c0,0,-3,11,-3,28c0,0,0,15,1,26c0,0,1,11,5,20c0,0,4,8,9,17c0,0,6,8,15,18L302,336c0,0,65,68,104,123c0,0,39,54,61,99c0,0,21,45,28,81c0,0,6,37,6,69c0,0,0,32,-10,61c0,0,-11,29,-30,50c0,0,-20,22,-50,35c0,0,-30,12,-69,12c0,0,-45,0,-81,-12c0,0,-37,-13,-64,-28c0,0,-27,-15,-45,-27c0,0,-19,-13,-28,-13c0,0,-5,0,-9,3c0,0,-4,3,-7,10c0,0,-2,6,-4,18c0,0,-1,11,-1,26c0,0,0,12,0,20c0,0,1,8,3,14c0,0,2,6,5,11c0,0,3,5,12,13c0,0,9,8,31,21c0,0,22,14,55,27c0,0,33,13,73,22c0,0,40,9,84,9c0,0,70,0,123,-20c0,0,53,-20,87,-54c0,0,35,-34,52,-80c0,0,17,-46,17,-97c0,0,0,-46,-8,-92c0,0,-8,-46,-35,-99c0,0,-26,-54,-76,-119c0,0,-50,-65,-133,-151L240,109H660c0,0,6,0,12,-4c0,0,5,-3,9,-10c0,0,5,-7,6,-17c0,0,2,-10,2,-23c0,0,0,-13,-2,-24c0,0,-1,-10,-5,-17c0,0,-3,-7,-9,-11c0,0,-5,-3,-12,-3Z"
id="f1_rz"
transform="scale(0.001,-0.001)"/>

<path d="M343,-13c0,0,-49,0,-91,8c0,0,-42,7,-75,18c0,0,-33,11,-54,22c0,0,-22,12,-27,17c0,0,-6,5,-9,10c0,0,-3,5,-5,13c0,0,-3,7,-4,18c0,0,-1,11,-1,27c0,0,0,26,5,37c0,0,6,10,15,10c0,0,7,0,27,-12c0,0,20,-12,51,-25c0,0,31,-14,72,-26c0,0,41,-12,92,-12c0,0,49,0,87,13c0,0,37,12,62,35c0,0,26,24,39,55c0,0,12,32,12,69c0,0,0,41,-16,74c0,0,-16,33,-47,57c0,0,-31,24,-76,36c0,0,-45,13,-103,13H206c0,0,-6,0,-12,3c0,0,-6,2,-10,8c0,0,-4,6,-6,16c0,0,-3,10,-3,25c0,0,0,14,2,24c0,0,2,9,7,15c0,0,4,5,9,8c0,0,5,3,12,3h84c0,0,49,0,89,12c0,0,39,13,66,37c0,0,27,24,42,57c0,0,14,33,14,74c0,0,0,30,-9,57c0,0,-10,28,-30,48c0,0,-19,20,-49,32c0,0,-31,11,-70,11c0,0,-43,0,-80,-13c0,0,-36,-13,-64,-28c0,0,-29,-15,-47,-28c0,0,-19,-13,-26,-13c0,0,-6,0,-10,2c0,0,-4,2,-6,7c0,0,-3,6,-4,16c0,0,-1,10,-1,26c0,0,0,12,0,20c0,0,1,9,3,15c0,0,3,6,6,12c0,0,3,5,10,12c0,0,7,7,28,20c0,0,22,14,54,27c0,0,32,13,73,22c0,0,41,9,89,9c0,0,67,0,118,-17c0,0,51,-18,85,-49c0,0,34,-31,51,-75c0,0,17,-44,17,-97c0,0,0,-45,-12,-84c0,0,-12,-39,-35,-70c0,0,-24,-30,-57,-51c0,0,-34,-21,-78,-30v-1c0,0,50,-5,92,-25c0,0,41,-20,71,-50c0,0,30,-29,47,-69c0,0,16,-40,16,-86c0,0,0,-66,-23,-119c0,0,-23,-54,-66,-92C593,65,550,27,486,7c0,0,-63,-20,-143,-20Z"
id="f1_s0"
transform="scale(0.001,-0.001)"/>

<path d="M469,327V857h-2L153,327ZM530,-4c0,0,-18,0,-30,2c0,0,-12,1,-19,3c0,0,-7,3,-9,7c0,0,-3,4,-3,10V221H71c0,0,-9,0,-15,2c0,0,-6,2,-11,8c0,0,-5,6,-7,17c0,0,-2,12,-2,30c0,0,0,14,1,25c0,0,1,11,3,20c0,0,2,10,6,18c0,0,4,9,9,18L403,947c0,0,3,6,10,10c0,0,7,5,19,8c0,0,11,3,27,4c0,0,17,1,39,1c0,0,25,0,43,-2c0,0,18,-2,29,-5c0,0,12,-3,18,-8c0,0,6,-4,6,-11V327H702c0,0,13,0,21,-13c0,0,8,-13,8,-40c0,0,0,-25,-8,-39c0,0,-7,-14,-21,-14H594V18c0,0,0,-6,-3,-10c0,0,-3,-4,-11,-7c0,0,-7,-2,-19,-3c0,0,-12,-2,-31,-2Z"
id="f1_s1"
transform="scale(0.001,-0.001)"/>

<path d="M192,-4c0,0,-18,0,-30,2c0,0,-13,2,-20,3c0,0,-8,3,-11,8c0,0,-3,5,-3,10V913c0,0,0,29,15,40c0,0,16,12,33,12H610c0,0,5,0,10,-3c0,0,5,-3,9,-10c0,0,4,-6,5,-17c0,0,2,-11,2,-25c0,0,0,-14,-2,-24c0,0,-1,-11,-5,-17c0,0,-4,-7,-9,-9c0,0,-5,-3,-10,-3H256V528H591c0,0,5,0,10,-3c0,0,5,-2,8,-8c0,0,4,-6,6,-16c0,0,1,-10,1,-26c0,0,0,-14,-1,-24c0,0,-2,-10,-6,-17c0,0,-3,-6,-8,-9c0,0,-5,-4,-10,-4H256V19c0,0,0,-5,-3,-10c0,0,-3,-5,-10,-8c0,0,-7,-1,-19,-3c0,0,-12,-2,-32,-2Z"
id="f1_13"
transform="scale(0.001,-0.001)"/>

<path d="M102,0C102,0,87,0,77,10C77,10,66,21,66,45V71c0,0,0,10,2,18c0,0,1,9,4,17c0,0,3,8,9,17c0,0,5,10,12,22L390,606H102c0,0,-12,0,-19,13c0,0,-7,12,-7,39c0,0,0,14,2,24c0,0,1,10,5,16c0,0,3,7,8,9c0,0,5,3,11,3H487c0,0,9,0,15,-2c0,0,6,-3,11,-8c0,0,4,-5,7,-13c0,0,3,-8,3,-21V642c0,0,0,-10,-2,-19c0,0,-1,-9,-4,-18c0,0,-3,-8,-9,-18c0,0,-5,-10,-12,-22L201,104H516c0,0,6,0,11,-3c0,0,4,-3,8,-9c0,0,3,-6,5,-16c0,0,3,-10,3,-24c0,0,0,-14,-3,-24c0,0,-2,-10,-5,-16c0,0,-3,-7,-8,-9c0,0,-5,-3,-11,-3Z"
id="f1_ct"
transform="scale(0.001,-0.001)"/>

<path d="M175,661c0,0,-18,0,-32,2c0,0,-13,2,-22,9c0,0,-8,6,-12,18c0,0,-5,12,-5,32c0,0,0,23,3,42c0,0,2,19,7,37c0,0,5,17,14,34c0,0,9,17,21,35l102,154c0,0,4,6,9,9c0,0,4,4,11,7c0,0,7,2,17,4c0,0,9,1,22,1c0,0,14,0,22,-1c0,0,9,-1,13,-4c0,0,4,-2,4,-7c0,0,0,-4,-3,-10L248,817V722c0,0,0,-20,-5,-32c0,0,-4,-12,-13,-18c0,0,-9,-7,-23,-9c0,0,-13,-2,-32,-2Z"
id="f1_nv"
transform="scale(0.001,-0.001)"/>

<path d="M79,326c0,0,-14,0,-20,11c0,0,-7,12,-7,40c0,0,0,29,7,40c0,0,6,11,20,11H390c0,0,6,0,11,-2c0,0,5,-2,8,-9c0,0,4,-6,6,-16c0,0,2,-9,2,-24c0,0,0,-29,-7,-40c0,0,-7,-11,-20,-11Z"
id="f1_oj"
transform="scale(0.001,-0.001)"/>

</defs>
<g fill="#000000"  clip-path="url(#c0_1)">
<use xlink:href="#f0_1x" transform="matrix(12,0,0,12,315.1,130.2)"/>
<use xlink:href="#f0_77" transform="matrix(12,0,0,12,331.3,130.2)"/>
<use xlink:href="#f0_7l" transform="matrix(12,0,0,12,340.4,130.2)"/>
<use xlink:href="#f0_9n" transform="matrix(12,0,0,12,348.1,130.2)"/>
<use xlink:href="#f0_9q" transform="matrix(12,0,0,12,358,130.2)"/>
<use xlink:href="#f0_af" transform="matrix(12,0,0,12,362.4,130.2)"/>
<use xlink:href="#f0_7z" transform="matrix(12,0,0,12,372.3,130.2)"/>
<use xlink:href="#f0_p" transform="matrix(12,0,0,12,385.5,130.2)"/>
<use xlink:href="#f0_7z" transform="matrix(12,0,0,12,397.2,130.2)"/>
<use xlink:href="#f0_7z" transform="matrix(12,0,0,12,406.3,130.2)"/>
<use xlink:href="#f0_ay" transform="matrix(12,0,0,12,415.5,130.2)"/>
<use xlink:href="#f0_1r" transform="matrix(12,0,0,12,429.4,130.2)"/>
<use xlink:href="#f0_7z" transform="matrix(12,0,0,12,437.1,130.2)"/>
<use xlink:href="#f0_77" transform="matrix(12,0,0,12,446.3,130.2)"/>
<use xlink:href="#f0_b1" transform="matrix(12,0,0,12,455.4,130.2)"/>
<use xlink:href="#f0_af" transform="matrix(12,0,0,12,462,130.2)"/>
<use xlink:href="#f0_9q" transform="matrix(12,0,0,12,471.9,130.2)"/>
<use xlink:href="#f0_af" transform="matrix(12,0,0,12,476.3,130.2)"/>
<use xlink:href="#f0_9d" transform="matrix(12,0,0,12,486.2,130.2)"/>
<use xlink:href="#f0_9q" transform="matrix(12,0,0,12,499,130.2)"/>
<use xlink:href="#f0_af" transform="matrix(12,0,0,12,503.4,130.2)"/>
<use xlink:href="#f0_77" transform="matrix(12,0,0,12,517.3,130.2)"/>
<use xlink:href="#f0_1y" transform="matrix(12,0,0,12,530.5,130.2)"/>
<use xlink:href="#f0_c6" transform="matrix(12,0,0,12,542.6,130.2)"/>
<use xlink:href="#f0_bf" transform="matrix(12,0,0,12,552.5,130.2)"/>
<use xlink:href="#f0_b5" transform="matrix(12,0,0,12,558.7,130.2)"/>
<use xlink:href="#f0_9n" transform="matrix(12,0,0,12,566,130.2)"/>
<use xlink:href="#f0_7z" transform="matrix(12,0,0,12,575.9,130.2)"/>
<use xlink:href="#f0_a8" transform="matrix(12,0,0,12,585.1,130.2)"/>
<use xlink:href="#f0_a8" transform="matrix(12,0,0,12,589.5,130.2)"/>
<use xlink:href="#f1_1x" transform="matrix(12,0,0,12,174.2,185.2)"/>
<use xlink:href="#f1_am" transform="matrix(12,0,0,12,190,185.2)"/>
<use xlink:href="#f1_7v" transform="matrix(12,0,0,12,199.5,185.2)"/>
<use xlink:href="#f1_7z" transform="matrix(12,0,0,12,209.1,185.2)"/>
<use xlink:href="#f1_b1" transform="matrix(12,0,0,12,218.2,185.2)"/>
<use xlink:href="#f1_af" transform="matrix(12,0,0,12,224.5,185.2)"/>
<use xlink:href="#f1_ae" transform="matrix(12,0,0,12,238,185.2)"/>
<use xlink:href="#f1_77" transform="matrix(12,0,0,12,252.7,185.2)"/>
<use xlink:href="#f1_7l" transform="matrix(12,0,0,12,261.5,185.2)"/>
<use xlink:href="#f1_9n" transform="matrix(12,0,0,12,269.5,185.2)"/>
<use xlink:href="#f1_9q" transform="matrix(12,0,0,12,279.1,185.2)"/>
<use xlink:href="#f1_af" transform="matrix(12,0,0,12,283.1,185.2)"/>
<use xlink:href="#f1_7z" transform="matrix(12,0,0,12,292.6,185.2)"/>
<use xlink:href="#f1_a8" transform="matrix(12,0,0,12,306.2,185.2)"/>
<use xlink:href="#f1_7z" transform="matrix(12,0,0,12,310.2,185.2)"/>
<use xlink:href="#f1_77" transform="matrix(12,0,0,12,319.4,185.2)"/>
<use xlink:href="#f1_b1" transform="matrix(12,0,0,12,328.2,185.2)"/>
<use xlink:href="#f1_af" transform="matrix(12,0,0,12,334.4,185.2)"/>
<use xlink:href="#f1_9q" transform="matrix(12,0,0,12,344.3,185.2)"/>
<use xlink:href="#f1_af" transform="matrix(12,0,0,12,348.3,185.2)"/>
<use xlink:href="#f1_9d" transform="matrix(12,0,0,12,357.9,185.2)"/>
<use xlink:href="#f1_ae" transform="matrix(12,0,0,12,370.7,185.2)"/>
<use xlink:href="#f1_7z" transform="matrix(12,0,0,12,385.3,185.2)"/>
<use xlink:href="#f1_bf" transform="matrix(12,0,0,12,394.4,185.2)"/>
<use xlink:href="#f1_9n" transform="matrix(12,0,0,12,400.7,185.2)"/>
<use xlink:href="#f1_am" transform="matrix(12,0,0,12,410.2,185.2)"/>
<use xlink:href="#f1_7v" transform="matrix(12,0,0,12,419.8,185.2)"/>
<use xlink:href="#f1_9n" transform="matrix(12,0,0,12,434,185.2)"/>
<use xlink:href="#f1_7z" transform="matrix(12,0,0,12,443.5,185.2)"/>
<use xlink:href="#f1_a8" transform="matrix(12,0,0,12,452.6,185.2)"/>
<use xlink:href="#f1_ay" transform="matrix(12,0,0,12,456.7,185.2)"/>
<use xlink:href="#f1_ay" transform="matrix(12,0,0,12,470.6,185.2)"/>
<use xlink:href="#f1_7z" transform="matrix(12,0,0,12,480.2,185.2)"/>
<use xlink:href="#f1_am" transform="matrix(12,0,0,12,489.3,185.2)"/>
<use xlink:href="#f1_ay" transform="matrix(12,0,0,12,498.9,185.2)"/>
<use xlink:href="#f1_a8" transform="matrix(12,0,0,12,508.7,185.2)"/>
<use xlink:href="#f1_7z" transform="matrix(12,0,0,12,512.8,185.2)"/>
<use xlink:href="#f1_9q" transform="matrix(12,0,0,12,526.3,185.2)"/>
<use xlink:href="#f1_af" transform="matrix(12,0,0,12,530.3,185.2)"/>
<use xlink:href="#f1_ae" transform="matrix(12,0,0,12,544.3,185.2)"/>
<use xlink:href="#f1_77" transform="matrix(12,0,0,12,558.9,185.2)"/>
<use xlink:href="#f1_a5" transform="matrix(12,0,0,12,567.7,185.2)"/>
<use xlink:href="#f1_9q" transform="matrix(12,0,0,12,576.1,185.2)"/>
<use xlink:href="#f1_af" transform="matrix(12,0,0,12,580.2,185.2)"/>
<use xlink:href="#f1_9d" transform="matrix(12,0,0,12,589.7,185.2)"/>
<use xlink:href="#f1_7v" transform="matrix(12,0,0,12,602.5,185.2)"/>
<use xlink:href="#f1_7z" transform="matrix(12,0,0,12,612.1,185.2)"/>
<use xlink:href="#f1_7l" transform="matrix(12,0,0,12,621.2,185.2)"/>
<use xlink:href="#f1_9q" transform="matrix(12,0,0,12,628.9,185.2)"/>
<use xlink:href="#f1_b5" transform="matrix(12,0,0,12,633,185.2)"/>
<use xlink:href="#f1_9q" transform="matrix(12,0,0,12,640.3,185.2)"/>
<use xlink:href="#f1_am" transform="matrix(12,0,0,12,644.3,185.2)"/>
<use xlink:href="#f1_af" transform="matrix(12,0,0,12,654.2,185.2)"/>
<use xlink:href="#f1_77" transform="matrix(12,0,0,12,667.8,185.2)"/>
<use xlink:href="#f1_af" transform="matrix(12,0,0,12,676.5,185.2)"/>
<use xlink:href="#f1_7v" transform="matrix(12,0,0,12,686.1,185.2)"/>
<use xlink:href="#f1_ay" transform="matrix(12,0,0,12,137.6,212.7)"/>
<use xlink:href="#f1_b1" transform="matrix(12,0,0,12,147.1,212.7)"/>
<use xlink:href="#f1_7z" transform="matrix(12,0,0,12,153.3,212.7)"/>
<use xlink:href="#f1_7v" transform="matrix(12,0,0,12,162.5,212.7)"/>
<use xlink:href="#f1_9q" transform="matrix(12,0,0,12,172,212.7)"/>
<use xlink:href="#f1_7l" transform="matrix(12,0,0,12,176.1,212.7)"/>
<use xlink:href="#f1_bf" transform="matrix(12,0,0,12,183.8,212.7)"/>
<use xlink:href="#f1_9q" transform="matrix(12,0,0,12,190,212.7)"/>
<use xlink:href="#f1_am" transform="matrix(12,0,0,12,194,212.7)"/>
<use xlink:href="#f1_af" transform="matrix(12,0,0,12,203.9,212.7)"/>
<use xlink:href="#f1_89" transform="matrix(12,0,0,12,217.5,212.7)"/>
<use xlink:href="#f1_b1" transform="matrix(12,0,0,12,223,212.7)"/>
<use xlink:href="#f1_am" transform="matrix(12,0,0,12,229.2,212.7)"/>
<use xlink:href="#f1_ae" transform="matrix(12,0,0,12,238.7,212.7)"/>
<use xlink:href="#f1_7v" transform="matrix(12,0,0,12,257.8,212.7)"/>
<use xlink:href="#f1_77" transform="matrix(12,0,0,12,267.3,212.7)"/>
<use xlink:href="#f1_bf" transform="matrix(12,0,0,12,275.8,212.7)"/>
<use xlink:href="#f1_77" transform="matrix(12,0,0,12,281.6,212.7)"/>
<use xlink:href="#f1_nt" transform="matrix(12,0,0,12,290.4,212.7)"/>
<use xlink:href="#f1_1r" transform="matrix(12,0,0,12,299.3,212.7)"/>
<use xlink:href="#f1_9q" transform="matrix(12,0,0,12,307.4,212.7)"/>
<use xlink:href="#f1_a5" transform="matrix(12,0,0,12,311.4,212.7)"/>
<use xlink:href="#f1_7z" transform="matrix(12,0,0,12,319.1,212.7)"/>
<use xlink:href="#f1_j" transform="matrix(12,0,0,12,332.4,212.7)"/>
<use xlink:href="#f1_5" transform="matrix(12,0,0,12,342.2,212.7)"/>
<use xlink:href="#f1_p" transform="matrix(12,0,0,12,352.8,212.7)"/>
<use xlink:href="#f1_nq" transform="matrix(12,0,0,12,363.5,212.7)"/>
<use xlink:href="#f1_j" transform="matrix(12,0,0,12,372.3,212.7)"/>
<use xlink:href="#f1_am" transform="matrix(12,0,0,12,382.2,212.7)"/>
<use xlink:href="#f1_ae" transform="matrix(12,0,0,12,391.7,212.7)"/>
<use xlink:href="#f1_ay" transform="matrix(12,0,0,12,406.3,212.7)"/>
<use xlink:href="#f1_c6" transform="matrix(12,0,0,12,415.9,212.7)"/>
<use xlink:href="#f1_bf" transform="matrix(12,0,0,12,425.4,212.7)"/>
<use xlink:href="#f1_7z" transform="matrix(12,0,0,12,431.3,212.7)"/>
<use xlink:href="#f1_b1" transform="matrix(12,0,0,12,440.8,212.7)"/>
<use xlink:href="#f1_5" transform="matrix(12,0,0,12,451.1,212.7)"/>
<use xlink:href="#f1_9q" transform="matrix(12,0,0,12,461.7,212.7)"/>
<use xlink:href="#f1_7v" transform="matrix(12,0,0,12,466.1,212.7)"/>
<use xlink:href="#f1_7z" transform="matrix(12,0,0,12,475.6,212.7)"/>
<use xlink:href="#f1_7v" transform="matrix(12,0,0,12,484.8,212.7)"/>
<use xlink:href="#f1_p" transform="matrix(12,0,0,12,498.4,212.7)"/>
<use xlink:href="#f1_7z" transform="matrix(12,0,0,12,510.1,212.7)"/>
<use xlink:href="#f1_b5" transform="matrix(12,0,0,12,519.2,212.7)"/>
<use xlink:href="#f1_9q" transform="matrix(12,0,0,12,526.6,212.7)"/>
<use xlink:href="#f1_9d" transform="matrix(12,0,0,12,530.6,212.7)"/>
<use xlink:href="#f1_af" transform="matrix(12,0,0,12,539.4,212.7)"/>
<use xlink:href="#f1_nq" transform="matrix(12,0,0,12,548.9,212.7)"/>
<use xlink:href="#f1_9n" transform="matrix(12,0,0,12,557.5,212.7)"/>
<use xlink:href="#f1_c6" transform="matrix(12,0,0,12,567.1,212.7)"/>
<use xlink:href="#f1_ae" transform="matrix(12,0,0,12,576.6,212.7)"/>
<use xlink:href="#f1_77" transform="matrix(12,0,0,12,591.3,212.7)"/>
<use xlink:href="#f1_af" transform="matrix(12,0,0,12,600,212.7)"/>
<use xlink:href="#f1_9q" transform="matrix(12,0,0,12,614,212.7)"/>
<use xlink:href="#f1_b5" transform="matrix(12,0,0,12,618,212.7)"/>
<use xlink:href="#f1_ae" transform="matrix(12,0,0,12,629.4,212.7)"/>
<use xlink:href="#f1_77" transform="matrix(12,0,0,12,644,212.7)"/>
<use xlink:href="#f1_a5" transform="matrix(12,0,0,12,652.8,212.7)"/>
<use xlink:href="#f1_9q" transform="matrix(12,0,0,12,661.3,212.7)"/>
<use xlink:href="#f1_af" transform="matrix(12,0,0,12,665.3,212.7)"/>
<use xlink:href="#f1_9d" transform="matrix(12,0,0,12,674.8,212.7)"/>
<use xlink:href="#f1_c6" transform="matrix(12,0,0,12,687.6,212.7)"/>
<use xlink:href="#f1_b5" transform="matrix(12,0,0,12,697.2,212.7)"/>
<use xlink:href="#f1_7z" transform="matrix(12,0,0,12,704.5,212.7)"/>
<use xlink:href="#f1_am" transform="matrix(12,0,0,12,717.7,212.7)"/>
<use xlink:href="#f1_89" transform="matrix(12,0,0,12,727.6,212.7)"/>
<use xlink:href="#f1_7l" transform="matrix(12,0,0,12,137.6,240.2)"/>
<use xlink:href="#f1_am" transform="matrix(12,0,0,12,145.3,240.2)"/>
<use xlink:href="#f1_ae" transform="matrix(12,0,0,12,154.8,240.2)"/>
<use xlink:href="#f1_ay" transform="matrix(12,0,0,12,169.5,240.2)"/>
<use xlink:href="#f1_c6" transform="matrix(12,0,0,12,179,240.2)"/>
<use xlink:href="#f1_bf" transform="matrix(12,0,0,12,188.5,240.2)"/>
<use xlink:href="#f1_7z" transform="matrix(12,0,0,12,194.4,240.2)"/>
<use xlink:href="#f1_b1" transform="matrix(12,0,0,12,203.5,240.2)"/>
<use xlink:href="#f1_89" transform="matrix(12,0,0,12,214.2,240.2)"/>
<use xlink:href="#f1_am" transform="matrix(12,0,0,12,219.3,240.2)"/>
<use xlink:href="#f1_b1" transform="matrix(12,0,0,12,228.9,240.2)"/>
<use xlink:href="#f1_j" transform="matrix(12,0,0,12,239.5,240.2)"/>
<use xlink:href="#f1_5" transform="matrix(12,0,0,12,249.4,240.2)"/>
<use xlink:href="#f1_p" transform="matrix(12,0,0,12,260,240.2)"/>
<use xlink:href="#f1_1x" transform="matrix(12,0,0,12,271.3,240.2)"/>
<use xlink:href="#f1_nq" transform="matrix(12,0,0,12,287.1,240.2)"/>
<use xlink:href="#f1_j" transform="matrix(12,0,0,12,295.6,240.2)"/>
<use xlink:href="#f1_am" transform="matrix(12,0,0,12,305.5,240.2)"/>
<use xlink:href="#f1_ae" transform="matrix(12,0,0,12,315.1,240.2)"/>
<use xlink:href="#f1_ay" transform="matrix(12,0,0,12,329.7,240.2)"/>
<use xlink:href="#f1_c6" transform="matrix(12,0,0,12,339.3,240.2)"/>
<use xlink:href="#f1_bf" transform="matrix(12,0,0,12,348.8,240.2)"/>
<use xlink:href="#f1_7z" transform="matrix(12,0,0,12,354.7,240.2)"/>
<use xlink:href="#f1_b1" transform="matrix(12,0,0,12,364.2,240.2)"/>
<use xlink:href="#f1_5" transform="matrix(12,0,0,12,374.4,240.2)"/>
<use xlink:href="#f1_9q" transform="matrix(12,0,0,12,385.1,240.2)"/>
<use xlink:href="#f1_7v" transform="matrix(12,0,0,12,389.1,240.2)"/>
<use xlink:href="#f1_7z" transform="matrix(12,0,0,12,398.6,240.2)"/>
<use xlink:href="#f1_7v" transform="matrix(12,0,0,12,408.2,240.2)"/>
<use xlink:href="#f1_p" transform="matrix(12,0,0,12,421.7,240.2)"/>
<use xlink:href="#f1_7z" transform="matrix(12,0,0,12,433.1,240.2)"/>
<use xlink:href="#f1_7l" transform="matrix(12,0,0,12,442.2,240.2)"/>
<use xlink:href="#f1_9q" transform="matrix(12,0,0,12,450,240.2)"/>
<use xlink:href="#f1_b5" transform="matrix(12,0,0,12,454,240.2)"/>
<use xlink:href="#f1_9q" transform="matrix(12,0,0,12,461.3,240.2)"/>
<use xlink:href="#f1_am" transform="matrix(12,0,0,12,465.7,240.2)"/>
<use xlink:href="#f1_af" transform="matrix(12,0,0,12,475.2,240.2)"/>
<use xlink:href="#f1_1x" transform="matrix(12,0,0,12,488.8,240.2)"/>
<use xlink:href="#f1_77" transform="matrix(12,0,0,12,504.9,240.2)"/>
<use xlink:href="#f1_a5" transform="matrix(12,0,0,12,513.7,240.2)"/>
<use xlink:href="#f1_9q" transform="matrix(12,0,0,12,522.1,240.2)"/>
<use xlink:href="#f1_af" transform="matrix(12,0,0,12,526.1,240.2)"/>
<use xlink:href="#f1_9d" transform="matrix(12,0,0,12,535.7,240.2)"/>
<use xlink:href="#f1_nt" transform="matrix(12,0,0,12,544.4,240.2)"/>
<use xlink:href="#f1_2t" transform="matrix(12,0,0,12,553.2,240.2)"/>
<use xlink:href="#f1_9n" transform="matrix(12,0,0,12,562,240.2)"/>
<use xlink:href="#f1_7z" transform="matrix(12,0,0,12,571.6,240.2)"/>
<use xlink:href="#f1_7v" transform="matrix(12,0,0,12,584.8,240.2)"/>
<use xlink:href="#f1_7z" transform="matrix(12,0,0,12,594.3,240.2)"/>
<use xlink:href="#f1_ch" transform="matrix(12,0,0,12,603.4,240.2)"/>
<use xlink:href="#f1_7z" transform="matrix(12,0,0,12,611.5,240.2)"/>
<use xlink:href="#f1_a8" transform="matrix(12,0,0,12,620.7,240.2)"/>
<use xlink:href="#f1_am" transform="matrix(12,0,0,12,624.7,240.2)"/>
<use xlink:href="#f1_ay" transform="matrix(12,0,0,12,634.6,240.2)"/>
<use xlink:href="#f1_ae" transform="matrix(12,0,0,12,644.1,240.2)"/>
<use xlink:href="#f1_7z" transform="matrix(12,0,0,12,658.8,240.2)"/>
<use xlink:href="#f1_af" transform="matrix(12,0,0,12,667.9,240.2)"/>
<use xlink:href="#f1_bf" transform="matrix(12,0,0,12,677.5,240.2)"/>
<use xlink:href="#f1_am" transform="matrix(12,0,0,12,687.8,240.2)"/>
<use xlink:href="#f1_89" transform="matrix(12,0,0,12,697.3,240.2)"/>
<use xlink:href="#f1_ae" transform="matrix(12,0,0,12,706.8,240.2)"/>
<use xlink:href="#f1_am" transform="matrix(12,0,0,12,721.9,240.2)"/>
<use xlink:href="#f1_7v" transform="matrix(12,0,0,12,731.4,240.2)"/>
<use xlink:href="#f1_7z" transform="matrix(12,0,0,12,740.9,240.2)"/>
<use xlink:href="#f1_b1" transform="matrix(12,0,0,12,750.1,240.2)"/>
<use xlink:href="#f1_af" transform="matrix(12,0,0,12,756.3,240.2)"/>
<use xlink:href="#f1_ae" transform="matrix(12,0,0,12,137.6,267.7)"/>
<use xlink:href="#f1_77" transform="matrix(12,0,0,12,152.2,267.7)"/>
<use xlink:href="#f1_7l" transform="matrix(12,0,0,12,161,267.7)"/>
<use xlink:href="#f1_9n" transform="matrix(12,0,0,12,168.8,267.7)"/>
<use xlink:href="#f1_9q" transform="matrix(12,0,0,12,178.3,267.7)"/>
<use xlink:href="#f1_af" transform="matrix(12,0,0,12,182.3,267.7)"/>
<use xlink:href="#f1_7z" transform="matrix(12,0,0,12,191.8,267.7)"/>
<use xlink:href="#f1_a8" transform="matrix(12,0,0,12,205.4,267.7)"/>
<use xlink:href="#f1_7z" transform="matrix(12,0,0,12,209.4,267.7)"/>
<use xlink:href="#f1_77" transform="matrix(12,0,0,12,218.6,267.7)"/>
<use xlink:href="#f1_b1" transform="matrix(12,0,0,12,227.4,267.7)"/>
<use xlink:href="#f1_af" transform="matrix(12,0,0,12,233.6,267.7)"/>
<use xlink:href="#f1_9q" transform="matrix(12,0,0,12,243.5,267.7)"/>
<use xlink:href="#f1_af" transform="matrix(12,0,0,12,247.5,267.7)"/>
<use xlink:href="#f1_9d" transform="matrix(12,0,0,12,257.1,267.7)"/>
<use xlink:href="#f1_ae" transform="matrix(12,0,0,12,270,267.7)"/>
<use xlink:href="#f1_7z" transform="matrix(12,0,0,12,284.6,267.7)"/>
<use xlink:href="#f1_bf" transform="matrix(12,0,0,12,293.8,267.7)"/>
<use xlink:href="#f1_9n" transform="matrix(12,0,0,12,300,267.7)"/>
<use xlink:href="#f1_am" transform="matrix(12,0,0,12,309.6,267.7)"/>
<use xlink:href="#f1_7v" transform="matrix(12,0,0,12,319.1,267.7)"/>
<use xlink:href="#f1_b5" transform="matrix(12,0,0,12,328.6,267.7)"/>
<use xlink:href="#f1_9q" transform="matrix(12,0,0,12,340.1,267.7)"/>
<use xlink:href="#f1_b5" transform="matrix(12,0,0,12,344.1,267.7)"/>
<use xlink:href="#f1_9q" transform="matrix(12,0,0,12,355.8,267.7)"/>
<use xlink:href="#f1_ae" transform="matrix(12,0,0,12,359.9,267.7)"/>
<use xlink:href="#f1_ay" transform="matrix(12,0,0,12,374.5,267.7)"/>
<use xlink:href="#f1_am" transform="matrix(12,0,0,12,384.1,267.7)"/>
<use xlink:href="#f1_b1" transform="matrix(12,0,0,12,393.9,267.7)"/>
<use xlink:href="#f1_bf" transform="matrix(12,0,0,12,400.2,267.7)"/>
<use xlink:href="#f1_77" transform="matrix(12,0,0,12,406,267.7)"/>
<use xlink:href="#f1_af" transform="matrix(12,0,0,12,414.8,267.7)"/>
<use xlink:href="#f1_bf" transform="matrix(12,0,0,12,424.4,267.7)"/>
<use xlink:href="#f1_bf" transform="matrix(12,0,0,12,434.6,267.7)"/>
<use xlink:href="#f1_am" transform="matrix(12,0,0,12,440.5,267.7)"/>
<use xlink:href="#f1_9n" transform="matrix(12,0,0,12,454.4,267.7)"/>
<use xlink:href="#f1_c6" transform="matrix(12,0,0,12,463.9,267.7)"/>
<use xlink:href="#f1_ae" transform="matrix(12,0,0,12,473.5,267.7)"/>
<use xlink:href="#f1_77" transform="matrix(12,0,0,12,488.1,267.7)"/>
<use xlink:href="#f1_af" transform="matrix(12,0,0,12,496.9,267.7)"/>
<use xlink:href="#f1_7z" transform="matrix(12,0,0,12,510.8,267.7)"/>
<use xlink:href="#f1_af" transform="matrix(12,0,0,12,520,267.7)"/>
<use xlink:href="#f1_7v" transform="matrix(12,0,0,12,529.5,267.7)"/>
<use xlink:href="#f1_7z" transform="matrix(12,0,0,12,539.1,267.7)"/>
<use xlink:href="#f1_77" transform="matrix(12,0,0,12,548.2,267.7)"/>
<use xlink:href="#f1_ch" transform="matrix(12,0,0,12,556.7,267.7)"/>
<use xlink:href="#f1_am" transform="matrix(12,0,0,12,564.7,267.7)"/>
<use xlink:href="#f1_b1" transform="matrix(12,0,0,12,574.3,267.7)"/>
<use xlink:href="#f1_7k" transform="matrix(12,0,0,12,585.1,267.7)"/>
<use xlink:href="#f1_co" transform="matrix(12,0,0,12,594.6,267.7)"/>
<use xlink:href="#f1_77" transform="matrix(12,0,0,12,607.1,267.7)"/>
<use xlink:href="#f1_7v" transform="matrix(12,0,0,12,615.9,267.7)"/>
<use xlink:href="#f1_ch" transform="matrix(12,0,0,12,625.4,267.7)"/>
<use xlink:href="#f1_77" transform="matrix(12,0,0,12,633.5,267.7)"/>
<use xlink:href="#f1_af" transform="matrix(12,0,0,12,642.3,267.7)"/>
<use xlink:href="#f1_7l" transform="matrix(12,0,0,12,651.8,267.7)"/>
<use xlink:href="#f1_9q" transform="matrix(12,0,0,12,659.6,267.7)"/>
<use xlink:href="#f1_af" transform="matrix(12,0,0,12,663.9,267.7)"/>
<use xlink:href="#f1_9d" transform="matrix(12,0,0,12,673.5,267.7)"/>
<use xlink:href="#f1_9n" transform="matrix(12,0,0,12,686.3,267.7)"/>
<use xlink:href="#f1_c6" transform="matrix(12,0,0,12,695.8,267.7)"/>
<use xlink:href="#f1_ae" transform="matrix(12,0,0,12,705.4,267.7)"/>
<use xlink:href="#f1_77" transform="matrix(12,0,0,12,720,267.7)"/>
<use xlink:href="#f1_af" transform="matrix(12,0,0,12,728.8,267.7)"/>
<use xlink:href="#f1_nw" transform="matrix(12,0,0,12,738.7,267.7)"/>
<use xlink:href="#f1_b5" transform="matrix(12,0,0,12,742,267.7)"/>
<use xlink:href="#f1_a5" transform="matrix(12,0,0,12,137.6,295.2)"/>
<use xlink:href="#f1_af" transform="matrix(12,0,0,12,146,295.2)"/>
<use xlink:href="#f1_am" transform="matrix(12,0,0,12,155.5,295.2)"/>
<use xlink:href="#f1_ci" transform="matrix(12,0,0,12,165.1,295.2)"/>
<use xlink:href="#f1_a8" transform="matrix(12,0,0,12,178.2,295.2)"/>
<use xlink:href="#f1_7z" transform="matrix(12,0,0,12,182.3,295.2)"/>
<use xlink:href="#f1_7v" transform="matrix(12,0,0,12,191.4,295.2)"/>
<use xlink:href="#f1_9d" transform="matrix(12,0,0,12,201,295.2)"/>
<use xlink:href="#f1_7z" transform="matrix(12,0,0,12,209.4,295.2)"/>
<use xlink:href="#f1_bf" transform="matrix(12,0,0,12,222.6,295.2)"/>
<use xlink:href="#f1_am" transform="matrix(12,0,0,12,228.5,295.2)"/>
<use xlink:href="#f1_7k" transform="matrix(12,0,0,12,242.4,295.2)"/>
<use xlink:href="#f1_b1" transform="matrix(12,0,0,12,251.9,295.2)"/>
<use xlink:href="#f1_am" transform="matrix(12,0,0,12,258.2,295.2)"/>
<use xlink:href="#f1_77" transform="matrix(12,0,0,12,267.7,295.2)"/>
<use xlink:href="#f1_7v" transform="matrix(12,0,0,12,276.5,295.2)"/>
<use xlink:href="#f1_7z" transform="matrix(12,0,0,12,286,295.2)"/>
<use xlink:href="#f1_b1" transform="matrix(12,0,0,12,295.1,295.2)"/>
<use xlink:href="#f1_77" transform="matrix(12,0,0,12,305.8,295.2)"/>
<use xlink:href="#f1_af" transform="matrix(12,0,0,12,314.6,295.2)"/>
<use xlink:href="#f1_7v" transform="matrix(12,0,0,12,324.1,295.2)"/>
<use xlink:href="#f1_7v" transform="matrix(12,0,0,12,338,295.2)"/>
<use xlink:href="#f1_7z" transform="matrix(12,0,0,12,347.6,295.2)"/>
<use xlink:href="#f1_7z" transform="matrix(12,0,0,12,356.7,295.2)"/>
<use xlink:href="#f1_ay" transform="matrix(12,0,0,12,365.9,295.2)"/>
<use xlink:href="#f1_7z" transform="matrix(12,0,0,12,375.4,295.2)"/>
<use xlink:href="#f1_b1" transform="matrix(12,0,0,12,384.6,295.2)"/>
<use xlink:href="#f1_7z" transform="matrix(12,0,0,12,395.5,295.2)"/>
<use xlink:href="#f1_cn" transform="matrix(12,0,0,12,404.3,295.2)"/>
<use xlink:href="#f1_bf" transform="matrix(12,0,0,12,412.3,295.2)"/>
<use xlink:href="#f1_7z" transform="matrix(12,0,0,12,418.2,295.2)"/>
<use xlink:href="#f1_af" transform="matrix(12,0,0,12,427.3,295.2)"/>
<use xlink:href="#f1_7v" transform="matrix(12,0,0,12,436.9,295.2)"/>
<use xlink:href="#f1_b5" transform="matrix(12,0,0,12,446.4,295.2)"/>
<use xlink:href="#f1_nt" transform="matrix(12,0,0,12,453.7,295.2)"/>
<use xlink:href="#f1_19" transform="matrix(12,0,0,12,137.6,350.3)"/>
<use xlink:href="#f1_7z" transform="matrix(12,0,0,12,148.9,350.3)"/>
<use xlink:href="#f1_b1" transform="matrix(12,0,0,12,158.1,350.3)"/>
<use xlink:href="#f1_7z" transform="matrix(12,0,0,12,164.3,350.3)"/>
<use xlink:href="#f1_ci" transform="matrix(12,0,0,12,177.5,350.3)"/>
<use xlink:href="#f1_7z" transform="matrix(12,0,0,12,190.4,350.3)"/>
<use xlink:href="#f1_ci" transform="matrix(12,0,0,12,203.6,350.3)"/>
<use xlink:href="#f1_9q" transform="matrix(12,0,0,12,216.8,350.3)"/>
<use xlink:href="#f1_a8" transform="matrix(12,0,0,12,220.8,350.3)"/>
<use xlink:href="#f1_a8" transform="matrix(12,0,0,12,225.2,350.3)"/>
<use xlink:href="#f1_9d" transform="matrix(12,0,0,12,233.2,350.3)"/>
<use xlink:href="#f1_am" transform="matrix(12,0,0,12,241.7,350.3)"/>
<use xlink:href="#f1_bf" transform="matrix(12,0,0,12,255.6,350.3)"/>
<use xlink:href="#f1_9n" transform="matrix(12,0,0,12,261.8,350.3)"/>
<use xlink:href="#f1_b1" transform="matrix(12,0,0,12,271.3,350.3)"/>
<use xlink:href="#f1_am" transform="matrix(12,0,0,12,277.6,350.3)"/>
<use xlink:href="#f1_c6" transform="matrix(12,0,0,12,287.1,350.3)"/>
<use xlink:href="#f1_9d" transform="matrix(12,0,0,12,296.6,350.3)"/>
<use xlink:href="#f1_9n" transform="matrix(12,0,0,12,305.4,350.3)"/>
<use xlink:href="#f1_bf" transform="matrix(12,0,0,12,319,350.3)"/>
<use xlink:href="#f1_9n" transform="matrix(12,0,0,12,325.2,350.3)"/>
<use xlink:href="#f1_7z" transform="matrix(12,0,0,12,334.7,350.3)"/>
<use xlink:href="#f1_7k" transform="matrix(12,0,0,12,348.3,350.3)"/>
<use xlink:href="#f1_77" transform="matrix(12,0,0,12,357.8,350.3)"/>
<use xlink:href="#f1_b5" transform="matrix(12,0,0,12,366.6,350.3)"/>
<use xlink:href="#f1_9q" transform="matrix(12,0,0,12,373.9,350.3)"/>
<use xlink:href="#f1_7l" transform="matrix(12,0,0,12,378,350.3)"/>
<use xlink:href="#f1_b5" transform="matrix(12,0,0,12,385.9,350.3)"/>
<use xlink:href="#f1_77" transform="matrix(12,0,0,12,397.3,350.3)"/>
<use xlink:href="#f1_af" transform="matrix(12,0,0,12,406.1,350.3)"/>
<use xlink:href="#f1_7v" transform="matrix(12,0,0,12,415.6,350.3)"/>
<use xlink:href="#f1_b5" transform="matrix(12,0,0,12,429.2,350.3)"/>
<use xlink:href="#f1_am" transform="matrix(12,0,0,12,436.5,350.3)"/>
<use xlink:href="#f1_ae" transform="matrix(12,0,0,12,446,350.3)"/>
<use xlink:href="#f1_7z" transform="matrix(12,0,0,12,460.7,350.3)"/>
<use xlink:href="#f1_77" transform="matrix(12,0,0,12,473.9,350.3)"/>
<use xlink:href="#f1_7v" transform="matrix(12,0,0,12,483,350.3)"/>
<use xlink:href="#f1_ch" transform="matrix(12,0,0,12,492.6,350.3)"/>
<use xlink:href="#f1_77" transform="matrix(12,0,0,12,500.6,350.3)"/>
<use xlink:href="#f1_af" transform="matrix(12,0,0,12,509.4,350.3)"/>
<use xlink:href="#f1_7l" transform="matrix(12,0,0,12,519,350.3)"/>
<use xlink:href="#f1_7z" transform="matrix(12,0,0,12,526.7,350.3)"/>
<use xlink:href="#f1_bf" transform="matrix(12,0,0,12,539.9,350.3)"/>
<use xlink:href="#f1_am" transform="matrix(12,0,0,12,545.7,350.3)"/>
<use xlink:href="#f1_ay" transform="matrix(12,0,0,12,555.3,350.3)"/>
<use xlink:href="#f1_9q" transform="matrix(12,0,0,12,565.2,350.3)"/>
<use xlink:href="#f1_7l" transform="matrix(12,0,0,12,569.2,350.3)"/>
<use xlink:href="#f1_b5" transform="matrix(12,0,0,12,576.9,350.3)"/>
<use xlink:href="#f1_9q" transform="matrix(12,0,0,12,588.4,350.3)"/>
<use xlink:href="#f1_af" transform="matrix(12,0,0,12,592.8,350.3)"/>
<use xlink:href="#f1_89" transform="matrix(12,0,0,12,606.3,350.3)"/>
<use xlink:href="#f1_am" transform="matrix(12,0,0,12,611.8,350.3)"/>
<use xlink:href="#f1_a8" transform="matrix(12,0,0,12,621.4,350.3)"/>
<use xlink:href="#f1_a8" transform="matrix(12,0,0,12,625.4,350.3)"/>
<use xlink:href="#f1_am" transform="matrix(12,0,0,12,629.8,350.3)"/>
<use xlink:href="#f1_ci" transform="matrix(12,0,0,12,639.3,350.3)"/>
<use xlink:href="#f1_9q" transform="matrix(12,0,0,12,652.5,350.3)"/>
<use xlink:href="#f1_af" transform="matrix(12,0,0,12,656.5,350.3)"/>
<use xlink:href="#f1_9d" transform="matrix(12,0,0,12,666.1,350.3)"/>
<use xlink:href="#f1_b5" transform="matrix(12,0,0,12,678.9,350.3)"/>
<use xlink:href="#f1_7z" transform="matrix(12,0,0,12,686.2,350.3)"/>
<use xlink:href="#f1_b0" transform="matrix(12,0,0,12,695.3,350.3)"/>
<use xlink:href="#f1_c6" transform="matrix(12,0,0,12,704.9,350.3)"/>
<use xlink:href="#f1_7z" transform="matrix(12,0,0,12,714.4,350.3)"/>
<use xlink:href="#f1_af" transform="matrix(12,0,0,12,723.6,350.3)"/>
<use xlink:href="#f1_7l" transform="matrix(12,0,0,12,733.1,350.3)"/>
<use xlink:href="#f1_7z" transform="matrix(12,0,0,12,740.8,350.3)"/>
<use xlink:href="#f1_b5" transform="matrix(12,0,0,12,750,350.3)"/>
<use xlink:href="#f1_ns" transform="matrix(12,0,0,12,757.3,350.3)"/>
<use xlink:href="#f1_ry" transform="matrix(12,0,0,12,137.6,405.3)"/>
<use xlink:href="#f1_ow" transform="matrix(12,0,0,12,146.7,405.3)"/>
<use xlink:href="#f1_2g" transform="matrix(12,0,0,12,165.1,405.3)"/>
<use xlink:href="#f1_b1" transform="matrix(12,0,0,12,174.6,405.3)"/>
<use xlink:href="#f1_7z" transform="matrix(12,0,0,12,180.8,405.3)"/>
<use xlink:href="#f1_7v" transform="matrix(12,0,0,12,190,405.3)"/>
<use xlink:href="#f1_9q" transform="matrix(12,0,0,12,199.5,405.3)"/>
<use xlink:href="#f1_7l" transform="matrix(12,0,0,12,203.6,405.3)"/>
<use xlink:href="#f1_bf" transform="matrix(12,0,0,12,211.3,405.3)"/>
<use xlink:href="#f1_89" transform="matrix(12,0,0,12,221.5,405.3)"/>
<use xlink:href="#f1_b1" transform="matrix(12,0,0,12,227,405.3)"/>
<use xlink:href="#f1_am" transform="matrix(12,0,0,12,233.3,405.3)"/>
<use xlink:href="#f1_ae" transform="matrix(12,0,0,12,242.8,405.3)"/>
<use xlink:href="#f1_7l" transform="matrix(12,0,0,12,261.5,405.3)"/>
<use xlink:href="#f1_am" transform="matrix(12,0,0,12,269.2,405.3)"/>
<use xlink:href="#f1_ae" transform="matrix(12,0,0,12,278.7,405.3)"/>
<use xlink:href="#f1_ay" transform="matrix(12,0,0,12,293.4,405.3)"/>
<use xlink:href="#f1_am" transform="matrix(12,0,0,12,303.3,405.3)"/>
<use xlink:href="#f1_af" transform="matrix(12,0,0,12,312.9,405.3)"/>
<use xlink:href="#f1_7z" transform="matrix(12,0,0,12,322.5,405.3)"/>
<use xlink:href="#f1_af" transform="matrix(12,0,0,12,331.6,405.3)"/>
<use xlink:href="#f1_bf" transform="matrix(12,0,0,12,341.2,405.3)"/>
<use xlink:href="#f1_89" transform="matrix(12,0,0,12,351.4,405.3)"/>
<use xlink:href="#f1_77" transform="matrix(12,0,0,12,356.5,405.3)"/>
<use xlink:href="#f1_7l" transform="matrix(12,0,0,12,365.3,405.3)"/>
<use xlink:href="#f1_bf" transform="matrix(12,0,0,12,373.1,405.3)"/>
<use xlink:href="#f1_am" transform="matrix(12,0,0,12,379.2,405.3)"/>
<use xlink:href="#f1_b1" transform="matrix(12,0,0,12,388.8,405.3)"/>
<use xlink:href="#f1_b5" transform="matrix(12,0,0,12,395,405.3)"/>
<use xlink:href="#f1_ov" transform="matrix(12,0,0,12,406.4,405.3)"/>
<use xlink:href="#f1_a8" transform="matrix(12,0,0,12,412,405.3)"/>
<use xlink:href="#f1_9q" transform="matrix(12,0,0,12,416,405.3)"/>
<use xlink:href="#f1_af" transform="matrix(12,0,0,12,420,405.3)"/>
<use xlink:href="#f1_7z" transform="matrix(12,0,0,12,429.6,405.3)"/>
<use xlink:href="#f1_77" transform="matrix(12,0,0,12,438.7,405.3)"/>
<use xlink:href="#f1_b1" transform="matrix(12,0,0,12,447.9,405.3)"/>
<use xlink:href="#f1_b1" transform="matrix(12,0,0,12,458.1,405.3)"/>
<use xlink:href="#f1_7z" transform="matrix(12,0,0,12,464.4,405.3)"/>
<use xlink:href="#f1_9d" transform="matrix(12,0,0,12,473.5,405.3)"/>
<use xlink:href="#f1_b1" transform="matrix(12,0,0,12,482.3,405.3)"/>
<use xlink:href="#f1_7z" transform="matrix(12,0,0,12,488.5,405.3)"/>
<use xlink:href="#f1_b5" transform="matrix(12,0,0,12,497.7,405.3)"/>
<use xlink:href="#f1_b5" transform="matrix(12,0,0,12,505,405.3)"/>
<use xlink:href="#f1_9q" transform="matrix(12,0,0,12,512.3,405.3)"/>
<use xlink:href="#f1_am" transform="matrix(12,0,0,12,516.4,405.3)"/>
<use xlink:href="#f1_af" transform="matrix(12,0,0,12,525.9,405.3)"/>
<use xlink:href="#f1_ow" transform="matrix(12,0,0,12,535.5,405.3)"/>
<use xlink:href="#f1_77" transform="matrix(12,0,0,12,545.1,405.3)"/>
<use xlink:href="#f1_b5" transform="matrix(12,0,0,12,557.9,405.3)"/>
<use xlink:href="#f1_9q" transform="matrix(12,0,0,12,565.2,405.3)"/>
<use xlink:href="#f1_ae" transform="matrix(12,0,0,12,569.3,405.3)"/>
<use xlink:href="#f1_ay" transform="matrix(12,0,0,12,583.9,405.3)"/>
<use xlink:href="#f1_a8" transform="matrix(12,0,0,12,593.5,405.3)"/>
<use xlink:href="#f1_7z" transform="matrix(12,0,0,12,597.5,405.3)"/>
<use xlink:href="#f1_b1" transform="matrix(12,0,0,12,611,405.3)"/>
<use xlink:href="#f1_77" transform="matrix(12,0,0,12,616.9,405.3)"/>
<use xlink:href="#f1_af" transform="matrix(12,0,0,12,625.7,405.3)"/>
<use xlink:href="#f1_a5" transform="matrix(12,0,0,12,635.2,405.3)"/>
<use xlink:href="#f1_9q" transform="matrix(12,0,0,12,643.7,405.3)"/>
<use xlink:href="#f1_af" transform="matrix(12,0,0,12,648,405.3)"/>
<use xlink:href="#f1_9d" transform="matrix(12,0,0,12,657.6,405.3)"/>
<use xlink:href="#f1_ae" transform="matrix(12,0,0,12,670.4,405.3)"/>
<use xlink:href="#f1_7z" transform="matrix(12,0,0,12,685,405.3)"/>
<use xlink:href="#f1_bf" transform="matrix(12,0,0,12,694.2,405.3)"/>
<use xlink:href="#f1_9n" transform="matrix(12,0,0,12,700.4,405.3)"/>
<use xlink:href="#f1_am" transform="matrix(12,0,0,12,710,405.3)"/>
<use xlink:href="#f1_7v" transform="matrix(12,0,0,12,719.5,405.3)"/>
<use xlink:href="#f1_nt" transform="matrix(12,0,0,12,729,405.3)"/>
<use xlink:href="#f1_rz" transform="matrix(12,0,0,12,137.6,432.8)"/>
<use xlink:href="#f1_ow" transform="matrix(12,0,0,12,146.7,432.8)"/>
<use xlink:href="#f1_1x" transform="matrix(12,0,0,12,165.1,432.8)"/>
<use xlink:href="#f1_77" transform="matrix(12,0,0,12,180.8,432.8)"/>
<use xlink:href="#f1_a5" transform="matrix(12,0,0,12,189.6,432.8)"/>
<use xlink:href="#f1_7z" transform="matrix(12,0,0,12,197.3,432.8)"/>
<use xlink:href="#f1_7l" transform="matrix(12,0,0,12,210.5,432.8)"/>
<use xlink:href="#f1_a8" transform="matrix(12,0,0,12,218.2,432.8)"/>
<use xlink:href="#f1_77" transform="matrix(12,0,0,12,222.3,432.8)"/>
<use xlink:href="#f1_b5" transform="matrix(12,0,0,12,231.1,432.8)"/>
<use xlink:href="#f1_b5" transform="matrix(12,0,0,12,238.4,432.8)"/>
<use xlink:href="#f1_9q" transform="matrix(12,0,0,12,245.7,432.8)"/>
<use xlink:href="#f1_89" transform="matrix(12,0,0,12,249.7,432.8)"/>
<use xlink:href="#f1_9q" transform="matrix(12,0,0,12,255.2,432.8)"/>
<use xlink:href="#f1_7l" transform="matrix(12,0,0,12,259.3,432.8)"/>
<use xlink:href="#f1_77" transform="matrix(12,0,0,12,267,432.8)"/>
<use xlink:href="#f1_bf" transform="matrix(12,0,0,12,275.4,432.8)"/>
<use xlink:href="#f1_9q" transform="matrix(12,0,0,12,281.6,432.8)"/>
<use xlink:href="#f1_am" transform="matrix(12,0,0,12,286,432.8)"/>
<use xlink:href="#f1_af" transform="matrix(12,0,0,12,295.5,432.8)"/>
<use xlink:href="#f1_7v" transform="matrix(12,0,0,12,309.1,432.8)"/>
<use xlink:href="#f1_7z" transform="matrix(12,0,0,12,318.6,432.8)"/>
<use xlink:href="#f1_7l" transform="matrix(12,0,0,12,327.8,432.8)"/>
<use xlink:href="#f1_9q" transform="matrix(12,0,0,12,335.9,432.8)"/>
<use xlink:href="#f1_b5" transform="matrix(12,0,0,12,339.9,432.8)"/>
<use xlink:href="#f1_9q" transform="matrix(12,0,0,12,347.2,432.8)"/>
<use xlink:href="#f1_am" transform="matrix(12,0,0,12,351.2,432.8)"/>
<use xlink:href="#f1_af" transform="matrix(12,0,0,12,361.1,432.8)"/>
<use xlink:href="#f1_b5" transform="matrix(12,0,0,12,370.6,432.8)"/>
<use xlink:href="#f1_7k" transform="matrix(12,0,0,12,382,432.8)"/>
<use xlink:href="#f1_co" transform="matrix(12,0,0,12,391.5,432.8)"/>
<use xlink:href="#f1_7z" transform="matrix(12,0,0,12,404,432.8)"/>
<use xlink:href="#f1_cn" transform="matrix(12,0,0,12,412.8,432.8)"/>
<use xlink:href="#f1_bf" transform="matrix(12,0,0,12,420.8,432.8)"/>
<use xlink:href="#f1_7z" transform="matrix(12,0,0,12,426.7,432.8)"/>
<use xlink:href="#f1_af" transform="matrix(12,0,0,12,435.8,432.8)"/>
<use xlink:href="#f1_7v" transform="matrix(12,0,0,12,445.4,432.8)"/>
<use xlink:href="#f1_9q" transform="matrix(12,0,0,12,454.9,432.8)"/>
<use xlink:href="#f1_af" transform="matrix(12,0,0,12,459.3,432.8)"/>
<use xlink:href="#f1_9d" transform="matrix(12,0,0,12,468.8,432.8)"/>
<use xlink:href="#f1_a8" transform="matrix(12,0,0,12,481.7,432.8)"/>
<use xlink:href="#f1_9q" transform="matrix(12,0,0,12,485.7,432.8)"/>
<use xlink:href="#f1_af" transform="matrix(12,0,0,12,490.1,432.8)"/>
<use xlink:href="#f1_7z" transform="matrix(12,0,0,12,499.6,432.8)"/>
<use xlink:href="#f1_77" transform="matrix(12,0,0,12,508.7,432.8)"/>
<use xlink:href="#f1_b1" transform="matrix(12,0,0,12,517.6,432.8)"/>
<use xlink:href="#f1_b1" transform="matrix(12,0,0,12,527.8,432.8)"/>
<use xlink:href="#f1_7z" transform="matrix(12,0,0,12,534.4,432.8)"/>
<use xlink:href="#f1_9d" transform="matrix(12,0,0,12,543.5,432.8)"/>
<use xlink:href="#f1_b1" transform="matrix(12,0,0,12,552.3,432.8)"/>
<use xlink:href="#f1_7z" transform="matrix(12,0,0,12,558.6,432.8)"/>
<use xlink:href="#f1_b5" transform="matrix(12,0,0,12,567.7,432.8)"/>
<use xlink:href="#f1_b5" transform="matrix(12,0,0,12,574.7,432.8)"/>
<use xlink:href="#f1_9q" transform="matrix(12,0,0,12,582,432.8)"/>
<use xlink:href="#f1_am" transform="matrix(12,0,0,12,586.1,432.8)"/>
<use xlink:href="#f1_af" transform="matrix(12,0,0,12,595.6,432.8)"/>
<use xlink:href="#f1_bf" transform="matrix(12,0,0,12,609.2,432.8)"/>
<use xlink:href="#f1_am" transform="matrix(12,0,0,12,615,432.8)"/>
<use xlink:href="#f1_a8" transform="matrix(12,0,0,12,628.9,432.8)"/>
<use xlink:href="#f1_am" transform="matrix(12,0,0,12,633,432.8)"/>
<use xlink:href="#f1_9d" transform="matrix(12,0,0,12,642.5,432.8)"/>
<use xlink:href="#f1_9q" transform="matrix(12,0,0,12,651.3,432.8)"/>
<use xlink:href="#f1_b5" transform="matrix(12,0,0,12,655.3,432.8)"/>
<use xlink:href="#f1_bf" transform="matrix(12,0,0,12,662.3,432.8)"/>
<use xlink:href="#f1_9q" transform="matrix(12,0,0,12,668.9,432.8)"/>
<use xlink:href="#f1_7l" transform="matrix(12,0,0,12,672.9,432.8)"/>
<use xlink:href="#f1_77" transform="matrix(12,0,0,12,680.6,432.8)"/>
<use xlink:href="#f1_a8" transform="matrix(12,0,0,12,689.4,432.8)"/>
<use xlink:href="#f1_b1" transform="matrix(12,0,0,12,165.1,460.3)"/>
<use xlink:href="#f1_7z" transform="matrix(12,0,0,12,171.3,460.3)"/>
<use xlink:href="#f1_9d" transform="matrix(12,0,0,12,180.4,460.3)"/>
<use xlink:href="#f1_b1" transform="matrix(12,0,0,12,189.3,460.3)"/>
<use xlink:href="#f1_7z" transform="matrix(12,0,0,12,195.5,460.3)"/>
<use xlink:href="#f1_b5" transform="matrix(12,0,0,12,204.3,460.3)"/>
<use xlink:href="#f1_b5" transform="matrix(12,0,0,12,211.6,460.3)"/>
<use xlink:href="#f1_9q" transform="matrix(12,0,0,12,218.9,460.3)"/>
<use xlink:href="#f1_am" transform="matrix(12,0,0,12,223,460.3)"/>
<use xlink:href="#f1_af" transform="matrix(12,0,0,12,232.5,460.3)"/>
<use xlink:href="#f1_nt" transform="matrix(12,0,0,12,242,460.3)"/>
<use xlink:href="#f1_s0" transform="matrix(12,0,0,12,137.6,487.8)"/>
<use xlink:href="#f1_ow" transform="matrix(12,0,0,12,146.7,487.8)"/>
<use xlink:href="#f1_2g" transform="matrix(12,0,0,12,165.1,487.8)"/>
<use xlink:href="#f1_77" transform="matrix(12,0,0,12,174.2,487.8)"/>
<use xlink:href="#f1_bf" transform="matrix(12,0,0,12,182.7,487.8)"/>
<use xlink:href="#f1_bf" transform="matrix(12,0,0,12,188.5,487.8)"/>
<use xlink:href="#f1_7z" transform="matrix(12,0,0,12,194.4,487.8)"/>
<use xlink:href="#f1_b1" transform="matrix(12,0,0,12,203.5,487.8)"/>
<use xlink:href="#f1_af" transform="matrix(12,0,0,12,209.8,487.8)"/>
<use xlink:href="#f1_b5" transform="matrix(12,0,0,12,219.3,487.8)"/>
<use xlink:href="#f1_7l" transform="matrix(12,0,0,12,230.7,487.8)"/>
<use xlink:href="#f1_a8" transform="matrix(12,0,0,12,238.8,487.8)"/>
<use xlink:href="#f1_77" transform="matrix(12,0,0,12,242.8,487.8)"/>
<use xlink:href="#f1_b5" transform="matrix(12,0,0,12,251.6,487.8)"/>
<use xlink:href="#f1_b5" transform="matrix(12,0,0,12,258.9,487.8)"/>
<use xlink:href="#f1_9q" transform="matrix(12,0,0,12,266.3,487.8)"/>
<use xlink:href="#f1_89" transform="matrix(12,0,0,12,270.3,487.8)"/>
<use xlink:href="#f1_9q" transform="matrix(12,0,0,12,275.8,487.8)"/>
<use xlink:href="#f1_7l" transform="matrix(12,0,0,12,279.8,487.8)"/>
<use xlink:href="#f1_77" transform="matrix(12,0,0,12,287.5,487.8)"/>
<use xlink:href="#f1_bf" transform="matrix(12,0,0,12,296,487.8)"/>
<use xlink:href="#f1_9q" transform="matrix(12,0,0,12,302.2,487.8)"/>
<use xlink:href="#f1_am" transform="matrix(12,0,0,12,306.5,487.8)"/>
<use xlink:href="#f1_af" transform="matrix(12,0,0,12,316.1,487.8)"/>
<use xlink:href="#f1_77" transform="matrix(12,0,0,12,329.8,487.8)"/>
<use xlink:href="#f1_af" transform="matrix(12,0,0,12,338.6,487.8)"/>
<use xlink:href="#f1_7v" transform="matrix(12,0,0,12,348.5,487.8)"/>
<use xlink:href="#f1_7v" transform="matrix(12,0,0,12,362.1,487.8)"/>
<use xlink:href="#f1_7z" transform="matrix(12,0,0,12,371.6,487.8)"/>
<use xlink:href="#f1_7l" transform="matrix(12,0,0,12,380.7,487.8)"/>
<use xlink:href="#f1_9q" transform="matrix(12,0,0,12,388.8,487.8)"/>
<use xlink:href="#f1_b5" transform="matrix(12,0,0,12,392.8,487.8)"/>
<use xlink:href="#f1_9q" transform="matrix(12,0,0,12,400.1,487.8)"/>
<use xlink:href="#f1_am" transform="matrix(12,0,0,12,404.2,487.8)"/>
<use xlink:href="#f1_af" transform="matrix(12,0,0,12,413.7,487.8)"/>
<use xlink:href="#f1_ae" transform="matrix(12,0,0,12,427.6,487.8)"/>
<use xlink:href="#f1_77" transform="matrix(12,0,0,12,442.3,487.8)"/>
<use xlink:href="#f1_a5" transform="matrix(12,0,0,12,451.1,487.8)"/>
<use xlink:href="#f1_9q" transform="matrix(12,0,0,12,459.5,487.8)"/>
<use xlink:href="#f1_af" transform="matrix(12,0,0,12,463.5,487.8)"/>
<use xlink:href="#f1_9d" transform="matrix(12,0,0,12,473.1,487.8)"/>
<use xlink:href="#f1_b5" transform="matrix(12,0,0,12,481.9,487.8)"/>
<use xlink:href="#f1_nt" transform="matrix(12,0,0,12,489.2,487.8)"/>
<use xlink:href="#f1_s1" transform="matrix(12,0,0,12,137.6,515.3)"/>
<use xlink:href="#f1_ow" transform="matrix(12,0,0,12,146.7,515.3)"/>
<use xlink:href="#f1_j" transform="matrix(12,0,0,12,165.1,515.3)"/>
<use xlink:href="#f1_am" transform="matrix(12,0,0,12,175,515.3)"/>
<use xlink:href="#f1_ae" transform="matrix(12,0,0,12,184.5,515.3)"/>
<use xlink:href="#f1_ae" transform="matrix(12,0,0,12,199.1,515.3)"/>
<use xlink:href="#f1_am" transform="matrix(12,0,0,12,213.8,515.3)"/>
<use xlink:href="#f1_af" transform="matrix(12,0,0,12,223.4,515.3)"/>
<use xlink:href="#f1_ay" transform="matrix(12,0,0,12,236.9,515.3)"/>
<use xlink:href="#f1_9q" transform="matrix(12,0,0,12,246.8,515.3)"/>
<use xlink:href="#f1_bf" transform="matrix(12,0,0,12,250.8,515.3)"/>
<use xlink:href="#f1_89" transform="matrix(12,0,0,12,257.1,515.3)"/>
<use xlink:href="#f1_77" transform="matrix(12,0,0,12,262.2,515.3)"/>
<use xlink:href="#f1_a8" transform="matrix(12,0,0,12,271,515.3)"/>
<use xlink:href="#f1_a8" transform="matrix(12,0,0,12,275,515.3)"/>
<use xlink:href="#f1_b5" transform="matrix(12,0,0,12,279.1,515.3)"/>
<use xlink:href="#f1_nt" transform="matrix(12,0,0,12,286.5,515.3)"/>
<use xlink:href="#f1_13" transform="matrix(12,0,0,12,295.3,515.3)"/>
<use xlink:href="#f1_b1" transform="matrix(12,0,0,12,303.8,515.3)"/>
<use xlink:href="#f1_am" transform="matrix(12,0,0,12,310,515.3)"/>
<use xlink:href="#f1_ae" transform="matrix(12,0,0,12,319.5,515.3)"/>
<use xlink:href="#f1_b5" transform="matrix(12,0,0,12,338.2,515.3)"/>
<use xlink:href="#f1_am" transform="matrix(12,0,0,12,345.5,515.3)"/>
<use xlink:href="#f1_7l" transform="matrix(12,0,0,12,355.1,515.3)"/>
<use xlink:href="#f1_9q" transform="matrix(12,0,0,12,363.1,515.3)"/>
<use xlink:href="#f1_77" transform="matrix(12,0,0,12,367.1,515.3)"/>
<use xlink:href="#f1_a8" transform="matrix(12,0,0,12,375.9,515.3)"/>
<use xlink:href="#f1_am" transform="matrix(12,0,0,12,384.4,515.3)"/>
<use xlink:href="#f1_b1" transform="matrix(12,0,0,12,394,515.3)"/>
<use xlink:href="#f1_ay" transform="matrix(12,0,0,12,404.6,515.3)"/>
<use xlink:href="#f1_9n" transform="matrix(12,0,0,12,414.1,515.3)"/>
<use xlink:href="#f1_co" transform="matrix(12,0,0,12,423.3,515.3)"/>
<use xlink:href="#f1_b5" transform="matrix(12,0,0,12,431.3,515.3)"/>
<use xlink:href="#f1_9q" transform="matrix(12,0,0,12,438.6,515.3)"/>
<use xlink:href="#f1_7l" transform="matrix(12,0,0,12,442.7,515.3)"/>
<use xlink:href="#f1_77" transform="matrix(12,0,0,12,450.4,515.3)"/>
<use xlink:href="#f1_a8" transform="matrix(12,0,0,12,459.2,515.3)"/>
<use xlink:href="#f1_ay" transform="matrix(12,0,0,12,467.7,515.3)"/>
<use xlink:href="#f1_9n" transform="matrix(12,0,0,12,477.2,515.3)"/>
<use xlink:href="#f1_7z" transform="matrix(12,0,0,12,486.7,515.3)"/>
<use xlink:href="#f1_af" transform="matrix(12,0,0,12,495.9,515.3)"/>
<use xlink:href="#f1_am" transform="matrix(12,0,0,12,505.8,515.3)"/>
<use xlink:href="#f1_ae" transform="matrix(12,0,0,12,515.3,515.3)"/>
<use xlink:href="#f1_7z" transform="matrix(12,0,0,12,530,515.3)"/>
<use xlink:href="#f1_af" transform="matrix(12,0,0,12,539.5,515.3)"/>
<use xlink:href="#f1_am" transform="matrix(12,0,0,12,549,515.3)"/>
<use xlink:href="#f1_af" transform="matrix(12,0,0,12,558.6,515.3)"/>
<use xlink:href="#f1_nq" transform="matrix(12,0,0,12,568.2,515.3)"/>
<use xlink:href="#f1_7v" transform="matrix(12,0,0,12,577,515.3)"/>
<use xlink:href="#f1_9q" transform="matrix(12,0,0,12,586.6,515.3)"/>
<use xlink:href="#f1_9d" transform="matrix(12,0,0,12,590.6,515.3)"/>
<use xlink:href="#f1_9q" transform="matrix(12,0,0,12,599.4,515.3)"/>
<use xlink:href="#f1_bf" transform="matrix(12,0,0,12,603.4,515.3)"/>
<use xlink:href="#f1_9q" transform="matrix(12,0,0,12,610,515.3)"/>
<use xlink:href="#f1_ct" transform="matrix(12,0,0,12,614,515.3)"/>
<use xlink:href="#f1_7z" transform="matrix(12,0,0,12,621,515.3)"/>
<use xlink:href="#f1_7v" transform="matrix(12,0,0,12,630.1,515.3)"/>
<use xlink:href="#f1_9q" transform="matrix(12,0,0,12,643.8,515.3)"/>
<use xlink:href="#f1_af" transform="matrix(12,0,0,12,647.8,515.3)"/>
<use xlink:href="#f1_89" transform="matrix(12,0,0,12,657.3,515.3)"/>
<use xlink:href="#f1_am" transform="matrix(12,0,0,12,662.8,515.3)"/>
<use xlink:href="#f1_b1" transform="matrix(12,0,0,12,672.4,515.3)"/>
<use xlink:href="#f1_ae" transform="matrix(12,0,0,12,678.6,515.3)"/>
<use xlink:href="#f1_77" transform="matrix(12,0,0,12,693.6,515.3)"/>
<use xlink:href="#f1_bf" transform="matrix(12,0,0,12,702,515.3)"/>
<use xlink:href="#f1_9q" transform="matrix(12,0,0,12,708.3,515.3)"/>
<use xlink:href="#f1_am" transform="matrix(12,0,0,12,712.3,515.3)"/>
<use xlink:href="#f1_af" transform="matrix(12,0,0,12,721.8,515.3)"/>
<use xlink:href="#f1_bf" transform="matrix(12,0,0,12,735.7,515.3)"/>
<use xlink:href="#f1_am" transform="matrix(12,0,0,12,741.6,515.3)"/>
<use xlink:href="#f1_7v" transform="matrix(12,0,0,12,165.1,542.8)"/>
<use xlink:href="#f1_77" transform="matrix(12,0,0,12,174.6,542.8)"/>
<use xlink:href="#f1_bf" transform="matrix(12,0,0,12,183,542.8)"/>
<use xlink:href="#f1_77" transform="matrix(12,0,0,12,188.9,542.8)"/>
<use xlink:href="#f1_77" transform="matrix(12,0,0,12,201.7,542.8)"/>
<use xlink:href="#f1_af" transform="matrix(12,0,0,12,210.5,542.8)"/>
<use xlink:href="#f1_77" transform="matrix(12,0,0,12,220.1,542.8)"/>
<use xlink:href="#f1_a8" transform="matrix(12,0,0,12,229.2,542.8)"/>
<use xlink:href="#f1_co" transform="matrix(12,0,0,12,233.3,542.8)"/>
<use xlink:href="#f1_b5" transform="matrix(12,0,0,12,241.3,542.8)"/>
<use xlink:href="#f1_9q" transform="matrix(12,0,0,12,248.6,542.8)"/>
<use xlink:href="#f1_b5" transform="matrix(12,0,0,12,252.7,542.8)"/>
<use xlink:href="#f1_nt" transform="matrix(12,0,0,12,260.1,542.8)"/>
<use xlink:href="#f1_13" transform="matrix(12,0,0,12,137.6,597.9)"/>
<use xlink:href="#f1_am" transform="matrix(12,0,0,12,145.6,597.9)"/>
<use xlink:href="#f1_b1" transform="matrix(12,0,0,12,155.2,597.9)"/>
<use xlink:href="#f1_b5" transform="matrix(12,0,0,12,165.4,597.9)"/>
<use xlink:href="#f1_7z" transform="matrix(12,0,0,12,172.8,597.9)"/>
<use xlink:href="#f1_b5" transform="matrix(12,0,0,12,181.9,597.9)"/>
<use xlink:href="#f1_b5" transform="matrix(12,0,0,12,189.2,597.9)"/>
<use xlink:href="#f1_9q" transform="matrix(12,0,0,12,196.6,597.9)"/>
<use xlink:href="#f1_am" transform="matrix(12,0,0,12,200.6,597.9)"/>
<use xlink:href="#f1_af" transform="matrix(12,0,0,12,210.1,597.9)"/>
<use xlink:href="#f1_ci" transform="matrix(12,0,0,12,223.7,597.9)"/>
<use xlink:href="#f1_9q" transform="matrix(12,0,0,12,237.2,597.9)"/>
<use xlink:href="#f1_bf" transform="matrix(12,0,0,12,241.3,597.9)"/>
<use xlink:href="#f1_9n" transform="matrix(12,0,0,12,247.5,597.9)"/>
<use xlink:href="#f1_bf" transform="matrix(12,0,0,12,261,597.9)"/>
<use xlink:href="#f1_9n" transform="matrix(12,0,0,12,267.3,597.9)"/>
<use xlink:href="#f1_7z" transform="matrix(12,0,0,12,276.8,597.9)"/>
<use xlink:href="#f1_nv" transform="matrix(12,0,0,12,290,597.9)"/>
<use xlink:href="#f1_7l" transform="matrix(12,0,0,12,293.7,597.9)"/>
<use xlink:href="#f1_9n" transform="matrix(12,0,0,12,301.7,597.9)"/>
<use xlink:href="#f1_77" transform="matrix(12,0,0,12,311.2,597.9)"/>
<use xlink:href="#f1_a8" transform="matrix(12,0,0,12,320,597.9)"/>
<use xlink:href="#f1_a8" transform="matrix(12,0,0,12,324.1,597.9)"/>
<use xlink:href="#f1_7z" transform="matrix(12,0,0,12,328.1,597.9)"/>
<use xlink:href="#f1_af" transform="matrix(12,0,0,12,337.6,597.9)"/>
<use xlink:href="#f1_9d" transform="matrix(12,0,0,12,347.2,597.9)"/>
<use xlink:href="#f1_7z" transform="matrix(12,0,0,12,355.6,597.9)"/>
<use xlink:href="#f1_nw" transform="matrix(12,0,0,12,364.7,597.9)"/>
<use xlink:href="#f1_9q" transform="matrix(12,0,0,12,373.5,597.9)"/>
<use xlink:href="#f1_7l" transform="matrix(12,0,0,12,377.6,597.9)"/>
<use xlink:href="#f1_am" transform="matrix(12,0,0,12,385.3,597.9)"/>
<use xlink:href="#f1_af" transform="matrix(12,0,0,12,394.8,597.9)"/>
<use xlink:href="#f1_7k" transform="matrix(12,0,0,12,408.7,597.9)"/>
<use xlink:href="#f1_7z" transform="matrix(12,0,0,12,418.3,597.9)"/>
<use xlink:href="#f1_a8" transform="matrix(12,0,0,12,427.4,597.9)"/>
<use xlink:href="#f1_am" transform="matrix(12,0,0,12,431.5,597.9)"/>
<use xlink:href="#f1_ci" transform="matrix(12,0,0,12,441.3,597.9)"/>
<use xlink:href="#f1_nq" transform="matrix(12,0,0,12,452.7,597.9)"/>
<use xlink:href="#f1_co" transform="matrix(12,0,0,12,461.5,597.9)"/>
<use xlink:href="#f1_am" transform="matrix(12,0,0,12,469.6,597.9)"/>
<use xlink:href="#f1_c6" transform="matrix(12,0,0,12,479.1,597.9)"/>
<use xlink:href="#f1_7l" transform="matrix(12,0,0,12,492.7,597.9)"/>
<use xlink:href="#f1_77" transform="matrix(12,0,0,12,500.4,597.9)"/>
<use xlink:href="#f1_af" transform="matrix(12,0,0,12,509.5,597.9)"/>
<use xlink:href="#f1_b5" transform="matrix(12,0,0,12,523.1,597.9)"/>
<use xlink:href="#f1_a5" transform="matrix(12,0,0,12,530.4,597.9)"/>
<use xlink:href="#f1_9q" transform="matrix(12,0,0,12,538.8,597.9)"/>
<use xlink:href="#f1_ay" transform="matrix(12,0,0,12,542.8,597.9)"/>
<use xlink:href="#f1_9q" transform="matrix(12,0,0,12,556.4,597.9)"/>
<use xlink:href="#f1_bf" transform="matrix(12,0,0,12,560.4,597.9)"/>
<use xlink:href="#f1_ci" transform="matrix(12,0,0,12,570.7,597.9)"/>
<use xlink:href="#f1_9q" transform="matrix(12,0,0,12,584.2,597.9)"/>
<use xlink:href="#f1_bf" transform="matrix(12,0,0,12,588.3,597.9)"/>
<use xlink:href="#f1_9n" transform="matrix(12,0,0,12,594.5,597.9)"/>
<use xlink:href="#f1_am" transform="matrix(12,0,0,12,604,597.9)"/>
<use xlink:href="#f1_c6" transform="matrix(12,0,0,12,613.5,597.9)"/>
<use xlink:href="#f1_bf" transform="matrix(12,0,0,12,623.1,597.9)"/>
<use xlink:href="#f1_a8" transform="matrix(12,0,0,12,633.7,597.9)"/>
<use xlink:href="#f1_am" transform="matrix(12,0,0,12,637.7,597.9)"/>
<use xlink:href="#f1_b5" transform="matrix(12,0,0,12,647.2,597.9)"/>
<use xlink:href="#f1_b5" transform="matrix(12,0,0,12,654.6,597.9)"/>
<use xlink:href="#f1_am" transform="matrix(12,0,0,12,665.9,597.9)"/>
<use xlink:href="#f1_89" transform="matrix(12,0,0,12,675.4,597.9)"/>
<use xlink:href="#f1_b1" transform="matrix(12,0,0,12,685,597.9)"/>
<use xlink:href="#f1_7z" transform="matrix(12,0,0,12,691.2,597.9)"/>
<use xlink:href="#f1_77" transform="matrix(12,0,0,12,700.3,597.9)"/>
<use xlink:href="#f1_7v" transform="matrix(12,0,0,12,709.2,597.9)"/>
<use xlink:href="#f1_9q" transform="matrix(12,0,0,12,719,597.9)"/>
<use xlink:href="#f1_af" transform="matrix(12,0,0,12,723.1,597.9)"/>
<use xlink:href="#f1_9d" transform="matrix(12,0,0,12,732.6,597.9)"/>
<use xlink:href="#f1_7l" transform="matrix(12,0,0,12,137.6,625.4)"/>
<use xlink:href="#f1_am" transform="matrix(12,0,0,12,145.3,625.4)"/>
<use xlink:href="#f1_af" transform="matrix(12,0,0,12,154.8,625.4)"/>
<use xlink:href="#f1_bf" transform="matrix(12,0,0,12,164.3,625.4)"/>
<use xlink:href="#f1_9q" transform="matrix(12,0,0,12,170.6,625.4)"/>
<use xlink:href="#f1_af" transform="matrix(12,0,0,12,174.6,625.4)"/>
<use xlink:href="#f1_c6" transform="matrix(12,0,0,12,184.1,625.4)"/>
<use xlink:href="#f1_77" transform="matrix(12,0,0,12,193.7,625.4)"/>
<use xlink:href="#f1_a8" transform="matrix(12,0,0,12,202.4,625.4)"/>
<use xlink:href="#f1_a8" transform="matrix(12,0,0,12,206.8,625.4)"/>
<use xlink:href="#f1_co" transform="matrix(12,0,0,12,210.9,625.4)"/>
<use xlink:href="#f1_7k" transform="matrix(12,0,0,12,223.3,625.4)"/>
<use xlink:href="#f1_c6" transform="matrix(12,0,0,12,232.9,625.4)"/>
<use xlink:href="#f1_bf" transform="matrix(12,0,0,12,242.4,625.4)"/>
<use xlink:href="#f1_9q" transform="matrix(12,0,0,12,253.1,625.4)"/>
<use xlink:href="#f1_bf" transform="matrix(12,0,0,12,257.1,625.4)"/>
<use xlink:href="#f1_ci" transform="matrix(12,0,0,12,267.4,625.4)"/>
<use xlink:href="#f1_9q" transform="matrix(12,0,0,12,280.6,625.4)"/>
<use xlink:href="#f1_a8" transform="matrix(12,0,0,12,284.6,625.4)"/>
<use xlink:href="#f1_a8" transform="matrix(12,0,0,12,289,625.4)"/>
<use xlink:href="#f1_9n" transform="matrix(12,0,0,12,297.1,625.4)"/>
<use xlink:href="#f1_7z" transform="matrix(12,0,0,12,306.6,625.4)"/>
<use xlink:href="#f1_a8" transform="matrix(12,0,0,12,316.2,625.4)"/>
<use xlink:href="#f1_ay" transform="matrix(12,0,0,12,320.2,625.4)"/>
<use xlink:href="#f1_co" transform="matrix(12,0,0,12,333.8,625.4)"/>
<use xlink:href="#f1_am" transform="matrix(12,0,0,12,342.2,625.4)"/>
<use xlink:href="#f1_c6" transform="matrix(12,0,0,12,351.7,625.4)"/>
<use xlink:href="#f1_bf" transform="matrix(12,0,0,12,365.3,625.4)"/>
<use xlink:href="#f1_am" transform="matrix(12,0,0,12,371.5,625.4)"/>
<use xlink:href="#f1_c6" transform="matrix(12,0,0,12,385.1,625.4)"/>
<use xlink:href="#f1_af" transform="matrix(12,0,0,12,394.9,625.4)"/>
<use xlink:href="#f1_7v" transform="matrix(12,0,0,12,404.5,625.4)"/>
<use xlink:href="#f1_7z" transform="matrix(12,0,0,12,414,625.4)"/>
<use xlink:href="#f1_b1" transform="matrix(12,0,0,12,423.1,625.4)"/>
<use xlink:href="#f1_b5" transform="matrix(12,0,0,12,429.4,625.4)"/>
<use xlink:href="#f1_bf" transform="matrix(12,0,0,12,436.4,625.4)"/>
<use xlink:href="#f1_77" transform="matrix(12,0,0,12,442.2,625.4)"/>
<use xlink:href="#f1_af" transform="matrix(12,0,0,12,451,625.4)"/>
<use xlink:href="#f1_7v" transform="matrix(12,0,0,12,460.6,625.4)"/>
<use xlink:href="#f1_bf" transform="matrix(12,0,0,12,474.1,625.4)"/>
<use xlink:href="#f1_9n" transform="matrix(12,0,0,12,480.3,625.4)"/>
<use xlink:href="#f1_7z" transform="matrix(12,0,0,12,489.9,625.4)"/>
<use xlink:href="#f1_bf" transform="matrix(12,0,0,12,503.4,625.4)"/>
<use xlink:href="#f1_am" transform="matrix(12,0,0,12,509.6,625.4)"/>
<use xlink:href="#f1_ay" transform="matrix(12,0,0,12,519.2,625.4)"/>
<use xlink:href="#f1_9q" transform="matrix(12,0,0,12,528.7,625.4)"/>
<use xlink:href="#f1_7l" transform="matrix(12,0,0,12,532.7,625.4)"/>
<use xlink:href="#f1_7v" transform="matrix(12,0,0,12,544.8,625.4)"/>
<use xlink:href="#f1_7z" transform="matrix(12,0,0,12,554.4,625.4)"/>
<use xlink:href="#f1_7z" transform="matrix(12,0,0,12,563.5,625.4)"/>
<use xlink:href="#f1_ay" transform="matrix(12,0,0,12,572.7,625.4)"/>
<use xlink:href="#f1_7z" transform="matrix(12,0,0,12,582.2,625.4)"/>
<use xlink:href="#f1_b1" transform="matrix(12,0,0,12,591.3,625.4)"/>
<use xlink:href="#f1_89" transform="matrix(12,0,0,12,602.3,625.4)"/>
<use xlink:href="#f1_am" transform="matrix(12,0,0,12,607.5,625.4)"/>
<use xlink:href="#f1_b1" transform="matrix(12,0,0,12,617,625.4)"/>
<use xlink:href="#f1_89" transform="matrix(12,0,0,12,627.6,625.4)"/>
<use xlink:href="#f1_c6" transform="matrix(12,0,0,12,633.1,625.4)"/>
<use xlink:href="#f1_bf" transform="matrix(12,0,0,12,642.7,625.4)"/>
<use xlink:href="#f1_c6" transform="matrix(12,0,0,12,648.9,625.4)"/>
<use xlink:href="#f1_b1" transform="matrix(12,0,0,12,658.4,625.4)"/>
<use xlink:href="#f1_7z" transform="matrix(12,0,0,12,664.6,625.4)"/>
<use xlink:href="#f1_nw" transform="matrix(12,0,0,12,673.8,625.4)"/>
<use xlink:href="#f1_b5" transform="matrix(12,0,0,12,677.1,625.4)"/>
<use xlink:href="#f1_b1" transform="matrix(12,0,0,12,688.5,625.4)"/>
<use xlink:href="#f1_7z" transform="matrix(12,0,0,12,694.8,625.4)"/>
<use xlink:href="#f1_77" transform="matrix(12,0,0,12,703.9,625.4)"/>
<use xlink:href="#f1_a8" transform="matrix(12,0,0,12,712.7,625.4)"/>
<use xlink:href="#f1_oj" transform="matrix(12,0,0,12,717.1,625.4)"/>
<use xlink:href="#f1_a8" transform="matrix(12,0,0,12,722.6,625.4)"/>
<use xlink:href="#f1_9q" transform="matrix(12,0,0,12,726.7,625.4)"/>
<use xlink:href="#f1_89" transform="matrix(12,0,0,12,731,625.4)"/>
<use xlink:href="#f1_7z" transform="matrix(12,0,0,12,736.2,625.4)"/>
<use xlink:href="#f1_77" transform="matrix(12,0,0,12,137.6,652.9)"/>
<use xlink:href="#f1_ay" transform="matrix(12,0,0,12,146.4,652.9)"/>
<use xlink:href="#f1_ay" transform="matrix(12,0,0,12,155.9,652.9)"/>
<use xlink:href="#f1_a8" transform="matrix(12,0,0,12,165.4,652.9)"/>
<use xlink:href="#f1_9q" transform="matrix(12,0,0,12,169.5,652.9)"/>
<use xlink:href="#f1_7l" transform="matrix(12,0,0,12,173.5,652.9)"/>
<use xlink:href="#f1_77" transform="matrix(12,0,0,12,181.6,652.9)"/>
<use xlink:href="#f1_bf" transform="matrix(12,0,0,12,190,652.9)"/>
<use xlink:href="#f1_9q" transform="matrix(12,0,0,12,196.2,652.9)"/>
<use xlink:href="#f1_am" transform="matrix(12,0,0,12,200.2,652.9)"/>
<use xlink:href="#f1_af" transform="matrix(12,0,0,12,209.8,652.9)"/>
<use xlink:href="#f1_b5" transform="matrix(12,0,0,12,219.3,652.9)"/>
<use xlink:href="#f1_nt" transform="matrix(12,0,0,12,226.7,652.9)"/>
</g>
<image clip-path="url(#c1_1)" preserveAspectRatio="none" x="418" y="671" width="73" height="32" xlink:href="img/1.jpg"/>
</svg>